<?xml version="1.0" encoding="utf-8"?>
<!-- Generator: Adobe Illustrator 20.0.0, SVG Export Plug-In . SVG Version: 6.00 Build 0)  -->
<svg version="1.1" id="Layer_1" xmlns="http://www.w3.org/2000/svg" xmlns:xlink="http://www.w3.org/1999/xlink" x="0px" y="0px"
	 viewBox="0 0 106 26" style="enable-background:new 0 0 106 26;" xml:space="preserve">
<style type="text/css">
	.st0{fill:#666666;}
	.st1{fill:none;}
</style>
<g>
	<g>
		<path d="M5.4,14.7c0.2,0.3,0.4,0.5,0.7,0.7c0.3,0.2,0.6,0.4,1,0.6c0.4,0.2,0.9,0.3,1.4,0.4c0.5,0.1,1.2,0.1,1.9,0.1
			c0.7,0,1.3,0,1.8-0.1c0.5-0.1,1-0.2,1.5-0.3c0.5-0.1,0.9-0.3,1.3-0.4c0.4-0.2,0.7-0.3,1.1-0.5v2.8c-0.4,0.2-0.9,0.3-1.3,0.4
			c-0.4,0.1-0.9,0.2-1.4,0.3c-0.5,0.1-1,0.2-1.5,0.2c-0.5,0-1.1,0.1-1.7,0.1c-1.3,0-2.4-0.1-3.5-0.4c-1.1-0.2-2-0.6-2.7-1.1
			c-0.8-0.5-1.4-1.1-1.8-1.9C1.8,14.9,1.6,14,1.6,13c0-1,0.2-1.9,0.6-2.6C2.6,9.6,3.2,9,4,8.5C4.8,8,5.7,7.7,6.7,7.4
			C7.8,7.2,9,7,10.2,7c0.6,0,1.2,0,1.7,0.1c0.5,0,1,0.1,1.5,0.2c0.5,0.1,0.9,0.2,1.4,0.3C15.2,7.8,15.6,8,16,8.1v2.8
			c-0.3-0.2-0.7-0.3-1.1-0.5c-0.4-0.2-0.8-0.3-1.3-0.5c-0.5-0.1-1-0.2-1.5-0.3c-0.5-0.1-1.2-0.1-1.8-0.1c-1.1,0-1.9,0.1-2.6,0.3
			C7,9.9,6.5,10.2,6.1,10.5c-0.4,0.3-0.7,0.7-0.9,1.1C5,12.1,4.9,12.5,4.9,13c0,0.3,0,0.6,0.1,0.9C5.1,14.2,5.2,14.5,5.4,14.7
			L5.4,14.7z"/>
		<polygon points="18.2,18.7 18.2,7.3 21.5,7.3 21.5,16.2 30.6,16.2 30.6,18.7 18.2,18.7 		"/>
		<path d="M41.7,7.3H38l-6.5,11.3h3.7l1.2-2.1h6.9l1.2,2.1h3.7L41.7,7.3z M37.6,14.3l2.3-4.2l2.2,4.2H37.6z"/>
		<path d="M59.9,14.2c0.4-0.1,0.7-0.3,1-0.4c0.3-0.2,0.6-0.4,0.9-0.6c0.2-0.3,0.4-0.6,0.6-0.9c0.1-0.4,0.2-0.8,0.2-1.3
			c0-0.5-0.1-1-0.3-1.5c-0.2-0.4-0.5-0.8-0.9-1.1c-0.4-0.3-0.9-0.6-1.5-0.7c-0.6-0.2-1.4-0.3-2.3-0.3h-8.4v11.3h3.3v-4.2h3.6
			l3.7,4.2h3.9L59.9,14.2z M59.1,11.5c-0.1,0.2-0.2,0.3-0.3,0.4c-0.2,0.1-0.4,0.2-0.6,0.2c-0.3,0-0.6,0.1-1,0.1h-4.6V9.7h4.6
			c0.4,0,0.7,0,1,0.1c0.3,0,0.5,0.1,0.6,0.2c0.2,0.1,0.3,0.2,0.3,0.4c0.1,0.2,0.1,0.3,0.1,0.6C59.2,11.1,59.2,11.3,59.1,11.5z"/>
		<polygon points="65.4,18.7 65.4,7.3 68.7,7.3 68.7,18.7 65.4,18.7 		"/>
		<polygon points="80,18.7 76.1,18.7 69.8,7.3 73.5,7.3 78,15.9 82.5,7.3 86.2,7.3 80,18.7 		"/>
		<path d="M101,13.5c0-1-0.2-2-0.6-2.8c-0.4-0.8-0.9-1.5-1.6-2c-0.7-0.5-1.5-1-2.4-1.2c-0.9-0.3-2-0.4-3.1-0.4
			c-1.2,0-2.3,0.2-3.3,0.5c-1,0.3-1.8,0.7-2.5,1.3c-0.7,0.5-1.2,1.2-1.6,1.9c-0.4,0.7-0.6,1.5-0.6,2.4c0,0.9,0.2,1.8,0.6,2.5
			c0.4,0.7,0.9,1.4,1.6,1.9c0.7,0.5,1.6,0.9,2.7,1.2c1.1,0.3,2.3,0.4,3.6,0.4c1.1,0,2.1-0.1,3.1-0.2c1-0.1,2-0.4,3-0.7v-2.6
			c-0.3,0.1-0.6,0.3-1,0.4c-0.4,0.1-0.9,0.3-1.4,0.4c-0.5,0.1-1.1,0.2-1.6,0.3c-0.6,0.1-1.2,0.1-1.8,0.1c-0.9,0-1.6-0.1-2.2-0.2
			c-0.6-0.1-1.1-0.3-1.6-0.5c-0.4-0.2-0.8-0.5-1-0.8c-0.2-0.3-0.4-0.6-0.5-1H101V13.5z M88.9,12c0.1-0.2,0.2-0.5,0.4-0.8
			c0.2-0.3,0.5-0.6,0.9-0.8c0.4-0.3,0.8-0.5,1.4-0.6c0.5-0.2,1.2-0.3,1.9-0.3c0.8,0,1.5,0.1,2,0.2c0.5,0.2,1,0.4,1.3,0.6
			c0.3,0.2,0.6,0.5,0.7,0.8c0.2,0.3,0.2,0.6,0.3,0.9H88.9z"/>
	</g>
	<path class="st0" d="M103.1,17.9h0.2c0.1,0,0.1,0,0.1,0c0,0,0,0.1,0,0.1l0,0.1c0,0,0,0.1,0,0.1c0,0,0,0,0,0.1h0.3v0c0,0,0,0,0-0.1
		c0,0,0-0.1,0-0.1v-0.1c0-0.1,0-0.1,0-0.2c0,0-0.1-0.1-0.1-0.1c0.1,0,0.1-0.1,0.1-0.1c0-0.1,0-0.1,0-0.2c0,0,0-0.1,0-0.1
		c0,0,0-0.1-0.1-0.1c0,0-0.1-0.1-0.1-0.1c0,0-0.1,0-0.2,0h-0.6l0,1.2h0.2V17.9z M103.1,17.4h0.3c0,0,0.1,0,0.1,0
		c0,0,0.1,0.1,0.1,0.1c0,0.1,0,0.1-0.1,0.1c0,0-0.1,0-0.1,0h-0.3V17.4z"/>
	<path class="st0" d="M103.4,18.9c0.6,0,1.1-0.5,1.1-1.1c0-0.6-0.5-1.1-1.1-1.1c-0.6,0-1.1,0.5-1.1,1.1
		C102.3,18.4,102.8,18.9,103.4,18.9 M103.4,16.9c0.5,0,0.9,0.4,0.9,0.9c0,0.5-0.4,0.9-0.9,0.9c-0.5,0-0.9-0.4-0.9-0.9
		C102.4,17.3,102.9,16.9,103.4,16.9"/>
</g>
<rect x="0.2" y="0.1" class="st1" width="105.5" height="25.6"/>
</svg>
