<?xml version="1.0" encoding="utf-8"?>
<!-- Generator: Adobe Illustrator 20.0.0, SVG Export Plug-In . SVG Version: 6.00 Build 0)  -->
<svg version="1.1" xmlns="http://www.w3.org/2000/svg" xmlns:xlink="http://www.w3.org/1999/xlink" x="0px" y="0px"
	 viewBox="0 0 16 16" style="enable-background:new 0 0 16 16;" xml:space="preserve">
<style type="text/css">
	.st0{fill:none;stroke:#3FA9F5;stroke-width:0.9587;stroke-miterlimit:10;}
	.st1{fill:#3FA9F5;}
	.st2{fill:#404040;}
</style>
<g id="Layer_2">
	<polygon class="st0" points="14.2,5.1 14.2,14.6 1.5,14.6 1.5,1.5 8.9,1.5 	"/>
	<polygon class="st1" points="9,1 9,5 14,5 	"/>
	<rect x="3" y="4" class="st1" width="4" height="1"/>
	<rect x="3" y="6" class="st1" width="6.9" height="1"/>
	<rect x="3" y="8" class="st1" width="6.9" height="1"/>
	<rect x="3" y="10" class="st1" width="6.9" height="1"/>
	<rect x="3" y="12" class="st1" width="6.9" height="1"/>
</g>
<g id="Layer_3">
	<path class="st2" d="M13.8,2.9c0,1-0.8,1.8-1.8,1.8h-0.2c-1,0-1.8-0.8-1.8-1.8V2.8c0-1,0.8-1.8,1.8-1.8H12C13,1,13.8,1.8,13.8,2.9
		L13.8,2.9z"/>
	<path class="st2" d="M12.1,7.8"/>
	<path class="st2" d="M14.5,5L9.5,5C9.2,5,9,5.2,9,5.4c0,1.2,0,4.6,0,4.6l1,0v4.6c0,0.2,0.2,0.4,0.4,0.4c0.8,0,2.4,0,3.2,0
		c0.2,0,0.4-0.2,0.4-0.4V10l1,0c0,0.1,0-3.3,0-4.5C15,5.2,14.8,5,14.5,5z"/>
</g>
</svg>
