<?xml version="1.0" encoding="utf-8"?>
<!-- Generator: Adobe Illustrator 20.0.0, SVG Export Plug-In . SVG Version: 6.00 Build 0)  -->
<svg version="1.1" id="Layer_2" xmlns="http://www.w3.org/2000/svg" xmlns:xlink="http://www.w3.org/1999/xlink" x="0px" y="0px"
	 viewBox="0 0 16 16" style="enable-background:new 0 0 16 16;" xml:space="preserve">
<style type="text/css">
	.st0{fill:#404040;}
	.st1{fill:#3FA9F5;}
</style>
<g>
	<polygon class="st0" points="6,4 6,0 5,0 5,4 1,4 1,8 1.9,8 2,5 9,4.9 9,8 10,8 9.9,4 	"/>
	<polygon class="st0" points="8.1,8 11,8 9.5,10 	"/>
	<polygon class="st0" points="0.1,8 3,8 1.5,9.9 	"/>
</g>
<g>
	<polygon class="st1" points="9.9,10 9.9,6 9,6 9,10 5,10 5,14 5.9,14 5.9,11 13,10.9 13,14 14,14 13.9,10 	"/>
	<polygon class="st1" points="12,14 15,14 13.4,16 	"/>
	<polygon class="st1" points="4.1,14 6.9,14 5.4,15.9 	"/>
</g>
</svg>
