<?xml version="1.0" encoding="utf-8"?>
<!-- Generator: Adobe Illustrator 20.0.0, SVG Export Plug-In . SVG Version: 6.00 Build 0)  -->
<svg version="1.1" xmlns="http://www.w3.org/2000/svg" xmlns:xlink="http://www.w3.org/1999/xlink" x="0px" y="0px"
	 viewBox="0 0 16 16" style="enable-background:new 0 0 16 16;" xml:space="preserve">
<style type="text/css">
	.st0{display:none;}
	.st1{fill:#404040;}
	.st2{fill:#F7A808;}
</style>
<g id="Layer_1">
	<g>
		<path class="st1" d="M15,1v13H6.1V1H15 M16,0H5.1v15H16V0L16,0z"/>
	</g>
	<g>
		<rect x="3" y="12" class="st1" width="13" height="3"/>
	</g>
	<g>
		<polygon class="st1" points="12,2.9 7,2.9 7,4 12,4 12,2.9 		"/>
	</g>
	<g>
		<polygon class="st1" points="12.8,5 7,5 7,6.1 12.8,6.1 12.8,5 		"/>
	</g>
	<g>
		<polygon class="st1" points="13,7 7.4,7 7.4,8.1 13,8.1 13,7 		"/>
	</g>
	<path class="st2" d="M9.4,9.9L9.4,9.9L9.4,9.9L4.9,1.6l0-0.1L0.7,9.8V11l8.7,0V9.9z M4.7,5.8l1.4,4.1l-3.2,0L4.7,5.8z"/>
</g>
</svg>
