<?xml version="1.0" encoding="utf-8"?>
<!-- Generator: Adobe Illustrator 20.0.0, SVG Export Plug-In . SVG Version: 6.00 Build 0)  -->
<svg version="1.1" id="Layer_2" xmlns="http://www.w3.org/2000/svg" xmlns:xlink="http://www.w3.org/1999/xlink" x="0px" y="0px"
	 viewBox="0 0 16 16" style="enable-background:new 0 0 16 16;" xml:space="preserve">
<style type="text/css">
	.st0{fill:none;stroke:#404040;stroke-width:1.1823;stroke-miterlimit:10;}
	.st1{fill:#404040;}
	.st2{fill:none;stroke:#404040;stroke-width:0.9106;stroke-miterlimit:10;}
</style>
<polyline class="st0" points="4.5,9.4 4.5,12.5 9,12.5 "/>
<g>
	<polygon class="st1" points="7.6,10.5 7.6,14.5 10.6,12.5 	"/>
</g>
<rect x="12" y="9.3" class="st1" width="2" height="3.6"/>
<ellipse class="st2" cx="4.8" cy="4" rx="2.9" ry="1.6"/>
<path class="st1" d="M8.1,3.6v5.1V8.6c0,0.9-1.5,1.6-3.4,1.6S1.5,9.5,1.5,8.6v0.1v-5c0,0,0.2,1.4,3.3,1.5C7.2,5.2,8.1,3.6,8.1,3.6z"
	/>
<g>
	<path class="st1" d="M13,2.3c0.9,0,1.8,1.4,1.8,3.3S13.9,8.9,13,8.9s-1.8-1.4-1.8-3.3S12.1,2.3,13,2.3 M13,1.3
		c-1.5,0-2.8,1.9-2.8,4.3c0,2.4,1.3,4.3,2.8,4.3s2.8-1.9,2.8-4.3C15.8,3.2,14.5,1.3,13,1.3L13,1.3z"/>
</g>
</svg>
