<?xml version="1.0" encoding="utf-8"?>
<!-- Generator: Adobe Illustrator 20.0.0, SVG Export Plug-In . SVG Version: 6.00 Build 0)  -->
<svg version="1.1" id="Layer_1" xmlns="http://www.w3.org/2000/svg" xmlns:xlink="http://www.w3.org/1999/xlink" x="0px" y="0px"
	 viewBox="0 0 16 16" style="enable-background:new 0 0 16 16;" xml:space="preserve">
<style type="text/css">
	.st0{fill:none;}
	.st1{fill:#FF6F6F;}
	.st2{fill:#404040;}
</style>
<rect x="-0.2" y="0.1" class="st0" width="16" height="16"/>
<path class="st1" d="M5.8,7.1c-1.9,0-3.5,1.5-3.5,3.5c0,1.9,1.4,3.6,3.5,3.6s3.5-1.6,3.5-3.6S7.7,7.1,5.8,7.1z M8.1,9.7H6v1.9h1.1
	L5,14l-1.9-2.4h1.3V9.7V8.3h1.5h2.2C8.1,8.3,8.1,9.7,8.1,9.7z"/>
<path class="st2" d="M14,4c-0.1-1.9-2.7-3-6-3S2,2.1,2,4v8c0,0,0.5,2.8,6,3c5.8,0.2,6-3,6-3S14.1,4.8,14,4z M5.8,14.2
	c-1.3,0-2.3-0.6-2.9-1.6c-0.4-0.6-0.5-1.2-0.6-1.8c0-0.2,0-0.7,0-0.7c0.3-1.8,1.8-3,3.5-3c1.9,0,3.4,1.5,3.5,3.5
	C9.3,12.7,7.7,14.2,5.8,14.2z M8,6C5.3,6,3.6,5,3.6,4.2S5.3,2.5,8,2.5s4.4,1,4.3,1.7C12.3,4.9,10.7,6,8,6z"/>
</svg>
