<?xml version="1.0" encoding="utf-8"?>
<!-- Generator: Adobe Illustrator 20.0.0, SVG Export Plug-In . SVG Version: 6.00 Build 0)  -->
<svg version="1.1" id="Layer_2" xmlns="http://www.w3.org/2000/svg" xmlns:xlink="http://www.w3.org/1999/xlink" x="0px" y="0px"
	 viewBox="0 0 16 16" style="enable-background:new 0 0 16 16;" xml:space="preserve">
<style type="text/css">
	.st0{fill:#3FA9F5;}
	.st1{fill:#404040;}
</style>
<g>
	<path class="st0" d="M8,1l3.1,2.8L11,13H2L2.1,1H8 M8.4,0H1.1L1,14h11l0.1-10.7L8.4,0L8.4,0z"/>
</g>
<polygon class="st0" points="8.1,0.6 8,4 11.7,4 "/>
<rect x="3" y="3" class="st0" width="4" height="1"/>
<rect x="3" y="5" class="st0" width="7" height="1"/>
<rect x="3" y="7" class="st0" width="7" height="1"/>
<rect x="3" y="9" class="st0" width="6" height="1"/>
<rect x="3" y="11" class="st0" width="5" height="1"/>
<polygon class="st1" points="13,10 12,10 12,8 9,8 9,11 11,11 11,12 9,12 9,15 12,15 12,13 13,13 13,15 16,15 16,12 14,12 14,11 
	16,11 16,8 13,8 "/>
</svg>
