<?xml version="1.0" encoding="utf-8"?>
<!-- Generator: Adobe Illustrator 20.0.0, SVG Export Plug-In . SVG Version: 6.00 Build 0)  -->
<svg version="1.1" id="Layer_1" xmlns="http://www.w3.org/2000/svg" xmlns:xlink="http://www.w3.org/1999/xlink" x="0px" y="0px"
	 viewBox="0 0 16 16" style="enable-background:new 0 0 16 16;" xml:space="preserve">
<style type="text/css">
	.st0{fill:#404040;}
	.st1{fill:none;}
	.st2{fill:#4FBC78;}
</style>
<g id="Layer_3">
</g>
<g>
	<path class="st0" d="M11.5,4.9c1.6,0,2.5,0.7,2.5,1s-0.9,1-2.5,1S9,6.2,9,5.9S9.9,4.9,11.5,4.9 M11.5,3.9C9.6,3.9,8,4.8,8,5.9
		s1.6,2,3.5,2S15,7,15,5.9S13.4,3.9,11.5,3.9L11.5,3.9z"/>
</g>
<line class="st1" x1="7" y1="9" x2="0" y2="9"/>
<path class="st0" d="M6,14v-4h1v4H6z"/>
<polygon class="st0" points="5,14 2,14 2,10 3,10 5,10 5,11 3,11 3,13 3,13 4,13 4,13 4,12 5,12 "/>
<polygon class="st0" points="9,11 8,11 8,10 11,10 11,11 10,11 10,14 9,14 "/>
<rect x="14" y="9" class="st0" width="1" height="7"/>
<g>
	<path class="st0" d="M1.1,9.1H13V15H1.1V9.1 M0,8v8h14V8H0L0,8z"/>
</g>
<g>
	<path class="st0" d="M3.5,2.9c1.6,0,2.5,0.7,2.5,1s-0.9,1-2.5,1S1,4.2,1,3.9S1.9,2.9,3.5,2.9 M3.5,1.9C1.6,1.9,0,2.8,0,3.9
		s1.6,2,3.5,2S7,5,7,3.9S5.4,1.9,3.5,1.9L3.5,1.9z"/>
</g>
<path class="st0" d="M7,9.1V3.5c0,0,0.1,1.6-3.6,1.8C0.3,5.4,0,3.6,0,3.6l0,5.5L7,9.1z"/>
<path class="st0" d="M15,9l-0.1-3.4c0,0,0.6,1.5-3.1,1.6C8.4,7.3,8,5.7,8,5.7v3.4L15,9z"/>
<path class="st2" d="M11.5,7.6c-1.6-5.3-7-3.9-7-3.8L3.2,1.4c0,0,9.7-3,9.2,6.2H11.5z"/>
<polygon class="st2" points="10,7 13.4,6.9 11.9,9.6 "/>
</svg>
