<?xml version="1.0" encoding="utf-8"?>
<!-- Generator: Adobe Illustrator 20.0.0, SVG Export Plug-In . SVG Version: 6.00 Build 0)  -->
<svg version="1.1" id="Layer_2" xmlns="http://www.w3.org/2000/svg" xmlns:xlink="http://www.w3.org/1999/xlink" x="0px" y="0px"
	 viewBox="0 0 16 16" style="enable-background:new 0 0 16 16;" xml:space="preserve">
<style type="text/css">
	.st0{fill:#404040;}
	.st1{fill:none;stroke:#404040;stroke-width:0.9071;stroke-miterlimit:10;}
	.st2{fill:none;stroke:#404040;stroke-width:0.66;stroke-miterlimit:10;}
	.st3{fill:none;stroke:#404040;stroke-width:1.6683;stroke-miterlimit:10;}
</style>
<rect x="12" y="9.1" class="st0" width="2" height="3.7"/>
<ellipse class="st1" cx="4.9" cy="8.9" rx="2.9" ry="1.6"/>
<path class="st0" d="M8.3,8.6v5.1v-0.1c0,0.9-1.5,1.6-3.4,1.6s-3.3-0.7-3.3-1.6v0.1v-5c0,0,0.2,1.4,3.3,1.5
	C7.4,10.2,8.3,8.6,8.3,8.6z"/>
<path class="st2" d="M11.8,14.2"/>
<polyline class="st3" points="9.7,3.6 4.6,3.6 4.6,6.9 "/>
<g>
	<polygon class="st0" points="4.9,9.2 6.5,6 2.8,6 	"/>
</g>
<g>
	<path class="st0" d="M13,2.3c0.9,0,1.8,1.4,1.8,3.3S13.9,8.9,13,8.9s-1.8-1.4-1.8-3.3S12.1,2.3,13,2.3 M13,1.3
		c-1.5,0-2.8,1.9-2.8,4.3c0,2.4,1.3,4.3,2.8,4.3s2.8-1.9,2.8-4.3C15.8,3.2,14.5,1.3,13,1.3L13,1.3z"/>
</g>
</svg>
