<?xml version="1.0" encoding="utf-8"?>
<!-- Generator: Adobe Illustrator 20.0.0, SVG Export Plug-In . SVG Version: 6.00 Build 0)  -->
<svg version="1.1" id="Layer_1" xmlns="http://www.w3.org/2000/svg" xmlns:xlink="http://www.w3.org/1999/xlink" x="0px" y="0px"
	 viewBox="0 0 16 16" style="enable-background:new 0 0 16 16;" xml:space="preserve">
<style type="text/css">
	.st0{fill:#F7A808;}
	.st1{fill:#FFFFFF;}
</style>
<path class="st0" d="M14.9,8l-2.2-1.5l0.9-2.5L10.9,4l-0.8-2.6L8,3L5.9,1.4L5.1,4L2.4,3.9l0.9,2.5L1.1,8l2.2,1.5l-0.9,2.5L5.1,12
	l0.8,2.6L8,13l2.1,1.6l0.8-2.6l2.7,0.1l-0.9-2.5L14.9,8z M7.9,11.8c-0.6,0-1-0.5-1-1.1c0-0.6,0.4-1.1,1-1.1c0.6,0,1,0.5,1,1.1
	C8.9,11.3,8.5,11.8,7.9,11.8z"/>
<polygon class="st1" points="6.9,4.2 7.1,9.1 8.5,9.1 8.8,4.2 "/>
</svg>
