<?xml version="1.0" encoding="utf-8"?>
<!-- Generator: Adobe Illustrator 20.0.0, SVG Export Plug-In . SVG Version: 6.00 Build 0)  -->
<svg version="1.1" id="Layer_2" xmlns="http://www.w3.org/2000/svg" xmlns:xlink="http://www.w3.org/1999/xlink" x="0px" y="0px"
	 viewBox="0 0 75 66" style="enable-background:new 0 0 75 66;" xml:space="preserve">
<style type="text/css">
	.st0{fill:#404040;}
	.st1{fill:#4EBC78;}
	.st2{fill:#4FBC78;}
	.st3{fill:#AFAFAF;}
</style>
<path class="st0" d="M31,31h-6.9v-9.4l1.9-0.2L31,31z"/>
<g>
	<path class="st0" d="M24,23.9l5,8.1v24H6V23.9H24 M3.1,21L3,58.8h29V31.4l-3.6-10.3L3.1,21z"/>
</g>
<path class="st0" d="M66.1,30.9H59V22l1.3-0.1L66.1,30.9z"/>
<g>
	<path class="st0" d="M63,31v25H38V24l21-0.2L63,31z M35,21.1l0.1,37.8L66,59l-0.1-27.8l-4.6-10L35,21.1z"/>
</g>
<polygon class="st1" points="44.4,19.2 43.9,5.4 29.9,18.5 "/>
<g>
	<path class="st2" d="M35.1,14.7c0,0-0.2-0.3-0.6-0.8c-0.1-0.1-0.2-0.3-0.3-0.4c-0.1-0.1-0.2-0.2-0.2-0.2c-0.1-0.1-0.2-0.2-0.3-0.3
		s-0.3-0.2-0.4-0.3c-0.2-0.1-0.3-0.3-0.5-0.4c-0.2-0.1-0.4-0.2-0.6-0.3c-0.2-0.1-0.4-0.2-0.6-0.3s-0.4-0.2-0.7-0.2
		c-0.2,0-0.5-0.1-0.7-0.1c-0.3,0-0.5,0-0.8,0c-0.5,0-1.1,0.1-1.6,0.3c-0.3,0.1-0.5,0.2-0.8,0.3s-0.5,0.2-0.7,0.4s-0.5,0.3-0.7,0.5
		s-0.4,0.4-0.6,0.6c-0.2,0.2-0.3,0.5-0.5,0.7s-0.3,0.5-0.5,0.7c-0.2,0.5-0.5,1-0.6,1.5s-0.3,0.9-0.4,1.3s-0.1,0.8-0.2,1.1
		c-0.1,0.6-0.2,1-0.2,1s0-0.3-0.1-1c0-0.3-0.1-0.7-0.1-1.1s0-0.9,0-1.5c0-0.5,0.2-1.1,0.2-1.8c0.1-0.3,0.2-0.6,0.3-1
		c0.1-0.3,0.2-0.7,0.4-1c0.2-0.3,0.3-0.7,0.5-1s0.5-0.6,0.7-1c0.2-0.3,0.5-0.6,0.8-0.9c0.3-0.3,0.6-0.6,1-0.8
		c0.7-0.5,1.5-0.8,2.3-1.1c0.4-0.1,0.8-0.2,1.2-0.3c0.4-0.1,0.8-0.1,1.2-0.1c0.4,0,0.8,0,1.2,0s0.8,0.1,1.2,0.2s0.7,0.2,1.1,0.3
		c0.4,0.1,0.7,0.2,1,0.4c0.3,0.1,0.6,0.2,0.9,0.4C36.7,8.7,37,8.8,37.2,9c0.3,0.2,0.5,0.3,0.7,0.5c0.2,0.1,0.3,0.2,0.4,0.3
		c0.5,0.4,0.8,0.6,0.8,0.6L35.1,14.7z"/>
</g>
<rect x="39.1" y="35" class="st1" width="5.8" height="2"/>
<rect x="41.2" y="44.1" class="st1" width="1.8" height="5.9"/>
<rect x="39.1" y="46.1" class="st1" width="5.9" height="1.8"/>
<polygon class="st3" points="46,38 60,38 60,39 46.1,39 "/>
<rect x="46.1" y="45" class="st3" width="13.8" height="0.9"/>
<polygon class="st3" points="46,51 60.9,51 60.9,52 46,52 "/>
<polygon class="st3" points="46.1,48.1 60.9,48.1 61,49 46.1,49 "/>
<polygon class="st3" points="7,29 19,29 19,30 7,30 "/>
<polygon class="st3" points="7,32 18.8,32 18.9,33 7,33 "/>
<polygon class="st3" points="7,35 21,35 21,35.9 7,35.9 "/>
<rect x="7.1" y="51" class="st3" width="11.8" height="0.9"/>
<rect x="7" y="48.1" class="st3" width="12.8" height="0.9"/>
<rect x="7" y="45.1" class="st3" width="13.8" height="0.8"/>
<polygon class="st3" points="7,38.1 17,38.1 17,38.8 7,38.8 "/>
<polygon class="st3" points="46,31.1 56.9,31.1 56.9,31.9 46,32 "/>
<polygon class="st3" points="46.2,35 57,35 57,36 46.2,35.9 "/>
<polygon class="st3" points="46,42.1 60.9,42 60.9,42.9 46.1,43 "/>
</svg>
