<?xml version="1.0" encoding="utf-8"?>
<!-- Generator: Adobe Illustrator 19.2.1, SVG Export Plug-In . SVG Version: 6.00 Build 0)  -->
<svg version="1.1" id="Layer_1" xmlns="http://www.w3.org/2000/svg" xmlns:xlink="http://www.w3.org/1999/xlink" x="0px" y="0px"
	 viewBox="0 0 16 16" style="enable-background:new 0 0 16 16;" xml:space="preserve">
<style type="text/css">
	.st0{fill:#3E3E3E;}
	.st1{fill:none;}
	.st2{fill:#404040;}
	.st3{fill:#414141;}
</style>
<path class="st0" d="M1,1v14h14V1H1z M4.5,2v0.5H4V2H4.5z M3.5,2v0.5H3V2H3.5z M2,2h0.5v0.5H2V2z M2,14V3.5h12V14H2z"/>
<rect class="st1" width="16" height="16"/>
<rect x="5.8" y="7.9" transform="matrix(0.6863 -0.7274 0.7274 0.6863 -3.9994 8.4795)" class="st2" width="4" height="2"/>
<polygon class="st3" points="5,11.9 5.4,10 6.9,11.3 "/>
<rect x="9.3" y="5.7" transform="matrix(0.6863 -0.7274 0.7274 0.6863 -1.8043 9.2778)" class="st2" width="1.1" height="2"/>
</svg>
