<?xml version="1.0" encoding="utf-8"?>
<!-- Generator: Adobe Illustrator 20.0.0, SVG Export Plug-In . SVG Version: 6.00 Build 0)  -->
<svg version="1.1" id="Layer_1" xmlns="http://www.w3.org/2000/svg" xmlns:xlink="http://www.w3.org/1999/xlink" x="0px" y="0px"
	 viewBox="0 0 16 16" style="enable-background:new 0 0 16 16;" xml:space="preserve">
<style type="text/css">
	.st0{display:none;}
	.st1{fill:#404040;}
	.st2{fill:none;stroke:#404040;stroke-width:0.9545;stroke-miterlimit:10;}
	.st3{fill:none;stroke:#404040;stroke-width:0.9602;stroke-miterlimit:10;}
	.st4{fill:#3FA9F5;}
</style>
<rect x="9.1" y="11.5" class="st1" width="1" height="3.1"/>
<line class="st2" x1="9.6" y1="1" x2="9.6" y2="5.1"/>
<line class="st3" x1="9.6" y1="11.1" x2="9.6" y2="15.2"/>
<rect x="1.1" y="2.6" class="st1" width="6.1" height="1"/>
<polygon class="st1" points="5.1,0.6 5.1,5.6 8.1,3.2 "/>
<polygon class="st1" points="5.1,10.6 5.1,15.7 8.1,13.2 "/>
<rect x="1" y="12.7" class="st1" width="6.1" height="0.9"/>
<g>
	<path class="st4" d="M9.8,6c1.1,0,2.1,0.9,2.1,2.1s-0.9,2.1-2.1,2.1S7.7,9.3,7.7,8.1S8.6,6,9.8,6 M9.8,5C8.1,5,6.7,6.4,6.7,8.1
		s1.4,3.1,3.1,3.1s3.1-1.4,3.1-3.1S11.5,5,9.8,5L9.8,5z"/>
</g>
<g>
	<circle class="st1" cx="9.8" cy="8.1" r="0.7"/>
	<path class="st4" d="M9.8,7.4c-0.4,0-0.7,0.3-0.7,0.7s0.3,0.7,0.7,0.7s0.7-0.3,0.7-0.7S10.2,7.4,9.8,7.4L9.8,7.4z"/>
</g>
</svg>
