<?xml version="1.0" encoding="utf-8"?>
<!-- Generator: Adobe Illustrator 20.0.0, SVG Export Plug-In . SVG Version: 6.00 Build 0)  -->
<svg version="1.1" id="Layer_1" xmlns="http://www.w3.org/2000/svg" xmlns:xlink="http://www.w3.org/1999/xlink" x="0px" y="0px"
	 viewBox="0 0 16 16" style="enable-background:new 0 0 16 16;" xml:space="preserve">
<style type="text/css">
	.st0{display:none;}
	.st1{fill:#404040;}
	.st2{fill:#3FA9F5;}
	.st3{fill:none;stroke:#3FA9F5;stroke-miterlimit:10;}
	.st4{fill-rule:evenodd;clip-rule:evenodd;fill:#404040;}
</style>
<rect x="1" y="3" class="st1" width="6.1" height="1"/>
<polygon class="st1" points="5.1,0.6 5.1,5.6 8.1,3.2 "/>
<polygon class="st1" points="5.1,10.6 5.1,15.7 8.1,13.2 "/>
<rect x="1" y="12.7" class="st1" width="6.1" height="0.9"/>
<g>
	<path class="st2" d="M14,5v5.7h-3.9V5H14 M14.9,4H9.2v7.6h5.8V4L14.9,4z"/>
</g>
<g>
	<line class="st3" x1="9.4" y1="7.2" x2="14.4" y2="7.2"/>
	<line class="st4" x1="9.4" y1="7.2" x2="14.4" y2="7.2"/>
</g>
<g>
	<line class="st3" x1="9.3" y1="9.2" x2="14.5" y2="9.2"/>
	<line class="st4" x1="9.3" y1="9.2" x2="14.5" y2="9.2"/>
</g>
<rect x="9.2" y="0.9" class="st4" width="1" height="3.1"/>
<rect x="9.2" y="11.6" class="st4" width="1" height="3"/>
</svg>
