<?xml version="1.0" encoding="utf-8"?>
<!-- Generator: Adobe Illustrator 20.0.0, SVG Export Plug-In . SVG Version: 6.00 Build 0)  -->
<svg version="1.1" id="Layer_2" xmlns="http://www.w3.org/2000/svg" xmlns:xlink="http://www.w3.org/1999/xlink" x="0px" y="0px"
	 viewBox="0 0 16 16" style="enable-background:new 0 0 16 16;" xml:space="preserve">
<style type="text/css">
	.st0{fill:#FF6F6F;}
	.st1{fill:#4FBC78;}
	.st2{fill:#FFFFFF;}
</style>
<polygon class="st0" points="4,4 4,12 0,12 0,2.1 11.1,2 11.1,4 "/>
<g>
	<polygon class="st1" points="4,4 16,4 16,15 4,15 	"/>
</g>
<g>
	<rect x="6" y="7" class="st2" width="4" height="2"/>
</g>
<g>
	<rect x="11" y="7" class="st2" width="4" height="2"/>
</g>
<g>
	<polygon class="st2" points="7,12 7,11 8,11 8,12 9,12 9,13 8,13 8,14 7,14 7,13 6,13 6,12 	"/>
</g>
<g>
	<polygon class="st2" points="13,12 13,11 14,11 14,12 15,12 15,13 14,13 14,14 13,14 13,13 12,13 12,12 	"/>
</g>
</svg>
