<?xml version="1.0" encoding="utf-8"?>
<!-- Generator: Adobe Illustrator 20.0.0, SVG Export Plug-In . SVG Version: 6.00 Build 0)  -->
<svg version="1.1" id="Layer_2" xmlns="http://www.w3.org/2000/svg" xmlns:xlink="http://www.w3.org/1999/xlink" x="0px" y="0px"
	 viewBox="0 0 48.1 49" style="enable-background:new 0 0 48.1 49;" xml:space="preserve">
<style type="text/css">
	.st0{fill:#FF6F6F;}
	.st1{fill:#4FBC78;}
	.st2{fill:#404040;}
</style>
<rect x="11.1" y="19" class="st0" width="23" height="5"/>
<polygon class="st1" points="12.1,8 20.2,8 20.1,2.1 25.1,2.1 25.1,8 33,8.1 33,11.9 25,11.9 25.1,17 20.1,16.9 20.1,11.9 12.2,12 
	"/>
<g>
	<path class="st2" d="M33.2,31.9c0.4,1.1,0.7,2.1,0.7,3.2c0,1.7-0.3,3.2-0.9,4.6s-1.4,2.5-2.4,3.4c-1,0.9-2.2,1.6-3.6,2.1
		c-1.4,0.5-2.9,0.7-4.5,0.7c-1.7,0-3.2-0.2-4.6-0.7c-1.4-0.5-2.7-1.2-3.7-2.1c-1.1-0.9-1.9-2.1-2.5-3.4c-0.6-1.4-0.9-2.9-0.9-4.6
		c0-1.1,0.2-2.2,0.5-3.3c0.3-1.1,0.8-2,1.5-2.9c0.7-0.9,1.5-1.6,2.4-2.1c1-0.6,2.1-0.9,3.3-1v4.7c-1.2,0.3-2.2,0.8-2.8,1.7
		s-0.9,1.8-0.9,3c0,1.1,0.2,2,0.6,2.8c0.4,0.8,1,1.4,1.7,1.9c0.7,0.5,1.5,0.8,2.4,1s1.8,0.3,2.8,0.3c0.9,0,1.8-0.1,2.7-0.3
		c0.9-0.2,1.7-0.6,2.4-1c0.7-0.5,1.3-1.1,1.7-1.9c0.4-0.8,0.6-1.7,0.6-2.8c0-1.6-0.4-2.9-1.2-3.7s-2-1.4-3.5-1.5v4.9h-3.6v-9.3h12
		l0,3.6l-2.6,0C31.9,29.9,32.7,30.8,33.2,31.9z"/>
</g>
</svg>
