<?xml version="1.0" encoding="utf-8"?>
<!-- Generator: Adobe Illustrator 20.0.0, SVG Export Plug-In . SVG Version: 6.00 Build 0)  -->
<svg version="1.1" id="Layer_2" xmlns="http://www.w3.org/2000/svg" xmlns:xlink="http://www.w3.org/1999/xlink" x="0px" y="0px"
	 viewBox="0 0 76 66" style="enable-background:new 0 0 76 66;" xml:space="preserve">
<style type="text/css">
	.st0{fill:#404040;}
	.st1{fill:#F7A808;}
	.st2{fill:#FF6F6F;}
	.st3{fill:#4FBC78;}
</style>
<g>
	<path class="st0" d="M46.5,15.7v17.7H13.6V15.7H46.5 M49.5,12.7H10.6v23.7h38.9V12.7L49.5,12.7z"/>
</g>
<g>
	<rect x="10.6" y="41" class="st1" width="15" height="4"/>
</g>
<path class="st2" d="M28.3,30.4v-12h3v12H28.3z"/>
<polygon class="st0" points="25.3,30.4 16.3,30.4 16.3,18.4 19.3,18.4 25.3,18.4 25.3,21.4 19.3,21.4 19.3,27.4 19.3,27.4 
	22.3,27.4 22.3,27.4 22.3,24.4 25.3,24.4 "/>
<polygon class="st3" points="37.3,21.4 34.3,21.4 34.3,18.4 43.2,18.4 43.2,21.4 40.3,21.4 40.3,30.4 37.3,30.4 "/>
<g>
	<rect x="34.8" y="41.2" class="st1" width="17.6" height="4"/>
</g>
<rect x="25.2" y="39.2" class="st1" width="9.7" height="8.5"/>
<rect x="28.3" y="36.7" class="st1" width="3.5" height="4.2"/>
</svg>
