<?xml version="1.0" encoding="utf-8"?>
<!-- Generator: Adobe Illustrator 20.0.0, SVG Export Plug-In . SVG Version: 6.00 Build 0)  -->
<svg version="1.1" id="Layer_2" xmlns="http://www.w3.org/2000/svg" xmlns:xlink="http://www.w3.org/1999/xlink" x="0px" y="0px"
	 viewBox="0 0 16 16" style="enable-background:new 0 0 16 16;" xml:space="preserve">
<style type="text/css">
	.st0{fill:#404040;}
	.st1{fill:#909090;}
	.st2{fill:none;}
	.st3{fill:#4FBC78;}
</style>
<rect x="9" y="6" class="st0" width="1" height="2.8"/>
<g>
	<rect x="4.1" y="10.6" class="st1" width="5" height="5"/>
</g>
<line class="st2" x1="7" y1="3.7" x2="0" y2="3.7"/>
<path class="st0" d="M6,8.7v-4h1v4H6z"/>
<polygon class="st0" points="5,8.7 2,8.7 2,4.7 3,4.7 5,4.7 5,5.7 3,5.7 3,7.7 3,7.7 4,7.7 4,7.7 4,6.7 5,6.7 "/>
<g>
	<path class="st0" d="M1,3.7h10v-1H0l0,0v8h14l0-2.9l-1,0.1l0,1.9H1V3.7"/>
</g>
<g>
	<rect x="9.1" y="12.6" class="st0" width="5" height="2"/>
</g>
<g>
	<rect y="12.6" class="st0" width="4.1" height="1.9"/>
</g>
<rect x="8" y="5" class="st0" width="1" height="1"/>
<path class="st3" d="M12,1.1c-2.3,0-4,1.7-4,3.6s1.7,3.6,4,3.6s4-1.7,4-3.6S14.3,1.1,12,1.1z M15,5.6h-2v1.8h-2V5.6H9V3.8h2V2h2v1.8
	h2v0.9V5.6z"/>
</svg>
