<?xml version="1.0" encoding="utf-8"?>
<!-- Generator: Adobe Illustrator 20.0.0, SVG Export Plug-In . SVG Version: 6.00 Build 0)  -->
<svg version="1.1" id="Layer_2" xmlns="http://www.w3.org/2000/svg" xmlns:xlink="http://www.w3.org/1999/xlink" x="0px" y="0px"
	 viewBox="0 0 16 16" style="enable-background:new 0 0 16 16;" xml:space="preserve">
<style type="text/css">
	.st0{fill:none;stroke:#F7A808;stroke-width:1.1375;stroke-miterlimit:10;}
	.st1{fill:#F7A808;}
	.st2{fill:none;stroke:#404040;stroke-width:0.66;stroke-miterlimit:10;}
	.st3{fill:#4FBC78;}
	.st4{fill:#FF6F6F;}
</style>
<ellipse class="st0" cx="10.8" cy="6.1" rx="3.6" ry="2"/>
<path class="st1" d="M14.9,6v6.2v-0.1c0,1.1-1.9,2-4.2,2s-4.1-0.9-4.1-2v0.1V5.8c0,0,0.3,1.8,4.1,1.9C13.8,7.7,14.9,6,14.9,6z"/>
<path class="st2" d="M11.8,14.2"/>
<polygon class="st3" points="3,8 3,7 1,9 3,11 3,10 8,10 8,8 "/>
<polygon class="st4" points="6,6.7 6,7.7 8,5.7 6,3.7 6,4.7 1,4.7 1,6.7 "/>
</svg>
