<?xml version="1.0" encoding="utf-8"?>
<!-- Generator: Adobe Illustrator 20.0.0, SVG Export Plug-In . SVG Version: 6.00 Build 0)  -->
<svg version="1.1" id="Layer_2" xmlns="http://www.w3.org/2000/svg" xmlns:xlink="http://www.w3.org/1999/xlink" x="0px" y="0px"
	 viewBox="0 0 16 16" style="enable-background:new 0 0 16 16;" xml:space="preserve">
<style type="text/css">
	.st0{fill:none;stroke:#909090;stroke-width:1.0511;stroke-miterlimit:10;}
	.st1{fill:#909090;}
	.st2{fill:none;stroke:#404040;stroke-miterlimit:10;}
	.st3{fill:#404040;}
</style>
<ellipse class="st0" cx="4.9" cy="8.6" rx="3.4" ry="1.8"/>
<path class="st1" d="M8.7,8.2v6v-0.1c0,1-1.7,1.8-4,1.8S1,15.2,1,14.2v0.1v-6c0,0,0.2,1.7,3.8,1.7C7.7,10,8.7,8.2,8.7,8.2z"/>
<path class="st2" d="M12.6,7.1"/>
<path class="st2" d="M12.6,3.6"/>
<g>
	<polygon class="st3" points="12.1,3.8 12.1,12.8 12.1,15.8 13.1,15.8 13.1,12.8 13,3.8 	"/>
</g>
<circle class="st3" cx="12.6" cy="8.3" r="2"/>
<circle class="st3" cx="12.6" cy="13.8" r="2"/>
<polygon class="st3" points="12.6,0.9 13.1,2.1 14.3,1.6 13.7,2.7 15,3.1 13.7,3.6 14.3,4.7 13.1,4.1 12.6,5.3 12.2,4.1 11,4.7 
	11.6,3.6 10.3,3.1 11.6,2.7 11,1.6 12.2,2.1 "/>
</svg>
