<?xml version="1.0" encoding="utf-8"?>
<!-- Generator: Adobe Illustrator 20.0.0, SVG Export Plug-In . SVG Version: 6.00 Build 0)  -->
<svg version="1.1" id="Layer_1" xmlns="http://www.w3.org/2000/svg" xmlns:xlink="http://www.w3.org/1999/xlink" x="0px" y="0px"
	 viewBox="0 0 16 16" style="enable-background:new 0 0 16 16;" xml:space="preserve">
<style type="text/css">
	.st0{fill:none;}
	.st1{fill:#F7A808;}
	.st2{fill:#404040;}
	.st3{fill:#4FBC78;}
</style>
<rect x="-0.2" y="0.1" class="st0" width="16" height="16"/>
<path class="st1" d="M9,8.6C8.9,7.5,7.4,6.8,5.5,6.8S2,7.5,2,8.6v4.7c0,0,0.3,1.6,3.5,1.8C8.9,15.1,9,13.3,9,13.3S9.1,9.1,9,8.6z
	 M5.5,9.8c-1.6,0-2.6-0.6-2.6-1.1c0-0.5,1-1,2.6-1s2.6,0.6,2.5,1C8,9.1,7.1,9.8,5.5,9.8z"/>
<polygon class="st2" points="7.1,2.8 5,2.8 5,4.7 6.1,4.7 4,7.1 2.1,4.7 3.4,4.7 3.4,2.8 3.4,1.4 4.9,1.4 7.1,1.4 "/>
<g>
	<path class="st2" d="M13.2,2L14,3.2V7H9V2h4 M14,1H8v7h7V3L14,1L14,1z"/>
</g>
<g>
	<path class="st3" d="M10,5l0-1l1,0V3l1,0l0,1l1,0l0,1l-1,0v1h-1l0-1H10z"/>
</g>
</svg>
