<?xml version="1.0" encoding="utf-8"?>
<!-- Generator: Adobe Illustrator 20.1.0, SVG Export Plug-In . SVG Version: 6.00 Build 0)  -->
<svg version="1.1" id="Layer_1" xmlns="http://www.w3.org/2000/svg" xmlns:xlink="http://www.w3.org/1999/xlink" x="0px" y="0px"
	 viewBox="0 0 16 16" style="enable-background:new 0 0 16 16;" xml:space="preserve">
<style type="text/css">
	.st0{fill:url(#SVGID_1_);}
	.st1{fill:#D8BF2A;}
	.st2{fill:url(#SVGID_2_);stroke:#D8BF2A;stroke-miterlimit:10;}
</style>
<g>
	<radialGradient id="SVGID_1_" cx="8.0391" cy="12.007" r="4.6325" gradientUnits="userSpaceOnUse">
		<stop  offset="0" style="stop-color:#FFFFFF"/>
		<stop  offset="0.9949" style="stop-color:#D8BF2A"/>
	</radialGradient>
	<path class="st0" d="M2,14.5c0,0,0-0.1,0-0.1c0-0.2,0-0.4,0.1-0.7c0.3-1.3,0.8-2.3,1.8-3.2C4.2,10,4.6,9.8,5,9.5c1,0.7,2,1.1,3,1.1
		c1.2,0,2.2-0.3,3.1-1.1c1.9,1.1,2.9,3.2,3,5H2z"/>
	<path class="st1" d="M11.1,10.1c1.4,0.9,2.2,2.5,2.4,3.9h-11c0-0.1,0-0.1,0-0.2c0.3-1.2,0.8-2.1,1.6-3l0,0l0,0
		c0.2-0.2,0.4-0.4,0.7-0.6c1,0.7,2,1,3,1C9.2,11.1,10.2,10.8,11.1,10.1 M11,8.9C11,9,10.9,9,10.8,9.1c-0.8,0.7-1.7,1-2.8,1
		S6,9.7,5.1,9C5,9,5,9,5,9c0,0,0,0-0.1,0c-0.5,0.3-1,0.6-1.4,1.1c-1,1-1.6,2.1-1.9,3.5c-0.1,0.5-0.1,0.9-0.2,1.4c4.4,0,8.8,0,13.2,0
		C14.7,12.8,13.4,10.1,11,8.9L11,8.9z"/>
</g>
<radialGradient id="SVGID_2_" cx="8.05" cy="4.6522" r="3.6511" gradientUnits="userSpaceOnUse">
	<stop  offset="0" style="stop-color:#FFFFFF"/>
	<stop  offset="1" style="stop-color:#D8BF2A"/>
</radialGradient>
<path class="st2" d="M11.7,4.7c0,2.1-1.7,3.7-3.7,3.6c-2.1,0-3.6-1.8-3.6-3.8C4.4,2.6,6.1,1,8.1,1C10,1,11.7,2.7,11.7,4.7z"/>
</svg>
