<?xml version="1.0" encoding="utf-8"?>
<!-- Generator: Adobe Illustrator 20.1.0, SVG Export Plug-In . SVG Version: 6.00 Build 0)  -->
<svg version="1.1" id="Layer_2" xmlns="http://www.w3.org/2000/svg" xmlns:xlink="http://www.w3.org/1999/xlink" x="0px" y="0px"
	 viewBox="0 0 331 73" style="enable-background:new 0 0 331 73;" xml:space="preserve">
<style type="text/css">
	.st0{fill:url(#SVGID_1_);}
</style>
<g>
	
		<linearGradient id="SVGID_1_" gradientUnits="userSpaceOnUse" x1="403.1024" y1="-5.3637" x2="271.6324" y2="-6.5537" gradientTransform="matrix(0.9999 -1.440000e-02 1.440000e-02 0.9999 -83.2842 66.2849)">
		<stop  offset="1.036730e-02" style="stop-color:#F5F3F4"/>
		<stop  offset="6.393777e-02" style="stop-color:#EDD9B0"/>
		<stop  offset="0.1613" style="stop-color:#E0AA3A"/>
		<stop  offset="0.2044" style="stop-color:#DB980A"/>
		<stop  offset="0.2147" style="stop-color:#D28819"/>
		<stop  offset="0.2407" style="stop-color:#BF6738"/>
		<stop  offset="0.2686" style="stop-color:#AF4B53"/>
		<stop  offset="0.2987" style="stop-color:#A33667"/>
		<stop  offset="0.3318" style="stop-color:#9B2775"/>
		<stop  offset="0.3706" style="stop-color:#961E7D"/>
		<stop  offset="0.4284" style="stop-color:#941B80"/>
		<stop  offset="0.441" style="stop-color:#8D1D7D"/>
		<stop  offset="0.4902" style="stop-color:#772274"/>
		<stop  offset="0.5482" style="stop-color:#66256D"/>
		<stop  offset="0.6199" style="stop-color:#5B2869"/>
		<stop  offset="0.7205" style="stop-color:#542A66"/>
		<stop  offset="1" style="stop-color:#522A65"/>
	</linearGradient>
	<path class="st0" d="M202.5,61.4C202.5,61.4,202.5,61.4,202.5,61.4c0,0.1,0.1,0.1,0.1,0.1c0,0,0.1,0,0,0
		C202.6,61.4,202.6,61.4,202.5,61.4z M211.8,62.8c-0.9-0.2-1.5-0.2-1.5-0.1c0,0.1,0.7,0.4,1.6,0.6c0.9,0.2,1.6,0.1,1.6,0
		C213.5,63.2,212.7,63,211.8,62.8z M211.8,62.8c-0.9-0.2-1.5-0.2-1.5-0.1c0,0.1,0.7,0.4,1.6,0.6c0.9,0.2,1.6,0.1,1.6,0
		C213.5,63.2,212.7,63,211.8,62.8z M211.8,62.8c-0.9-0.2-1.5-0.2-1.5-0.1c0,0.1,0.7,0.4,1.6,0.6c0.9,0.2,1.6,0.1,1.6,0
		C213.5,63.2,212.7,63,211.8,62.8z M211.5,61c-0.9-0.1-1.5-0.1-1.5,0c0,0.1,0.7,0.4,1.6,0.5c0.9,0.1,1.6,0.1,1.6-0.1
		C213.2,61.3,212.4,61.1,211.5,61z M211.7,61.9c-0.9-0.1-1.5-0.2-1.5,0c0,0.1,0.7,0.4,1.6,0.6c0.9,0.2,1.6,0.1,1.6,0
		C213.3,62.2,212.5,62,211.7,61.9z M212.2,63.9c-0.9-0.2-1.6-0.2-1.5-0.1c0,0.2,0.8,0.5,1.7,0.7c0.9,0.2,1.6,0.2,1.6,0
		C213.8,64.3,213,64,212.2,63.9z M212.5,64.8c-0.9-0.2-1.6-0.3-1.5-0.1c0.1,0.2,0.8,0.5,1.7,0.7c0.9,0.2,1.6,0.2,1.6,0
		C214.2,65.3,213.4,65,212.5,64.8z M211.8,62.8c-0.9-0.2-1.5-0.2-1.5-0.1c0,0.1,0.7,0.4,1.6,0.6c0.9,0.2,1.6,0.1,1.6,0
		C213.5,63.2,212.7,63,211.8,62.8z M211.8,62.8c-0.9-0.2-1.5-0.2-1.5-0.1c0,0.1,0.7,0.4,1.6,0.6c0.9,0.2,1.6,0.1,1.6,0
		C213.5,63.2,212.7,63,211.8,62.8z M211.8,62.8c-0.9-0.2-1.5-0.2-1.5-0.1c0,0.1,0.7,0.4,1.6,0.6c0.9,0.2,1.6,0.1,1.6,0
		C213.5,63.2,212.7,63,211.8,62.8z M211.5,61c-0.9-0.1-1.5-0.1-1.5,0c0,0.1,0.7,0.4,1.6,0.5c0.9,0.1,1.6,0.1,1.6-0.1
		C213.2,61.3,212.4,61.1,211.5,61z M211.7,61.9c-0.9-0.1-1.5-0.2-1.5,0c0,0.1,0.7,0.4,1.6,0.6c0.9,0.2,1.6,0.1,1.6,0
		C213.3,62.2,212.5,62,211.7,61.9z M212.2,63.9c-0.9-0.2-1.6-0.2-1.5-0.1c0,0.2,0.8,0.5,1.7,0.7c0.9,0.2,1.6,0.2,1.6,0
		C213.8,64.3,213,64,212.2,63.9z M212.5,64.8c-0.9-0.2-1.6-0.3-1.5-0.1c0.1,0.2,0.8,0.5,1.7,0.7c0.9,0.2,1.6,0.2,1.6,0
		C214.2,65.3,213.4,65,212.5,64.8z M211.8,62.8c-0.9-0.2-1.5-0.2-1.5-0.1c0,0.1,0.7,0.4,1.6,0.6c0.9,0.2,1.6,0.1,1.6,0
		C213.5,63.2,212.7,63,211.8,62.8z M211.8,62.8c-0.9-0.2-1.5-0.2-1.5-0.1c0,0.1,0.7,0.4,1.6,0.6c0.9,0.2,1.6,0.1,1.6,0
		C213.5,63.2,212.7,63,211.8,62.8z M211.8,62.8c-0.9-0.2-1.5-0.2-1.5-0.1c0,0.1,0.7,0.4,1.6,0.6c0.9,0.2,1.6,0.1,1.6,0
		C213.5,63.2,212.7,63,211.8,62.8z M211.5,61c-0.9-0.1-1.5-0.1-1.5,0c0,0.1,0.7,0.4,1.6,0.5c0.9,0.1,1.6,0.1,1.6-0.1
		C213.2,61.3,212.4,61.1,211.5,61z M211.7,61.9c-0.9-0.1-1.5-0.2-1.5,0c0,0.1,0.7,0.4,1.6,0.6c0.9,0.2,1.6,0.1,1.6,0
		C213.3,62.2,212.5,62,211.7,61.9z M212.2,63.9c-0.9-0.2-1.6-0.2-1.5-0.1c0,0.2,0.8,0.5,1.7,0.7c0.9,0.2,1.6,0.2,1.6,0
		C213.8,64.3,213,64,212.2,63.9z M212.5,64.8c-0.9-0.2-1.6-0.3-1.5-0.1c0.1,0.2,0.8,0.5,1.7,0.7c0.9,0.2,1.6,0.2,1.6,0
		C214.2,65.3,213.4,65,212.5,64.8z M207.3,61.5c-0.8-0.3-1.3-0.5-1.3-0.3c0,0.1,0.6,0.5,1.4,0.8c0.8,0.3,1.4,0.4,1.4,0.2
		C208.8,62.1,208.1,61.8,207.3,61.5z M207.5,62.5c-0.8-0.3-1.4-0.5-1.3-0.4c0,0.1,0.7,0.6,1.5,0.9c0.8,0.3,1.5,0.4,1.4,0.3
		C209,63.1,208.3,62.8,207.5,62.5z M207.8,63.4c-0.8-0.3-1.4-0.5-1.4-0.4c0,0.1,0.7,0.6,1.5,0.9c0.8,0.3,1.5,0.4,1.4,0.3
		C209.3,64,208.6,63.7,207.8,63.4z M216.5,60.4c-0.9,0-1.7,0.1-1.7,0.3c0,0.2,0.8,0.3,1.7,0.3c0.9,0,1.7-0.2,1.7-0.4
		C218.3,60.4,217.5,60.4,216.5,60.4z M216.9,63.4c-0.9,0-1.7,0-1.6,0.2c0,0.2,0.8,0.4,1.8,0.4c0.9,0.1,1.7-0.1,1.6-0.2
		C218.6,63.6,217.8,63.4,216.9,63.4z M216.9,63.4c-0.9,0-1.7,0-1.6,0.2c0,0.2,0.8,0.4,1.8,0.4c0.9,0.1,1.7-0.1,1.6-0.2
		C218.6,63.6,217.8,63.4,216.9,63.4z M216.9,63.4c-0.9,0-1.7,0-1.6,0.2c0,0.2,0.8,0.4,1.8,0.4c0.9,0.1,1.7-0.1,1.6-0.2
		C218.6,63.6,217.8,63.4,216.9,63.4z M216.6,61.3c-0.9,0-1.7,0.1-1.7,0.3c0,0.2,0.8,0.3,1.7,0.3c0.9,0,1.7-0.1,1.7-0.3
		C218.3,61.4,217.5,61.3,216.6,61.3z M216.7,62.3c-0.9,0-1.7,0.1-1.6,0.2c0,0.2,0.8,0.4,1.7,0.4c0.9,0,1.7-0.1,1.7-0.3
		C218.5,62.5,217.7,62.3,216.7,62.3z M217.3,64.5c-0.9-0.1-1.7,0-1.6,0.2c0.1,0.2,0.9,0.4,1.8,0.5c0.9,0.1,1.7,0,1.6-0.2
		C219,64.8,218.2,64.6,217.3,64.5z M217.6,65.6c-0.9-0.1-1.7-0.1-1.6,0.1c0.1,0.2,0.9,0.4,1.8,0.5c1,0.1,1.7,0,1.6-0.2
		C219.4,65.9,218.6,65.7,217.6,65.6z M221.9,60c-1,0.1-1.8,0.3-1.8,0.5c0,0.2,0.8,0.3,1.8,0.2c1-0.1,1.8-0.4,1.8-0.6
		C223.7,59.9,222.9,59.9,221.9,60z M222.2,63.4c-1,0-1.7,0.2-1.7,0.4c0,0.2,0.9,0.3,1.8,0.3c1,0,1.7-0.2,1.7-0.4
		C224,63.4,223.2,63.3,222.2,63.4z M222.2,63.4c-1,0-1.7,0.2-1.7,0.4c0,0.2,0.9,0.3,1.8,0.3c1,0,1.7-0.2,1.7-0.4
		C224,63.4,223.2,63.3,222.2,63.4z M222.2,63.4c-1,0-1.7,0.2-1.7,0.4c0,0.2,0.9,0.3,1.8,0.3c1,0,1.7-0.2,1.7-0.4
		C224,63.4,223.2,63.3,222.2,63.4z M222,61c-1,0.1-1.8,0.3-1.8,0.5c0,0.2,0.8,0.3,1.8,0.2c1-0.1,1.8-0.3,1.8-0.5
		C223.8,61,223,61,222,61z M222.1,62.2c-1,0.1-1.8,0.3-1.7,0.4c0,0.2,0.8,0.3,1.8,0.3c1-0.1,1.8-0.3,1.7-0.5
		C223.9,62.2,223.1,62.1,222.1,62.2z M222.6,64.7c-1,0-1.7,0.2-1.7,0.4c0.1,0.2,0.9,0.4,1.9,0.4c1,0,1.7-0.2,1.7-0.4
		C224.4,64.8,223.6,64.7,222.6,64.7z M223,65.9c-1,0-1.7,0.1-1.6,0.3c0.1,0.2,0.9,0.4,1.9,0.4c1,0,1.7-0.2,1.6-0.4
		C224.8,66.1,223.9,65.9,223,65.9z M228,59.1c-1,0.2-1.9,0.5-1.9,0.7c0,0.2,0.8,0.2,1.9,0.1c1-0.2,1.9-0.5,1.9-0.7
		C229.8,58.9,229,58.9,228,59.1z M227.9,60.3c-1,0.2-1.8,0.5-1.8,0.7c0,0.2,0.8,0.3,1.9,0.1c1-0.2,1.9-0.5,1.9-0.7
		C229.8,60.1,229,60.1,227.9,60.3z M228,61.6c-1,0.2-1.8,0.4-1.8,0.6c0,0.2,0.9,0.3,1.9,0.2c1-0.1,1.8-0.4,1.8-0.7
		C229.9,61.5,229,61.4,228,61.6z M228.8,65.7c-1,0.1-1.7,0.3-1.7,0.5c0.1,0.2,0.9,0.4,1.9,0.3c1,0,1.7-0.3,1.7-0.5
		C230.6,65.8,229.7,65.7,228.8,65.7z M239.9,56.3c-1.1,0.3-2,0.7-2,1c0,0.3,0.8,0.2,1.9,0c1.1-0.3,2-0.7,2-1
		C241.8,55.9,240.9,56,239.9,56.3z M239.6,61c-1,0.2-1.9,0.6-1.9,0.9c0,0.3,0.9,0.3,1.9,0.1c1-0.2,1.9-0.6,1.9-0.9
		C241.5,60.8,240.6,60.8,239.6,61z M239.6,61c-1,0.2-1.9,0.6-1.9,0.9c0,0.3,0.9,0.3,1.9,0.1c1-0.2,1.9-0.6,1.9-0.9
		C241.5,60.8,240.6,60.8,239.6,61z M239.6,61c-1,0.2-1.9,0.6-1.9,0.9c0,0.3,0.9,0.3,1.9,0.1c1-0.2,1.9-0.6,1.9-0.9
		C241.5,60.8,240.6,60.8,239.6,61z M239.7,57.8c-1.1,0.3-1.9,0.7-1.9,0.9c0,0.3,0.8,0.3,1.9,0c1.1-0.3,1.9-0.7,2-1
		C241.6,57.5,240.8,57.5,239.7,57.8z M239.6,59.4c-1.1,0.2-1.9,0.6-1.9,0.9c0,0.3,0.9,0.3,1.9,0.1c1-0.2,1.9-0.6,1.9-0.9
		C241.5,59.1,240.7,59.1,239.6,59.4z M239.9,56.3c-1.1,0.3-2,0.7-2,1c0,0.3,0.8,0.2,1.9,0c1.1-0.3,2-0.7,2-1
		C241.8,55.9,240.9,56,239.9,56.3z M239.7,57.8c-1.1,0.3-1.9,0.7-1.9,0.9c0,0.3,0.8,0.3,1.9,0c1.1-0.3,1.9-0.7,2-1
		C241.6,57.5,240.8,57.5,239.7,57.8z M239.6,59.4c-1.1,0.2-1.9,0.6-1.9,0.9c0,0.3,0.9,0.3,1.9,0.1c1-0.2,1.9-0.6,1.9-0.9
		C241.5,59.1,240.7,59.1,239.6,59.4z M239.9,56.3c-1.1,0.3-2,0.7-2,1c0,0.3,0.8,0.2,1.9,0c1.1-0.3,2-0.7,2-1
		C241.8,55.9,240.9,56,239.9,56.3z M239.7,57.8c-1.1,0.3-1.9,0.7-1.9,0.9c0,0.3,0.8,0.3,1.9,0c1.1-0.3,1.9-0.7,2-1
		C241.6,57.5,240.8,57.5,239.7,57.8z M239.6,59.4c-1.1,0.2-1.9,0.6-1.9,0.9c0,0.3,0.9,0.3,1.9,0.1c1-0.2,1.9-0.6,1.9-0.9
		C241.5,59.1,240.7,59.1,239.6,59.4z M234,57.7c-1.1,0.3-1.9,0.6-2,0.9c0,0.2,0.8,0.2,1.9,0c1.1-0.2,1.9-0.7,2-0.9
		C235.9,57.4,235.1,57.5,234,57.7z M233.9,59.1c-1.1,0.2-1.9,0.6-1.9,0.8c0,0.2,0.8,0.3,1.9,0c1-0.2,1.9-0.6,1.9-0.9
		C235.8,58.8,235,58.9,233.9,59.1z M233.9,60.5c-1,0.2-1.9,0.5-1.9,0.8c0,0.2,0.9,0.3,1.9,0.1c1-0.2,1.9-0.6,1.9-0.8
		C235.8,60.4,235,60.3,233.9,60.5z M239.9,64.4c-1,0.2-1.8,0.5-1.8,0.8c0,0.3,0.9,0.4,1.9,0.2c1-0.1,1.8-0.5,1.8-0.8
		C241.7,64.4,240.9,64.3,239.9,64.4z M234.5,65.2c-1,0.1-1.8,0.4-1.7,0.7c0.1,0.2,0.9,0.4,1.9,0.3c1-0.1,1.8-0.4,1.7-0.7
		C236.3,65.2,235.5,65.1,234.5,65.2z M245.8,54.5c-1.1,0.3-2,0.8-2,1.1c0,0.3,0.8,0.3,1.9-0.1c1.1-0.3,1.9-0.8,2-1.1
		C247.7,54.1,246.9,54.2,245.8,54.5z M245.4,59.7c-1.1,0.2-1.9,0.7-1.9,1c0,0.3,0.9,0.3,1.9,0.1c1-0.2,1.9-0.7,1.9-1
		C247.3,59.5,246.5,59.5,245.4,59.7z M245.4,59.7c-1.1,0.2-1.9,0.7-1.9,1c0,0.3,0.9,0.3,1.9,0.1c1-0.2,1.9-0.7,1.9-1
		C247.3,59.5,246.5,59.5,245.4,59.7z M245.4,59.7c-1.1,0.2-1.9,0.7-1.9,1c0,0.3,0.9,0.3,1.9,0.1c1-0.2,1.9-0.7,1.9-1
		C247.3,59.5,246.5,59.5,245.4,59.7z M245.6,56.1c-1.1,0.3-1.9,0.8-2,1.1c0,0.3,0.8,0.3,1.9,0c1.1-0.3,1.9-0.8,2-1.1
		C247.5,55.8,246.7,55.8,245.6,56.1z M245.5,57.9c-1.1,0.3-1.9,0.7-1.9,1c0,0.3,0.8,0.3,1.9,0.1c1.1-0.3,1.9-0.7,1.9-1
		C247.4,57.7,246.6,57.6,245.5,57.9z M245.6,61.7c-1,0.2-1.9,0.6-1.9,0.9c0,0.3,0.9,0.4,1.9,0.2c1-0.2,1.9-0.6,1.9-0.9
		C247.4,61.5,246.6,61.5,245.6,61.7z M245.7,63.5c-1,0.2-1.8,0.6-1.8,0.9c0,0.3,0.9,0.4,1.9,0.2c1-0.2,1.8-0.6,1.8-0.9
		C247.5,63.4,246.7,63.3,245.7,63.5z M252.3,52.5c-1,0.3-1.9,0.8-1.9,1.2c0,0.3,0.8,0.3,1.8,0c1-0.3,1.9-0.8,1.9-1.2
		C254.1,52.1,253.3,52.1,252.3,52.5z M251.9,58.2c-1,0.3-1.9,0.7-1.9,1c0,0.3,0.8,0.4,1.9,0.1c1-0.2,1.9-0.7,1.9-1
		C253.8,58,253,57.9,251.9,58.2z M251.9,58.2c-1,0.3-1.9,0.7-1.9,1c0,0.3,0.8,0.4,1.9,0.1c1-0.2,1.9-0.7,1.9-1
		C253.8,58,253,57.9,251.9,58.2z M251.9,58.2c-1,0.3-1.9,0.7-1.9,1c0,0.3,0.8,0.4,1.9,0.1c1-0.2,1.9-0.7,1.9-1
		C253.8,58,253,57.9,251.9,58.2z M252.1,54.3c-1,0.3-1.9,0.8-1.9,1.1c0,0.3,0.8,0.3,1.8,0c1-0.3,1.9-0.8,1.9-1.1
		C254,54,253.2,54,252.1,54.3z M252,56.2c-1,0.3-1.9,0.8-1.9,1.1c0,0.3,0.8,0.4,1.9,0.1c1-0.3,1.9-0.7,1.9-1.1
		C253.9,56,253.1,55.9,252,56.2z M252,60.3c-1,0.2-1.9,0.7-1.9,1c0,0.3,0.9,0.4,1.9,0.2c1-0.2,1.9-0.6,1.9-1
		C253.9,60.2,253.1,60.1,252,60.3z M258.3,50.5c-0.9,0.3-1.7,0.8-1.8,1.2c0,0.3,0.8,0.3,1.7,0c1-0.3,1.7-0.8,1.7-1.2
		C259.9,50.2,259.2,50.1,258.3,50.5z M258.2,56.6c-1,0.2-1.9,0.7-1.9,1.1c0,0.3,0.8,0.4,1.9,0.2c1-0.2,1.8-0.7,1.8-1.1
		C260.1,56.5,259.2,56.4,258.2,56.6z M258.2,56.6c-1,0.2-1.9,0.7-1.9,1.1c0,0.3,0.8,0.4,1.9,0.2c1-0.2,1.8-0.7,1.8-1.1
		C260.1,56.5,259.2,56.4,258.2,56.6z M258.2,56.6c-1,0.2-1.9,0.7-1.9,1.1c0,0.3,0.8,0.4,1.9,0.2c1-0.2,1.8-0.7,1.8-1.1
		C260.1,56.5,259.2,56.4,258.2,56.6z M258.2,52.4c-1,0.3-1.8,0.8-1.8,1.1c0,0.3,0.8,0.4,1.8,0.1c1-0.3,1.8-0.8,1.8-1.1
		C260,52.2,259.2,52.1,258.2,52.4z M258.2,54.5c-1,0.3-1.8,0.8-1.8,1.1c0,0.3,0.8,0.4,1.8,0.1c1-0.3,1.8-0.8,1.8-1.1
		C260,54.3,259.2,54.2,258.2,54.5z M258.4,59c-1,0.2-1.9,0.7-1.9,1c0,0.3,0.8,0.5,1.9,0.3c1-0.2,1.9-0.7,1.9-1
		C260.2,58.9,259.4,58.8,258.4,59z M258.4,61.2c-1,0.2-1.9,0.6-1.9,1c0,0.4,0.8,0.5,1.9,0.3c1-0.2,1.9-0.6,1.9-1
		C260.3,61.2,259.4,61,258.4,61.2z M267.7,47.3c-0.7,0.2-1.3,0.8-1.2,1.1c0.1,0.4,0.8,0.5,1.6,0.2c0.8-0.2,1.3-0.7,1.2-1.1
		C269.1,47.2,268.4,47.1,267.7,47.3z M269.2,54.3c-0.9,0.2-1.7,0.7-1.6,1.1c0,0.4,0.9,0.6,1.9,0.4c1-0.2,1.7-0.6,1.6-1
		C271,54.2,270.2,54.1,269.2,54.3z M269.2,54.3c-0.9,0.2-1.7,0.7-1.6,1.1c0,0.4,0.9,0.6,1.9,0.4c1-0.2,1.7-0.6,1.6-1
		C271,54.2,270.2,54.1,269.2,54.3z M269.2,54.3c-0.9,0.2-1.7,0.7-1.6,1.1c0,0.4,0.9,0.6,1.9,0.4c1-0.2,1.7-0.6,1.6-1
		C271,54.2,270.2,54.1,269.2,54.3z M268.3,49.5c-0.8,0.2-1.4,0.7-1.4,1.1c0.1,0.4,0.8,0.5,1.7,0.3c0.9-0.2,1.5-0.7,1.3-1.1
		C269.8,49.4,269.1,49.3,268.3,49.5z M269.7,56.9c-1,0.2-1.8,0.6-1.7,1c0,0.4,0.9,0.6,1.9,0.4c1-0.1,1.8-0.6,1.8-1
		C271.5,57,270.7,56.7,269.7,56.9z M269.8,59.4c-1,0.1-1.8,0.6-1.8,1c0,0.4,0.8,0.6,1.8,0.5c1-0.1,1.8-0.6,1.8-1
		C271.7,59.5,270.9,59.3,269.8,59.4z M267.7,47.3c-0.7,0.2-1.3,0.8-1.2,1.1c0.1,0.4,0.8,0.5,1.6,0.2c0.8-0.2,1.3-0.7,1.2-1.1
		C269.1,47.2,268.4,47.1,267.7,47.3z M269.2,54.3c-0.9,0.2-1.7,0.7-1.6,1.1c0,0.4,0.9,0.6,1.9,0.4c1-0.2,1.7-0.6,1.6-1
		C271,54.2,270.2,54.1,269.2,54.3z M269.2,54.3c-0.9,0.2-1.7,0.7-1.6,1.1c0,0.4,0.9,0.6,1.9,0.4c1-0.2,1.7-0.6,1.6-1
		C271,54.2,270.2,54.1,269.2,54.3z M269.2,54.3c-0.9,0.2-1.7,0.7-1.6,1.1c0,0.4,0.9,0.6,1.9,0.4c1-0.2,1.7-0.6,1.6-1
		C271,54.2,270.2,54.1,269.2,54.3z M268.3,49.5c-0.8,0.2-1.4,0.7-1.4,1.1c0.1,0.4,0.8,0.5,1.7,0.3c0.9-0.2,1.5-0.7,1.3-1.1
		C269.8,49.4,269.1,49.3,268.3,49.5z M269.7,56.9c-1,0.2-1.8,0.6-1.7,1c0,0.4,0.9,0.6,1.9,0.4c1-0.1,1.8-0.6,1.8-1
		C271.5,57,270.7,56.7,269.7,56.9z M269.8,59.4c-1,0.1-1.8,0.6-1.8,1c0,0.4,0.8,0.6,1.8,0.5c1-0.1,1.8-0.6,1.8-1
		C271.7,59.5,270.9,59.3,269.8,59.4z M267.7,47.3c-0.7,0.2-1.3,0.8-1.2,1.1c0.1,0.4,0.8,0.5,1.6,0.2c0.8-0.2,1.3-0.7,1.2-1.1
		C269.1,47.2,268.4,47.1,267.7,47.3z M269.2,54.3c-0.9,0.2-1.7,0.7-1.6,1.1c0,0.4,0.9,0.6,1.9,0.4c1-0.2,1.7-0.6,1.6-1
		C271,54.2,270.2,54.1,269.2,54.3z M269.2,54.3c-0.9,0.2-1.7,0.7-1.6,1.1c0,0.4,0.9,0.6,1.9,0.4c1-0.2,1.7-0.6,1.6-1
		C271,54.2,270.2,54.1,269.2,54.3z M269.2,54.3c-0.9,0.2-1.7,0.7-1.6,1.1c0,0.4,0.9,0.6,1.9,0.4c1-0.2,1.7-0.6,1.6-1
		C271,54.2,270.2,54.1,269.2,54.3z M268.3,49.5c-0.8,0.2-1.4,0.7-1.4,1.1c0.1,0.4,0.8,0.5,1.7,0.3c0.9-0.2,1.5-0.7,1.3-1.1
		C269.8,49.4,269.1,49.3,268.3,49.5z M269.7,56.9c-1,0.2-1.8,0.6-1.7,1c0,0.4,0.9,0.6,1.9,0.4c1-0.1,1.8-0.6,1.8-1
		C271.5,57,270.7,56.7,269.7,56.9z M269.8,59.4c-1,0.1-1.8,0.6-1.8,1c0,0.4,0.8,0.6,1.8,0.5c1-0.1,1.8-0.6,1.8-1
		C271.7,59.5,270.9,59.3,269.8,59.4z M263.4,48.7c-0.8,0.3-1.5,0.8-1.5,1.2c0,0.4,0.8,0.4,1.6,0.1c0.9-0.3,1.5-0.8,1.5-1.2
		C264.9,48.5,264.2,48.4,263.4,48.7z M264,55.3c-1,0.2-1.8,0.7-1.8,1.1c0,0.4,0.9,0.5,1.9,0.3c1-0.2,1.8-0.7,1.7-1.1
		C265.8,55.2,265,55.1,264,55.3z M264,55.3c-1,0.2-1.8,0.7-1.8,1.1c0,0.4,0.9,0.5,1.9,0.3c1-0.2,1.8-0.7,1.7-1.1
		C265.8,55.2,265,55.1,264,55.3z M264,55.3c-1,0.2-1.8,0.7-1.8,1.1c0,0.4,0.9,0.5,1.9,0.3c1-0.2,1.8-0.7,1.7-1.1
		C265.8,55.2,265,55.1,264,55.3z M263.6,50.8c-0.9,0.3-1.6,0.8-1.6,1.1c0,0.4,0.8,0.4,1.7,0.2c0.9-0.3,1.6-0.8,1.6-1.1
		C265.2,50.6,264.5,50.5,263.6,50.8z M263.8,53c-0.9,0.3-1.7,0.8-1.7,1.1c0,0.4,0.8,0.4,1.8,0.2c1-0.2,1.7-0.7,1.7-1.1
		C265.5,52.9,264.8,52.8,263.8,53z M264.2,57.8c-1,0.2-1.8,0.7-1.8,1c0,0.4,0.8,0.5,1.9,0.3c1-0.2,1.8-0.6,1.8-1
		C266.1,57.8,265.2,57.6,264.2,57.8z M264.3,60.2c-1,0.2-1.9,0.6-1.9,1c0,0.4,0.8,0.6,1.8,0.4c1-0.1,1.9-0.6,1.9-1
		C266.2,60.2,265.3,60,264.3,60.2z M271.5,46.1c-0.6,0.2-1,0.7-0.9,1.1c0.2,0.4,0.9,0.5,1.6,0.3c0.7-0.2,1.1-0.6,0.8-1
		C272.8,46,272.1,45.9,271.5,46.1z M274.4,53.3c-0.9,0.1-1.6,0.6-1.5,1c0.1,0.4,0.9,0.6,1.9,0.5c0.9-0.1,1.6-0.6,1.5-1
		C276.1,53.4,275.3,53.1,274.4,53.3z M274.4,53.3c-0.9,0.1-1.6,0.6-1.5,1c0.1,0.4,0.9,0.6,1.9,0.5c0.9-0.1,1.6-0.6,1.5-1
		C276.1,53.4,275.3,53.1,274.4,53.3z M274.4,53.3c-0.9,0.1-1.6,0.6-1.5,1c0.1,0.4,0.9,0.6,1.9,0.5c0.9-0.1,1.6-0.6,1.5-1
		C276.1,53.4,275.3,53.1,274.4,53.3z M272.6,48.3c-0.7,0.2-1.2,0.7-1.1,1.1c0.1,0.4,0.9,0.6,1.7,0.4c0.8-0.2,1.3-0.6,1.1-1
		C274.1,48.3,273.3,48.1,272.6,48.3z M273.6,50.8c-0.8,0.2-1.4,0.6-1.3,1c0.1,0.4,0.9,0.6,1.8,0.4c0.9-0.2,1.5-0.6,1.3-1
		C275.2,50.8,274.4,50.6,273.6,50.8z M275.1,56.1c-1,0.1-1.7,0.6-1.7,1c0,0.4,0.9,0.7,1.9,0.6c1-0.1,1.7-0.5,1.7-1
		C276.9,56.2,276.1,55.9,275.1,56.1z M275.4,58.7c-1,0.1-1.8,0.5-1.8,1c0,0.4,0.8,0.7,1.8,0.6c1-0.1,1.8-0.5,1.8-1
		C277.3,58.9,276.4,58.6,275.4,58.7z M274.8,45.1c-0.5,0.1-0.8,0.6-0.5,1c0.3,0.4,1,0.6,1.6,0.5c0.6-0.1,0.9-0.6,0.5-1
		C276,45.2,275.3,45,274.8,45.1z M279.4,52.6c-0.9,0.1-1.5,0.5-1.3,1c0.1,0.4,1,0.7,1.9,0.6c0.9-0.1,1.6-0.5,1.4-1
		C281.1,52.8,280.3,52.5,279.4,52.6z M279.4,52.6c-0.9,0.1-1.5,0.5-1.3,1c0.1,0.4,1,0.7,1.9,0.6c0.9-0.1,1.6-0.5,1.4-1
		C281.1,52.8,280.3,52.5,279.4,52.6z M279.4,52.6c-0.9,0.1-1.5,0.5-1.3,1c0.1,0.4,1,0.7,1.9,0.6c0.9-0.1,1.6-0.5,1.4-1
		C281.1,52.8,280.3,52.5,279.4,52.6z M276.5,47.5c-0.7,0.1-1,0.6-0.8,1c0.2,0.4,1,0.6,1.8,0.5c0.7-0.1,1.1-0.6,0.8-1
		C278,47.6,277.2,47.3,276.5,47.5z M278.1,50c-0.8,0.1-1.3,0.6-1.1,1c0.2,0.4,1,0.7,1.9,0.6c0.9-0.1,1.4-0.5,1.1-1
		C279.8,50.1,278.9,49.9,278.1,50z M280.4,55.5c-1,0.1-1.7,0.5-1.6,1c0.1,0.4,0.9,0.8,1.9,0.7c1-0.1,1.7-0.5,1.6-0.9
		C282.3,55.8,281.4,55.5,280.4,55.5z M280.9,58.4c-1,0-1.8,0.5-1.7,0.9c0,0.5,0.8,0.8,1.8,0.8c1,0,1.8-0.4,1.8-0.9
		C282.7,58.7,281.9,58.3,280.9,58.4z M277.8,44.6c-0.5,0.1-0.5,0.5-0.1,0.9c0.4,0.4,1.2,0.7,1.8,0.6c0.6-0.1,0.7-0.5,0.2-0.9
		C279.2,44.8,278.3,44.5,277.8,44.6z M284.6,52.3c-0.9,0-1.4,0.5-1.2,0.9c0.2,0.4,1.1,0.8,2,0.8c0.9,0,1.5-0.4,1.3-0.9
		C286.5,52.6,285.5,52.2,284.6,52.3z M284.6,52.3c-0.9,0-1.4,0.5-1.2,0.9c0.2,0.4,1.1,0.8,2,0.8c0.9,0,1.5-0.4,1.3-0.9
		C286.5,52.6,285.5,52.2,284.6,52.3z M284.6,52.3c-0.9,0-1.4,0.5-1.2,0.9c0.2,0.4,1.1,0.8,2,0.8c0.9,0,1.5-0.4,1.3-0.9
		C286.5,52.6,285.5,52.2,284.6,52.3z M280.5,46.9c-0.6,0.1-0.9,0.5-0.5,0.9c0.3,0.4,1.2,0.7,2,0.6c0.7-0.1,1-0.4,0.6-0.9
		C282,47.2,281.1,46.9,280.5,46.9z M282.8,49.6c-0.8,0.1-1.2,0.5-0.9,0.9c0.3,0.4,1.2,0.7,2,0.7c0.9,0,1.3-0.4,0.9-0.9
		C284.5,49.8,283.6,49.5,282.8,49.6z M286.1,55.4c-1,0-1.6,0.4-1.5,0.9c0.1,0.5,1,0.8,1.9,0.8c1,0,1.7-0.4,1.6-0.9
		C288,55.7,287,55.3,286.1,55.4z M286.7,58.3c-1,0-1.7,0.4-1.7,0.9c0,0.5,0.8,0.9,1.8,0.9c1,0,1.8-0.3,1.8-0.9
		C288.5,58.8,287.7,58.3,286.7,58.3z M283.8,44.6c-0.6-0.1-0.4,0.3,0.3,0.7c0.7,0.4,1.8,0.8,2.6,0.8c0.7,0.1,0.7-0.2-0.2-0.7
		C285.7,45,284.4,44.6,283.8,44.6z M295,52.7c-1-0.1-1.4,0.2-1.1,0.7c0.3,0.5,1.3,1,2.3,1.1c1,0.1,1.6-0.2,1.2-0.7
		C297.1,53.3,296,52.8,295,52.7z M295,52.7c-1-0.1-1.4,0.2-1.1,0.7c0.3,0.5,1.3,1,2.3,1.1c1,0.1,1.6-0.2,1.2-0.7
		C297.1,53.3,296,52.8,295,52.7z M295,52.7c-1-0.1-1.4,0.2-1.1,0.7c0.3,0.5,1.3,1,2.3,1.1c1,0.1,1.6-0.2,1.2-0.7
		C297.1,53.3,296,52.8,295,52.7z M288.3,47c-0.8-0.1-0.8,0.3-0.2,0.7c0.6,0.4,1.7,0.8,2.6,0.9c0.9,0.1,1-0.2,0.3-0.7
		C290.3,47.5,289,47.1,288.3,47z M292.2,49.8c-0.9-0.1-1.2,0.3-0.7,0.7c0.5,0.5,1.6,0.9,2.5,1c0.9,0.1,1.4-0.2,0.8-0.7
		C294.3,50.3,293,49.8,292.2,49.8z M297.5,59.4c-0.9-0.2-1.7,0.2-1.8,0.7c-0.1,0.5,0.6,1.1,1.4,1.3c0.9,0.2,1.7-0.1,1.8-0.7
		C299.1,60.2,298.4,59.6,297.5,59.4z M283.8,44.6c-0.6-0.1-0.4,0.3,0.3,0.7c0.7,0.4,1.8,0.8,2.6,0.8c0.7,0.1,0.7-0.2-0.2-0.7
		C285.7,45,284.4,44.6,283.8,44.6z M295,52.7c-1-0.1-1.4,0.2-1.1,0.7c0.3,0.5,1.3,1,2.3,1.1c1,0.1,1.6-0.2,1.2-0.7
		C297.1,53.3,296,52.8,295,52.7z M295,52.7c-1-0.1-1.4,0.2-1.1,0.7c0.3,0.5,1.3,1,2.3,1.1c1,0.1,1.6-0.2,1.2-0.7
		C297.1,53.3,296,52.8,295,52.7z M295,52.7c-1-0.1-1.4,0.2-1.1,0.7c0.3,0.5,1.3,1,2.3,1.1c1,0.1,1.6-0.2,1.2-0.7
		C297.1,53.3,296,52.8,295,52.7z M288.3,47c-0.8-0.1-0.8,0.3-0.2,0.7c0.6,0.4,1.7,0.8,2.6,0.9c0.9,0.1,1-0.2,0.3-0.7
		C290.3,47.5,289,47.1,288.3,47z M292.2,49.8c-0.9-0.1-1.2,0.3-0.7,0.7c0.5,0.5,1.6,0.9,2.5,1c0.9,0.1,1.4-0.2,0.8-0.7
		C294.3,50.3,293,49.8,292.2,49.8z M297.5,59.4c-0.9-0.2-1.7,0.2-1.8,0.7c-0.1,0.5,0.6,1.1,1.4,1.3c0.9,0.2,1.7-0.1,1.8-0.7
		C299.1,60.2,298.4,59.6,297.5,59.4z M283.8,44.6c-0.6-0.1-0.4,0.3,0.3,0.7c0.7,0.4,1.8,0.8,2.6,0.8c0.7,0.1,0.7-0.2-0.2-0.7
		C285.7,45,284.4,44.6,283.8,44.6z M295,52.7c-1-0.1-1.4,0.2-1.1,0.7c0.3,0.5,1.3,1,2.3,1.1c1,0.1,1.6-0.2,1.2-0.7
		C297.1,53.3,296,52.8,295,52.7z M295,52.7c-1-0.1-1.4,0.2-1.1,0.7c0.3,0.5,1.3,1,2.3,1.1c1,0.1,1.6-0.2,1.2-0.7
		C297.1,53.3,296,52.8,295,52.7z M295,52.7c-1-0.1-1.4,0.2-1.1,0.7c0.3,0.5,1.3,1,2.3,1.1c1,0.1,1.6-0.2,1.2-0.7
		C297.1,53.3,296,52.8,295,52.7z M288.3,47c-0.8-0.1-0.8,0.3-0.2,0.7c0.6,0.4,1.7,0.8,2.6,0.9c0.9,0.1,1-0.2,0.3-0.7
		C290.3,47.5,289,47.1,288.3,47z M292.2,49.8c-0.9-0.1-1.2,0.3-0.7,0.7c0.5,0.5,1.6,0.9,2.5,1c0.9,0.1,1.4-0.2,0.8-0.7
		C294.3,50.3,293,49.8,292.2,49.8z M297.5,59.4c-0.9-0.2-1.7,0.2-1.8,0.7c-0.1,0.5,0.6,1.1,1.4,1.3c0.9,0.2,1.7-0.1,1.8-0.7
		C299.1,60.2,298.4,59.6,297.5,59.4z M280.7,44.3c-0.5,0-0.4,0.4,0.2,0.8c0.6,0.4,1.5,0.7,2.1,0.7c0.6,0,0.6-0.3-0.1-0.8
		C282.2,44.7,281.2,44.3,280.7,44.3z M289.8,52.2c-0.9,0-1.4,0.3-1.1,0.8c0.3,0.5,1.2,0.9,2.2,0.9c1,0,1.5-0.3,1.2-0.8
		C291.8,52.7,290.7,52.3,289.8,52.2z M289.8,52.2c-0.9,0-1.4,0.3-1.1,0.8c0.3,0.5,1.2,0.9,2.2,0.9c1,0,1.5-0.3,1.2-0.8
		C291.8,52.7,290.7,52.3,289.8,52.2z M289.8,52.2c-0.9,0-1.4,0.3-1.1,0.8c0.3,0.5,1.2,0.9,2.2,0.9c1,0,1.5-0.3,1.2-0.8
		C291.8,52.7,290.7,52.3,289.8,52.2z M284.2,46.7c-0.7,0-0.8,0.4-0.3,0.8c0.5,0.4,1.5,0.8,2.2,0.8c0.8,0,1-0.3,0.4-0.8
		C286,47.1,284.9,46.7,284.2,46.7z M287.4,49.4c-0.8,0-1.1,0.4-0.7,0.8c0.4,0.4,1.4,0.8,2.3,0.8c0.9,0,1.3-0.3,0.8-0.8
		C289.3,49.8,288.2,49.4,287.4,49.4z M291.6,55.5c-1-0.1-1.6,0.3-1.5,0.8c0.1,0.5,1,0.9,2,1c1,0.1,1.7-0.3,1.5-0.8
		C293.5,56,292.6,55.5,291.6,55.5z M292.3,58.6c-1-0.1-1.7,0.3-1.7,0.8c0,0.5,0.7,1,1.7,1.1c0.9,0.1,1.8-0.2,1.8-0.8
		C294.1,59.2,293.3,58.7,292.3,58.6z M287.4,45c-0.7-0.1-0.5,0.2,0.4,0.6c0.9,0.4,2.2,0.9,3.1,1c0.9,0.1,0.8-0.1-0.2-0.6
		C289.7,45.6,288.1,45.1,287.4,45z M300.6,53.4c-1-0.2-1.5,0.1-1.2,0.6c0.3,0.5,1.4,1.1,2.4,1.3c1,0.2,1.7-0.1,1.3-0.6
		C302.8,54.1,301.6,53.5,300.6,53.4z M300.6,53.4c-1-0.2-1.5,0.1-1.2,0.6c0.3,0.5,1.4,1.1,2.4,1.3c1,0.2,1.7-0.1,1.3-0.6
		C302.8,54.1,301.6,53.5,300.6,53.4z M300.6,53.4c-1-0.2-1.5,0.1-1.2,0.6c0.3,0.5,1.4,1.1,2.4,1.3c1,0.2,1.7-0.1,1.3-0.6
		C302.8,54.1,301.6,53.5,300.6,53.4z M292.8,47.5c-0.9-0.1-0.9,0.2-0.2,0.6c0.7,0.5,2,0.9,3,1c1,0.1,1.2-0.1,0.4-0.6
		C295.2,48.1,293.7,47.6,292.8,47.5z M297.4,50.3c-1-0.1-1.3,0.1-0.7,0.6c0.6,0.5,1.8,1,2.8,1.1c1,0.2,1.5-0.1,0.9-0.6
		C299.8,51,298.4,50.5,297.4,50.3z M302.5,57c-1-0.2-1.7,0.1-1.6,0.7c0.1,0.6,0.9,1.2,1.8,1.4c0.9,0.2,1.7,0,1.7-0.6
		C304.4,57.9,303.5,57.2,302.5,57z M302.5,60.6c-0.9-0.3-1.7,0-1.8,0.6c-0.2,0.6,0.3,1.3,1,1.6c0.7,0.3,1.6,0,1.9-0.6
		C303.9,61.6,303.4,60.8,302.5,60.6z M292.9,45.9c-1-0.2-0.8,0,0.3,0.5c1.1,0.4,2.7,0.9,3.8,1.1c1.1,0.2,1.2,0,0-0.5
		C295.8,46.6,293.9,46.1,292.9,45.9z M307.2,54.8c-1.1-0.3-1.6,0-1.3,0.5c0.3,0.6,1.3,1.2,2.3,1.5c1,0.3,1.7,0.1,1.5-0.5
		C309.4,55.7,308.3,55,307.2,54.8z M307.2,54.8c-1.1-0.3-1.6,0-1.3,0.5c0.3,0.6,1.3,1.2,2.3,1.5c1,0.3,1.7,0.1,1.5-0.5
		C309.4,55.7,308.3,55,307.2,54.8z M307.2,54.8c-1.1-0.3-1.6,0-1.3,0.5c0.3,0.6,1.3,1.2,2.3,1.5c1,0.3,1.7,0.1,1.5-0.5
		C309.4,55.7,308.3,55,307.2,54.8z M299.1,48.5c-1.1-0.2-1.2,0-0.3,0.5c0.9,0.5,2.3,1,3.5,1.2c1.1,0.2,1.5,0,0.6-0.5
		C302,49.3,300.2,48.7,299.1,48.5z M304.1,51.5c-1.1-0.2-1.5,0-0.9,0.5c0.6,0.5,1.9,1.1,3,1.4c1.1,0.2,1.7,0,1.1-0.5
		C306.7,52.4,305.2,51.7,304.1,51.5z M308.4,58.7c-0.9-0.3-1.6-0.1-1.7,0.5c0,0.6,0.5,1.4,1.3,1.7c0.7,0.4,1.6,0.2,1.8-0.5
		C310,59.8,309.4,59,308.4,58.7z M307.3,62.6c-0.7-0.4-1.5-0.1-1.9,0.5c-0.4,0.7-0.3,1.5,0.1,2c0.4,0.4,1.3,0.3,1.9-0.5
		C308,64,308,63,307.3,62.6z M228.7,64.2c-1,0.1-1.8,0.3-1.8,0.6c0,0.2,0.9,0.3,1.9,0.3c1-0.1,1.8-0.4,1.8-0.6
		C230.5,64.1,229.7,64.1,228.7,64.2z M228.4,62.8c-1,0.1-1.8,0.4-1.8,0.6c0,0.2,0.9,0.3,1.9,0.2c1-0.1,1.8-0.4,1.8-0.6
		C230.3,62.8,229.4,62.7,228.4,62.8z M234,62.1c-1.1,0.2-1.9,0.5-1.9,0.7c0,0.2,0.9,0.3,1.9,0.1c1-0.2,1.9-0.5,1.9-0.8
		C236,62,235.1,61.9,234,62.1z M239.9,62.9c-1.1,0.2-1.9,0.5-1.9,0.8c0,0.3,0.9,0.4,1.9,0.2c1-0.2,1.9-0.6,1.9-0.8
		C241.9,62.8,241,62.7,239.9,62.9z M234.2,63.7c-1,0.2-1.8,0.5-1.8,0.7c0,0.2,0.9,0.3,1.9,0.2c1-0.1,1.8-0.5,1.8-0.7
		C236.1,63.6,235.2,63.5,234.2,63.7z M251.9,62.3c-1.1,0.2-1.9,0.6-1.9,1c0,0.3,0.9,0.4,1.9,0.3c1.1-0.2,1.9-0.6,1.9-1
		C253.8,62.3,253,62.1,251.9,62.3z"/>
</g>
<g>
	<path d="M35.2,30.6c0.4,0.6,0.9,1.2,1.5,1.7c0.6,0.5,1.4,0.9,2.3,1.3c0.9,0.4,2,0.7,3.3,0.9c1.2,0.2,2.7,0.3,4.3,0.3
		c1.6,0,3-0.1,4.3-0.3c1.3-0.2,2.4-0.4,3.5-0.7c1.1-0.3,2-0.7,2.9-1c0.9-0.4,1.7-0.8,2.5-1.2v6.4c-1,0.4-2,0.7-3,1
		c-1,0.3-2.1,0.6-3.2,0.8c-1.1,0.2-2.2,0.4-3.4,0.5c-1.2,0.1-2.5,0.2-3.9,0.2c-2.9,0-5.6-0.3-8.1-0.9c-2.5-0.6-4.6-1.4-6.4-2.6
		c-1.8-1.2-3.2-2.6-4.1-4.3c-1-1.7-1.5-3.8-1.5-6.1c0-2.3,0.5-4.3,1.5-6.1c1-1.7,2.4-3.2,4.1-4.3c1.8-1.2,3.9-2,6.4-2.6
		c2.5-0.6,5.2-0.9,8.1-0.9c1.4,0,2.7,0.1,3.9,0.2c1.2,0.1,2.4,0.3,3.4,0.5c1.1,0.2,2.1,0.5,3.2,0.8c1,0.3,2,0.7,3,1v6.4
		c-0.8-0.4-1.6-0.8-2.5-1.2c-0.9-0.4-1.8-0.7-2.9-1c-1.1-0.3-2.2-0.6-3.5-0.8c-1.3-0.2-2.7-0.3-4.3-0.3c-2.4,0-4.5,0.2-6.1,0.7
		c-1.6,0.5-2.9,1.1-3.9,1.8c-1,0.8-1.6,1.6-2,2.6c-0.4,1-0.6,2-0.6,3.1c0,0.7,0.1,1.4,0.3,2.1C34.5,29.3,34.8,30,35.2,30.6
		L35.2,30.6z"/>
	<polygon points="64.9,39.7 64.9,13.4 72.7,13.4 72.7,33.9 93.6,33.9 93.6,39.7 64.9,39.7 	"/>
	<path d="M119.6,13.4h-8.7l-15,26.3h8.7l2.7-5h16l2.7,5h8.7L119.6,13.4z M110,29.6l5.3-9.7l5.2,9.7H110z"/>
	<path d="M161.7,29.3c0.8-0.3,1.7-0.6,2.4-1c0.8-0.4,1.4-0.9,2-1.5c0.6-0.6,1-1.3,1.4-2.1c0.3-0.8,0.5-1.8,0.5-2.9
		c0-1.3-0.2-2.4-0.6-3.4c-0.4-1-1.1-1.9-2-2.6c-0.9-0.7-2.1-1.3-3.6-1.7c-1.5-0.4-3.2-0.6-5.3-0.6h-19.4v26.3h7.8V30h8.5l8.7,9.7
		h9.1L161.7,29.3z M160,23c-0.1,0.4-0.4,0.7-0.8,0.9c-0.4,0.2-0.8,0.4-1.5,0.5c-0.6,0.1-1.4,0.2-2.3,0.2h-10.6v-5.6h10.6
		c0.9,0,1.7,0.1,2.3,0.2c0.6,0.1,1.1,0.3,1.5,0.5c0.4,0.2,0.6,0.5,0.8,0.9c0.1,0.4,0.2,0.8,0.2,1.3C160.2,22.2,160.2,22.6,160,23z"
		/>
	<polygon points="174.6,39.7 174.6,13.4 182.3,13.4 182.3,39.7 174.6,39.7 	"/>
	<polygon points="208.4,39.7 199.4,39.7 184.9,13.4 193.5,13.4 204,33.2 214.4,13.4 223.1,13.4 208.4,39.7 	"/>
	<path d="M257.5,27.6c0-2.4-0.4-4.5-1.3-6.4c-0.9-1.8-2.1-3.4-3.6-4.7c-1.6-1.3-3.4-2.2-5.6-2.9c-2.2-0.6-4.6-1-7.2-1
		c-2.8,0-5.4,0.4-7.7,1.1c-2.3,0.7-4.3,1.7-5.9,2.9c-1.6,1.3-2.9,2.7-3.8,4.4c-0.9,1.7-1.3,3.6-1.3,5.5c0,2.1,0.4,4.1,1.3,5.8
		c0.9,1.7,2.2,3.1,3.8,4.3c1.7,1.2,3.7,2.1,6.2,2.7c2.4,0.6,5.2,0.9,8.4,0.9c2.5,0,4.9-0.2,7.2-0.5c2.4-0.3,4.7-0.8,7.1-1.5v-6.2
		c-0.6,0.3-1.4,0.6-2.3,1c-0.9,0.3-2,0.6-3.2,0.9c-1.2,0.3-2.5,0.5-3.8,0.6c-1.4,0.2-2.8,0.2-4.2,0.2c-2,0-3.7-0.1-5.2-0.4
		c-1.4-0.3-2.7-0.6-3.6-1.1c-1-0.5-1.8-1.1-2.4-1.8c-0.6-0.7-1-1.5-1.2-2.3h28.3V27.6z M229.2,24.2c0.1-0.6,0.4-1.2,0.9-1.9
		c0.5-0.7,1.1-1.3,2-1.9c0.9-0.6,1.9-1.1,3.2-1.5c1.3-0.4,2.8-0.6,4.5-0.6c1.9,0,3.4,0.2,4.6,0.5c1.2,0.4,2.2,0.8,3,1.4
		c0.8,0.6,1.3,1.2,1.7,1.9c0.4,0.7,0.6,1.4,0.6,2H229.2z"/>
</g>
<path d="M262.3,38.1h0.6c0.2,0,0.3,0,0.3,0.1c0.1,0.1,0.1,0.2,0.1,0.3l0,0.3c0,0.1,0,0.2,0,0.2c0,0,0,0.1,0,0.1h0.6v-0.1
	c-0.1,0-0.1-0.1-0.1-0.2c0,0,0-0.1,0-0.3v-0.2c0-0.2,0-0.3-0.1-0.4c-0.1-0.1-0.1-0.2-0.3-0.2c0.1-0.1,0.3-0.1,0.3-0.3
	c0.1-0.1,0.1-0.3,0.1-0.4c0-0.1,0-0.2,0-0.3c0-0.1-0.1-0.2-0.1-0.2c-0.1-0.1-0.2-0.1-0.3-0.2c-0.1,0-0.2-0.1-0.4-0.1h-1.3l0,2.7h0.6
	V38.1z M262.3,36.9h0.6c0.1,0,0.2,0,0.3,0c0.1,0.1,0.2,0.2,0.2,0.3c0,0.2-0.1,0.3-0.2,0.3c-0.1,0-0.2,0-0.3,0h-0.6V36.9z"/>
<path d="M262.9,40.2c1.4,0,2.5-1.1,2.5-2.5c0-1.4-1.1-2.5-2.5-2.5c-1.4,0-2.5,1.1-2.5,2.5C260.4,39.1,261.5,40.2,262.9,40.2
	 M262.9,35.6c1.2,0,2.1,1,2.1,2.1c0,1.2-1,2.1-2.1,2.1c-1.2,0-2.1-0.9-2.1-2.1C260.7,36.6,261.7,35.6,262.9,35.6"/>
</svg>
