<?xml version="1.0" encoding="utf-8"?>
<!-- Generator: Adobe Illustrator 20.1.0, SVG Export Plug-In . SVG Version: 6.00 Build 0)  -->
<svg version="1.1" id="Layer_1" xmlns="http://www.w3.org/2000/svg" xmlns:xlink="http://www.w3.org/1999/xlink" x="0px" y="0px"
	 viewBox="0 0 16 16" style="enable-background:new 0 0 16 16;" xml:space="preserve">
<style type="text/css">
	.st0{fill:#4FBC78;}
</style>
<g>
	<path class="st0" d="M4,1.5c3.1,0,5.9,0,9,0c0,0.1,0,10,0,10c-2.9,0-6.1,0-9,0c-0.1,0-1,0-1,1s0.7,1,1,1c3.3,0,6.7,0,10,0
		c0,0,0-7.4,0-11c0.3,0,0.7,0,1,0c0,0.1,0,8.2,0,12c0,0.1,0-0.1,0,0c-3.8,0-7.5,0-11.3,0c0,0,0,0-0.1,0c-0.8-0.2-1.7-1.1-1.7-2
		c0-3.4,0-6.6,0-10C2,1.5,3.9,1.5,4,1.5z"/>
</g>
</svg>
