<?xml version="1.0" encoding="utf-8"?>
<!-- Generator: Adobe Illustrator 20.1.0, SVG Export Plug-In . SVG Version: 6.00 Build 0)  -->
<svg version="1.1" id="Layer_2" xmlns="http://www.w3.org/2000/svg" xmlns:xlink="http://www.w3.org/1999/xlink" x="0px" y="0px"
	 viewBox="0 0 131 32" style="enable-background:new 0 0 131 32;" xml:space="preserve">
<style type="text/css">
	.st0{fill:#FFFFFF;}
</style>
<g>
	<g>
		<path class="st0" d="M7.8,18.1C8,18.4,8.3,18.7,8.6,19c0.3,0.3,0.7,0.5,1.2,0.7c0.5,0.2,1,0.4,1.7,0.5c0.6,0.1,1.4,0.2,2.2,0.2
			s1.6-0.1,2.2-0.2c0.7-0.1,1.3-0.2,1.8-0.4c0.6-0.2,1-0.4,1.5-0.5c0.5-0.2,0.9-0.4,1.3-0.6V22c-0.5,0.2-1,0.4-1.6,0.5
			c-0.5,0.2-1.1,0.3-1.7,0.4c-0.6,0.1-1.1,0.2-1.8,0.3c-0.6,0.1-1.3,0.1-2,0.1c-1.5,0-2.9-0.2-4.2-0.5c-1.3-0.3-2.4-0.7-3.3-1.4
			c-0.9-0.6-1.7-1.4-2.1-2.2c-0.5-0.9-0.8-2-0.8-3.2s0.3-2.2,0.8-3.2c0.5-0.9,1.3-1.7,2.1-2.2c0.9-0.6,2-1,3.3-1.4
			c1.3-0.3,2.7-0.5,4.2-0.5c0.7,0,1.4,0.1,2,0.1s1.3,0.2,1.8,0.3c0.6,0.1,1.1,0.3,1.7,0.4c0.5,0.2,1,0.4,1.6,0.5v3.3
			c-0.4-0.2-0.8-0.4-1.3-0.6c-0.5-0.2-0.9-0.4-1.5-0.5S16.7,12,16,11.9c-0.7-0.1-1.4-0.2-2.2-0.2c-1.3,0-2.3,0.1-3.2,0.4
			s-1.5,0.6-2,0.9c-0.5,0.4-0.8,0.8-1,1.4c-0.2,0.5-0.3,1-0.3,1.6c0,0.4,0.1,0.7,0.2,1.1C7.5,17.4,7.6,17.8,7.8,18.1L7.8,18.1z"/>
		<polygon class="st0" points="23.3,22.9 23.3,9.1 27.4,9.1 27.4,19.8 38.3,19.8 38.3,22.9 		"/>
		<path class="st0" d="M51.8,9.1h-4.5l-7.8,13.7H44l1.4-2.6h8.3l1.4,2.6h4.5L51.8,9.1z M46.8,17.6l2.8-5.1l2.7,5.1
			C52.3,17.6,46.8,17.6,46.8,17.6z"/>
		<path class="st0" d="M73.8,17.4c0.4-0.2,0.9-0.3,1.3-0.5c0.4-0.2,0.7-0.5,1-0.8c0.3-0.3,0.5-0.7,0.7-1.1c0.2-0.4,0.3-0.9,0.3-1.5
			c0-0.7-0.1-1.3-0.3-1.8c-0.2-0.5-0.6-1-1-1.4c-0.5-0.4-1.1-0.7-1.9-0.9c-0.8-0.2-1.7-0.3-2.8-0.3H61v13.7H65v-5.1h4.4l4.5,5.1h4.7
			L73.8,17.4z M72.9,14.1c-0.1,0.2-0.2,0.4-0.4,0.5c-0.2,0.1-0.4,0.2-0.8,0.3C71.4,14.9,71,15,70.5,15H65v-2.9h5.5
			c0.5,0,0.9,0.1,1.2,0.1c0.3,0.1,0.6,0.2,0.8,0.3c0.2,0.1,0.3,0.3,0.4,0.5c0.1,0.2,0.1,0.4,0.1,0.7C73,13.7,73,13.9,72.9,14.1z"/>
		<polygon class="st0" points="80.5,22.9 80.5,9.1 84.5,9.1 84.5,22.9 		"/>
		<polygon class="st0" points="98.1,22.9 93.4,22.9 85.9,9.1 90.4,9.1 95.8,19.5 101.3,9.1 105.8,9.1 		"/>
		<path class="st0" d="M123.7,16.5c0-1.3-0.2-2.3-0.7-3.3c-0.5-0.9-1.1-1.8-1.9-2.5c-0.8-0.7-1.8-1.1-2.9-1.5
			c-1.1-0.3-2.4-0.5-3.8-0.5c-1.5,0-2.8,0.2-4,0.6c-1.2,0.4-2.2,0.9-3.1,1.5c-0.8,0.7-1.5,1.4-2,2.3c-0.5,0.9-0.7,1.9-0.7,2.9
			c0,1.1,0.2,2.1,0.7,3c0.5,0.9,1.1,1.6,2,2.2c0.9,0.6,1.9,1.1,3.2,1.4c1.3,0.3,2.7,0.5,4.4,0.5c1.3,0,2.6-0.1,3.8-0.3
			c1.3-0.2,2.5-0.4,3.7-0.8v-3.2c-0.3,0.2-0.7,0.3-1.2,0.5c-0.5,0.2-1,0.3-1.7,0.5c-0.6,0.2-1.3,0.3-2,0.3c-0.7,0.1-1.5,0.1-2.2,0.1
			c-1,0-1.9-0.1-2.7-0.2c-0.7-0.2-1.4-0.3-1.9-0.6c-0.5-0.3-0.9-0.6-1.3-0.9c-0.3-0.4-0.5-0.8-0.6-1.2h14.8V16.5z M109,14.8
			c0.1-0.3,0.2-0.6,0.5-1c0.3-0.4,0.6-0.7,1-1s1-0.6,1.7-0.8s1.5-0.3,2.3-0.3c1,0,1.8,0.1,2.4,0.3c0.6,0.2,1.1,0.4,1.6,0.7
			c0.4,0.3,0.7,0.6,0.9,1c0.2,0.4,0.3,0.7,0.3,1L109,14.8L109,14.8z"/>
	</g>
	<path class="st0" d="M126.2,22h0.3c0.1,0,0.2,0,0.2,0.1c0.1,0.1,0.1,0.1,0.1,0.2v0.2c0,0.1,0,0.1,0,0.1v0.1h0.3v-0.1
		c-0.1,0-0.1-0.1-0.1-0.1c0,0,0-0.1,0-0.2v-0.1c0-0.1,0-0.2-0.1-0.2c-0.1-0.1-0.1-0.1-0.2-0.1c0.1-0.1,0.2-0.1,0.2-0.2
		c0.1-0.1,0.1-0.2,0.1-0.2c0-0.1,0-0.1,0-0.2c0-0.1-0.1-0.1-0.1-0.1c-0.1-0.1-0.1-0.1-0.2-0.1c-0.1,0-0.1-0.1-0.2-0.1h-0.7v1.4h0.3
		L126.2,22L126.2,22z M126.2,21.4h0.3c0.1,0,0.1,0,0.2,0c0.1,0.1,0.1,0.1,0.1,0.2c0,0.1-0.1,0.2-0.1,0.2s-0.1,0-0.2,0h-0.3V21.4z"/>
	<path class="st0" d="M126.6,23.1c0.7,0,1.3-0.6,1.3-1.3c0-0.7-0.6-1.3-1.3-1.3s-1.3,0.6-1.3,1.3C125.2,22.5,125.8,23.1,126.6,23.1
		 M126.6,20.7c0.6,0,1.1,0.5,1.1,1.1c0,0.6-0.5,1.1-1.1,1.1c-0.6,0-1.1-0.5-1.1-1.1C125.4,21.2,125.9,20.7,126.6,20.7"/>
</g>
</svg>
