<?xml version="1.0" encoding="utf-8"?>
<!-- Generator: Adobe Illustrator 20.1.0, SVG Export Plug-In . SVG Version: 6.00 Build 0)  -->
<svg version="1.1" id="Layer_1" xmlns="http://www.w3.org/2000/svg" xmlns:xlink="http://www.w3.org/1999/xlink" x="0px" y="0px"
	 viewBox="0 0 16 16" style="enable-background:new 0 0 16 16;" xml:space="preserve">
<style type="text/css">
	.st0{fill:none;}
	.st1{fill:#404040;}
	.st2{fill:#4FBC78;}
	.st3{fill:#FFFFFF;}
</style>
<rect class="st0" width="16" height="16"/>
<circle class="st0" cx="1.8" cy="-2.5" r="0"/>
<path class="st1" d="M3.7,10.1l-1,1.4l0.1,0.1h1V8.9h1.4v2.7h0.9l-0.8,1.1c0.2-0.2,0.3-0.3,0.5-0.5c0.3,0.1,0.6,0.3,0.9,0.4
	c0,0.7,0.3,1.8,0.3,1.8h2.3l0.4-1.7l0.7-0.5l1.6,1.1l1.6-1.7l-0.9-1.4l0.4-1c0,0,1.3-0.1,1.7-0.3V8.8l-0.1-2.3c0,0-1.1-0.1-1.7-0.3
	l-0.4-0.8l1.1-1.3L12,2.4l-1.4,1L9.8,3L9.5,1.2C9.4,1.1,7.7,1.1,7,1.2C6.9,1.7,6.8,2.3,6.7,2.9C6.4,3.1,5.9,3.3,5.9,3.3l-1.4-1
	L2.8,4l1,1.3L3.5,6.2L1.7,6.8L1.6,9l1.7,0.3L3.7,10.1z M5.6,6.6c0.5-0.9,1.7-1.7,3.1-1.5c1.3,0.2,2.2,1.3,2.2,2.7
	c0,1.5-1.2,2.8-2.8,2.8C6.4,10.6,4.7,8.6,5.6,6.6z"/>
<path class="st2" d="M1.4,11.3c0,1.7,1.4,3.1,3.1,3.1s3.1-1.3,3.1-3.1S6.2,8.2,4.5,8.2S1.4,9.6,1.4,11.3z"/>
<polygon class="st3" points="3.9,13 3.9,9.7 6,11.3 "/>
</svg>
