<?xml version="1.0" encoding="utf-8"?>
<!-- Generator: Adobe Illustrator 20.1.0, SVG Export Plug-In . SVG Version: 6.00 Build 0)  -->
<svg version="1.1" id="Layer_1" xmlns="http://www.w3.org/2000/svg" xmlns:xlink="http://www.w3.org/1999/xlink" x="0px" y="0px"
	 viewBox="0 0 16 16" style="enable-background:new 0 0 16 16;" xml:space="preserve">
<style type="text/css">
	.st0{fill:#404040;}
	.st1{fill:#CDCDCD;}
	.st2{fill:#3FA9F5;}
	.st3{fill:#FF6F6F;}
</style>
<g>
	<rect x="6.5" y="1.5" class="st0" width="8" height="0.6"/>
	<polygon class="st1" points="15,1 6,1 6,2.5 15,2.5 15,1 	"/>
</g>
<g>
	<rect x="1" y="1" class="st2" width="5" height="1.5"/>
</g>
<g>
	<polygon class="st1" points="13,2.5 12,2.5 12,13.5 13,13.5 13,2.5 	"/>
</g>
<g>
	<polygon class="st1" points="10,2.5 9,2.5 9,14.5 10,14.5 10,2.5 	"/>
</g>
<g>
	<polygon class="st1" points="16,4.5 0.1,4.5 0.1,5.3 16,5.3 16,4.5 	"/>
</g>
<g>
	<polygon class="st1" points="16,10.5 0.1,10.5 0.1,11.5 16,11.5 16,10.5 	"/>
</g>
<g>
	<polygon class="st1" points="16,7.5 0.1,7.5 0.1,8.5 16,8.5 16,7.5 	"/>
</g>
<g>
	<path class="st0" d="M15,1v12.5H1V1H15 M16,0H0v14.5h16V0L16,0z"/>
</g>
<g>
	<path class="st3" d="M12,5.5v2h-2v-2H12 M13,4.5H9v4h4V4.5L13,4.5z"/>
</g>
<g>
	<polygon class="st1" points="4,2.5 3,2.5 3,13.5 4,13.5 4,2.5 	"/>
</g>
<g>
	<polygon class="st1" points="7,2.5 6,2.5 6,13.5 7,13.5 7,2.5 	"/>
</g>
</svg>
