<?xml version="1.0" encoding="utf-8"?>
<!-- Generator: Adobe Illustrator 20.1.0, SVG Export Plug-In . SVG Version: 6.00 Build 0)  -->
<svg version="1.1" id="_x36_add01c8-28b7-4715-8325-254763650c2e"
	 xmlns="http://www.w3.org/2000/svg" xmlns:xlink="http://www.w3.org/1999/xlink" x="0px" y="0px" viewBox="0 0 16 16"
	 style="enable-background:new 0 0 16 16;" xml:space="preserve">
<style type="text/css">
	.st0{fill:#808080;}
	.st1{fill:#404040;}
	.st2{fill:none;}
</style>
<path class="st0" d="M7.5,4v6h7V4H7.5z M9.5,9h-1V5h1V9z M11.5,9L11.5,9h-1V5h1V9z M13.5,9h-1V5h1V9z"/>
<path class="st0" d="M12,2V1h-2v1H7v1h8V2H12z"/>
<title>Untitled-4</title>
<path class="st1" d="M1.5,8v6h7V8H1.5z M3.5,13h-1V9h1V13z M5.5,13L5.5,13h-1V9h1V13z M7.5,13h-1V9h1V13z"/>
<path class="st1" d="M6,6V5H4v1H1v1h8V6H6z"/>
<rect class="st2" width="16" height="15.9"/>
<rect class="st2" width="16" height="16"/>
</svg>
