<?xml version="1.0" encoding="utf-8"?>
<!-- Generator: Adobe Illustrator 20.1.0, SVG Export Plug-In . SVG Version: 6.00 Build 0)  -->
<svg version="1.1" id="_x30_45a5269-abf2-445d-bb58-b750fc605bcc"
	 xmlns="http://www.w3.org/2000/svg" xmlns:xlink="http://www.w3.org/1999/xlink" x="0px" y="0px" viewBox="0 0 16 16"
	 style="enable-background:new 0 0 16 16;" xml:space="preserve">
<style type="text/css">
	.st0{fill:#FFFFFF;}
	.st1{fill:#4FBC78;}
	.st2{fill:none;}
</style>
<polygon class="st0" points="8.5,6.9 6.5,6.9 6.5,8.9 4.5,8.9 4.5,6.9 2.5,6.9 2.5,4.9 4.5,4.9 4.5,2.9 6.5,2.9 6.5,4.9 8.5,4.9 "/>
<title>add</title>
<path class="st1" d="M6.1,0.2C3,0.2,0.6,2.6,0.6,5.7s2.4,5.5,5.5,5.5s5.5-2.5,5.5-5.5C11.7,2.7,9.2,0.2,6.1,0.2z M8.6,6.9h-2v2h-2
	v-2h-2v-2h2v-2h2v2h2V6.9z"/>
<rect x="-0.2" y="0.1" class="st2" width="13" height="13"/>
<path class="st1" d="M10.5,4.8C7.4,4.8,5,7.3,5,10.4s2.4,5.5,5.5,5.5s5.5-2.5,5.5-5.5C16,7.3,13.6,4.8,10.5,4.8z"/>
<polygon class="st0" points="13.6,11.9 11.6,11.9 11.6,13.9 9.6,13.9 9.6,11.9 7.6,11.9 7.6,9.9 9.6,9.9 9.6,7.9 11.6,7.9 11.6,9.9 
	13.6,9.9 "/>
</svg>
