<?xml version="1.0" encoding="utf-8"?>
<!-- Generator: Adobe Illustrator 20.1.0, SVG Export Plug-In . SVG Version: 6.00 Build 0)  -->
<svg version="1.1" id="_x30_45a5269-abf2-445d-bb58-b750fc605bcc"
	 xmlns="http://www.w3.org/2000/svg" xmlns:xlink="http://www.w3.org/1999/xlink" x="0px" y="0px" viewBox="0 0 16 16"
	 style="enable-background:new 0 0 16 16;" xml:space="preserve">
<style type="text/css">
	.st0{fill:#FFFFFF;}
	.st1{fill:none;}
	.st2{fill:#4FBC78;}
</style>
<polygon class="st0" points="8.5,6.9 6.5,6.9 6.5,8.9 4.5,8.9 4.5,6.9 2.5,6.9 2.5,4.9 4.5,4.9 4.5,2.9 6.5,2.9 6.5,4.9 8.5,4.9 "/>
<title>add</title>
<rect x="-0.2" y="0.1" class="st1" width="13" height="13"/>
<path class="st2" d="M8,0.1c-4.4,0-7.9,3.6-7.9,8S3.5,16,8,16s7.9-3.6,7.9-7.9C15.9,3.6,12.4,0.1,8,0.1z"/>
<rect x="3" y="7" class="st0" width="2" height="2"/>
<rect x="7" y="7" class="st0" width="2" height="2"/>
<rect x="11" y="7" class="st0" width="2" height="2"/>
</svg>
