<?xml version="1.0" encoding="utf-8"?>
<!-- Generator: Adobe Illustrator 20.1.0, SVG Export Plug-In . SVG Version: 6.00 Build 0)  -->
<svg version="1.1" id="Layer_1" xmlns="http://www.w3.org/2000/svg" xmlns:xlink="http://www.w3.org/1999/xlink" x="0px" y="0px"
	 viewBox="0 0 540 937" style="enable-background:new 0 0 540 937;" xml:space="preserve">
<style type="text/css">
	.st0{fill:#404040;}
	.st1{fill:#3FA9F5;}
</style>
<path class="st0" d="M119.4,401c-0.1,35.7,28.2,68.6,68.3,68.3c41-0.3,83.4-48.3,60.6-96.7c-10.5-22.3-39.7-42.4-74.8-36.1
	C143.8,341.9,119.6,366.9,119.4,401 M216.1,241.2c2.9,13,4.6,27.2,6.4,41.2c7.5,4.4,20.7,9,20.7,9l34.8-23.2l42.5,42.6L296.1,343
	l7.7,21.9l45.3,14.5l-1.5,51.3l-42.6,7.7l-9,19.3l24.5,34.8l-41.2,43.8c0,0-23.4-17-34.8-25.8c-7.2,3.1-14.5,6.1-21.9,9
	c-1,16.1-7.7,43.8-7.7,43.8h-55.5l-9-42.5l-17.4-11l-39.3,26.5L55,493.8l23.2-33.5l-10.3-23.2c0,0-30.8-2.7-42.6-7.7
	c-0.1-0.7-0.2-2.2-0.2-2.2l1.5-55.8c0,0,28.1-3.6,41.2-6.4l10.3-19.3l-25.8-34.8l42.5-42.6l34.8,24.5l20.7-9l7.7-43.8
	C158.1,239.9,200.1,238.3,216.1,241.2"/>
<path class="st1" d="M352.7,585.7c5.1,50.4,100.7,49.8,86.1-17.6c-4.2-19.6-22.4-34.3-48.8-30.8
	C366.2,540.5,349.7,556.9,352.7,585.7 M390.8,498l19.5,1.2c11.6-10.7,20.4-24.6,33.2-34c15.9,6,27.8,15.5,39.3,25.3
	C478.6,506.8,464,532,464,532l13.4,22.1l42,9.1l-2.9,47.2l-44.4,3.8l-14.2,18.8l13.7,43.4l-40.6,22L402,660.7l-19.6-1.2l-33.1,33.9
	l-41-25.4l18.9-41.4l-9.4-26.3c0,0-36.7-1.6-45.8-6.5l2.7-44l51-5l13.4-23l-19.2-41.2c0,0,26-14.7,40.5-20.4
	C369.4,467.5,390.8,498,390.8,498L390.8,498z"/>
</svg>
