<?xml version="1.0" encoding="utf-8"?>
<!-- Generator: Adobe Illustrator 20.1.0, SVG Export Plug-In . SVG Version: 6.00 Build 0)  -->
<svg version="1.1" id="Layer_1" xmlns="http://www.w3.org/2000/svg" xmlns:xlink="http://www.w3.org/1999/xlink" x="0px" y="0px"
	 viewBox="0 0 16 16" style="enable-background:new 0 0 16 16;" xml:space="preserve">
<style type="text/css">
	.st0{fill:#3FA9F5;}
	.st1{fill:none;stroke:#414141;stroke-width:1.6289;stroke-miterlimit:10;}
	.st2{fill:#414141;}
	.st3{fill:none;}
</style>
<path class="st0" d="M10,9C8.3,9,6.8,7.6,6.8,5.8S8.3,2.6,10,2.6c0,0,0.8,0.4,1.3,3.3C11.7,8.5,10,9,10,9"/>
<path class="st0" d="M11.2,3.4c1.2,0,2.1,0.9,2.1,2.1s-0.9,2.1-2.1,2.1"/>
<circle class="st1" cx="6.9" cy="5.9" r="4.3"/>
<rect x="10.3" y="8.2" transform="matrix(0.7071 -0.7071 0.7071 0.7071 -4.1213 11.2213)" class="st2" width="2.4" height="4.8"/>
<polyline class="st3" points="17.4,-1.4 17.4,16 0,16 0,-1.4 "/>
<polygon class="st2" points="12.9,13.5 14.4,11.9 15.7,13.2 14,14.7 "/>
</svg>
