<?xml version="1.0" encoding="utf-8"?>
<!-- Generator: Adobe Illustrator 20.1.0, SVG Export Plug-In . SVG Version: 6.00 Build 0)  -->
<svg version="1.1" id="Layer_1" xmlns="http://www.w3.org/2000/svg" xmlns:xlink="http://www.w3.org/1999/xlink" x="0px" y="0px"
	 viewBox="0 0 16 16" style="enable-background:new 0 0 16 16;" xml:space="preserve">
<style type="text/css">
	.st0{fill:#3FA9F5;}
	.st1{fill:#FFFFFF;}
</style>
<path class="st0" d="M16,8c0,4.4-3.6,8-8,8s-8-3.6-8-8s3.6-8,8-8S16,3.6,16,8z"/>
<path class="st1" d="M7.2,11h1.6v1.9H7.2V11z M6.3,3.6c0.4-0.3,1-0.5,1.6-0.5c0.8,0,1.5,0.2,2.1,0.7c0.5,0.5,0.8,1.2,0.8,2.1
	c0,0.6-0.1,1.1-0.4,1.5C10.3,7.6,10,7.9,9.6,8.3L9.2,8.6C9,8.8,8.9,9.1,8.8,9.3c0,0.2-0.1,0.4-0.1,0.8H7.3c0-0.7,0.1-1.3,0.2-1.5
	c0.1-0.3,0.3-0.6,0.7-1l0.4-0.4C8.7,7.1,8.8,7,8.9,6.8C9,6.6,9.1,6.3,9.1,6c0-0.3-0.1-0.6-0.2-0.9C8.7,4.8,8.4,4.7,8,4.7
	c-0.4,0-0.7,0.2-0.9,0.5C6.9,5.5,6.8,5.9,6.8,6.2H5.2C5.3,5,5.6,4.1,6.3,3.6"/>
</svg>
