<?xml version="1.0" encoding="utf-8"?>
<!-- Generator: Adobe Illustrator 20.1.0, SVG Export Plug-In . SVG Version: 6.00 Build 0)  -->
<svg version="1.1" id="Layer_1" xmlns="http://www.w3.org/2000/svg" xmlns:xlink="http://www.w3.org/1999/xlink" x="0px" y="0px"
	 viewBox="0 0 16 16" style="enable-background:new 0 0 16 16;" xml:space="preserve">
<style type="text/css">
	.st0{fill:none;stroke:#F7A808;stroke-miterlimit:10;}
	.st1{fill:#404040;}
	.st2{fill:#CDCDCD;}
	.st3{fill:none;}
	.st4{fill:none;stroke:#404040;stroke-width:1.0297;stroke-miterlimit:10;}
</style>
<path class="st0" d="M-16,9L-16,9"/>
<rect x="2" y="1" class="st1" width="12" height="1"/>
<polygon class="st2" points="5,14 11,14 8,11 "/>
<rect class="st3" width="16" height="16"/>
<rect class="st3" width="16" height="16"/>
<rect x="2" y="14" class="st1" width="12" height="1"/>
<polygon class="st2" points="4.8,2.2 10.8,2.2 7.9,7.4 "/>
<g>
	<path class="st4" d="M3.5,2v1c0,1.9,2.3,5.3,2.3,5.3S4.6,10,4.3,11.1C3.8,12.6,3.8,14,3.8,14"/>
	<path class="st4" d="M12.5,1.9v0.6c-0.2,1.9-2.4,5.8-2.4,5.8s1.2,1.7,1.5,2.8c0.5,1.5,0.5,2.9,0.5,2.9"/>
</g>
</svg>
