<?xml version="1.0" encoding="utf-8"?>
<!-- Generator: Adobe Illustrator 20.0.0, SVG Export Plug-In . SVG Version: 6.00 Build 0)  -->
<svg version="1.1" id="Layer-1" xmlns="http://www.w3.org/2000/svg" xmlns:xlink="http://www.w3.org/1999/xlink" x="0px" y="0px"
	 viewBox="0 0 16 16" style="enable-background:new 0 0 16 16;" xml:space="preserve">
<style type="text/css">
	.st0{fill:#3FA9F5;}
</style>
<title>add</title>
<g>
	<path class="st0" d="M7.1,6.8C6.7,7.2,6.6,7.6,6.6,8.2c0,0.9,0.4,1.4,1.2,1.4c0.5,0,0.7-0.1,0.9-0.5c0.2-0.4,0.4-0.8,0.4-1.4
		l0.1-1.4c-0.2,0-0.5-0.1-0.8-0.1C7.8,6.2,7.4,6.5,7.1,6.8z"/>
	<path class="st0" d="M8,0C3.5,0,0,3.6,0,8s3.5,8,8,8s8-3.5,8-8S12.5,0,8,0z M13.3,9.2c-0.2,0.6-0.5,0.9-0.9,1.3
		c-0.5,0.4-0.8,0.5-1.3,0.5c-0.4,0-0.6-0.1-0.9-0.2c-0.4-0.1-0.4-0.4-0.5-0.6H9.5c-0.5,0.6-1.2,0.9-1.9,0.9c-0.8-0.1-1.5-0.4-2-0.8
		c-0.5-0.5-0.7-1.2-0.7-2c0-0.9,0.4-1.8,0.9-2.4s1.4-0.9,2.5-0.9c0.4,0,0.8,0,1.3,0.1c0.5,0.1,0.8,0.1,1.2,0.2l-0.1,3.4
		c0,0.6,0.1,0.9,0.5,0.9c0.2,0,0.5-0.2,0.7-0.6c0.2-0.4,0.2-0.9,0.2-1.6S12,6,11.6,5.4c-0.4-0.6-0.7-0.9-1.3-1.3
		C9.8,3.8,9.2,3.6,8.5,3.6C7.5,3.6,6.7,3.9,6,4.2S4.8,5.2,4.5,5.9S3.9,7.4,3.9,8.4c0,1.3,0.4,2.2,1.1,2.9s1.6,1.1,2.9,1.1
		c0.5,0,1.1,0,1.6-0.1c0.6-0.1,1.2-0.2,1.8-0.5v1.3c-0.9,0.5-2.1,0.6-3.3,0.6c-1.8,0-3.1-0.5-4.1-1.4s-1.5-2.1-1.5-3.8
		c0-1.2,0.2-2.1,0.7-3.1s1.2-1.6,2.1-2.2s2-0.8,3.2-0.8c1.1,0,1.9,0.2,2.7,0.6s1.4,1.1,1.9,1.8s0.7,1.6,0.7,2.6
		C13.6,8,13.5,8.7,13.3,9.2z"/>
</g>
</svg>
