<?xml version="1.0" encoding="utf-8"?>
<!-- Generator: Adobe Illustrator 20.0.0, SVG Export Plug-In . SVG Version: 6.00 Build 0)  -->
<svg version="1.1" id="Layer_1" xmlns="http://www.w3.org/2000/svg" xmlns:xlink="http://www.w3.org/1999/xlink" x="0px" y="0px"
	 viewBox="0 0 16 16" style="enable-background:new 0 0 16 16;" xml:space="preserve">
<style type="text/css">
	.st0{fill:#3FA9F5;}
	.st1{fill:#FFFFFF;}
</style>
<path class="st0" d="M8,0C3.5,0,0,3.5,0,8s3.5,8,8,8s8-3.6,8-8S12.5,0,8,0z"/>
<g>
	<path class="st1" d="M13,11c-0.4,0-4.2-0.2-4.5,0c0,0,0,0.4,0,0.5H7V11c-0.4,0.1-4,0-4,0V5c0.2,0,1,0,1.2,0V4.7
		C6.4,4.6,7.9,5.4,8,5.5c0,0,0.7-0.9,3.7-0.9c0,0,0,0.3,0,0.4H13C13,5.1,13,11,13,11z M7.8,10.4L7.8,10.4c0-1.5,0-3,0-4.5
		c0-0.1-2.2-1-3.5-0.9v5.2C4.3,10.2,5.3,10,7.8,10.4z M8.2,10.4L8.2,10.4c2.3-0.4,3.5-0.2,3.5-0.2s0-4,0-5.2
		C9.3,4.9,8.2,5.7,8.2,5.8C8.2,7.3,8.2,10.3,8.2,10.4z"/>
</g>
</svg>
