<?xml version="1.0" encoding="utf-8"?>
<!-- Generator: Adobe Illustrator 20.0.0, SVG Export Plug-In . SVG Version: 6.00 Build 0)  -->
<svg version="1.1" id="Layer_1" xmlns="http://www.w3.org/2000/svg" xmlns:xlink="http://www.w3.org/1999/xlink" x="0px" y="0px"
	 viewBox="0 0 16 16" style="enable-background:new 0 0 16 16;" xml:space="preserve">
<style type="text/css">
	.st0{fill:#404040;}
	.st1{fill:none;stroke:#F7A808;stroke-width:0.697;stroke-miterlimit:10;}
	.st2{fill:#F7A808;}
	.st3{fill:#FFFFFF;}
</style>
<path class="st0" d="M8,0C3.5,0,0,3.5,0,8s3.5,8,8,8s8-3.6,8-8S12.5,0,8,0z"/>
<line class="st1" x1="4.3" y1="7.6" x2="3" y2="7.6"/>
<line class="st1" x1="13" y1="7.6" x2="11.8" y2="7.6"/>
<line class="st1" x1="4.6" y1="4.7" x2="3.5" y2="4.2"/>
<line class="st1" x1="11.5" y1="4.7" x2="12.6" y2="4.2"/>
<path class="st2" d="M8,3.7c-1.5,0-2.8,1.2-2.8,2.7c0,1,0.5,1.7,1.3,2.2v2.1h3.1v-2c0.8-0.5,1.3-1.3,1.3-2.2C10.8,5,9.5,3.7,8,3.7z
	 M7.3,10.3v-2L6.7,7.2h0.4l0.5,1.1c0,0,0,2.1,0.1,2H7.3z M8.6,8.4v2H8.3V8.3l0.6-1h0.3L8.6,8.4z"/>
<polygon class="st3" points="6.6,11.7 6.6,12.4 7.3,12.4 7.3,13.1 8.7,13.1 8.7,12.4 9.4,12.4 9.4,11.7 "/>
<circle class="st0" cx="3.8" cy="15.2" r="0"/>
</svg>
