<?xml version="1.0" encoding="utf-8"?>
<!-- Generator: Adobe Illustrator 20.0.0, SVG Export Plug-In . SVG Version: 6.00 Build 0)  -->
<svg version="1.1" id="Layer_1" xmlns="http://www.w3.org/2000/svg" xmlns:xlink="http://www.w3.org/1999/xlink" x="0px" y="0px"
	 viewBox="0 0 16 16" style="enable-background:new 0 0 16 16;" xml:space="preserve">
<style type="text/css">
	.st0{display:none;}
	.st1{fill:#FF6F6F;}
</style>
<g id="Layer_1_1_" class="st0">
</g>
<title>arrow_down</title>
<g>
	<path class="st1" d="M8,1.4c-3.6,0-6.6,3-6.6,6.6s3,6.6,6.6,6.6s6.6-3,6.6-6.6S11.6,1.4,8,1.4z M8,11.9c-2.2,0-3.9-1.8-3.9-3.9
		c0-2.2,1.8-3.9,3.9-3.9c2.2,0,3.9,1.8,3.9,3.9C11.9,10.2,10.2,11.9,8,11.9z"/>
	<path class="st1" d="M8,5.1C6.4,5.1,5.1,6.4,5.1,8c0,1,0.5,1.8,1.2,2.4l2.5-5.1C8.6,5.1,8.3,5.1,8,5.1z"/>
	<path class="st1" d="M9.7,5.6l-2.5,5.1c0.3,0.1,0.5,0.1,0.8,0.1c1.6,0,2.9-1.3,2.9-2.9C10.9,7,10.4,6.2,9.7,5.6z"/>
</g>
</svg>
