<?xml version="1.0" encoding="utf-8"?>
<!-- Generator: Adobe Illustrator 20.0.0, SVG Export Plug-In . SVG Version: 6.00 Build 0)  -->
<svg version="1.1" id="Layer_1" xmlns="http://www.w3.org/2000/svg" xmlns:xlink="http://www.w3.org/1999/xlink" x="0px" y="0px"
	 viewBox="0 0 16 16" style="enable-background:new 0 0 16 16;" xml:space="preserve">
<style type="text/css">
	.st0{fill:#3FA9F5;}
	.st1{fill:none;stroke:#FFFFFF;stroke-width:0.6221;stroke-miterlimit:10;}
	.st2{fill:none;stroke:#FFFFFF;stroke-width:0.6335;stroke-miterlimit:10;}
	.st3{fill:#FFFFFF;}
</style>
<g id="Layer-1">
	<title>add</title>
	<g>
		<path class="st0" d="M8,0C3.5,0,0,3.6,0,8s3.5,8,8,8s8-3.5,8-8S12.5,0,8,0z"/>
	</g>
</g>
<path class="st1" d="M8.4,10"/>
<path class="st1" d="M8.3,6.1"/>
<path class="st2" d="M9.6,10"/>
<path class="st2" d="M9.6,6.1"/>
<g>
	<path class="st3" d="M13.2,7.8L13.2,7.8l-1.8,4.5h-7L2.8,7.8V7.8H13.2 M14,7H2v1l2,5h8l2-5V7L14,7z"/>
</g>
<g>
	<rect x="7" y="3" class="st3" width="2" height="4"/>
</g>
<rect x="5" y="8" class="st3" width="1" height="1"/>
<rect x="7" y="8" class="st3" width="1" height="1"/>
<rect x="9" y="8" class="st3" width="1" height="1"/>
<rect x="11" y="8" class="st3" width="1" height="1"/>
<rect x="10" y="9" class="st3" width="1" height="1"/>
<rect x="6" y="9" class="st3" width="1" height="1"/>
<rect x="6" y="11" class="st3" width="1" height="1"/>
<rect x="10" y="11" class="st3" width="1" height="1"/>
<rect x="8" y="9" class="st3" width="1" height="1"/>
<rect x="7" y="10" class="st3" width="1" height="1"/>
<rect x="9" y="10" class="st3" width="1" height="1"/>
<rect x="5" y="10" class="st3" width="1" height="1"/>
<rect x="4" y="9" class="st3" width="1" height="1"/>
<rect x="8" y="11" class="st3" width="1" height="1"/>
</svg>
