<?xml version="1.0" encoding="utf-8"?>
<!-- Generator: Adobe Illustrator 20.0.0, SVG Export Plug-In . SVG Version: 6.00 Build 0)  -->
<svg version="1.1" id="Layer_1" xmlns="http://www.w3.org/2000/svg" xmlns:xlink="http://www.w3.org/1999/xlink" x="0px" y="0px"
	 viewBox="0 0 16 16" style="enable-background:new 0 0 16 16;" xml:space="preserve">
<style type="text/css">
	.st0{fill:#404040;}
</style>
<path class="st0" d="M8,16c-4.4,0-8-3.6-8-8s3.6-8,8-8s8,3.6,8,8C16,12.5,12.3,16,8,16z M3.7,8c0,2.4,1.9,4.3,4.3,4.3
	s4.3-1.9,4.3-4.3s-1.9-4.3-4.2-4.3C5.7,3.7,3.7,5.6,3.7,8z"/>
<path class="st0" d="M8,4.2C5.8,4.2,4.2,5.8,4.2,8C4.3,10.2,6,11.8,8,11.8c2.1,0,3.7-1.6,3.7-3.7C11.8,6,10,4.3,8,4.2z M8,10.3
	c-1.2-0.1-2.3-1.1-2.3-2.3S6.8,5.7,8,5.7c1.2,0,2.3,1,2.3,2.3C10.3,9.2,9.2,10.3,8,10.3z"/>
</svg>
