<?xml version="1.0" encoding="utf-8"?>
<!-- Generator: Adobe Illustrator 20.0.0, SVG Export Plug-In . SVG Version: 6.00 Build 0)  -->
<svg version="1.1" id="Layer_1" xmlns="http://www.w3.org/2000/svg" xmlns:xlink="http://www.w3.org/1999/xlink" x="0px" y="0px"
	 viewBox="0 0 16 16" style="enable-background:new 0 0 16 16;" xml:space="preserve">
<style type="text/css">
	.st0{fill:#3FA9F5;}
	.st1{fill:#FFFFFF;}
	.st2{fill:none;}
</style>
<path class="st0" d="M8,0C3.5,0,0,3.5,0,8s3.5,8,8,8s8-3.6,8-8C16,3.5,12.5,0,8,0z"/>
<path class="st1" d="M13.2,9V7.3l-1.5-0.5l-0.3-0.7l0.7-1.1l-1.3-1.3L9.7,4.5c0,0-0.5-0.2-0.7-0.3C8.9,3.8,8.9,3.4,8.9,2.9
	c-0.5-0.1-1.8,0-1.8,0L6.7,4.2L6.1,4.5L5,3.8L3.7,5.1l0.8,1.2L4.2,6.8C3.7,6.9,2.8,7,2.8,7v1.7v0.1c0.3,0.2,1.3,0.3,1.3,0.3L4.5,10
	L3.7,11l1.2,1.3l1.2-0.9l0.6,0.4l0.3,1.3h1.7c0,0,0.3-0.8,0.3-1.3c0.2-0.2,0.5-0.2,0.7-0.3c0.3,0.2,1.1,0.7,1.1,0.7l1.3-1.5
	l-0.7-1.1l0.3-0.6L13.2,9z M8,10.1c-1.2,0-2.1-1-2.1-2.1c0-1.1,0.8-1.8,1.7-2.1C8.6,5.7,9.6,6.3,9.9,7C10.6,8.6,9.2,10.1,8,10.1z"/>
<rect class="st2" width="16" height="16"/>
</svg>
