<?xml version="1.0" encoding="utf-8"?>
<!-- Generator: Adobe Illustrator 20.0.0, SVG Export Plug-In . SVG Version: 6.00 Build 0)  -->
<svg version="1.1" id="Layer_2" xmlns="http://www.w3.org/2000/svg" xmlns:xlink="http://www.w3.org/1999/xlink" x="0px" y="0px"
	 viewBox="0 0 16 16" style="enable-background:new 0 0 16 16;" xml:space="preserve">
<style type="text/css">
	.st0{fill:#3FA9F5;}
	.st1{fill:#B8DDF4;}
	.st2{fill:#FFFFFF;}
</style>
<circle class="st0" cx="8" cy="8" r="7.7"/>
<path class="st1" d="M11.1,5H4.9C4.5,5,4,5.4,4,5.7v4.5C4,10.6,4.5,11,4.9,11h4.4L9,13l2.1-2c0,0,0.9,0,0.9-0.7V5.7
	C12,5.4,11.5,5,11.1,5z"/>
<path class="st2" d="M12.1,3H5.9C5.5,3,5,3.4,5,3.7v4.5C5,8.6,5.5,9,5.9,9h4.4L10,11l2.1-2c0,0,0.9,0,0.9-0.7V3.7
	C13,3.4,12.5,3,12.1,3z"/>
</svg>
