<?xml version="1.0" encoding="utf-8"?>
<!-- Generator: Adobe Illustrator 20.0.0, SVG Export Plug-In . SVG Version: 6.00 Build 0)  -->
<svg version="1.1" id="Layer_1" xmlns="http://www.w3.org/2000/svg" xmlns:xlink="http://www.w3.org/1999/xlink" x="0px" y="0px"
	 viewBox="0 0 16 16" style="enable-background:new 0 0 16 16;" xml:space="preserve">
<style type="text/css">
	.st0{fill:#3FA9F5;}
	.st1{fill:#FFFFFF;}
</style>
<g>
	<circle class="st0" cx="8" cy="8" r="8"/>
</g>
<g>
	<path class="st1" d="M13.3,7.9c0,2.9-2.3,5.4-5.3,5.4s-5.3-2.4-5.3-5.4S5.1,2.7,8,2.7S13.3,5,13.3,7.9z M3.9,7.9
		c0,2.4,1.8,4.4,4.1,4.4s4.1-1.9,4.1-4.4S10.3,3.6,8,3.6C5.7,3.6,3.9,5.5,3.9,7.9z M10.1,6.3C9.9,6.1,9.2,5.9,8.4,5.9
		c-1.3,0-2.1,0.8-2.1,2.1s0.9,2.2,2.1,2.2c0.8,0,1.3-0.1,1.7-0.4l0.3,0.9c-0.6,0.4-1.4,0.5-2.2,0.5c-2.1,0-3.2-1.4-3.2-3.1
		c0-1.9,1.5-3.2,3.3-3.2c0.8,0,1.7,0.3,1.9,0.5L10.1,6.3z"/>
</g>
</svg>
