<?xml version="1.0" encoding="utf-8"?>
<!-- Generator: Adobe Illustrator 20.0.0, SVG Export Plug-In . SVG Version: 6.00 Build 0)  -->
<svg version="1.1" id="Layer_1" xmlns="http://www.w3.org/2000/svg" xmlns:xlink="http://www.w3.org/1999/xlink" x="0px" y="0px"
	 viewBox="0 0 16 16" style="enable-background:new 0 0 16 16;" xml:space="preserve">
<style type="text/css">
	.st0{fill:#4FBC78;}
	.st1{fill:#FFFFFF;}
</style>
<g>
	<circle class="st0" cx="8" cy="8" r="8"/>
</g>
<g>
	<path class="st1" d="M4.1,13.6v-1.4C5,11.9,6,10.9,6,9.7C6,9.5,6,9.3,6,9.1H4.3V7.3h1.4C5.6,6.9,5.5,6.4,5.5,5.9
		c0-2.1,1.6-3.6,3.8-3.6c0.9,0,1.6,0.2,2,0.4l-0.4,2c-0.3-0.2-0.8-0.3-1.4-0.3C8.3,4.4,7.9,5.2,7.9,6c0,0.4,0.1,0.8,0.2,1.3h2.3v1.8
		H8.3c0,0.4,0,0.8-0.2,1.2c-0.2,0.4-0.4,0.8-0.8,1.2v0h4.5v2.1H4.1z"/>
</g>
</svg>
