<?xml version="1.0" encoding="utf-8"?>
<!-- Generator: Adobe Illustrator 20.0.0, SVG Export Plug-In . SVG Version: 6.00 Build 0)  -->
<svg version="1.1" id="Layer_1" xmlns="http://www.w3.org/2000/svg" xmlns:xlink="http://www.w3.org/1999/xlink" x="0px" y="0px"
	 viewBox="0 0 16 16" style="enable-background:new 0 0 16 16;" xml:space="preserve">
<style type="text/css">
	.st0{fill:#4FBC78;}
	.st1{fill:#F9F9F9;}
</style>
<g>
	<circle class="st0" cx="8" cy="8" r="8"/>
</g>
<g>
	<path class="st1" d="M11.9,12.5c-0.5,0.3-1.4,0.6-2.3,0.6c-1.5,0-2.8-0.6-3.7-1.7c-0.4-0.5-0.7-1.2-0.8-1.9h-1V8.3h0.8
		c0-0.1,0-0.2,0-0.3c0-0.1,0-0.3,0-0.4H4.1V6.5h1c0.2-0.8,0.6-1.5,1-2.1C7,3.5,8.2,3,9.6,3c0.9,0,1.7,0.2,2.2,0.4l-0.4,1.7
		C11,5,10.4,4.8,9.8,4.8C9,4.8,8.4,5,7.9,5.6c-0.2,0.2-0.4,0.6-0.5,1h3.7v1.1h-4c0,0.1,0,0.3,0,0.5c0,0.1,0,0.1,0,0.2h4v1.1H7.4
		c0.1,0.4,0.3,0.8,0.5,1c0.5,0.5,1.2,0.8,1.9,0.8c0.7,0,1.4-0.2,1.7-0.4L11.9,12.5z"/>
</g>
</svg>
