<?xml version="1.0" encoding="utf-8"?>
<!-- Generator: Adobe Illustrator 20.0.0, SVG Export Plug-In . SVG Version: 6.00 Build 0)  -->
<svg version="1.1" id="Layer_1" xmlns="http://www.w3.org/2000/svg" xmlns:xlink="http://www.w3.org/1999/xlink" x="0px" y="0px"
	 viewBox="0 0 16 16" style="enable-background:new 0 0 16 16;" xml:space="preserve">
<style type="text/css">
	.st0{fill:#4FBC78;}
	.st1{fill:#FFFFFF;}
</style>
<g>
	<circle class="st0" cx="8" cy="8" r="8"/>
</g>
<g>
	<path class="st1" d="M7.1,14.9v-1.6C6,13.3,4.9,13,4.2,12.6l0.5-2c0.7,0.4,1.7,0.7,2.8,0.7c1,0,1.6-0.4,1.6-1.1
		c0-0.6-0.5-1.1-1.8-1.5C5.6,8.2,4.3,7.4,4.3,5.7c0-1.5,1.1-2.7,2.9-3V1.1h1.7v1.5c1.1,0.1,1.9,0.3,2.5,0.6L10.8,5
		c-0.4-0.2-1.2-0.6-2.4-0.6c-1.1,0-1.5,0.5-1.5,1c0,0.6,0.6,0.9,2,1.5c2,0.7,2.8,1.6,2.8,3.2c0,1.5-1.1,2.8-3,3.1v1.7H7.1z"/>
</g>
</svg>
