<?xml version="1.0" encoding="utf-8"?>
<!-- Generator: Adobe Illustrator 20.0.0, SVG Export Plug-In . SVG Version: 6.00 Build 0)  -->
<svg version="1.1" id="Layer_1" xmlns="http://www.w3.org/2000/svg" xmlns:xlink="http://www.w3.org/1999/xlink" x="0px" y="0px"
	 viewBox="0 0 16 16" style="enable-background:new 0 0 16 16;" xml:space="preserve">
<style type="text/css">
	.st0{fill:#3FA9F5;}
	.st1{fill:#FFFFFF;}
	.st2{fill:none;}
</style>
<circle class="st0" cx="8" cy="8" r="8"/>
<g>
	<path class="st1" d="M9.1,7.1c0.3,0,0.6,0,0.9,0c0.2,0,0.4,0,0.6,0c0.1,0,0.1,0,0.1-0.1c0.5-1,1.7-1.4,2.7-0.8s1.1,2,0.3,2.9
		c-0.9,0.9-2.5,0.7-3-0.5c0,0-0.1-0.1-0.2-0.1c-2.6,0-8.1,0.1-8.2,0c0,0-0.5-0.5-0.6-0.6c0,0,0.4-0.4,0.7-0.7c0.1-0.1,3.9,0,5.2,0
		h0.1c0.1-0.2,0.1-0.4,0.2-0.7c0-0.3,0-0.6,0-0.9c0-0.1,0-0.1-0.1-0.1C6.6,5,6.3,3.7,7,2.7c0.7-0.9,2-1,2.8-0.2
		c0.9,0.9,0.6,2.4-0.6,3c0,0-0.1,0.1-0.1,0.1C9.1,6.1,9.1,6.6,9.1,7.1z M9.1,3.2c-0.4-0.4-1-0.4-1.3,0c-0.4,0.4-0.4,1,0,1.3
		c0.4,0.4,1,0.4,1.3,0C9.4,4.1,9.4,3.5,9.1,3.2z M11.7,8.4c0.4,0.4,1,0.4,1.3,0c0.4-0.4,0.4-1,0-1.3c-0.4-0.4-1-0.4-1.3,0
		C11.3,7.4,11.3,8,11.7,8.4z M8.6,7.9c0.1-0.1,0.1-0.2,0-0.3c-0.1-0.1-0.2,0-0.3,0c-0.1,0.1-0.1,0.2,0,0.3C8.3,8,8.5,8,8.6,7.9z"/>
	<path class="st1" d="M8.3,14.4c-0.1-0.1-0.4-0.4-0.5-0.5c0,0,0-4.9-0.1-5.2l1.3,0c0,0,0,4.9,0,5C8.7,14,8.7,14,8.3,14.4z"/>
</g>
<rect x="2.1" y="2.1" class="st2" width="11.8" height="11.8"/>
</svg>
