<?xml version="1.0" encoding="utf-8"?>
<!-- Generator: Adobe Illustrator 20.0.0, SVG Export Plug-In . SVG Version: 6.00 Build 0)  -->
<svg version="1.1" id="Layer_1" xmlns="http://www.w3.org/2000/svg" xmlns:xlink="http://www.w3.org/1999/xlink" x="0px" y="0px"
	 viewBox="0 0 16 16" style="enable-background:new 0 0 16 16;" xml:space="preserve">
<style type="text/css">
	.st0{fill:#3FA9F5;}
	.st1{fill:#FFFFFF;}
</style>
<circle class="st0" cx="8" cy="8" r="8"/>
<path class="st1" d="M10.5,4.2c-0.2,0-0.5,0-0.5,0c0-1.3-1-2.3-2.3-2.2C5.5,2.1,5.5,4.5,5.5,4.5H5.5c-1.3,0-2.3,1-2.3,2.3
	c0,1,1.1,1.9,2.2,2.2h5.2c1.2,0,2.2-1.1,2.2-2.4S11.8,4.2,10.5,4.2z"/>
<rect x="4" y="10" class="st1" width="1" height="2"/>
<rect x="7" y="12" class="st1" width="1" height="2"/>
<rect x="10" y="10" class="st1" width="1" height="2"/>
</svg>
