<?xml version="1.0" encoding="utf-8"?>
<!-- Generator: Adobe Illustrator 20.0.0, SVG Export Plug-In . SVG Version: 6.00 Build 0)  -->
<svg version="1.1" id="Layer_1" xmlns="http://www.w3.org/2000/svg" xmlns:xlink="http://www.w3.org/1999/xlink" x="0px" y="0px"
	 viewBox="0 0 16 16" style="enable-background:new 0 0 16 16;" xml:space="preserve">
<style type="text/css">
	.st0{fill:#FF6F6F;}
	.st1{fill:#FFFFFF;}
</style>
<g id="Layer_2">
	<circle class="st0" cx="8" cy="8" r="8"/>
</g>
<g id="Layer_1_1_">
	<g>
		<path class="st1" d="M10.7,5.6c0.2,0,2.8,5.1-0.5,7.9C9.9,13.8,9.5,14,9,14.2c1.1-0.8,1.3-1.8,1.1-3.1C10,10.5,9.9,9.9,9.7,9.3
			C9.6,9.7,9,10.7,9,10.9c-0.2-0.1-0.2-2.8-1.1-3.8c0.2,0.7-2,1.7-1.9,4.3c0,0.8,0.5,2.3,1.1,2.6c0.1,0-0.2,0-0.4-0.1
			c-0.8-0.3-1.4-0.7-1.9-1.4C2.2,8.4,7,4.9,7.3,3.9c0.2-0.7,0.3-1.2,0.3-1.7C7.6,2,8.2,2.7,8.4,3c1.3,2.1,0.8,5.2,1.1,5.4
			C9.8,8.2,10.6,7.3,10.7,5.6L10.7,5.6z"/>
	</g>
</g>
</svg>
