<?xml version="1.0" encoding="utf-8"?>
<!-- Generator: Adobe Illustrator 20.0.0, SVG Export Plug-In . SVG Version: 6.00 Build 0)  -->
<svg version="1.1" id="Layer_1" xmlns="http://www.w3.org/2000/svg" xmlns:xlink="http://www.w3.org/1999/xlink" x="0px" y="0px"
	 viewBox="0 0 16 16" style="enable-background:new 0 0 16 16;" xml:space="preserve">
<style type="text/css">
	.st0{fill:#F7A808;}
	.st1{fill:#FFFFFF;}
</style>
<circle class="st0" cx="8" cy="8" r="8"/>
<g>
	<circle class="st1" cx="7.9" cy="7.9" r="2.9"/>
	<rect x="12.5" y="6.7" transform="matrix(6.123234e-17 -1 1 6.123234e-17 5.0934 20.8518)" class="st1" width="0.9" height="2.5"/>
	<rect x="2.6" y="6.7" transform="matrix(6.123234e-17 -1 1 6.123234e-17 -4.8518 10.9066)" class="st1" width="0.9" height="2.5"/>
	<g>
		
			<rect x="7.5" y="1.8" transform="matrix(-1 -1.224647e-16 1.224647e-16 -1 15.9131 6.0548)" class="st1" width="0.8" height="2.5"/>
		<rect x="3.8" y="3.5" transform="matrix(0.5853 -0.8108 0.8108 0.5853 -2.0449 5.4407)" class="st1" width="0.9" height="2.5"/>
		<rect x="11.2" y="3.4" transform="matrix(0.5853 0.8108 -0.8108 0.5853 8.6164 -7.5117)" class="st1" width="0.9" height="2.5"/>
	</g>
	<g>
		
			<rect x="7.5" y="11.7" transform="matrix(-1 -1.224647e-16 1.224647e-16 -1 15.878 25.9452)" class="st1" width="0.8" height="2.5"/>
		<rect x="3.8" y="10.1" transform="matrix(0.5853 0.8108 -0.8108 0.5853 10.9207 1.2085)" class="st1" width="0.9" height="2.5"/>
		
			<rect x="11.2" y="10.1" transform="matrix(0.5853 -0.8108 0.8108 0.5853 -4.3638 14.1324)" class="st1" width="0.9" height="2.5"/>
	</g>
</g>
</svg>
