<?xml version="1.0" encoding="utf-8"?>
<!-- Generator: Adobe Illustrator 20.0.0, SVG Export Plug-In . SVG Version: 6.00 Build 0)  -->
<svg version="1.1" id="Layer_1" xmlns="http://www.w3.org/2000/svg" xmlns:xlink="http://www.w3.org/1999/xlink" x="0px" y="0px"
	 viewBox="0 0 16 16" style="enable-background:new 0 0 16 16;" xml:space="preserve">
<style type="text/css">
	.st0{fill:#3FA9F5;}
	.st1{fill:#FFFFFF;}
	.st2{fill:none;stroke:#FFFFFF;stroke-width:0.6904;stroke-miterlimit:10;}
</style>
<circle class="st0" cx="8" cy="8" r="8"/>
<polygon class="st1" points="3.2,11.9 2.2,11.9 2.2,4.4 5.8,4.4 6.4,5.8 10.6,5.8 10.6,6.8 4.8,6.8 3,10.4 "/>
<path class="st2" d="M2.8,11.6c0.1-0.7,1.8-4.8,1.8-4.8h7.2l-1.7,4.8H2.8z"/>
<path class="st1" d="M13.7,4.6c-0.5-0.5-1.2-0.7-1.9-0.8c-0.7,0-1.4,0.3-1.9,0.7l0.8,0.7C11,5,11.4,4.8,11.9,4.8
	c0.4,0,0.9,0.2,1.2,0.5c0.6,0.6,0.7,1.5,0.1,2.2L12.7,7l-0.1,1.8l1.8,0.1l-0.6-0.5C14.8,7.2,14.8,5.6,13.7,4.6z"/>
</svg>
