<?xml version="1.0" encoding="utf-8"?>
<!-- Generator: Adobe Illustrator 20.0.0, SVG Export Plug-In . SVG Version: 6.00 Build 0)  -->
<svg version="1.1" id="Layer_1" xmlns="http://www.w3.org/2000/svg" xmlns:xlink="http://www.w3.org/1999/xlink" x="0px" y="0px"
	 viewBox="0 0 16 16" style="enable-background:new 0 0 16 16;" xml:space="preserve">
<style type="text/css">
	.st0{fill:#4FBC78;}
	.st1{fill:#FFFFFF;}
</style>
<circle class="st0" cx="8" cy="8" r="8"/>
<g>
	<path class="st1" d="M6,3.7c0.5-0.3,1.1-0.5,1.9-0.5c1,0,1.8,0.2,2.4,0.7s1,1.2,1,2.1c0,0.6-0.1,1-0.4,1.4
		c-0.2,0.2-0.5,0.5-0.9,0.9L9.5,8.6C9.2,8.8,9.1,9,9,9.3c-0.1,0.2-0.1,0.4-0.1,0.8H7.1c0-0.7,0.1-1.2,0.2-1.5c0.1-0.3,0.4-0.6,0.9-1
		l0.5-0.4C8.8,7.1,9,7,9,6.8C9.2,6.6,9.3,6.3,9.3,6c0-0.3-0.1-0.6-0.3-0.9C8.8,4.9,8.5,4.7,8,4.7c-0.5,0-0.9,0.2-1.1,0.5
		c-0.2,0.3-0.3,0.7-0.3,1H4.7C4.8,5,5.2,4.2,6,3.7z M7.1,11H9v1.9H7.1V11z"/>
</g>
</svg>
