<?xml version="1.0" encoding="utf-8"?>
<!-- Generator: Adobe Illustrator 20.0.0, SVG Export Plug-In . SVG Version: 6.00 Build 0)  -->
<svg version="1.1" id="Layer_2" xmlns="http://www.w3.org/2000/svg" xmlns:xlink="http://www.w3.org/1999/xlink" x="0px" y="0px"
	 viewBox="0 0 16 16" style="enable-background:new 0 0 16 16;" xml:space="preserve">
<style type="text/css">
	.st0{fill:#3FA9F5;}
	.st1{fill:none;}
	.st2{fill:#FFFFFF;}
	.st3{fill:none;stroke:#FCFCFC;stroke-width:0.7723;stroke-miterlimit:10;}
</style>
<circle class="st0" cx="8" cy="8" r="8"/>
<rect x="7" y="9" class="st0" width="2" height="4"/>
<rect class="st1" width="16" height="16"/>
<rect x="3" y="3" class="st2" width="10" height="1"/>
<polygon class="st2" points="5.8,12.5 10.2,12.5 8,9 "/>
<rect x="2" y="2" class="st1" width="12" height="12"/>
<rect x="2" y="2" class="st1" width="12" height="12"/>
<rect x="3" y="12" class="st2" width="10" height="1"/>
<polygon class="st2" points="6,4 10.1,4 8,7 "/>
<g>
	<path class="st3" d="M4.6,3.5v0.8c0,1.4,1.7,4,1.7,4s-0.9,1.3-1.1,2.1c-0.4,1.1-0.4,2.2-0.4,2.2"/>
	<path class="st3" d="M11.4,3.4v0.5c-0.1,1.4-1.8,4.4-1.8,4.4s0.9,1.3,1.1,2.1c0.4,1.1,0.4,2.2,0.4,2.2"/>
</g>
<path class="st3" d="M4,3"/>
</svg>
