<?xml version="1.0" encoding="utf-8"?>
<!-- Generator: Adobe Illustrator 20.0.0, SVG Export Plug-In . SVG Version: 6.00 Build 0)  -->
<svg version="1.1" id="Layer_2" xmlns="http://www.w3.org/2000/svg" xmlns:xlink="http://www.w3.org/1999/xlink" x="0px" y="0px"
	 viewBox="0 0 16 16" style="enable-background:new 0 0 16 16;" xml:space="preserve">
<style type="text/css">
	.st0{fill:#3FA9F5;}
	.st1{fill:none;}
	.st2{fill:none;stroke:#FCFCFC;stroke-width:0.7723;stroke-miterlimit:10;}
	.st3{fill:#FFFFFF;}
</style>
<circle class="st0" cx="8" cy="8" r="8"/>
<rect x="7" y="9" class="st0" width="2" height="4"/>
<rect class="st1" width="16" height="16"/>
<rect x="2" y="2" class="st1" width="12" height="12"/>
<rect x="2" y="2" class="st1" width="12" height="12"/>
<path class="st2" d="M4,3"/>
<path class="st3" d="M3,6.9c0,1.9,1.6,3.5,3.5,3.5c0.5,0,1-0.1,1.4-0.3L8.7,11l0.8-0.3l0.1,1.1l1-0.1l0.1,1H13v-1.9
	c-0.2-0.2-3.1-2.6-3.1-2.6c0-0.1,0.3-0.9,0.1-1.9c-0.2-1.7-1.6-3-3.4-3C4.6,3.4,3,5,3,6.9z M6.8,6.6c0,0.7-0.5,1-1,1s-1.1-0.4-1.1-1
	s0.5-1,1-1S6.8,6,6.8,6.6z"/>
</svg>
