<?xml version="1.0" encoding="utf-8"?>
<!-- Generator: Adobe Illustrator 20.0.0, SVG Export Plug-In . SVG Version: 6.00 Build 0)  -->
<svg version="1.1" id="Layer_1" xmlns="http://www.w3.org/2000/svg" xmlns:xlink="http://www.w3.org/1999/xlink" x="0px" y="0px"
	 viewBox="0 0 16 16" style="enable-background:new 0 0 16 16;" xml:space="preserve">
<style type="text/css">
	.st0{fill:#404040;}
</style>
<g>
	<path class="st0" d="M16,8c0,4.4-3.6,8-8,8c-4.4,0-8-3.6-8-8c0-4.4,3.6-8,8-8C12.4,0,16,3.6,16,8z M8,1.4c-2.3,0-4.6,1.2-5.8,3.5
		c-1.2,2.2-1.1,5,0.4,7C4.1,14,6.4,14.7,8,14.6C5.8,12.9,4.7,10.7,4.7,8C4.7,5.3,5.8,3.1,8,1.4z"/>
</g>
</svg>
