<?xml version="1.0" encoding="utf-8"?>
<!-- Generator: Adobe Illustrator 20.0.0, SVG Export Plug-In . SVG Version: 6.00 Build 0)  -->
<svg version="1.1" id="Layer_2" xmlns="http://www.w3.org/2000/svg" xmlns:xlink="http://www.w3.org/1999/xlink" x="0px" y="0px"
	 viewBox="0 0 16 16" style="enable-background:new 0 0 16 16;" xml:space="preserve">
<style type="text/css">
	.st0{fill:#3FA9F5;}
	.st1{fill:none;}
	.st2{fill:none;stroke:#FCFCFC;stroke-width:0.7723;stroke-miterlimit:10;}
	.st3{fill:#FFFFFF;}
</style>
<circle class="st0" cx="8" cy="8" r="8"/>
<rect class="st1" width="16" height="16"/>
<rect x="2" y="2" class="st1" width="12" height="12"/>
<rect x="2" y="2" class="st1" width="12" height="12"/>
<path class="st2" d="M4,3"/>
<rect x="5" y="3" class="st1" width="16" height="16"/>
<g>
	<path class="st3" d="M9,4v1v1h1h1v5H5V4H9 M10,3H4v9h8V5h-2V3L10,3z"/>
</g>
<line class="st1" x1="11" y1="5" x2="12" y2="5"/>
<g>
	<path class="st3" d="M9.6,4L11,5.4V11H5V4H9.6 M10,3H4v9h8V5L10,3L10,3z"/>
</g>
<polygon class="st3" points="10,3 12,5 12,6 9,6 9,3 "/>
</svg>
