<?xml version="1.0" encoding="utf-8"?>
<!-- Generator: Adobe Illustrator 20.0.0, SVG Export Plug-In . SVG Version: 6.00 Build 0)  -->
<svg version="1.1" id="Layer_1" xmlns="http://www.w3.org/2000/svg" xmlns:xlink="http://www.w3.org/1999/xlink" x="0px" y="0px"
	 viewBox="0 0 16 16" style="enable-background:new 0 0 16 16;" xml:space="preserve">
<style type="text/css">
	.st0{fill:#3FA9F5;}
	.st1{fill:#FFFFFF;}
</style>
<circle class="st0" cx="8" cy="8" r="7.9"/>
<g>
	<path class="st1" d="M13.1,10.9c-0.2,1-0.8,1.8-1.8,2.1c-1,0.3-1.9,0.1-2.7-0.5c-0.3-0.1-0.5-0.4-0.7-0.7L8.8,11
		c0.1,0.2,0.3,0.4,0.5,0.4c0.3,0.4,0.7,0.6,1.3,0.5c0.6-0.1,1-0.4,1.3-1c0.2-0.6,0.1-1.2-0.4-1.6C10,7.9,8.5,6.5,7.1,5
		C6.7,4.6,6.2,4.5,5.9,4.6c-0.7,0.1-1,0.4-1.3,1C4.4,6.3,4.5,6.8,5,7.2C5.2,7.5,5.5,7.8,5.7,8c0.4,0.5,0.9,1,1.4,1.5
		c0.1,0.1,0.4,0.1,0.6,0C8,9.2,8,8.9,7.7,8.7C7.1,8.2,6.6,7.6,6.1,7.1L7,6.2c0.5,0.5,1.1,1.1,1.6,1.6C9,8.2,9.1,8.6,9.3,9.2
		c-0.1,0.7-0.4,1.3-1.1,1.5c-0.7,0.2-1.3,0.1-1.9-0.4C5.6,9.5,4.8,8.7,4.1,8c-0.7-0.7-1-1.6-0.7-2.5c0.2-1.3,1.4-2.3,2.8-2.2
		C6.9,3.3,7.5,3.5,8,4.1c0.3,0.3,0.5,0.5,0.8,0.8c0.8,0.8,1.7,1.7,2.5,2.5c0.3,0.3,0.7,0.7,1,1c0.6,0.6,0.9,1.3,0.9,2.1
		C13.1,10.6,13.1,10.8,13.1,10.9z"/>
</g>
</svg>
