<?xml version="1.0" encoding="utf-8"?>
<!-- Generator: Adobe Illustrator 20.0.0, SVG Export Plug-In . SVG Version: 6.00 Build 0)  -->
<svg version="1.1" xmlns="http://www.w3.org/2000/svg" xmlns:xlink="http://www.w3.org/1999/xlink" x="0px" y="0px"
	 viewBox="0 0 16 16" style="enable-background:new 0 0 16 16;" xml:space="preserve">
<style type="text/css">
	.st0{display:none;}
	.st1{display:inline;fill:#3FA9F5;}
	.st2{fill:#3FA9F5;}
	.st3{fill:#FFFFFF;}
</style>
<g id="Layer_1">
	<circle class="st2" cx="8" cy="8" r="8"/>
	<g>
		<path class="st3" d="M5.3,3.2c0.2,0.1,0.3,0.3,0.4,0.5C6,4.2,6.2,4.7,6.5,5.2c0.1,0.1,0.1,0.2,0.1,0.2c0,0.1,0,0.2-0.1,0.3
			C6.4,5.9,6.2,6.1,6,6.3C5.8,6.4,5.7,6.6,5.5,6.7c-0.1,0.1-0.1,0.2,0,0.4c0.1,0.1,0.2,0.3,0.2,0.4c0.2,0.3,0.4,0.6,0.6,0.9
			c0.3,0.3,0.6,0.7,0.9,0.9C7.6,9.7,8,9.9,8.4,10.2c0.2,0.1,0.4,0.2,0.5,0.3c0.2,0.1,0.3,0,0.4-0.1c0.2-0.2,0.4-0.4,0.5-0.6
			c0.1-0.1,0.3-0.3,0.4-0.4c0.1-0.1,0.3-0.1,0.4,0c0.1,0.1,0.2,0.2,0.4,0.2c0.3,0.2,0.7,0.4,1,0.6c0.2,0.1,0.4,0.2,0.6,0.3
			c0.1,0.1,0.1,0.1,0.1,0.2c0,0.3-0.1,0.7-0.2,1c0,0.1-0.1,0.2-0.2,0.3c-0.5,0.4-1.1,0.7-1.7,0.8c-0.3,0-0.6,0-0.9-0.1
			c-0.6-0.2-1.2-0.4-1.7-0.6c-0.5-0.2-0.9-0.5-1.3-0.8C6.1,10.7,5.5,10.2,5,9.6C4.7,9.2,4.4,8.9,4.2,8.5C4,8.1,3.8,7.8,3.7,7.4
			C3.5,7.1,3.4,6.8,3.3,6.5C3.3,6.3,3.2,6,3.2,5.8c0,0,0,0,0,0c0-0.1,0-0.3,0-0.4c0,0,0,0,0-0.1c0-0.2,0.1-0.3,0.1-0.5
			C3.3,4.5,3.5,4.2,3.7,4c0.2-0.3,0.5-0.6,0.9-0.7c0.1,0,0.3-0.1,0.4-0.1C5.1,3.2,5.2,3.2,5.3,3.2z"/>
	</g>
</g>
</svg>
