<?xml version="1.0" encoding="utf-8"?>
<!-- Generator: Adobe Illustrator 20.0.0, SVG Export Plug-In . SVG Version: 6.00 Build 0)  -->
<svg version="1.1" id="Layer_1" xmlns="http://www.w3.org/2000/svg" xmlns:xlink="http://www.w3.org/1999/xlink" x="0px" y="0px"
	 viewBox="0 0 16 16" style="enable-background:new 0 0 16 16;" xml:space="preserve">
<style type="text/css">
	.st0{fill:#3FA9F5;}
	.st1{fill:#FFFFFF;}
	.st2{fill:#3E3E3E;}
	.st3{fill:none;stroke:#FFFFFF;stroke-miterlimit:10;}
	.st4{fill:#D3D1D1;}
	.st5{fill:#8C8C8C;}
</style>
<circle class="st0" cx="8" cy="8" r="8"/>
<g>
	<polygon class="st1" points="5,4 10,4 11,5 11,7 5,7 	"/>
</g>
<g>
	<rect x="5" y="7" class="st1" width="6" height="5"/>
</g>
<path class="st2" d="M13,6h-1l-1,1H5L4,6H3v5h2v-1h6v1h2V6z"/>
<polyline class="st3" points="10,5 10,6 11,6 "/>
<path class="st1" d="M10,4"/>
<polygon class="st4" points="10,4 10,5 11,5 "/>
<polygon class="st5" points="4,6 5,6 5,7 "/>
<polygon class="st5" points="11,7 11,6 12,6 "/>
</svg>
