<?xml version="1.0" encoding="utf-8"?>
<!-- Generator: Adobe Illustrator 20.0.0, SVG Export Plug-In . SVG Version: 6.00 Build 0)  -->
<svg version="1.1" id="Layer_1" xmlns="http://www.w3.org/2000/svg" xmlns:xlink="http://www.w3.org/1999/xlink" x="0px" y="0px"
	 viewBox="0 0 16 16" style="enable-background:new 0 0 16 16;" xml:space="preserve">
<style type="text/css">
	.st0{fill:#3FA9F5;}
	.st1{fill:#FFFFFF;}
</style>
<circle class="st0" cx="8" cy="8" r="8"/>
<path class="st1" d="M11.1,8.5c-0.2,0.2-0.4,0.4-0.7,0.4c-0.5,0-1-0.4-1-1s0.4-1,1-1c0.3,0,0.6,0.1,0.7,0.4H12l-0.1-2.2l-3.6,0
	l0.1-0.5c0.3-0.2,0.4-0.4,0.4-0.7C8.9,3.4,8.6,3,8,3C7.5,2.9,7.1,3.3,7.1,3.9c0,0.3,0.1,0.5,0.4,0.7v0.5H5.3v2.2H4.6
	C4.4,7.3,4.1,7.2,3.8,7.2c-0.5,0-1,0.4-1,1c0,0.5,0.4,1,1,1c0.4,0,0.7-0.2,0.8-0.4h0.6v3.2h3v-0.7c-0.2-0.1-0.4-0.1-0.4-0.7
	c0-0.6,0.4-0.9,0.9-0.9c0.5,0,1,0.4,1,1c0,0.3-0.1,0.6-0.4,0.7v0.6H12V8.5H11.1z"/>
</svg>
