<?xml version="1.0" encoding="utf-8"?>
<!-- Generator: Adobe Illustrator 20.0.0, SVG Export Plug-In . SVG Version: 6.00 Build 0)  -->
<svg version="1.1" id="Layer_1" xmlns="http://www.w3.org/2000/svg" xmlns:xlink="http://www.w3.org/1999/xlink" x="0px" y="0px"
	 viewBox="0 0 16 16" style="enable-background:new 0 0 16 16;" xml:space="preserve">
<style type="text/css">
	.st0{fill:#3FA9F5;}
	.st1{fill:#FFFFFF;}
</style>
<circle class="st0" cx="8" cy="8" r="8"/>
<g>
	<path class="st1" d="M3,5h4v3H5c0,0.4,0,0.5,0.1,0.8C5.4,9.4,6,9.9,6.8,10.1v1.3c-1.1-0.2-1.9-0.7-2.6-1.3C3.4,9.3,3,8,3,8V5z M9,5
		h4v3h-2.2c0,0.3,0,0.7,0.2,1c0.3,0.7,0.7,0.9,1.5,1.1v1.3c-1.1-0.2-2-0.6-2.6-1.3S9.1,8.9,9,8V5z"/>
</g>
</svg>
