<?xml version="1.0" encoding="utf-8"?>
<!-- Generator: Adobe Illustrator 20.0.0, SVG Export Plug-In . SVG Version: 6.00 Build 0)  -->
<svg version="1.1" xmlns="http://www.w3.org/2000/svg" xmlns:xlink="http://www.w3.org/1999/xlink" x="0px" y="0px"
	 viewBox="0 0 16 16" style="enable-background:new 0 0 16 16;" xml:space="preserve">
<style type="text/css">
	.st0{fill:#FF6F6F;}
	.st1{fill:#FFFFFF;}
</style>
<g id="Layer_1">
	<circle class="st0" cx="8" cy="8" r="8"/>
</g>
<g id="Layer_3">
	<circle class="st1" cx="5.2" cy="11.1" r="1.5"/>
	<path class="st1" d="M8.9,11.8L8,11.4c0.3-0.6,0.3-1.3,0-1.9C7.8,8.9,7.3,8.4,6.7,8.1c-0.6-0.2-1.2-0.3-1.8,0L4.6,7.1
		c0.8-0.3,1.7-0.3,2.5,0.1C8.8,7.9,9.7,10,8.9,11.8z"/>
	<path class="st1" d="M11.9,11l-1-0.3c0.3-1.1,0.2-2.3-0.3-3.3C10,6.4,9.1,5.6,8,5.3C6.9,5,5.8,5,4.8,5.5L4.4,4.6
		C5.6,4,7,3.9,8.2,4.3c1.4,0.4,2.5,1.3,3.2,2.6S12.3,9.6,11.9,11z"/>
</g>
</svg>
