<?xml version="1.0" encoding="utf-8"?>
<!-- Generator: Adobe Illustrator 19.2.1, SVG Export Plug-In . SVG Version: 6.00 Build 0)  -->
<svg version="1.1" id="Layer_1" xmlns="http://www.w3.org/2000/svg" xmlns:xlink="http://www.w3.org/1999/xlink" x="0px" y="0px"
	 viewBox="0 0 16 16" style="enable-background:new 0 0 16 16;" xml:space="preserve">
<style type="text/css">
	.st0{fill:#F7A808;}
</style>
<g>
	<path class="st0" d="M7.8,2.2c3.2,0,5.8,2.6,5.8,5.8s-2.6,5.8-5.8,5.8S2.1,11.1,2.1,8S4.7,2.2,7.8,2.2 M7.8,1.2
		c-3.7,0-6.8,3-6.8,6.8s3,6.8,6.8,6.8s6.8-3,6.8-6.8S11.6,1.2,7.8,1.2L7.8,1.2z"/>
</g>
<rect x="6.9" y="10.4" class="st0" width="2.1" height="1.9"/>
<polygon class="st0" points="8.6,9.8 7,9.8 6.7,6.5 6.7,3.5 8.9,3.5 8.9,6.5 "/>
</svg>
