<?xml version="1.0" encoding="utf-8"?>
<!-- Generator: Adobe Illustrator 20.0.0, SVG Export Plug-In . SVG Version: 6.00 Build 0)  -->
<svg version="1.1" id="de0ddb53-60c2-4d8b-891b-37aef254f79a"
	 xmlns="http://www.w3.org/2000/svg" xmlns:xlink="http://www.w3.org/1999/xlink" x="0px" y="0px" viewBox="0 0 16 16"
	 style="enable-background:new 0 0 16 16;" xml:space="preserve">
<style type="text/css">
	.st0{fill:#3FA9F5;}
	.st1{fill:none;}
	.st2{fill:#404040;}
	.st3{fill:#FFFFFF;}
</style>
<circle class="st0" cx="8" cy="8" r="8"/>
<title>world</title>
<rect class="st1" width="16" height="16"/>
<rect x="-10.5" y="-4" class="st2" width="0" height="0.1"/>
<g>
	<path class="st3" d="M10.7,1.1c-0.1,0-0.2,0.1-0.3,0.1c0,0.1-0.1,0.1-0.1,0.1c-0.2,0.2-0.4,0.5-0.1,0.9c0,0.1,0,0.2-0.1,0.2
		C10,2.5,9.6,2.7,9.4,2.7c-0.1,0-0.2,0-0.4,0C8.5,2.9,8.1,3.4,8.4,4c0,0.1,0.2,0.4,0.5,0.4L8,5.4C7.8,5.7,7.5,6.1,7.5,6.5
		C7.4,6.7,7.4,7,7.4,7.2c-0.1,0.2,0,0.4,0,0.6c0.2,0.6,0.7,1,1.2,1.2c0.2,0,0.5,0,0.6,0c0.2-0.1,0.5-0.1,0.6-0.2c0.1,0,0.1,0,0.1,0
		c0.2-0.1,0.4,0,0.4,0.1c0.4,0.6,0.6,1.1,0.7,1.7c0.1,0.2,0.1,0.4,0,0.6c-0.1,0.4-0.1,0.7,0,1c0.2,0.5,0.4,0.9,0.5,1.4v0.1
		c0,0.1,0.2,0.2,0.5,0.1c0.2,0,0.4-0.1,0.5-0.2c0.4-0.4,0.7-0.7,1-1.2c0.2-0.4,0.5-0.9,0.7-1.2c0.1-0.2,0.1-0.5,0.1-0.7
		c-0.1-0.2,0-0.5,0.1-0.7c0.2-0.4,0.4-0.6,0.6-0.9c0.2-0.2,0.2-0.6-0.1-1.1c-0.1-0.1-0.1-0.1-0.1-0.2L15,7.3
		c0.2-0.1,0.4-0.2,0.5-0.4C15.1,4.2,13.2,2,10.7,1.1z M9.7,4.4C10,4.1,10.1,4,10.3,3.8c0,0,0.1,0,0.2,0c0.4,0.1,0.6,0.4,0.9,0.5
		c0.1,0.1,0.1,0.1,0.1,0.2C11,4.1,10.3,4,9.7,4.4z M13.7,5c0,0.1-0.1,0.2-0.2,0.2c0,0-0.1,0-0.2,0c-0.4-0.1-0.6-0.1-0.9-0.1
		c-0.2,0.1-0.5-0.1-0.6-0.4l-0.1-0.1c0.1,0,0.4,0,0.5-0.2c0.1,0.1,0.2,0.1,0.4,0.1l0.7,0.1c0.1,0.1,0.1,0.1,0.2,0.1
		C13.5,4.8,13.7,4.9,13.7,5z"/>
	<path class="st3" d="M3.8,14.2c0-0.1,0-0.1,0-0.2c0.1-0.2,0.2-0.5,0.2-0.9c0.1-0.2,0.2-0.4,0.4-0.5c0.1,0,0.1,0,0.1,0
		c0.2-0.1,0.4-0.5,0.2-0.7c0-0.2,0.1-0.6,0.2-0.9c0.1-0.1,0.1-0.1,0.1-0.2c0.1-0.4,0-0.6-0.2-0.7C4.7,9.9,4.3,9.8,4.1,9.7L3.7,9.5
		c-0.1,0-0.2-0.1-0.2-0.2C3.4,9,3.2,8.9,3.1,8.8C2.6,8.6,2.2,8.3,1.9,7.9C1.8,7.7,1.4,7.6,1,7.7c-0.1,0.1-0.2,0-0.3-0.1
		c0,0.2,0,0.3,0,0.5c0,1.1,0.3,2.2,0.7,3.2c0,0,0,0,0,0c0.2,0.1,0.3,0.4,0.4,0.7C2.3,12.8,3,13.6,3.8,14.2z"/>
	<path class="st3" d="M5.2,1.2L5.2,1.2c0,0.1,0,0.1,0,0.2c-0.1,0.1,0,0.4,0.1,0.5c0.1,0,0.2,0,0.4,0c0.1-0.1,0.4-0.2,0.4-0.4
		c0.4-0.2,0.9-0.4,1.2-0.4c0.5,0,1-0.2,1.2-0.6c-0.1,0-0.3,0-0.4,0C7.1,0.6,6.1,0.8,5.2,1.2z"/>
	<path class="st3" d="M1.1,5.6c0.3-0.2,0.4-0.4,0.5-0.7c0.2-0.5,0.7-0.9,1.1-1C2.9,3.9,3,3.8,3,3.6c0.1-0.1,0.1-0.2,0.1-0.4
		c0-0.1,0.1-0.1,0.2,0c0.1,0.1,0.4,0.2,0.5,0.1c0.2-0.1,0.4-0.2,0.4-0.5S4.1,2.4,4.1,2.2C4,2,4.1,1.9,4.2,1.7C2.7,2.6,1.7,4,1.1,5.6
		z"/>
	<path class="st3" d="M4.4,1.6C4.4,1.6,4.4,1.6,4.4,1.6C4.4,1.6,4.4,1.6,4.4,1.6z"/>
</g>
</svg>
