<?xml version="1.0" encoding="utf-8"?>
<!-- Generator: Adobe Illustrator 20.0.0, SVG Export Plug-In . SVG Version: 6.00 Build 0)  -->
<svg version="1.1" id="Layer_1" xmlns="http://www.w3.org/2000/svg" xmlns:xlink="http://www.w3.org/1999/xlink" x="0px" y="0px"
	 viewBox="0 0 16 16" style="enable-background:new 0 0 16 16;" xml:space="preserve">
<style type="text/css">
	.st0{fill:#3FA9F5;}
</style>
<g>
	<path class="st0" d="M1.9,2.2h9.7l2.5,2.4v9.7H2L1.9,2.2 M1.1,1.3L1,15.2l14,0.1v-11l-3-3L1.1,1.3L1.1,1.3z"/>
</g>
<polygon class="st0" points="15,5.3 11,5.3 11,1.3 "/>
<g>
	<path class="st0" d="M6.9,6.9v0.9H5.1V6.9H6.9 M7.9,5.9H4v3h3.9V5.9L7.9,5.9z"/>
</g>
<g>
	<g>
		<path class="st0" d="M12,6.9v0.9h-1.8V6.9H12 M13.1,5.9h-4v3H13v-3H13.1z"/>
	</g>
</g>
<g>
	<rect x="7" y="6.9" class="st0" width="2.6" height="1"/>
</g>
<g>
	<path class="st0" d="M8.5,11.1L8.5,11.1L8.5,11.1L8.5,11.1 M11,10H6l2.5,2.9L11,10L11,10z"/>
</g>
</svg>
