<?xml version="1.0" encoding="utf-8"?>
<!-- Generator: Adobe Illustrator 20.0.0, SVG Export Plug-In . SVG Version: 6.00 Build 0)  -->
<svg version="1.1" xmlns="http://www.w3.org/2000/svg" xmlns:xlink="http://www.w3.org/1999/xlink" x="0px" y="0px"
	 viewBox="0 0 16 16" style="enable-background:new 0 0 16 16;" xml:space="preserve">
<style type="text/css">
	.st0{fill:#FF6F6F;}
	.st1{fill:#F9F9F9;}
</style>
<g id="Layer_2">
	<path class="st0" d="M12,1H1v14h14V4L12,1z M14,14H2V2h9v3h3V14z"/>
	<polygon class="st1" points="9.4,9.3 9.1,9.4 9.1,9.1 9.4,8.9 	"/>
	<path class="st0" d="M7.5,4.9L4,6.9v4l3.5,2l3.5-2v-4L7.5,4.9z M7.5,6.1l1.9,1.1L9,7.5L7.1,6.3L7.5,6.1z M9.4,9.3L9.1,9.4l0-0.4
		l0.3-0.2L9.4,9.3z M6.9,11.5L5,10.4V8.1l2,1.1L6.9,11.5z M5.5,7.2l0.9-0.5L8.2,8L7.5,8.5L5.5,7.2z M10,10.4l-2.1,1.2l0-2.2l1-0.6
		l0.1-0.1l0,0.4L8.8,9.2l0,0.6l0.3-0.2l0,0.4l0.3-0.2l0-1.3L10,8V10.4z"/>
	<g>
		<path class="st0" d="M9.5,9.6L8.9,10v1l0.7-0.4L9.5,9.6L9.5,9.6z M9,10.8l0-0.4l0.5-0.3l0,0.4L9,10.8L9,10.8z"/>
	</g>
</g>
<g id="Layer_3">
</g>
</svg>
