<?xml version="1.0" encoding="utf-8"?>
<!-- Generator: Adobe Illustrator 20.0.0, SVG Export Plug-In . SVG Version: 6.00 Build 0)  -->
<svg version="1.1" xmlns="http://www.w3.org/2000/svg" xmlns:xlink="http://www.w3.org/1999/xlink" x="0px" y="0px"
	 viewBox="0 0 16 16" style="enable-background:new 0 0 16 16;" xml:space="preserve">
<style type="text/css">
	.st0{fill:#F7A808;}
</style>
<g id="Layer_1">
	<path class="st0" d="M15,5V4l-3-3h-0.1H11H1v13.9h13.9L15,5L15,5L15,5z M14,14H2V2l9-0.1V5h3V14z"/>
</g>
<g id="Layer_2">
	<path class="st0" d="M11,6.9c0,0-0.1,3.3-0.1,4.8c0,0.7-0.8,1.2-0.9,1.2c-1.5,0-3.5,0-5,0c-0.2,0-1.5-0.6-1.9-0.9C3,12,4,12,4,12V5
		c0.1,0,4.4,0,6,0c0,0,2,2,2,2C12,7,11,6.9,11,6.9z M10,6C8.4,6,6.6,6,5,6v6h5C10,10.2,10,6,10,6z"/>
</g>
</svg>
