<?xml version="1.0" encoding="utf-8"?>
<!-- Generator: Adobe Illustrator 20.0.0, SVG Export Plug-In . SVG Version: 6.00 Build 0)  -->
<svg version="1.1" id="Layer_1" xmlns="http://www.w3.org/2000/svg" xmlns:xlink="http://www.w3.org/1999/xlink" x="0px" y="0px"
	 viewBox="0 0 16 16" style="enable-background:new 0 0 16 16;" xml:space="preserve">
<style type="text/css">
	.st0{fill:#3FA9F5;}
</style>
<path class="st0" d="M15,5l0-1l-3-3h-0.1H11H1v13.9h13.9L15,5L15,5L15,5z M14,14H2V2l9-0.1V5h3V14z"/>
<g>
	<path class="st0" d="M5.8,8.2C5.6,8.4,5.3,8.5,4.9,8.5H4.2v1.2H3.6V6.4H5c0.3,0,0.6,0.1,0.8,0.3C6,6.8,6,7,6,7.4
		C6,7.8,6,8.1,5.8,8.2z M5.2,7C5.1,7,5,6.9,4.9,6.9H4.2v1h0.6c0.2,0,0.3,0,0.4-0.1c0.1-0.1,0.1-0.2,0.1-0.4C5.4,7.2,5.3,7.1,5.2,7z"
		/>
	<path class="st0" d="M7.1,8.6c0,0.2,0.1,0.3,0.1,0.3c0.1,0.1,0.3,0.2,0.6,0.2c0.2,0,0.3,0,0.4-0.1c0.2-0.1,0.3-0.2,0.3-0.4
		c0-0.1,0-0.2-0.1-0.3C8.3,8.4,8.1,8.4,7.9,8.3L7.5,8.3C7.2,8.2,7,8.1,6.8,8C6.6,7.9,6.5,7.6,6.5,7.3c0-0.3,0.1-0.5,0.3-0.7
		s0.5-0.3,1-0.3c0.4,0,0.7,0.1,0.9,0.3C8.9,6.7,9,7,9.1,7.3H8.4c0-0.2-0.1-0.3-0.3-0.4C8,6.9,7.9,6.8,7.7,6.8c-0.2,0-0.3,0-0.4,0.1
		C7.2,7,7.1,7.1,7.1,7.2c0,0.1,0.1,0.2,0.2,0.3c0.1,0,0.2,0.1,0.4,0.1l0.6,0.1C8.6,7.8,8.7,7.9,8.9,8c0.2,0.2,0.3,0.4,0.3,0.7
		C9.2,9,9,9.2,8.8,9.4c-0.2,0.2-0.6,0.3-1,0.3c-0.4,0-0.8-0.1-1-0.3S6.4,9,6.4,8.6H7.1z"/>
	<path class="st0" d="M11.6,6.4c0.2,0.1,0.4,0.2,0.6,0.4c0.1,0.2,0.2,0.3,0.2,0.5c0,0.2,0.1,0.4,0.1,0.5c0,0.4-0.1,0.8-0.3,1.1
		c-0.2,0.4-0.6,0.6-1.1,0.6H9.6V6.4h1.4C11.3,6.4,11.4,6.4,11.6,6.4z M10.3,6.9v2.1H11c0.3,0,0.6-0.2,0.7-0.5
		c0.1-0.2,0.1-0.4,0.1-0.6c0-0.3-0.1-0.6-0.2-0.8S11.3,6.9,11,6.9H10.3z"/>
</g>
</svg>
