<?xml version="1.0" encoding="utf-8"?>
<!-- Generator: Adobe Illustrator 20.0.0, SVG Export Plug-In . SVG Version: 6.00 Build 0)  -->
<svg version="1.1" xmlns="http://www.w3.org/2000/svg" xmlns:xlink="http://www.w3.org/1999/xlink" x="0px" y="0px"
	 viewBox="0 0 16 16" style="enable-background:new 0 0 16 16;" xml:space="preserve">
<style type="text/css">
	.st0{display:none;}
	.st1{fill:#3FA9F5;}
</style>
<g id="Layer_1" class="st0">
	
		<image style="display:inline;overflow:visible;" width="16" height="16" xlink:href="file_extension_ifo.png"  transform="matrix(1 0 0 1 0 -0.5)">
	</image>
</g>
<g id="Layer_2">
	<g>
		<path class="st1" d="M11,1.5l3,3v9H2v-12H11z M1,0.5v14h14V4l-3-3.5H1z"/>
	</g>
	<polygon class="st1" points="15,5.5 11,5.5 11,1 	"/>
	<g>
		<path class="st1" d="M6,7.5v1H4v-1H6 M7,6.5H3v3h4V6.5L7,6.5z"/>
	</g>
	<g>
		<path class="st1" d="M11,7.5v1H9v-1H11 M12,6.5H8v3h4V6.5L12,6.5z"/>
	</g>
	<g>
		<polygon class="st1" points="9,9.5 6,9.5 6,10.5 9,10.5 9,9.5 		"/>
	</g>
	<g>
		<polygon class="st1" points="12,10.5 3,10.5 3,11.5 12,11.5 12,10.5 		"/>
	</g>
</g>
</svg>
