<?xml version="1.0" encoding="utf-8"?>
<!-- Generator: Adobe Illustrator 20.0.0, SVG Export Plug-In . SVG Version: 6.00 Build 0)  -->
<svg version="1.1" id="Layer_2" xmlns="http://www.w3.org/2000/svg" xmlns:xlink="http://www.w3.org/1999/xlink" x="0px" y="0px"
	 viewBox="0 0 16 16" style="enable-background:new 0 0 16 16;" xml:space="preserve">
<style type="text/css">
	.st0{fill:#3FA9F5;}
</style>
<g>
	<path class="st0" d="M11,1.5l3,3v10l-12.1,0l0-13H11z M1,0.5l0.1,14.9l13.9,0V4l-3-3.5L1,0.5z"/>
</g>
<polygon class="st0" points="14.9,4.5 11,4.5 11,0.6 "/>
<g>
	<path class="st0" d="M12.5,6.3c0,0.3,0,0.5,0,0.8c0,0-0.1,0.1-0.1,0.1c-0.4-0.1-0.6,0.2-0.7,0.5c-0.8,1.6-1.6,3.1-2.3,4.7
		c-0.1,0.1-0.1,0.2-0.3,0.2c-0.5,0-0.9,0-1.4,0c-0.1,0-0.1,0-0.2,0c0-0.8,0-1.7,0-2.5c0,0,0,0-0.1,0c0,0.1-0.1,0.1-0.1,0.2
		C6.9,11,6.5,11.7,6,12.4c-0.1,0.1-0.1,0.2-0.2,0.1c-0.5,0-1,0-1.5,0c-0.2,0-0.2,0-0.2-0.2c0-1.6,0-3.3,0-4.9c0-0.1,0-0.1,0-0.2
		c-0.2,0-0.4,0-0.6,0c0-0.3,0-0.6,0-0.9c0.8,0,1.7,0,2.5,0c0,0.3,0,0.6,0,0.9c-0.2,0-0.4,0-0.6,0c0,0.8,0,1.5,0,2.3c0,0,0,0,0,0
		c0.1-0.1,0.1-0.2,0.2-0.3c0.5-0.9,1-1.8,1.4-2.7c0.1-0.1,0.1-0.2,0.3-0.2c0.6,0,1.2,0,1.8,0c0,0,0.1,0,0.2,0c0,0.9,0,1.8,0,2.8
		c0,0,0,0,0.1,0c0.3-0.6,0.6-1.2,1-1.9c-0.2,0-0.3,0-0.4,0c0-0.3,0-0.6,0-0.9C10.7,6.3,11.6,6.3,12.5,6.3z"/>
</g>
</svg>
