<?xml version="1.0" encoding="utf-8"?>
<!-- Generator: Adobe Illustrator 20.0.0, SVG Export Plug-In . SVG Version: 6.00 Build 0)  -->
<svg version="1.1" id="green" xmlns="http://www.w3.org/2000/svg" xmlns:xlink="http://www.w3.org/1999/xlink" x="0px" y="0px"
	 viewBox="0 0 16 16" style="enable-background:new 0 0 16 16;" xml:space="preserve">
<style type="text/css">
	.st0{fill:#404040;}
	.st1{fill:#FF6F6F;}
	.st2{fill:#F7A808;}
	.st3{fill:#909090;}
</style>
<g>
	<path class="st0" d="M1.9,1.9h9.7l2.5,2.4V14H2L1.9,1.9 M1,14.9h13.9L15,4l-3-3H1V14.9z"/>
</g>
<path class="st1" d="M-0.8,4L-0.8,4L-0.8,4z"/>
<path class="st1" d="M10.7,7.8c0,0-0.9-1-0.9-2.2s0.9-2.2,0.9-2.2"/>
<g>
	<path class="st1" d="M6.1,3.2c0,0,1,0.9,2.2,0.9l0,0c1.2,0,2.2-0.9,2.2-0.9L6.1,3.2L6.1,3.2z"/>
</g>
<g>
	<path class="st1" d="M10.5,3.3c0,0-1.3,0.2-2.1,1.1c-0.7,1-0.9,2.2-0.9,2.2s1.3-0.2,2.1-1.1C10.5,4.5,10.5,3.3,10.5,3.3L10.5,3.3z"
		/>
</g>
<path class="st2" d="M10.8,5.3c-1.2-0.2-2-1.1-1.6-2.1h1.6V5.3z"/>
<path class="st1" d="M10.7,12.6c0,0-0.9-1-0.9-2.2s0.9-2.2,0.9-2.2"/>
<g>
	<path class="st1" d="M6.1,7.9c0,0,1,0.9,2.2,0.9l0,0c1.2,0,2.2-0.9,2.2-0.9H6.1L6.1,7.9z"/>
</g>
<g>
	<path class="st1" d="M10.5,8.1c0,0-1.3,0.2-2.1,1.1c-0.7,1-0.9,2.2-0.9,2.2s1.3-0.2,2.1-1.1C10.5,9.3,10.5,8.1,10.5,8.1L10.5,8.1z"
		/>
</g>
<path class="st2" d="M10.8,10C9.6,9.9,8.9,8.9,9.2,7.9h1.6V10z"/>
<g>
	<path class="st3" d="M11,3v2v7H5V3l0,0H4v10h0.9H11h1l0-11"/>
</g>
<polygon class="st0" points="15,5 11,5 11,1 "/>
<g>
	<polygon class="st3" points="11,7.1 4.5,7.1 4.5,7.9 11,7.9 	"/>
</g>
</svg>
