<?xml version="1.0" encoding="utf-8"?>
<!-- Generator: Adobe Illustrator 20.0.0, SVG Export Plug-In . SVG Version: 6.00 Build 0)  -->
<svg version="1.1" id="_x35_753feb3-ed8e-42b6-a282-ef3c28c87e7d"
	 xmlns="http://www.w3.org/2000/svg" xmlns:xlink="http://www.w3.org/1999/xlink" x="0px" y="0px" viewBox="0 0 16 16"
	 style="enable-background:new 0 0 16 16;" xml:space="preserve">
<style type="text/css">
	.st0{fill:#4FBC78;}
</style>
<g>
	<path class="st0" d="M1.9,1.9h9.7l2.5,2.4V14H2L1.9,1.9 M1,14.9h13.9L15,4l-3-3H1V14.9z"/>
</g>
<polygon class="st0" points="15,5 11,5 11,1 "/>
<rect x="5" y="9" class="st0" width="6" height="4"/>
<polygon class="st0" points="10,6 8,4 6,6 7,6 7,8 9,8 9,6 "/>
<rect x="3.7" y="8.5" transform="matrix(0.4163 0.9092 -0.9092 0.4163 11.2013 2.1205)" class="st0" width="0.5" height="2.6"/>
<rect x="11.8" y="8.5" transform="matrix(-0.4163 0.9092 -0.9092 -0.4163 25.9745 2.8934)" class="st0" width="0.5" height="2.6"/>
</svg>
