<?xml version="1.0" encoding="utf-8"?>
<!-- Generator: Adobe Illustrator 20.0.0, SVG Export Plug-In . SVG Version: 6.00 Build 0)  -->
<svg version="1.1" id="Layer_2" xmlns="http://www.w3.org/2000/svg" xmlns:xlink="http://www.w3.org/1999/xlink" x="0px" y="0px"
	 viewBox="0 0 16 16" style="enable-background:new 0 0 16 16;" xml:space="preserve">
<style type="text/css">
	.st0{fill:#4FBC78;}
</style>
<path class="st0" d="M12.1,1.6l2,3v9h-12v-12C2.1,1.6,12.1,1.6,12.1,1.6z M13.1,0.6c-7.1,0-11.4,0-12,0v14h14V4L13.1,0.6z"/>
<path class="st0" d="M15.1,4.6h-3v-4h1L15.1,4.6z"/>
<polygon class="st0" points="14.2,14 1.7,14 1.7,12.8 2.9,8.9 4,8.8 4,7.7 5.2,7.7 5.2,8.8 7.5,8.8 8.6,7.7 9.8,7.7 9.8,6.6 
	12.1,6.6 12.1,7.7 13.2,7.7 14.2,12.8 "/>
<polygon class="st0" points="4.1,4.6 4.1,3.6 5.1,3.6 5.1,2.6 7.1,2.6 7.1,3.6 8.1,3.6 8.1,4.6 "/>
</svg>
