<?xml version="1.0" encoding="utf-8"?>
<!-- Generator: Adobe Illustrator 20.0.0, SVG Export Plug-In . SVG Version: 6.00 Build 0)  -->
<svg version="1.1" id="Layer_2" xmlns="http://www.w3.org/2000/svg" xmlns:xlink="http://www.w3.org/1999/xlink" x="0px" y="0px"
	 viewBox="0 0 16 16" style="enable-background:new 0 0 16 16;" xml:space="preserve">
<style type="text/css">
	.st0{fill:#4FBC78;}
</style>
<path class="st0" d="M12,0.5H1v15h14V4L12,0.5z M14,14.5H2v-13h9v3h3V14.5z"/>
<g>
	<path class="st0" d="M8.9,5.6l0,2.8H4.1V5.6H8.9 M10,4.5H3v5h7L10,4.5L10,4.5z"/>
</g>
<g>
	<path class="st0" d="M9,8.7c1,0,1.8,0.8,1.8,1.8S10,12.3,9,12.3s-1.8-0.8-1.8-1.8S8,8.7,9,8.7 M9,7.5c-1.7,0-3,1.3-3,3s1.3,3,3,3
		s3-1.3,3-3S10.7,7.5,9,7.5L9,7.5z"/>
</g>
</svg>
