<?xml version="1.0" encoding="utf-8"?>
<!-- Generator: Adobe Illustrator 20.0.0, SVG Export Plug-In . SVG Version: 6.00 Build 0)  -->
<svg version="1.1" id="Layer_2" xmlns="http://www.w3.org/2000/svg" xmlns:xlink="http://www.w3.org/1999/xlink" x="0px" y="0px"
	 viewBox="0 0 16 16" style="enable-background:new 0 0 16 16;" xml:space="preserve">
<style type="text/css">
	.st0{fill:#F7A808;}
</style>
<g>
	<path class="st0" d="M11,1.5l3,3v9H2v-12H11z M1,0.5v14h14V4l-3-3.5H1z"/>
</g>
<polygon class="st0" points="15,5.5 11,5.5 11,1 "/>
<path class="st0" d="M8,5.7c-1.9,0-3.4,1.5-3.4,3.4s1.5,3.4,3.4,3.4s3.4-1.5,3.4-3.4S9.9,5.7,8,5.7z M8,10.4c-0.7,0-1.3-0.6-1.3-1.3
	S7.3,7.8,8,7.8s1.3,0.6,1.3,1.3S8.7,10.4,8,10.4z"/>
</svg>
