<?xml version="1.0" encoding="utf-8"?>
<!-- Generator: Adobe Illustrator 20.0.0, SVG Export Plug-In . SVG Version: 6.00 Build 0)  -->
<svg version="1.1" id="Layer_1" xmlns="http://www.w3.org/2000/svg" xmlns:xlink="http://www.w3.org/1999/xlink" x="0px" y="0px"
	 viewBox="0 0 16 16" style="enable-background:new 0 0 16 16;" xml:space="preserve">
<style type="text/css">
	.st0{fill:#F7A808;}
</style>
<path class="st0" d="M12,2l2,2.9v9.2H2V2H12L12,2z M12.9,1C5.8,1,1.6,1,1,1l0.1,13.9H15V4.2L12.9,1z"/>
<path class="st0" d="M14.9,5H12V1h0.9L14.9,5z"/>
<g>
	<polygon class="st0" points="8,2.3 2.2,8.8 10.7,10.2 	"/>
</g>
<g>
	<path class="st0" d="M9.5,6.8c1.4,0,2.5,1.1,2.6,2.4c0.1,1.4-1,2.7-2.4,2.8c-0.1,0-0.1,0-0.2,0C8.2,12,7,10.9,6.9,9.5
		c-0.1-1.4,1-2.7,2.4-2.8C9.4,6.8,9.5,6.8,9.5,6.8 M9.5,5.5c-0.1,0-0.2,0-0.2,0c-2.2,0.1-3.8,2-3.7,4.1c0.1,2.1,1.9,3.7,3.9,3.7
		c0.1,0,0.2,0,0.2,0c2.2-0.1,3.8-2,3.7-4.1C13.3,7.1,11.6,5.5,9.5,5.5L9.5,5.5z"/>
</g>
</svg>
