<?xml version="1.0" encoding="utf-8"?>
<!-- Generator: Adobe Illustrator 20.0.0, SVG Export Plug-In . SVG Version: 6.00 Build 0)  -->
<svg version="1.1" id="Layer_1" xmlns="http://www.w3.org/2000/svg" xmlns:xlink="http://www.w3.org/1999/xlink" x="0px" y="0px"
	 viewBox="0 0 16 16" style="enable-background:new 0 0 16 16;" xml:space="preserve">
<style type="text/css">
	.st0{fill:#FF6F6F;}
	.st1{fill:#FFFFFF;}
</style>
<g id="Layer_1_1_">
	<g>
		<path class="st0" d="M2,2l9.6-0.1L14,4v10H2 M1,14.9h13.9L15,4l-3-3H1V14.9z"/>
	</g>
	<path class="st0" d="M-0.8,4L-0.8,4L-0.8,4z"/>
	<polygon class="st0" points="15,5 11,5 11,1 11.9,1 	"/>
</g>
<path class="st0" d="M11,8V6H5v2H3v4h10V8H11z M11,10H5V9h6V10z"/>
<g>
	<rect x="5.5" y="9.5" class="st1" width="5" height="3"/>
	<path class="st0" d="M10,10v2H6v-2H10 M11,9H5v4h6V9L11,9z"/>
</g>
</svg>
