<?xml version="1.0" encoding="utf-8"?>
<!-- Generator: Adobe Illustrator 20.0.0, SVG Export Plug-In . SVG Version: 6.00 Build 0)  -->
<svg version="1.1" id="green" xmlns="http://www.w3.org/2000/svg" xmlns:xlink="http://www.w3.org/1999/xlink" x="0px" y="0px"
	 viewBox="0 0 16 16" style="enable-background:new 0 0 16 16;" xml:space="preserve">
<style type="text/css">
	.st0{fill:#404040;}
	.st1{fill:#FF6F6F;}
</style>
<g>
	<path class="st0" d="M2,2l9.6-0.1L14,4v10H2 M1,14.9h13.9L15,4l-3-3H1V14.9z"/>
</g>
<path class="st1" d="M-0.8,4L-0.8,4L-0.8,4z"/>
<polygon class="st0" points="15,5 11,5 11,1 11.9,1 "/>
<path class="st0" d="M5.7,9.3c-0.2,0.2-0.6,0.3-1,0.3H3.8V11H3V7h1.7c0.4,0,0.7,0.1,0.9,0.3C5.9,7.5,6,7.8,6,8.3
	C6,8.7,5.9,9.1,5.7,9.3z M5,7.8C4.9,7.8,4.8,7.7,4.6,7.7H3.8v1.2h0.8c0.2,0,0.3,0,0.4-0.1c0.1-0.1,0.2-0.2,0.2-0.5
	C5.2,8.1,5.1,7.9,5,7.8z"/>
<path class="st0" d="M8.5,7c0.5,0.1,0.9,0.9,1,1.1c0.1,0.2,0.1,0.5,0.1,0.7c0,0.5-0.1,1-0.3,1.3c-0.3,0.5-0.7,0.7-1.3,0.7H6.2v-4
	h1.7C8.2,6.9,8.4,7,8.5,7z M7,7.6v2.6h0.8c0.4,0,0.7-0.2,0.8-0.6c0.1-0.2,0.1-0.5,0.1-0.8c0-0.4-0.1-0.7-0.2-0.9
	C8.4,7.7,8.2,7.6,7.8,7.6H7z"/>
<path class="st0" d="M10,7h3v0.7h-2v0.9h1.8v0.7H11l0,1.7h-1V7z"/>
</svg>
