<?xml version="1.0" encoding="utf-8"?>
<!-- Generator: Adobe Illustrator 20.0.0, SVG Export Plug-In . SVG Version: 6.00 Build 0)  -->
<svg version="1.1" id="_x35_753feb3-ed8e-42b6-a282-ef3c28c87e7d"
	 xmlns="http://www.w3.org/2000/svg" xmlns:xlink="http://www.w3.org/1999/xlink" x="0px" y="0px" viewBox="0 0 16 16"
	 style="enable-background:new 0 0 16 16;" xml:space="preserve">
<style type="text/css">
	.st0{fill:#4FBC78;}
</style>
<g>
	<path class="st0" d="M1.9,1.9h9.7l2.5,2.4V14H2L1.9,1.9 M1,14.9h13.9L15,4l-3-3H1V14.9z"/>
</g>
<polygon class="st0" points="15,5 11,5 11,1 "/>
<path class="st0" d="M11,7h1l0,0c0,2,0,5,0,6c-2,0-6,0-9,0V7h1c0,0,0,5,0,5c2,0,5,0,7,0C11,9,11,8.4,11,7"/>
<path class="st0" d="M12,6"/>
<polygon class="st0" points="3,7 5,5 6,5 4,7 "/>
<polygon class="st0" points="6,7 8,5 9,5 7,7 "/>
<polygon class="st0" points="3,7 5,5 6,5 4,7 "/>
<polygon class="st0" points="9,7 11,5 12,5 10,7 "/>
<g>
	<path class="st0" d="M11,5v1H4V5H11 M12,4H3v3h9V4L12,4z"/>
</g>
</svg>
