<?xml version="1.0" encoding="utf-8"?>
<!-- Generator: Adobe Illustrator 20.0.0, SVG Export Plug-In . SVG Version: 6.00 Build 0)  -->
<svg version="1.1" id="_x35_753feb3-ed8e-42b6-a282-ef3c28c87e7d"
	 xmlns="http://www.w3.org/2000/svg" xmlns:xlink="http://www.w3.org/1999/xlink" x="0px" y="0px" viewBox="0 0 16 16"
	 style="enable-background:new 0 0 16 16;" xml:space="preserve">
<style type="text/css">
	.st0{fill:#404040;}
	.st1{fill:none;stroke:#404040;stroke-miterlimit:10;}
</style>
<g>
	<path class="st0" d="M2,2l9-0.1l3.1,2.4V14H2L1.9,1.9 M1.1,1L1,14.9L15,15V4l-3-3H1.1L1.1,1z"/>
</g>
<polygon class="st0" points="15,5 11,5 11,1 "/>
<rect x="6" y="3" class="st0" width="1" height="1.1"/>
<rect x="5" y="4" class="st0" width="0.9" height="1"/>
<rect x="6" y="5" class="st0" width="1" height="1"/>
<rect x="5" y="6" class="st0" width="1.2" height="1"/>
<rect x="6" y="7" class="st0" width="0.9" height="1"/>
<rect x="5" y="8" class="st0" width="0.9" height="1"/>
<rect x="6.1" y="9.1" class="st0" width="0.9" height="0.9"/>
<path class="st0" d="M5,10l0,3l3,0L8,10L5,10z M7,12.1l-1,0L6,11l1,0L7,12.1z"/>
<line class="st1" x1="9.5" y1="3.1" x2="9.6" y2="13"/>
<line class="st1" x1="3.5" y1="3.1" x2="3.6" y2="13"/>
</svg>
