<?xml version="1.0" encoding="utf-8"?>
<!-- Generator: Adobe Illustrator 20.0.0, SVG Export Plug-In . SVG Version: 6.00 Build 0)  -->
<svg version="1.1" id="Layer_2" xmlns="http://www.w3.org/2000/svg" xmlns:xlink="http://www.w3.org/1999/xlink" x="0px" y="0px"
	 viewBox="0 0 16 16" style="enable-background:new 0 0 16 16;" xml:space="preserve">
<style type="text/css">
	.st0{fill:#3FA9F5;}
</style>
<g id="Layer_1_1_">
	<path class="st0" d="M15,4.5v-1l-3-3h-0.1H11H1v14h14V4.5L15,4.5L15,4.5z M14,13.5H2v-12h9V4h3V13.5z"/>
</g>
<path class="st0" d="M10,5.5c-0.5-1.4-4-1-4-1H4v1h1v6H4v1h3v-1H6v-2c0,0,3.5,0.3,4-1.7C10.2,7.1,10.3,6.5,10,5.5z M6,8.5v-3
	c0,0,3-0.3,3.1,1.2C9.2,8.7,6,8.5,6,8.5z"/>
</svg>
