<?xml version="1.0" encoding="utf-8"?>
<!-- Generator: Adobe Illustrator 20.0.0, SVG Export Plug-In . SVG Version: 6.00 Build 0)  -->
<svg version="1.1" id="_x35_753feb3-ed8e-42b6-a282-ef3c28c87e7d"
	 xmlns="http://www.w3.org/2000/svg" xmlns:xlink="http://www.w3.org/1999/xlink" x="0px" y="0px" viewBox="0 0 16 16"
	 style="enable-background:new 0 0 16 16;" xml:space="preserve">
<style type="text/css">
	.st0{fill:#FF6F6F;}
</style>
<g>
	<path class="st0" d="M1.9,1.9h9.7l2.5,2.4V14H2L1.9,1.9 M1.1,1L1,14.9L15,15V4l-3-3H1.1L1.1,1z"/>
</g>
<polygon class="st0" points="15,5 11,5 11,1 "/>
<path class="st0" d="M7.8,10.6c0.1,0,0.8,0.3,1.6,0.1c1.4-0.2,2.6-1.4,2.6-2.9c-0.1-1.7-1.4-3-3.1-3S6,6.1,6,7.7
	c0,0.4,0.1,0.8,0.3,1.2L5.5,9.6l0.3,0.7l-0.9,0.1l0.1,0.9L4,11.3v1.9h1.6C5.8,13,7.8,10.6,7.8,10.6z M8.2,7.6c0-0.4,0.4-0.9,0.9-0.9
	c0.5,0,0.9,0.4,0.9,0.9S9.6,8.5,9.1,8.5C8.5,8.5,8.2,8,8.2,7.6z"/>
</svg>
