<?xml version="1.0" encoding="utf-8"?>
<!-- Generator: Adobe Illustrator 20.0.0, SVG Export Plug-In . SVG Version: 6.00 Build 0)  -->
<svg version="1.1" id="Layer_1" xmlns="http://www.w3.org/2000/svg" xmlns:xlink="http://www.w3.org/1999/xlink" x="0px" y="0px"
	 viewBox="0 0 16 16" style="enable-background:new 0 0 16 16;" xml:space="preserve">
<style type="text/css">
	.st0{fill:#3FA9F5;}
</style>
<path class="st0" d="M12,0.5H1v15h14V4L12,0.5z M14,14.5H2L1.9,1.9L2,1.5h9v3h3.1L14,14.5z"/>
<polygon class="st0" points="8,10.5 8,9.5 9,9.5 9,8.5 8,8.5 8,7.5 7,7.5 7,8.5 5,8.5 5,5.5 9,5.5 9,4.5 5,4.5 4,4.5 4,5.5 4,8.5 
	4,9.5 4,9.5 5,9.5 5,9.5 7,9.5 7,10.5 5,10.5 5,11.5 7,11.5 7,12.5 8,12.5 8,11.5 10,11.5 10,10.5 "/>
</svg>
