<?xml version="1.0" encoding="utf-8"?>
<!-- Generator: Adobe Illustrator 20.0.0, SVG Export Plug-In . SVG Version: 6.00 Build 0)  -->
<svg version="1.1" id="Layer_1" xmlns="http://www.w3.org/2000/svg" xmlns:xlink="http://www.w3.org/1999/xlink" x="0px" y="0px"
	 viewBox="0 0 16 16" style="enable-background:new 0 0 16 16;" xml:space="preserve">
<style type="text/css">
	.st0{fill:#FF6F6F;}
</style>
<path class="st0" d="M12,1H1v14h14V4L12,1z M14,14H2V2h9v3h3V14z"/>
<polygon class="st0" points="8,10 8,9 9,9 9,8 8,8 8,7 7,7 7,8 5,8 5,5 9,5 9,4 5,4 4,4 4,5 4,8 4,9 4,9 5,9 5,9 7,9 7,10 5,10 
	5,11 7,11 7,12 8,12 8,11 10,11 10,10 "/>
</svg>
