<?xml version="1.0" encoding="utf-8"?>
<!-- Generator: Adobe Illustrator 20.0.0, SVG Export Plug-In . SVG Version: 6.00 Build 0)  -->
<svg version="1.1" id="Layer_2" xmlns="http://www.w3.org/2000/svg" xmlns:xlink="http://www.w3.org/1999/xlink" x="0px" y="0px"
	 viewBox="0 0 16 16" style="enable-background:new 0 0 16 16;" xml:space="preserve">
<style type="text/css">
	.st0{fill:#3FA9F5;}
	.st1{fill:none;stroke:#3FA9F5;stroke-miterlimit:10;}
	.st2{fill:none;stroke:#AD9366;stroke-miterlimit:10;}
</style>
<path class="st0" d="M12,0.5H1v15h14V4L12,0.5z M14,14.5H2v-13h9v3h3V14.5z"/>
<path class="st1" d="M4.6,9.4c0,0-0.1-1.2,0.6-1.7c0.5-0.3,1-0.3,1.4,0.1c0.3,0.3,0.1,0.7,0.6,1c1.3,0.8,1.3-1.2,1.5-1.6
	c0.4-1,2-0.9,2,0.4"/>
<path class="st1" d="M4.7,12.5c0,0,0.1-0.8,0.7-1.3c0.7-0.6,1.4-0.6,2-0.2c1.4,1,2.4,0.9,3.1-1.4c0.3-1.2,1.9-0.7,2.5-0.7"/>
<path class="st2" d="M7.3,12"/>
</svg>
