<?xml version="1.0" encoding="utf-8"?>
<!-- Generator: Adobe Illustrator 20.0.0, SVG Export Plug-In . SVG Version: 6.00 Build 0)  -->
<svg version="1.1" id="Layer" xmlns="http://www.w3.org/2000/svg" xmlns:xlink="http://www.w3.org/1999/xlink" x="0px" y="0px"
	 viewBox="0 0 16 16" style="enable-background:new 0 0 16 16;" xml:space="preserve">
<style type="text/css">
	.st0{fill:#3FA9F5;}
</style>
<path class="st0" d="M12,0.5H1v15h14V4L12,0.5z M14,14.5H2v-13h9v3h3V14.5z"/>
<path class="st0" d="M3.1,10.3c0.6-0.4,1.3-0.5,2-0.5c0.8-0.1,1.6-0.1,2.5-0.2C7.3,8.8,7,8.1,6.8,7.3c0,0.6-0.3,1-0.8,1.2
	C5.6,8.8,5.1,8.9,4.6,9C4.1,9.1,3.7,9,3.1,9C3.3,8.5,3.4,8,3.5,7.5c0-0.1,0.1-0.1,0.2-0.1c0.3,0,0.5,0,0.8,0
	C4.4,7.7,4.3,8.1,4.2,8.5c0.4,0.1,0.9,0,1.2-0.3C5.6,8,5.7,7.7,5.7,7.5c0-0.2-0.4-0.4-0.6-0.4c-0.5-0.1-1,0-1.4,0
	c-0.1-0.5,0-0.6,0.4-0.6c1,0,1.9,0,2.9,0c0.3,0,0.5,0.1,0.5,0.4C7.7,7.3,7.8,7.7,8,8.2c0.4-0.5,0.7-0.9,1-1.4
	c0.2-0.2,0.3-0.3,0.6-0.3c0.7,0,1.3,0,2,0c0.6,0,1.1,0.3,1.4,0.9c0,0.1,0,0.3,0,0.4c-0.3,0.6-0.7,1-1.3,1.1C11,9,10.2,9,9.4,9.1
	c0.1-0.4,0.2-0.7,0.2-1c0.2-0.8,0.2-0.8,1-0.7c0,0,0.1,0,0.1,0c-0.1,0.4-0.2,0.7-0.2,1.1c0,0,0.1,0.1,0.1,0.1c0.3-0.1,0.7-0.2,1-0.3
	C11.9,8.1,12,7.9,12,7.5c-0.1-0.3-0.4-0.4-0.6-0.5c-0.4,0-0.8,0-1.2,0c-0.2,0-0.4,0.1-0.5,0.2C9,7.9,8.5,8.6,7.9,9.3
	C7.8,9.4,7.8,9.5,7.7,9.5C8.8,9.6,9.9,9.6,11,9.7c0.7,0.1,1.4,0.1,2,0.5c0,0.1,0,0.1,0,0.2c-0.3,0.1-0.6,0.3-0.9,0.3
	c-2,0.4-4,0.4-6,0.2c-1-0.1-2-0.1-2.9-0.6C3.1,10.4,3.1,10.3,3.1,10.3z M6.9,10.3c0.5,0.4,1.9,0.4,2.3,0C8.7,9.9,7.3,9.9,6.9,10.3z"
	/>
</svg>
