<?xml version="1.0" encoding="utf-8"?>
<!-- Generator: Adobe Illustrator 19.2.1, SVG Export Plug-In . SVG Version: 6.00 Build 0)  -->
<svg version="1.1" id="_x35_753feb3-ed8e-42b6-a282-ef3c28c87e7d"
	 xmlns="http://www.w3.org/2000/svg" xmlns:xlink="http://www.w3.org/1999/xlink" x="0px" y="0px" viewBox="0 0 16 16"
	 style="enable-background:new 0 0 16 16;" xml:space="preserve">
<style type="text/css">
	.st0{fill:#756493;}
</style>
<g>
	<path class="st0" d="M1.9,1.9h9.7l2.5,2.4V14H2L1.9,1.9 M1.1,1L1,14.9L15,15V4l-3-3H1.1L1.1,1z"/>
</g>
<polygon class="st0" points="15,5 11,5 11,1 "/>
<rect x="8" y="4" class="st0" width="1.9" height="0.9"/>
<rect x="6" y="5" class="st0" width="1.9" height="1"/>
<rect x="8" y="6" class="st0" width="2" height="0.9"/>
<rect x="6" y="7" class="st0" width="2" height="1"/>
<rect x="8" y="8.1" class="st0" width="2" height="0.8"/>
<rect x="6" y="9" class="st0" width="2" height="0.9"/>
<rect x="8" y="10" class="st0" width="2" height="1"/>
<path class="st0" d="M6,11v3h5v-3H6z M10,13H7v-1h3V13z"/>
</svg>
