<?xml version="1.0" encoding="utf-8"?>
<!-- Generator: Adobe Illustrator 20.0.0, SVG Export Plug-In . SVG Version: 6.00 Build 0)  -->
<svg version="1.1" id="green" xmlns="http://www.w3.org/2000/svg" xmlns:xlink="http://www.w3.org/1999/xlink" x="0px" y="0px"
	 viewBox="0 0 16 16" style="enable-background:new 0 0 16 16;" xml:space="preserve">
<style type="text/css">
	.st0{fill:#404040;}
	.st1{fill:#FF6F6F;}
</style>
<g>
	<path class="st0" d="M2,2l9.6-0.1L14,4v10H2L1.9,1.9 M1,14.9h13.9L15,4l-3-3H1V14.9z"/>
</g>
<path class="st1" d="M-0.8,4L-0.8,4L-0.8,4z"/>
<polygon class="st0" points="15,5 11,5 11,1 11.9,1 "/>
<g>
	<path class="st0" d="M7.7,4.7c2.4,0,4.4,2,4.4,4.4c0,2.4-2,4.4-4.4,4.4c-2.4,0-4.4-2-4.4-4.4C3.3,6.6,5.3,4.7,7.7,4.7z M7.7,7.7
		C7,7.7,6.4,8.3,6.4,9c0,0.7,0.6,1.3,1.3,1.3C8.4,10.3,9,9.7,9,9C9,8.3,8.4,7.7,7.7,7.7z M9,5.4C8.8,6,8.5,6.6,8.3,7.2
		C8.6,7.4,8.8,7.5,9,7.7c0.2,0.2,0.3,0.5,0.5,0.7c0.6-0.2,1.2-0.4,1.8-0.6C10.9,6.7,10.1,5.9,9,5.4z M4.2,10.7
		c0.4,0.8,1,1.4,1.8,1.8c0.3-0.6,0.6-1.2,0.9-1.8c-0.2-0.1-0.3-0.2-0.5-0.4C6.2,10.2,6.1,10,6,9.8C5.4,10.1,4.8,10.4,4.2,10.7z"/>
	<path class="st0" d="M7.9,9c0,0.1-0.1,0.2-0.2,0.2C7.6,9.2,7.5,9.1,7.5,9c0-0.1,0.1-0.2,0.2-0.2C7.8,8.8,7.9,8.9,7.9,9z"/>
</g>
</svg>
