<?xml version="1.0" encoding="utf-8"?>
<!-- Generator: Adobe Illustrator 19.2.1, SVG Export Plug-In . SVG Version: 6.00 Build 0)  -->
<svg version="1.1" id="_x35_753feb3-ed8e-42b6-a282-ef3c28c87e7d"
	 xmlns="http://www.w3.org/2000/svg" xmlns:xlink="http://www.w3.org/1999/xlink" x="0px" y="0px" viewBox="0 0 16 16"
	 style="enable-background:new 0 0 16 16;" xml:space="preserve">
<style type="text/css">
	.st0{fill:#F7A808;}
</style>
<g>
	<path class="st0" d="M1.9,1.9h9.7l2.5,2.4V14H2L1.9,1.9 M1.1,1L1,14.9L15,15V4l-3-3H1.1L1.1,1z"/>
</g>
<polygon class="st0" points="15,5 11,5 11,1 "/>
<g>
	<path class="st0" d="M7.5,6.2L9.6,12H8.3l-0.4-1.3H5.7L5.3,12H4l2.2-5.7H7.5z M7.6,9.8L6.8,7.7h0L6.1,9.8H7.6z"/>
	<path class="st0" d="M10,7.2V6.2h1.1v0.9H10z M11.2,7.8V12H10V7.8H11.2z"/>
</g>
</svg>
