<?xml version="1.0" encoding="utf-8"?>
<!-- Generator: Adobe Illustrator 20.1.0, SVG Export Plug-In . SVG Version: 6.00 Build 0)  -->
<svg version="1.1" id="Layer_2" xmlns="http://www.w3.org/2000/svg" xmlns:xlink="http://www.w3.org/1999/xlink" x="0px" y="0px"
	 viewBox="0 0 335 128" style="enable-background:new 0 0 335 128;" xml:space="preserve">
<style type="text/css">
	.st0{fill:url(#SVGID_1_);}
</style>
<g>
	
		<linearGradient id="SVGID_1_" gradientUnits="userSpaceOnUse" x1="413.0663" y1="107.5609" x2="269.7097" y2="108.8585" gradientTransform="matrix(0.9999 -1.440000e-02 -1.440000e-02 -0.9999 -76.2841 196.5184)">
		<stop  offset="1.036730e-02" style="stop-color:#F5F3F4"/>
		<stop  offset="6.393777e-02" style="stop-color:#EDD9B0"/>
		<stop  offset="0.1613" style="stop-color:#E0AA3A"/>
		<stop  offset="0.2044" style="stop-color:#DB980A"/>
		<stop  offset="0.2147" style="stop-color:#D28819"/>
		<stop  offset="0.2407" style="stop-color:#BF6738"/>
		<stop  offset="0.2686" style="stop-color:#AF4B53"/>
		<stop  offset="0.2987" style="stop-color:#A33667"/>
		<stop  offset="0.3318" style="stop-color:#9B2775"/>
		<stop  offset="0.3706" style="stop-color:#961E7D"/>
		<stop  offset="0.4284" style="stop-color:#941B80"/>
		<stop  offset="0.441" style="stop-color:#8D1D7D"/>
		<stop  offset="0.4902" style="stop-color:#772274"/>
		<stop  offset="0.5482" style="stop-color:#66256D"/>
		<stop  offset="0.6199" style="stop-color:#5B2869"/>
		<stop  offset="0.7205" style="stop-color:#542A66"/>
		<stop  offset="1" style="stop-color:#522A65"/>
	</linearGradient>
	<path class="st0" d="M207.4,89.8C207.4,89.8,207.4,89.8,207.4,89.8c0,0.1,0.1,0.1,0.1,0.1c0.1,0,0.1,0,0.1-0.1
		C207.5,89.8,207.5,89.8,207.4,89.8z M217.6,91.4c-1-0.2-1.7-0.2-1.6-0.1c0.1,0.2,0.8,0.5,1.8,0.7c1,0.2,1.7,0.2,1.7,0
		C219.4,91.8,218.5,91.5,217.6,91.4z M217.6,91.4c-1-0.2-1.7-0.2-1.6-0.1c0.1,0.2,0.8,0.5,1.8,0.7c1,0.2,1.7,0.2,1.7,0
		C219.4,91.8,218.5,91.5,217.6,91.4z M217.6,91.4c-1-0.2-1.7-0.2-1.6-0.1c0.1,0.2,0.8,0.5,1.8,0.7c1,0.2,1.7,0.2,1.7,0
		C219.4,91.8,218.5,91.5,217.6,91.4z M217.3,89.4c-1-0.1-1.7-0.2-1.6,0c0,0.2,0.8,0.4,1.7,0.6c1,0.2,1.7,0.1,1.7-0.1
		C219,89.7,218.2,89.5,217.3,89.4z M217.4,90.4c-1-0.2-1.7-0.2-1.6-0.1c0,0.2,0.8,0.5,1.7,0.6c1,0.2,1.7,0.1,1.7-0.1
		C219.2,90.8,218.3,90.5,217.4,90.4z M217.9,92.5c-1-0.2-1.7-0.3-1.6-0.1c0.1,0.2,0.9,0.5,1.8,0.7s1.7,0.2,1.7,0
		C219.8,93,218.9,92.7,217.9,92.5z M218.2,93.6c-1-0.2-1.7-0.3-1.7-0.1c0.1,0.2,0.9,0.5,1.9,0.8c1,0.3,1.7,0.2,1.7,0.1
		C220.1,94.1,219.3,93.8,218.2,93.6z M217.6,91.4c-1-0.2-1.7-0.2-1.6-0.1c0.1,0.2,0.8,0.5,1.8,0.7c1,0.2,1.7,0.2,1.7,0
		C219.4,91.8,218.5,91.5,217.6,91.4z M217.6,91.4c-1-0.2-1.7-0.2-1.6-0.1c0.1,0.2,0.8,0.5,1.8,0.7c1,0.2,1.7,0.2,1.7,0
		C219.4,91.8,218.5,91.5,217.6,91.4z M217.6,91.4c-1-0.2-1.7-0.2-1.6-0.1c0.1,0.2,0.8,0.5,1.8,0.7c1,0.2,1.7,0.2,1.7,0
		C219.4,91.8,218.5,91.5,217.6,91.4z M217.3,89.4c-1-0.1-1.7-0.2-1.6,0c0,0.2,0.8,0.4,1.7,0.6c1,0.2,1.7,0.1,1.7-0.1
		C219,89.7,218.2,89.5,217.3,89.4z M217.4,90.4c-1-0.2-1.7-0.2-1.6-0.1c0,0.2,0.8,0.5,1.7,0.6c1,0.2,1.7,0.1,1.7-0.1
		C219.2,90.8,218.3,90.5,217.4,90.4z M217.9,92.5c-1-0.2-1.7-0.3-1.6-0.1c0.1,0.2,0.9,0.5,1.8,0.7s1.7,0.2,1.7,0
		C219.8,93,218.9,92.7,217.9,92.5z M218.2,93.6c-1-0.2-1.7-0.3-1.7-0.1c0.1,0.2,0.9,0.5,1.9,0.8c1,0.3,1.7,0.2,1.7,0.1
		C220.1,94.1,219.3,93.8,218.2,93.6z M217.6,91.4c-1-0.2-1.7-0.2-1.6-0.1c0.1,0.2,0.8,0.5,1.8,0.7c1,0.2,1.7,0.2,1.7,0
		C219.4,91.8,218.5,91.5,217.6,91.4z M217.6,91.4c-1-0.2-1.7-0.2-1.6-0.1c0.1,0.2,0.8,0.5,1.8,0.7c1,0.2,1.7,0.2,1.7,0
		C219.4,91.8,218.5,91.5,217.6,91.4z M217.6,91.4c-1-0.2-1.7-0.2-1.6-0.1c0.1,0.2,0.8,0.5,1.8,0.7c1,0.2,1.7,0.2,1.7,0
		C219.4,91.8,218.5,91.5,217.6,91.4z M217.3,89.4c-1-0.1-1.7-0.2-1.6,0c0,0.2,0.8,0.4,1.7,0.6c1,0.2,1.7,0.1,1.7-0.1
		C219,89.7,218.2,89.5,217.3,89.4z M217.4,90.4c-1-0.2-1.7-0.2-1.6-0.1c0,0.2,0.8,0.5,1.7,0.6c1,0.2,1.7,0.1,1.7-0.1
		C219.2,90.8,218.3,90.5,217.4,90.4z M217.9,92.5c-1-0.2-1.7-0.3-1.6-0.1c0.1,0.2,0.9,0.5,1.8,0.7s1.7,0.2,1.7,0
		C219.8,93,218.9,92.7,217.9,92.5z M218.2,93.6c-1-0.2-1.7-0.3-1.7-0.1c0.1,0.2,0.9,0.5,1.9,0.8c1,0.3,1.7,0.2,1.7,0.1
		C220.1,94.1,219.3,93.8,218.2,93.6z M212.6,90c-0.8-0.3-1.4-0.5-1.4-0.4c0.1,0.2,0.7,0.6,1.5,0.9c0.9,0.3,1.5,0.4,1.5,0.3
		C214.2,90.7,213.5,90.3,212.6,90z M212.9,91c-0.9-0.4-1.5-0.6-1.5-0.4c0.1,0.2,0.7,0.6,1.6,1c0.9,0.4,1.6,0.5,1.5,0.3
		C214.5,91.7,213.8,91.4,212.9,91z M213.1,92c-0.9-0.4-1.5-0.6-1.5-0.4c0.1,0.2,0.8,0.6,1.6,1c0.9,0.4,1.6,0.5,1.6,0.3
		C214.8,92.7,214,92.4,213.1,92z M222.7,88.7c-1,0.1-1.8,0.2-1.8,0.3s0.8,0.3,1.8,0.3s1.8-0.2,1.8-0.4
		C224.6,88.8,223.7,88.7,222.7,88.7z M223.1,92c-1-0.1-1.8,0-1.8,0.2c0.1,0.2,0.9,0.4,1.9,0.5c1,0.1,1.8-0.1,1.8-0.3
		C225,92.2,224.1,92,223.1,92z M223.1,92c-1-0.1-1.8,0-1.8,0.2c0.1,0.2,0.9,0.4,1.9,0.5c1,0.1,1.8-0.1,1.8-0.3
		C225,92.2,224.1,92,223.1,92z M223.1,92c-1-0.1-1.8,0-1.8,0.2c0.1,0.2,0.9,0.4,1.9,0.5c1,0.1,1.8-0.1,1.8-0.3
		C225,92.2,224.1,92,223.1,92z M222.8,89.7c-1,0-1.8,0.1-1.8,0.3c0,0.2,0.9,0.4,1.9,0.4c1,0,1.8-0.2,1.8-0.4
		C224.6,89.8,223.8,89.7,222.8,89.7z M222.9,90.9c-1,0-1.8,0.1-1.8,0.3c0.1,0.2,0.9,0.4,1.9,0.4c1,0.1,1.8-0.1,1.8-0.3
		C224.8,91,223.9,90.9,222.9,90.9z M223.5,93.3c-1-0.1-1.8,0-1.7,0.2c0.1,0.2,0.9,0.5,1.9,0.5c1,0.1,1.8-0.1,1.7-0.2
		C225.4,93.5,224.5,93.3,223.5,93.3z M223.9,94.5c-1-0.1-1.8-0.1-1.7,0.2c0.1,0.2,1,0.5,2,0.6c1,0.1,1.8,0,1.7-0.2
		C225.8,94.8,224.9,94.6,223.9,94.5z M228.6,88.3c-1.1,0.2-1.9,0.4-1.9,0.6c0,0.2,0.9,0.3,1.9,0.2c1.1-0.1,2-0.4,1.9-0.6
		C230.6,88.2,229.7,88.2,228.6,88.3z M228.9,92c-1.1,0.1-1.9,0.2-1.8,0.4c0.1,0.2,0.9,0.4,2,0.4c1.1-0.1,1.9-0.3,1.8-0.5
		C230.9,92,230,91.9,228.9,92z M228.9,92c-1.1,0.1-1.9,0.2-1.8,0.4c0.1,0.2,0.9,0.4,2,0.4c1.1-0.1,1.9-0.3,1.8-0.5
		C230.9,92,230,91.9,228.9,92z M228.9,92c-1.1,0.1-1.9,0.2-1.8,0.4c0.1,0.2,0.9,0.4,2,0.4c1.1-0.1,1.9-0.3,1.8-0.5
		C230.9,92,230,91.9,228.9,92z M228.6,89.5c-1.1,0.1-1.9,0.3-1.9,0.5c0,0.2,0.9,0.3,1.9,0.2c1.1-0.1,1.9-0.4,1.9-0.6
		C230.6,89.4,229.7,89.4,228.6,89.5z M228.7,90.7c-1.1,0.1-1.9,0.3-1.9,0.5c0.1,0.2,0.9,0.4,2,0.3c1.1-0.1,1.9-0.3,1.9-0.5
		C230.7,90.7,229.8,90.6,228.7,90.7z M229.3,93.4c-1.1,0.1-1.9,0.2-1.8,0.4c0.1,0.2,1,0.4,2,0.4c1.1,0,1.9-0.2,1.8-0.5
		C231.3,93.5,230.4,93.4,229.3,93.4z M229.7,94.8c-1.1,0-1.8,0.2-1.8,0.4c0.1,0.2,1,0.4,2,0.5s1.8-0.2,1.8-0.4
		C231.7,94.9,230.8,94.8,229.7,94.8z M235.1,87.3c-1.1,0.2-2,0.6-2,0.8s0.9,0.3,2,0.1c1.1-0.2,2-0.6,2-0.8
		C237.2,87.1,236.3,87.1,235.1,87.3z M235.1,88.6c-1.1,0.2-2,0.5-2,0.7s0.9,0.3,2,0.1c1.1-0.2,2-0.5,2-0.8
		C237.2,88.5,236.3,88.4,235.1,88.6z M235.2,90c-1.1,0.2-2,0.5-1.9,0.7c0.1,0.2,0.9,0.3,2,0.2c1.1-0.2,2-0.5,1.9-0.7
		C237.2,89.9,236.3,89.9,235.2,90z M236,94.6c-1.1,0.1-1.9,0.3-1.8,0.6c0.1,0.3,1,0.4,2,0.4s1.9-0.3,1.8-0.6
		C238,94.7,237.1,94.5,236,94.6z M248.1,84.3c-1.2,0.3-2.2,0.8-2.2,1.1c-0.1,0.3,0.9,0.3,2-0.1c1.2-0.3,2.2-0.8,2.2-1.1
		C250.2,83.8,249.3,83.9,248.1,84.3z M247.8,89.4c-1.1,0.3-2,0.7-2,0.9c0,0.3,0.9,0.4,2,0.2c1.1-0.2,2-0.7,2-1
		C249.9,89.2,249,89.2,247.8,89.4z M247.8,89.4c-1.1,0.3-2,0.7-2,0.9c0,0.3,0.9,0.4,2,0.2c1.1-0.2,2-0.7,2-1
		C249.9,89.2,249,89.2,247.8,89.4z M247.8,89.4c-1.1,0.3-2,0.7-2,0.9c0,0.3,0.9,0.4,2,0.2c1.1-0.2,2-0.7,2-1
		C249.9,89.2,249,89.2,247.8,89.4z M247.9,85.9c-1.2,0.3-2.1,0.8-2.1,1c0,0.3,0.9,0.3,2,0c1.2-0.3,2.1-0.8,2.2-1.1
		C250,85.6,249.1,85.6,247.9,85.9z M247.9,87.6c-1.1,0.3-2.1,0.7-2.1,1s0.9,0.3,2.1,0.1c1.1-0.3,2-0.7,2.1-1
		C249.9,87.4,249,87.4,247.9,87.6z M248.1,84.3c-1.2,0.3-2.2,0.8-2.2,1.1c-0.1,0.3,0.9,0.3,2-0.1c1.2-0.3,2.2-0.8,2.2-1.1
		C250.2,83.8,249.3,83.9,248.1,84.3z M247.9,85.9c-1.2,0.3-2.1,0.8-2.1,1c0,0.3,0.9,0.3,2,0c1.2-0.3,2.1-0.8,2.2-1.1
		C250,85.6,249.1,85.6,247.9,85.9z M247.9,87.6c-1.1,0.3-2.1,0.7-2.1,1s0.9,0.3,2.1,0.1c1.1-0.3,2-0.7,2.1-1
		C249.9,87.4,249,87.4,247.9,87.6z M248.1,84.3c-1.2,0.3-2.2,0.8-2.2,1.1c-0.1,0.3,0.9,0.3,2-0.1c1.2-0.3,2.2-0.8,2.2-1.1
		C250.2,83.8,249.3,83.9,248.1,84.3z M247.9,85.9c-1.2,0.3-2.1,0.8-2.1,1c0,0.3,0.9,0.3,2,0c1.2-0.3,2.1-0.8,2.2-1.1
		C250,85.6,249.1,85.6,247.9,85.9z M247.9,87.6c-1.1,0.3-2.1,0.7-2.1,1s0.9,0.3,2.1,0.1c1.1-0.3,2-0.7,2.1-1
		C249.9,87.4,249,87.4,247.9,87.6z M241.8,85.8c-1.2,0.3-2.1,0.7-2.2,0.9c0,0.3,0.9,0.3,2,0c1.2-0.3,2.1-0.7,2.2-1
		C243.8,85.5,242.9,85.5,241.8,85.8z M241.7,87.3c-1.1,0.3-2.1,0.7-2.1,0.9c0,0.3,0.9,0.3,2,0.1c1.1-0.3,2-0.7,2.1-0.9
		C243.7,87.1,242.8,87.1,241.7,87.3z M241.6,88.9c-1.1,0.2-2,0.6-2,0.9c0,0.3,0.9,0.3,2,0.1c1.1-0.2,2-0.6,2-0.9
		C243.7,88.7,242.8,88.7,241.6,88.9z M248.1,93.2c-1.1,0.2-1.9,0.6-1.9,0.8c0.1,0.3,1,0.4,2,0.3s1.9-0.6,1.9-0.9
		C250.2,93.1,249.3,93,248.1,93.2z M242.3,94c-1.1,0.2-1.9,0.5-1.9,0.7c0.1,0.3,1,0.4,2,0.3c1.1-0.1,1.9-0.5,1.9-0.8
		C244.3,93.9,243.3,93.8,242.3,94z M254.7,82.3c-1.2,0.4-2.2,0.9-2.2,1.2c-0.1,0.3,0.9,0.3,2-0.1c1.2-0.4,2.1-0.9,2.2-1.2
		C256.7,81.9,255.8,82,254.7,82.3z M254.2,88c-1.1,0.3-2,0.7-2,1c0,0.3,0.9,0.4,2,0.2c1.1-0.3,2-0.7,2-1.1
		C256.3,87.8,255.4,87.7,254.2,88z M254.2,88c-1.1,0.3-2,0.7-2,1c0,0.3,0.9,0.4,2,0.2c1.1-0.3,2-0.7,2-1.1
		C256.3,87.8,255.4,87.7,254.2,88z M254.2,88c-1.1,0.3-2,0.7-2,1c0,0.3,0.9,0.4,2,0.2c1.1-0.3,2-0.7,2-1.1
		C256.3,87.8,255.4,87.7,254.2,88z M254.4,84.1c-1.2,0.4-2.1,0.8-2.2,1.1c0,0.3,0.9,0.3,2,0c1.2-0.3,2.1-0.8,2.2-1.2
		C256.5,83.8,255.6,83.8,254.4,84.1z M254.3,86.1c-1.1,0.3-2.1,0.8-2.1,1.1s0.9,0.4,2,0.1c1.1-0.3,2.1-0.8,2.1-1.1
		C256.3,85.7,255.4,85.7,254.3,86.1z M254.3,90.1c-1.1,0.3-2,0.7-2,1c0,0.3,0.9,0.4,2,0.2c1.1-0.2,2-0.7,2-1
		C256.4,90,255.5,89.9,254.3,90.1z M254.4,92.1c-1.1,0.2-2,0.6-2,0.9c0.1,0.3,1,0.5,2,0.3c1.1-0.2,2-0.6,1.9-1
		C256.5,92.1,255.6,91.9,254.4,92.1z M261.7,80.1c-1.1,0.4-2,0.9-2.1,1.3c-0.1,0.3,0.9,0.3,2,0c1.1-0.4,2-0.9,2-1.3
		C263.7,79.7,262.8,79.7,261.7,80.1z M261.3,86.3c-1.1,0.3-2,0.8-2,1.1c0,0.4,0.9,0.4,2,0.2s2-0.8,2-1.1
		C263.4,86.1,262.4,86.1,261.3,86.3z M261.3,86.3c-1.1,0.3-2,0.8-2,1.1c0,0.4,0.9,0.4,2,0.2s2-0.8,2-1.1
		C263.4,86.1,262.4,86.1,261.3,86.3z M261.3,86.3c-1.1,0.3-2,0.8-2,1.1c0,0.4,0.9,0.4,2,0.2s2-0.8,2-1.1
		C263.4,86.1,262.4,86.1,261.3,86.3z M261.5,82.1c-1.1,0.4-2,0.9-2.1,1.2c-0.1,0.4,0.9,0.4,2,0.1s2-0.9,2-1.2
		C263.5,81.7,262.6,81.7,261.5,82.1z M261.4,84.2c-1.1,0.3-2,0.8-2,1.2c0,0.4,0.9,0.4,2,0.1c1.1-0.3,2-0.8,2-1.2
		C263.4,83.9,262.5,83.8,261.4,84.2z M261.4,88.7c-1.1,0.3-2,0.7-2,1.1c0,0.4,0.9,0.5,2,0.3s2-0.7,2-1.1S262.5,88.5,261.4,88.7z
		 M268.2,77.9c-1,0.4-1.9,0.9-1.9,1.3c0,0.4,0.8,0.4,1.9,0.1c1-0.3,1.8-0.9,1.8-1.3C270,77.6,269.3,77.5,268.2,77.9z M268.2,84.7
		c-1.1,0.3-2,0.8-2,1.2c0,0.4,0.9,0.5,2,0.2c1.1-0.3,2-0.8,2-1.2C270.2,84.5,269.3,84.4,268.2,84.7z M268.2,84.7
		c-1.1,0.3-2,0.8-2,1.2c0,0.4,0.9,0.5,2,0.2c1.1-0.3,2-0.8,2-1.2C270.2,84.5,269.3,84.4,268.2,84.7z M268.2,84.7
		c-1.1,0.3-2,0.8-2,1.2c0,0.4,0.9,0.5,2,0.2c1.1-0.3,2-0.8,2-1.2C270.2,84.5,269.3,84.4,268.2,84.7z M268.2,80.1
		c-1.1,0.3-1.9,0.9-1.9,1.2c0,0.4,0.9,0.4,1.9,0.1c1.1-0.3,1.9-0.9,1.9-1.2C270.1,79.7,269.2,79.7,268.2,80.1z M268.2,82.3
		c-1.1,0.3-2,0.9-2,1.2c0,0.4,0.9,0.4,2,0.2c1.1-0.3,1.9-0.8,1.9-1.2C270.1,82.1,269.3,82,268.2,82.3z M268.3,87.2
		c-1.1,0.3-2,0.7-2,1.1c0,0.4,0.9,0.5,2,0.3c1.1-0.2,2-0.7,2-1.1S269.5,87,268.3,87.2z M268.3,89.6c-1.1,0.2-2,0.7-2,1.1
		s0.9,0.6,2,0.4c1.1-0.2,2-0.7,2-1.1C270.4,89.6,269.5,89.4,268.3,89.6z M278.5,74.5c-0.8,0.3-1.4,0.8-1.3,1.2
		c0.1,0.4,0.9,0.5,1.7,0.3c0.9-0.3,1.4-0.8,1.3-1.2C280,74.4,279.3,74.2,278.5,74.5z M280.2,82.1c-1,0.2-1.8,0.7-1.8,1.2
		c0.1,0.4,1,0.6,2,0.4c1.1-0.2,1.8-0.7,1.8-1.1C282.1,82.1,281.2,81.9,280.2,82.1z M280.2,82.1c-1,0.2-1.8,0.7-1.8,1.2
		c0.1,0.4,1,0.6,2,0.4c1.1-0.2,1.8-0.7,1.8-1.1C282.1,82.1,281.2,81.9,280.2,82.1z M280.2,82.1c-1,0.2-1.8,0.7-1.8,1.2
		c0.1,0.4,1,0.6,2,0.4c1.1-0.2,1.8-0.7,1.8-1.1C282.1,82.1,281.2,81.9,280.2,82.1z M279.1,76.9c-0.9,0.3-1.6,0.8-1.5,1.2
		c0.1,0.4,0.9,0.6,1.8,0.3c0.9-0.3,1.6-0.8,1.4-1.2C280.8,76.8,280,76.6,279.1,76.9z M280.6,85c-1.1,0.2-1.9,0.7-1.9,1.1
		c0,0.5,0.9,0.7,2,0.5c1.1-0.2,1.9-0.7,1.9-1.1C282.6,85,281.7,84.8,280.6,85z M280.8,87.7c-1.1,0.2-2,0.7-2,1.1
		c0,0.5,0.9,0.7,2,0.6c1.1-0.2,2-0.6,2-1.1S282,87.5,280.8,87.7z M278.5,74.5c-0.8,0.3-1.4,0.8-1.3,1.2c0.1,0.4,0.9,0.5,1.7,0.3
		c0.9-0.3,1.4-0.8,1.3-1.2C280,74.4,279.3,74.2,278.5,74.5z M280.2,82.1c-1,0.2-1.8,0.7-1.8,1.2c0.1,0.4,1,0.6,2,0.4
		c1.1-0.2,1.8-0.7,1.8-1.1C282.1,82.1,281.2,81.9,280.2,82.1z M280.2,82.1c-1,0.2-1.8,0.7-1.8,1.2c0.1,0.4,1,0.6,2,0.4
		c1.1-0.2,1.8-0.7,1.8-1.1C282.1,82.1,281.2,81.9,280.2,82.1z M280.2,82.1c-1,0.2-1.8,0.7-1.8,1.2c0.1,0.4,1,0.6,2,0.4
		c1.1-0.2,1.8-0.7,1.8-1.1C282.1,82.1,281.2,81.9,280.2,82.1z M279.1,76.9c-0.9,0.3-1.6,0.8-1.5,1.2c0.1,0.4,0.9,0.6,1.8,0.3
		c0.9-0.3,1.6-0.8,1.4-1.2C280.8,76.8,280,76.6,279.1,76.9z M280.6,85c-1.1,0.2-1.9,0.7-1.9,1.1c0,0.5,0.9,0.7,2,0.5
		c1.1-0.2,1.9-0.7,1.9-1.1C282.6,85,281.7,84.8,280.6,85z M280.8,87.7c-1.1,0.2-2,0.7-2,1.1c0,0.5,0.9,0.7,2,0.6
		c1.1-0.2,2-0.6,2-1.1S282,87.5,280.8,87.7z M278.5,74.5c-0.8,0.3-1.4,0.8-1.3,1.2c0.1,0.4,0.9,0.5,1.7,0.3c0.9-0.3,1.4-0.8,1.3-1.2
		C280,74.4,279.3,74.2,278.5,74.5z M280.2,82.1c-1,0.2-1.8,0.7-1.8,1.2c0.1,0.4,1,0.6,2,0.4c1.1-0.2,1.8-0.7,1.8-1.1
		C282.1,82.1,281.2,81.9,280.2,82.1z M280.2,82.1c-1,0.2-1.8,0.7-1.8,1.2c0.1,0.4,1,0.6,2,0.4c1.1-0.2,1.8-0.7,1.8-1.1
		C282.1,82.1,281.2,81.9,280.2,82.1z M280.2,82.1c-1,0.2-1.8,0.7-1.8,1.2c0.1,0.4,1,0.6,2,0.4c1.1-0.2,1.8-0.7,1.8-1.1
		C282.1,82.1,281.2,81.9,280.2,82.1z M279.1,76.9c-0.9,0.3-1.6,0.8-1.5,1.2c0.1,0.4,0.9,0.6,1.8,0.3c0.9-0.3,1.6-0.8,1.4-1.2
		C280.8,76.8,280,76.6,279.1,76.9z M280.6,85c-1.1,0.2-1.9,0.7-1.9,1.1c0,0.5,0.9,0.7,2,0.5c1.1-0.2,1.9-0.7,1.9-1.1
		C282.6,85,281.7,84.8,280.6,85z M280.8,87.7c-1.1,0.2-2,0.7-2,1.1c0,0.5,0.9,0.7,2,0.6c1.1-0.2,2-0.6,2-1.1S282,87.5,280.8,87.7z
		 M273.8,76c-0.9,0.3-1.7,0.9-1.6,1.3c0,0.4,0.8,0.5,1.8,0.2c1-0.3,1.6-0.9,1.6-1.3C275.5,75.8,274.7,75.7,273.8,76z M274.4,83.2
		c-1.1,0.3-1.9,0.8-1.9,1.2s0.9,0.5,2,0.3c1.1-0.2,1.9-0.7,1.9-1.2C276.4,83.1,275.5,82.9,274.4,83.2z M274.4,83.2
		c-1.1,0.3-1.9,0.8-1.9,1.2s0.9,0.5,2,0.3c1.1-0.2,1.9-0.7,1.9-1.2C276.4,83.1,275.5,82.9,274.4,83.2z M274.4,83.2
		c-1.1,0.3-1.9,0.8-1.9,1.2s0.9,0.5,2,0.3c1.1-0.2,1.9-0.7,1.9-1.2C276.4,83.1,275.5,82.9,274.4,83.2z M274,78.3
		c-1,0.3-1.8,0.9-1.7,1.2c0,0.4,0.9,0.5,1.9,0.2c1-0.3,1.8-0.8,1.7-1.2C275.8,78.1,275,78,274,78.3z M274.3,80.7
		c-1,0.3-1.8,0.8-1.8,1.2s0.9,0.5,1.9,0.3c1.1-0.3,1.8-0.8,1.8-1.2C276.2,80.6,275.3,80.4,274.3,80.7z M274.7,85.9
		c-1.1,0.2-2,0.7-2,1.1s0.9,0.6,2,0.4c1.1-0.2,2-0.7,2-1.1C276.7,85.9,275.8,85.7,274.7,85.9z M274.8,88.5c-1.1,0.2-2,0.7-2,1.1
		c0,0.4,0.9,0.6,2,0.5c1.1-0.2,2-0.7,2-1.1C276.8,88.5,275.9,88.3,274.8,88.5z M282.6,73.1c-0.7,0.2-1.1,0.7-1,1.2
		c0.2,0.4,1,0.6,1.7,0.4c0.8-0.2,1.2-0.7,0.9-1.1C284.1,73.1,283.3,72.9,282.6,73.1z M285.8,81c-1,0.2-1.7,0.7-1.6,1.1
		c0.1,0.5,1,0.7,2,0.5c1-0.2,1.7-0.6,1.6-1.1C287.7,81.1,286.8,80.8,285.8,81z M285.8,81c-1,0.2-1.7,0.7-1.6,1.1
		c0.1,0.5,1,0.7,2,0.5c1-0.2,1.7-0.6,1.6-1.1C287.7,81.1,286.8,80.8,285.8,81z M285.8,81c-1,0.2-1.7,0.7-1.6,1.1
		c0.1,0.5,1,0.7,2,0.5c1-0.2,1.7-0.6,1.6-1.1C287.7,81.1,286.8,80.8,285.8,81z M283.8,75.6c-0.8,0.2-1.3,0.7-1.2,1.1
		c0.2,0.4,1,0.6,1.8,0.4c0.9-0.2,1.4-0.7,1.2-1.1C285.4,75.6,284.6,75.4,283.8,75.6z M284.9,78.3c-0.9,0.2-1.5,0.7-1.4,1.1
		c0.1,0.5,1,0.7,2,0.5c1-0.2,1.6-0.7,1.4-1.1C286.7,78.3,285.8,78.1,284.9,78.3z M286.6,84.1c-1.1,0.2-1.8,0.6-1.8,1.1
		c0.1,0.5,1,0.7,2,0.6s1.9-0.6,1.8-1.1C288.6,84.2,287.6,83.9,286.6,84.1z M286.9,86.9c-1.1,0.1-1.9,0.6-1.9,1.1
		c0,0.5,0.9,0.8,2,0.7c1.1-0.1,2-0.6,1.9-1C288.9,87.1,288,86.8,286.9,86.9z M286.2,72.1c-0.6,0.2-0.8,0.7-0.6,1.1
		c0.3,0.4,1.1,0.7,1.8,0.5c0.7-0.2,0.9-0.6,0.5-1C287.5,72.2,286.8,72,286.2,72.1z M291.2,80.3c-1,0.1-1.6,0.6-1.4,1.1
		c0.2,0.5,1.1,0.8,2.1,0.7c1-0.1,1.7-0.6,1.5-1C293.1,80.5,292.2,80.2,291.2,80.3z M291.2,80.3c-1,0.1-1.6,0.6-1.4,1.1
		c0.2,0.5,1.1,0.8,2.1,0.7c1-0.1,1.7-0.6,1.5-1C293.1,80.5,292.2,80.2,291.2,80.3z M291.2,80.3c-1,0.1-1.6,0.6-1.4,1.1
		c0.2,0.5,1.1,0.8,2.1,0.7c1-0.1,1.7-0.6,1.5-1C293.1,80.5,292.2,80.2,291.2,80.3z M288.1,74.6c-0.7,0.2-1.1,0.6-0.9,1.1
		c0.3,0.5,1.1,0.7,1.9,0.6c0.8-0.2,1.2-0.6,0.9-1C289.7,74.8,288.8,74.5,288.1,74.6z M289.8,77.4c-0.9,0.1-1.4,0.6-1.2,1.1
		c0.2,0.5,1.1,0.7,2,0.6c0.9-0.1,1.5-0.6,1.2-1C291.6,77.5,290.7,77.3,289.8,77.4z M292.4,83.4c-1,0.1-1.8,0.6-1.7,1
		c0.1,0.5,1,0.8,2.1,0.8c1.1-0.1,1.8-0.5,1.7-1C294.4,83.7,293.4,83.4,292.4,83.4z M292.9,86.5c-1.1,0.1-1.9,0.5-1.9,1
		c0,0.5,0.9,0.9,1.9,0.8c1.1-0.1,1.9-0.5,1.9-1C294.9,86.9,294,86.5,292.9,86.5z M289.5,71.5c-0.5,0.1-0.6,0.5-0.2,1
		c0.5,0.5,1.3,0.7,2,0.7c0.7-0.1,0.8-0.5,0.2-0.9C291,71.7,290.1,71.4,289.5,71.5z M297,79.9c-1,0.1-1.5,0.5-1.3,1
		c0.2,0.5,1.2,0.9,2.2,0.8c1,0,1.6-0.5,1.4-1C299,80.2,297.9,79.9,297,79.9z M297,79.9c-1,0.1-1.5,0.5-1.3,1
		c0.2,0.5,1.2,0.9,2.2,0.8c1,0,1.6-0.5,1.4-1C299,80.2,297.9,79.9,297,79.9z M297,79.9c-1,0.1-1.5,0.5-1.3,1
		c0.2,0.5,1.2,0.9,2.2,0.8c1,0,1.6-0.5,1.4-1C299,80.2,297.9,79.9,297,79.9z M292.4,74.1c-0.7,0.1-0.9,0.5-0.6,1
		c0.4,0.5,1.3,0.8,2.2,0.7c0.8-0.1,1.1-0.5,0.6-1C294.1,74.3,293.1,74,292.4,74.1z M295,76.9c-0.9,0.1-1.3,0.5-1,1
		c0.3,0.5,1.3,0.8,2.2,0.8c0.9-0.1,1.4-0.5,1-1C296.9,77.2,295.8,76.9,295,76.9z M298.6,83.2c-1,0-1.7,0.5-1.6,1
		c0.1,0.5,1.1,0.9,2.1,0.9c1.1,0,1.8-0.4,1.7-0.9C300.6,83.6,299.6,83.2,298.6,83.2z M299.2,86.5c-1.1,0-1.9,0.4-1.9,1s0.9,1,1.9,1
		c1.1,0.1,1.9-0.4,1.9-0.9C301.2,87,300.3,86.5,299.2,86.5z M296,71.5c-0.6-0.1-0.4,0.3,0.4,0.7c0.8,0.5,2,0.9,2.8,0.9
		c0.8,0.1,0.7-0.3-0.2-0.7S296.7,71.6,296,71.5z M308.3,80.3c-1.1-0.1-1.5,0.3-1.2,0.8c0.4,0.6,1.4,1.1,2.5,1.2
		c1.1,0.1,1.7-0.2,1.3-0.8C310.5,81,309.3,80.5,308.3,80.3z M308.3,80.3c-1.1-0.1-1.5,0.3-1.2,0.8c0.4,0.6,1.4,1.1,2.5,1.2
		c1.1,0.1,1.7-0.2,1.3-0.8C310.5,81,309.3,80.5,308.3,80.3z M308.3,80.3c-1.1-0.1-1.5,0.3-1.2,0.8c0.4,0.6,1.4,1.1,2.5,1.2
		c1.1,0.1,1.7-0.2,1.3-0.8C310.5,81,309.3,80.5,308.3,80.3z M300.9,74.2c-0.8-0.1-0.9,0.3-0.2,0.8c0.7,0.5,1.9,0.9,2.8,1
		c0.9,0.1,1.1-0.3,0.4-0.7C303.2,74.7,301.7,74.2,300.9,74.2z M305.2,77.1c-1-0.1-1.3,0.3-0.8,0.8c0.5,0.5,1.7,1,2.8,1.1
		c1,0.1,1.5-0.3,0.9-0.8C307.5,77.8,306.1,77.2,305.2,77.1z M311,87.7c-1-0.2-1.8,0.2-1.9,0.8c-0.1,0.6,0.6,1.2,1.6,1.5
		c0.9,0.2,1.9-0.2,2-0.8C312.7,88.6,312,87.9,311,87.7z M296,71.5c-0.6-0.1-0.4,0.3,0.4,0.7c0.8,0.5,2,0.9,2.8,0.9
		c0.8,0.1,0.7-0.3-0.2-0.7S296.7,71.6,296,71.5z M308.3,80.3c-1.1-0.1-1.5,0.3-1.2,0.8c0.4,0.6,1.4,1.1,2.5,1.2
		c1.1,0.1,1.7-0.2,1.3-0.8C310.5,81,309.3,80.5,308.3,80.3z M308.3,80.3c-1.1-0.1-1.5,0.3-1.2,0.8c0.4,0.6,1.4,1.1,2.5,1.2
		c1.1,0.1,1.7-0.2,1.3-0.8C310.5,81,309.3,80.5,308.3,80.3z M308.3,80.3c-1.1-0.1-1.5,0.3-1.2,0.8c0.4,0.6,1.4,1.1,2.5,1.2
		c1.1,0.1,1.7-0.2,1.3-0.8C310.5,81,309.3,80.5,308.3,80.3z M300.9,74.2c-0.8-0.1-0.9,0.3-0.2,0.8c0.7,0.5,1.9,0.9,2.8,1
		c0.9,0.1,1.1-0.3,0.4-0.7C303.2,74.7,301.7,74.2,300.9,74.2z M305.2,77.1c-1-0.1-1.3,0.3-0.8,0.8c0.5,0.5,1.7,1,2.8,1.1
		c1,0.1,1.5-0.3,0.9-0.8C307.5,77.8,306.1,77.2,305.2,77.1z M311,87.7c-1-0.2-1.8,0.2-1.9,0.8c-0.1,0.6,0.6,1.2,1.6,1.5
		c0.9,0.2,1.9-0.2,2-0.8C312.7,88.6,312,87.9,311,87.7z M296,71.5c-0.6-0.1-0.4,0.3,0.4,0.7c0.8,0.5,2,0.9,2.8,0.9
		c0.8,0.1,0.7-0.3-0.2-0.7S296.7,71.6,296,71.5z M308.3,80.3c-1.1-0.1-1.5,0.3-1.2,0.8c0.4,0.6,1.4,1.1,2.5,1.2
		c1.1,0.1,1.7-0.2,1.3-0.8C310.5,81,309.3,80.5,308.3,80.3z M308.3,80.3c-1.1-0.1-1.5,0.3-1.2,0.8c0.4,0.6,1.4,1.1,2.5,1.2
		c1.1,0.1,1.7-0.2,1.3-0.8C310.5,81,309.3,80.5,308.3,80.3z M308.3,80.3c-1.1-0.1-1.5,0.3-1.2,0.8c0.4,0.6,1.4,1.1,2.5,1.2
		c1.1,0.1,1.7-0.2,1.3-0.8C310.5,81,309.3,80.5,308.3,80.3z M300.9,74.2c-0.8-0.1-0.9,0.3-0.2,0.8c0.7,0.5,1.9,0.9,2.8,1
		c0.9,0.1,1.1-0.3,0.4-0.7C303.2,74.7,301.7,74.2,300.9,74.2z M305.2,77.1c-1-0.1-1.3,0.3-0.8,0.8c0.5,0.5,1.7,1,2.8,1.1
		c1,0.1,1.5-0.3,0.9-0.8C307.5,77.8,306.1,77.2,305.2,77.1z M311,87.7c-1-0.2-1.8,0.2-1.9,0.8c-0.1,0.6,0.6,1.2,1.6,1.5
		c0.9,0.2,1.9-0.2,2-0.8C312.7,88.6,312,87.9,311,87.7z M292.6,71.2c-0.5,0-0.4,0.4,0.2,0.9c0.6,0.5,1.6,0.8,2.3,0.8
		c0.7,0,0.7-0.4-0.1-0.8C294.3,71.6,293.2,71.2,292.6,71.2z M302.6,79.9c-1-0.1-1.5,0.4-1.2,0.9c0.3,0.5,1.3,1,2.4,1
		c1,0.1,1.6-0.4,1.3-0.9C304.7,80.3,303.6,79.9,302.6,79.9z M302.6,79.9c-1-0.1-1.5,0.4-1.2,0.9c0.3,0.5,1.3,1,2.4,1
		c1,0.1,1.6-0.4,1.3-0.9C304.7,80.3,303.6,79.9,302.6,79.9z M302.6,79.9c-1-0.1-1.5,0.4-1.2,0.9c0.3,0.5,1.3,1,2.4,1
		c1,0.1,1.6-0.4,1.3-0.9C304.7,80.3,303.6,79.9,302.6,79.9z M296.5,73.9c-0.7,0-0.8,0.4-0.3,0.9c0.5,0.5,1.6,0.8,2.5,0.8
		c0.8,0,1.1-0.4,0.4-0.8S297.2,73.9,296.5,73.9z M299.9,76.8c-0.9,0-1.2,0.4-0.8,0.9c0.4,0.5,1.5,0.9,2.5,0.9c1,0,1.4-0.4,0.9-0.9
		C302,77.2,300.9,76.8,299.9,76.8z M304.6,83.4c-1.1-0.1-1.7,0.4-1.6,0.9c0.2,0.5,1.1,1,2.2,1.1c1.1,0.1,1.8-0.3,1.7-0.9
		C306.6,84,305.6,83.4,304.6,83.4z M305.3,86.8c-1.1-0.1-1.9,0.3-1.9,0.9s0.8,1.1,1.8,1.2c1,0.1,1.9-0.3,1.9-0.9
		C307.3,87.4,306.4,86.9,305.3,86.8z M300,72c-0.8-0.1-0.5,0.2,0.5,0.6c1,0.5,2.5,0.9,3.4,1.1c0.9,0.2,0.9-0.2-0.2-0.6
		S300.8,72.1,300,72z M314.3,81.1c-1.1-0.2-1.6,0.2-1.3,0.7c0.4,0.6,1.5,1.2,2.6,1.4c1.1,0.2,1.8-0.1,1.4-0.7
		C316.7,81.9,315.5,81.3,314.3,81.1z M314.3,81.1c-1.1-0.2-1.6,0.2-1.3,0.7c0.4,0.6,1.5,1.2,2.6,1.4c1.1,0.2,1.8-0.1,1.4-0.7
		C316.7,81.9,315.5,81.3,314.3,81.1z M314.3,81.1c-1.1-0.2-1.6,0.2-1.3,0.7c0.4,0.6,1.5,1.2,2.6,1.4c1.1,0.2,1.8-0.1,1.4-0.7
		C316.7,81.9,315.5,81.3,314.3,81.1z M305.9,74.7c-1-0.1-1,0.2-0.2,0.7c0.8,0.5,2.2,1,3.3,1.1c1.1,0.2,1.3-0.2,0.4-0.7
		C308.5,75.3,306.9,74.8,305.9,74.7z M310.8,77.8c-1.1-0.2-1.4,0.2-0.8,0.7c0.6,0.5,1.9,1.1,3,1.2c1.1,0.2,1.6-0.1,1-0.7
		C313.5,78.5,311.9,77.9,310.8,77.8z M316.4,85c-1.1-0.2-1.8,0.1-1.7,0.7c0.1,0.6,0.9,1.3,1.9,1.6c1,0.3,1.8-0.1,1.8-0.7
		C318.5,86,317.5,85.3,316.4,85z M316.4,89c-0.9-0.3-1.8,0.1-2,0.7c-0.2,0.7,0.3,1.4,1.1,1.7c0.8,0.3,1.7,0.1,2-0.7
		C318,90,317.4,89.2,316.4,89z M305.9,73c-1.1-0.2-0.9,0.1,0.3,0.5c1.2,0.5,3,1,4.1,1.2c1.2,0.2,1.3,0,0-0.5
		C309.1,73.7,307.1,73.1,305.9,73z M321.6,82.6c-1.2-0.3-1.8,0-1.4,0.6c0.3,0.6,1.4,1.3,2.5,1.6s1.8,0.1,1.6-0.6
		C324,83.6,322.7,82.9,321.6,82.6z M321.6,82.6c-1.2-0.3-1.8,0-1.4,0.6c0.3,0.6,1.4,1.3,2.5,1.6s1.8,0.1,1.6-0.6
		C324,83.6,322.7,82.9,321.6,82.6z M321.6,82.6c-1.2-0.3-1.8,0-1.4,0.6c0.3,0.6,1.4,1.3,2.5,1.6s1.8,0.1,1.6-0.6
		C324,83.6,322.7,82.9,321.6,82.6z M312.7,75.8c-1.2-0.2-1.3,0.1-0.4,0.6c0.9,0.5,2.6,1.1,3.8,1.3c1.2,0.3,1.6,0,0.6-0.5
		C315.9,76.6,313.9,76,312.7,75.8z M318.2,79c-1.2-0.3-1.6,0-1,0.6s2,1.2,3.2,1.5c1.2,0.3,1.8,0.1,1.2-0.6
		C321,80,319.4,79.3,318.2,79z M322.9,86.9c-1-0.4-1.8-0.1-1.8,0.6c-0.1,0.7,0.6,1.5,1.4,1.9c0.8,0.4,1.7,0.2,1.9-0.6
		C324.6,88.2,323.9,87.2,322.9,86.9z M321.7,91.2c-0.7-0.4-1.6-0.2-2,0.6c-0.4,0.7-0.4,1.7,0.1,2.2c0.5,0.5,1.4,0.3,2-0.5
		C322.4,92.6,322.4,91.6,321.7,91.2z M235.9,92.9c-1.1,0.1-1.9,0.4-1.9,0.6c0.1,0.3,1,0.4,2.1,0.3c1.1-0.1,1.9-0.4,1.9-0.7
		C238,92.8,237,92.8,235.9,92.9z M235.6,91.4c-1.1,0.2-2,0.4-1.9,0.7c0.1,0.3,1,0.4,2.1,0.2c1.1-0.1,2-0.5,1.9-0.7
		C237.7,91.3,236.7,91.3,235.6,91.4z M241.8,90.6c-1.1,0.2-2,0.6-2,0.8c0.1,0.3,1,0.4,2.1,0.2s2-0.6,2-0.8
		C243.9,90.5,242.9,90.4,241.8,90.6z M248.2,91.5c-1.1,0.2-2,0.6-2,0.9c0.1,0.3,1,0.4,2.1,0.2c1.1-0.2,2-0.6,2-0.9
		C250.3,91.3,249.4,91.3,248.2,91.5z M241.9,92.4c-1.1,0.2-2,0.5-1.9,0.8c0.1,0.3,1,0.4,2.1,0.2c1.1-0.2,2-0.5,1.9-0.8
		C244,92.2,243.1,92.2,241.9,92.4z M261.3,90.9c-1.2,0.2-2.1,0.7-2,1c0,0.4,1,0.5,2.1,0.3c1.1-0.2,2-0.7,2-1
		C263.4,90.8,262.4,90.7,261.3,90.9z"/>
</g>
<g>
	<path d="M24.9,56.2c0.4,0.7,1,1.3,1.6,1.8c0.7,0.6,1.5,1,2.6,1.4s2.2,0.7,3.6,1c1.4,0.2,2.9,0.4,4.7,0.4c1.7,0,3.3-0.1,4.7-0.3
		c1.4-0.2,2.7-0.5,3.8-0.8c1.2-0.4,2.2-0.7,3.2-1.1c1-0.4,1.8-0.9,2.7-1.3v7c-1.1,0.4-2.2,0.8-3.3,1.1c-1.1,0.4-2.3,0.6-3.4,0.9
		c-1.2,0.3-2.5,0.4-3.7,0.6C40,66.9,38.6,67,37,67c-3.2,0-6.1-0.3-8.8-0.9c-2.7-0.6-5-1.6-6.9-2.8c-1.9-1.3-3.4-2.8-4.5-4.7
		c-1.1-1.9-1.6-4.1-1.6-6.6c0-2.5,0.6-4.7,1.6-6.6c1.1-1.9,2.6-3.5,4.5-4.7c1.9-1.3,4.3-2.2,6.9-2.8s5.6-0.9,8.8-0.9
		c1.5,0,2.9,0.1,4.3,0.2c1.3,0.1,2.6,0.3,3.7,0.6s2.4,0.5,3.4,0.9c1.1,0.4,2.2,0.7,3.3,1.1v7c-0.9-0.4-1.8-0.9-2.7-1.3
		c-1-0.4-2-0.8-3.2-1.1c-1.2-0.4-2.4-0.6-3.8-0.8c-1.4-0.2-2.9-0.3-4.7-0.3c-2.7,0-4.9,0.3-6.6,0.8s-3.2,1.2-4.2,2
		c-1,0.8-1.8,1.8-2.2,2.9c-0.4,1.1-0.6,2.2-0.6,3.3c0,0.8,0.1,1.5,0.3,2.3C24.2,54.9,24.5,55.6,24.9,56.2L24.9,56.2z"/>
	<polygon points="57.3,66.2 57.3,37.5 65.8,37.5 65.8,59.9 88.7,59.9 88.7,66.2 	"/>
	<path d="M117,37.5h-9.4L91.1,66.2h9.4l2.9-5.4H121l2.9,5.4h9.4L117,37.5z M106.6,55.2l5.7-10.6l5.7,10.6L106.6,55.2L106.6,55.2z"/>
	<path d="M163,54.9c0.9-0.3,1.8-0.7,2.7-1.1c0.8-0.5,1.6-1,2.2-1.6c0.6-0.7,1.1-1.4,1.5-2.4c0.4-0.9,0.6-1.9,0.6-3.2
		c0-1.4-0.2-2.6-0.7-3.7c-0.5-1.1-1.2-2.1-2.2-2.9c-1-0.8-2.3-1.4-3.9-1.8c-1.6-0.4-3.5-0.7-5.8-0.7h-21.2v28.7h8.5V55.6h9.2
		l9.5,10.6h9.9L163,54.9z M161.1,48c-0.2,0.4-0.5,0.7-0.8,1c-0.4,0.3-0.9,0.4-1.6,0.5c-0.7,0.1-1.5,0.2-2.5,0.2h-11.6v-6.1h11.6
		c1,0,1.8,0.1,2.5,0.2s1.2,0.3,1.6,0.5c0.4,0.3,0.7,0.6,0.8,1c0.2,0.4,0.3,0.9,0.3,1.4C161.3,47.1,161.2,47.6,161.1,48z"/>
	<polygon points="176.9,66.2 176.9,37.5 185.4,37.5 185.4,66.2 	"/>
	<polygon points="213.9,66.2 204,66.2 188.2,37.5 197.6,37.5 209,59.1 220.4,37.5 229.9,37.5 	"/>
	<path d="M267.4,53c0-2.6-0.5-5-1.4-7c-0.9-2-2.3-3.7-3.9-5.1c-1.7-1.4-3.7-2.4-6.1-3.1c-2.4-0.7-5-1.1-7.8-1.1
		c-3.1,0-5.9,0.4-8.4,1.2s-4.7,1.8-6.4,3.2c-1.8,1.4-3.1,3-4.1,4.9c-1,1.8-1.4,3.9-1.4,6c0,2.4,0.5,4.5,1.4,6.3
		c1,1.8,2.4,3.4,4.1,4.7c1.8,1.3,4,2.3,6.7,2.9c2.7,0.7,5.7,1,9.1,1c2.7,0,5.3-0.2,7.8-0.5c2.6-0.4,5.1-0.9,7.7-1.7v-6.7
		c-0.6,0.4-1.5,0.7-2.5,1c-1,0.4-2.2,0.7-3.5,1c-1.3,0.3-2.7,0.5-4.1,0.7c-1.5,0.2-3,0.3-4.6,0.3c-2.2,0-4-0.2-5.6-0.5
		c-1.6-0.3-2.9-0.7-4-1.2c-1.1-0.5-1.9-1.2-2.6-1.9c-0.6-0.8-1.1-1.6-1.3-2.5h30.9L267.4,53L267.4,53z M236.5,49.2
		c0.2-0.6,0.5-1.3,1-2c0.5-0.7,1.2-1.4,2.2-2c0.9-0.6,2.1-1.2,3.5-1.6c1.4-0.4,3-0.7,4.9-0.7c2,0,3.7,0.2,5.1,0.6
		c1.3,0.4,2.5,0.9,3.3,1.5c0.8,0.6,1.4,1.3,1.8,2c0.4,0.8,0.6,1.5,0.7,2.2L236.5,49.2L236.5,49.2z"/>
</g>
<path d="M272.6,64.4h0.6c0.2,0,0.3,0.1,0.4,0.1c0.1,0.1,0.1,0.2,0.1,0.4v0.3c0,0.1,0,0.2,0.1,0.3c0,0.1,0,0.1,0.1,0.2h0.7v-0.1
	c-0.1-0.1-0.1-0.1-0.1-0.2c0-0.1,0-0.2,0-0.3v-0.2c0-0.2-0.1-0.4-0.1-0.5c-0.1-0.1-0.2-0.2-0.3-0.3c0.2-0.1,0.3-0.2,0.4-0.3
	c0.1-0.2,0.1-0.3,0.1-0.4c0-0.1,0-0.2-0.1-0.3c-0.1-0.1-0.1-0.2-0.2-0.3s-0.2-0.2-0.3-0.2c-0.1-0.1-0.3-0.1-0.5-0.1H272v3h0.6
	L272.6,64.4L272.6,64.4z M272.6,63.1h0.7c0.1,0,0.2,0,0.3,0.1c0.1,0.1,0.2,0.2,0.2,0.4s-0.1,0.3-0.2,0.4c-0.1,0.1-0.2,0.1-0.3,0.1
	h-0.7L272.6,63.1L272.6,63.1z"/>
<path d="M273.2,66.8c1.5,0,2.7-1.2,2.7-2.7c0-1.5-1.2-2.7-2.7-2.7c-1.5,0-2.7,1.2-2.7,2.7C270.5,65.6,271.7,66.8,273.2,66.8
	 M273.2,61.8c1.3,0,2.3,1,2.3,2.3c0,1.3-1,2.3-2.3,2.3s-2.3-1-2.3-2.3C270.9,62.8,271.9,61.8,273.2,61.8"/>
</svg>
