<?xml version="1.0" encoding="utf-8"?>
<!-- Generator: Adobe Illustrator 20.0.0, SVG Export Plug-In . SVG Version: 6.00 Build 0)  -->
<svg version="1.1" id="Layer_2" xmlns="http://www.w3.org/2000/svg" xmlns:xlink="http://www.w3.org/1999/xlink" x="0px" y="0px"
	 viewBox="0 0 52 52" style="enable-background:new 0 0 52 52;" xml:space="preserve">
<style type="text/css">
	.st0{fill:#4FBC78;}
</style>
<g>
	<path class="st0" d="M23.4,13.1V0.8c-5,0.4-9.5,2.3-13.2,5.2l8.8,8.8C20.3,13.9,21.8,13.4,23.4,13.1z"/>
	<path class="st0" d="M40.7,5.9c-3.4-2.7-7.6-4.5-12.2-5v12.4c1.2,0.3,2.3,0.8,3.4,1.4L40.7,5.9z"/>
	<path class="st0" d="M37.3,21.3h12.6c-0.7-4.5-2.7-8.5-5.5-11.8l-8.7,8.7C36.3,19.1,36.9,20.1,37.3,21.3z"/>
	<path class="st0" d="M13.8,21.3c0.4-1.1,0.9-2.1,1.5-3L6.6,9.6c-2.7,3.3-4.7,7.3-5.4,11.7H13.8z"/>
	<path class="st0" d="M37.9,26.4c-0.2,2-0.8,3.9-1.8,5.5l8.8,8.8c3.1-4,5.1-8.9,5.3-14.3C50.2,26.4,37.9,26.4,37.9,26.4z"/>
	<path class="st0" d="M13.1,26.4H0.9C1.1,31.7,3,36.6,6,40.5l8.8-8.8C13.9,30.1,13.3,28.3,13.1,26.4z"/>
	<path class="st0" d="M28.5,37.4v12.4c4.8-0.6,9.2-2.6,12.8-5.5l-8.7-8.7C31.3,36.4,30,37.1,28.5,37.4z"/>
	<path class="st0" d="M9.6,44.2c3.8,3.2,8.6,5.3,13.8,5.8V37.6c-1.9-0.3-3.6-1.1-5.1-2.1L9.6,44.2z"/>
</g>
</svg>
