<?xml version="1.0" encoding="utf-8"?>
<!-- Generator: Adobe Illustrator 20.0.0, SVG Export Plug-In . SVG Version: 6.00 Build 0)  -->
<svg version="1.1" id="Layer_2_1_" xmlns="http://www.w3.org/2000/svg" xmlns:xlink="http://www.w3.org/1999/xlink" x="0px" y="0px"
	 viewBox="0 0 39 39" style="enable-background:new 0 0 39 39;" xml:space="preserve">
<style type="text/css">
	.st0{fill:#CDCDCD;}
</style>
<path class="st0" d="M18.1,11.5V3.4c-3.2,0.3-6.2,1.5-8.6,3.4l5.7,5.7C16.1,12,17.1,11.7,18.1,11.5z"/>
<path class="st0" d="M29.4,6.8c-2.3-1.8-5-2.9-8-3.3v8.1c0.8,0.2,1.5,0.5,2.2,0.9L29.4,6.8z"/>
<path class="st0" d="M27.2,16.8h8.2c-0.5-2.9-1.8-5.6-3.6-7.8l-5.7,5.7C26.6,15.4,26.9,16.1,27.2,16.8z"/>
<path class="st0" d="M11.8,16.8c0.2-0.7,0.6-1.4,1-2L7.1,9.2c-1.8,2.2-3,4.8-3.5,7.7H11.8z"/>
<path class="st0" d="M27.6,20.2c-0.1,1.3-0.5,2.5-1.2,3.6l5.7,5.7c2.1-2.6,3.3-5.8,3.5-9.3H27.6z"/>
<path class="st0" d="M11.4,20.2h-8c0.1,3.5,1.4,6.7,3.4,9.3l5.7-5.7C11.9,22.6,11.5,21.4,11.4,20.2z"/>
<path class="st0" d="M21.5,27.4v8.1c3.2-0.4,6-1.7,8.4-3.6l-5.7-5.7C23.3,26.7,22.4,27.2,21.5,27.4z"/>
<path class="st0" d="M9.1,31.8c2.5,2.1,5.6,3.5,9,3.8v-8.1c-1.2-0.2-2.4-0.7-3.4-1.4L9.1,31.8z"/>
</svg>
