<?xml version="1.0" encoding="utf-8"?>
<!-- Generator: Adobe Illustrator 20.0.0, SVG Export Plug-In . SVG Version: 6.00 Build 0)  -->
<svg version="1.1" id="Layer_1" xmlns="http://www.w3.org/2000/svg" xmlns:xlink="http://www.w3.org/1999/xlink" x="0px" y="0px"
	 viewBox="0 0 16 16" style="enable-background:new 0 0 16 16;" xml:space="preserve">
<style type="text/css">
	.st0{fill:#3FA9F5;}
</style>
<g>
	<path class="st0" d="M14,2.1v11.8H2V2.1H14 M14.9,1.2H14H2H1.1v0.9v11.8v0.9H2h12h0.9v-0.9V2.1V1.2L14.9,1.2z"/>
</g>
<g id="Layer_1_1_">
	<path class="st0" d="M11.8,7.6c0.5,0,1,0,1.5,0c0,0-0.1,0.1-0.1,0.2c-0.7,0.8-1.4,1.7-2.1,2.5c-0.8-0.9-1.7-1.8-2.5-2.7h1.7
		c-0.1-0.8-0.4-1.3-0.8-1.7C9.1,5.4,8.5,5.1,7.8,5C6.2,4.7,5,5.7,4.5,6.7C4.2,7.3,4.1,8.2,4.3,8.9c0.2,0.6,0.6,1.2,1,1.5
		c0.5,0.4,1.1,0.7,1.9,0.7c0.8,0,1.4-0.3,1.9-0.7c0.2,0.2,0.4,0.4,0.5,0.5c0.2,0.2,0.4,0.4,0.5,0.6c-0.5,0.4-1.1,0.8-1.8,1
		c-0.8,0.2-1.7,0.2-2.4,0C4.6,12,3.6,11,3,9.8C2.8,9.1,2.6,8.2,2.7,7.4c0.1-0.8,0.4-1.5,0.8-2c0.8-1.1,1.9-1.9,3.6-2
		C8.5,3.4,9.6,4,10.3,4.6C11.1,5.4,11.7,6.3,11.8,7.6"/>
</g>
</svg>
