<?xml version="1.0" encoding="utf-8"?>
<!-- Generator: Adobe Illustrator 19.2.1, SVG Export Plug-In . SVG Version: 6.00 Build 0)  -->
<svg version="1.1" xmlns="http://www.w3.org/2000/svg" xmlns:xlink="http://www.w3.org/1999/xlink" x="0px" y="0px"
	 viewBox="0 0 16 17.1" style="enable-background:new 0 0 16 17.1;" xml:space="preserve">
<style type="text/css">
	.st0{fill:#404040;}
</style>
<g id="Layer_3">
</g>
<g id="Layer_1">
	<path class="st0" d="M7.8,8.4C7.3,7.8,6.3,7.1,5.8,6.5c-0.5-0.7-0.6-1.7,0-2.3c0.5-0.5,1.2-0.9,1.7-1.4C8.1,2.4,9,0.9,9,0
		c0.5,0.8,0.9,2.1-0.3,3.2c-0.5,0.4-0.8,1-1.3,1.5C6.7,5.3,6.6,5.9,7,6.7C7.2,7,7.4,7.4,7.6,7.8C7.8,8.2,7.8,8.3,7.8,8.4z"/>
	<path class="st0" d="M10.3,9.2C10,9.4,5.9,9.8,4.5,9.6c-0.3,0-1.6-0.2-1.4-0.7C3.4,8,5.4,8.1,6,8C5.7,8.2,4.3,8.5,4.7,8.7
		c0.7,0.4,3.5,0.1,5.2-0.1C9.9,8.6,10.3,9.2,10.3,9.2z"/>
	<path class="st0" d="M11.4,3C11,3.2,10.1,3.8,9.7,4.1C8.8,4.8,8.7,5.1,9.3,6c0.9,1.4,0.1,2.3-1,2.7C9,8,8.6,6.8,8.2,6.2
		C7.7,5.5,7.9,4.7,8.5,4.1C9.1,3.5,10.5,3,11.4,3z"/>
	<path class="st0" d="M10.4,10.7c-1.5,0.5-4.3,1.1-5.7,0.3c-0.4-0.2-0.5-0.6-0.2-0.9c0.3-0.2,0.8-0.4,0.8-0.4
		c-0.5,0.8,1.9,0.8,4.8,0.4C10.3,10.1,10.3,10.7,10.4,10.7z"/>
	<path class="st0" d="M11.2,8.5c0.6-0.3,1.1-0.3,1.4,0.1c0.3,0.4,0.3,1.1,0,1.6c-0.4,0.6-1.1,0.9-1.8,1c0.3-0.3,0.6-0.6,0.8-0.9
		C12.4,9.4,12.2,8.8,11.2,8.5z"/>
	<path class="st0" d="M10.1,11.5c0,0-2,0.5-3,0.5c-2,0.1-1.4-0.5-1.4-0.5s-0.8-0.1-1,0.6c-0.2,1.2,3.4,0.7,4,0.6
		c0.5-0.1,1.5-0.4,1.5-0.4L10.1,11.5z"/>
	<path class="st0" d="M12.3,12.5c-2.3,1.9-6.7,1.7-8.4,1.1c0,0-0.2-0.1-0.3-0.1c-0.1-0.1-0.4-0.1-0.4-0.4c0-0.4,1.4-0.4,1.4-0.4
		c-0.2-0.2-0.4-0.4-0.4-0.4s-0.6-0.1-1.2,0c-0.5,0.1-1,0.2-1.1,0.8C1.8,13.8,3,14.9,8,14.8c2.9-0.1,4.3-1.1,4.5-1.3
		C12.6,13.5,12.3,12.5,12.3,12.5z"/>
	<path class="st0" d="M14,13.9c0,0-1.2,1.3-5.1,1.7C7,15.7,4.4,15,4.4,15s-0.6-0.1-0.3,0.1c0.3,0.2,2.3,1,5,0.9
		c2.1-0.1,3.4-0.4,4.1-0.9C14.3,14.4,14.1,13.9,14,13.9z"/>
</g>
</svg>
