<?xml version="1.0" encoding="utf-8"?>
<!-- Generator: Adobe Illustrator 20.0.0, SVG Export Plug-In . SVG Version: 6.00 Build 0)  -->
<svg version="1.1" id="Layer_1" xmlns="http://www.w3.org/2000/svg" xmlns:xlink="http://www.w3.org/1999/xlink" x="0px" y="0px"
	 viewBox="0 0 16 16" style="enable-background:new 0 0 16 16;" xml:space="preserve">
<style type="text/css">
	.st0{fill:#3FA9F5;}
</style>
<path class="st0" d="M15,1L15,1c0,0,0,6,0,6.6l0,0c-2.5,0-4.4,0.3-7,0.4c0-1.9,0-4,0-5.9C8.1,2,14.8,1,15,1C14.9,1,14.9,1,15,1
	C14.9,1,14.9,1,15,1z"/>
<path class="st0" d="M1,3c0.2,0,6-1,6-1c0,1.8,0,4.2,0,6C5.1,8,2.9,8,1,8C1,8,1,4.1,1,3z"/>
<path class="st0" d="M8,14.6c0-1.9,0-3.7,0-5.6c2.5,0,4.4,0,7,0c0,2.2,0,4.3,0,6.5C12.4,15.2,10.5,15,8,14.6z"/>
<path class="st0" d="M7,14.5c0,0-5.9-0.5-6-0.5c0,0,0-3.8,0-4.9c0,0,0,0,0-0.1c1.9,0,4.1,0,6,0C7,10.8,7,12.7,7,14.5z"/>
</svg>
