<?xml version="1.0" encoding="utf-8"?>
<!-- Generator: Adobe Illustrator 19.2.1, SVG Export Plug-In . SVG Version: 6.00 Build 0)  -->
<svg version="1.1" id="Layer_1" xmlns="http://www.w3.org/2000/svg" xmlns:xlink="http://www.w3.org/1999/xlink" x="0px" y="0px"
	 viewBox="0 0 16 16" style="enable-background:new 0 0 16 16;" xml:space="preserve">
<style type="text/css">
	.st0{fill:#404040;}
</style>
<path class="st0" d="M6.2,12.7c-1.6-1.3-3.4-1.1-5.1-0.4c0-0.1,0-0.2,0-0.3c0.4-1.3,0.8-2.7,1.2-4c0-0.1,0.1-0.3,0.3-0.3
	C3.8,7.3,5,7.1,6.3,7.5c0,0,0.1,0,0.1,0C7.5,7.9,7.6,8,7.3,9.1C6.9,10.3,6.6,11.4,6.2,12.7z"/>
<path class="st0" d="M2.6,7.1C3,5.6,3.5,4.2,3.9,2.8c0-0.1,0.1-0.2,0.2-0.3c1.2-0.4,2.5-0.6,3.8-0.2c0.4,0.1,0.7,0.3,1.1,0.5
	C9,2.8,9.1,3,9.1,3.2C8.7,4.6,8.2,6,7.8,7.4C7,6.8,6.2,6.5,5.3,6.5C4.4,6.5,3.5,6.7,2.6,7.1z"/>
<path class="st0" d="M8.2,8.6c1.6,1.3,3.3,1,5.1,0.4c0,0.1,0,0.3-0.1,0.4c-0.4,1.3-0.8,2.6-1.2,3.9c0,0.1-0.1,0.3-0.2,0.3
	c-1.2,0.4-2.5,0.6-3.7,0.3c-0.1,0-0.1,0-0.2-0.1c-1.1-0.4-1.2-0.5-0.8-1.6c0.3-1.1,0.7-2.2,1-3.3C8.1,8.7,8.2,8.7,8.2,8.6z"/>
<path class="st0" d="M15,3.6c-0.3,1.1-0.6,2.2-1,3.2c-0.1,0.2-0.2,0.5-0.2,0.7c-0.1,0.5-0.4,0.7-0.9,0.8c-1.2,0.3-2.4,0.4-3.6,0
	C8.4,7.9,8.4,7.9,8.6,7c0.3-1.1,0.7-2.3,1-3.4c0-0.1,0.1-0.2,0.1-0.3C11.4,4.5,13.1,4.3,15,3.6z"/>
</svg>
