<?xml version="1.0" encoding="utf-8"?>
<!-- Generator: Adobe Illustrator 20.0.0, SVG Export Plug-In . SVG Version: 6.00 Build 0)  -->
<svg version="1.1" id="Layer_1" xmlns="http://www.w3.org/2000/svg" xmlns:xlink="http://www.w3.org/1999/xlink" x="0px" y="0px"
	 viewBox="0 0 16 16" style="enable-background:new 0 0 16 16;" xml:space="preserve">
<style type="text/css">
	.st0{display:none;}
	.st1{display:inline;}
	.st2{fill:#404040;}
	.st3{fill:#FF0402;}
	.st4{fill:#FFFFFF;}
</style>
<g id="Layer_1_1_" class="st0">
	<g class="st1">
		<path class="st2" d="M7.8,12.1c-0.8,0-1.7,0-2.5,0c-1.1,0-2-0.4-2.9-1.1c-0.6-0.5-1-1.2-1.2-2C1,8.4,1,7.7,1.1,7.1
			C1.3,6.3,1.7,5.6,2.2,5s1.2-1,1.9-1.2C4.5,3.7,5,3.6,5.4,3.6c1.6,0,3.3,0,4.9,0c1.1,0,2,0.4,2.8,1.1c0.6,0.5,1,1.1,1.2,1.9
			c0.2,0.6,0.2,1.2,0.1,1.9c-0.2,1-0.6,1.9-1.4,2.6c-0.6,0.5-1.2,0.8-1.9,0.9c-0.3,0.1-0.7,0.1-1,0.1C9.3,12.1,8.5,12.1,7.8,12.1z
			 M10.1,10.6c0.8,0,1.4-0.3,2-0.8c0.9-0.9,1.1-2.3,0.4-3.3c-0.5-0.9-1.3-1.3-2.3-1.3c-1.6,0-3.2,0-4.8,0c-0.2,0-0.3,0-0.5,0.1
			C4.2,5.4,3.7,5.7,3.3,6.1C2.8,6.8,2.6,7.5,2.7,8.4C2.9,9,3.2,9.5,3.6,9.9c0.5,0.4,0.8,0.7,1.4,0.7C5.9,10.7,10,10.7,10.1,10.6z"/>
	</g>
</g>
<rect class="st3" width="16" height="16"/>
<g>
	<path class="st4" d="M10.6,4.2c1.7,0.1,3,1.4,3.3,3c0.4,2.2-0.9,4.3-3.2,4.7c-0.2,0-0.4,0-0.6,0c-1.5,0-2.9,0-4.3,0
		c-2,0-3.5-1.4-3.9-3.3C1.8,6.5,3.2,4.7,5.1,4.3C5.6,4.2,9.5,4.2,10.6,4.2z M10,10.7c1.5,0,2.5-1.3,2.6-2.4c0.1-1.5-1-2.7-2.4-2.7
		c-1.5,0-2.8,0-4.3,0c-0.1,0-0.2,0-0.3,0c-1.4,0.3-2.3,1.5-2.1,3c0.2,1.1,1.2,2.1,2.2,2.1C6.5,10.8,9.3,10.7,10,10.7z"/>
</g>
</svg>
