<?xml version="1.0" encoding="utf-8"?>
<!-- Generator: Adobe Illustrator 20.0.0, SVG Export Plug-In . SVG Version: 6.00 Build 0)  -->
<svg version="1.1" id="Layer_1" xmlns="http://www.w3.org/2000/svg" xmlns:xlink="http://www.w3.org/1999/xlink" x="0px" y="0px"
	 viewBox="0 0 16 16" style="enable-background:new 0 0 16 16;" xml:space="preserve">
<style type="text/css">
	.st0{fill:#016598;}
	.st1{fill:#FFFFFF;}
</style>
<rect class="st0" width="16" height="16"/>
<g id="Layer_1_1_">
	<g>
		<path class="st1" d="M15.4,5c0,0.4,0,0.8,0,1.2c-0.2,0-0.5,0-0.7,0c0,1.2,0,2.3,0,3.5c0.2,0,0.4,0,0.7,0c0,0.4,0,0.8,0,1.2
			c-0.7,0-1.3,0-2,0c0-1,0-2,0-3c0,0,0,0-0.1,0c-0.4,1.1-0.8,2.1-1.2,3.3c-0.4-1.1-0.8-2.2-1.2-3.3c0,0,0,0-0.1,0c0,1,0,2,0,3.1
			c-0.7,0-1.3,0-2,0c0-0.4,0-0.8,0-1.2c0.2,0,0.5,0,0.7,0c0-1.2,0-2.3,0-3.5c-0.2,0-0.5,0-0.7,0c0-0.4,0-0.8,0-1.2c0.5,0,1,0,1.5,0
			c0.3,0,0.6-0.1,0.8,0.1c0.2,0.1,0.2,0.5,0.3,0.7c0.2,0.6,0.5,1.3,0.8,2c0.1-0.1,0.1-0.2,0.1-0.2c0.3-0.8,0.6-1.5,0.9-2.3
			C13.1,5,13.2,5,13.4,5C14,5,14.7,5,15.4,5z"/>
		<path class="st1" d="M3.7,10.8c0-0.4,0-0.7,0-1.1c0.2,0,0.5,0,0.7,0c0-1.2,0-2.3,0-3.5c-0.2,0-0.5,0-0.7,0c0-0.4,0-0.8,0-1.1
			c0,0,0,0,0.1,0c1,0,2,0,3,0c0.7,0,1.3,0.4,1.5,1.1c0.2,0.6,0,1.3-0.6,1.7c0,0-0.1,0-0.1,0.1c0.1,0,0.1,0,0.2,0.1
			c0.5,0.4,0.7,1,0.5,1.6S7.6,10.8,7,10.8C5.9,10.8,4.8,10.8,3.7,10.8z M5.8,9.6c0.4,0,0.8,0,1.2,0c0-0.4,0-0.8,0-1.2
			c-0.4,0-0.7,0-1,0c-0.1,0-0.1,0.1-0.1,0.1C5.8,8.9,5.8,9.3,5.8,9.6z M5.8,7.3c0.4,0,0.8,0,1.2,0c0-0.3,0-0.7,0-1L6.9,6.2
			c-0.3,0-0.7,0-1.1,0C5.8,6.6,5.8,6.9,5.8,7.3z"/>
		<path class="st1" d="M0.6,6.2c0-0.4,0-0.8,0-1.2c0.9,0,1.8,0,2.8,0c0,0.4,0,0.7,0,1.1c-0.2,0-0.5,0-0.7,0c0,1.2,0,2.3,0,3.5
			c0.2,0,0.5,0,0.7,0c0,0.4,0,0.8,0,1.2c-0.9,0-1.8,0-2.8,0c0-0.4,0-0.8,0-1.2c0.2,0,0.4,0,0.7,0c0-0.1,0-0.2,0-0.2c0-1,0-2,0-3
			c0-0.2-0.1-0.3-0.2-0.2C0.9,6.2,0.8,6.2,0.6,6.2z"/>
	</g>
</g>
<g id="Layer_2">
</g>
</svg>
