<?xml version="1.0" encoding="utf-8"?>
<!-- Generator: Adobe Illustrator 19.2.1, SVG Export Plug-In . SVG Version: 6.00 Build 0)  -->
<svg version="1.1" xmlns="http://www.w3.org/2000/svg" xmlns:xlink="http://www.w3.org/1999/xlink" x="0px" y="0px"
	 viewBox="0 0 16 16" style="enable-background:new 0 0 16 16;" xml:space="preserve">
<style type="text/css">
	.st0{display:none;}
	.st1{fill:#3FA9F5;}
</style>
<g id="Layer_1" class="st0">
	
		<image style="display:inline;overflow:visible;" width="16" height="16" xlink:href="../../../../../../../../opt/clarive/clarive/root/static/images/icons/lc/branch_obj.gif" >
	</image>
</g>
<g id="Layer_2">
	<path class="st1" d="M13,10V7c0-1.1-0.8-1.9-1.8-1.9H9V1H7v4H4.9c-0.5,0-1,0.2-1.3,0.6C3.1,6.2,3,6.8,3,7c0,0.9,0,1.9,0,2.9
		C3,9.9,3,9.9,3,10l-2,0l3,4l3-4l-2,0c0,0,0,0,0,0c0-0.9-0.1-2.1-0.1-3l0-0.1L11.1,7v3H9l3,4l3-4H13z"/>
</g>
</svg>
