<?xml version="1.0" encoding="utf-8"?>
<!-- Generator: Adobe Illustrator 20.0.0, SVG Export Plug-In . SVG Version: 6.00 Build 0)  -->
<svg version="1.1" id="Layer_1" xmlns="http://www.w3.org/2000/svg" xmlns:xlink="http://www.w3.org/1999/xlink" x="0px" y="0px"
	 viewBox="0 0 16 16" style="enable-background:new 0 0 16 16;" xml:space="preserve">
<style type="text/css">
	.st0{display:none;}
	.st1{fill:#3FA9F5;}
	.st2{fill:#404040;}
</style>
<g id="Layer_2">
	<path class="st1" d="M13.8,8.1V5.7c0-0.9-0.6-1.5-1.4-1.5h-1.7V1H9.1v3.1H7.5c-0.4,0-0.8,0.2-1,0.5C6.1,5.1,6,5.6,6,5.7
		C6,6.4,6,7.2,6,8c0,0,0,0,0,0.1H4.4l2.4,3.1l2.4-3.1H7.6l0,0c0-0.7-0.1-1.6-0.1-2.4V5.6l4.9,0.1v2.4h-1.6l2.4,3.1l2.4-3.1H13.8z"/>
</g>
<g id="Layer_2_1_">
	<path class="st2" d="M10.6,12.1V9.7c0-0.9-0.6-1.5-1.4-1.5H7.4V5H5.8v3.1H4.2c-0.4,0-0.8,0.2-1,0.5C2.8,9.1,2.7,9.6,2.7,9.7
		c0,0.7,0,1.5,0,2.3c0,0,0,0,0,0.1H1.1l2.4,3.1l2.4-3.1H4.3l0,0c0-0.7-0.1-1.6-0.1-2.4V9.6l4.9,0.1v2.4H7.4l2.4,3.1l2.4-3.1H10.6z"
		/>
</g>
</svg>
