<?xml version="1.0" encoding="utf-8"?>
<!-- Generator: Adobe Illustrator 20.0.0, SVG Export Plug-In . SVG Version: 6.00 Build 0)  -->
<svg version="1.1" id="Layer_2" xmlns="http://www.w3.org/2000/svg" xmlns:xlink="http://www.w3.org/1999/xlink" x="0px" y="0px"
	 viewBox="0 0 16 16" style="enable-background:new 0 0 16 16;" xml:space="preserve">
<style type="text/css">
	.st0{fill:none;stroke:#F7A808;stroke-width:1.1472;stroke-miterlimit:10;}
	.st1{fill:#F7A808;}
	.st2{fill:none;stroke:#404040;stroke-width:0.66;stroke-miterlimit:10;}
	.st3{fill:#404040;}
</style>
<ellipse class="st0" cx="5.5" cy="5" rx="3.7" ry="2"/>
<path class="st1" d="M9.8,4.6v6.5v-0.1c0,1.1-1.9,2-4.3,2s-4.2-0.9-4.2-2v0.1V4.7c0,0,0.3,1.8,4.2,1.9C8.7,6.6,9.8,4.6,9.8,4.6z"/>
<path class="st2" d="M11.8,14.2"/>
<g id="Layer_3">
	<path class="st3" d="M13.8,2.9c0,1-0.8,1.8-1.8,1.8h-0.2c-1,0-1.8-0.8-1.8-1.8V2.8c0-1,0.8-1.8,1.8-1.8H12C13,1,13.8,1.8,13.8,2.9
		L13.8,2.9z"/>
	<path class="st3" d="M12.1,7.8"/>
	<path class="st3" d="M14.5,5h-5C9.2,5,9,5.2,9,5.4C9,6.6,9,10,9,10h1v4.6c0,0.2,0.2,0.4,0.4,0.4c0.8,0,2.4,0,3.2,0
		c0.2,0,0.4-0.2,0.4-0.4V10h1c0,0.1,0-3.3,0-4.5C15,5.2,14.8,5,14.5,5z"/>
</g>
</svg>
