<?xml version="1.0" encoding="utf-8"?>
<!-- Generator: Adobe Illustrator 20.0.0, SVG Export Plug-In . SVG Version: 6.00 Build 0)  -->
<svg version="1.1" id="Layer_2" xmlns="http://www.w3.org/2000/svg" xmlns:xlink="http://www.w3.org/1999/xlink" x="0px" y="0px"
	 viewBox="0 0 16 16" style="enable-background:new 0 0 16 16;" xml:space="preserve">
<style type="text/css">
	.st0{fill:#404040;}
	.st1{fill:none;stroke:#F7A808;stroke-width:0.9071;stroke-miterlimit:10;}
	.st2{fill:#F7A808;}
	.st3{fill:none;stroke:#404040;stroke-width:0.66;stroke-miterlimit:10;}
	.st4{fill:none;stroke:#404040;stroke-width:1.6683;stroke-miterlimit:10;}
	.st5{fill:#4FBC78;}
</style>
<rect x="12" y="9.1" class="st0" width="2" height="3.7"/>
<ellipse class="st1" cx="4.9" cy="8.9" rx="2.9" ry="1.6"/>
<path class="st2" d="M8.3,8.6v5.1v-0.1c0,0.9-1.5,1.6-3.4,1.6s-3.3-0.7-3.3-1.6v0.1v-5c0,0,0.2,1.4,3.3,1.5
	C7.4,10.2,8.3,8.6,8.3,8.6z"/>
<path class="st3" d="M11.8,14.2"/>
<polyline class="st4" points="9.7,3.6 4.6,3.6 4.6,6.9 "/>
<g>
	<polygon class="st0" points="4.9,9.2 6.5,6 2.8,6 	"/>
</g>
<path class="st5" d="M12.8,1C11.3,1,10,2.9,10,5.4s1.3,4.3,2.8,4.3s2.8-1.9,2.8-4.3S14.3,1,12.8,1L12.8,1z"/>
</svg>
