<?xml version="1.0" encoding="utf-8"?>
<!-- Generator: Adobe Illustrator 20.0.0, SVG Export Plug-In . SVG Version: 6.00 Build 0)  -->
<svg version="1.1" id="Layer_1" xmlns="http://www.w3.org/2000/svg" xmlns:xlink="http://www.w3.org/1999/xlink" x="0px" y="0px"
	 viewBox="0 0 16 16" style="enable-background:new 0 0 16 16;" xml:space="preserve">
<style type="text/css">
	.st0{fill:none;}
	.st1{fill:#404040;}
	.st2{fill:#4FBC78;}
</style>
<g id="Layer_3">
</g>
<line class="st0" x1="8" y1="5" x2="1" y2="5"/>
<path class="st1" d="M7,10V6h1v4H7z"/>
<polygon class="st1" points="6,10 3,10 3,6 4,6 6,6 6,7 4,7 4,9 4,9 5,9 5,9 5,8 6,8 "/>
<polygon class="st1" points="10,7 9,7 9,6 12,6 12,7 11,7 11,10 10,10 "/>
<g>
	<path class="st1" d="M2,5h12v6H2V5 M1,4v8h14V4H1L1,4z"/>
</g>
<polygon class="st2" points="16,11 14,11 14,9 12,9 12,11 10,11 10,13 12,13 12,15 14,15 14,13 16,13 "/>
</svg>
