<?xml version="1.0" encoding="utf-8"?>
<!-- Generator: Adobe Illustrator 20.0.0, SVG Export Plug-In . SVG Version: 6.00 Build 0)  -->
<svg version="1.1" id="Layer_2" xmlns="http://www.w3.org/2000/svg" xmlns:xlink="http://www.w3.org/1999/xlink" x="0px" y="0px"
	 viewBox="0 0 16 16" style="enable-background:new 0 0 16 16;" xml:space="preserve">
<style type="text/css">
	.st0{fill:#3FA9F5;}
</style>
<g id="Layer_2_1_">
	<path class="st0" d="M13,10.4v-3c0-1.1-0.8-1.9-1.8-1.9H9V1.4H7v4H4.9c-0.5,0-1,0.2-1.3,0.6C3.1,6.6,3,7.2,3,7.4c0,0.9,0,1.9,0,2.9
		c0,0,0,0,0,0.1H1l3,4l3-4H5l0,0c0-0.9-0.1-2.1-0.1-3V7.3l6.2,0.1v3H9l3,4l3-4H13z"/>
</g>
</svg>
