<?xml version="1.0" encoding="utf-8"?>
<!-- Generator: Adobe Illustrator 20.0.0, SVG Export Plug-In . SVG Version: 6.00 Build 0)  -->
<svg version="1.1" id="Layer_2" xmlns="http://www.w3.org/2000/svg" xmlns:xlink="http://www.w3.org/1999/xlink" x="0px" y="0px"
	 viewBox="0 0 31 31" style="enable-background:new 0 0 31 31;" xml:space="preserve">
<style type="text/css">
	.st0{fill:#404040;}
	.st1{fill-rule:evenodd;clip-rule:evenodd;fill:#3FA9F5;}
	.st2{fill:none;stroke:#404040;stroke-width:1.0396;stroke-miterlimit:10;}
	.st3{fill:none;stroke:#CDCDCD;stroke-miterlimit:10;}
</style>
<g>
	<path class="st0" d="M21.6,7.1v5h-5.2v-5H21.6 M22.6,6.1h-7.2v7h7.2V6.1L22.6,6.1z"/>
</g>
<g>
	<rect x="16" y="6.6" class="st1" width="5.9" height="2"/>
	<path class="st0" d="M21.4,7.2V8h-4.7V7.2H21.4 M22.6,6h-7.1v3.2h7.1V6L22.6,6z"/>
</g>
<g>
	<path class="st0" d="M13.8,15.2v5H8.6v-5H13.8 M14.8,14.2H7.6v7h7.2V14.2L14.8,14.2z"/>
</g>
<g>
	<rect x="8.2" y="14.8" class="st1" width="6" height="1.9"/>
	<path class="st0" d="M13.6,15.4v0.8H8.8v-0.8H13.6 M14.8,14.2H7.6v3.1h7.1V14.2L14.8,14.2z"/>
</g>
<polyline class="st2" points="12.6,8.7 9.1,8.7 9.1,11.2 "/>
<polygon class="st0" points="12.5,10.2 12.4,7.1 14.2,8.6 "/>
<polygon class="st0" points="7.5,11.2 10.7,11.2 9.1,13 "/>
<line class="st3" x1="1.6" y1="2.5" x2="29.4" y2="2.5"/>
<line class="st3" x1="1.5" y1="25.6" x2="29.3" y2="25.6"/>
</svg>
