<?xml version="1.0" encoding="utf-8"?>
<!-- Generator: Adobe Illustrator 20.0.0, SVG Export Plug-In . SVG Version: 6.00 Build 0)  -->
<svg version="1.1" id="Layer_1" xmlns="http://www.w3.org/2000/svg" xmlns:xlink="http://www.w3.org/1999/xlink" x="0px" y="0px"
	 viewBox="0 0 16 16" style="enable-background:new 0 0 16 16;" xml:space="preserve">
<style type="text/css">
	.st0{display:none;}
	.st1{display:inline;fill:#3C3C3B;}
	.st2{display:inline;fill:#F7A808;}
	.st3{fill:#404040;}
</style>
<g id="Layer_1_1_" class="st0">
	<path class="st1" d="M2.4,3.8v9.7h11.2V3.8h-2.8V2.3h4.3v12.8H0.9V2.3h4.9v1.6C5.7,3.8,2.4,3.8,2.4,3.8z"/>
	<path class="st2" d="M11.4,6.9l-3.2,4.5L5,6.9h1.4v-6H10v6H11.4z"/>
</g>
<g>
	<path class="st3" d="M14,2v12H2V2H14L14,2z M15,1H1v14h14V1z"/>
</g>
<g>
	<path class="st3" d="M6,13l-3-3V7c0,0,2.5,2.6,3,3c2.3-2.1,7-7,7-7c-0.1,0,0,3,0,3L6,13z"/>
</g>
</svg>
