<?xml version="1.0" encoding="utf-8"?>
<!-- Generator: Adobe Illustrator 20.0.0, SVG Export Plug-In . SVG Version: 6.00 Build 0)  -->
<svg version="1.1" id="Layer_1" xmlns="http://www.w3.org/2000/svg" xmlns:xlink="http://www.w3.org/1999/xlink" x="0px" y="0px"
	 viewBox="0 0 16 16" style="enable-background:new 0 0 16 16;" xml:space="preserve">
<style type="text/css">
	.st0{display:none;}
	.st1{fill:#404040;}
	.st2{fill:none;stroke:#F7A808;stroke-width:0.8749;stroke-miterlimit:10;}
	.st3{fill:#F7A808;}
	.st4{fill:none;stroke:#404040;stroke-miterlimit:10;}
</style>
<rect x="1.1" y="2.6" class="st1" width="6.1" height="1"/>
<polygon class="st1" points="5.1,0.6 5.1,5.6 8.1,3.2 "/>
<polygon class="st1" points="5.1,10.6 5.1,15.7 8.1,13.2 "/>
<rect x="1" y="12.7" class="st1" width="6.1" height="0.9"/>
<ellipse transform="matrix(6.138399e-03 -1 1 6.138399e-03 5.697 17.6257)" class="st2" cx="11.7" cy="5.9" rx="1.5" ry="2.8"/>
<path class="st3" d="M14.9,5.7l0,4.8l0-0.1c0,0.8-1.4,1.5-3.3,1.5s-3.2-0.7-3.2-1.5v0.1V5.7c0,0,0.2,1.5,3.2,1.5
	C14.2,7.2,14.9,5.7,14.9,5.7z"/>
<line class="st4" x1="9" y1="3.1" x2="9" y2="0"/>
<line class="st4" x1="9" y1="15.4" x2="9" y2="12.4"/>
</svg>
