<?xml version="1.0" encoding="utf-8"?>
<!-- Generator: Adobe Illustrator 20.0.0, SVG Export Plug-In . SVG Version: 6.00 Build 0)  -->
<svg version="1.1" id="Layer_2" xmlns="http://www.w3.org/2000/svg" xmlns:xlink="http://www.w3.org/1999/xlink" x="0px" y="0px"
	 viewBox="0 0 16 16" style="enable-background:new 0 0 16 16;" xml:space="preserve">
<style type="text/css">
	.st0{fill:none;stroke:#F7A808;stroke-width:1.1472;stroke-miterlimit:10;}
	.st1{fill:#F7A808;}
	.st2{fill:none;stroke:#404040;stroke-miterlimit:10;}
	.st3{fill:#404040;}
	.st4{fill:none;stroke:#909090;stroke-miterlimit:10;}
</style>
<ellipse class="st0" cx="5.5" cy="5" rx="3.7" ry="2"/>
<path class="st1" d="M9.7,4.6l0,2.4L8,7c0,0.7,0,5,0,5.6C8,13,6.4,13,5.5,13c-2.4,0-4.2-0.9-4.2-2v0.1V4.7c0,0,0.3,1.8,4.2,1.9
	C8.7,6.6,9.7,4.6,9.7,4.6z"/>
<path class="st2" d="M11.8,14.2"/>
<g>
	<path class="st3" d="M14,7v6.7H8V7H14 M15,6H7v8.7h8V6L15,6z"/>
</g>
<g>
	<line class="st4" x1="9" y1="8.4" x2="13" y2="8.4"/>
</g>
<g>
	<line class="st4" x1="9" y1="10.2" x2="13" y2="10.2"/>
</g>
<g>
	<line class="st4" x1="9" y1="12.3" x2="13" y2="12.3"/>
</g>
</svg>
