<?xml version="1.0" encoding="utf-8"?>
<!-- Generator: Adobe Illustrator 20.0.0, SVG Export Plug-In . SVG Version: 6.00 Build 0)  -->
<svg version="1.1" id="Layer_2" xmlns="http://www.w3.org/2000/svg" xmlns:xlink="http://www.w3.org/1999/xlink" x="0px" y="0px"
	 viewBox="0 0 16 16" style="enable-background:new 0 0 16 16;" xml:space="preserve">
<style type="text/css">
	.st0{fill:#3FA9F5;}
	.st1{fill:#404040;}
</style>
<g>
	<path class="st0" d="M11,4.8l0,9.2L2,14V1.7H8L11,4.8z M1,1v14h11V4.3L8.5,1H1z"/>
</g>
<polygon class="st0" points="8,1.1 8,5 12,5 "/>
<polygon class="st1" points="13,10 12,10 12,8 9,8 9,11 11,11 11,12 9,12 9,15.1 12,15 12,13 13,13 13,15 16,15 16,12 14,12 14,11 
	16,11 15.9,8 13,8 "/>
</svg>
