<?xml version="1.0" encoding="utf-8"?>
<!-- Generator: Adobe Illustrator 20.0.0, SVG Export Plug-In . SVG Version: 6.00 Build 0)  -->
<svg version="1.1" id="Layer_2" xmlns="http://www.w3.org/2000/svg" xmlns:xlink="http://www.w3.org/1999/xlink" x="0px" y="0px"
	 viewBox="0 0 16 16" style="enable-background:new 0 0 16 16;" xml:space="preserve">
<style type="text/css">
	.st0{fill:#F7A808;}
	.st1{fill:#CDCDCD;}
	.st2{fill:#404040;}
</style>
<polygon class="st0" points="9.1,10.6 8.1,10.6 8,11.6 6.1,11.6 6.1,12.7 9.1,12.6 "/>
<g>
	<rect x="9.1" y="9.6" class="st1" width="5" height="3"/>
</g>
<g>
	<path class="st2" d="M13.1,1.7v5.9h-11V1.7H13.1 M14.1,0.7h-13v7.9h13V0.7L14.1,0.7z"/>
</g>
<g>
	<polygon points="-10.5,-4.4 -10.6,-4.4 -10.6,-4.3 -10.5,-4.3 -10.5,-4.4 	"/>
</g>
<g>
	<rect x="1.1" y="9.6" class="st1" width="5" height="3"/>
</g>
<polygon class="st0" points="16,10.6 15.1,10.6 15.1,11.6 14.1,11.6 14.1,12.6 13.1,12.6 13.1,13.6 12.1,13.6 12.1,14.6 16,14.6 "/>
<g>
	<path class="st2" d="M9.1,9.6v3h-3v-3H9.1 M10.1,8.6h-5v5h5V8.6L10.1,8.6z"/>
</g>
<path class="st2" d="M7,6.6v-4h1v4H7z"/>
<polygon class="st2" points="6,6.6 3,6.6 3,2.6 4,2.6 6,2.6 6,3.6 4,3.6 4,5.6 4,5.6 5,5.6 5,5.6 5,4.6 6,4.6 "/>
<polygon class="st2" points="10,3.6 9,3.6 9,2.6 12,2.6 12,3.6 11,3.6 11,6.6 10,6.6 "/>
</svg>
