<?xml version="1.0" encoding="utf-8"?>
<!-- Generator: Adobe Illustrator 20.0.0, SVG Export Plug-In . SVG Version: 6.00 Build 0)  -->
<svg version="1.1" id="Layer_2" xmlns="http://www.w3.org/2000/svg" xmlns:xlink="http://www.w3.org/1999/xlink" x="0px" y="0px"
	 viewBox="0 0 16 16" style="enable-background:new 0 0 16 16;" xml:space="preserve">
<style type="text/css">
	.st0{fill:#404040;}
	.st1{fill:#4FBC78;}
</style>
<polyline class="st0" points="12,10 12,13 14,13 14,8 13,8 13,10 12,10 "/>
<polygon class="st0" points="10,8 8,8 8,7 8,5 9,5 9,2 7,2 7,7 5,7 2,7 2,7 2,13 4,13 4,9 10,9 "/>
<polygon class="st0" points="0,11 6,11 3,15 "/>
<polygon class="st0" points="10,10.7 16,10.7 13,14.7 "/>
<path class="st1" d="M11,3C8.7,3,7,4.9,7,7s1.7,4,4,4s4-1.9,4-4S13.3,3,11,3z M14,8h-2v2h-2V8H8V6h2V4h2v2h2v1V8z"/>
</svg>
