<?xml version="1.0" encoding="utf-8"?>
<!-- Generator: Adobe Illustrator 20.0.0, SVG Export Plug-In . SVG Version: 6.00 Build 0)  -->
<svg version="1.1" id="Layer_2" xmlns="http://www.w3.org/2000/svg" xmlns:xlink="http://www.w3.org/1999/xlink" x="0px" y="0px"
	 viewBox="0 0 16 16" style="enable-background:new 0 0 16 16;" xml:space="preserve">
<style type="text/css">
	.st0{fill:none;stroke:#F7A808;stroke-width:1.4853;stroke-miterlimit:10;}
	.st1{fill:#F7A808;}
	.st2{fill:none;stroke:#404040;stroke-width:0.7883;stroke-miterlimit:10;}
	.st3{fill:#FFFFFF;}
	.st4{fill:none;}
	.st5{fill:#404040;}
	.st6{fill:#4FBC78;}
</style>
<g>
	<path class="st0" d="M9.2,6.9C8.4,7.3,6.8,7.7,5.6,7.6C3,7.6,0.9,6.4,0.9,5S3,2.4,5.6,2.4c1.3,0,3.7,0.7,4.5,1.1"/>
	<path class="st1" d="M5.5,7.9c1.8-0.1,2.8,0.5,3.6-0.1c0.3-0.2,1-0.3,1.2-0.5c0.7-0.7,0.6,0.3,0.6,0.3l-0.1,4.8l0.1-0.2
		c0,1.3-2.4,2.4-5.4,2.4s-5.4-1.1-5.4-2.4v0.1V4.6C0.2,4.6,1.4,7.8,5.5,7.9z"/>
</g>
<path class="st2" d="M13.1,14.1"/>
<g>
	<rect x="1" y="9" class="st3" width="12" height="6"/>
	<line class="st4" x1="7" y1="9" x2="0" y2="9"/>
	<path class="st5" d="M6,14v-4h1v4H6z"/>
	<polygon class="st5" points="5,14 2,14 2,10 2.9,10 5,10 5,11 3,11 3,13 3,13 4,13 4,13 4,12 5,12 	"/>
	<polygon class="st5" points="9,11 8,11 8,10 11,10 11,11 10,11 10,14 9,14 	"/>
	<g>
		<path class="st5" d="M1,9h12v6H1V9 M0,8v8h14V8H0L0,8z"/>
	</g>
</g>
<path class="st6" d="M11.7,2.5C9.6,2.5,8,4.2,8,6.3S9.6,10,11.7,10s3.7-1.7,3.7-3.7S13.8,2.5,11.7,2.5z M14,7h-2v2h-1V7H9V6h2V4h1v2
	h2V7z"/>
<polygon class="st3" points="14,7 12,7 12,9 11,9 11,7 9,7 9,6 11,6 11,4 12,4 12,6 14,6 "/>
</svg>
