<?xml version="1.0" encoding="utf-8"?>
<!-- Generator: Adobe Illustrator 20.0.0, SVG Export Plug-In . SVG Version: 6.00 Build 0)  -->
<svg version="1.1" id="Layer_1" xmlns="http://www.w3.org/2000/svg" xmlns:xlink="http://www.w3.org/1999/xlink" x="0px" y="0px"
	 viewBox="0 0 16 16" style="enable-background:new 0 0 16 16;" xml:space="preserve">
<style type="text/css">
	.st0{fill:#4FBC78;}
	.st1{fill:#404040;}
</style>
<rect x="1.1" y="6.6" class="st0" width="11" height="3"/>
<polygon class="st0" points="11.1,11.6 11.1,4.6 16,8.1 "/>
<rect x="0.1" y="7.7" class="st0" width="1" height="1"/>
<polygon class="st1" points="7.1,6.6 7.1,5.6 6.1,5.6 6.1,1.6 7.1,1.6 7.1,0.6 9.1,0.6 9.1,1.6 10.1,1.6 10.1,5.6 9.1,5.6 9.1,6.6 
	"/>
<polygon class="st1" points="9.1,9.6 9.1,10.6 10.1,10.6 10.1,14.6 9.1,14.6 9.1,15.6 7.1,15.6 7.1,14.6 6.1,14.6 6.1,10.6 
	7.1,10.6 7.1,9.6 "/>
</svg>
