<?xml version="1.0" encoding="utf-8"?>
<!-- Generator: Adobe Illustrator 20.0.0, SVG Export Plug-In . SVG Version: 6.00 Build 0)  -->
<svg version="1.1" id="Layer_1" xmlns="http://www.w3.org/2000/svg" xmlns:xlink="http://www.w3.org/1999/xlink" x="0px" y="0px"
	 viewBox="0 0 16 16" style="enable-background:new 0 0 16 16;" xml:space="preserve">
<style type="text/css">
	.st0{fill:#404040;}
	.st1{fill:none;}
	.st2{fill:#4FBC78;}
</style>
<path class="st0" d="M15,4.2c-0.1-1.7-2.4-2.7-5.3-2.7s-5.3,1-5.3,2.7v7.1c0,0,0.4,2.5,5.3,2.7c5.1,0.2,5.3-2.7,5.3-2.7
	S15.1,4.9,15,4.2z M9.7,5.9C7.3,5.9,5.8,5,5.8,4.3s1.5-1.5,3.9-1.5s3.9,0.9,3.8,1.5C13.5,5,12.1,5.9,9.7,5.9z"/>
<rect x="-0.2" y="0.1" class="st1" width="16" height="16"/>
<polygon class="st2" points="6,8 4,8 4,10 5,10 3,12.7 1,10 2,10 2,6.1 6,6.1 "/>
</svg>
