<?xml version="1.0" encoding="utf-8"?>
<!-- Generator: Adobe Illustrator 20.0.0, SVG Export Plug-In . SVG Version: 6.00 Build 0)  -->
<svg version="1.1" id="Layer_1" xmlns="http://www.w3.org/2000/svg" xmlns:xlink="http://www.w3.org/1999/xlink" x="0px" y="0px"
	 viewBox="0 0 16 16" style="enable-background:new 0 0 16 16;" xml:space="preserve">
<style type="text/css">
	.st0{fill:none;}
	.st1{fill:#404040;}
	.st2{fill:#FF6F6F;}
</style>
<rect x="-0.2" y="0.1" class="st0" width="16" height="16"/>
<path class="st1" d="M15,4.2c-0.1-1.7-2.4-2.7-5.3-2.7s-5.3,1-5.3,2.7v7.1c0,0,0.4,2.5,5.3,2.7c5.1,0.2,5.3-2.7,5.3-2.7
	S15.1,4.9,15,4.2z M9.7,5.9C7.3,5.9,5.8,5,5.8,4.3s1.5-1.5,3.9-1.5s3.9,0.9,3.8,1.5C13.5,5,12.1,5.9,9.7,5.9z"/>
<polygon class="st2" points="4,9 4,8 6.7,10.2 4,12 4,11 1,11 1,9 "/>
</svg>
