<?xml version="1.0" encoding="utf-8"?>
<!-- Generator: Adobe Illustrator 20.0.0, SVG Export Plug-In . SVG Version: 6.00 Build 0)  -->
<svg version="1.1" id="Layer_2" xmlns="http://www.w3.org/2000/svg" xmlns:xlink="http://www.w3.org/1999/xlink" x="0px" y="0px"
	 viewBox="0 0 16 16" style="enable-background:new 0 0 16 16;" xml:space="preserve">
<style type="text/css">
	.st0{fill:none;stroke:#F7A808;stroke-width:0.7874;stroke-miterlimit:10;}
	.st1{fill:#F7A808;}
	.st2{fill:none;stroke:#404040;stroke-width:0.66;stroke-miterlimit:10;}
	.st3{fill:none;stroke:#F7A808;stroke-width:0.7899;stroke-miterlimit:10;}
	.st4{fill:#FFFFFF;stroke:#F7A808;stroke-width:0.7899;stroke-miterlimit:10;}
</style>
<path class="st0" d="M5,2.3c1.4,0,2.5,0.5,2.5,1.3S6.4,5,5,5S2.5,4.4,2.5,3.7S3.6,2.3,5,2.3z"/>
<path class="st1" d="M7.9,3.6v4.5l0,0.1C7.7,8.9,6.7,9.3,5,9.3S2.1,8.7,2.1,8V8V3.6c0,0,0.2,1.2,2.9,1.3C7.2,4.9,7.9,3.6,7.9,3.6z"
	/>
<path class="st2" d="M11.8,14.2"/>
<path class="st3" d="M11.5,5.3c1.4,0,2.5,0.5,2.5,1.3S12.9,8,11.5,8S9,7.4,9,6.7S10.1,5.3,11.5,5.3z"/>
<path class="st1" d="M14.4,6.6v4.6l0,0.1c-0.2,0.6-1.2,1.1-2.9,1.1S8.6,11.7,8.6,11v0.1V6.6c0,0,0.2,1.2,2.9,1.3
	C13.7,7.9,14.4,6.6,14.4,6.6z"/>
<path class="st4" d="M7.7,7.8c1.4,0,2.5,0.5,2.5,1.3s-1.1,1.4-2.5,1.4S5.2,9.9,5.2,9.1S6.3,7.8,7.7,7.8z"/>
<path class="st1" d="M10.6,9.1v4.6l0,0.1c-0.2,0.6-1.2,1.1-2.9,1.1s-2.9-0.6-2.9-1.4v0.1V9.1c0,0,0.2,1.2,2.9,1.3
	C10,10.4,10.6,9.1,10.6,9.1z"/>
</svg>
