<?xml version="1.0" encoding="utf-8"?>
<!-- Generator: Adobe Illustrator 20.0.0, SVG Export Plug-In . SVG Version: 6.00 Build 0)  -->
<svg version="1.1" id="Layer_2" xmlns="http://www.w3.org/2000/svg" xmlns:xlink="http://www.w3.org/1999/xlink" x="0px" y="0px"
	 viewBox="0 0 16 16" style="enable-background:new 0 0 16 16;" xml:space="preserve">
<style type="text/css">
	.st0{fill:#3FA9F5;}
</style>
<g>
	<path class="st0" d="M2.1,5.9c0.1,0.4,0.2,0.6,0.3,0.8C2.6,7,3.1,7.2,3.8,7.2c0.4,0,0.7,0,1-0.1c0.5-0.2,0.7-0.5,0.7-0.9
		c0-0.3-0.1-0.5-0.3-0.6C4.9,5.4,4.5,5.3,4,5.2L3.2,5C2.3,4.8,1.7,4.6,1.4,4.4C0.9,4,0.6,3.5,0.6,2.7c0-0.7,0.3-1.3,0.8-1.8
		s1.3-0.7,2.3-0.7c0.9,0,1.6,0.2,2.2,0.7C6.5,1.3,6.8,2,6.8,2.8H5.2c0-0.5-0.2-0.8-0.6-1C4.3,1.7,4,1.6,3.6,1.6
		c-0.4,0-0.8,0.1-1.1,0.3C2.3,2,2.1,2.3,2.1,2.6c0,0.3,0.1,0.5,0.4,0.6C2.7,3.3,3,3.4,3.6,3.5L5,3.9C5.6,4,6.1,4.2,6.4,4.4
		C6.8,4.8,7.1,5.3,7.1,6c0,0.7-0.3,1.3-0.8,1.8C5.7,8.3,4.9,8.5,3.8,8.5C2.8,8.5,2,8.3,1.4,7.8C0.8,7.4,0.5,6.7,0.5,5.9H2.1z"/>
	<path class="st0" d="M8.2,8.3V0.5h1.7v3H13v-3h1.7v7.9H13V4.8H9.9v3.5H8.2z"/>
</g>
<path class="st0" d="M3.3,7.9h1.9l2.8,8H6.2l-0.5-1.6H2.7l-0.5,1.6H0.4L3.3,7.9z M3.2,12.9h2l-1-3.1L3.2,12.9z"/>
<path class="st0" d="M9.6,10.5V9.5c0.5,0,0.8-0.1,1-0.1c0.3-0.1,0.6-0.2,0.8-0.4c0.1-0.1,0.2-0.3,0.3-0.6c0-0.1,0.1-0.2,0.1-0.3H13
	V16h-1.6v-5.4H9.6z"/>
</svg>
