<?xml version="1.0" encoding="utf-8"?>
<!-- Generator: Adobe Illustrator 20.0.0, SVG Export Plug-In . SVG Version: 6.00 Build 0)  -->
<svg version="1.1" id="Layer_2" xmlns="http://www.w3.org/2000/svg" xmlns:xlink="http://www.w3.org/1999/xlink" x="0px" y="0px"
	 viewBox="0 0 16 16" style="enable-background:new 0 0 16 16;" xml:space="preserve">
<style type="text/css">
	.st0{fill:#3FA9F5;}
	.st1{fill:#404040;}
	.st2{fill:#FFFFFF;}
	.st3{fill:none;stroke:#404040;stroke-width:1.2074;stroke-miterlimit:10;}
	.st4{fill:none;stroke:#404040;stroke-width:1.2186;stroke-miterlimit:10;}
</style>
<g>
	<path class="st0" d="M13.8,6.8v6H5v-6H13.8 M14.9,5.8h-11v8h11V5.8z"/>
</g>
<polygon class="st1" points="5,4 5,2 11,2 11,4 15,4 15,15 1,15 1,4 "/>
<g>
	<rect x="4.6" y="6.8" class="st2" width="10.2" height="7.6"/>
	<path class="st0" d="M14.3,7.2V14H5V7.2H14.3 M15.2,6.4h-0.8H5H4.2v0.8V14v0.8H5h9.3h0.8V14V7.2V6.4L15.2,6.4z"/>
</g>
<g>
	<path class="st3" d="M12.7,9.4"/>
	<path class="st3" d="M7.1,9.4"/>
</g>
<g>
	<path class="st4" d="M12.9,11.3"/>
	<path class="st4" d="M7.3,11.3"/>
</g>
<path class="st1" d="M8,8v4H7V8.7H6V8H8z"/>
<path class="st1" d="M11,8v4h3V8H11z M13,11h-1V8.8h1V11z"/>
<rect x="9" y="11" class="st1" width="1" height="1"/>
</svg>
