<?xml version="1.0" encoding="utf-8"?>
<!-- Generator: Adobe Illustrator 19.2.1, SVG Export Plug-In . SVG Version: 6.00 Build 0)  -->
<svg version="1.1" id="Layer_1" xmlns="http://www.w3.org/2000/svg" xmlns:xlink="http://www.w3.org/1999/xlink" x="0px" y="0px"
	 viewBox="0 0 16 16" style="enable-background:new 0 0 16 16;" xml:space="preserve">
<style type="text/css">
	.st0{fill:#404040;}
</style>
<path class="st0" d="M14,2v12.1H2L2,1.9L14,2z M14.9,1H1L1,15H15L14.9,1L14.9,1z"/>
<g>
	<path class="st0" d="M10.7,9c0-1-0.1-2.3-0.1-3.6h0c-0.3,1.1-0.6,2.3-1,3.4l-1.1,3.4H7.1L6.1,8.8c-0.3-1-0.6-2.3-0.8-3.4h0
		C5.3,6.6,5.2,8,5.2,9L5,12.3H3.2l0.6-8.7h2.6l0.9,2.9c0.3,1,0.5,2.1,0.7,3.1h0c0.2-1,0.5-2.2,0.8-3.1l0.9-2.9h2.6l0.5,8.7h-1.9
		L10.7,9z"/>
</g>
</svg>
