<?xml version="1.0" encoding="utf-8"?>
<!-- Generator: Adobe Illustrator 20.0.0, SVG Export Plug-In . SVG Version: 6.00 Build 0)  -->
<svg version="1.1" id="Layer_2" xmlns="http://www.w3.org/2000/svg" xmlns:xlink="http://www.w3.org/1999/xlink" x="0px" y="0px"
	 viewBox="0 0 16 16" style="enable-background:new 0 0 16 16;" xml:space="preserve">
<style type="text/css">
	.st0{fill:#FF6F6F;}
	.st1{fill:none;}
	.st2{enable-background:new    ;}
	.st3{fill:#FFFFFF;}
</style>
<g>
	<polygon class="st0" points="10.8,1.2 14.8,5.2 14.8,10.8 10.8,14.8 5.2,14.8 1.2,10.8 1.2,5.2 5.2,1.2 	"/>
</g>
<rect x="4.1" y="3.6" class="st1" width="9" height="9"/>
<g class="st2">
	<path class="st3" d="M10,3.8c0.6,0.2,1.1,0.6,1.5,1.1c0.3,0.4,0.5,0.9,0.6,1.4s0.2,1,0.2,1.4c0,1.1-0.2,2.1-0.7,2.9
		c-0.6,1.1-1.6,1.6-2.9,1.6H5V3.6h3.7C9.2,3.6,9.7,3.7,10,3.8z M6.7,5.1v5.6h1.7c0.9,0,1.4-0.4,1.8-1.3c0.2-0.5,0.3-1,0.3-1.6
		c0-0.9-0.1-1.6-0.4-2C9.8,5.4,9.2,5.1,8.4,5.1H6.7z"/>
</g>
</svg>
