<?xml version="1.0" encoding="utf-8"?>
<!-- Generator: Adobe Illustrator 20.0.0, SVG Export Plug-In . SVG Version: 6.00 Build 0)  -->
<svg version="1.1" id="Layer_3" xmlns="http://www.w3.org/2000/svg" xmlns:xlink="http://www.w3.org/1999/xlink" x="0px" y="0px"
	 viewBox="0 0 16 16" style="enable-background:new 0 0 16 16;" xml:space="preserve">
<style type="text/css">
	.st0{fill:#404040;}
	.st1{fill:#FFFFFF;}
	.st2{fill:#3FA9F5;}
</style>
<polygon class="st0" points="9,3 9,1 3,1 3,3 0,3 0,5 1,5 1,10 11,10 11,5 12,5 12,3 "/>
<g>
	<polygon class="st0" points="12,8.1 12,6 6,6 6,8 3,8 3,10 4.1,10 4.1,15 14,15 14,10 15,10 15,8.1 	"/>
</g>
<g>
	<rect x="7" y="10" class="st1" width="6" height="5"/>
	<path class="st2" d="M13,10v5l-6,0v-5H13 M14,9L6.1,9l0,7H14L14,9z"/>
</g>
<rect x="8" y="11" class="st0" width="2" height="3"/>
<rect x="11" y="11.1" class="st0" width="1" height="3"/>
</svg>
