<?xml version="1.0" encoding="utf-8"?>
<!-- Generator: Adobe Illustrator 20.0.0, SVG Export Plug-In . SVG Version: 6.00 Build 0)  -->
<svg version="1.1" id="Layer_1" xmlns="http://www.w3.org/2000/svg" xmlns:xlink="http://www.w3.org/1999/xlink" x="0px" y="0px"
	 viewBox="0 0 16 16" style="enable-background:new 0 0 16 16;" xml:space="preserve">
<style type="text/css">
	.st0{fill:#3FA9F5;}
</style>
<rect x="7.1" y="12.4" class="st0" width="2" height="2"/>
<path class="st0" d="M5.7,2C6.3,1.5,7,1.3,7.9,1.3c1.1,0,2.1,0.3,2.8,1c0.7,0.6,1.1,1.6,1.1,2.8c0,0.8-0.2,1.4-0.5,1.9
	c-0.2,0.3-0.6,0.7-1.1,1.2L9.7,8.7C9.4,9,9.2,9.3,9.1,9.7C9,9.9,9,10.2,9,10.7H7c0-1,0.1-1.7,0.2-2.1c0.1-0.4,0.5-0.8,1-1.3l0.5-0.5
	c0.2-0.2,0.3-0.3,0.4-0.5C9.4,6,9.5,5.6,9.5,5.2c0-0.4-0.1-0.9-0.3-1.2C8.9,3.6,8.5,3.4,8,3.4c-0.6,0-1,0.2-1.2,0.7
	C6.5,4.6,6.4,5.1,6.4,5.5H4.2C4.3,3.9,4.7,2.7,5.7,2"/>
</svg>
