<?xml version="1.0" encoding="utf-8"?>
<!-- Generator: Adobe Illustrator 20.0.0, SVG Export Plug-In . SVG Version: 6.00 Build 0)  -->
<svg version="1.1" id="_x35_753feb3-ed8e-42b6-a282-ef3c28c87e7d"
	 xmlns="http://www.w3.org/2000/svg" xmlns:xlink="http://www.w3.org/1999/xlink" x="0px" y="0px" viewBox="0 0 16 16"
	 style="enable-background:new 0 0 16 16;" xml:space="preserve">
<style type="text/css">
	.st0{fill:#3FA9F5;}
</style>
<g>
	<path class="st0" d="M1.9,1.9h9.7l2.5,2.4V14H2L1.9,1.9 M1.1,1L1,14.9L15,15V4l-3-3H1.1L1.1,1z"/>
</g>
<polygon class="st0" points="15,5 11,5 11,1 "/>
<g>
	<path class="st0" d="M10.5,7.4c0,0-0.1,0.1-0.1,0.1C10.1,7.7,9.9,7.8,9.8,8C9.7,8.2,9.6,8.4,9.6,8.6c0,0.3,0,0.5,0.1,0.8
		c0.1,0.3,0.2,0.5,0.5,0.7c0.2,0.1,0.3,0.3,0.5,0.3c0,0,0,0,0,0c0,0,0,0,0,0.1c-0.2,0.4-0.4,0.8-0.7,1.2c-0.1,0.1-0.2,0.3-0.3,0.4
		c-0.1,0.1-0.2,0.2-0.4,0.3c-0.2,0.1-0.4,0.1-0.5,0.1c-0.2,0-0.3-0.1-0.5-0.1c-0.2-0.1-0.3-0.1-0.5-0.1c-0.2,0-0.4,0-0.5,0
		c-0.1,0-0.3,0.1-0.4,0.1c-0.1,0.1-0.3,0.1-0.4,0.1c-0.2,0-0.3,0-0.5-0.1c-0.2-0.1-0.3-0.2-0.5-0.4c-0.5-0.6-0.9-1.3-1.1-2
		C4.3,9.8,4.2,9.6,4.2,9.4c0-0.2,0-0.4,0-0.7c0-0.3,0.1-0.7,0.3-1C4.6,7.5,4.8,7.2,5,7c0.3-0.2,0.5-0.3,0.8-0.4c0.1,0,0.2,0,0.3,0
		c0.1,0,0.2,0,0.4,0.1c0.1,0,0.3,0.1,0.4,0.1C7.1,6.9,7.2,7,7.4,7c0.1,0,0.2,0,0.2,0C7.8,6.9,8,6.8,8.2,6.8c0.2-0.1,0.4-0.1,0.6-0.1
		c0.1,0,0.2,0,0.3,0c0.2,0,0.3,0.1,0.5,0.1C9.9,6.9,10.2,7.1,10.5,7.4C10.4,7.4,10.4,7.4,10.5,7.4z"/>
	<path class="st0" d="M9,4.8C9,4.9,9,4.9,9,4.8c0,0.5-0.1,0.8-0.3,1.1C8.6,6.1,8.4,6.3,8.2,6.4C8.1,6.5,7.9,6.6,7.7,6.6
		c-0.1,0-0.2,0-0.3,0c0,0,0,0,0,0c0-0.1,0-0.1,0-0.2c0-0.4,0.2-0.7,0.4-1C8,5.2,8.3,5,8.6,4.9C8.7,4.9,8.8,4.8,9,4.8
		C9,4.8,9,4.8,9,4.8z"/>
</g>
</svg>
