<?xml version="1.0" encoding="utf-8"?>
<!-- Generator: Adobe Illustrator 20.0.0, SVG Export Plug-In . SVG Version: 6.00 Build 0)  -->
<svg version="1.1" id="Layer_2" xmlns="http://www.w3.org/2000/svg" xmlns:xlink="http://www.w3.org/1999/xlink" x="0px" y="0px"
	 viewBox="0 0 16 16" style="enable-background:new 0 0 16 16;" xml:space="preserve">
<style type="text/css">
	.st0{fill:#4FBC78;}
</style>
<g>
	<path class="st0" d="M1.9,1.9h9.7l2.5,2.4V14H2L1.9,1.9 M1.1,1L1,14.9L15,15V4l-3-3H1.1L1.1,1z"/>
</g>
<polygon class="st0" points="15,5 11,5 11,1 "/>
<polygon class="st0" points="7,10 6,10 6,9 5,9 5,6 6,6 6,5 10,5 10,6 11,6 11,9 10,9 10,10 8,10 "/>
<rect x="6" y="12" class="st0" width="4" height="1"/>
<rect x="7" y="9" class="st0" width="2" height="3"/>
</svg>
