<?xml version="1.0" encoding="utf-8"?>
<!-- Generator: Adobe Illustrator 20.0.0, SVG Export Plug-In . SVG Version: 6.00 Build 0)  -->
<svg version="1.1" id="Layer_1" xmlns="http://www.w3.org/2000/svg" xmlns:xlink="http://www.w3.org/1999/xlink" x="0px" y="0px"
	 viewBox="0 0 16 16" style="enable-background:new 0 0 16 16;" xml:space="preserve">
<style type="text/css">
	.st0{fill:#404040;}
</style>
<path class="st0" d="M12,2l2,2.9v9.2H2V2H12L12,2z M12.9,1C5.8,1,1.6,1,1,1l0.1,13.9H15V4.2L12.9,1z"/>
<path class="st0" d="M14.9,5H12V1h0.9L14.9,5z"/>
<text transform="matrix(1 0 0 1 752 564.5)">nk</text>
<polygon class="st0" points="7,4.8 3.9,5.9 6.8,7.9 "/>
<path class="st0" d="M5,11.6C3,9.7,5.2,6.7,5.7,6c0,0,0.3,0.4,0.2,0.5c-0.4,1.1-1,2.5,0.5,3.8c2.5,2.1,4.5,0,4.9-0.5
	c0,0,0.2,0.3,0.2,0.3C11.5,10.3,7.8,14.4,5,11.6z"/>
</svg>
