<?xml version="1.0" encoding="utf-8"?>
<!-- Generator: Adobe Illustrator 20.0.0, SVG Export Plug-In . SVG Version: 6.00 Build 0)  -->
<svg version="1.1" id="Layer_1" xmlns="http://www.w3.org/2000/svg" xmlns:xlink="http://www.w3.org/1999/xlink" x="0px" y="0px"
	 viewBox="0 0 16 16" style="enable-background:new 0 0 16 16;" xml:space="preserve">
<style type="text/css">
	.st0{fill:#3FA9F5;}
	.st1{enable-background:new    ;}
</style>
<path class="st0" d="M12.9,1C5.8,1,1.6,1,1,1l0.1,13.9H15V4.2L12.9,1z M2,14.1V2h10v3h2v9.1H2z"/>
<text transform="matrix(1 0 0 1 752 564.5)" style="font-family:'MyriadPro-Regular'; font-size:12px;">nk</text>
<path class="st0" d="M10,5v6.2L8.1,9.5c0,0-0.1,0-0.1,0c0,0-0.1,0-0.1,0L6,11.2V5H4v8h2l2-1.8l2,1.8h2V5H10z"/>
</svg>
