<?xml version="1.0" encoding="utf-8"?>
<!-- Generator: Adobe Illustrator 20.0.0, SVG Export Plug-In . SVG Version: 6.00 Build 0)  -->
<svg version="1.1" id="Layer_2" xmlns="http://www.w3.org/2000/svg" xmlns:xlink="http://www.w3.org/1999/xlink" x="0px" y="0px"
	 viewBox="0 0 16 16" style="enable-background:new 0 0 16 16;" xml:space="preserve">
<style type="text/css">
	.st0{fill:#4FBC78;}
	.st1{fill:none;stroke:#4FBC78;stroke-miterlimit:10;}
</style>
<g>
	<path class="st0" d="M1.9,1.9h9.7l2.5,2.4V14H2L1.9,1.9 M1.1,1L1,14.9L15,15V4l-3-3H1.1L1.1,1z"/>
</g>
<polygon class="st0" points="15,5 11,5 11,1 "/>
<g>
	<path class="st0" d="M7.8,6.1c1.1,0,1.9,0.3,2.1,0.6c-0.3,0.2-1,0.5-2.1,0.5c-1.1,0-1.9-0.3-2.2-0.5C5.9,6.5,6.6,6.1,7.8,6.1
		 M7.8,5.1C6,5.1,4.5,5.8,4.5,6.7S6,8.2,7.8,8.2c1.7,0,3.2-0.7,3.2-1.5S9.5,5.1,7.8,5.1L7.8,5.1z"/>
</g>
<path class="st1" d="M10.4,6.7v4.9c0,0-0.2,1.4-2.7,1.3C5.9,12.8,5,12.3,5,11.6l0,0.1l0-5"/>
</svg>
