<?xml version="1.0" encoding="utf-8"?>
<!-- Generator: Adobe Illustrator 20.0.0, SVG Export Plug-In . SVG Version: 6.00 Build 0)  -->
<svg version="1.1" id="_x35_753feb3-ed8e-42b6-a282-ef3c28c87e7d"
	 xmlns="http://www.w3.org/2000/svg" xmlns:xlink="http://www.w3.org/1999/xlink" x="0px" y="0px" viewBox="0 0 16 16"
	 style="enable-background:new 0 0 16 16;" xml:space="preserve">
<style type="text/css">
	.st0{fill:#3FA9F5;}
	.st1{fill:#FFFFFF;}
</style>
<g>
	<path class="st0" d="M1.9,1.9h9.7l2.5,2.4V14H2L1.9,1.9 M1,14.9l13.9,0L15,4l-3-3L1,1L1,14.9z"/>
</g>
<polygon class="st0" points="15,5 11,5 11,1 "/>
<g>
	<path class="st0" d="M10.1,7.9v4.2H4.9V7.9H10.1 M11,7H4v6h7V7L11,7z"/>
</g>
<polygon class="st0" points="3.8,6.2 4.2,4.8 11.4,6.5 10.9,7.9 "/>
<rect x="4" y="7" class="st0" width="7" height="3"/>
<rect x="5" y="8" class="st1" width="1" height="1"/>
<rect x="7" y="8" class="st1" width="1" height="1"/>
<rect x="9" y="8" class="st1" width="1" height="1"/>
</svg>
