<?xml version="1.0" encoding="utf-8"?>
<!-- Generator: Adobe Illustrator 20.0.0, SVG Export Plug-In . SVG Version: 6.00 Build 0)  -->
<svg version="1.1" id="Layer_1" xmlns="http://www.w3.org/2000/svg" xmlns:xlink="http://www.w3.org/1999/xlink" x="0px" y="0px"
	 viewBox="0 0 16 16" style="enable-background:new 0 0 16 16;" xml:space="preserve">
<style type="text/css">
	.st0{fill:#4FBC78;}
</style>
<path class="st0" d="M8.1,4c-2.1,0-4,1.7-4,3.8c0,2.4,1.6,4.1,4,4.1c2.2,0,3.8-1.7,3.9-3.8C12.1,6.1,10.4,4.1,8.1,4z M10.9,10
	c-0.2,0.3-0.6,0.1-0.6,0.1L8.8,9.3c0,0-1.1,0-1.2,0C8,9.7,9,10.9,9.1,11c-0.2,0-0.6,0.2-1.2,0.1c-1.5-0.3-1.9-1.1-2-2.4
	C5.8,7.1,7.1,6,8.3,5.9c1.5-0.1,2.8,0.8,3,2.2C11.4,8.8,11.2,9.4,10.9,10z"/>
<g id="Layer_2">
	<g id="Layer_1_1_">
		<path class="st0" d="M15,4V3l-1.5-2h-0.1h-0.9H1v14h14V4L15,4L15,4z M14,14H2V2h9v3h3V14z"/>
	</g>
</g>
</svg>
