<?xml version="1.0" encoding="utf-8"?>
<!-- Generator: Adobe Illustrator 20.0.0, SVG Export Plug-In . SVG Version: 6.00 Build 0)  -->
<svg version="1.1" xmlns="http://www.w3.org/2000/svg" xmlns:xlink="http://www.w3.org/1999/xlink" x="0px" y="0px"
	 viewBox="0 0 16 16" style="enable-background:new 0 0 16 16;" xml:space="preserve">
<style type="text/css">
	.st0{fill:#3FA9F5;}
	.st1{fill:none;stroke:#3FA9F5;stroke-width:0.5;stroke-miterlimit:10;}
	.st2{fill:none;stroke:#3FA9F5;stroke-width:0.75;stroke-miterlimit:10;}
</style>
<g id="Layer_2">
	<g>
		<path class="st0" d="M2,2.5h10l2,2v10H2 M1,1.5v14h14l0-10.1l-3-3.9H1z"/>
	</g>
	<polygon class="st0" points="15,5.5 11,5.5 11,1.5 	"/>
</g>
<g id="Layer_3">
	<g>
		<path class="st0" d="M7.6,5.6c1.8,0,3.3,1.5,3.3,3.3s-1.5,3.3-3.3,3.3s-3.3-1.5-3.3-3.3S5.8,5.6,7.6,5.6 M7.6,4.6
			c-2.4,0-4.3,1.9-4.3,4.3c0,2.4,1.9,4.3,4.3,4.3c2.4,0,4.3-1.9,4.3-4.3C11.9,6.6,10,4.6,7.6,4.6L7.6,4.6z"/>
	</g>
	<g>
		<line class="st1" x1="4.5" y1="6.9" x2="10.8" y2="6.9"/>
	</g>
	<g>
		<line class="st1" x1="4" y1="8.9" x2="10.9" y2="8.9"/>
	</g>
	<g>
		<line class="st2" x1="4.6" y1="10.9" x2="10.8" y2="10.9"/>
	</g>
	<line class="st1" x1="7.6" y1="5.2" x2="7.6" y2="12.7"/>
	<path class="st1" d="M7.3,5.2c0,0-1.6,1.2-1.6,3.9c0,2.2,1.2,3.6,1.2,3.6"/>
	<path class="st1" d="M7.9,5.1c0,0,1.6,1.2,1.6,3.9c0,2.2-1.2,3.6-1.2,3.6"/>
</g>
</svg>
