<?xml version="1.0" encoding="utf-8"?>
<!-- Generator: Adobe Illustrator 20.0.0, SVG Export Plug-In . SVG Version: 6.00 Build 0)  -->
<svg version="1.1" id="Layer_1" xmlns="http://www.w3.org/2000/svg" xmlns:xlink="http://www.w3.org/1999/xlink" x="0px" y="0px"
	 viewBox="0 0 16 16" style="enable-background:new 0 0 16 16;" xml:space="preserve">
<style type="text/css">
	.st0{fill:#3FA9F5;}
	.st1{fill:#404040;}
</style>
<g id="Layer_2">
	<g id="Layer_1_1_">
		<path class="st0" d="M15,4V3l-1.5-2h-0.1h-0.9H1v14h14V4L15,4L15,4z M14,14H2V2h9v3h3V14z"/>
	</g>
</g>
<g>
	<path class="st1" d="M8,6c2.1,0,3.9,1.1,3.9,2.4c0,1-0.9,1.9-1.7,2.5l-0.5,0.3v-0.6l-1,0.1H8.6c-0.1,0-0.2,0-0.3,0s-0.2,0-0.3,0
		c-2.1,0-3.7-1-3.7-2.3C4.1,7.1,5.9,6,8,6 M8,5C5.3,5,3.1,6.5,3.1,8.4s2,3.3,4.7,3.3c0.2,0,0.4,0,0.7,0c0.1,0,0.2,0,0.2,0l0.1,1.2
		l1.9-1.2c1.5-1.1,2.2-2.3,2.2-3.3C12.9,6.5,10.7,5,8,5L8,5z"/>
</g>
<g>
	<path class="st1" d="M7.8,7.1v0.5l0,0C7.9,7.3,8.5,6.8,9,6.8v0.6c-0.2,0-0.7,0.2-0.8,0.4C7.8,8.3,7.8,10,7.8,10H7.3V7.1H7.8z"/>
</g>
</svg>
