<?xml version="1.0" encoding="utf-8"?>
<!-- Generator: Adobe Illustrator 20.0.0, SVG Export Plug-In . SVG Version: 6.00 Build 0)  -->
<svg version="1.1" xmlns="http://www.w3.org/2000/svg" xmlns:xlink="http://www.w3.org/1999/xlink" x="0px" y="0px"
	 viewBox="0 0 16 16" style="enable-background:new 0 0 16 16;" xml:space="preserve">
<style type="text/css">
	.st0{display:none;}
	.st1{display:inline;}
	.st2{fill:#3FA9F5;}
	.st3{display:inline;fill:#3FA9F5;}
</style>
<g id="_x35_753feb3-ed8e-42b6-a282-ef3c28c87e7d" class="st0">
	<g class="st1">
		<path class="st2" d="M1.9,1.9h9.7l2.5,2.4V14H2L1.9,1.9 M1.1,1L1,14.9L15,15V4l-3-3H1.1L1.1,1z"/>
	</g>
	<polygon class="st3" points="15,5 11,5 11,1 	"/>
	<rect x="3" y="11" class="st3" width="2.9" height="2"/>
	<rect x="5" y="7.8" class="st3" width="0.9" height="4.3"/>
	<rect x="9" y="6.3" class="st3" width="1" height="4"/>
	<rect x="7" y="10" class="st3" width="3" height="2"/>
	<polygon class="st3" points="5,6.9 10,6 10,7.7 5,8.6 	"/>
</g>
<g id="Layer_3">
	<path class="st2" d="M10.7,6.5c0,0-1.8-0.9-2.2-1.2l0,0.8L6,6L5.9,6C5.3,6.1,4.5,6.3,4.5,8l1,0C5.5,7,5.7,7,5.9,7C6,7,6,7,6,7
		l2.5,0l0,0.8L10.7,6.5z"/>
	<path class="st2" d="M5.5,10.3c0,0,1.8,0.9,2.2,1.2l0-0.8l2.5,0l0.1,0c0.6,0,1.4-0.3,1.4-1.9l-1,0c0,0.9-0.2,0.9-0.4,0.9
		c-0.1,0-0.1,0-0.1,0l-2.5,0l0-0.8L5.5,10.3z"/>
	<g>
		<path class="st2" d="M1.9,1.9h9.7l2.5,2.4V14H2L1.9,1.9 M1.1,1L1,14.9L15,15V4l-3-3H1.1L1.1,1z"/>
	</g>
	<polygon class="st2" points="15,5 11,5 11,1 	"/>
</g>
</svg>
