<?xml version="1.0" encoding="utf-8"?>
<!-- Generator: Adobe Illustrator 20.0.0, SVG Export Plug-In . SVG Version: 6.00 Build 0)  -->
<svg version="1.1" id="_x35_753feb3-ed8e-42b6-a282-ef3c28c87e7d"
	 xmlns="http://www.w3.org/2000/svg" xmlns:xlink="http://www.w3.org/1999/xlink" x="0px" y="0px" viewBox="0 0 16 16"
	 style="enable-background:new 0 0 16 16;" xml:space="preserve">
<style type="text/css">
	.st0{fill:#3FA9F5;}
</style>
<g>
	<path class="st0" d="M1.9,1.9h9.7l2.5,2.4V14H2L1.9,1.9 M1.1,1L1,14.9L15,15V4l-3-3H1.1L1.1,1z"/>
</g>
<polygon class="st0" points="15,5 11,5 11,1 "/>
<path class="st0" d="M13.4,12.2c0,0-0.7-0.3-1.4-0.6c-1.1-0.5-1.1-1.1-1.4-2.5c-0.3-1.4-1-2.5-2-3.1C7.8,5.7,7.1,5.6,6.5,5.6
	c0,0-0.1,0-0.1,0c-2,0-3.7,1.7-3.7,3.7c0,2,1.7,3.7,3.7,3.7c1.7,0,3.2-1.2,3.6-2.9C10.3,12.7,13.3,12.3,13.4,12.2L13.4,12.2z
	 M6.3,6.5c0.6,0,1,0.5,1,1s-0.5,1-1,1c-0.6,0-1-0.5-1-1S5.7,6.5,6.3,6.5z M4.5,10.4c-0.6,0-1-0.5-1-1s0.5-1,1-1s1,0.5,1,1
	S5,10.4,4.5,10.4z M6.4,11.9c-0.6,0-1-0.5-1-1s0.5-1,1-1c0.6,0,1,0.5,1,1S6.9,11.9,6.4,11.9z M8.3,10.3c-0.6,0-1-0.5-1-1s0.5-1,1-1
	c0.6,0,1,0.5,1,1S8.8,10.3,8.3,10.3z"/>
</svg>
