<?xml version="1.0" encoding="utf-8"?>
<!-- Generator: Adobe Illustrator 20.0.0, SVG Export Plug-In . SVG Version: 6.00 Build 0)  -->
<svg version="1.1" id="_x35_753feb3-ed8e-42b6-a282-ef3c28c87e7d"
	 xmlns="http://www.w3.org/2000/svg" xmlns:xlink="http://www.w3.org/1999/xlink" x="0px" y="0px" viewBox="0 0 16 16"
	 style="enable-background:new 0 0 16 16;" xml:space="preserve">
<style type="text/css">
	.st0{fill:#808080;}
</style>
<g>
	<path class="st0" d="M1.9,1.9h9.7l2.5,2.4V14H2L1.9,1.9 M1.1,1L1,14.9L15,15V4l-3-3H1.1L1.1,1z"/>
</g>
<polygon class="st0" points="15,5 11,5 11,1 "/>
<g>
	<path class="st0" d="M4.9,11.4C4.9,11.3,5,11.3,4.9,11.4c0.2-0.4,0.3-0.6,0.5-0.9v-0.1C5.3,10.2,5.3,10,5.2,9.8c0,0,0-0.1-0.1-0.1
		c-0.3,0-0.6-0.1-0.9-0.1c-0.1,0-0.1,0-0.1-0.1c0-0.2,0-0.4,0-0.7c0-0.1,0-0.1,0.1-0.1c0.3-0.1,0.6-0.2,0.9-0.2c0,0,0.1,0,0.1-0.1
		c0.1-0.2,0.1-0.3,0.2-0.5V7.8C5.3,7.5,5.1,7.3,5,7C4.9,6.9,4.9,6.9,5,6.8c0.1-0.2,0.3-0.3,0.5-0.5c0.1-0.1,0.1-0.1,0.2,0
		C6,6.5,6.3,6.6,6.5,6.8h0.1C6.8,6.7,7,6.7,7.1,6.6c0,0,0.1,0,0.1-0.1c0-0.3,0.1-0.6,0.1-0.9c0-0.1,0-0.1,0.1-0.1c0.2,0,0.5,0,0.7,0
		c0.1,0,0.1,0,0.1,0.1c0,0.3,0.1,0.6,0.1,0.9c0,0,0,0.1,0.1,0.1C8.6,6.7,8.8,6.7,9,6.8h0.1c0.3-0.1,0.6-0.3,0.8-0.5
		c0.1,0,0.1,0,0.2,0c0.2,0.2,0.3,0.3,0.5,0.5c0.1,0.1,0.1,0.1,0,0.2c-0.2,0.3-0.3,0.6-0.5,0.8v0.1c0.1,0.2,0.1,0.3,0.2,0.5
		c0,0,0,0.1,0.1,0.1c0.3,0,0.6,0.1,0.9,0.1c0.1,0,0.1,0,0.1,0.1c0,0.2,0,0.5,0,0.7c0,0.1,0,0.1-0.1,0.1c-0.3,0-0.6,0.1-0.9,0.1
		c0,0-0.1,0-0.1,0.1c-0.1,0.2-0.1,0.3-0.2,0.5v0.1c0.1,0.3,0.3,0.6,0.4,0.8c0,0.1,0,0.1,0,0.2c-0.2,0.2-0.3,0.3-0.5,0.5
		c0,0.2,0,0.2-0.1,0.1c-0.3-0.2-0.6-0.3-0.8-0.4H9c-0.2,0.1-0.3,0.1-0.5,0.2c0,0-0.1,0-0.1,0.1c0,0.3-0.1,0.6-0.1,0.9
		c0,0.1,0,0.1-0.1,0.1c-0.2,0-0.5,0-0.7,0c-0.1,0-0.1,0-0.1-0.1c0-0.3-0.1-0.6-0.1-0.9c0,0,0-0.1-0.1-0.1c-0.2-0.1-0.3-0.1-0.5-0.2
		H6.6c-0.3,0.1-0.6,0.3-0.8,0.4c-0.1,0-0.1,0-0.2,0C5.3,11.8,5.1,11.6,4.9,11.4C5,11.4,4.9,11.4,4.9,11.4z M7.8,7.8
		C7,7.8,6.4,8.4,6.4,9.2c0,0.7,0.6,1.3,1.3,1.3S9,9.9,9,9.2C9.1,8.4,8.5,7.8,7.8,7.8z"/>
</g>
</svg>
