<?xml version="1.0" encoding="utf-8"?>
<!-- Generator: Adobe Illustrator 20.0.0, SVG Export Plug-In . SVG Version: 6.00 Build 0)  -->
<svg version="1.1" id="Layer_1" xmlns="http://www.w3.org/2000/svg" xmlns:xlink="http://www.w3.org/1999/xlink" x="0px" y="0px"
	 viewBox="0 0 16 16" style="enable-background:new 0 0 16 16;" xml:space="preserve">
<style type="text/css">
	.st0{fill:#3FA9F5;}
</style>
<path class="st0" d="M12,2l2,2.9v9.2H2V2H12L12,2z M12.9,1C5.8,1,1.6,1,1,1l0.1,13.9H15V4.2L12.9,1z"/>
<path class="st0" d="M14.9,5H12V1h0.9L14.9,5z"/>
<text transform="matrix(1 0 0 1 752 564.5)" style="font-family:'MyriadPro-Regular'; font-size:12px;">nk</text>
<rect x="4" y="5" class="st0" width="2" height="1"/>
<rect x="4" y="7" class="st0" width="2" height="1"/>
<rect x="4" y="9" class="st0" width="2" height="1"/>
<rect x="4" y="11" class="st0" width="2" height="1"/>
<rect x="7" y="5" class="st0" width="4" height="1"/>
<rect x="7" y="7" class="st0" width="4" height="1"/>
<rect x="7" y="9" class="st0" width="4" height="1"/>
<rect x="7" y="11" class="st0" width="4" height="1"/>
</svg>
