<?xml version="1.0" encoding="utf-8"?>
<!-- Generator: Adobe Illustrator 20.0.0, SVG Export Plug-In . SVG Version: 6.00 Build 0)  -->
<svg version="1.1" xmlns="http://www.w3.org/2000/svg" xmlns:xlink="http://www.w3.org/1999/xlink" x="0px" y="0px"
	 viewBox="0 0 16 16" style="enable-background:new 0 0 16 16;" xml:space="preserve">
<style type="text/css">
	.st0{display:none;}
	.st1{fill:#4FBC78;}
</style>
<g id="Layer_1">
	<path class="st1" d="M12,0.5H1v15h14V4L12,0.5z M14,14.5H2v-13h9v3h3V14.5z"/>
	<path class="st1" d="M12.7,8.9c-0.1,0.2-0.1,0.5-0.1,0.7c0,0.2-0.1,0.3-0.2,0.5c0,0.1-0.1,0.1-0.2,0.1c-0.8,0.2-1.4,0-2-0.6
		c0,0.1-0.1,0.2-0.1,0.3c-0.5,1-1.5,1.5-2.5,1.3c-0.2,0-0.5-0.1-0.7-0.1C7.3,12,7.6,12.8,8,13.6c-0.4,0.1-0.9,0.1-1.3,0
		c-0.3-0.1-0.7-0.1-1-0.2c-0.1,0-0.1-0.1-0.2-0.2C4.7,11,3.9,8.8,3,6.6C3,6.5,3,6.4,2.9,6.4c-0.1-0.2,0-0.3,0.2-0.3
		C3.5,6,3.8,5.9,4.2,5.8c0.2,0,0.3-0.1,0.5-0.1c0.2-0.1,0.3,0,0.4,0.2c0.3,0.7,0.5,1.3,0.8,2C6,8.2,6.1,8.5,6.2,8.8
		c0.4,1,1.4,1.5,2.4,1.1c0.5-0.2,0.8-0.5,0.9-1c0-0.1,0-0.2,0-0.3c-0.4-1-0.9-2.1-1.3-3.1C8.1,5.2,8.2,5.1,8.5,5
		C8.8,5,9.1,4.9,9.3,4.9c0.1,0,0.1,0,0.2,0c0.2-0.1,0.3,0,0.4,0.1C9.9,5,9.9,5.1,10,5.2c0.5,1,0.9,2,1.4,3c0.1,0.1,0.2,0.3,0.2,0.4
		c0.3,0.3,0.6,0.4,1,0.3C12.6,8.9,12.7,8.9,12.7,8.9z"/>
</g>
</svg>
