<?xml version="1.0" encoding="utf-8"?>
<!-- Generator: Adobe Illustrator 20.0.0, SVG Export Plug-In . SVG Version: 6.00 Build 0)  -->
<svg version="1.1" id="Layer_1" xmlns="http://www.w3.org/2000/svg" xmlns:xlink="http://www.w3.org/1999/xlink" x="0px" y="0px"
	 viewBox="0 0 16 16" style="enable-background:new 0 0 16 16;" xml:space="preserve">
<style type="text/css">
	.st0{fill:#404040;}
</style>
<g>
	<path class="st0" d="M8.7,7c0-0.6,0-1.2,0-1.7c0.4,0,0.8,0,1.2,0c0,0.1,0,0.2,0,0.3c0,2.1,0,4.1,0,6.2c0,0.3-0.1,0.4-0.3,0.5
		c-0.7,0.2-1.3,0.3-2,0.2c-0.8-0.2-1.3-0.6-1.6-1.4c-0.2-0.7-0.3-1.5,0-2.2C6.2,7.7,7.2,7,8.3,7C8.4,7,8.5,7,8.7,7z M8.7,8
		c-0.5-0.2-1,0-1.3,0.3C6.9,8.9,6.8,10,7.1,10.7c0.2,0.5,0.8,0.8,1.3,0.7c0.1,0,0.3,0,0.3-0.3C8.7,10.1,8.7,9.1,8.7,8z"/>
	<path class="st0" d="M3.5,5.2c0.4,0,0.7,0,1.1,0c0,2.4,0,4.7,0,7.1c-0.4,0-0.7,0-1.1,0C3.5,10,3.5,7.6,3.5,5.2z"/>
</g>
<g>
	<path class="st0" d="M11,1.5l3,3v9H2v-12H11z M1,0.5v14h14V4l-3-3.5H1z"/>
</g>
<polygon class="st0" points="15,5.5 11,5.5 11,1 "/>
</svg>
