<?xml version="1.0" standalone="no"?><!DOCTYPE svg PUBLIC "-//W3C//DTD SVG 1.1//EN" "http://www.w3.org/Graphics/SVG/1.1/DTD/svg11.dtd"><svg width="100%" height="100%" viewBox="0 0 16 16" version="1.1" xmlns="http://www.w3.org/2000/svg" xmlns:xlink="http://www.w3.org/1999/xlink" xml:space="preserve" style="fill-rule:evenodd;clip-rule:evenodd;stroke-miterlimit:1.41421;"><g id="Layer_1_1_"><g><path d="M9.05,9.021l0,2.09c0,0.033 -0.001,0.065 0.002,0.1c0.011,0.139 0.062,0.184 0.201,0.184c0.133,0 0.267,0.002 0.401,0c0.049,0 0.068,0.018 0.066,0.067c-0.004,0.149 -0.005,0.298 0.002,0.447c0,0.065 -0.025,0.077 -0.082,0.077c-0.345,-0.002 -0.687,-0.002 -1.026,-0.002c-0.746,0 -1.492,0 -2.237,0.002c-0.08,0 -0.101,-0.024 -0.098,-0.102c0.005,-0.139 0.003,-0.277 0,-0.417c-0.001,-0.058 0.02,-0.075 0.077,-0.073c0.131,0.004 0.262,0.002 0.394,0c0.11,0 0.159,-0.049 0.159,-0.16c0,-1.243 0,-2.488 0,-3.732c0,-0.113 -0.042,-0.156 -0.154,-0.157c-0.13,-0.002 -0.262,-0.003 -0.393,0c-0.059,0.001 -0.083,-0.02 -0.083,-0.081c0.003,-0.141 0.002,-0.283 0.001,-0.424c-0.001,-0.052 0.018,-0.072 0.072,-0.072c0.874,0.002 1.748,0.002 2.623,0c0.082,0 0.075,0.047 0.075,0.1l0,2.153" style="fill:#3e3e3e;fill-rule:nonzero;"/><path d="M9.167,5.196c0.009,0.63 -0.496,1.187 -1.186,1.194c-0.649,0.007 -1.191,-0.538 -1.192,-1.186c-0.002,-0.657 0.532,-1.19 1.191,-1.191c0.659,0 1.185,0.525 1.187,1.183" style="fill:#3e3e3e;fill-rule:nonzero;"/></g><path d="M13.912,8.076c0,3.193 -2.646,5.783 -5.912,5.783c-3.265,0 -5.912,-2.59 -5.912,-5.783c0,-3.194 2.647,-5.784 5.912,-5.784c3.266,0 5.912,2.59 5.912,5.784Z" style="fill:none;stroke-width:1.5px;stroke:#404040;"/></g></svg>