<?xml version="1.0" encoding="utf-8"?>
<!-- Generator: Adobe Illustrator 19.2.1, SVG Export Plug-In . SVG Version: 6.00 Build 0)  -->
<svg version="1.1" id="Layer_1" xmlns="http://www.w3.org/2000/svg" xmlns:xlink="http://www.w3.org/1999/xlink" x="0px" y="0px"
	 viewBox="0 0 16 16" style="enable-background:new 0 0 16 16;" xml:space="preserve">
<style type="text/css">
	.st0{fill:#3E3E3E;}
	.st1{fill:none;stroke:#404040;stroke-width:1.5;stroke-miterlimit:1.4142;}
</style>
<g id="Layer_1_1_">
	<g>
		<path class="st0" d="M9.1,9v2.1c0,0,0,0.1,0,0.1c0,0.1,0.1,0.2,0.2,0.2c0.1,0,0.3,0,0.4,0c0,0,0.1,0,0.1,0.1c0,0.1,0,0.3,0,0.4
			c0,0.1,0,0.1-0.1,0.1c-0.3,0-0.7,0-1,0c-0.7,0-1.5,0-2.2,0c-0.1,0-0.1,0-0.1-0.1c0-0.1,0-0.3,0-0.4c0-0.1,0-0.1,0.1-0.1
			c0.1,0,0.3,0,0.4,0c0.1,0,0.2,0,0.2-0.2c0-1.2,0-2.5,0-3.7c0-0.1,0-0.2-0.2-0.2c-0.1,0-0.3,0-0.4,0c-0.1,0-0.1,0-0.1-0.1
			c0-0.1,0-0.3,0-0.4c0-0.1,0-0.1,0.1-0.1c0.9,0,1.7,0,2.6,0c0.1,0,0.1,0,0.1,0.1V9"/>
		<path class="st0" d="M9.2,5.2c0,0.6-0.5,1.2-1.2,1.2c-0.6,0-1.2-0.5-1.2-1.2C6.8,4.5,7.3,4,8,4C8.6,4,9.2,4.5,9.2,5.2"/>
	</g>
	<path class="st1" d="M13.9,8.1c0,3.2-2.6,5.8-5.9,5.8c-3.3,0-5.9-2.6-5.9-5.8c0-3.2,2.6-5.8,5.9-5.8C11.3,2.3,13.9,4.9,13.9,8.1z"
		/>
</g>
</svg>
