<?xml version="1.0" encoding="utf-8"?>
<!-- Generator: Adobe Illustrator 19.2.1, SVG Export Plug-In . SVG Version: 6.00 Build 0)  -->
<svg version="1.1" id="Layer_1" xmlns="http://www.w3.org/2000/svg" xmlns:xlink="http://www.w3.org/1999/xlink" x="0px" y="0px"
	 viewBox="0 0 16 16" style="enable-background:new 0 0 16 16;" xml:space="preserve">
<style type="text/css">
	.st0{fill:#3E3E3E;}
	.st1{fill:none;stroke:#404040;stroke-width:1.5;stroke-miterlimit:1.4142;}
</style>
<g id="Layer_1_1_">
	<g>
		<path class="st0" d="M9,7l0,4l1,0l0,1H6v-1l1,0l0-3C6.9,8,6,8,6,8V7L9,7L9,7z"/>
		<path class="st0" d="M8.9,5.4c0,0.6-0.5,1.2-1.2,1.2c-0.6,0-1.2-0.5-1.2-1.2s0.5-1.2,1.2-1.2C8.4,4.2,8.9,4.7,8.9,5.4"/>
	</g>
	<path class="st1" d="M13.9,8.1c0,3.2-2.6,5.8-5.9,5.8s-5.9-2.6-5.9-5.8S4.7,2.3,8,2.3C11.3,2.3,13.9,4.9,13.9,8.1z"/>
</g>
</svg>
