<?xml version="1.0" encoding="utf-8"?>
<!-- Generator: Adobe Illustrator 19.2.1, SVG Export Plug-In . SVG Version: 6.00 Build 0)  -->
<svg version="1.1" id="Layer_1" xmlns="http://www.w3.org/2000/svg" xmlns:xlink="http://www.w3.org/1999/xlink" x="0px" y="0px"
	 viewBox="0 0 16 16" style="enable-background:new 0 0 16 16;" xml:space="preserve">
<style type="text/css">
	.st0{fill:#404040;}
	.st1{fill:none;stroke:#404040;stroke-linecap:square;stroke-miterlimit:1.4142;}
</style>
<path class="st0" d="M10.9,8h-1c0,0.1,0-2.3-1.9-2.3S6,8.1,6,8.1H5v4h6L10.9,8z M6.6,7.7c0-0.8,0.5-1.3,1.3-1.3S9.2,7,9.2,7.8v0.3
	H6.6V7.7z M8.2,9.9v0.7H7.8V9.9c-0.2,0-0.2-0.2-0.2-0.3c0-0.2,0.2-0.4,0.4-0.4s0.4,0.2,0.4,0.4C8.4,9.7,8.3,9.9,8.2,9.9z"/>
<path class="st1" d="M1.3,13.6"/>
<path class="st0" d="M15,2.4l-7.3,0L7,1H1v3.9l0,0V14h14L15,2.4z M2,13V4h12v9H2z"/>
</svg>
