<?xml version="1.0" standalone="no"?><!DOCTYPE svg PUBLIC "-//W3C//DTD SVG 1.1//EN" "http://www.w3.org/Graphics/SVG/1.1/DTD/svg11.dtd"><svg width="100%" height="100%" viewBox="0 0 16 16" version="1.1" xmlns="http://www.w3.org/2000/svg" xmlns:xlink="http://www.w3.org/1999/xlink" xml:space="preserve" style="fill-rule:evenodd;clip-rule:evenodd;stroke-linejoin:round;stroke-miterlimit:1.41421;"><path d="M13.367,7.102l-1.094,0l-0.023,-1.379c0,-2.407 -1.915,-4.366 -4.27,-4.366c-2.355,0 -4.27,1.958 -4.27,4.366l0,1.378l-1.08,0l0.04,7.541l10.698,0l-0.001,-7.54ZM5.011,5.723c0,-1.69 1.332,-3.066 2.97,-3.066c1.637,0 2.969,1.375 2.97,3.077l0.023,1.367l-5.963,0l0,-1.378ZM8.48,10.567l0,1.519l-0.922,0l0,-1.519c-0.26,-0.155 -0.434,-0.44 -0.434,-0.767c0,-0.493 0.401,-0.895 0.896,-0.895c0.492,0 0.895,0.401 0.895,0.895c-0.001,0.327 -0.175,0.612 -0.435,0.767Z" style="fill:#3f3f3f;fill-rule:nonzero;"/></svg>