<?xml version="1.0" encoding="utf-8"?>
<!-- Generator: Adobe Illustrator 19.2.1, SVG Export Plug-In . SVG Version: 6.00 Build 0)  -->
<svg version="1.1" id="Layer_1" xmlns="http://www.w3.org/2000/svg" xmlns:xlink="http://www.w3.org/1999/xlink" x="0px" y="0px"
	 viewBox="0 0 16 16" style="enable-background:new 0 0 16 16;" xml:space="preserve">
<style type="text/css">
	.st0{fill:#3F3F3F;}
</style>
<path class="st0" d="M12,7V6c0-3-1.1-5-4-5C5.2,1,4,3,4,6v1H2v7h12V7H12z M8.9,9.4C8.8,9.6,8.7,9.8,8.5,9.9C8.5,10,8.4,10,8.4,10v2
	H7.5v-2l0,0C7.2,9.8,7,9.4,7.1,8.9s0.6-0.8,1.1-0.7C8.7,8.4,9,8.8,8.9,9.4z M11,7H5c0-0.1,0-2,0-2c0.2-1.7,1.3-3,3-3
	c1.6,0,2.9,1.4,3,3V7z"/>
</svg>
