<?xml version="1.0" encoding="utf-8"?>
<!-- Generator: Adobe Illustrator 19.2.1, SVG Export Plug-In . SVG Version: 6.00 Build 0)  -->
<svg version="1.1" id="Layer_1" xmlns="http://www.w3.org/2000/svg" xmlns:xlink="http://www.w3.org/1999/xlink" x="0px" y="0px"
	 viewBox="0 0 16 16" style="enable-background:new 0 0 16 16;" xml:space="preserve">
<style type="text/css">
	.st0{fill:#404040;}
	.st1{fill:none;stroke:#404040;stroke-linecap:square;stroke-miterlimit:1.4142;}
</style>
<path class="st0" d="M10.6,8.4h-0.5l0-0.6c0-1.1-0.9-2-2-2s-2,0.9-2,2v0.6H5.6l0,3.5h5V8.4z M6.7,7.8c0-0.8,0.6-1.4,1.4-1.4
	c0.8,0,1.4,0.6,1.4,1.4l0,0.6H6.7V7.8C6.7,7.8,6.7,7.8,6.7,7.8z M8.3,10v0.7H7.9V10C7.7,10,7.7,9.8,7.7,9.7c0-0.2,0.2-0.4,0.4-0.4
	c0.2,0,0.4,0.2,0.4,0.4C8.5,9.8,8.4,10,8.3,10z"/>
<path class="st1" d="M1.3,13.6"/>
<path class="st0" d="M15,3.8V2.6H8L7.2,2.2H1v2.7l0,0v8.9h13.9L15,3.8L15,3.8z M2,12.8V4.9h12v7.9H2z"/>
</svg>
