<?xml version="1.0" encoding="utf-8"?>
<!-- Generator: Adobe Illustrator 19.2.1, SVG Export Plug-In . SVG Version: 6.00 Build 0)  -->
<svg version="1.1" id="Layer_1" xmlns="http://www.w3.org/2000/svg" xmlns:xlink="http://www.w3.org/1999/xlink" x="0px" y="0px"
	 viewBox="0 0 16 16" style="enable-background:new 0 0 16 16;" xml:space="preserve">
<style type="text/css">
	.st0{fill:#CDCDCD;}
	.st1{fill:#4FBC78;}
	.st2{fill:#404040;}
</style>
<rect x="6.4" y="4.5" class="st0" width="5.4" height="1.5"/>
<rect x="6.6" y="6.7" class="st0" width="5.5" height="1.5"/>
<rect x="8.2" y="9.1" class="st0" width="3.8" height="1.5"/>
<rect x="6.4" y="11.8" class="st0" width="5.7" height="1.5"/>
<rect x="3.4" y="4.5" class="st0" width="1.9" height="1.5"/>
<rect x="3.4" y="6.7" class="st0" width="1.9" height="1.2"/>
<path class="st1" d="M5.7,6.8c1.9,0,3.4,1.5,3.4,3.4s-1.5,3.4-3.4,3.4s-3.4-1.5-3.4-3.4C2.4,8.3,3.9,6.8,5.7,6.8z M6.4,9.5V7.9H5.1
	v1.6H3.4v1.3h1.7v1.6h1.3v-1.6H8V9.5H6.4z"/>
<path class="st2" d="M12,2l2,2.9v9.2H2V2H12L12,2z M12.9,1C5.8,1,1.6,1,1,1l0.1,13.9H15V4.2L12.9,1z"/>
<path class="st2" d="M14.9,5H12V1h0.9L14.9,5z"/>
</svg>
