<?xml version="1.0" encoding="utf-8"?>
<!-- Generator: Adobe Illustrator 19.2.1, SVG Export Plug-In . SVG Version: 6.00 Build 0)  -->
<svg version="1.1" id="Layer_1" xmlns="http://www.w3.org/2000/svg" xmlns:xlink="http://www.w3.org/1999/xlink" x="0px" y="0px"
	 viewBox="0 0 16 16" style="enable-background:new 0 0 16 16;" xml:space="preserve">
<style type="text/css">
	.st0{fill:#404040;}
	.st1{fill:#CDCDCD;}
	.st2{fill:#4FBC78;}
</style>
<path class="st0" d="M12,2.2l1.8,2.5v9.1H2.3V2.2H12 M12.5,1.2c-7.1,0-10.4,0-11,0v13.6h13.3V4.3L12.5,1.2L12.5,1.2z"/>
<path class="st0" d="M14.8,4.3l-3.2,0V1.2h0.9L14.8,4.3z"/>
<rect x="6.4" y="4.5" class="st1" width="5.4" height="1.5"/>
<rect x="6.6" y="6.7" class="st1" width="5.5" height="1.5"/>
<rect x="8.2" y="9.1" class="st1" width="3.8" height="1.5"/>
<rect x="6.4" y="11.8" class="st1" width="5.7" height="1.5"/>
<rect x="3.4" y="4.5" class="st1" width="1.9" height="1.5"/>
<rect x="3.4" y="6.7" class="st1" width="1.9" height="1.2"/>
<path class="st2" d="M5.7,6.8c1.9,0,3.4,1.5,3.4,3.4s-1.5,3.4-3.4,3.4s-3.4-1.5-3.4-3.4C2.4,8.3,3.9,6.8,5.7,6.8z M6.4,9.5V7.9H5.1
	v1.6H3.4v1.3h1.7v1.6h1.3v-1.6H8V9.5H6.4z"/>
</svg>
