<?xml version="1.0" encoding="utf-8"?>
<!-- Generator: Adobe Illustrator 20.0.0, SVG Export Plug-In . SVG Version: 6.00 Build 0)  -->
<svg version="1.1" id="Layer_1" xmlns="http://www.w3.org/2000/svg" xmlns:xlink="http://www.w3.org/1999/xlink" x="0px" y="0px"
	 viewBox="0 0 16 16" style="enable-background:new 0 0 16 16;" xml:space="preserve">
<style type="text/css">
	.st0{fill:#F7A808;}
</style>
<path class="st0" d="M11.1,7.3c0-0.1,0.4-1.2,0.1-2.5C10.9,2.5,9,0.7,6.6,0.7C3.9,0.9,1.8,3,1.8,5.6c0,2.6,2.1,4.7,4.7,4.7
	c0.7,0,1.3-0.2,1.9-0.4l1.1,1.2l1.1-0.4l0.1,1.5l1.4-0.1l0.1,1.3h3.1v-2.6C15,10.5,11.1,7.3,11.1,7.3z M6.3,6.7
	c-0.7,0-1.5-0.6-1.5-1.4c0-0.8,0.7-1.4,1.4-1.4c0.7,0,1.5,0.6,1.5,1.4C7.7,6.2,7,6.7,6.3,6.7z"/>
</svg>
