<svg id="Layer_2" data-name="Layer 2" xmlns="http://www.w3.org/2000/svg" viewBox="0 0 14.39 14.41"><defs><style>.cls-1{fill:#404040;}.cls-2{fill:#4fbc78;}</style></defs><title>all</title><path class="cls-1" d="M14.12,8.34c1.36-2.52,1.52-4.94.2-6.26-1-1-2.58-1.18-4.49-.57a10.62,10.62,0,0,0-1.76.77,10.18,10.18,0,0,0-1.71-.72C4.47,1,2.89,1.21,1.9,2.2S0.69,4.77,1.27,6.66A10.16,10.16,0,0,0,2,8.35c-1.38,2.54-1.56,5-.23,6.31a3.37,3.37,0,0,0,2.46.92,6.65,6.65,0,0,0,2-.35,10.67,10.67,0,0,0,1.81-.79,8.07,8.07,0,0,0,3.62,1,3.48,3.48,0,0,0,2.54-.94c1-1,1.21-2.57.63-4.46A10.17,10.17,0,0,0,14.12,8.34ZM11.84,2.52A2.11,2.11,0,0,1,13.37,3c0.71,0.71.68,2.19-.08,3.93A15.34,15.34,0,0,0,9.44,3.12,6.18,6.18,0,0,1,11.84,2.52Zm0.72,5.82a14.47,14.47,0,0,1-2,2.52,14.37,14.37,0,0,1-2.5,2,13.56,13.56,0,0,1-2.5-2,13.48,13.48,0,0,1-2-2.53A15.16,15.16,0,0,1,8.06,3.84a13.48,13.48,0,0,1,2.52,2A13.49,13.49,0,0,1,12.56,8.34Zm-10-2.08c-0.42-1.37-.31-2.5.29-3.11S4.6,2.44,6,2.86C6.2,2.94,6.45,3,6.69,3.15A16.41,16.41,0,0,0,2.84,7C2.75,6.74,2.64,6.5,2.56,6.27Zm3.26,7.67c-1.38.45-2.52,0.36-3.12-.24s-0.69-2.21.1-4a15.29,15.29,0,0,0,1.76,2.11,15.26,15.26,0,0,0,2.1,1.75A8.84,8.84,0,0,1,5.83,13.94Zm7.43-.38c-0.71.71-2.15,0.72-3.83,0a16.19,16.19,0,0,0,2.07-1.75,16.18,16.18,0,0,0,1.77-2.1c0.1,0.24.21,0.48,0.28,0.72C14,11.81,13.86,12.94,13.25,13.55Z" transform="translate(-0.84 -1.17)"/><circle class="cls-2" cx="7.2" cy="7.2" r="1.94"/></svg>