<?xml version="1.0" encoding="utf-8"?>
<!-- Generator: Adobe Illustrator 20.0.0, SVG Export Plug-In . SVG Version: 6.00 Build 0)  -->
<svg version="1.1" id="Layer_1" xmlns="http://www.w3.org/2000/svg" xmlns:xlink="http://www.w3.org/1999/xlink" x="0px" y="0px"
	 viewBox="0 0 16 16" style="enable-background:new 0 0 16 16;" xml:space="preserve">
<style type="text/css">
	.st0{fill:#404040;}
	.st1{fill:#FFFFFF;}
	.st2{fill:#F7A808;}
</style>
<title>server</title>
<path d="M13.1-1.9"/>
<polyline class="st0" points="14,2 14,14 2,14 2,2 14,2 "/>
<polygon class="st0" points="15,1 1,1 1,15 15,15 15,1 "/>
<polygon class="st1" points="12,9 10,9 9,8 12,8 "/>
<rect x="7.1" y="6" class="st1" width="4.9" height="1"/>
<rect x="4" y="4" class="st1" width="8" height="1"/>
<path class="st2" d="M6.5,5C4,5,2,7,2,9.5S4,14,6.5,14S11,12,11,9.5S9,5,6.5,5z"/>
<path class="st1" d="M8.8,12.8L4,9.8c0,0,1.1,0,1.5,0L3.3,7.1c0,0.1,4.1,0,4.1,0l1.9,2.7H7.1C7.1,9.7,8.8,12.8,8.8,12.8z"/>
</svg>
