<?xml version="1.0" encoding="utf-8"?>
<!-- Generator: Adobe Illustrator 19.2.1, SVG Export Plug-In . SVG Version: 6.00 Build 0)  -->
<svg version="1.0" id="Layer_1" xmlns="http://www.w3.org/2000/svg" xmlns:xlink="http://www.w3.org/1999/xlink" x="0px" y="0px"
	 viewBox="0 0 16 16" style="enable-background:new 0 0 16 16;" xml:space="preserve">
<style type="text/css">
	.st0{fill:none;}
	.st1{fill:#707070;}
	.st2{fill:#404040;}
	.st3{fill:#FFFFFF;}
</style>
<title>application_new</title>
<rect class="st0" width="16" height="16"/>
<g>
	<path class="st1" d="M5.6,1.2v9.5h9.5V1.2H5.6z M8,2.3H7.7V1.9H8V2.3z M7,1.9h0.3v0.3h0H7V1.9z M6.6,1.9v0.3H6.3V1.9H6.6z M6.3,10
		V2.9h8.1V10H6.3z"/>
	<path class="st2" d="M0.9,5.3v9.5h9.5V5.3H0.9z M3.3,6.3H2.9V6h0.3V6.3z M2.3,6h0.3v0.3h0H2.3V6z M1.9,6v0.3H1.6V6H1.9z M1.6,14.1
		V7h8.1v7.1H1.6z"/>
</g>
<rect x="1.6" y="7" class="st3" width="8.1" height="7.1"/>
</svg>
