<?xml version="1.0" encoding="utf-8"?>
<!-- Generator: Adobe Illustrator 19.2.1, SVG Export Plug-In . SVG Version: 6.00 Build 0)  -->
<svg version="1.1" id="Layer_1" xmlns="http://www.w3.org/2000/svg" xmlns:xlink="http://www.w3.org/1999/xlink" x="0px" y="0px"
	 viewBox="0 0 16 16" style="enable-background:new 0 0 16 16;" xml:space="preserve">
<style type="text/css">
	.st0{fill:none;}
	.st1{fill:none;stroke:#3E3E3E;stroke-miterlimit:10;}
	.st2{fill:#3E3E3E;}
	.st3{fill:#4FBC78;}
</style>
<title>application_new</title>
<rect class="st0" width="16" height="16"/>
<rect x="1.5" y="1.5" class="st1" width="13" height="13"/>
<rect class="st0" width="16" height="16"/>
<path class="st2" d="M1,1v3h14V1H1z M4,3H3V2h1V3z M6,3H5V2h1V3z M8,3H7V2h1V3z"/>
<path class="st3" d="M4.9,6.2C2.7,6.2,1,7.9,1,10.1S2.7,14,4.9,14s3.9-1.7,3.9-3.9S7.1,6.2,4.9,6.2z M4.8,12.6v-1.4H2.7V8.9h2.1V7.6
	L8,10.1L4.8,12.6z"/>
</svg>
