<?xml version="1.0" encoding="utf-8"?>
<!-- Generator: Adobe Illustrator 19.2.1, SVG Export Plug-In . SVG Version: 6.00 Build 0)  -->
<svg version="1.1" id="Layer_1" xmlns="http://www.w3.org/2000/svg" xmlns:xlink="http://www.w3.org/1999/xlink" x="0px" y="0px"
	 viewBox="0 0 16 16" style="enable-background:new 0 0 16 16;" xml:space="preserve">
<style type="text/css">
	.st0{fill:none;stroke:#3E3E3E;stroke-miterlimit:10;}
	.st1{fill:none;}
	.st2{fill:#3E3E3E;}
	.st3{fill:#4FBC78;}
</style>
<title>application_new</title>
<rect x="1.5" y="1.5" class="st0" width="13" height="13"/>
<rect class="st1" width="16" height="16"/>
<path class="st2" d="M1,1v3h14V1H1z M4,3H3V2h1V3z M6,3H5V2h1V3z M8,3H7V2h1V3z"/>
<path class="st3" d="M5,6c-2.3,0-4,1.9-4,4s1.7,4,4,4s4-1.9,4-4S7.3,6,5,6z M8,11H6v2H4v-2H2V9h2V7h2v2h2v1V11z"/>
</svg>
