<?xml version="1.0" encoding="utf-8"?>
<!-- Generator: Adobe Illustrator 19.2.1, SVG Export Plug-In . SVG Version: 6.00 Build 0)  -->
<svg version="1.0" id="Layer_1" xmlns="http://www.w3.org/2000/svg" xmlns:xlink="http://www.w3.org/1999/xlink" x="0px" y="0px"
	 viewBox="0 0 16 16" style="enable-background:new 0 0 16 16;" xml:space="preserve">
<style type="text/css">
	.st0{fill:none;stroke:#3E3E3E;stroke-miterlimit:10;}
	.st1{fill:#3E3E3E;}
	.st2{fill:#FF6F6F;}
	.st3{fill:none;}
</style>
<title>application_new</title>
<rect x="1.5" y="1.5" class="st0" width="13" height="13"/>
<path class="st1" d="M14.5,3.5h-13v-2h13V3.5z M2.5,2.5V2H2v0.5H2.5z M3.5,2.5V2H3v0.5H3.5L3.5,2.5z M4.5,2.5V2H4v0.5H4.5L4.5,2.5z"
	/>
<path class="st2" d="M5.4,7.2C3.5,7.2,2,8.7,2,10.6c0,1.9,1.5,3.4,3.4,3.4c1.9,0,3.4-1.5,3.4-3.4C8.7,8.7,7.2,7.2,5.4,7.2z
	 M7.7,11.2H3.1V9.9h4.6V11.2z"/>
<rect class="st3" width="16" height="16"/>
</svg>
