<?xml version="1.0" encoding="utf-8"?>
<!-- Generator: Adobe Illustrator 19.2.1, SVG Export Plug-In . SVG Version: 6.00 Build 0)  -->
<svg version="1.1" id="Layer_1" xmlns="http://www.w3.org/2000/svg" xmlns:xlink="http://www.w3.org/1999/xlink" x="0px" y="0px"
	 viewBox="0 0 16 16" style="enable-background:new 0 0 16 16;" xml:space="preserve">
<style type="text/css">
	.st0{display:none;}
	.st1{fill:#4FBC78;}
</style>
<polygon class="st1" points="5.2,5.1 5.2,2.5 4.7,3.1 3.3,1.6 3.8,1.2 1.2,1.2 1.2,3.7 1.8,3.2 3.2,4.6 2.7,5.1 "/>
<polygon class="st1" points="13.3,5.1 12.8,4.6 14.2,3.2 14.8,3.7 14.8,1.2 12.2,1.2 12.7,1.6 11.3,3.1 10.8,2.5 10.8,5.1 "/>
<polygon class="st1" points="13.3,5.1 12.8,4.6 14.2,3.2 14.8,3.7 14.8,1.2 12.2,1.2 12.7,1.6 11.3,3.1 10.8,2.5 10.8,5.1 "/>
<polygon class="st1" points="5.2,5.1 5.2,2.5 4.7,3.1 3.3,1.6 3.8,1.2 1.2,1.2 1.2,3.7 1.8,3.2 3.2,4.6 2.7,5.1 "/>
<polygon class="st1" points="10.8,10.9 10.8,13.5 11.3,12.9 12.7,14.4 12.2,14.8 14.8,14.8 14.8,12.3 14.2,12.8 12.8,11.4 
	13.3,10.9 "/>
<polygon class="st1" points="2.7,10.9 3.2,11.4 1.8,12.8 1.2,12.3 1.2,14.8 3.8,14.8 3.3,14.4 4.7,12.9 5.2,13.5 5.2,10.9 "/>
</svg>
