<?xml version="1.0" encoding="utf-8"?>
<!-- Generator: Adobe Illustrator 19.2.1, SVG Export Plug-In . SVG Version: 6.00 Build 0)  -->
<svg version="1.0" id="Layer_1" xmlns="http://www.w3.org/2000/svg" xmlns:xlink="http://www.w3.org/1999/xlink" x="0px" y="0px"
	 viewBox="0 0 16 16" style="enable-background:new 0 0 16 16;" xml:space="preserve">
<style type="text/css">
	.st0{fill:#F7A808;}
	.st1{fill:none;}
</style>
<g>
	<path class="st0" d="M9.8,11.2c0,1.3,0,2.5,0,3.8c-1.2,0-2.4,0-3.7,0c0-1.2,0-2.5,0-3.8C5,11.8,4,12.4,2.9,13.1
		C2.3,12,1.7,10.9,1.1,9.9C2.1,9.3,3.2,8.6,4.3,8C3.2,7.3,2.1,6.7,1.1,6.1C1.7,5,2.3,4,2.9,2.9C4,3.5,5,4.2,6.2,4.8
		c0-1.3,0-2.5,0-3.7c1.2,0,2.4,0,3.7,0c0,1.2,0,2.5,0,3.8C11,4.2,12,3.5,13.1,2.9C13.7,4,14.3,5,14.9,6.1c-1.1,0.6-2.2,1.2-3.3,1.9
		c1.1,0.6,2.2,1.3,3.3,1.9c-0.6,1.1-1.2,2.1-1.8,3.2C12,12.4,11,11.8,9.8,11.2z"/>
</g>
<rect class="st1" width="16" height="16"/>
</svg>
