<?xml version="1.0" encoding="utf-8"?>
<!-- Generator: Adobe Illustrator 19.2.1, SVG Export Plug-In . SVG Version: 6.00 Build 0)  -->
<svg version="1.1" id="Layer_1" xmlns="http://www.w3.org/2000/svg" xmlns:xlink="http://www.w3.org/1999/xlink" x="0px" y="0px"
	 viewBox="0 0 16 16" style="enable-background:new 0 0 16 16;" xml:space="preserve">
<style type="text/css">
	.st0{fill:#FF6F6F;}
	.st1{fill:none;}
</style>
<g>
	<path class="st0" d="M15.2,3.5c0,3.1,0,6.2,0,9.3c0,0-0.1,0-0.1,0c-0.6,0-1.2,0-1.9,0c-0.3,0-0.7,0-1,0.1c-0.4,0.1-0.9,0.1-1.3,0.2
		c-0.6,0.1-1.2,0.3-1.7,0.5c-0.2,0.1-0.4,0.2-0.6,0.4c-0.1,0.1-0.2,0.1-0.4,0.1c-0.2,0-0.4,0-0.6,0c0,0-0.1,0-0.1-0.1
		c-0.2-0.2-0.4-0.4-0.7-0.5c-0.5-0.2-1-0.4-1.6-0.5C4.6,13,4,13,3.4,12.9c-0.8-0.1-1.6-0.1-2.4-0.1c0,0-0.1,0-0.1,0
		c0-3.1,0-6.2,0-9.3c0,0,0.1,0,0.1,0c0.3,0,0.6,0,0.9,0c0.1,0,0.1,0,0.1-0.1c0-0.2,0-0.3,0-0.5c0-0.1,0-0.1,0.1-0.1
		c0.6,0,1.2,0,1.9,0.1C4.3,3,4.7,3,5.2,3.1c0.6,0.1,1.1,0.2,1.6,0.5c0.3,0.1,0.6,0.3,0.9,0.5C7.8,4.2,7.9,4.3,8,4.4c0,0,0,0,0.1-0.1
		C8.3,4,8.6,3.9,8.9,3.7c0.5-0.3,1.1-0.4,1.7-0.5C11.2,3,11.8,3,12.5,2.9c0.5,0,1,0,1.5-0.1c0.1,0,0.1,0,0.1,0.1c0,0.1,0,0.3,0,0.4
		c0,0.1,0,0.1,0.1,0.1c0.3,0,0.6,0,0.9,0C15.1,3.5,15.2,3.5,15.2,3.5z M7.7,12.4c0,0,0-0.1,0-0.1c0-2.4,0-4.9,0-7.3
		c0-0.1,0-0.2-0.1-0.3C7.3,4.4,6.9,4.2,6.5,4c-0.6-0.3-1.3-0.4-2-0.5c-0.7-0.1-1.4-0.1-2-0.1c-0.1,0-0.1,0-0.1,0.1
		c0,2.5,0,5.1,0,7.6c0,0.1,0,0.1,0.1,0.1c0.7,0,1.5,0.1,2.2,0.2c0.5,0.1,1.1,0.2,1.6,0.3c0.4,0.1,0.9,0.3,1.2,0.6
		C7.6,12.3,7.6,12.4,7.7,12.4z M8.3,12.4C8.4,12.4,8.4,12.4,8.3,12.4c0.3-0.2,0.5-0.3,0.8-0.4c0.4-0.2,0.9-0.3,1.3-0.4
		c0.4-0.1,0.8-0.2,1.2-0.2c0.6-0.1,1.3-0.1,1.9-0.1c0.1,0,0.1,0,0.1-0.1c0-0.4,0-0.9,0-1.3c0-2.1,0-4.2,0-6.3c0-0.1,0-0.1-0.1-0.1
		c-0.3,0-0.7,0-1,0c-0.5,0-1,0.1-1.5,0.2c-0.6,0.1-1.2,0.2-1.7,0.5C9,4.3,8.7,4.4,8.4,4.7C8.4,4.8,8.3,4.8,8.3,4.9
		c0,2.4,0,4.9,0,7.3C8.3,12.3,8.3,12.3,8.3,12.4z"/>
</g>
<rect class="st1" width="16" height="16"/>
</svg>
