<?xml version="1.0" encoding="utf-8"?>
<!-- Generator: Adobe Illustrator 19.2.1, SVG Export Plug-In . SVG Version: 6.00 Build 0)  -->
<svg version="1.0" id="Layer_1" xmlns="http://www.w3.org/2000/svg" xmlns:xlink="http://www.w3.org/1999/xlink" x="0px" y="0px"
	 viewBox="0 0 16 16" style="enable-background:new 0 0 16 16;" xml:space="preserve">
<style type="text/css">
	.st0{fill:none;stroke:#FF6F6F;stroke-width:0.5;stroke-miterlimit:10;}
	.st1{fill:#FF6F6F;}
	.st2{fill:none;}
</style>
<polyline class="st0" points="8.2,5.8 7.2,5.8 1.8,2.9 1.8,3.9 7.2,6.9 8.2,6.9 "/>
<polygon class="st1" points="1.5,3.5 7.2,6.9 7.2,13.5 1.4,11.2 "/>
<polyline class="st2" points="16,16 0,16 0,0 16,0 "/>
<polyline class="st2" points="16,16 0,16 0,0 16,0 "/>
<polyline class="st0" points="7.8,6.9 8.8,6.9 14.2,3.9 14.2,2.9 8.8,5.8 7.8,5.8 "/>
<polygon class="st1" points="14.6,11.2 8.8,13.5 8.8,6.9 14.5,3.5 "/>
<polyline class="st2" points="0,16 16,16 16,0 0,0 "/>
<rect x="7.6" y="7.6" class="st1" width="0.8" height="5.9"/>
</svg>
