<?xml version="1.0" encoding="utf-8"?>
<!-- Generator: Adobe Illustrator 19.2.1, SVG Export Plug-In . SVG Version: 6.00 Build 0)  -->
<svg version="1.0" id="Layer_1" xmlns="http://www.w3.org/2000/svg" xmlns:xlink="http://www.w3.org/1999/xlink" x="0px" y="0px"
	 viewBox="0 0 16 16" style="enable-background:new 0 0 16 16;" xml:space="preserve">
<style type="text/css">
	.st0{display:none;}
	.st1{fill:#F7A808;}
	.st2{fill:none;}
</style>
<g id="Layer_1_1_" class="st0">
	
		<image style="display:inline;overflow:visible;enable-background:new    ;" width="269" height="273" xlink:href="../../../../Desktop/Screen Shot 2016-04-20 at 17.00.30.png"  transform="matrix(5.433455e-02 0 0 5.433455e-02 0.692 0.5833)">
	</image>
</g>
<g id="Layer_2">
	<path class="st1" d="M14.9,6.1V5.7V5.4l0,0l-3.4-3.7H4.2L1.1,5.4l0,0l0,0l0,0v0.8l0,0v8.2h13.8L14.9,6.1L14.9,6.1z M13.3,5.1H8.5
		V2.7h2.6L13.3,5.1z M4.7,2.7h2.8v2.5H2.6L4.7,2.7z M13.9,13.2H2.1V6.1h11.8V13.2z"/>
	<rect y="1" class="st2" width="16" height="16"/>
</g>
</svg>
