<?xml version="1.0" encoding="utf-8"?>
<!-- Generator: Adobe Illustrator 19.2.1, SVG Export Plug-In . SVG Version: 6.00 Build 0)  -->
<svg version="1.0" id="Layer_1" xmlns="http://www.w3.org/2000/svg" xmlns:xlink="http://www.w3.org/1999/xlink" x="0px" y="0px"
	 viewBox="0 0 16 16" style="enable-background:new 0 0 16 16;" xml:space="preserve">
<style type="text/css">
	.st0{fill:none;stroke:#F7A808;stroke-miterlimit:10;}
	.st1{fill:#404040;}
	.st2{fill:#F7A808;}
	.st3{fill:none;}
	.st4{fill:none;stroke:#404040;stroke-miterlimit:10;}
</style>
<path class="st0" d="M-16,9L-16,9"/>
<rect x="2.5" y="1.1" class="st1" width="10.6" height="1.5"/>
<polygon class="st2" points="5,13.2 11,13.2 7.9,9.5 "/>
<rect class="st3" width="16" height="16"/>
<rect class="st3" width="16" height="16"/>
<rect x="2.5" y="13.2" class="st1" width="10.6" height="1.5"/>
<polygon class="st2" points="6,3.2 9.9,3.2 7.9,5.2 "/>
<g>
	<path class="st4" d="M3.8,2.6V3c0,1.8,2,5,2,5s-1.2,1.6-1.5,2.6c-0.5,1.4-0.5,2.7-0.5,2.7"/>
	<path class="st4" d="M12.1,2.6V3c-0.2,1.8-2,5-2,5s1.2,1.6,1.5,2.6c0.5,1.4,0.5,2.7,0.5,2.7"/>
</g>
</svg>
