<?xml version="1.0" encoding="utf-8"?>
<!-- Generator: Adobe Illustrator 20.0.0, SVG Export Plug-In . SVG Version: 6.00 Build 0)  -->
<svg version="1.1" id="Layer_1" xmlns="http://www.w3.org/2000/svg" xmlns:xlink="http://www.w3.org/1999/xlink" x="0px" y="0px"
	 viewBox="0 0 16 16" style="enable-background:new 0 0 16 16;" xml:space="preserve">
<style type="text/css">
	.st0{fill:#404040;}
	.st1{fill:#FF6F6F;}
</style>
<polygon class="st0" points="4,7 6,7 6,8.9 5,8 4,8 "/>
<polygon class="st0" points="7,7 9,7 9,9 8,9 7,9 7,8 "/>
<rect x="10" y="7" class="st0" width="2" height="2"/>
<polygon class="st0" points="8,11 8,10 8.9,9.9 8.9,11.9 6.9,11.9 7,11 "/>
<rect x="10" y="10" class="st0" width="2" height="2"/>
<path class="st0" d="M12,3c0,0,0.1-2,0-2h-2v2H6c0,0,0-1.4,0-2H4v2H1v12h14V3H12z M14,14H4.9H3l-0.9,0l0-2.8L1.9,9.9L1,10h0.9L2,5
	h12C14,4.9,14,14,14,14z"/>
<path class="st1" d="M5,6c-2.3,0-4,1.9-4,4s1.7,4,4,4s4-1.9,4-4S7.3,6,5,6z M8,11H2V9h6v1V11z"/>
</svg>
