<?xml version="1.0" encoding="utf-8"?>
<!-- Generator: Adobe Illustrator 20.0.0, SVG Export Plug-In . SVG Version: 6.00 Build 0)  -->
<svg version="1.1" id="Layer_1" xmlns="http://www.w3.org/2000/svg" xmlns:xlink="http://www.w3.org/1999/xlink" x="0px" y="0px"
	 viewBox="0 0 16 16" style="enable-background:new 0 0 16 16;" xml:space="preserve">
<style type="text/css">
	.st0{fill:#404040;}
	.st1{fill:none;stroke:#414141;stroke-width:1.2326;stroke-miterlimit:10;}
	.st2{fill:none;stroke:#414141;stroke-width:1.2326;stroke-linecap:round;stroke-miterlimit:10;}
</style>
<path class="st0" d="M12,3c0,0,0.1-2,0-2h-2v2H6c0,0,0-1.4,0-2H4v2H1v12h14V3H12z M14,13H2V5h12C14,4.9,14,13,14,13z"/>
<path class="st1" d="M13.3,9.1L13.3,9.1c0,0.7-0.5,1.4-1.2,1.4h-1.2c-0.7,0-1.4-0.6-1.5-1.2l0,0c0-0.7,0.5-1.4,1.2-1.4h1.2
	C12.6,7.7,13.3,8.3,13.3,9.1z"/>
<path class="st1" d="M6.6,9.1L6.6,9.1c0,0.7-0.5,1.4-1.2,1.4H4.2c-0.7,0-1.5-0.6-1.5-1.4l0,0c0-0.7,0.5-1.4,1.2-1.4h1.2
	C5.9,7.8,6.5,8.3,6.6,9.1z"/>
<line class="st2" x1="6" y1="9.2" x2="10.2" y2="9.1"/>
</svg>
