<?xml version="1.0" encoding="utf-8"?>
<!-- Generator: Adobe Illustrator 19.2.1, SVG Export Plug-In . SVG Version: 6.00 Build 0)  -->
<svg version="1.1" id="Layer_1" xmlns="http://www.w3.org/2000/svg" xmlns:xlink="http://www.w3.org/1999/xlink" x="0px" y="0px"
	 viewBox="0 0 16 16" style="enable-background:new 0 0 16 16;" xml:space="preserve">
<style type="text/css">
	.st0{fill:#404040;}
</style>
<rect x="5.6" y="8.5" transform="matrix(0.7714 -0.6363 0.6363 0.7714 -4.3277 7.008)" class="st0" width="4" height="2"/>
<polygon class="st0" points="4.5,12.3 5.1,10.4 6.4,11.9 "/>
<rect x="9.5" y="6.6" transform="matrix(0.7714 -0.6363 0.6363 0.7714 -2.533 8.1077)" class="st0" width="1.1" height="2"/>
<path class="st0" d="M12,3c0,0,0.1-2,0-2h-2v2H6c0,0,0-1.4,0-2H4v2H1v12h14V3H12z M14,13H2V5h12C14,4.9,14,13,14,13z"/>
</svg>
