<?xml version="1.0" encoding="utf-8"?>
<!-- Generator: Adobe Illustrator 19.2.1, SVG Export Plug-In . SVG Version: 6.00 Build 0)  -->
<svg version="1.1" id="Layer_2" xmlns="http://www.w3.org/2000/svg" xmlns:xlink="http://www.w3.org/1999/xlink" x="0px" y="0px"
	 viewBox="0 0 16 16" style="enable-background:new 0 0 16 16;" xml:space="preserve">
<style type="text/css">
	.st0{fill:#404040;}
</style>
<polygon class="st0" points="6.4,12 5.2,12 5.2,7.9 4.5,8.4 3.6,7.6 5.1,6.6 6.4,6.6 "/>
<path class="st0" d="M11.9,10.6V8.2c0-0.9-0.7-1.5-1.6-1.5h-1c-0.9,0-1.6,0.6-1.6,1.5v2.3c0,0.9,0.7,1.5,1.6,1.5h1.1
	C11.3,12,12,11.4,11.9,10.6z M10.7,10.6c0,0.3-0.3,0.4-0.4,0.4h-1c-0.3,0-0.4-0.3-0.4-0.4V8.2c0-0.3,0.2-0.4,0.3-0.4h1.1
	c0.3,0,0.4,0.3,0.4,0.4V10.6z"/>
<path class="st0" d="M12,3c0,0,0.1-2,0-2h-2v2H6c0,0,0-1.4,0-2H4v2H1v12h14V3H12z M14,13H2V5h12C14,4.9,14,13,14,13z"/>
</svg>
