<?xml version="1.0" encoding="utf-8"?>
<!-- Generator: Adobe Illustrator 19.2.1, SVG Export Plug-In . SVG Version: 6.00 Build 0)  -->
<svg version="1.1" id="Layer_2" xmlns="http://www.w3.org/2000/svg" xmlns:xlink="http://www.w3.org/1999/xlink" x="0px" y="0px"
	 viewBox="0 0 16 16" style="enable-background:new 0 0 16 16;" xml:space="preserve">
<style type="text/css">
	.st0{fill:#404040;}
</style>
<polygon class="st0" points="6.7,12.4 5.6,12.4 5.6,8.9 5,9.5 4.2,8.6 5.5,7.5 6.7,7.5 "/>
<path class="st0" d="M10.1,12.4h-1c-0.8,0-1.4-0.6-1.4-1.4V8.8c0-0.8,0.6-1.4,1.4-1.4H10c0.8,0,1.4,0.6,1.4,1.4V11
	C11.5,11.8,10.9,12.4,10.1,12.4z M9.1,8.5C9,8.5,8.8,8.6,8.8,8.8V11c0,0.1,0.1,0.3,0.3,0.3H10c0.1,0,0.3-0.1,0.3-0.3V8.8
	c0-0.1-0.1-0.3-0.3-0.3H9.1z"/>
<path class="st0" d="M5.8,4.5H4.3V2.8h1.5C5.8,3.2,5.8,4.5,5.8,4.5z"/>
<path class="st0" d="M11.5,4.6H9.9V2.8h1.6C11.6,2.9,11.5,4.6,11.5,4.6z"/>
<path class="st0" d="M13.4,12.9H2.6V6.5l10.8,0.1C13.4,6.5,13.4,12.9,13.4,12.9z M1.1,4.5v9.9h13.8V4.5H1.1z"/>
</svg>
