<?xml version="1.0" encoding="utf-8"?>
<!-- Generator: Adobe Illustrator 20.0.0, SVG Export Plug-In . SVG Version: 6.00 Build 0)  -->
<svg version="1.1" id="Layer_1" xmlns="http://www.w3.org/2000/svg" xmlns:xlink="http://www.w3.org/1999/xlink" x="0px" y="0px"
	 viewBox="0 0 16 16" style="enable-background:new 0 0 16 16;" xml:space="preserve">
<style type="text/css">
	.st0{fill:#404040;}
	.st1{fill:#4FBC78;}
</style>
<polygon class="st0" points="4,7 6,7 6,8.9 5,8 4,8 "/>
<polygon class="st0" points="7,7 9,7 9,9 8,9 7,9 7,8 "/>
<rect x="10" y="7" class="st0" width="2" height="2"/>
<polygon class="st0" points="7,10 9,10 9,12 7,12 "/>
<rect x="10" y="10" class="st0" width="2" height="2"/>
<path class="st0" d="M12,3c0,0,0.1-2,0-2h-2v2H6c0,0,0-1.4,0-2H4v2H1v12h14V3H12z M14.1,13.9L4.9,14H3v-2H2H1v-2h1V5h12
	C14,4.9,14.1,13.9,14.1,13.9z"/>
<path class="st1" d="M4,7c-2.3,0-4,1.9-4,4s1.7,4,4,4s4-1.9,4-4S6.3,7,4,7z M7,12H5v2H4H3v-2H1v-2h2V8h2v2h2v1V12z"/>
</svg>
