<?xml version="1.0" encoding="utf-8"?>
<!-- Generator: Adobe Illustrator 20.0.0, SVG Export Plug-In . SVG Version: 6.00 Build 0)  -->
<svg version="1.1" xmlns="http://www.w3.org/2000/svg" xmlns:xlink="http://www.w3.org/1999/xlink" x="0px" y="0px"
	 viewBox="0 0 16 16" style="enable-background:new 0 0 16 16;" xml:space="preserve">
<style type="text/css">
	.st0{display:none;}
	.st1{display:inline;}
	.st2{display:inline;fill:#404040;}
	.st3{fill:#404040;}
	.st4{fill:none;stroke:#404040;stroke-width:0.927;stroke-miterlimit:10;}
	.st5{fill:none;stroke:#404040;stroke-width:0.9344;stroke-miterlimit:10;}
	.st6{fill:none;stroke:#404040;stroke-width:0.9789;stroke-miterlimit:10;}
	.st7{fill:none;stroke:#404040;stroke-width:0.9967;stroke-miterlimit:10;}
	.st8{fill:none;stroke:#404040;stroke-width:1.102;stroke-miterlimit:10;}
</style>
<g id="Layer_2" class="st0">
	<rect x="0" y="2" class="st1" width="3.9" height="2"/>
	<rect x="3" y="4" class="st2" width="12" height="1.1"/>
	<rect x="7" y="4.1" class="st2" width="1" height="7.9"/>
	<rect x="10" y="4.1" class="st2" width="1" height="7.9"/>
	<rect x="3" y="6" class="st2" width="12" height="1"/>
	<rect x="4" y="8" class="st2" width="10" height="1"/>
	<rect x="0" y="2" class="st2" width="4" height="2"/>
	<rect x="4" y="10" class="st2" width="9" height="2"/>
	<rect x="3" y="5" class="st2" width="1" height="1"/>
	<rect x="3" y="7" class="st2" width="2" height="1"/>
	<rect x="4" y="9" class="st2" width="1" height="1"/>
	<rect x="13" y="9" class="st2" width="1" height="1"/>
	<rect x="13" y="7" class="st2" width="2" height="1"/>
	<rect x="14" y="3.9" class="st2" width="1" height="2.1"/>
	<rect x="13.5" y="3.1" class="st2" width="2.5" height="1.1"/>
	<rect x="14.6" y="4" class="st2" width="1.4" height="0.9"/>
	<rect x="13" y="10" class="st2" width="1" height="1"/>
	<circle class="st2" cx="5.5" cy="14.5" r="1.5"/>
	<circle class="st2" cx="11.5" cy="14.5" r="1.5"/>
	<rect x="3" y="2" class="st2" width="0.9" height="3.6"/>
</g>
<g id="Layer_3">
	<g>
		<path class="st3" d="M14,6v4.9H3.1V6H14 M15,5H2v6.9h13V5L15,5z"/>
	</g>
	<g>
		<line class="st4" x1="2.3" y1="7.5" x2="14.3" y2="7.5"/>
	</g>
	<g>
		<line class="st4" x1="2.6" y1="9.5" x2="14.7" y2="9.5"/>
	</g>
	<line class="st5" x1="4.4" y1="5.7" x2="4.4" y2="11.6"/>
	<line class="st6" x1="6.5" y1="5.5" x2="6.6" y2="11.6"/>
	<line class="st6" x1="8.5" y1="5.4" x2="8.6" y2="11.5"/>
	<line class="st7" x1="10.6" y1="5.4" x2="10.6" y2="11.5"/>
	<line class="st8" x1="12.5" y1="5.2" x2="12.5" y2="11.4"/>
	<rect x="2" y="2.1" class="st3" width="1" height="3.1"/>
	<rect y="2" class="st3" width="3" height="1.1"/>
	<ellipse class="st3" cx="3.9" cy="14.5" rx="1.3" ry="1.3"/>
	<ellipse class="st3" cx="12.9" cy="14.5" rx="1.3" ry="1.3"/>
</g>
</svg>
