<?xml version="1.0" encoding="utf-8"?>
<!-- Generator: Adobe Illustrator 19.2.1, SVG Export Plug-In . SVG Version: 6.00 Build 0)  -->
<svg version="1.1" id="Layer_1" xmlns="http://www.w3.org/2000/svg" xmlns:xlink="http://www.w3.org/1999/xlink" x="0px" y="0px"
	 viewBox="0 0 16 16" style="enable-background:new 0 0 16 16;" xml:space="preserve">
<style type="text/css">
	.st0{fill:none;stroke:#00ADEE;stroke-width:0.5206;stroke-miterlimit:10;}
	.st1{fill:none;stroke:#00ADEE;stroke-width:0.5;stroke-miterlimit:10;}
	.st2{fill:none;stroke:#00ADEE;stroke-miterlimit:10;}
	.st3{fill:none;stroke:#00ADEE;stroke-width:0.7951;stroke-miterlimit:10;}
	.st4{fill:none;stroke:#00ADEE;stroke-width:1.025;stroke-miterlimit:10;}
	.st5{fill:none;stroke:#00ADEE;stroke-width:1.2016;stroke-miterlimit:10;}
	.st6{fill:#00ADEE;}
</style>
<path class="st0" d="M12.7,5"/>
<path class="st1" d="M1.2,5"/>
<line class="st2" x1="5.5" y1="1.4" x2="5.5" y2="5.3"/>
<line class="st3" x1="9.4" y1="1.6" x2="9.4" y2="4.2"/>
<path class="st1" d="M2.2,9"/>
<polyline class="st4" points="14.9,11.5 1.4,11.5 1.4,1.4 12.5,1.5 12.5,5.2 "/>
<line class="st5" x1="1.1" y1="4.5" x2="12.8" y2="4.5"/>
<line class="st5" x1="1.1" y1="8.5" x2="3.7" y2="8.5"/>
<path class="st0" d="M14.7,9.1"/>
<path class="st1" d="M3.2,9.1"/>
<path class="st0" d="M14.7,9"/>
<path class="st1" d="M3.2,9"/>
<path class="st2" d="M7.4,14"/>
<path class="st2" d="M7.4,5"/>
<path class="st2" d="M11.5,5.2"/>
<path class="st1" d="M4.2,13"/>
<g>
	<path class="st6" d="M14,6v8H3.9l0-8.1L14,6 M15,5.1H3V15h12V5.1L15,5.1z"/>
</g>
<line class="st2" x1="3.4" y1="8.5" x2="3.9" y2="8.5"/>
<path class="st2" d="M3.5,8.1"/>
<path class="st1" d="M5.2,13.1"/>
<path class="st1" d="M4.2,13.1"/>
<line class="st5" x1="3.5" y1="8.5" x2="15" y2="8.5"/>
<line class="st5" x1="3.5" y1="11.5" x2="15" y2="11.5"/>
<line class="st2" x1="7.4" y1="5.9" x2="7.4" y2="14.6"/>
<line class="st2" x1="11.5" y1="5.4" x2="11.5" y2="14.1"/>
</svg>
