<?xml version="1.0" encoding="utf-8"?>
<!-- Generator: Adobe Illustrator 19.2.1, SVG Export Plug-In . SVG Version: 6.00 Build 0)  -->
<svg version="1.1" id="Layer_1" xmlns="http://www.w3.org/2000/svg" xmlns:xlink="http://www.w3.org/1999/xlink" x="0px" y="0px"
	 viewBox="0 0 16 16" style="enable-background:new 0 0 16 16;" xml:space="preserve">
<style type="text/css">
	.st0{fill:#404040;}
	.st1{fill:none;}
</style>
<polygon class="st0" points="4.6,11.7 4,11.3 3.3,11.6 3.4,10.8 2.8,10.2 3.7,10.2 4,9.5 4.3,10.2 5,10.4 4.4,10.8 "/>
<polygon class="st0" points="10.1,8 9.5,7.6 8.8,7.9 9,7.2 8.5,6.7 9.2,6.6 9.5,6 9.8,6.7 10.5,6.8 10,7.3 "/>
<polygon class="st0" points="12.6,11 12.2,10.8 11.7,10.9 11.9,10.5 11.5,10.2 12,10 12.1,9.6 12.4,10 12.9,10.2 12.5,10.5 "/>
<rect class="st1" width="16" height="16"/>
<rect x="5.2" y="5.7" transform="matrix(0.6106 -0.792 0.792 0.6106 -4.152 7.9709)" class="st0" width="1.7" height="5"/>
<g>
	<rect x="8.3" y="9.9" transform="matrix(0.6106 -0.792 0.792 0.6106 -4.8236 11.3721)" class="st0" width="1.7" height="1.4"/>
</g>
<path class="st0" d="M15,3.8V3H8L7,2H1v2.9l0,0V14h14V3.8L15,3.8z M2,13V5h12v8H2z"/>
</svg>
