<?xml version="1.0" encoding="utf-8"?>
<!-- Generator: Adobe Illustrator 19.2.1, SVG Export Plug-In . SVG Version: 6.00 Build 0)  -->
<svg version="1.0" id="Layer_1" xmlns="http://www.w3.org/2000/svg" xmlns:xlink="http://www.w3.org/1999/xlink" x="0px" y="0px"
	 viewBox="0 0 16 16" style="enable-background:new 0 0 16 16;" xml:space="preserve">
<style type="text/css">
	.st0{fill:#F7A808;}
	.st1{fill:#404040;}
</style>
<g>
	<path class="st0" d="M8.2,8.9c-0.5,0-1.5,0-2,0c-0.2,0-0.5,0-0.6,0L7,5.7h2.5L8.4,7.6c0.5,0,2.1,0,2.1,0L7.4,12
		c0,0-0.1,0.1-0.1-0.1C7.2,11.8,8.1,9.1,8.2,8.9z"/>
</g>
<path class="st1" d="M15,3.8V2.6H8L7.2,2.2H1v2.7l0,0v8.9h13.9L15,3.8L15,3.8z M2,12.8V4.9h12v7.9H2z"/>
</svg>
