<?xml version="1.0" encoding="utf-8"?>
<!-- Generator: Adobe Illustrator 19.2.1, SVG Export Plug-In . SVG Version: 6.00 Build 0)  -->
<svg version="1.0" id="Layer_1" xmlns="http://www.w3.org/2000/svg" xmlns:xlink="http://www.w3.org/1999/xlink" x="0px" y="0px"
	 viewBox="0 0 16 16" style="enable-background:new 0 0 16 16;" xml:space="preserve">
<style type="text/css">
	.st0{fill:#404040;}
	.st1{fill:none;}
</style>
<polygon class="st0" points="5.3,8 4.7,7.6 4,7.9 4.1,7.1 3.5,6.5 4.4,6.5 4.7,5.8 5,6.5 5.7,6.7 5.1,7.1 "/>
<polygon class="st0" points="12.2,8.3 11.6,7.9 10.9,8.2 11.1,7.5 10.6,7 11.3,6.9 11.6,6.3 11.9,7 12.6,7.1 12.1,7.6 "/>
<polygon class="st0" points="11.5,11.2 11.1,11 10.7,11 10.8,10.8 10.4,10.4 10.9,10.2 11.1,10 11.3,10.2 11.8,10.4 11.4,10.8 "/>
<rect class="st1" width="16" height="16"/>
<path class="st0" d="M15,3.8V2.6H8L7.2,2.2H1v2.7l0,0v8.9h13.9L15,3.8L15,3.8z M2,12.8V4.9h12v7.9H2z"/>
<rect x="3.3" y="9.2" transform="matrix(0.792 -0.6106 0.6106 0.792 -4.8979 5.6549)" class="st0" width="5" height="1.7"/>
<g>
	<rect x="8.2" y="6.8" transform="matrix(0.792 -0.6106 0.6106 0.792 -2.8149 7.0181)" class="st0" width="1.4" height="1.7"/>
</g>
</svg>
