<?xml version="1.0" encoding="utf-8"?>
<!-- Generator: Adobe Illustrator 19.2.1, SVG Export Plug-In . SVG Version: 6.00 Build 0)  -->
<svg version="1.1" id="Layer_2" xmlns="http://www.w3.org/2000/svg" xmlns:xlink="http://www.w3.org/1999/xlink" x="0px" y="0px"
	 viewBox="0 0 16 16" style="enable-background:new 0 0 16 16;" xml:space="preserve">
<style type="text/css">
	.st0{fill:#404040;}
	.st1{fill:none;stroke:#404040;stroke-miterlimit:10;}
</style>
<path class="st0" d="M12.8,12.9l-0.5-1L9.7,9.2C9.6,9.1,9.5,9.1,9.4,9.1L1,9c0,0,2,1.2,3,1.9s2.7,1.7,3,2.1
	C7,13,12.8,12.9,12.8,12.9z"/>
<polygon class="st1" points="4.1,9.5 1.7,7.2 9,7 11.3,11 8.4,9.7 "/>
<path class="st0" d="M3,7L1,4h7c0,0,2.9,5.4,3.4,5.9S8,7,8,7H3z"/>
<g>
	<path class="st0" d="M10.3,7l2.8,0c-0.2,0.4-0.4,0.8-0.5,1.2c-0.1,0.4-0.3,1.1-0.4,1.8L10.3,7 M8.5,6l4.2,6.9c0,0,0.5-3.4,0.8-4.3
		c0.3-1,1.4-2.5,1.4-2.5L8.5,6L8.5,6z"/>
</g>
</svg>
