<?xml version="1.0" encoding="utf-8"?>
<!-- Generator: Adobe Illustrator 19.2.1, SVG Export Plug-In . SVG Version: 6.00 Build 0)  -->
<svg version="1.0" id="Layer_1" xmlns="http://www.w3.org/2000/svg" xmlns:xlink="http://www.w3.org/1999/xlink" x="0px" y="0px"
	 viewBox="0 0 16 16" style="enable-background:new 0 0 16 16;" xml:space="preserve">
<style type="text/css">
	.st0{fill:none;}
	.st1{fill:#FFFFFF;stroke:#00ADEE;stroke-miterlimit:10;}
	.st2{fill:none;stroke:#00ADEE;stroke-width:0.5;stroke-miterlimit:10;}
	.st3{fill:#00ADEE;}
</style>
<rect class="st0" width="16" height="16"/>
<rect x="1.6" y="1.5" class="st1" width="10.2" height="8.3"/>
<line class="st2" x1="4.1" y1="1.4" x2="4.1" y2="9.6"/>
<line class="st2" x1="6.6" y1="1.3" x2="6.6" y2="9.5"/>
<line class="st2" x1="9.3" y1="1.5" x2="9.3" y2="9.7"/>
<line class="st2" x1="1.4" y1="3.8" x2="12" y2="3.8"/>
<line class="st2" x1="1.4" y1="5.6" x2="12" y2="5.6"/>
<line class="st2" x1="1.4" y1="7.6" x2="12" y2="7.6"/>
<rect x="4.2" y="6.3" class="st1" width="10.2" height="8.3"/>
<line class="st2" x1="6.7" y1="6.2" x2="6.7" y2="14.4"/>
<line class="st2" x1="9.2" y1="6.1" x2="9.2" y2="14.3"/>
<line class="st2" x1="11.9" y1="6.3" x2="11.9" y2="14.5"/>
<line class="st2" x1="4" y1="8.7" x2="14.6" y2="8.7"/>
<line class="st2" x1="4" y1="10.4" x2="14.6" y2="10.4"/>
<line class="st2" x1="3.9" y1="12.4" x2="14.6" y2="12.4"/>
<rect x="3.7" y="5.4" class="st3" width="11.1" height="1.7"/>
<rect x="1.1" y="1" class="st3" width="11.1" height="1.4"/>
</svg>
