<?xml version="1.0" encoding="utf-8"?>
<!-- Generator: Adobe Illustrator 20.0.0, SVG Export Plug-In . SVG Version: 6.00 Build 0)  -->
<svg version="1.1" id="Layer_1" xmlns="http://www.w3.org/2000/svg" xmlns:xlink="http://www.w3.org/1999/xlink" x="0px" y="0px"
	 viewBox="0 0 16 16" style="enable-background:new 0 0 16 16;" xml:space="preserve">
<style type="text/css">
	.st0{fill:none;stroke:#414141;stroke-width:1.2806;stroke-miterlimit:10;}
	.st1{fill:none;stroke:#414141;stroke-width:1.2806;stroke-linecap:round;stroke-miterlimit:10;}
</style>
<path class="st0" d="M15,7.9L15,7.9c0,1-0.7,1.8-1.7,1.9l-1.6,0.1c-1,0-1.8-0.7-1.8-1.7l0,0c0-1,0.7-1.8,1.7-1.9l1.6-0.1
	C14.1,6.1,15,6.8,15,7.9z"/>
<path class="st0" d="M6.1,7.8L6.1,7.8c0,1-0.7,1.8-1.7,1.9L2.8,9.8C1.7,9.8,0.9,9,0.9,8l0,0c0-1,0.7-1.8,1.7-1.9l1.6-0.1
	C5.2,6.1,6,6.8,6.1,7.8z"/>
<line class="st1" x1="5.3" y1="8" x2="10.9" y2="8"/>
</svg>
