<?xml version="1.0" encoding="utf-8"?>
<!-- Generator: Adobe Illustrator 19.2.1, SVG Export Plug-In . SVG Version: 6.00 Build 0)  -->
<svg version="1.1" id="Layer_1" xmlns="http://www.w3.org/2000/svg" xmlns:xlink="http://www.w3.org/1999/xlink" x="0px" y="0px"
	 viewBox="0 0 16 16" style="enable-background:new 0 0 16 16;" xml:space="preserve">
<style type="text/css">
	.st0{fill:none;}
	.st1{fill:#404040;}
	.st2{fill:#4FBC78;}
</style>
<rect class="st0" width="16" height="16"/>
<circle class="st0" cx="1.8" cy="-2.5" r="0"/>
<path class="st1" d="M6.5,12c0.2,0.1,0.4,0.2,0.6,0.3c0,0.7,0.3,1.8,0.3,1.8h2.3l0.4-1.7l0.7-0.5l1.6,1.1l1.6-1.7l-0.9-1.4l0.4-1
	c0,0,1.3-0.1,1.7-0.3V8.5l-0.1-2.3c0,0-1.1-0.1-1.7-0.3L13,5.1l1.1-1.3l-1.7-1.7l-1.4,1l-0.8-0.4L9.9,0.9c-0.1-0.1-1.8-0.1-2.5,0
	C7.3,1.4,7.2,2,7.1,2.6C6.8,2.8,6.3,3,6.3,3L4.9,2L3.2,3.7l1,1.3L3.9,5.9L2.1,6.5L2,8.7l1.7,0.2L4,9.6l0.7-0.5v1.2h1.8V12z M6,6.3
	c0.5-0.9,1.7-1.7,3.1-1.5c1.3,0.2,2.2,1.3,2.2,2.7c0,1.5-1.2,2.8-2.8,2.8C6.8,10.3,5.1,8.3,6,6.3z"/>
<path class="st2" d="M3.7,8.3c-1.9,0-3.4,1.5-3.4,3.4s1.5,3.4,3.4,3.4s3.4-1.5,3.4-3.4C7.1,9.8,5.6,8.3,3.7,8.3z M3.6,13.9v-1.2H1.8
	v-2h1.8V9.5l2.8,2.2L3.6,13.9z"/>
</svg>
