<?xml version="1.0" encoding="utf-8"?>
<!-- Generator: Adobe Illustrator 19.2.1, SVG Export Plug-In . SVG Version: 6.00 Build 0)  -->
<svg version="1.1" id="Layer_1" xmlns="http://www.w3.org/2000/svg" xmlns:xlink="http://www.w3.org/1999/xlink" x="0px" y="0px"
	 viewBox="0 0 16 16" style="enable-background:new 0 0 16 16;" xml:space="preserve">
<style type="text/css">
	.st0{fill:#404040;}
	.st1{fill:none;stroke:#404040;stroke-width:1.0655;stroke-miterlimit:10;}
	.st2{fill:none;stroke:#404040;stroke-width:1.0655;stroke-miterlimit:10;stroke-dasharray:1.2734,1.2734;}
	.st3{fill:#F7A808;}
	.st4{fill:none;}
</style>
<polygon class="st0" points="9,1 14.9,1.1 15,7 9,7 "/>
<g>
	<polyline class="st1" points="7.5,13.4 7.5,14.5 6.4,14.5 	"/>
	<line class="st2" x1="5.2" y1="14.5" x2="3.3" y2="14.5"/>
	<polyline class="st1" points="2.6,14.5 1.6,14.5 1.6,13.4 	"/>
	<line class="st2" x1="1.6" y1="12.1" x2="1.6" y2="10.2"/>
	<polyline class="st1" points="1.6,9.5 1.6,8.5 2.6,8.5 	"/>
	<line class="st2" x1="3.9" y1="8.5" x2="5.8" y2="8.5"/>
	<polyline class="st1" points="6.4,8.5 7.5,8.5 7.5,9.5 	"/>
	<line class="st2" x1="7.5" y1="10.8" x2="7.5" y2="12.8"/>
</g>
<path class="st3" d="M3,2.5C2.3,3.3,1.8,4.2,1.7,5.2H0.8l1.7,2L4,5.1H3.2C3.4,4.6,3.6,4,4.1,3.5C4.8,2.8,6,2.3,6.9,2.3V1
	C5.6,1,3.9,1.5,3,2.5z"/>
<path class="st3" d="M12.9,12.8c0.7-0.8,1.2-1.7,1.3-2.7h0.9l-1.7-2l-1.5,2.1h0.8c-0.1,0.6-0.4,1.2-0.9,1.6
	c-0.7,0.7-1.9,1.1-2.8,1.1l0,1.4C10.4,14.3,12,13.8,12.9,12.8z"/>
<rect class="st4" width="16" height="16"/>
</svg>
