<?xml version="1.0" encoding="utf-8"?>
<!-- Generator: Adobe Illustrator 19.2.1, SVG Export Plug-In . SVG Version: 6.00 Build 0)  -->
<svg version="1.1" id="Layer_1" xmlns="http://www.w3.org/2000/svg" xmlns:xlink="http://www.w3.org/1999/xlink" x="0px" y="0px"
	 viewBox="0 0 16 16" style="enable-background:new 0 0 16 16;" xml:space="preserve">
<style type="text/css">
	.st0{fill:#404040;}
	.st1{fill:none;stroke:#404040;stroke-miterlimit:10;}
	.st2{fill:none;stroke:#404040;stroke-miterlimit:10;stroke-dasharray:1.1952,1.1952;}
	.st3{fill:#F7A808;}
	.st4{fill:none;}
</style>
<rect x="8.5" y="1.1" class="st0" width="6.3" height="6.3"/>
<g>
	<polyline class="st1" points="7.3,13.3 7.3,14.3 6.3,14.3 	"/>
	<line class="st2" x1="5.1" y1="14.3" x2="3.3" y2="14.3"/>
	<polyline class="st1" points="2.7,14.3 1.7,14.3 1.7,13.3 	"/>
	<line class="st2" x1="1.7" y1="12.1" x2="1.7" y2="10.3"/>
	<polyline class="st1" points="1.7,9.7 1.7,8.7 2.7,8.7 	"/>
	<line class="st2" x1="3.9" y1="8.7" x2="5.7" y2="8.7"/>
	<polyline class="st1" points="6.3,8.7 7.3,8.7 7.3,9.7 	"/>
	<line class="st2" x1="7.3" y1="10.9" x2="7.3" y2="12.7"/>
</g>
<path class="st3" d="M3,2.5C2.3,3.3,1.8,4.2,1.7,5.2l-0.9,0l1.7,2L4,5.1l-0.8,0C3.4,4.6,3.6,4,4.1,3.5c0.7-0.7,1.6-1.1,2.5-1.1V1
	C5.3,1,3.9,1.5,3,2.5z"/>
<path class="st3" d="M12.9,12.8c0.7-0.8,1.2-1.7,1.3-2.7l0.9,0l-1.7-2l-1.5,2.1l0.8,0c-0.1,0.6-0.4,1.2-0.9,1.6
	c-0.7,0.7-1.6,1.1-2.5,1.1v1.5C10.7,14.4,12,13.8,12.9,12.8z"/>
<rect class="st4" width="16" height="16"/>
</svg>
