<?xml version="1.0" encoding="utf-8"?>
<!-- Generator: Adobe Illustrator 19.2.1, SVG Export Plug-In . SVG Version: 6.00 Build 0)  -->
<svg version="1.1" xmlns="http://www.w3.org/2000/svg" xmlns:xlink="http://www.w3.org/1999/xlink" x="0px" y="0px"
	 viewBox="0 0 16 16" style="enable-background:new 0 0 16 16;" xml:space="preserve">
<style type="text/css">
	.st0{display:none;}
	.st1{fill:#404040;}
	.st2{fill:#756493;}
</style>
<g id="Layer_1">
	<g id="Layer_1_1_" class="st0">
		
			<image style="display:inline;overflow:visible;enable-background:new    ;" width="16" height="16" xlink:href="../../../opt/clarive/clarive/root/static/images/icons/chart-pie.png"  transform="matrix(1 0 0 1 0 -0.6562)">
		</image>
	</g>
	<g>
		<path class="st1" d="M2.6,2.8c-3.7,4-1.3,8.5-1.3,8.5l6.2-3.5l5.2-5.6C11.8,1.7,7.3-1.8,2.6,2.8z"/>
		<path class="st2" d="M13.5,3L8.1,8.7l-0.4,6.8c0,0,4.6,0.2,6.9-4C16.6,7.7,14.9,4.6,13.5,3z"/>
		<path class="st1" d="M7,9.1L1.5,12c0,0,0.6,1.2,2.1,2.2c1.4,1,2.5,1.1,2.5,1.1L7,9.1z"/>
	</g>
</g>
<g id="Layer_2">
</g>
</svg>
