<?xml version="1.0" encoding="utf-8"?>
<!-- Generator: Adobe Illustrator 19.2.1, SVG Export Plug-In . SVG Version: 6.00 Build 0)  -->
<svg version="1.1" id="Layer_1" xmlns="http://www.w3.org/2000/svg" xmlns:xlink="http://www.w3.org/1999/xlink" x="0px" y="0px"
	 viewBox="0 0 16 16" style="enable-background:new 0 0 16 16;" xml:space="preserve">
<style type="text/css">
	.st0{fill:none;}
	.st1{fill:#4FBC78;}
	.st2{fill:#404040;}
</style>
<rect x="-0.2" y="0.1" class="st0" width="16" height="16"/>
<path class="st1" d="M5.2,7.8c-1.6,0-3,1.3-3,3s1.3,3,3,3c1.6,0,3-1.3,3-3C8.1,9.1,6.8,7.8,5.2,7.8z M7.1,10H5.3v1.6h1l-1.8,2
	l-1.6-2H4V10V8.8h1.3h1.8C7.1,8.8,7.1,10,7.1,10z"/>
<path class="st2" d="M14,4c-0.1-1.9-2.7-3-6-3S2,2.1,2,4v8c0,0,0.5,2.8,6,3c5.8,0.2,6-3,6-3S14.1,4.8,14,4z M5.2,13.8
	c-1.7,0-3-1.3-3-3s1.4-3,3-3s2.9,1.3,3,3C8.2,12.5,6.8,13.8,5.2,13.8z M8,6C5.3,6,3.6,5,3.6,4.2S5.3,2.5,8,2.5s4.4,1,4.3,1.7
	C12.3,4.9,10.7,6,8,6z"/>
</svg>
