<?xml version="1.0" encoding="utf-8"?>
<!-- Generator: Adobe Illustrator 19.2.1, SVG Export Plug-In . SVG Version: 6.00 Build 0)  -->
<svg version="1.1" id="Layer_1" xmlns="http://www.w3.org/2000/svg" xmlns:xlink="http://www.w3.org/1999/xlink" x="0px" y="0px"
	 viewBox="0 0 16 16" style="enable-background:new 0 0 16 16;" xml:space="preserve">
<style type="text/css">
	.st0{fill:none;}
	.st1{fill:#404040;}
	.st2{fill:#4FBC78;}
</style>
<rect x="-0.2" y="0.1" class="st0" width="16" height="16"/>
<path class="st1" d="M13.8,4.2C13.8,4.2,13.9,4.2,13.8,4.2C13.9,2.3,11.3,1,8,1S2.2,2.3,2.2,4.2l0,0V12l0,0c0.2,1.8,2.6,3,5.8,3
	s5.7-1.3,5.8-3l0,0v-0.2l0,0l0,0V4.2z M6.6,9.9H4.8v1.6h1l-1.8,2l-1.6-2h1.1V9.9V8.7h1.3h1.8C6.6,8.7,6.6,9.9,6.6,9.9z M12.3,4.2
	L12.3,4.2C12.3,4.9,10.7,6,8,6S3.6,5,3.6,4.2S5.3,2.5,8,2.5S12.4,3.5,12.3,4.2L12.3,4.2z"/>
<path class="st2" d="M4.7,7.7c-1.6,0-3,1.3-3,3s1.3,3,3,3c1.6,0,3-1.3,3-3C7.6,9,6.3,7.7,4.7,7.7z M6.6,9.9H4.8v1.6h1l-1.8,2l-1.6-2
	h1.1V9.9V8.7h1.3h1.8C6.6,8.7,6.6,9.9,6.6,9.9z"/>
</svg>
