<?xml version="1.0" encoding="utf-8"?>
<!-- Generator: Adobe Illustrator 19.2.1, SVG Export Plug-In . SVG Version: 6.00 Build 0)  -->
<svg version="1.0" id="Layer_1" xmlns="http://www.w3.org/2000/svg" xmlns:xlink="http://www.w3.org/1999/xlink" x="0px" y="0px"
	 viewBox="0 0 16 16" style="enable-background:new 0 0 16 16;" xml:space="preserve">
<style type="text/css">
	.st0{fill:#3FA9F5;}
</style>
<g>
	<path class="st0" d="M7.8,14.5c-0.7,0-1.4-0.1-2.1-0.3l0.5-1.4c0.5,0.2,1,0.3,1.6,0.3l0,1.2L7.8,14.5C7.8,14.5,7.8,14.5,7.8,14.5z
		 M9,14.3l-0.3-1.5c0.5-0.1,1.1-0.3,1.6-0.6l0.8,1.3C10.4,13.9,9.8,14.2,9,14.3z M4.6,13.6c-0.6-0.4-1.2-0.8-1.7-1.4l1.1-1
		c0.4,0.4,0.8,0.8,1.3,1L4.6,13.6z M12,12.9l-1-1.1c0.4-0.4,0.8-0.8,1.1-1.3l1.3,0.8C13.1,11.8,12.6,12.4,12,12.9z M2.2,11.3
		c-0.4-0.6-0.6-1.3-0.8-2L3,9c0.1,0.5,0.3,1.1,0.6,1.6L2.2,11.3z M13.9,10.1l-1.4-0.5c0.2-0.5,0.3-1.1,0.3-1.6l1.5,0l0,0.1
		C14.3,8.7,14.1,9.4,13.9,10.1z M1.3,8.1L1.3,8.1c0-0.8,0.1-1.5,0.3-2.2l1.4,0.5C2.9,6.9,2.9,7.5,2.9,8L1.3,8.1z M12.7,7.1
		c-0.1-0.5-0.3-1.1-0.6-1.6l1.3-0.8c0.4,0.6,0.6,1.3,0.8,2L12.7,7.1z M3.5,5.6L2.2,4.9C2.5,4.2,3,3.7,3.5,3.2l1,1.1
		C4.1,4.7,3.8,5.1,3.5,5.6z M11.5,4.8c-0.4-0.4-0.8-0.8-1.3-1.1L11,2.4c0.6,0.4,1.2,0.8,1.7,1.4L11.5,4.8z M5.3,3.8L4.5,2.5
		c0.6-0.4,1.3-0.6,2-0.8l0.3,1.5C6.3,3.3,5.7,3.5,5.3,3.8z M9.4,3.3C8.9,3.2,8.4,3.1,7.8,3.1l-0.1,0l0-1.5l0.1,0
		c0.7,0,1.5,0.1,2.2,0.4L9.4,3.3z"/>
</g>
</svg>
