<?xml version="1.0" encoding="utf-8"?>
<!-- Generator: Adobe Illustrator 19.2.1, SVG Export Plug-In . SVG Version: 6.00 Build 0)  -->
<svg version="1.1" id="Layer_1" xmlns="http://www.w3.org/2000/svg" xmlns:xlink="http://www.w3.org/1999/xlink" x="0px" y="0px"
	 viewBox="0 0 16 16" style="enable-background:new 0 0 16 16;" xml:space="preserve">
<style type="text/css">
	.st0{fill:#3FA9F5;}
	.st1{fill:none;}
</style>
<title>empty_blue</title>
<path class="st0" d="M15,2.5l-1.4-1.4l-1.4,1.4C11,1.6,9.5,1,7.9,1C4.1,1,1,4.1,1,7.9c0,1.6,0.6,3.1,1.5,4.2l-1.4,1.4L2.5,15L4,13.5
	c1.1,0.8,2.5,1.2,3.9,1.2c3.8,0,6.9-3.1,6.9-6.9c0-1.5-0.5-2.8-1.2-3.9L15,2.5z M3,7.9C3,5.2,5.2,3,7.9,3c1.1,0,2,0.3,2.8,0.9
	L4,10.7C3.4,9.9,3,8.9,3,7.9z M12.8,7.9c0,2.7-2.2,4.9-4.9,4.9c-0.9,0-1.7-0.3-2.5-0.7l6.6-6.6C12.5,6.1,12.8,7,12.8,7.9z"/>
<rect class="st1" width="16" height="16"/>
</svg>
