<?xml version="1.0" encoding="utf-8"?>
<!-- Generator: Adobe Illustrator 19.2.1, SVG Export Plug-In . SVG Version: 6.00 Build 0)  -->
<svg version="1.1" id="_x38_9aa3ecb-881e-4ef4-9ab8-044589192bcb"
	 xmlns="http://www.w3.org/2000/svg" xmlns:xlink="http://www.w3.org/1999/xlink" x="0px" y="0px" viewBox="0 0 16 16"
	 style="enable-background:new 0 0 16 16;" xml:space="preserve">
<style type="text/css">
	.st0{fill:#404040;}
</style>
<title>Screen Shot 2016-04-27 at 16.12.40</title>
<path class="st0" d="M14.5,9.4c-0.3,0.4-0.7,0.6-1.2,0.6c-0.9,0-1.6-0.7-1.6-1.6s0.7-1.6,1.6-1.6c0.5,0,1,0.3,1.3,0.7l1.4,0V3.4
	l-6,0l0-0.5c0.5-0.4,0.8-0.8,0.8-1.3c0-0.9-0.5-1.5-1.4-1.5C8.5,0,7.8,0.7,7.8,1.6c0,0.5,0.2,0.9,0.6,1.2v0.6H4.7v4.1H3.5
	C3.2,7.3,2.8,7.1,2.3,7.1c-0.9,0-1.6,0.7-1.6,1.6c0,0.9,0.7,1.6,1.6,1.6c0.6,0,1.2-0.4,1.4-0.8h1l0,5.5h5l0-1.1
	c-0.4-0.3-0.8-0.3-0.8-1.3c0-1,0.6-1.5,1.5-1.5c0.9,0,1.6,0.7,1.6,1.6c0,0.5-0.3,1-0.7,1.3l0,1H16V9.4L14.5,9.4z"/>
</svg>
