<?xml version="1.0" encoding="utf-8"?>
<!-- Generator: Adobe Illustrator 19.2.1, SVG Export Plug-In . SVG Version: 6.00 Build 0)  -->
<svg version="1.1" id="_x38_9aa3ecb-881e-4ef4-9ab8-044589192bcb"
	 xmlns="http://www.w3.org/2000/svg" xmlns:xlink="http://www.w3.org/1999/xlink" x="0px" y="0px" viewBox="0 0 16 16"
	 style="enable-background:new 0 0 16 16;" xml:space="preserve">
<style type="text/css">
	.st0{fill:#404040;}
</style>
<title>Screen Shot 2016-04-27 at 16.12.40</title>
<path class="st0" d="M14.5,9.3c-0.3,0.4-0.7,0.6-1.2,0.6c-0.9,0-1.6-0.7-1.6-1.6c0-0.9,0.7-1.6,1.6-1.6c0.5,0,1,0.3,1.3,0.7l1,0
	l-0.1-4.2h-5.3l0-0.3C10.7,2.5,11,2,11,1.5c0-0.9-0.7-1.6-1.6-1.6c-0.9,0-1.6,0.7-1.6,1.6C7.8,2,8,2.4,8.4,2.7l0,0.6H4.7l0,4.1
	l-1.2,0C3.2,7.2,2.8,7,2.3,7C1.4,7,0.7,7.7,0.7,8.6c0,0.9,0.7,1.6,1.6,1.6c0.6,0,1.2-0.4,1.4-0.8l1,0v6l5,0l0-1.6
	c-0.4-0.3-0.9-0.7-0.9-1.2c0-0.9,0.7-1.6,1.6-1.6c0.9,0,1.6,0.7,1.6,1.6c0,0.5-0.3,1-0.7,1.3l0,1.5l4.3,0l0-6L14.5,9.3z"/>
</svg>
