<?xml version="1.0" encoding="utf-8"?>
<!-- Generator: Adobe Illustrator 19.2.1, SVG Export Plug-In . SVG Version: 6.00 Build 0)  -->
<svg version="1.1" id="_x38_9aa3ecb-881e-4ef4-9ab8-044589192bcb"
	 xmlns="http://www.w3.org/2000/svg" xmlns:xlink="http://www.w3.org/1999/xlink" x="0px" y="0px" viewBox="0 0 16 16"
	 style="enable-background:new 0 0 16 16;" xml:space="preserve">
<style type="text/css">
	.st0{fill:#756493;}
</style>
<title>Screen Shot 2016-04-27 at 16.12.40</title>
<path class="st0" d="M8.9,1.2c0.5,0,0.9,0.2,1.2,0.7c0.4,0.7,0.2,1.5-0.5,1.9v0.6h4.5v1.1c-0.2-0.1-0.4-0.1-0.6-0.1
	C12.6,5.4,12,6.1,12,7s0.8,1.5,1.6,1.5c0.1,0,0.3-0.1,0.5-0.1v5.8H9.9c0-0.9-0.8-1.5-1.6-1.5c-0.9,0-1.5,0.7-1.5,1.5H4.3V10H3.7
	c-0.2,0.4-0.7,0.7-1.1,0.7c-0.8,0-1.3-0.6-1.3-1.3c0-0.5,0.3-0.9,0.8-1.1C2.2,8.1,2.4,8,2.7,8c0.4,0,0.9,0.2,1.1,0.7h0.6V4.3h3.7
	V3.7C7.9,3.6,7.8,3.5,7.7,3.3C7.3,2.6,7.5,1.8,8.2,1.4C8.4,1.3,8.7,1.2,8.9,1.2"/>
</svg>
