<?xml version="1.0" encoding="utf-8"?>
<!-- Generator: Adobe Illustrator 20.0.0, SVG Export Plug-In . SVG Version: 6.00 Build 0)  -->
<svg version="1.1" id="Layer_2" xmlns="http://www.w3.org/2000/svg" xmlns:xlink="http://www.w3.org/1999/xlink" x="0px" y="0px"
	 viewBox="0 0 16 16" style="enable-background:new 0 0 16 16;" xml:space="preserve">
<style type="text/css">
	.st0{fill:#3FA9F5;}
	.st1{fill:none;}
	.st2{fill:#FFFFFF;}
</style>
<g>
	<polygon class="st0" points="10.8,1.2 14.8,5.2 14.8,10.8 10.8,14.8 5.2,14.8 1.2,10.8 1.2,5.2 5.2,1.2 	"/>
</g>
<rect x="3.5" y="3.5" class="st1" width="9" height="9"/>
<g>
	<path class="st2" d="M10.3,8.8c0-0.9-0.1-1.9-0.1-2.9h0C9.9,6.8,9.6,7.8,9.4,8.7l-0.9,2.8H7.2L6.5,8.7C6.2,7.9,6,6.8,5.8,5.9h0
		c0,1-0.1,2.1-0.1,3l-0.1,2.7H4.1l0.5-7.1h2.1l0.7,2.4C7.6,7.6,7.8,8.5,8,9.4h0c0.2-0.8,0.4-1.8,0.7-2.6l0.8-2.4h2.1l0.4,7.1h-1.6
		L10.3,8.8z"/>
</g>
</svg>
