<?xml version="1.0" encoding="utf-8"?>
<!-- Generator: Adobe Illustrator 19.2.1, SVG Export Plug-In . SVG Version: 6.00 Build 0)  -->
<svg version="1.1" id="Layer_1" xmlns="http://www.w3.org/2000/svg" xmlns:xlink="http://www.w3.org/1999/xlink" x="0px" y="0px"
	 viewBox="0 0 16 16" style="enable-background:new 0 0 16 16;" xml:space="preserve">
<style type="text/css">
	.st0{fill:none;stroke:#404040;stroke-width:1.5;stroke-miterlimit:10;}
	.st1{fill:#404040;}
	.st2{fill:none;}
	.st3{fill:#4FBC78;}
</style>
<path class="st0" d="M3,7.4c-0.1-0.3-0.1-0.7-0.1-1c0-2.2,1.8-4,4-4s4,1.8,4,4s-1.8,4-4,4"/>
<rect x="9.9" y="8.5" transform="matrix(0.7071 -0.7071 0.7071 0.7071 -4.3552 10.9136)" class="st1" width="2.2" height="4.4"/>
<rect x="12.9" y="12.8" transform="matrix(0.7071 -0.7071 0.7071 0.7071 -5.4818 13.8728)" class="st1" width="2.2" height="1.5"/>
<rect class="st2" width="16" height="16"/>
<path class="st3" d="M4.1,6.8c1.9,0,3.4,1.5,3.4,3.4S6,13.6,4.1,13.6s-3.4-1.5-3.4-3.4C0.8,8.3,2.3,6.8,4.1,6.8z M4.8,9.5V7.9H3.5
	v1.6H1.8v1.3h1.7v1.6h1.3v-1.6h1.6V9.5H4.8z"/>
</svg>
