<?xml version="1.0" encoding="utf-8"?>
<!-- Generator: Adobe Illustrator 19.2.1, SVG Export Plug-In . SVG Version: 6.00 Build 0)  -->
<svg version="1.0" id="Layer_1" xmlns="http://www.w3.org/2000/svg" xmlns:xlink="http://www.w3.org/1999/xlink" x="0px" y="0px"
	 viewBox="0 0 16 16" style="enable-background:new 0 0 16 16;" xml:space="preserve">
<style type="text/css">
	.st0{fill:#404040;}
	.st1{fill:none;}
</style>
<path class="st0" d="M12,2.2l1.8,2.5v9.1H2.3V2.2L12,2.2 M12.5,1.2c-7.1,0-10.4,0-11,0l0,13.6h13.3V4.3L12.5,1.2
	C12.5,1.2,12.5,1.2,12.5,1.2z"/>
<path class="st0" d="M14.7,4.5h-3.1l0-3.3h0.7L14,3.5L14.7,4.5z"/>
<path class="st0" d="M8,7.8c1.3,1.3,1.3,3.4,0,4.7c-1.3,1.3-3.4,1.3-4.7,0C2,11.2,2,9.1,3.3,7.8C4.6,6.5,6.7,6.5,8,7.8z M6.6,10.2
	l1.1-1.1l-1-1L5.6,9.2L4.5,8.1L3.6,9l1.2,1.2l-1.1,1.1l1,1l1.1-1.1l1.1,1.1l0.9-0.9L6.6,10.2z"/>
<rect class="st1" width="16" height="16"/>
</svg>
