<?xml version="1.0" encoding="utf-8"?>
<!-- Generator: Adobe Illustrator 19.2.1, SVG Export Plug-In . SVG Version: 6.00 Build 0)  -->
<svg version="1.1" id="Layer_2" xmlns="http://www.w3.org/2000/svg" xmlns:xlink="http://www.w3.org/1999/xlink" x="0px" y="0px"
	 viewBox="0 0 16 16" style="enable-background:new 0 0 16 16;" xml:space="preserve">
<style type="text/css">
	.st0{fill:#404040;}
</style>
<path class="st0" d="M6,3v1H4V3.1L1,3v12h14V3H9H6z M14,14H2V4h12V14z"/>
<path class="st0" d="M8,6C6,6,4.4,7.6,4.4,9.6S6,13.2,8,13.2s3.6-1.6,3.6-3.6S10,6,8,6z M9.5,9.8H8.3H7.8V7h0.5v2.4h1.2V9.8z"/>
<rect x="1" y="3" class="st0" width="14" height="2.4"/>
<rect x="3.5" y="1.1" class="st0" width="2" height="2.4"/>
<rect x="11" y="1.1" class="st0" width="2" height="2.4"/>
</svg>
