<?xml version="1.0" encoding="utf-8"?>
<!-- Generator: Adobe Illustrator 19.2.1, SVG Export Plug-In . SVG Version: 6.00 Build 0)  -->
<svg version="1.0" id="Layer_1" xmlns="http://www.w3.org/2000/svg" xmlns:xlink="http://www.w3.org/1999/xlink" x="0px" y="0px"
	 viewBox="0 0 16 16" style="enable-background:new 0 0 16 16;" xml:space="preserve">
<style type="text/css">
	.st0{fill:#404040;}
	.st1{fill:#4FBC78;}
	.st2{fill:none;}
</style>
<path class="st0" d="M5.2,7.8c0,1.5,1.2,2.8,2.8,2.8c1.7,0,3.4-2,2.5-4C10,5.7,8.8,4.9,7.4,5.1C6.1,5.3,5.2,6.4,5.2,7.8 M9.1,1.2
	c0.1,0.5,0.2,1.1,0.3,1.7c0.3,0.2,0.8,0.4,0.8,0.4l1.4-1l1.7,1.7l-1,1.3l0.3,0.9l1.8,0.6L14.5,9l-1.7,0.3l-0.4,0.8l1,1.4l-1.7,1.8
	c0,0-1-0.7-1.4-1.1c-0.3,0.1-0.6,0.3-0.9,0.4c0,0.7-0.3,1.8-0.3,1.8H6.8l-0.4-1.7l-0.7-0.5l-1.6,1.1l-1.6-1.7l0.9-1.4l-0.4-1
	c0,0-1.3-0.1-1.7-0.3c0,0,0-0.1,0-0.1l0.1-2.3c0,0,1.1-0.1,1.7-0.3l0.4-0.8L2.4,4.1l1.7-1.7l1.4,1l0.8-0.4l0.3-1.8
	C6.7,1.1,8.4,1.1,9.1,1.2"/>
<g id="Layer_2">
	<polygon class="st1" points="9.6,14.4 14.4,10.7 9.6,7.2 9.6,9.2 7,9.2 7,12.4 9.6,12.4 	"/>
</g>
<rect class="st2" width="16" height="16"/>
<circle class="st2" cx="1.8" cy="-2.5" r="0"/>
</svg>
