<?xml version="1.0" standalone="no"?><!DOCTYPE svg PUBLIC "-//W3C//DTD SVG 1.1//EN" "http://www.w3.org/Graphics/SVG/1.1/DTD/svg11.dtd"><svg width="100%" height="100%" viewBox="0 0 16 16" version="1.1" xmlns="http://www.w3.org/2000/svg" xmlns:xlink="http://www.w3.org/1999/xlink" xml:space="preserve" style="fill-rule:evenodd;clip-rule:evenodd;stroke-miterlimit:1.41421;"><path id="Layer_1_2_" d="M12.371,12.389l-3.006,0l0,-1.5l1.506,0l0,-5.938l-5.937,0l0,1.952l-1.5,0l0,-3.452l8.937,0l0,8.938Z" style="fill:#404040;"/><path id="Layer_1_3_" d="M14.68,1.059l0,8.937l-3.201,0l0,-1.5l1.701,0l0,-5.937l-5.939,0l0,1.202l-1.5,0l0,-2.702l8.939,0Z" style="fill:#404040;"/><g id="Layer_1_1_"><path d="M10.508,15.192l-9.437,0l0,-9.438l9.437,0l0,9.438ZM2.571,7.254l0,6.438l6.437,0l0,-6.438l-6.437,0Z" style="fill:#404040;"/><path d="M3.897,10.373l4.005,0" style="fill:none;stroke-width:1.5px;stroke:#404040;"/></g></svg>