<?xml version="1.0" encoding="utf-8"?>
<!-- Generator: Adobe Illustrator 19.2.1, SVG Export Plug-In . SVG Version: 6.00 Build 0)  -->
<svg version="1.0" id="Layer_1" xmlns="http://www.w3.org/2000/svg" xmlns:xlink="http://www.w3.org/1999/xlink" x="0px" y="0px"
	 viewBox="0 0 16 16" style="enable-background:new 0 0 16 16;" xml:space="preserve">
<style type="text/css">
	.st0{fill:none;stroke:#404040;stroke-width:1.5;stroke-miterlimit:2.35;}
	.st1{fill:#4FBC78;}
	.st2{fill:none;}
</style>
<path class="st0" d="M7.9,13.5l-0.1-2.8H4.2C3,10.7,2,9.7,2,8.5V4.2C2,3,3,2.1,4.2,2.1h7.7c1.2,0,2.2,1,2.2,2.1v4.3
	c0,1.2-1,2.1-2.2,2.1h-0.5L7.9,13.5z"/>
<path class="st1" d="M5.2,3.8c-1.9,0-3.4,1.5-3.4,3.4s1.5,3.4,3.4,3.4s3.4-1.5,3.4-3.4S7.2,3.8,5.2,3.8z M7.6,7.8H5.9v1.6H4.6V7.8H3
	V6.6h1.6V5H6v1.6h1.6V7.8z"/>
<rect class="st2" width="16" height="16"/>
</svg>
