<svg id="fcf2d9d1-6697-4f93-a506-39f94b642fb5" data-name="Layer 1" xmlns="http://www.w3.org/2000/svg" viewBox="0 0 13.88 13.78"><defs><style>.\39 bf6c0b3-f83f-4af1-bcbb-ef2c016436fe{fill:#404040;}.\35 f6efd4c-33de-4dc9-902e-0ed5a4820037{fill:#f7a808;}</style></defs><title>commite-new</title><path class="9bf6c0b3-f83f-4af1-bcbb-ef2c016436fe" d="M12.8,1.1V2.5H11.1c0,0.4,2.2,5.3-4.6,5.2a3.69,3.69,0,0,0-.7,1.4C9.2,9,12.3,9,12.7,10.8c0.5,2.3-1.1,3.5-3.2,3.9C7,15.2,3,14.8,3.2,11.8A1.44,1.44,0,0,1,4,10.7c-1.4-1-.1-2.7.8-3.3C1.7,4.3,4.3,1.1,7.3,1.1c0.7,0,2,.1,2,0.1Zm-7,2.8C5.5,6.4,9.3,6,9.5,4.7c0.2-1.6-.7-2.2-2.1-2.1A2,2,0,0,0,5.8,3.9ZM5.2,12.2c0.5,1.4,5,1,5.4-.4a0.52,0.52,0,0,0-.2-0.6,7.55,7.55,0,0,0-4.7,0A1.11,1.11,0,0,0,5.2,12.2Z" transform="translate(-1.1 -1.1)"/><path class="5f6efd4c-33de-4dc9-902e-0ed5a4820037" d="M3.79,14.6C3.59,14.1,1.1,9,1.1,8.9s0.1-.1.2,0,2.2,1.7,3.1,2.4C8,7.1,14.92,3.9,15,3.85a8.73,8.73,0,0,0,0,1.27,32,32,0,0,0-9.85,9.42A3.14,3.14,0,0,1,3.79,14.6Z" transform="translate(-1.1 -1.1)"/></svg>