<?xml version="1.0" encoding="utf-8"?>
<!-- Generator: Adobe Illustrator 19.2.1, SVG Export Plug-In . SVG Version: 6.00 Build 0)  -->
<svg version="1.1" id="Layer_1" xmlns="http://www.w3.org/2000/svg" xmlns:xlink="http://www.w3.org/1999/xlink" x="0px" y="0px"
	 viewBox="0 0 16 16" style="enable-background:new 0 0 16 16;" xml:space="preserve">
<style type="text/css">
	.st0{fill:none;}
	.st1{fill:#4FBC78;}
	.st2{fill:#404040;}
</style>
<path class="st0" d="M0.4,0H16v16H0V0.4C0,0.2,0.2,0,0.4,0z"/>
<path class="st1" d="M5,3C2.7,3,1,4.9,1,7s1.7,4,4,4s4-1.9,4-4S7.3,3,5,3z M8,8H6v2H4V8H2V6h2V4h2v2h2v1V8z"/>
<g>
	<path class="st2" d="M14,1l0.1,10.5L10,13.9V12v-1H9H1V1H14 M14,0H1C0.4,0,0,0.4,0,1v10c0,0.6,0.4,1,1,1h8v4l6-4V1
		C15,0.4,14.6,0,14,0L14,0z"/>
</g>
</svg>
