<?xml version="1.0" encoding="utf-8"?>
<!-- Generator: Adobe Illustrator 19.2.1, SVG Export Plug-In . SVG Version: 6.00 Build 0)  -->
<svg version="1.1" id="Layer_1" xmlns="http://www.w3.org/2000/svg" xmlns:xlink="http://www.w3.org/1999/xlink" x="0px" y="0px"
	 viewBox="0 0 16 16" style="enable-background:new 0 0 16 16;" xml:space="preserve">
<style type="text/css">
	.st0{fill:#404040;}
	.st1{fill:#F7A808;}
</style>
<g>
	<path class="st0" d="M12.8,1.1c0,0.5,0,0.9,0,1.4h-1.7c0,0.4,2.2,5.3-4.6,5.2C6.3,8,5.8,8.7,5.8,9.1C9.2,9,12.3,9,12.7,10.8
		c0.5,2.3-1.1,3.5-3.2,3.9C7,15.2,3,14.8,3.2,11.8C3.3,11,4,10.7,4,10.7C2.6,9.7,3.9,8,4.8,7.4C1.7,4.3,4.3,1.1,7.3,1.1
		c0.7,0,2,0.1,2,0.1L12.8,1.1z M5.8,3.9C5.5,6.4,9.3,6,9.5,4.7c0.2-1.6-0.7-2.2-2.1-2.1C6.7,2.7,5.9,3.3,5.8,3.9z M5.2,12.2
		c0.5,1.4,5,1,5.4-0.4c0-0.2,0.1-0.4-0.2-0.6c-1-0.5-3.6-0.5-4.7,0C5.4,11.4,5.1,11.9,5.2,12.2z"/>
</g>
<g>
	<path class="st1" d="M3.8,14.6C3.6,14.1,1.1,9,1.1,8.9c0.1-0.1,0.1-0.1,0.2,0c0.1,0,2.2,1.7,3.1,2.4C8,7.1,14.9,3.9,15,3.9
		c0,0-0.1,1.2,0,1.2c-4.1,2.5-7.1,5.6-9.8,9.6C5.1,14.7,3.8,14.6,3.8,14.6z"/>
</g>
</svg>
