<?xml version="1.0" encoding="utf-8"?>
<!-- Generator: Adobe Illustrator 19.2.1, SVG Export Plug-In . SVG Version: 6.00 Build 0)  -->
<svg version="1.1" id="Layer_1" xmlns="http://www.w3.org/2000/svg" xmlns:xlink="http://www.w3.org/1999/xlink" x="0px" y="0px"
	 viewBox="0 0 16 16" style="enable-background:new 0 0 16 16;" xml:space="preserve">
<style type="text/css">
	.st0{fill:#404040;}
	.st1{fill:none;}
</style>
<title>dbcon</title>
<path class="st0" d="M9,8c0-0.3,0-0.7,0-1C8.6,7,6,7,6,7V5H3.6C1.6,5,0,6.6,0,8.8C0,11,1.5,13,3.5,13H6v-2c0.1,0,3,0,3,0v-1H6V8H9z"
	/>
<g>
	<path class="st0" d="M13,6c1.5,0,2,1.5,2,3s-0.5,3-2,3h-2V6 M13,5h-3c0,0.1,0,8,0,8h3c2,0,3-2.1,3-4.1S15,5,13,5L13,5z"/>
</g>
<rect class="st1" width="16" height="16"/>
<rect class="st1" width="16" height="16"/>
<rect class="st1" width="16" height="16"/>
</svg>
