<?xml version="1.0" encoding="utf-8"?>
<!-- Generator: Adobe Illustrator 19.2.1, SVG Export Plug-In . SVG Version: 6.00 Build 0)  -->
<svg version="1.1" id="Layer_1" xmlns="http://www.w3.org/2000/svg" xmlns:xlink="http://www.w3.org/1999/xlink" x="0px" y="0px"
	 viewBox="0 0 16 16" style="enable-background:new 0 0 16 16;" xml:space="preserve">
<style type="text/css">
	.st0{fill:#404040;}
	.st1{fill:none;}
</style>
<title>dbcon</title>
<path class="st0" d="M9,7.7c0-0.3,0-0.7,0-1c-0.4,0-2.4,0-2.4,0V4.8c-0.3,0-0.6,0-0.8,0l0,0H3.6C1.6,4.8,0,6.4,0,8.4S1.6,12,3.6,12
	h2.1l0,0h1v-1.9c0.1,0,2.4,0,2.4,0v-1H6.6V7.7H9z"/>
<g>
	<path class="st0" d="M12.1,5.7c1.5,0,2.6,1.1,2.6,2.6c0,1.5-1.1,2.6-2.6,2.6h-1.2V5.7H12.1 M12.1,4.7H9.9c0,0.1,0,7.2,0,7.2h2.2
		c2,0,3.6-1.6,3.6-3.6S14.1,4.7,12.1,4.7L12.1,4.7z"/>
</g>
<rect class="st1" width="16" height="16"/>
<rect class="st1" width="16" height="16"/>
<rect class="st1" width="16" height="16"/>
</svg>
