<?xml version="1.0" encoding="utf-8"?>
<!-- Generator: Adobe Illustrator 19.2.1, SVG Export Plug-In . SVG Version: 6.00 Build 0)  -->
<svg version="1.0" id="Layer_1" xmlns="http://www.w3.org/2000/svg" xmlns:xlink="http://www.w3.org/1999/xlink" x="0px" y="0px"
	 viewBox="0 0 16 16" style="enable-background:new 0 0 16 16;" xml:space="preserve">
<style type="text/css">
	.st0{fill:#404040;}
	.st1{fill:#808080;}
	.st2{fill:none;}
</style>
<title>dbcon</title>
<path class="st0" d="M9.4,7.6c0-0.3,0-0.7,0-1C9,6.6,7,6.6,7,6.6V4.7c-0.3,0-0.6,0-0.8,0v0l-2.2,0c-2,0-3.6,1.6-3.6,3.6
	s1.6,3.6,3.6,3.6l2.1,0v0h1V10c0.1,0,2.4,0,2.4,0V9H7V7.6H9.4z"/>
<path class="st1" d="M15.7,8.2L15.7,8.2c0,2-1.6,3.6-3.6,3.6l-2.2,0c0,0,0-7.1,0-7.2l2.2,0C14.1,4.6,15.7,6.2,15.7,8.2z"/>
<rect class="st2" width="16" height="16"/>
<rect class="st2" width="16" height="16"/>
<rect class="st2" width="16" height="16"/>
</svg>
