<?xml version="1.0" encoding="utf-8"?>
<!-- Generator: Adobe Illustrator 19.2.1, SVG Export Plug-In . SVG Version: 6.00 Build 0)  -->
<svg version="1.1" id="Layer_1" xmlns="http://www.w3.org/2000/svg" xmlns:xlink="http://www.w3.org/1999/xlink" x="0px" y="0px"
	 viewBox="0 0 16 16" style="enable-background:new 0 0 16 16;" xml:space="preserve">
<style type="text/css">
	.st0{fill:none;stroke:#3E3E3E;stroke-miterlimit:10;}
	.st1{fill:#404040;}
	.st2{fill:#3E3E3E;}
</style>
<rect x="1.5" y="1.6" class="st0" width="13" height="13"/>
<path class="st1" d="M7,9.4l-4,1.9l0-1.2l2.8-1C5.5,8.8,5,8.6,4.7,8.5c-0.4-0.2-1-0.4-1.6-0.6L3,6.8l4,1.8V9.4z"/>
<polygon class="st1" points="8,10.1 12.9,10 12.9,11 8,11 "/>
<path class="st2" d="M1,1v3h13.9l0-2.9L1,1z M3,3H2V2h1V3z M5,3H4V2h1V3z M7,3H6V2h1V3z"/>
</svg>
