<svg id="53161f46-cd08-46c1-886a-cdfdf1c3d286" data-name="Layer 1" xmlns="http://www.w3.org/2000/svg" viewBox="0 0 16 15.95"><defs><style>.\32 bb8eada-b4c1-47cb-8ffe-1df320941c0c{fill:#404040;}.\36 73be7d8-93d2-44d7-8d0b-b3b8faaf0f1e{fill:none;}</style></defs><title>controller</title><path class="2bb8eada-b4c1-47cb-8ffe-1df320941c0c" d="M11.4,3.83l0.38-.39,0.6-.6a0.55,0.55,0,0,1,.77.77l-0.87.88a0.72,0.72,0,0,1-.13.08,5,5,0,0,1,.92,1.65,10.42,10.42,0,0,1,.25,1.05,0.12,0.12,0,0,0,.15.11h1.24a0.55,0.55,0,0,1,.53.72,0.54,0.54,0,0,1-.51.37h-1.2a0.17,0.17,0,0,0-.22.18,5.21,5.21,0,0,1-1.09,2.55l0,0.06,0.1,0.11,0.84,0.85a0.55,0.55,0,1,1-.78.77l-0.92-.93c-0.36.22-.7,0.44-1.05,0.62a4.72,4.72,0,0,1-1.65.49,0.11,0.11,0,0,0-.12.14c0,0.42,0,.84,0,1.27a0.53,0.53,0,0,1-.41.52,0.52,0.52,0,0,1-.59-0.24,0.8,0.8,0,0,1-.09-0.35c0-.38,0-0.76,0-1.14a0.17,0.17,0,0,0-.18-0.21,5.19,5.19,0,0,1-2.53-1.07l-0.09-.06L3.77,13a0.77,0.77,0,0,1-.27.17A0.54,0.54,0,0,1,3,12.27l0.86-.87,0.13-.1A5.35,5.35,0,0,1,2.77,8.49H1.41A0.54,0.54,0,0,1,.86,8.07a0.52,0.52,0,0,1,.25-0.59A0.86,0.86,0,0,1,1.47,7.4H2.65c0.07,0,.12,0,0.13-0.09A5.22,5.22,0,0,1,3.91,4.64l0,0L3.85,4.52,3,3.62a0.52,0.52,0,0,1-.12-0.57A0.53,0.53,0,0,1,3.28,2.7a0.55,0.55,0,0,1,.48.18L4.62,3.75,4.7,3.81C5,3.64,5.23,3.46,5.51,3.3a5,5,0,0,1,1.88-.61A0.11,0.11,0,0,0,7.5,2.55c0-.41,0-0.82,0-1.22a0.55,0.55,0,1,1,1.09,0c0,0.39,0,.79,0,1.18,0,0.2,0,.21.2,0.24a5.31,5.31,0,0,1,2.54,1.09Zm-3.17,0V6.85L8.69,7l2.16-2.16A4.13,4.13,0,0,0,8.22,3.8Zm-3,1.09L7.4,7l0.47-.19V3.8A4.13,4.13,0,0,0,5.24,4.89ZM5,5.16A4.11,4.11,0,0,0,3.91,7.8h3l0.2-.48Zm6.15,0L9,7.32l0.2,0.47h3A4.12,4.12,0,0,0,11.12,5.16Zm-7.22,3A4.12,4.12,0,0,0,5,10.75L7.13,8.62l-0.2-.47h-3Zm7.19,2.6a4,4,0,0,0,1.08-2.61H9.27a0.17,0.17,0,0,0-.13.06C9.07,8.34,9,8.49,9,8.62ZM7.4,8.89L5.27,11a4.11,4.11,0,0,0,2.6,1.06v-3Zm0.82,3.2A4.13,4.13,0,0,0,10.83,11L8.7,8.89l-0.47.2v3Z"/><rect class="673be7d8-93d2-44d7-8d0b-b3b8faaf0f1e" width="16" height="15.95"/></svg>