<?xml version="1.0" encoding="utf-8"?>
<!-- Generator: Adobe Illustrator 19.2.1, SVG Export Plug-In . SVG Version: 6.00 Build 0)  -->
<svg version="1.1" id="Layer_1" xmlns="http://www.w3.org/2000/svg" xmlns:xlink="http://www.w3.org/1999/xlink" x="0px" y="0px"
	 viewBox="0 0 16 16" style="enable-background:new 0 0 16 16;" xml:space="preserve">
<style type="text/css">
	.st0{fill:#404040;}
	.st1{fill:#414141;}
	.st2{fill:none;stroke:#414141;stroke-miterlimit:10;}
	.st3{fill:none;}
</style>
<polygon class="st0" points="1.5,9.5 1.6,6.5 7.4,6.5 7.4,9.5 "/>
<path class="st1" d="M7,7v2H2V7H7 M8,6H1v4h7V6z"/>
<g>
	<g>
		<path class="st0" d="M13,2v2H9V2H13 M14,1H8v4h6V1L14,1z"/>
	</g>
</g>
<polyline class="st2" points="4.5,6.1 4.5,2.5 8,2.5 "/>
<polyline class="st2" points="4.5,9.4 4.5,12.5 9,12.5 "/>
<rect x="0.1" class="st3" width="15.9" height="15.9"/>
<g>
	<path class="st0" d="M13,12l0,2H9v-2H13 M14,11H8v4h6V11L14,11L14,11z"/>
</g>
</svg>
