<?xml version="1.0" encoding="utf-8"?>
<!-- Generator: Adobe Illustrator 19.2.1, SVG Export Plug-In . SVG Version: 6.00 Build 0)  -->
<svg version="1.1" id="Layer_1" xmlns="http://www.w3.org/2000/svg" xmlns:xlink="http://www.w3.org/1999/xlink" x="0px" y="0px"
	 viewBox="0 0 16 16" style="enable-background:new 0 0 16 16;" xml:space="preserve">
<style type="text/css">
	.st0{display:none;}
	.st1{display:inline;}
	.st2{fill:#404040;}
	.st3{display:inline;fill:none;}
</style>
<g id="Layer_1_1_" class="st0">
	<g class="st1">
		<path class="st2" d="M11.4,3.8c0.1-0.1,0.3-0.3,0.4-0.4C12,3.2,12.2,3,12.4,2.8s0.5-0.2,0.8,0c0.2,0.2,0.2,0.5,0,0.8
			c-0.3,0.3-0.6,0.6-0.9,0.9l-0.1,0.1c0.4,0.5,0.7,1.1,0.9,1.7c0.1,0.3,0.2,0.7,0.2,1.1c0,0.1,0.1,0.1,0.1,0.1c0.4,0,0.8,0,1.2,0
			s0.7,0.4,0.5,0.7c-0.1,0.2-0.3,0.4-0.5,0.4c-0.4,0-0.8,0-1.2,0c-0.1,0-0.2,0-0.2,0.2c-0.1,0.9-0.5,1.8-1.1,2.6c0,0,0,0,0,0.1
			l0.1,0.1c0.3,0.3,0.6,0.6,0.8,0.8s0.3,0.6,0,0.8c-0.2,0.2-0.6,0.2-0.8,0c-0.3-0.3-0.6-0.6-0.9-0.9c-0.4,0.2-0.7,0.4-1.1,0.6
			c-0.5,0.3-1.1,0.4-1.6,0.5c-0.1,0-0.1,0-0.1,0.1c0,0.4,0,0.8,0,1.3c0,0.3-0.2,0.5-0.4,0.5c-0.2,0.1-0.5,0-0.6-0.2
			c-0.1-0.1-0.1-0.2-0.1-0.3c0-0.4,0-0.8,0-1.1c0-0.1,0-0.2-0.2-0.2c-0.9-0.1-1.8-0.5-2.5-1.1c0,0-0.1,0-0.1-0.1
			c-0.3,0.3-0.6,0.6-0.9,0.9c-0.1,0.1-0.2,0.1-0.3,0.2c-0.2,0.1-0.5,0-0.6-0.2c-0.1-0.2-0.1-0.5,0.1-0.7c0.3-0.3,0.6-0.6,0.9-0.9
			l0.1-0.1c-0.7-0.8-1.1-1.8-1.2-2.8c-0.1,0-0.2,0-0.2,0c-0.4,0-0.8,0-1.1,0S0.9,8.5,0.9,8.3c-0.1-0.2,0-0.5,0.2-0.6
			c0.1-0.1,0.2-0.1,0.4-0.1c0.4,0,0.8,0,1.2,0c0.1,0,0.1,0,0.1-0.1c0.1-1,0.5-1.9,1.1-2.7l0,0c0,0,0-0.1-0.1-0.1
			C3.5,4.2,3.2,3.9,3,3.6C2.8,3.5,2.8,3.3,2.8,3.1C2.9,2.9,3,2.8,3.2,2.7c0.2,0,0.3,0,0.5,0.2C4,3.2,4.3,3.5,4.6,3.7l0.1,0.1
			C5,3.6,5.2,3.5,5.5,3.3C6.1,3,6.7,2.8,7.4,2.7c0.1,0,0.1-0.1,0.1-0.1c0-0.4,0-0.8,0-1.2c0-0.3,0.1-0.4,0.3-0.5
			C8.2,0.8,8.5,1,8.5,1.4s0,0.8,0,1.2c0,0.2,0,0.2,0.2,0.2C9.7,2.8,10.6,3.2,11.4,3.8C11.3,3.8,11.4,3.8,11.4,3.8z M8.2,3.8
			c0,1,0,2.1,0,3.1C8.4,6.9,8.6,7,8.7,7c0.7-0.7,1.4-1.4,2.2-2.2C10.1,4.2,9.2,3.9,8.2,3.8z M5.2,4.9C6,5.6,6.7,6.3,7.4,7
			c0.2,0,0.3-0.1,0.5-0.1c0-1,0-2,0-3.1C6.9,3.9,6,4.2,5.2,4.9z M5,5.2C4.3,5.9,4,6.8,3.9,7.8c1,0,2,0,3,0C7,7.6,7.1,7.5,7.1,7.3
			C6.4,6.6,5.7,5.9,5,5.2z M11.1,5.2C10.4,5.9,9.7,6.6,9,7.3c0,0.2,0.1,0.3,0.2,0.5c1,0,2,0,3,0C12.1,6.8,11.8,5.9,11.1,5.2z
			 M3.9,8.1C4,9.2,4.3,10,5,10.8C5.7,10,6.4,9.3,7.1,8.6c0-0.1-0.1-0.3-0.2-0.5C5.9,8.1,4.9,8.1,3.9,8.1z M11.1,10.7
			c0.6-0.5,1.2-1.9,1.1-2.6c-0.3,0-0.5,0-0.8,0c-0.7,0-1.4,0-2.1,0c0,0-0.1,0-0.1,0.1C9.1,8.3,9,8.5,9,8.6
			C9.7,9.3,10.4,10,11.1,10.7z M7.4,8.9C6.7,9.6,6,10.3,5.3,11c0.7,0.7,1.6,1,2.6,1.1c0-1,0-2,0-3C7.7,9,7.5,9,7.4,8.9z M8.2,12.1
			c1-0.1,1.9-0.4,2.6-1.1c-0.7-0.7-1.4-1.4-2.1-2.1C8.5,9,8.4,9,8.2,9.1C8.2,10.1,8.2,11.1,8.2,12.1z"/>
	</g>
	<rect class="st3" width="16" height="15.9"/>
</g>
<g id="Layer_2">
	<path class="st2" d="M15.5,7.7h-0.8c-0.1-1.3-0.5-2.6-1.3-3.6l0.6-0.6c0.1,0-0.9-0.8-0.9-0.9l-0.5,0.5c-1.1-1-2.4-1.6-3.9-1.8V0.6
		c0,0-1.3,0-1.3,0v0.6c-1.4,0.1-2.8,0.6-4,1.6L3,2.2c0,0-0.9,0.8-0.9,0.9l0.5,0.6C1.8,4.8,1.2,6.1,1.2,7.6H0.4c0,0.1,0,1.3,0,1.3
		h0.8C1.4,10.2,2,11.6,3,12.6l-0.5,0.5c0,0.1,0.8,0.8,0.9,0.9l0.5-0.5c1.1,0.7,2.3,1.2,3.7,1.3v0.6c0.1,0,1.4,0.1,1.3,0v-0.7
		c1.3-0.2,2.6-0.7,3.6-1.6l0.8,0.7c0,0,0.9-0.8,0.9-0.9l-0.6-0.7c0.8-1,1.3-2,1.4-3.2h0.8C15.6,8.9,15.6,7.5,15.5,7.7z M11.8,3.9
		L9.3,6.4L8.9,6.1L9,2.6C10,2.8,11,3.3,11.8,3.9z M7.7,2.5v3.5c-0.3,0-0.9,0.3-0.8,0.3L4.5,3.7C5.4,3.1,6.5,2.6,7.7,2.5z M3.7,4.6
		l2.5,2.3C5.9,7.1,5.9,7.3,5.8,7.6H2.5C2.5,6.5,2.9,5.4,3.7,4.6z M3.9,11.6c-0.8-0.7-1.3-1.7-1.4-2.9h3.3C5.9,9,6,9.3,6.2,9.5
		L3.9,11.6z M4.9,12.5l2.3-2.2c0.1,0.1,0.3,0.1,0.4,0.2v3C6.6,13.3,5.6,13,4.9,12.5z M9,13.3v-3.1c0.1,0,0.2-0.1,0.4-0.2l2.2,2.1
		C10.7,12.8,9.8,13.2,9,13.3z M12.3,11.4L10,9.2l0.2-0.5l3.2,0.1C13.4,9.8,13,10.6,12.3,11.4z M10,7.6L9.8,7.1L12.5,5
		c0.5,0.7,0.8,1.5,0.9,2.6H10z"/>
</g>
</svg>
