<?xml version="1.0" encoding="utf-8"?>
<!-- Generator: Adobe Illustrator 20.0.0, SVG Export Plug-In . SVG Version: 6.00 Build 0)  -->
<svg version="1.1" id="Layer_1" xmlns="http://www.w3.org/2000/svg" xmlns:xlink="http://www.w3.org/1999/xlink" x="0px" y="0px"
	 viewBox="0 0 16 16" style="enable-background:new 0 0 16 16;" xml:space="preserve">
<style type="text/css">
	.st0{fill:#3FA9F5;}
	.st1{fill:#FFFFFF;}
</style>
<rect y="3.3" class="st0" width="16" height="9.1"/>
<path class="st1" d="M1.3,9.4V6.6c0-0.6,0.2-1,0.5-1.4s0.7-0.5,1.3-0.5c0.5,0,0.9,0.2,1.2,0.5S4.7,6,4.7,6.5V7H3.5V6.5
	c0-0.3,0-0.4-0.1-0.6S3.2,5.8,3,5.8C2.8,5.8,2.7,5.9,2.6,6S2.5,6.3,2.5,6.5v2.8c0,0.3,0,0.6,0.1,0.7s0.2,0.2,0.4,0.2
	c0.2,0,0.3-0.1,0.4-0.2s0.1-0.3,0.1-0.7V8.8h1.2v0.5c0,0.6-0.1,1.1-0.4,1.4S3.6,11.2,3,11.2c-0.5,0-0.9-0.2-1.2-0.5S1.3,10,1.3,9.4z
	"/>
<path class="st1" d="M5.7,9.4l1.1-0.3C6.9,9.5,7,9.8,7.1,10s0.3,0.2,0.5,0.2c0.2,0,0.3,0,0.4-0.1s0.1-0.2,0.1-0.4
	c0-0.3-0.4-0.8-1.2-1.4l0,0C6.5,7.9,6.2,7.7,6.1,7.4s-0.2-0.6-0.2-1c0-0.5,0.2-0.9,0.5-1.2S7,4.7,7.5,4.7s0.9,0.1,1.2,0.4
	s0.5,0.7,0.5,1.2L8.1,6.6C8.1,6.3,8,6.1,7.9,6S7.7,5.8,7.5,5.8s-0.3,0-0.4,0.1S7,6.2,7,6.4C7,6.7,7.3,7,7.8,7.5
	c0.1,0.1,0.3,0.2,0.3,0.3c0.4,0.4,0.7,0.7,0.9,1s0.2,0.6,0.2,0.9c0,0.5-0.2,0.9-0.5,1.2s-0.6,0.4-1.2,0.4c-0.5,0-0.9-0.2-1.2-0.5
	S5.8,10,5.7,9.4z"/>
<path class="st1" d="M10.2,9.4l1.1-0.3c0.1,0.4,0.1,0.6,0.3,0.8s0.3,0.2,0.5,0.2s0.3,0,0.4-0.1s0.1-0.2,0.1-0.4
	c0-0.3-0.4-0.8-1.2-1.4l0,0c-0.4-0.3-0.7-0.6-0.8-0.9s-0.2-0.6-0.2-1c0-0.5,0.2-0.9,0.5-1.2s0.7-0.5,1.2-0.5S13,4.7,13.3,5
	s0.5,0.7,0.5,1.2l-1.1,0.3c0-0.3-0.1-0.5-0.2-0.6S12.2,5.8,12,5.8s-0.3,0-0.4,0.1s-0.1,0.2-0.1,0.4c0,0.3,0.3,0.6,0.8,1.1
	c0.1,0.1,0.3,0.2,0.3,0.3c0.4,0.4,0.7,0.7,0.9,1s0.2,0.6,0.2,0.9c0,0.5-0.2,0.9-0.5,1.2s-0.7,0.5-1.3,0.5c-0.5,0-0.9-0.2-1.2-0.5
	S10.3,10,10.2,9.4z"/>
</svg>
