<?xml version="1.0" encoding="utf-8"?>
<!-- Generator: Adobe Illustrator 19.2.1, SVG Export Plug-In . SVG Version: 6.00 Build 0)  -->
<svg version="1.1" id="Layer_1" xmlns="http://www.w3.org/2000/svg" xmlns:xlink="http://www.w3.org/1999/xlink" x="0px" y="0px"
	 viewBox="0 0 16 16" style="enable-background:new 0 0 16 16;" xml:space="preserve">
<style type="text/css">
	.st0{fill:#3FA9F5;}
</style>
<path class="st0" d="M0,4v9h16V4H0z M5.1,7.3H3.7V6.5c0-0.3-0.1-0.4-0.2-0.5C3.4,5.9,3.3,5.8,3,5.8S2.6,5.9,2.5,6S2.3,6.3,2.3,6.5
	v3.8c0,0.3,0.1,0.4,0.2,0.5C2.6,11,2.8,11,3,11s0.4-0.1,0.5-0.2c0.1-0.1,0.2-0.3,0.2-0.5v-1h1.3v0.9c0,0.6-0.2,1-0.5,1.3
	C4.2,11.9,3.7,12,3,12c-0.7,0-1.2-0.2-1.5-0.5c-0.3-0.3-0.5-0.7-0.5-1.3V6.6c0-0.6,0.2-1,0.5-1.3C1.8,5,2.3,4.8,3,4.8
	c0.7,0,1.2,0.2,1.5,0.5C4.9,5.6,5.1,6,5.1,6.6V7.3z M9.3,11.6C8.9,11.9,8.4,12,7.7,12s-1.2-0.2-1.5-0.5c-0.3-0.3-0.5-0.7-0.5-1.3
	V9.8H7v0.5c0,0.3,0.1,0.4,0.2,0.5C7.3,11,7.5,11,7.7,11c0.2,0,0.4-0.1,0.5-0.2c0.1-0.1,0.2-0.3,0.2-0.5c0-0.2-0.1-0.5-0.2-0.6
	C8.1,9.5,7.9,9.3,7.7,9.2C7.5,9,7.3,8.8,7.1,8.7C6.8,8.5,6.6,8.3,6.4,8.1C6.2,7.9,6.1,7.7,5.9,7.5C5.8,7.2,5.7,6.9,5.7,6.6
	c0-0.6,0.2-1,0.5-1.3C6.6,5,7.1,4.8,7.7,4.8c0.7,0,1.2,0.2,1.5,0.5C9.6,5.6,9.8,6,9.8,6.6v0.2H8.5V6.5c0-0.3-0.1-0.4-0.2-0.5
	C8.2,5.9,8,5.8,7.8,5.8C7.6,5.8,7.4,5.9,7.3,6C7.2,6.1,7.1,6.3,7.1,6.5c0,0.2,0.1,0.5,0.2,0.6c0.1,0.2,0.3,0.4,0.5,0.5
	C8,7.9,8.2,8,8.4,8.2c0.2,0.2,0.4,0.3,0.6,0.5c0.2,0.2,0.4,0.4,0.5,0.7c0.1,0.2,0.2,0.5,0.2,0.9C9.8,10.8,9.6,11.3,9.3,11.6z
	 M14,11.6c-0.3,0.3-0.9,0.5-1.5,0.5s-1.2-0.2-1.5-0.5c-0.3-0.3-0.5-0.7-0.5-1.3V9.8h1.3v0.5c0,0.3,0.1,0.4,0.2,0.5
	C12,11,12.2,11,12.4,11c0.2,0,0.4-0.1,0.5-0.2c0.1-0.1,0.2-0.3,0.2-0.5c0-0.2-0.1-0.5-0.2-0.6c-0.1-0.2-0.3-0.4-0.5-0.5
	C12.2,9,12,8.8,11.8,8.7c-0.2-0.2-0.4-0.3-0.6-0.5c-0.2-0.2-0.4-0.4-0.5-0.7c-0.1-0.2-0.2-0.5-0.2-0.9c0-0.6,0.2-1,0.5-1.3
	c0.3-0.3,0.8-0.5,1.5-0.5c0.7,0,1.2,0.2,1.5,0.5c0.3,0.3,0.5,0.7,0.5,1.3v0.2h-1.3V6.5c0-0.3-0.1-0.4-0.2-0.5
	c-0.1-0.1-0.3-0.2-0.5-0.2S12.1,5.9,12,6c-0.1,0.1-0.2,0.3-0.2,0.5c0,0.2,0.1,0.5,0.2,0.6c0.1,0.2,0.3,0.4,0.5,0.5
	c0.2,0.2,0.4,0.3,0.6,0.5c0.2,0.2,0.4,0.3,0.6,0.5c0.2,0.2,0.4,0.4,0.5,0.7c0.1,0.2,0.2,0.5,0.2,0.9C14.5,10.8,14.3,11.3,14,11.6z"
	/>
</svg>
