<?xml version="1.0" encoding="utf-8"?>
<!-- Generator: Adobe Illustrator 19.2.1, SVG Export Plug-In . SVG Version: 6.00 Build 0)  -->
<svg version="1.1" id="Layer_1" xmlns="http://www.w3.org/2000/svg" xmlns:xlink="http://www.w3.org/1999/xlink" x="0px" y="0px"
	 viewBox="0 0 16 16" style="enable-background:new 0 0 16 16;" xml:space="preserve">
<style type="text/css">
	.st0{fill:#3FA9F5;}
	.st1{fill:none;}
</style>
<path class="st0" d="M0.9,4.2v7.6h14.2V4.2H0.9z M3.2,9.2c0.2,0.3,0.4,0.4,0.7,0.4c0.3,0,0.5-0.1,0.7-0.3c0.2-0.2,0.2-0.4,0.3-0.6
	h0.9C5.7,9.2,5.5,9.5,5.2,9.8S4.5,10.2,4,10.2c-0.6,0-1.2-0.2-1.5-0.6C2.1,9.1,2,8.7,2,8s0.2-1.3,0.6-1.7C3,5.9,3.4,5.8,3.9,5.8
	c0.7,0,1.2,0.2,1.6,0.7C5.7,6.8,5.8,7,5.8,7.3H4.9c0-0.2-0.1-0.4-0.2-0.5C4.5,6.6,4.3,6.5,4,6.5S3.4,6.6,3.2,6.9
	C3,7.2,2.9,7.6,2.9,8.1S3,8.9,3.2,9.2z M9.4,9.9c-0.3,0.3-0.7,0.4-1.3,0.4c-0.6,0-1-0.1-1.3-0.4C6.5,9.6,6.3,9.3,6.3,8.8h0.9
	c0,0.2,0.1,0.3,0.2,0.4c0.2,0.2,0.4,0.3,0.8,0.3c0.2,0,0.3,0,0.5-0.1C8.9,9.3,9,9.2,9,9c0-0.1-0.1-0.2-0.2-0.3
	C8.7,8.6,8.5,8.5,8.2,8.4L7.8,8.3C7.3,8.2,7,8.1,6.8,8C6.5,7.8,6.4,7.5,6.4,7.1c0-0.4,0.1-0.7,0.4-1c0.3-0.3,0.7-0.4,1.3-0.4
	c0.5,0,0.9,0.1,1.2,0.4c0.3,0.3,0.5,0.6,0.5,1.1H8.9c0-0.3-0.1-0.4-0.3-0.6C8.5,6.5,8.2,6.5,8,6.5s-0.4,0-0.6,0.1
	C7.3,6.7,7.2,6.8,7.2,7s0.1,0.3,0.2,0.3C7.5,7.4,7.7,7.4,8,7.5l0.8,0.2C9.1,7.8,9.3,7.9,9.5,8c0.3,0.2,0.4,0.5,0.4,0.9
	C9.9,9.3,9.7,9.6,9.4,9.9z M13.3,9.9c-0.3,0.3-0.7,0.4-1.3,0.4s-1-0.1-1.3-0.4c-0.3-0.3-0.5-0.6-0.5-1.1h0.9c0,0.2,0.1,0.3,0.2,0.4
	c0.2,0.2,0.4,0.3,0.8,0.3c0.2,0,0.4,0,0.5-0.1c0.2-0.1,0.3-0.2,0.3-0.4c0-0.1-0.1-0.2-0.2-0.3c-0.1-0.1-0.3-0.2-0.6-0.3l-0.4-0.1
	c-0.5-0.1-0.8-0.2-1-0.3c-0.3-0.2-0.4-0.5-0.4-0.9c0-0.4,0.1-0.7,0.4-1C11,5.8,11.4,5.7,12,5.7c0.5,0,0.9,0.1,1.2,0.4
	c0.3,0.3,0.5,0.6,0.5,1.1h-0.9c0-0.3-0.1-0.4-0.3-0.6c-0.2-0.1-0.4-0.1-0.6-0.1c-0.2,0-0.4,0-0.6,0.1c-0.1,0.1-0.2,0.2-0.2,0.4
	s0.1,0.3,0.2,0.3c0.1,0.1,0.3,0.1,0.6,0.2l0.8,0.2C13,7.8,13.2,7.9,13.4,8c0.3,0.2,0.4,0.5,0.4,0.9C13.8,9.3,13.6,9.6,13.3,9.9z"/>
<rect class="st1" width="16" height="16"/>
</svg>
