<?xml version="1.0" encoding="utf-8"?>
<!-- Generator: Adobe Illustrator 19.2.1, SVG Export Plug-In . SVG Version: 6.00 Build 0)  -->
<svg version="1.1" id="Layer_1" xmlns="http://www.w3.org/2000/svg" xmlns:xlink="http://www.w3.org/1999/xlink" x="0px" y="0px"
	 viewBox="0 0 16 16" style="enable-background:new 0 0 16 16;" xml:space="preserve">
<style type="text/css">
	.st0{fill:#4FBC78;}
</style>
<path class="st0" d="M0,4v9h16V4H0z M5.5,7.4H4.2V6.8c0-0.3,0-0.5-0.1-0.6C4,6.1,3.8,6.1,3.6,6.1c-0.2,0-0.3,0.1-0.4,0.2
	C3.1,6.4,3.1,6.6,3.1,6.8v3c0,0.4,0,0.6,0.1,0.7s0.2,0.2,0.4,0.2c0.2,0,0.4-0.1,0.4-0.2s0.1-0.4,0.1-0.8V9.4h1.3v0.6
	c0,0.7-0.2,1.2-0.5,1.6S4.2,12,3.6,12c-0.6,0-1-0.2-1.3-0.6s-0.5-0.9-0.5-1.5v-3c0-0.6,0.2-1.1,0.5-1.5C2.7,5,3.1,4.9,3.7,4.9
	c0.6,0,1,0.2,1.3,0.5c0.3,0.4,0.5,0.8,0.5,1.5V7.4z M9.5,11.5C9.2,11.8,8.7,12,8.1,12c-0.5,0-1-0.2-1.4-0.5
	c-0.4-0.4-0.6-0.9-0.7-1.5l1.2-0.3c0.1,0.4,0.1,0.7,0.3,0.9c0.1,0.2,0.3,0.3,0.6,0.3c0.2,0,0.3-0.1,0.4-0.2c0.1-0.1,0.2-0.3,0.2-0.4
	c0-0.4-0.4-0.9-1.3-1.5c0,0,0,0,0,0C7,8.4,6.7,8.1,6.5,7.8c-0.2-0.3-0.3-0.7-0.3-1c0-0.6,0.2-1,0.5-1.3C7.1,5,7.6,4.9,8.1,4.9
	c0.5,0,0.9,0.2,1.3,0.5s0.5,0.7,0.5,1.3L8.7,6.9c0-0.3-0.1-0.5-0.2-0.6S8.2,6.1,8.1,6.1c-0.2,0-0.3,0.1-0.4,0.2
	C7.6,6.3,7.5,6.5,7.5,6.7c0,0.3,0.3,0.7,0.9,1.2C8.6,7.9,8.7,8,8.8,8.1c0.5,0.4,0.8,0.7,1,1c0.2,0.3,0.3,0.6,0.3,1
	C10,10.7,9.8,11.2,9.5,11.5z M12.9,11.8h-1.2L10.3,5h1.2l0.8,4.2h0.1L13,5h1.2L12.9,11.8z"/>
</svg>
