<?xml version="1.0" encoding="utf-8"?>
<!-- Generator: Adobe Illustrator 19.2.1, SVG Export Plug-In . SVG Version: 6.00 Build 0)  -->
<svg version="1.0" id="Layer_1" xmlns="http://www.w3.org/2000/svg" xmlns:xlink="http://www.w3.org/1999/xlink" x="0px" y="0px"
	 viewBox="0 0 16 16" style="enable-background:new 0 0 16 16;" xml:space="preserve">
<style type="text/css">
	.st0{fill:#4FBC78;}
	.st1{fill:#FFFFFF;}
	.st2{fill:none;}
</style>
<rect x="1.1" y="4.2" class="st0" width="14.2" height="7.6"/>
<g>
	<path class="st1" d="M2.8,6.3c0.3-0.4,0.8-0.5,1.3-0.5c0.7,0,1.2,0.2,1.6,0.7C5.9,6.7,6,7,6,7.3H5.1C5,7.1,5,6.9,4.9,6.8
		C4.7,6.6,4.5,6.5,4.2,6.5S3.6,6.6,3.4,6.9S3.1,7.6,3.1,8.1s0.1,0.8,0.3,1.1s0.4,0.4,0.7,0.4s0.5-0.1,0.7-0.3C5,9.1,5,8.9,5.1,8.7H6
		C5.9,9.2,5.7,9.5,5.4,9.8c-0.3,0.3-0.7,0.4-1.2,0.4c-0.6,0-1.1-0.2-1.4-0.6C2.4,9.3,2.2,8.7,2.2,8S2.4,6.7,2.8,6.3z"/>
	<path class="st1" d="M7.4,8.8c0,0.2,0.1,0.3,0.2,0.4C7.8,9.4,8,9.5,8.4,9.5c0.2,0,0.4,0,0.5-0.1c0.2,0,0.3-0.2,0.3-0.4
		c0-0.1-0.1-0.3-0.2-0.3C8.9,8.6,8.7,8.5,8.4,8.4L8,8.3C7.5,8.2,7.2,8.1,7,8C6.7,7.8,6.6,7.5,6.6,7.1s0.1-0.7,0.4-1s0.7-0.4,1.3-0.4
		c0.5,0,0.9,0.1,1.2,0.4S10,6.7,10,7.2H9.1c0-0.3-0.1-0.4-0.3-0.6C8.6,6.5,8.4,6.5,8.2,6.5s-0.4,0-0.6,0.1C7.5,6.7,7.4,6.8,7.4,7
		s0.1,0.3,0.2,0.3c0.1,0.1,0.3,0.1,0.6,0.2L9,7.7C9.3,7.8,9.5,7.9,9.7,8c0.3,0.2,0.4,0.5,0.4,0.9s-0.2,0.7-0.5,1s-0.7,0.4-1.3,0.4
		s-1-0.1-1.3-0.4C6.7,9.6,6.5,9.3,6.5,8.8H7.4z"/>
	<path class="st1" d="M13.2,5.8h0.9l-1.5,4.3h-0.9l-1.5-4.3h1l0.9,3.3L13.2,5.8z"/>
</g>
<rect class="st2" width="16" height="16"/>
</svg>
