<?xml version="1.0" encoding="utf-8"?>
<!-- Generator: Adobe Illustrator 19.2.1, SVG Export Plug-In . SVG Version: 6.00 Build 0)  -->
<svg version="1.1" id="Layer_1" xmlns="http://www.w3.org/2000/svg" xmlns:xlink="http://www.w3.org/1999/xlink" x="0px" y="0px"
	 viewBox="0 0 16 16" style="enable-background:new 0 0 16 16;" xml:space="preserve">
<style type="text/css">
	.st0{fill:#4FBC78;}
	.st1{fill:#FFFFFF;}
	.st2{fill:none;}
</style>
<rect x="0.9" y="4.2" class="st0" width="14.2" height="7.6"/>
<g>
	<path class="st1" d="M2.7,6.3C3,5.9,3.5,5.8,4,5.8c0.7,0,1.2,0.2,1.6,0.7C5.8,6.7,5.9,7,5.9,7.3H5C4.9,7.1,4.9,6.9,4.8,6.8
		C4.6,6.6,4.4,6.5,4.1,6.5S3.5,6.6,3.3,6.9S3,7.6,3,8.1s0.1,0.8,0.3,1.1C3.5,9.5,3.7,9.6,4,9.6c0.3,0,0.5-0.1,0.7-0.3
		C4.9,9.1,4.9,8.9,5,8.7h0.9C5.8,9.2,5.6,9.5,5.3,9.8c-0.3,0.3-0.7,0.4-1.2,0.4C3.5,10.2,3,10,2.7,9.6C2.3,9.3,2.1,8.7,2.1,8
		S2.3,6.7,2.7,6.3z"/>
	<path class="st1" d="M7.3,8.8c0,0.2,0.1,0.3,0.2,0.4c0.2,0.2,0.4,0.3,0.8,0.3c0.2,0,0.4,0,0.5-0.1c0.2,0,0.3-0.2,0.3-0.4
		c0-0.1-0.1-0.3-0.2-0.3C8.8,8.6,8.6,8.5,8.2,8.4L7.9,8.3C7.4,8.2,7.1,8.1,6.9,8C6.6,7.8,6.5,7.5,6.5,7.1s0.1-0.7,0.4-1
		s0.7-0.4,1.3-0.4c0.5,0,0.9,0.1,1.2,0.4s0.5,0.6,0.5,1.1H9c0-0.3-0.1-0.4-0.3-0.6C8.5,6.5,8.2,6.5,8.1,6.5s-0.4,0-0.6,0.1
		C7.4,6.7,7.3,6.8,7.3,7s0.1,0.3,0.2,0.3c0.1,0.1,0.3,0.1,0.6,0.2l0.8,0.2C9.2,7.8,9.4,7.9,9.6,8c0.3,0.2,0.4,0.5,0.4,0.9
		s-0.2,0.7-0.5,1s-0.7,0.4-1.3,0.4s-1-0.1-1.3-0.4C6.6,9.6,6.4,9.3,6.4,8.8H7.3z"/>
	<path class="st1" d="M13.1,5.8h0.9l-1.5,4.3h-0.9l-1.5-4.3h1l0.9,3.3L13.1,5.8z"/>
</g>
<rect class="st2" width="16" height="16"/>
</svg>
