<?xml version="1.0" encoding="utf-8"?>
<!-- Generator: Adobe Illustrator 19.2.1, SVG Export Plug-In . SVG Version: 6.00 Build 0)  -->
<svg version="1.0" id="Layer_1" xmlns="http://www.w3.org/2000/svg" xmlns:xlink="http://www.w3.org/1999/xlink" x="0px" y="0px"
	 viewBox="0 0 16 16" style="enable-background:new 0 0 16 16;" xml:space="preserve">
<style type="text/css">
	.st0{fill:#FFFFFF;stroke:#404040;stroke-width:0.5827;stroke-miterlimit:10;}
	.st1{fill:#404040;}
	.st2{fill:none;}
	.st3{fill:#FFFFFF;}
</style>
<polygon class="st0" points="12.8,14.6 1.5,14.6 1.5,1.5 14.8,1.5 14.8,12.5 "/>
<polygon class="st1" points="15,12.1 11.7,12.1 11.7,14.8 12.8,14.8 15,12.5 "/>
<rect x="0.1" class="st2" width="16" height="16"/>
<path class="st1" d="M8.6,11.9l-0.7-0.1c-0.1,0-1.8-3.6-1.8-3.6l0.5-1l2.2,4L8.6,11.9z"/>
<rect class="st2" width="16" height="16"/>
<path class="st1" d="M9.2,3.7C8.9,2.7,7.8,2.3,7,2.8S6,4.4,6.5,5.1c0.1,0-0.5,1-0.5,1l-0.4-1C6.4,4.3,6.2,3,5.1,2.6
	C4.3,2.3,3.3,2.7,3,3.6c-0.3,1,0.3,1.9,1.4,1.9c0.1,0,0.1,0,0.1,0c0.1,0.2,0.8,1.7,0.8,1.7s-2.1,3.9-2,4.1c0,0,0.2,0.7,0.2,0.7
	l0.7-0.3l3.2-6C8.7,5.7,9.5,4.7,9.2,3.7z"/>
<circle class="st3" cx="6" cy="7.2" r="0.3"/>
<circle class="st3" cx="4.4" cy="4" r="0.9"/>
<circle class="st3" cx="7.7" cy="4.1" r="0.9"/>
</svg>
