<?xml version="1.0" encoding="utf-8"?>
<!-- Generator: Adobe Illustrator 19.2.1, SVG Export Plug-In . SVG Version: 6.00 Build 0)  -->
<svg version="1.0" id="Layer_1" xmlns="http://www.w3.org/2000/svg" xmlns:xlink="http://www.w3.org/1999/xlink" x="0px" y="0px"
	 viewBox="0 0 16 16" style="enable-background:new 0 0 16 16;" xml:space="preserve">
<style type="text/css">
	.st0{fill:#404040;}
	.st1{fill:none;}
</style>
<path class="st0" d="M6.7,8C6.4,7.7,6.1,7.4,5.8,7.1C5.6,6.9,5.4,6.7,5.2,6.5C5.1,6.4,5.1,6.4,5,6.5c-1.6,0.6-3.3-0.3-3.7-2
	S2.2,1.2,4,1.2c1.9,0,3.3,1.9,2.6,3.7c0,0.1,0,0.2,0.1,0.3c2.7,2.7,8.6,8.4,8.6,8.6c0,0.1,0,1,0,1.2c-0.1,0-0.9,0-1.4,0
	c-0.3,0-4.1-4-5.5-5.4L8.3,9.5C7.9,9.6,7.7,9.8,7.4,10c-0.3,0.3-0.6,0.6-0.9,0.9c-0.1,0.1-0.1,0.1,0,0.2c0.7,1.7-0.4,3.5-2.2,3.7
	c-1.6,0.2-3.1-1.1-3.1-2.7c0-1.9,1.9-3.2,3.7-2.5c0.1,0,0.2,0,0.2,0C5.7,9,6.2,8.5,6.7,8z M2.6,12.1c0,0.8,0.6,1.4,1.4,1.4
	s1.4-0.6,1.4-1.4c0-0.8-0.6-1.4-1.4-1.4C3.2,10.8,2.6,11.4,2.6,12.1z M5.4,3.9c0-0.8-0.6-1.4-1.4-1.4S2.6,3.1,2.6,3.9S3.2,5.3,4,5.3
	C4.7,5.3,5.4,4.7,5.4,3.9z M8.1,7.7C7.9,7.7,7.8,7.8,7.8,8S8,8.3,8.1,8.3c0.2,0,0.4-0.1,0.4-0.3C8.5,7.8,8.3,7.7,8.1,7.7z"/>
<path class="st0" d="M15.2,1.2c0,0.3,0,0.8,0,1c0,0.1-5.1,5.2-5.4,5.6L8.4,6.4c0,0,5.1-5.2,5.2-5.2C14.4,1.2,14.4,1.2,15.2,1.2z"/>
<rect class="st1" width="16" height="16"/>
</svg>
