<?xml version="1.0" standalone="no"?><!DOCTYPE svg PUBLIC "-//W3C//DTD SVG 1.1//EN" "http://www.w3.org/Graphics/SVG/1.1/DTD/svg11.dtd"><svg width="100%" height="100%" viewBox="0 0 16 16" version="1.1" xmlns="http://www.w3.org/2000/svg" xmlns:xlink="http://www.w3.org/1999/xlink" xml:space="preserve" style="fill-rule:evenodd;clip-rule:evenodd;stroke-linejoin:round;stroke-miterlimit:1.41421;"><g id="Layer 1"><path d="M3.539,6.001c-0.004,1.059 0.837,2.032 2.025,2.025c1.215,-0.008 2.47,-1.43 1.795,-2.865c-0.31,-0.661 -1.175,-1.257 -2.216,-1.07c-0.882,0.158 -1.6,0.898 -1.604,1.91M6.404,1.264c0.086,0.385 0.136,0.807 0.191,1.222c0.223,0.129 0.612,0.268 0.612,0.268l1.031,-0.688l1.26,1.261l-0.725,0.955l0.229,0.649l1.343,0.43l-0.044,1.519l-1.261,0.229l-0.267,0.573l0.725,1.031l-1.222,1.299c0,0 -0.692,-0.505 -1.032,-0.764c-0.213,0.093 -0.429,0.182 -0.649,0.268c-0.031,0.478 -0.229,1.298 -0.229,1.298l-1.643,0l-0.267,-1.26l-0.516,-0.327l-1.165,0.785l-1.146,-1.261l0.688,-0.993l-0.306,-0.688c0,0 -0.914,-0.08 -1.261,-0.229c-0.002,-0.021 -0.006,-0.066 -0.006,-0.066l0.045,-1.653c0,0 0.833,-0.108 1.222,-0.191l0.306,-0.572l-0.764,-1.032l1.26,-1.261l1.031,0.726l0.612,-0.268l0.229,-1.298c0,0 1.243,-0.046 1.719,0.038" style="fill:#404040;"/><path d="M10.45,11.472c0.152,1.494 2.983,1.477 2.552,-0.522c-0.125,-0.581 -0.665,-1.017 -1.446,-0.912c-0.705,0.094 -1.194,0.58 -1.106,1.434M11.579,8.875l0.579,0.036c0.344,-0.317 0.605,-0.728 0.984,-1.006c0.47,0.178 0.825,0.458 1.165,0.751c-0.125,0.478 -0.56,1.226 -0.56,1.226l0.396,0.655l1.243,0.27l-0.086,1.4l-1.316,0.113l-0.421,0.556l0.405,1.285l-1.204,0.653l-0.852,-1.119l-0.58,-0.035l-0.982,1.005l-1.214,-0.752l0.56,-1.227l-0.28,-0.779c0,0 -1.086,-0.047 -1.357,-0.194l0.08,-1.304l1.51,-0.149l0.397,-0.681l-0.568,-1.221c0,0 0.77,-0.437 1.2,-0.605c0.266,0.217 0.901,1.122 0.901,1.122l0,0Z" style="fill:#3e3e3e;"/></g></svg>