<?xml version="1.0" encoding="utf-8"?>
<!-- Generator: Adobe Illustrator 19.2.1, SVG Export Plug-In . SVG Version: 6.00 Build 0)  -->
<svg version="1.1" id="Layer_1" xmlns="http://www.w3.org/2000/svg" xmlns:xlink="http://www.w3.org/1999/xlink" x="0px" y="0px"
	 viewBox="0 0 16 16" style="enable-background:new 0 0 16 16;" xml:space="preserve">
<style type="text/css">
	.st0{fill:none;stroke:#404040;stroke-width:1.5;stroke-miterlimit:1.4142;}
	.st1{fill:#404040;}
</style>
<path class="st0" d="M13.9,8.1c0,3.2-2.6,5.8-5.9,5.8s-5.9-2.6-5.9-5.8S4.7,2.3,8,2.3S13.9,4.9,13.9,8.1z"/>
<g>
	<path class="st1" d="M8.5,8.4c-0.6,0-1.8,0-2.3,0c-0.2,0-0.6,0-0.7,0L7,5h3L9,7c0.6,0,2,0,2,0l-4,5c0,0-0.8,0-0.8,0
		C6.2,12,8.4,8.6,8.5,8.4z"/>
</g>
</svg>
