<?xml version="1.0" encoding="utf-8"?>
<svg version="1.0" id="Layer_1" xmlns="http://www.w3.org/2000/svg" xmlns:xlink="http://www.w3.org/1999/xlink" x="0px" y="0px"
	 viewBox="0 0 16 16" style="enable-background:new 0 0 16 16;" xml:space="preserve">
<style type="text/css">
	.st0{fill:none;stroke:#404040;stroke-width:1.5;stroke-miterlimit:10;}
	.st1{fill:#4FBC78;}
	.st2{fill:none;}
	.st3{fill:#404040;}
</style>
<circle class="st0" cx="8" cy="8" r="6.3"/>
<path class="st0" d="M-12.2,12"/>
<path class="st1" d="M9.9,5.7C8.8,4.9,7.3,5,6.2,5.9C5.5,6.5,5.1,7.4,5.1,8.3H3.6c0-1.3,0.6-2.6,1.7-3.6C7,3.3,9.5,3.3,11.2,4.6
	c0.1,0.1,0.2,0.2,0.3,0.2L9.9,5.7z"/>
<g>
	<path class="st2" d="M4.2,6.2C3.9,6.9,3.7,7.6,3.7,8.3h1.5c0-0.4,0.1-0.9,0.3-1.3L4.2,6.2z"/>
	<path class="st2" d="M11.2,4.6c-0.8-0.7-1.8-1-2.8-1l0.2,1.5c0.5,0,1.1,0.2,1.5,0.5l1.4-0.8C11.4,4.8,11.2,4.7,11.2,4.6z"/>
	<path class="st2" d="M7.8,3.7c-0.9,0.1-1.7,0.4-2.5,1C5,5,4.7,5.4,4.4,5.8l1.3,0.7c0.2-0.2,0.4-0.4,0.6-0.6C6.8,5.5,7.4,5.3,8,5.2
		L7.8,3.7z"/>
</g>
<g id="Layer_2">
</g>
<path class="st3" d="M11.6,6c0,0.1-0.1,0.2-0.1,0.2c-0.6,1.3-1.2,2.6-1.8,3.9c-0.1,0.2-0.2,0.3-0.3,0.5c-0.4,0.6-1.2,0.9-1.9,0.7
	C6.7,11,6.2,10.3,6.2,9.6c0-0.6,0.2-1,0.7-1.3c0.6-0.4,1.2-0.7,1.8-1c0.9-0.4,1.8-0.8,2.7-1.2C11.5,6,11.5,6,11.6,6z M8.7,9.6
	c0-0.4-0.3-0.7-0.7-0.7c-0.4,0-0.7,0.3-0.7,0.8c0,0.4,0.3,0.7,0.7,0.7C8.3,10.4,8.7,10,8.7,9.6z"/>
</svg>
