<?xml version="1.0" encoding="utf-8"?>
<!-- Generator: Adobe Illustrator 19.2.1, SVG Export Plug-In . SVG Version: 6.00 Build 0)  -->
<svg version="1.1" xmlns="http://www.w3.org/2000/svg" xmlns:xlink="http://www.w3.org/1999/xlink" x="0px" y="0px"
	 viewBox="0 0 15.5 16.3" style="enable-background:new 0 0 15.5 16.3;" xml:space="preserve">
<style type="text/css">
	.st0{fill:none;stroke:#404040;stroke-width:1.5;stroke-miterlimit:10;}
	.st1{fill:#404040;}
	.st2{fill:#4FBC78;}
</style>
<g id="Layer_2">
</g>
<g id="Layer_1">
	<title>database_refresh</title>
	<line class="st0" x1="2.9" y1="12" x2="2.9" y2="4.2"/>
	<line class="st0" x1="13.1" y1="4.2" x2="13.1" y2="12"/>
	<path class="st0" d="M13.1,11.8c0,1.4-2.3,2.5-5.1,2.5s-5.1-1.1-5.1-2.5"/>
	<g>
		<path class="st1" d="M2.2,3.8l0.1,8.3c0,0,1,2.6,4.8,2.7s5.7-0.4,6.2-2.2c0.5-1.8,0.3-8.7,0.3-8.7s-1.9,2.7-6,2.6S2.2,3.8,2.2,3.8
			z"/>
		<ellipse class="st0" cx="8" cy="4.2" rx="5.1" ry="2.5"/>
		<g id="Layer_1_1_">
			<path class="st2" d="M10.5,10.5c0.3,0,0.7,0,1,0c0,0,0,0.1-0.1,0.1c-0.5,0.6-1,1.2-1.5,1.8c-0.6-0.6-1.1-1.3-1.7-1.9h1.2
				C9.5,10,9.3,9.6,9,9.3C8.7,9,8.3,8.8,7.8,8.7C6.7,8.5,5.9,9.2,5.6,9.9c-0.2,0.4-0.2,1-0.1,1.5c0.1,0.4,0.4,0.8,0.7,1.1
				c0.3,0.3,0.8,0.5,1.3,0.5c0.5,0,0.9-0.2,1.3-0.5c0.1,0.1,0.2,0.3,0.4,0.4c0.1,0.1,0.2,0.3,0.3,0.4c-0.4,0.3-0.7,0.5-1.2,0.7
				c-0.5,0.1-1.1,0.1-1.7,0c-0.9-0.3-1.6-0.9-2-1.8c-0.2-0.5-0.3-1.1-0.2-1.7c0.1-0.6,0.3-1,0.5-1.4c0.5-0.8,1.3-1.3,2.4-1.4
				C8.3,7.6,9,8,9.5,8.5C10.1,9,10.4,9.6,10.5,10.5"/>
		</g>
	</g>
</g>
</svg>
