<?xml version="1.0" encoding="utf-8"?>
<!-- Generator: Adobe Illustrator 19.2.1, SVG Export Plug-In . SVG Version: 6.00 Build 0)  -->
<svg version="1.1" id="Layer_1" xmlns="http://www.w3.org/2000/svg" xmlns:xlink="http://www.w3.org/1999/xlink" x="0px" y="0px"
	 viewBox="0 0 15.5 16.3" style="enable-background:new 0 0 15.5 16.3;" xml:space="preserve">
<style type="text/css">
	.st0{fill:#404040;}
	.st1{fill:#4FBC78;}
</style>
<title>database-refresh</title>
<path class="st0" d="M13.9,4.1C13.7,2.3,11.3,1,8.1,1C4.9,1,2.4,2.4,2.1,4.1h0v0c0,0.1,0,0.2,0,0.2s0,0.2,0,0.2v7.6
	c0.2,1.9,2.5,3.3,5.6,3.3c3,0,6-1.3,6.2-3.3L13.9,4.1L13.9,4.1z M6.4,12.8L3.7,9.7h1.4V7.4h2.7v2.3h1.3L6.4,12.8z M8.1,6
	C5.5,6,3.8,5.2,3.6,4.5V4.2c0.2-0.8,1.8-1.7,4.4-1.7c2.7,0,4.3,0.9,4.3,1.7C12.4,5,10.8,6,8.1,6z"/>
<path class="st1" d="M6.4,6.1c-2.2,0-4,1.7-4,4s1.7,4,4,4c2.2,0,3.9-1.9,3.9-4C10.3,7.8,8.6,6.1,6.4,6.1z M6.4,12.8L3.7,9.7h1.4V7.4
	h2.7v2.3h1.3L6.4,12.8z"/>
</svg>
