<?xml version="1.0" encoding="utf-8"?>
<!-- Generator: Adobe Illustrator 19.2.1, SVG Export Plug-In . SVG Version: 6.00 Build 0)  -->
<svg version="1.1" id="Layer_1" xmlns="http://www.w3.org/2000/svg" xmlns:xlink="http://www.w3.org/1999/xlink" x="0px" y="0px"
	 viewBox="0 0 15.5 16.3" style="enable-background:new 0 0 15.5 16.3;" xml:space="preserve">
<style type="text/css">
	.st0{fill:none;stroke:#404040;stroke-width:1.5;stroke-miterlimit:10;}
	.st1{fill:#404040;}
</style>
<g id="Layer_2">
</g>
<title>database_refresh</title>
<line class="st0" x1="2.9" y1="12" x2="2.9" y2="4.2"/>
<line class="st0" x1="13.1" y1="4.2" x2="13.1" y2="12"/>
<path class="st0" d="M13.1,11.8c0,1.4-2.3,2.8-5.1,2.8s-5.1-1.4-5.1-2.8"/>
<ellipse class="st0" cx="8" cy="3.9" rx="5.1" ry="2.5"/>
<path class="st1" d="M13.6,3.5c0,0-1.9,2.7-6,2.6C3.5,6,2.1,3.8,2.1,3.8V12c0,0,0.5,3.1,5.4,3.3c3.9,0.2,6-1.6,6.3-3.3
	C13.9,11.8,13.7,3.5,13.6,3.5z M12,10c0,0-1.7,2-1.9,2c-0.6-0.6-1.3-1.4-1.9-2l1.2,0C9.6,9.5,9.3,9.2,9,8.9S8.3,8.4,7.8,8.3
	C6.7,8.1,5.9,8.8,5.6,9.5c-0.2,0.4-0.2,1-0.1,1.5c0.1,0.4,0.4,0.8,0.7,1.1s0.8,0.5,1.3,0.5s0.9-0.2,1.3-0.5c0.1,0.1,0.6,0.7,0.7,0.8
	c-0.4,0.3-0.7,0.5-1.2,0.7c-0.7,0.2-1,0.3-1.9,0c-0.9-0.3-1.4-0.9-1.8-1.8c-0.2-0.5-0.3-1.1-0.2-1.7c0.1-0.6,0.3-1,0.5-1.4
	c0.5-0.8,1.3-1.3,2.4-1.4c1-0.1,1.7,0.3,2.2,0.8c0.6,0.5,0.9,1,1,1.9C10.8,10,12.1,10,12,10z"/>
</svg>
