<?xml version="1.0" encoding="utf-8"?>
<!-- Generator: Adobe Illustrator 19.2.1, SVG Export Plug-In . SVG Version: 6.00 Build 0)  -->
<svg version="1.1" id="Layer_1" xmlns="http://www.w3.org/2000/svg" xmlns:xlink="http://www.w3.org/1999/xlink" x="0px" y="0px"
	 viewBox="0 0 15.5 16.3" style="enable-background:new 0 0 15.5 16.3;" xml:space="preserve">
<style type="text/css">
	.st0{fill:#404040;}
	.st1{fill:none;stroke:#404040;stroke-width:1.5;stroke-miterlimit:10;}
	.st2{fill:#4FBC78;}
</style>
<path class="st0" d="M13.7,4c0,0-1.9,2.7-6,2.6C3.7,6.5,2.4,3.9,2.4,3.9l0.1,8.3c0,0,1.8,2,5.5,2.1c3.8,0.1,5-0.7,5.5-2.5
	C14,10,13.7,4,13.7,4z M6.1,13.6l-2.2-2.8h1.2V9h2v1.8h1.2L6.1,13.6z"/>
<title>database_refresh</title>
<line class="st1" x1="2.9" y1="12" x2="2.9" y2="4.2"/>
<line class="st1" x1="13.1" y1="4.2" x2="13.1" y2="12"/>
<path class="st1" d="M13.1,11.8c0,1.4-2.3,2.5-5.1,2.5s-5.1-1.1-5.1-2.5"/>
<ellipse class="st1" cx="8" cy="4.2" rx="5.1" ry="2.5"/>
<path class="st2" d="M9.1,11.3c0-1.7-1.3-3-2.9-3c-1.6,0-3,1.3-3,3s1.3,3,3,3C7.8,14.3,9.1,12.9,9.1,11.3z M4.2,10.9h1V9.3H7v1.6h1
	l-1.9,2.4L4.2,10.9z"/>
</svg>
