<?xml version="1.0" encoding="utf-8"?>
<!-- Generator: Adobe Illustrator 19.2.1, SVG Export Plug-In . SVG Version: 6.00 Build 0)  -->
<svg version="1.1" id="Layer_1" xmlns="http://www.w3.org/2000/svg" xmlns:xlink="http://www.w3.org/1999/xlink" x="0px" y="0px"
	 viewBox="0 0 15.5 16.3" style="enable-background:new 0 0 15.5 16.3;" xml:space="preserve">
<style type="text/css">
	.st0{fill:#404040;}
	.st1{fill:#5DE289;}
</style>
<title>database_refresh</title>
<path class="st0" d="M12.9,4.5l-0.1,8.1c0,0-0.8,2.3-4.8,2.2c-3.8,0-4.6-2.2-4.6-2.2V4.4c0,0,0.7,1.8,4.6,1.9c2.9,0.1,4.3-0.7,4.9-2
	"/>
<ellipse class="st0" cx="8.2" cy="3.3" rx="4.5" ry="2.2"/>
<path class="st1" d="M9.9,10.5C9.3,9.7,8.4,9.3,7.5,9.3v0.9c0,0-1.2-0.9-1.7-1.4l1.7-1.7v1c1.2-0.1,2.3,0.8,2.5,2
	C9.9,10.2,10,10.6,9.9,10.5z"/>
<path class="st1" d="M7.2,11.7c0.4,0.1,0.9,0.1,1.3,0.1c0,0,0-0.9,0-1s2.1,1.4,2.1,1.4l-2.1,1.6c0-0.2,0-0.9,0-1.1s-1.9,0.4-2.6-1.1
	c-0.2-0.3-0.3-0.7-0.3-1.1C5.9,11.2,6.5,11.6,7.2,11.7z"/>
</svg>
