<?xml version="1.0" encoding="utf-8"?>
<!-- Generator: Adobe Illustrator 19.2.1, SVG Export Plug-In . SVG Version: 6.00 Build 0)  -->
<svg version="1.1" id="Layer_1" xmlns="http://www.w3.org/2000/svg" xmlns:xlink="http://www.w3.org/1999/xlink" x="0px" y="0px"
	 viewBox="0 0 16 16" style="enable-background:new 0 0 16 16;" xml:space="preserve">
<style type="text/css">
	.st0{fill:none;stroke:#4FBC78;stroke-width:0.9938;stroke-miterlimit:10;}
	.st1{fill:#404040;}
</style>
<title>dbcon</title>
<rect x="1.5" y="1.5" class="st0" width="13" height="12.9"/>
<path class="st1" d="M9.3,8.4c0-2,0-3.8,0-3.8c-1.5,0-3.9,0.7-4.7,2.2C4.4,7,4.4,7.2,4.3,7.4h-2v1.5h2c0,0.3,0.1,0.5,0.3,0.7
	c0.8,1.5,3.2,2.1,4.7,2.2C9.3,11.8,9.3,10.4,9.3,8.4L9.3,8.4L9.3,8.4z"/>
<path class="st1" d="M10.1,4.5c0.3,0,0.7,0,1,0v2c0,0,2.1,0,2.5,0c0,0.3,0,0.7,0,1h-2.5V9h2.5v1c0,0-2.4,0-2.5,0v2h-1V4.5z"/>
</svg>
