<?xml version="1.0" encoding="utf-8"?>
<!-- Generator: Adobe Illustrator 19.2.1, SVG Export Plug-In . SVG Version: 6.00 Build 0)  -->
<svg version="1.1" id="Layer_1" xmlns="http://www.w3.org/2000/svg" xmlns:xlink="http://www.w3.org/1999/xlink" x="0px" y="0px"
	 viewBox="0 0 16 16" style="enable-background:new 0 0 16 16;" xml:space="preserve">
<style type="text/css">
	.st0{fill:none;stroke:#4FBC78;stroke-width:0.9938;stroke-miterlimit:10;}
	.st1{fill:#404040;}
</style>
<title>dbcon</title>
<rect x="1.5" y="1.5" class="st0" width="13" height="12.9"/>
<path class="st1" d="M9,4C7.5,4,5.7,5.2,5,7C4.3,7,3,7,3,7v2h2c0.1,2,2.5,2.9,4,3C9,12,9,4,9,4z"/>
<path class="st1" d="M10,4c0,0,1,0,1,0l0,2c0,0,1.6,0,2,0c0,0.3,0,0.7,0,1h-2v2h2v1c0,0-1.9,0-2,0v2l-1,0L10,4z"/>
</svg>
