<?xml version="1.0" encoding="utf-8"?>
<!-- Generator: Adobe Illustrator 19.2.1, SVG Export Plug-In . SVG Version: 6.00 Build 0)  -->
<svg version="1.0" xmlns="http://www.w3.org/2000/svg" xmlns:xlink="http://www.w3.org/1999/xlink" x="0px" y="0px"
	 viewBox="0 0 16 16" enable-background="new 0 0 16 16" xml:space="preserve">
<g id="Layer_1" display="none">
	
		<image display="inline" overflow="visible" width="250" height="250" xlink:href="google+.png"  transform="matrix(0.19 0 0 0.19 -15.75 -15.75)">
	</image>
</g>
<g id="Layer_2">
	<path fill="#404040" d="M13.5,12c-1.3,1.4-3.3-0.9-4.2-3C8.3,6.7,7.9,2,7.7,1.2C7.6,0.8,7,0.6,7,1.2C6.9,1.7,7,11.4,7,11.4
		s-1.3-0.3-2.9,0.2c-1.4,0.4-2.6,1-2.5,2.2c0.1,1.5,2.2,0.6,2.2,0.6s1.4-0.9,1.8-1.1c1.2-0.6,1.4,0.3,1.4,0.3L7,15
		c0.1,0.2,0.7,0.4,0.8-0.1c0.1-0.6-0.1-2.4-0.1-2.4s1.3,0.7,2.1,1.3c0.8,0.6,1.6,1.1,2.4,1c0.8-0.1,1.5-0.6,2.1-2.6
		C14.5,11.9,14.3,11.2,13.5,12z M6.9,12.6c0,0-0.9-1-3.4,1.1C3,14.1,2.4,14,2.3,13.9c-0.1-0.4,0.2-1.3,3.1-1.7c1.2-0.2,1.5,0,1.5,0
		L6.9,12.6z M13,13.5c-0.2,0.1-0.6,1-2.7-0.4c-1-0.6-1.6-1.3-2.5-1.5V6.1c0,0,1.3,7.5,5.3,7.2C13.1,13.2,13.2,13.4,13,13.5z"/>
	<path fill="#F21C1C" d="M4.5,23.4"/>
	<rect x="0" y="0" fill="none" width="16" height="16"/>
</g>
</svg>
