<?xml version="1.0" encoding="utf-8"?>
<!-- Generator: Adobe Illustrator 19.2.1, SVG Export Plug-In . SVG Version: 6.00 Build 0)  -->
<svg version="1.1" id="_x30_024a8db-83d0-4100-b177-5fe368411a97"
	 xmlns="http://www.w3.org/2000/svg" xmlns:xlink="http://www.w3.org/1999/xlink" x="0px" y="0px" viewBox="0 0 16 16"
	 style="enable-background:new 0 0 16 16;" xml:space="preserve">
<style type="text/css">
	.st0{fill:#404040;}
</style>
<title>debug_view</title>
<path class="st0" d="M14.3,8.7c0-1-0.3-1.9-0.8-2.7V3.5h-0.8v1.4c-0.6-0.6-1.3-1-2.1-1.3V2H9.8v1.5C9.5,3.4,9.3,3.4,9,3.4
	C8.2,3.4,7.4,3.6,6.7,4C6.2,3.6,5.6,3.3,5,3.3c-0.1,0-0.1,0-0.2,0L4.3,1.7L3.7,1.9l0.5,1.6C3.5,3.7,3,4.2,2.8,4.8L1.1,4.6L1,5.2
	l1.7,0.3c0,0.1,0,0.2,0,0.3c0,0.9,0.5,1.7,1.2,2.1c-0.1,0.3-0.1,0.7-0.1,1c0,0.6,0.1,1.2,0.3,1.8l-1.6,0.8l0.4,0.7l1.6-0.8
	c0.5,1,1.5,1.9,2.7,2.3l-1.7,0.8l0.4,0.8L8.6,14c0.1,0,0.3,0,0.4,0c1.6,0,3-0.7,4-1.8c0,0-5-4.3-5-4.2l5.8,2.9
	C14.1,10.2,14.3,9.5,14.3,8.7z"/>
</svg>
