<svg id="0024a8db-83d0-4100-b177-5fe368411a97" data-name="Layer 1" xmlns="http://www.w3.org/2000/svg" viewBox="0 0 16 16"><defs><style>.\37 ae24fc4-0bab-4008-8ca2-1c8a68870f2d{fill:none;}.\39 d71001c-b279-4915-9592-a7fce192e460{fill:#231f20;}</style></defs><title>debug_view</title><rect class="7ae24fc4-0bab-4008-8ca2-1c8a68870f2d" width="16" height="16"/><path class="9d71001c-b279-4915-9592-a7fce192e460" d="M12.73,9.33a4.71,4.71,0,0,0-.33-1.71l1.74-.42-0.8-3.57-0.54.12,0.68,3-1.31.32a4.86,4.86,0,0,0-2-2,2.49,2.49,0,0,0-.36-2.92l0.41-.33V0.53H9.93V1.71L9.59,2A2.5,2.5,0,0,0,6.26,2L5.92,1.71V0.53H5.65V1.85L6.06,2.17A2.49,2.49,0,0,0,5.69,5.1,4.87,4.87,0,0,0,3.77,6.94L2.6,6.66l0.68-3L2.73,3.5,1.93,7.07,3.51,7.45a4.71,4.71,0,0,0-.39,1.89,4.77,4.77,0,0,0,.72,2.5l-1.62.71v3H2.76V12.9l1.4-.61a4.76,4.76,0,0,0,7.61-.1l1.61,0.71v2.66h0.55v-3l-1.86-.82A4.76,4.76,0,0,0,12.73,9.33Z" transform="translate(0)"/></svg>