<?xml version="1.0" encoding="utf-8"?>
<!-- Generator: Adobe Illustrator 19.2.1, SVG Export Plug-In . SVG Version: 6.00 Build 0)  -->
<svg version="1.1" id="_x30_024a8db-83d0-4100-b177-5fe368411a97"
	 xmlns="http://www.w3.org/2000/svg" xmlns:xlink="http://www.w3.org/1999/xlink" x="0px" y="0px" viewBox="0 0 16 16"
	 style="enable-background:new 0 0 16 16;" xml:space="preserve">
<style type="text/css">
	.st0{fill:#404040;}
</style>
<title>debug_view</title>
<circle class="st0" cx="5" cy="5.7" r="2.4"/>
<polyline class="st0" points="10.6,2 10.6,5.8 9.8,5.8 9.8,2 "/>
<rect x="12.7" y="3.5" class="st0" width="0.8" height="3.8"/>
<polyline class="st0" points="5.9,15.3 5.5,14.5 9,12.8 9.3,13.6 5.9,15.3 "/>
<rect x="2.4" y="10.5" transform="matrix(0.8977 -0.4407 0.4407 0.8977 -4.3683 3.0091)" class="st0" width="3.8" height="0.8"/>
<rect x="2.6" y="3.3" transform="matrix(0.1395 -0.9902 0.9902 0.1395 -2.6572 7.2795)" class="st0" width="0.6" height="3.8"/>
<polyline class="st0" points="4.3,1.7 5.4,5.4 4.8,5.6 3.7,1.9 "/>
<path class="st0" d="M8.1,8.1l5.7,2.8c0.3-0.7,0.5-1.4,0.5-2.2c0-2.9-2.4-5.3-5.3-5.3S3.7,5.8,3.7,8.8S6.1,14,9,14
	c1.6,0,3-0.7,4-1.8C13,12.2,8.1,8,8.1,8.1z"/>
</svg>
