<?xml version="1.0" encoding="utf-8"?>
<!-- Generator: Adobe Illustrator 19.2.1, SVG Export Plug-In . SVG Version: 6.00 Build 0)  -->
<svg version="1.0" id="Layer_1" xmlns="http://www.w3.org/2000/svg" xmlns:xlink="http://www.w3.org/1999/xlink" x="0px" y="0px"
	 viewBox="0 0 16 16" enable-background="new 0 0 16 16" xml:space="preserve">
<rect x="1.4" y="2.1" fill="none" stroke="#404040" stroke-miterlimit="10" width="13.2" height="12.3"/>
<g>
	<path fill="#404040" d="M14.5,13.9c-0.6,0.6-0.6,0.6-1.4,0.9c-0.2-0.2-0.6-0.6-0.8-0.8c-0.9-0.8-1.8-1.5-2.7-2.3
		c-0.1-0.1-0.1-0.1-0.2,0c-2.1,1.4-5,0.6-6.2-1.7c-1-2.1-0.2-4.7,2-5.7c2.1-1.1,4.8-0.2,5.8,2c0.5,1.1,0.5,2.1,0.2,3.2
		c0,0.1,0,0.2,0.1,0.2c1.1,1,2.3,2,3.4,2.9C14.6,12.7,14.4,13.8,14.5,13.9z M7.8,10.9c1.6-0.4,2.5-2.1,2.1-3.6
		C9.5,5.8,7.8,4.8,6.3,5.3C4.7,5.7,3.8,7.3,4.2,8.9C4.6,10.5,6.2,11.4,7.8,10.9z"/>
</g>
<rect fill="none" width="16" height="16"/>
<line fill="#404040" stroke="#404040" stroke-miterlimit="10" x1="9.7" y1="6.2" x2="4.1" y2="6.2"/>
<line fill="#404040" stroke="#404040" stroke-miterlimit="10" x1="10.6" y1="8" x2="4.1" y2="8"/>
<line fill="#404040" stroke="#404040" stroke-miterlimit="10" x1="9.9" y1="9.8" x2="4.1" y2="9.8"/>
</svg>
