<?xml version="1.0" encoding="utf-8"?>
<!-- Generator: Adobe Illustrator 19.2.1, SVG Export Plug-In . SVG Version: 6.00 Build 0)  -->
<svg version="1.1" id="Layer_1" xmlns="http://www.w3.org/2000/svg" xmlns:xlink="http://www.w3.org/1999/xlink" x="0px" y="0px"
	 viewBox="0 0 16 16" style="enable-background:new 0 0 16 16;" xml:space="preserve">
<style type="text/css">
	.st0{fill:none;stroke:#404040;stroke-miterlimit:10;}
	.st1{fill:#404040;}
	.st2{fill:none;}
	.st3{fill:none;stroke:#404040;stroke-width:1.0275;stroke-miterlimit:10;}
	.st4{fill:none;stroke:#404040;stroke-width:0.9826;stroke-miterlimit:10;}
</style>
<rect x="1.4" y="2.1" class="st0" width="13.2" height="12.3"/>
<g>
	<path class="st1" d="M13.4,14.9c-0.2-0.2-2.8-2.2-3.6-3c-0.1-0.1-0.1-0.1-0.2,0c-2.1,1.4-5,0.6-6.2-1.7c-1-2.1-0.2-4.7,2-5.7
		c2.1-1.1,4.8-0.2,5.8,2c0.5,1.1,0.5,2.1,0.2,3.2c0,0.1,0,0.2,0.1,0.2c1.1,1,2.4,2,3.5,2.9C14.8,12.9,13.4,15,13.4,14.9z M7.9,11.1
		C9.5,10.7,10.4,9,10,7.5C9.6,6,7.9,5,6.4,5.5c-1.6,0.4-2.5,2-2.1,3.6S6.3,11.6,7.9,11.1z"/>
</g>
<rect class="st2" width="16" height="16"/>
<line class="st3" x1="9.9" y1="6.5" x2="4" y2="6.5"/>
<line class="st4" x1="10.9" y1="8.5" x2="4.1" y2="8.5"/>
<line class="st4" x1="10.8" y1="10.5" x2="4.1" y2="10.5"/>
</svg>
