<?xml version="1.0" encoding="utf-8"?>
<!-- Generator: Adobe Illustrator 20.0.0, SVG Export Plug-In . SVG Version: 6.00 Build 0)  -->
<svg version="1.1" id="Layer_1" xmlns="http://www.w3.org/2000/svg" xmlns:xlink="http://www.w3.org/1999/xlink" x="0px" y="0px"
	 viewBox="0 0 16 16" style="enable-background:new 0 0 16 16;" xml:space="preserve">
<style type="text/css">
	.st0{fill:#404040;}
	.st1{fill:#4FBC78;}
</style>
<title>drive</title>
<path class="st0" d="M1.1,4.1v8.4l0-1.8l1.5-2.5l3.7,0.1l1.5,4.2h7.2V4.1H1.1z M5,5.6h1.5v1H5V5.6z M2.1,5.6h1.5v1H2.1V5.6z
	 M13.9,9.6l-8.5,0l0-1.4l8.6,0L13.9,9.6z"/>
<path class="st1" d="M4.1,7c-2.2,0-4,1.8-4,4s1.8,4,4,4s4-1.8,4-4S6.3,7,4.1,7z M4.1,14.2l-2.6-3.3h1.4V8.8h2.4v2.1h1.4L4.1,14.2z"
	/>
</svg>
