<?xml version="1.0" encoding="utf-8"?>
<!-- Generator: Adobe Illustrator 19.2.1, SVG Export Plug-In . SVG Version: 6.00 Build 0)  -->
<svg version="1.1" id="Layer_1" xmlns="http://www.w3.org/2000/svg" xmlns:xlink="http://www.w3.org/1999/xlink" x="0px" y="0px"
	 viewBox="0 0 16 16" style="enable-background:new 0 0 16 16;" xml:space="preserve">
<style type="text/css">
	.st0{fill:#404040;}
	.st1{fill:none;}
	.st2{fill:#4FBC78;}
</style>
<title>drive</title>
<path class="st0" d="M1,3v7h1V8h2h3l1,1v2h7V3H1z M5,4h1v1H5V4z M2,4h1v1H2V4z M13,8H2V7h12L13,8z"/>
<rect class="st1" width="16" height="16"/>
<path class="st2" d="M4,7c-2.3,0-4,1.9-4,4s1.7,4,4,4s4-1.9,4-4S6.3,7,4,7z M7,12H5v2H3v-2H1l-0.2-2H3V8h2v2h2v1V12z"/>
</svg>
