<?xml version="1.0" encoding="utf-8"?>
<!-- Generator: Adobe Illustrator 19.2.1, SVG Export Plug-In . SVG Version: 6.00 Build 0)  -->
<svg version="1.0" id="Layer_1" xmlns="http://www.w3.org/2000/svg" xmlns:xlink="http://www.w3.org/1999/xlink" x="0px" y="0px"
	 viewBox="0 0 16 16" style="enable-background:new 0 0 16 16;" xml:space="preserve">
<style type="text/css">
	.st0{fill:#404040;}
	.st1{fill:#FF6F6F;}
	.st2{fill:none;}
</style>
<title>drive</title>
<path class="st0" d="M1.1,2.9v8.4h1.1v-0.8h1.6V8.9h1.4v1.6h1.6v0.8h8.1V2.9H1.1z M5,4.4h1.5v1H5V4.4z M2.1,4.4h1.5v1H2.1V4.4z
	 M13.9,8.3H2.1V6.9h11.8V8.3z"/>
<path class="st1" d="M4.5,7.8c1.9,0,3.4,1.5,3.4,3.4s-1.5,3.4-3.4,3.4s-3.4-1.5-3.4-3.4C1.1,9.3,2.6,7.8,4.5,7.8z M2.2,10.5v1.3h4.5
	v-1.3H2.2z"/>
<rect class="st2" width="16" height="16"/>
</svg>
