<?xml version="1.0" encoding="utf-8"?>
<!-- Generator: Adobe Illustrator 19.2.1, SVG Export Plug-In . SVG Version: 6.00 Build 0)  -->
<svg version="1.1" id="Layer_1" xmlns="http://www.w3.org/2000/svg" xmlns:xlink="http://www.w3.org/1999/xlink" x="0px" y="0px"
	 viewBox="0 0 16 16" style="enable-background:new 0 0 16 16;" xml:space="preserve">
<style type="text/css">
	.st0{fill:#404040;}
	.st1{fill:#4FBC78;}
</style>
<title>drive</title>
<path class="st0" d="M1.1,4.1v8.4h1.6v-1.3L4.5,10l3.2,2.5h7.2V4.1H1.1z M5,5.6h1.5v1H5V5.6z M2.1,5.6h1.5v1H2.1V5.6z M13.9,9.5H2.1
	V8.1h11.8V9.5z"/>
<path class="st1" d="M1.2,12.2c0,1.9,1.5,3.4,3.4,3.4S8,14.1,8,12.2S6.5,8.8,4.6,8.8S1.2,10.3,1.2,12.2z M7.3,12.2l-2.8,2.2v-1.2
	H2.7v-2h1.8V10L7.3,12.2z"/>
</svg>
