<?xml version="1.0" encoding="utf-8"?>
<!-- Generator: Adobe Illustrator 19.2.1, SVG Export Plug-In . SVG Version: 6.00 Build 0)  -->
<svg version="1.0" id="Layer_1" xmlns="http://www.w3.org/2000/svg" xmlns:xlink="http://www.w3.org/1999/xlink" x="0px" y="0px"
	 viewBox="0 0 16 16" style="enable-background:new 0 0 16 16;" xml:space="preserve">
<style type="text/css">
	.st0{fill:#404040;}
	.st1{fill:none;}
	.st2{fill:#4FBC78;}
</style>
<title>drive</title>
<path class="st0" d="M1.1,2.9v8.4h1.1v-0.8L4,8.3l1,0l1.8,2.2v0.8h8.1V2.9H1.1z M5,4.4h1.5v1H5V4.4z M2.1,4.4h1.5v1H2.1V4.4z
	 M13.9,8.3H2.1V6.9h11.8V8.3z"/>
<rect class="st1" width="16" height="16"/>
<path class="st2" d="M4.5,7.7c-1.9,0-3.4,1.5-3.4,3.4s1.5,3.4,3.4,3.4s3.4-1.5,3.4-3.4S6.4,7.7,4.5,7.7z M4.5,13.8L2.3,11h1.2V9.2h2
	V11h1.2L4.5,13.8z"/>
</svg>
