<?xml version="1.0" encoding="utf-8"?>
<!-- Generator: Adobe Illustrator 20.1.0, SVG Export Plug-In . SVG Version: 6.00 Build 0)  -->
<svg version="1.1" id="Layer_2" xmlns="http://www.w3.org/2000/svg" xmlns:xlink="http://www.w3.org/1999/xlink" x="0px" y="0px"
	 viewBox="0 0 16 16" style="enable-background:new 0 0 16 16;" xml:space="preserve">
<style type="text/css">
	.st0{fill:#FF6F6F;}
</style>
<title>drop-no</title>
<g>
	<path class="st0" d="M8,0C3.6,0,0,3.6,0,8c0,4.4,3.6,8,8,8c4.4,0,8-3.6,8-8C16,3.6,12.4,0,8,0L8,0z M2.9,11.1C2.4,10.2,2,9.2,2,8
		c0-3.3,2.7-6,6-6c1.2,0,2.2,0.3,3.1,0.9L2.9,11.1L2.9,11.1z M8,14c-1.2,0-2.2-0.3-3.2-0.9L13,4.8C13.6,5.8,14,6.8,14,8
		C14,11.3,11.3,14,8,14L8,14z"/>
</g>
</svg>
