<?xml version="1.0" encoding="utf-8"?>
<!-- Generator: Adobe Illustrator 20.1.0, SVG Export Plug-In . SVG Version: 6.00 Build 0)  -->
<svg version="1.1" id="Layer_1" xmlns="http://www.w3.org/2000/svg" xmlns:xlink="http://www.w3.org/1999/xlink" x="0px" y="0px"
	 viewBox="0 0 16 16" style="enable-background:new 0 0 16 16;" xml:space="preserve">
<style type="text/css">
	.st0{fill:#F7A808;}
	.st1{fill:#404040;}
	.st2{fill:#3FA9F5;}
</style>
<polygon class="st0" points="7,2 7,1 5,1 5,2 5,5 11,5 11,2 "/>
<polygon class="st0" points="7,7 7,6 5,6 5,7 5,7 5,10 11,10 11,7 "/>
<polygon class="st1" points="3,15 2,15 2,13.1 3,13.1 "/>
<polygon class="st1" points="3,11 2,11 2,9 3,9 "/>
<rect x="2" y="5" class="st1" width="1" height="2"/>
<rect x="2" y="1" class="st1" width="1" height="2"/>
<polygon class="st2" points="15,14 15,7 13,7 13,12 10,12 10,10 7,13 10,16 10,14 12,14 "/>
</svg>
