<?xml version="1.0" encoding="utf-8"?>
<!-- Generator: Adobe Illustrator 20.1.0, SVG Export Plug-In . SVG Version: 6.00 Build 0)  -->
<svg version="1.1" id="Layer_1" xmlns="http://www.w3.org/2000/svg" xmlns:xlink="http://www.w3.org/1999/xlink" x="0px" y="0px"
	 viewBox="0 0 16 16" style="enable-background:new 0 0 16 16;" xml:space="preserve">
<style type="text/css">
	.st0{fill:#F7A808;}
	.st1{fill:#404040;}
	.st2{fill:#3FA9F5;}
</style>
<polygon class="st0" points="7,7 7,6 5,6 5,7 5,10 11,10 11,7 "/>
<polygon class="st0" points="7,12 7,11 5,11 5,12 5,12 5,15 11,15 11,12 "/>
<polygon class="st1" points="3,2.9 2,2.9 2,1 3,1 "/>
<polygon class="st1" points="3,7 2,7 2,5 3,5 "/>
<rect x="2" y="9" class="st1" width="1" height="2"/>
<rect x="2" y="13" class="st1" width="1" height="2"/>
<polygon class="st2" points="12,2 10,2 10,0 7,3 10,6 10,4 13,4 13,9 15,9 15,2 "/>
</svg>
