<?xml version="1.0" encoding="utf-8"?>
<!-- Generator: Adobe Illustrator 20.1.0, SVG Export Plug-In . SVG Version: 6.00 Build 0)  -->
<svg version="1.1" id="Layer_1" xmlns="http://www.w3.org/2000/svg" xmlns:xlink="http://www.w3.org/1999/xlink" x="0px" y="0px"
	 viewBox="0 0 25 25" style="enable-background:new 0 0 25 25;" xml:space="preserve">
<style type="text/css">
	.st0{fill:#F7A808;}
	.st1{fill:#404040;}
	.st2{fill:#3FA9F5;}
</style>
<polygon class="st0" points="10,8 10,7 7,7 7,8.5 7,13 16,13 16,8 "/>
<polygon class="st0" points="10,18 10,17 7,17 7,18 7,18.8 7,23 16,23 16,18 "/>
<polygon class="st1" points="4,17.9 2,17.9 2,14 4,14 "/>
<polygon class="st1" points="4,12 2,12 2,8 4,8 "/>
<rect x="2" y="2" class="st1" width="2" height="4"/>
<polygon class="st2" points="21,3 16,3 16,1 12,4 16,7 16,5 21,5 21,23 23,23 23,3 "/>
<polygon class="st1" points="4,23 2,23 2,20.1 4,20.1 "/>
</svg>
