<?xml version="1.0" encoding="utf-8"?>
<!-- Generator: Adobe Illustrator 20.1.0, SVG Export Plug-In . SVG Version: 6.00 Build 0)  -->
<svg version="1.1" id="_x30_45a5269-abf2-445d-bb58-b750fc605bcc"
	 xmlns="http://www.w3.org/2000/svg" xmlns:xlink="http://www.w3.org/1999/xlink" x="0px" y="0px" viewBox="0 0 25 25"
	 style="enable-background:new 0 0 25 25;" xml:space="preserve">
<style type="text/css">
	.st0{fill:#FFFFFF;}
	.st1{fill:none;}
	.st2{fill:#4FBC78;}
</style>
<polygon class="st0" points="13,11.4 11,11.4 11,13.4 9,13.4 9,11.4 7,11.4 7,9.4 9,9.4 9,7.4 11,7.4 11,9.4 13,9.4 "/>
<title>add</title>
<rect x="4.3" y="4.6" class="st1" width="13" height="13"/>
<g>
	<path class="st2" d="M12.5,4.1c4.7,0,8.4,3.7,8.4,8.5c0,4.7-3.7,8.4-8.4,8.4c-4.8,0-8.4-3.6-8.4-8.4C4.1,7.9,7.9,4.1,12.5,4.1
		 M12.5,2.1C6.7,2.1,2.1,6.8,2.1,12.6S6.6,23,12.5,23s10.4-4.7,10.4-10.4C22.9,6.7,18.3,2.1,12.5,2.1L12.5,2.1z"/>
</g>
<polygon class="st2" points="18,14 14,14 14,18 11,18 11,14 7,14 7,11 11,11 11,7 14,7 14,11 18,11 "/>
</svg>
