<?xml version="1.0" encoding="utf-8"?>
<!-- Generator: Adobe Illustrator 19.2.1, SVG Export Plug-In . SVG Version: 6.00 Build 0)  -->
<svg version="1.0" id="Layer_1" xmlns="http://www.w3.org/2000/svg" xmlns:xlink="http://www.w3.org/1999/xlink" x="0px" y="0px"
	 viewBox="0 0 16 16" style="enable-background:new 0 0 16 16;" xml:space="preserve">
<style type="text/css">
	.st0{fill:#404040;}
</style>
<g>
	<path class="st0" d="M4.8,9.8H2.6c0.3,1,0.8,1.9,1.6,2.6c1.3,1.2,2.8,1.9,4.5,1.9c0.4,0,0.7,0,1-0.1c1.3-0.2,2.5-0.8,3.5-1.8
		c0.8-0.8,1.3-1.7,1.6-2.6H14h-1.3H4.8L4.8,9.8z"/>
	<path class="st0" d="M3.6,6.9H2.5c0,0.2-0.1,0.5-0.1,0.8h1.4h0.7h9.8h0.9c0-0.3,0-0.5-0.1-0.8"/>
	<path class="st0" d="M2.4,8.4c0,0.3,0,0.5,0.1,0.8h1.2h0.9h9.6h0.9c0-0.2,0.1-0.5,0.1-0.8"/>
	<path class="st0" d="M14.9,6.2c-0.3-1-0.8-1.9-1.6-2.7c-1-1-2.2-1.6-3.5-1.8c-0.3-0.1-0.7-0.1-1-0.1C7,1.7,5.5,2.3,4.2,3.5
		C3.5,4.3,2.9,5.2,2.6,6.2"/>
	<path class="st0" d="M2,8c0-3.3,2.5-6.1,5.8-6.6c-0.1,0-0.2,0-0.2,0c-3.7,0-6.7,3-6.7,6.6c0,3.6,3,6.6,6.7,6.6c0.1,0,0.2,0,0.2,0
		C4.5,14.1,2,11.3,2,8L2,8z"/>
</g>
</svg>
