<?xml version="1.0" encoding="utf-8"?>
<!-- Generator: Adobe Illustrator 19.2.1, SVG Export Plug-In . SVG Version: 6.00 Build 0)  -->
<svg version="1.1" id="Layer_1" xmlns="http://www.w3.org/2000/svg" xmlns:xlink="http://www.w3.org/1999/xlink" x="0px" y="0px"
	 viewBox="0 0 16 16" style="enable-background:new 0 0 16 16;" xml:space="preserve">
<style type="text/css">
	.st0{fill:none;}
	.st1{fill:#404040;}
</style>
<title>page_edit</title>
<rect class="st0" width="16" height="16"/>
<rect x="5.9" y="7.1" transform="matrix(0.6863 -0.7274 0.7274 0.6863 -3.4057 8.3006)" class="st1" width="4" height="2"/>
<polygon class="st1" points="5.1,11.1 5.5,9.2 7,10.5 "/>
<rect x="9.4" y="4.9" transform="matrix(0.6863 -0.7274 0.7274 0.6863 -1.1755 9.0655)" class="st1" width="1.1" height="2"/>
<path class="st1" d="M14.7,5.5h-3.1l0-4h0.9L14.7,5.5z"/>
<g>
	<path class="st1" d="M11.6,3l1.6,2.5l-0.1,7.7l-10,0L3.2,3L11.6,3 M12.5,1.5l-10.8,0l0,13.2l13,0l0.1-9.7L12.5,1.5L12.5,1.5z"/>
</g>
</svg>
