<?xml version="1.0" encoding="utf-8"?>
<!-- Generator: Adobe Illustrator 20.0.0, SVG Export Plug-In . SVG Version: 6.00 Build 0)  -->
<svg version="1.1" id="Layer_1" xmlns="http://www.w3.org/2000/svg" xmlns:xlink="http://www.w3.org/1999/xlink" x="0px" y="0px"
	 viewBox="0 0 16 16" style="enable-background:new 0 0 16 16;" xml:space="preserve">
<style type="text/css">
	.st0{fill:#404040;}
	.st1{fill:#F7A808;}
</style>
<polygon class="st0" points="15,11 13,11 13,10 14,10 14,3 2,3 2,10 8,10 8,11 1,11 1,2 15,2 "/>
<path class="st1" d="M10.8,8.3c-1.9,0-3.4,1.5-3.4,3.4s1.6,3.4,3.4,3.4c1.9,0,3.4-1.5,3.4-3.4S12.7,8.3,10.8,8.3z M12.4,13.9
	l-1.6-0.8l-1.5,0.8l0.3-1.7L8.3,11l1.7-0.3l0.7-1.6l0.8,1.5l1.7,0.2l-1.1,1.4L12.4,13.9z"/>
</svg>
