<?xml version="1.0" encoding="utf-8"?>
<!-- Generator: Adobe Illustrator 20.0.0, SVG Export Plug-In . SVG Version: 6.00 Build 0)  -->
<svg version="1.1" id="Layer_1" xmlns="http://www.w3.org/2000/svg" xmlns:xlink="http://www.w3.org/1999/xlink" x="0px" y="0px"
	 viewBox="0 0 16 16" style="enable-background:new 0 0 16 16;" xml:space="preserve">
<style type="text/css">
	.st0{fill:#404040;}
	.st1{fill:#F7A808;}
</style>
<g>
	<polygon class="st0" points="14,12 7,12 7,11 13,11 13,4 8,4 8,3 14,3 	"/>
	<polygon class="st0" points="7,12 1,12 1,4 2,4 2,4.8 2,5 2,11 7,11 	"/>
</g>
<path class="st1" d="M15,10.1l-3.1,0.4l0.7,0.6c0,0-0.2,2.1-4.4,2.6c0,0,3.4,1.8,6-1.3L15,13L15,10.1z"/>
<path class="st1" d="M5.1,1.2c-1.9,0-3.4,1.5-3.4,3.4S3.3,8,5.1,8C7,8,8.5,6.5,8.5,4.6S7,1.2,5.1,1.2z M6.7,6.8L5.1,6L3.6,6.8
	l0.3-1.7L2.6,3.9l1.7-0.3L5,2l0.8,1.5l1.7,0.2L6.4,5.1L6.7,6.8z"/>
</svg>
