<?xml version="1.0" encoding="utf-8"?>
<!-- Generator: Adobe Illustrator 20.0.0, SVG Export Plug-In . SVG Version: 6.00 Build 0)  -->
<svg version="1.1" id="Layer_1" xmlns="http://www.w3.org/2000/svg" xmlns:xlink="http://www.w3.org/1999/xlink" x="0px" y="0px"
	 viewBox="0 0 16 16" style="enable-background:new 0 0 16 16;" xml:space="preserve">
<style type="text/css">
	.st0{fill:#404040;}
	.st1{fill:#F7A808;}
</style>
<polygon class="st0" points="9.7,12 2,12 2,3 15,3 15,12 14.1,12 14,4 3,4 3,11 9.8,11 "/>
<path class="st1" d="M1,11.4l0.7-0.1c1.3,3.8,5.1,3.4,5.1,3.4C3.3,12.6,3,11,3,11l0.9-0.2l-1.6-2L1,11.4z"/>
<path class="st1" d="M8,10.7c0,1.9,1.5,3.4,3.4,3.4c1.8,0,3.4-1.5,3.4-3.4s-1.5-3.4-3.4-3.4S8,8.8,8,10.7z M10.1,11.2L9,9.8l1.7-0.2
	l0.8-1.5l0.7,1.6l1.7,0.3l-1.3,1.2l0.3,1.7l-1.5-0.8l-1.6,0.8L10.1,11.2z"/>
</svg>
