<?xml version="1.0" encoding="utf-8"?>
<!-- Generator: Adobe Illustrator 19.2.1, SVG Export Plug-In . SVG Version: 6.00 Build 0)  -->
<svg version="1.0" id="Layer_1" xmlns="http://www.w3.org/2000/svg" xmlns:xlink="http://www.w3.org/1999/xlink" x="0px" y="0px"
	 viewBox="0 0 16 16" style="enable-background:new 0 0 16 16;" xml:space="preserve">
<style type="text/css">
	.st0{fill:none;stroke:#404040;stroke-width:1.5;stroke-miterlimit:10;}
	.st1{fill:#F7A808;}
</style>
<polyline class="st0" points="7.5,4.3 12,4.3 12,10.6 1.8,10.6 1.8,4.3 2.3,4.3 "/>
<path class="st1" d="M15,10.1l-3.1,0.4l0.7,0.6c0,0-0.2,2.1-4.4,2.6c0,0,3.4,1.8,6-1.3l0.8,0.6L15,10.1z"/>
<path class="st1" d="M5.1,1.2c-1.9,0-3.4,1.5-3.4,3.4S3.3,8,5.1,8C7,8,8.5,6.5,8.5,4.6S7,1.2,5.1,1.2z M6.7,6.8L5.1,6L3.6,6.8
	l0.3-1.7L2.6,3.9l1.7-0.3l0.7-1.6l0.8,1.5l1.7,0.2L6.4,5.1L6.7,6.8z"/>
</svg>
