<?xml version="1.0" encoding="utf-8"?>
<!-- Generator: Adobe Illustrator 19.2.1, SVG Export Plug-In . SVG Version: 6.00 Build 0)  -->
<svg version="1.0" id="Layer_1" xmlns="http://www.w3.org/2000/svg" xmlns:xlink="http://www.w3.org/1999/xlink" x="0px" y="0px"
	 viewBox="0 0 16 16" style="enable-background:new 0 0 16 16;" xml:space="preserve">
<style type="text/css">
	.st0{fill:none;stroke:#404040;stroke-width:1.5;stroke-miterlimit:10;}
	.st1{fill:#F7A808;}
</style>
<polyline class="st0" points="13.4,4.3 13.9,4.3 13.9,10.6 3.7,10.6 3.7,4.3 8.2,4.3 "/>
<path class="st1" d="M0.8,13l0.8-0.6c2.6,3.1,6,1.3,6,1.3c-4.2-0.5-4.4-2.6-4.4-2.6l0.7-0.6l-3.1-0.4L0.8,13z"/>
<path class="st1" d="M7.2,4.6C7.2,6.5,8.7,8,10.6,8C12.4,8,14,6.5,14,4.6s-1.5-3.4-3.4-3.4S7.2,2.7,7.2,4.6z M9.3,5.1L8.2,3.7
	l1.7-0.2L10.7,2l0.7,1.6l1.7,0.3l-1.3,1.2l0.3,1.7L10.6,6L9,6.8L9.3,5.1z"/>
</svg>
