<?xml version="1.0" encoding="utf-8"?>
<!-- Generator: Adobe Illustrator 19.2.1, SVG Export Plug-In . SVG Version: 6.00 Build 0)  -->
<svg version="1.0" id="Layer_1" xmlns="http://www.w3.org/2000/svg" xmlns:xlink="http://www.w3.org/1999/xlink" x="0px" y="0px"
	 viewBox="0 0 16 16" style="enable-background:new 0 0 16 16;" xml:space="preserve">
<style type="text/css">
	.st0{fill:#3FA9F5;}
	.st1{fill:none;stroke:#3FA9F5;stroke-miterlimit:10;}
	.st2{fill:none;stroke:#3FA9F5;stroke-miterlimit:10;stroke-dasharray:0.8,0.8;}
	.st3{fill:none;stroke:#3FA9F5;stroke-miterlimit:10;stroke-dasharray:0.6667,0.6667;}
</style>
<rect x="7" y="9" class="st0" width="8" height="6"/>
<g>
	<g>
		<g>
			<polyline class="st1" points="8.5,6 8.5,6.5 8,6.5 			"/>
		</g>
		<g>
			<g>
				<line class="st1" x1="7" y1="6.5" x2="6.5" y2="6.5"/>
				<line class="st2" x1="5.7" y1="6.5" x2="2.9" y2="6.5"/>
				<line class="st1" x1="2.5" y1="6.5" x2="2" y2="6.5"/>
			</g>
		</g>
		<g>
			<polyline class="st1" points="2,6.5 1.5,6.5 1.5,6 			"/>
		</g>
		<g>
			<g>
				<line class="st1" x1="1.5" y1="5" x2="1.5" y2="4.5"/>
				<line class="st3" x1="1.5" y1="3.8" x2="1.5" y2="2.8"/>
				<line class="st1" x1="1.5" y1="2.5" x2="1.5" y2="2"/>
			</g>
		</g>
		<g>
			<polyline class="st1" points="1.5,2 1.5,1.5 2,1.5 			"/>
		</g>
		<g>
			<g>
				<line class="st1" x1="3" y1="1.5" x2="3.5" y2="1.5"/>
				<line class="st2" x1="4.3" y1="1.5" x2="7.1" y2="1.5"/>
				<line class="st1" x1="7.5" y1="1.5" x2="8" y2="1.5"/>
			</g>
		</g>
		<g>
			<polyline class="st1" points="8,1.5 8.5,1.5 8.5,2 			"/>
		</g>
		<g>
			<g>
				<line class="st1" x1="8.5" y1="3" x2="8.5" y2="3.5"/>
				<line class="st3" x1="8.5" y1="4.2" x2="8.5" y2="5.2"/>
				<line class="st1" x1="8.5" y1="5.5" x2="8.5" y2="6"/>
			</g>
		</g>
	</g>
</g>
</svg>
