<?xml version="1.0" standalone="no"?><!DOCTYPE svg PUBLIC "-//W3C//DTD SVG 1.1//EN" "http://www.w3.org/Graphics/SVG/1.1/DTD/svg11.dtd"><svg width="100%" height="100%" viewBox="0 0 16 16" version="1.1" xmlns="http://www.w3.org/2000/svg" xmlns:xlink="http://www.w3.org/1999/xlink" xml:space="preserve" style="fill-rule:evenodd;clip-rule:evenodd;stroke-linecap:round;stroke-linejoin:round;stroke-miterlimit:1.41421;"><g id="Layer 2"><path d="M9.826,13.549c0,0 0,1.724 -1.725,1.724c-1.723,0 -1.723,-1.724 -1.723,-1.724l3.448,0Z" style="fill:#404040;fill-rule:nonzero;"/><path d="M8.174,2.203l0.074,0.002l0.074,0.004l0.075,0.004l0.148,0.012l0.074,0.008l0.073,0.009l0.074,0.01l0.074,0.011l0.073,0.013l0.074,0.014l0.073,0.014l0.073,0.016l0.072,0.017l0.073,0.019l0.072,0.019l0.144,0.042l0.072,0.023l0.071,0.024l0.071,0.025l0.142,0.054l0.07,0.029l0.07,0.03l0.069,0.031l0.069,0.032l0.069,0.034l0.068,0.034l0.068,0.036l0.068,0.037l0.067,0.038l0.067,0.04l0.066,0.04l0.066,0.042l0.066,0.043l0.065,0.044l0.064,0.045l0.064,0.046l0.126,0.096l0.063,0.05l0.061,0.052l0.062,0.052l0.06,0.053l0.06,0.055l0.06,0.056l0.059,0.057l0.058,0.058l0.058,0.06l0.056,0.06l0.057,0.062l0.055,0.063l0.055,0.065l0.054,0.065l0.054,0.067l0.053,0.068l0.052,0.069l0.051,0.07l0.05,0.071l0.05,0.073l0.051,0.078l0.049,0.081l0.048,0.083l0.046,0.086l0.044,0.088l0.043,0.09l0.041,0.092l0.039,0.095l0.039,0.096l0.036,0.098l0.036,0.101l0.034,0.102l0.032,0.103l0.032,0.106l0.03,0.107l0.028,0.108l0.028,0.109l0.026,0.111l0.026,0.113l0.024,0.113l0.023,0.114l0.042,0.232l0.02,0.117l0.019,0.118l0.018,0.118l0.017,0.119l0.016,0.12l0.016,0.119l0.014,0.121l0.014,0.12l0.013,0.121l0.024,0.241l0.022,0.242l0.019,0.24l0.017,0.239l0.015,0.237l0.013,0.234l0.012,0.23l0.011,0.227l0.02,0.437l0.019,0.414l0.01,0.197l0.01,0.188l0.01,0.18l0.012,0.171l0.005,0.066l0.006,0.063l0.007,0.061l0.007,0.059l0.007,0.057l0.008,0.055l0.009,0.052l0.009,0.051l0.01,0.049l0.009,0.047l0.021,0.088l0.022,0.081l0.022,0.074l0.023,0.068l0.023,0.063l0.024,0.057l0.022,0.051l0.022,0.047l0.022,0.043l0.038,0.074l0.015,0.028l0.032,0.054l0.017,0.027l0.035,0.051l0.038,0.049l0.039,0.048l0.042,0.045l0.043,0.044l0.045,0.043l0.046,0.041l0.048,0.039l0.049,0.039l0.051,0.037l0.051,0.035l0.052,0.035l0.053,0.034l0.054,0.033l0.055,0.032l0.055,0.031l0.111,0.061l0.112,0.058l0.111,0.058l0.111,0.056l0.108,0.057l0.105,0.058l0.051,0.029l0.05,0.03l0.016,0.01l0.013,0.011l0.01,0.01l0.008,0.01l0.005,0.01l0.004,0.01l0.001,0.01l0,0.01l-0.003,0.01l-0.004,0.009l-0.005,0.009l-0.006,0.009l-0.008,0.009l-0.009,0.008l-0.019,0.016l-0.022,0.015l-0.023,0.013l-0.023,0.012l-0.021,0.009l-0.033,0.014l-0.013,0.005l-13.656,0l-0.056,-0.001l-0.052,-0.001l-0.048,-0.003l-0.044,-0.004l-0.041,-0.005l-0.037,-0.006l-0.034,-0.007l-0.031,-0.007l-0.028,-0.008l-0.025,-0.009l-0.023,-0.009l-0.019,-0.009l-0.018,-0.01l-0.015,-0.01l-0.013,-0.01l-0.011,-0.01l-0.009,-0.011l-0.008,-0.01l-0.006,-0.01l-0.005,-0.01l-0.003,-0.009l-0.003,-0.009l-0.001,-0.009l-0.001,-0.008l0,-0.014l0.002,-0.011l0.003,-0.009l0.055,-0.025l0.064,-0.03l0.083,-0.04l0.101,-0.051l0.113,-0.06l0.061,-0.033l0.063,-0.035l0.065,-0.037l0.066,-0.039l0.067,-0.041l0.068,-0.042l0.067,-0.044l0.068,-0.046l0.066,-0.047l0.066,-0.048l0.064,-0.049l0.062,-0.051l0.06,-0.052l0.057,-0.052l0.054,-0.054l0.026,-0.027l0.024,-0.027l0.024,-0.027l0.023,-0.027l0.022,-0.028l0.02,-0.028l0.02,-0.028l0.018,-0.028l0.017,-0.028l0.015,-0.028l0.038,-0.074l0.021,-0.043l0.022,-0.047l0.023,-0.051l0.023,-0.057l0.023,-0.063l0.023,-0.068l0.022,-0.074l0.022,-0.081l0.021,-0.088l0.009,-0.047l0.01,-0.049l0.009,-0.051l0.009,-0.052l0.008,-0.055l0.007,-0.057l0.007,-0.059l0.007,-0.061l0.006,-0.063l0.005,-0.066l0.011,-0.17l0.009,-0.179l0.008,-0.186l0.006,-0.193l0.005,-0.2l0.004,-0.206l0.008,-0.426l0.008,-0.444l0.006,-0.227l0.006,-0.229l0.009,-0.231l0.01,-0.232l0.012,-0.234l0.014,-0.233l0.009,-0.117l0.009,-0.116l0.009,-0.117l0.011,-0.115l0.012,-0.116l0.012,-0.115l0.013,-0.115l0.015,-0.114l0.015,-0.113l0.017,-0.113l0.017,-0.112l0.019,-0.111l0.02,-0.11l0.021,-0.109l0.022,-0.108l0.024,-0.107l0.025,-0.105l0.026,-0.104l0.028,-0.103l0.029,-0.102l0.031,-0.1l0.032,-0.098l0.034,-0.097l0.035,-0.095l0.037,-0.093l0.039,-0.091l0.041,-0.09l0.042,-0.087l0.044,-0.085l0.046,-0.083l0.048,-0.081l0.05,-0.079l0.048,-0.073l0.05,-0.071l0.05,-0.071l0.051,-0.069l0.051,-0.069l0.053,-0.067l0.053,-0.066l0.054,-0.065l0.054,-0.064l0.055,-0.063l0.056,-0.062l0.057,-0.061l0.057,-0.059l0.058,-0.059l0.058,-0.057l0.06,-0.057l0.059,-0.055l0.061,-0.054l0.061,-0.053l0.061,-0.052l0.062,-0.051l0.063,-0.05l0.063,-0.048l0.064,-0.048l0.064,-0.046l0.064,-0.046l0.066,-0.044l0.065,-0.043l0.066,-0.042l0.067,-0.041l0.067,-0.04l0.067,-0.038l0.068,-0.038l0.068,-0.036l0.069,-0.035l0.069,-0.035l0.069,-0.033l0.07,-0.032l0.07,-0.03l0.07,-0.03l0.071,-0.029l0.071,-0.027l0.071,-0.026l0.071,-0.026l0.072,-0.024l0.072,-0.023l0.072,-0.021l0.073,-0.021l0.072,-0.02l0.073,-0.018l0.073,-0.017l0.074,-0.017l0.073,-0.015l0.073,-0.014l0.074,-0.012l0.074,-0.012l0.074,-0.01l0.074,-0.01l0.074,-0.008l0.074,-0.007l0.074,-0.006l0.074,-0.005l0.075,-0.003l0.074,-0.003l0.074,-0.001l0.075,-0.001l0.074,0.001ZM8.036,3.203l-0.059,0.001l-0.059,0.002l-0.059,0.003l-0.059,0.003l-0.059,0.005l-0.059,0.006l-0.058,0.006l-0.059,0.008l-0.059,0.008l-0.059,0.009l-0.058,0.01l-0.059,0.011l-0.058,0.012l-0.059,0.013l-0.058,0.014l-0.058,0.015l-0.058,0.015l-0.058,0.017l-0.057,0.017l-0.058,0.019l-0.057,0.019l-0.057,0.02l-0.057,0.021l-0.057,0.022l-0.057,0.023l-0.056,0.024l-0.056,0.025l-0.056,0.025l-0.056,0.027l-0.055,0.027l-0.055,0.029l-0.055,0.029l-0.055,0.03l-0.054,0.031l-0.054,0.032l-0.054,0.033l-0.053,0.034l-0.053,0.035l-0.053,0.036l-0.052,0.036l-0.052,0.038l-0.052,0.038l-0.051,0.04l-0.051,0.04l-0.05,0.042l-0.05,0.042l-0.05,0.043l-0.049,0.044l-0.049,0.045l-0.048,0.046l-0.048,0.047l-0.048,0.048l-0.047,0.049l-0.046,0.05l-0.046,0.051l-0.045,0.052l-0.045,0.052l-0.045,0.054l-0.044,0.055l-0.043,0.056l-0.043,0.056l-0.042,0.058l-0.042,0.059l-0.041,0.059l-0.038,0.057l-0.035,0.056l-0.033,0.056l-0.032,0.058l-0.032,0.061l-0.031,0.064l-0.03,0.067l-0.03,0.07l-0.029,0.072l-0.028,0.075l-0.027,0.078l-0.026,0.08l-0.026,0.082l-0.024,0.085l-0.024,0.087l-0.022,0.089l-0.022,0.091l-0.02,0.093l-0.02,0.095l-0.018,0.097l-0.018,0.098l-0.017,0.099l-0.016,0.102l-0.015,0.102l-0.014,0.104l-0.013,0.104l-0.012,0.106l-0.012,0.107l-0.01,0.108l-0.01,0.108l-0.01,0.11l-0.008,0.11l-0.008,0.109l-0.014,0.224l-0.012,0.223l-0.009,0.224l-0.008,0.224l-0.007,0.224l-0.005,0.222l-0.008,0.44l-0.008,0.428l-0.004,0.209l-0.006,0.205l-0.006,0.201l-0.008,0.196l-0.01,0.191l-0.012,0.184l-0.006,0.079l-0.007,0.077l-0.008,0.075l-0.009,0.072l-0.009,0.071l-0.01,0.069l-0.011,0.067l-0.012,0.065l-0.012,0.064l-0.014,0.065l-0.027,0.115l-0.03,0.111l-0.031,0.105l-0.033,0.098l-0.034,0.091l-0.034,0.083l-0.033,0.076l-0.031,0.067l-0.027,0.055l9.288,0l-0.026,-0.053l-0.032,-0.068l-0.034,-0.076l-0.034,-0.083l-0.033,-0.091l-0.033,-0.098l-0.032,-0.105l-0.03,-0.112l-0.027,-0.114l-0.014,-0.066l-0.012,-0.064l-0.012,-0.065l-0.011,-0.067l-0.01,-0.069l-0.009,-0.071l-0.009,-0.072l-0.008,-0.075l-0.007,-0.077l-0.006,-0.077l-0.013,-0.181l-0.011,-0.188l-0.01,-0.194l-0.01,-0.2l-0.019,-0.415l-0.019,-0.436l-0.011,-0.223l-0.012,-0.226l-0.013,-0.229l-0.015,-0.23l-0.017,-0.231l-0.018,-0.232l-0.02,-0.231l-0.023,-0.232l-0.013,-0.113l-0.013,-0.114l-0.013,-0.114l-0.015,-0.113l-0.015,-0.112l-0.016,-0.111l-0.017,-0.11l-0.017,-0.109l-0.019,-0.108l-0.019,-0.107l-0.02,-0.105l-0.021,-0.104l-0.021,-0.102l-0.023,-0.1l-0.023,-0.099l-0.025,-0.097l-0.025,-0.095l-0.026,-0.093l-0.027,-0.09l-0.028,-0.088l-0.028,-0.086l-0.03,-0.083l-0.03,-0.081l-0.031,-0.078l-0.031,-0.075l-0.032,-0.071l-0.033,-0.069l-0.033,-0.066l-0.033,-0.063l-0.034,-0.059l-0.034,-0.056l-0.037,-0.056l-0.039,-0.057l-0.042,-0.059l-0.042,-0.058l-0.043,-0.057l-0.043,-0.056l-0.044,-0.054l-0.044,-0.054l-0.045,-0.052l-0.045,-0.052l-0.046,-0.05l-0.046,-0.049l-0.047,-0.048l-0.047,-0.048l-0.048,-0.046l-0.048,-0.045l-0.048,-0.044l-0.049,-0.043l-0.049,-0.042l-0.05,-0.041l-0.05,-0.04l-0.05,-0.039l-0.051,-0.038l-0.051,-0.037l-0.051,-0.036l-0.052,-0.035l-0.052,-0.034l-0.052,-0.034l-0.053,-0.032l-0.053,-0.031l-0.053,-0.03l-0.054,-0.029l-0.054,-0.029l-0.054,-0.027l-0.055,-0.027l-0.054,-0.025l-0.055,-0.025l-0.056,-0.023l-0.055,-0.023l-0.056,-0.022l-0.056,-0.021l-0.056,-0.02l-0.056,-0.019l-0.057,-0.018l-0.056,-0.017l-0.057,-0.016l-0.058,-0.016l-0.057,-0.014l-0.057,-0.013l-0.058,-0.013l-0.058,-0.012l-0.058,-0.01l-0.058,-0.01l-0.058,-0.009l-0.058,-0.008l-0.058,-0.007l-0.059,-0.006l-0.058,-0.006l-0.059,-0.004l-0.059,-0.004l-0.059,-0.002l-0.058,-0.002l-0.059,-0.001l-0.059,0.001l0,0Z" style="fill:#404040;"/><path d="M6.496,2.907c0,-0.886 0.719,-1.605 1.606,-1.605c0.887,0 1.606,0.719 1.606,1.605" style="fill:none;stroke-width:1px;stroke:#404040;"/></g></svg>