<?xml version="1.0" encoding="utf-8"?>
<!-- Generator: Adobe Illustrator 19.2.1, SVG Export Plug-In . SVG Version: 6.00 Build 0)  -->
<svg version="1.1" id="Layer_2_1_" xmlns="http://www.w3.org/2000/svg" xmlns:xlink="http://www.w3.org/1999/xlink" x="0px" y="0px"
	 viewBox="0 0 16 16" style="enable-background:new 0 0 16 16;" xml:space="preserve">
<style type="text/css">
	.st0{fill:#404040;}
</style>
<path class="st0" d="M1.2,12.2c0.4-0.4,0.8-0.7,1.2-1.1C2.8,10.8,3,10.3,3,9.8c0-1,0-2,0-3c0-1.3,0.5-2.5,1.4-3.5
	C5,2.6,5.7,2.2,6.6,1.9c0.2-0.1,0.3-0.2,0.3-0.4C7,1,7.4,0.7,7.9,0.7c0.4,0,0.8,0,1.1,0.4c0.1,0.1,0.2,0.3,0.2,0.5s0.2,0.3,0.3,0.3
	c1.2,0.3,2,1,2.7,2c0.4,0.6,0.7,1.3,0.8,2c0,0.3,0.1,0.6,0.1,0.9c0,1,0,1.9,0,2.9c0,0.6,0.2,1.2,0.7,1.6c0.2,0.2,0.5,0.5,1,0.8
	c0.1,0.1,0,0.3-0.1,0.3c-1.1,0-2.3,0-3.4,0c-3.4,0-6.6,0-9.9,0C1.2,12.4,1.1,12.3,1.2,12.2z"/>
<path class="st0" d="M10.1,13.4c0.1,0,0,2.1-2.3,2.1c-2.2,0-2.6-2.1-2.4-2.1C6.2,13.4,9.3,13.4,10.1,13.4z"/>
</svg>
