<?xml version="1.0" encoding="utf-8"?>
<!-- Generator: Adobe Illustrator 19.2.1, SVG Export Plug-In . SVG Version: 6.00 Build 0)  -->
<svg version="1.0" id="Layer_1" xmlns="http://www.w3.org/2000/svg" xmlns:xlink="http://www.w3.org/1999/xlink" x="0px" y="0px"
	 viewBox="0 0 16 16" style="enable-background:new 0 0 16 16;" xml:space="preserve">
<style type="text/css">
	.st0{fill:#404040;}
</style>
<g>
	<path class="st0" d="M13.8,2.2l0,8.9l-2.5,2.7l-9,0V2.2H13.8 M14.7,1.2H1.3v13.6l10.5,0l3-3.4L14.7,1.2L14.7,1.2z"/>
</g>
<path class="st0" d="M7.7,9.7c-0.6,0-1.1-0.3-1.5-0.8C6,8.4,5.8,8,5.7,7.4c0-0.6,0.2-1.1,0.4-1.5c0.3-0.5,0.9-0.8,1.5-0.8
	c1.5-0.1,2.5,0.9,2.6,2.2c0,0,0,0,0,0.1c0,0,0,0,0,0.1C10.2,8.8,9.2,9.8,7.7,9.7 M11.9,7.4c0-0.1,0-0.2,0-0.2c0-0.2-0.1-0.4-0.3-0.5
	c-0.1-0.1-0.3-0.1-0.5-0.2C11,6.3,10.8,6,10.8,5.8c0,0,0,0,0-0.1c0-0.3,0.4-0.5,0.2-0.9c0-0.1-0.1-0.2-0.1-0.2
	c-0.1-0.2-0.3-0.4-0.6-0.4c-0.3,0-0.4,0.2-0.6,0.2c-0.5,0.1-1-0.2-1.1-0.6c0-0.1,0-0.3-0.1-0.4c-0.2-0.2-0.7-0.3-1-0.1
	C7.4,3.4,7.4,3.7,7.3,3.9C7.2,4.3,6.7,4.5,6.3,4.5C6.1,4.4,6.1,4.3,6,4.3C5.7,4.1,5.3,4.2,5.1,4.5C5.1,4.5,5,4.7,5,5
	c0,0.2,0.2,0.3,0.2,0.5c0,0,0,0,0,0c0,0.3-0.2,0.9-0.5,1C4.5,6.7,4.2,6.6,4.1,6.9c0,0.1-0.1,0.3-0.1,0.5c0,0.2,0,0.3,0.1,0.5
	C4.2,8.1,4.5,8,4.7,8.2c0.3,0.1,0.5,0.7,0.5,1c0,0,0,0,0,0C5.2,9.4,5,9.5,5,9.7c0,0.2,0.1,0.5,0.1,0.4c0.2,0.3,0.6,0.5,0.9,0.3
	c0.1-0.1,0.2-0.1,0.3-0.2c0.5-0.1,0.9,0.2,1.1,0.6c0.1,0.2,0.1,0.5,0.3,0.6c0.3,0.2,0.8,0.1,1-0.1c0.1-0.1,0.1-0.3,0.1-0.4
	c0.1-0.4,0.6-0.7,1.1-0.6c0.2,0,0.3,0.2,0.6,0.2c0.2,0,0.4-0.2,0.6-0.4c0,0,0.1-0.1,0.1-0.2c0,0,0-0.1,0-0.1c0-0.3-0.2-0.4-0.3-0.7
	c0,0,0,0,0-0.1c0-0.3,0.2-0.5,0.4-0.7c0.1-0.1,0.3-0.1,0.5-0.2c0.1-0.1,0.2-0.3,0.3-0.5C11.9,7.5,11.9,7.4,11.9,7.4"/>
<path class="st0" d="M14.8,10.8l-3.1,0v4l3.1-3.4V10.8z"/>
</svg>
