<?xml version="1.0" standalone="no"?><!DOCTYPE svg PUBLIC "-//W3C//DTD SVG 1.1//EN" "http://www.w3.org/Graphics/SVG/1.1/DTD/svg11.dtd"><svg width="100%" height="100%" viewBox="0 0 16 16" version="1.1" xmlns="http://www.w3.org/2000/svg" xmlns:xlink="http://www.w3.org/1999/xlink" xml:space="preserve" style="fill-rule:evenodd;clip-rule:evenodd;stroke-linejoin:round;stroke-miterlimit:1.41421;"><g id="Layer 1"><path d="M13.324,12.884c-0.231,-0.025 -0.413,-0.244 -0.58,-0.407c-0.51,-0.497 -1.091,-1.042 -1.641,-1.529c0.552,-0.638 0.992,-1.721 0.911,-2.864c-0.161,-2.304 -1.873,-4.002 -4.542,-3.802c-1.978,0.148 -3.398,1.734 -3.397,3.862c0.002,1.178 0.444,1.991 0.896,2.79c-0.217,0.393 -0.655,0.727 -1.019,1.093c-0.362,0.364 -0.696,0.778 -1.053,1.025c-0.466,-0.648 0.242,-1.111 0.267,-1.737c0.023,-0.593 -0.377,-1.519 -0.857,-1.736c-0.447,-0.201 -0.885,-0.099 -1.093,-0.575c-0.146,-0.335 -0.156,-1.119 0.03,-1.431c0.158,-0.266 0.812,-0.406 1.055,-0.549c0.469,-0.277 1.035,-0.878 0.88,-1.809c-0.059,-0.355 -0.41,-0.544 -0.446,-0.987c-0.077,-0.937 0.948,-1.671 1.733,-1.232c0.171,0.096 0.295,0.238 0.479,0.271c0.842,0.153 1.589,-0.333 1.87,-0.96c0.165,-0.365 0.135,-0.774 0.474,-0.989c0.487,-0.308 1.469,-0.192 1.739,0.233c0.156,0.246 0.13,0.532 0.207,0.715c0.252,0.597 1.082,1.169 2.013,0.948c0.327,-0.079 0.471,-0.394 0.987,-0.344c0.575,0.056 1.166,0.702 1.162,1.223c-0.004,0.486 -0.411,0.722 -0.439,1.262c-0.03,0.573 0.199,1.144 0.549,1.463c0.297,0.27 1.138,0.328 1.365,0.78c0.278,0.55 0.036,1.559 -0.402,1.807c-0.257,0.145 -0.598,0.14 -0.851,0.343c-0.474,0.38 -0.73,1.091 -0.642,1.706c0.064,0.44 0.627,0.819 0.345,1.43" style="fill:#404040;"/><path d="M13.272,14.707l-10.324,0c-0.084,-0.155 0.132,-0.234 0.205,-0.307c1.592,-1.593 3.249,-3.413 4.872,-5.008c0.028,0.005 0.034,0.033 0.068,0.033c1.277,1.327 2.631,2.632 3.953,3.952c0.431,0.432 0.884,0.85 1.226,1.33" style="fill:#404040;"/></g></svg>