<?xml version="1.0" encoding="utf-8"?>
<!-- Generator: Adobe Illustrator 20.0.0, SVG Export Plug-In . SVG Version: 6.00 Build 0)  -->
<svg version="1.1" id="Layer_1" xmlns="http://www.w3.org/2000/svg" xmlns:xlink="http://www.w3.org/1999/xlink" x="0px" y="0px"
	 viewBox="0 0 16 16" style="enable-background:new 0 0 16 16;" xml:space="preserve">
<style type="text/css">
	.st0{fill:#404040;}
</style>
<g id="Layer_1_1_">
	<path class="st0" d="M10.8,11.3c-0.1,0-1.1-0.9-1.3-1.1c0.3-0.4,0.6-0.9,0.6-1.6C10,7.2,9,6.3,7.5,6.3c-1.1,0.1-2,0.9-2,2.1
		C5.5,9.1,5.8,9.5,6,10l-1.2,1.3c-0.3-0.4,0.1-0.7,0.2-1c0-0.4-0.2-0.8-0.5-1c-0.3,0-0.5,0-0.7-0.2c-0.1-0.3-0.4-1,0.8-1.2
		c0.3-0.2,0.6-0.5,0.5-1c0-0.2-0.2-0.3-0.3-0.6c0-0.6,0.6-0.9,0.9-0.7C5.8,5.8,5.9,5.8,6,5.9c0.6,0,1-0.3,1.1-0.7
		C7.2,5,7.2,4.8,7.4,4.7c0.3-0.2,0.8-0.1,1,0.1C8.5,4.9,8.5,5,8.5,5.1c0.2,0.4,0.7,0.7,1.1,0.6c0.2,0,0.3-0.2,0.6-0.2
		c0.4,0.1,0.7,0.5,0.7,0.7c0,0.3-0.2,0.4-0.3,0.7c0,0.3,0.1,0.7,0.3,0.8C11,8,11.5,8,11.6,8.3c0.2,0.3,0,0.8-0.2,1
		c-0.1,0-0.3,0-0.5,0.1c-0.3,0.2-0.4,0.7-0.4,0.9c0.2,0.3,0.4,0.5,0.3,0.9"/>
	<path class="st0" d="M5,12c-0.1-0.1,2.2-2.2,3-3l0,0c0.7,0.7,2.8,2.7,3,3"/>
</g>
<path class="st0" d="M15,6h-3V2h0.8L15,6z"/>
<g>
	<path class="st0" d="M12,2l2,3.9l0,8.1H2V2H12 M1,1v14h14V5.9L13,1H1z"/>
</g>
</svg>
