<?xml version="1.0" encoding="utf-8"?>
<!-- Generator: Adobe Illustrator 19.2.1, SVG Export Plug-In . SVG Version: 6.00 Build 0)  -->
<svg version="1.0" id="Layer_1" xmlns="http://www.w3.org/2000/svg" xmlns:xlink="http://www.w3.org/1999/xlink" x="0px" y="0px"
	 viewBox="0 0 16 16" style="enable-background:new 0 0 16 16;" xml:space="preserve">
<style type="text/css">
	.st0{fill:#C4C4C4;}
	.st1{fill:#3E3E3E;}
	.st2{fill:none;}
	.st3{fill:#404040;}
</style>
<rect x="2.7" y="10" class="st0" width="3.1" height="1.3"/>
<rect x="7.3" y="6" class="st0" width="5.9" height="2.2"/>
<rect x="7.3" y="10" class="st0" width="5.9" height="2.2"/>
<rect x="2.7" y="6" class="st0" width="3.1" height="1.3"/>
<path class="st1" d="M1,1v14h14V1H1z M4.5,2v0.5H4V2H4.5z M3.5,2v0.5H3V2H3.5z M2,2h0.5v0.5H2V2z M2,14V3.5h12V14H2z"/>
<rect class="st2" width="16" height="16"/>
<rect x="5.7" y="8.4" transform="matrix(0.7071 -0.7071 0.7071 0.7071 -4.3597 8.2054)" class="st3" width="4" height="2"/>
<polygon class="st3" points="4.9,12.2 5.4,10.4 6.8,11.8 "/>
<rect x="9.3" y="6.3" transform="matrix(0.7071 -0.7071 0.7071 0.7071 -2.2661 9.1261)" class="st3" width="1.1" height="2"/>
</svg>
