<?xml version="1.0" encoding="utf-8"?>
<!-- Generator: Adobe Illustrator 19.2.1, SVG Export Plug-In . SVG Version: 6.00 Build 0)  -->
<svg version="1.1" id="Layer_1" xmlns="http://www.w3.org/2000/svg" xmlns:xlink="http://www.w3.org/1999/xlink" x="0px" y="0px"
	 viewBox="0 0 16 16" style="enable-background:new 0 0 16 16;" xml:space="preserve">
<style type="text/css">
	.st0{fill:none;stroke:#404040;stroke-linecap:square;stroke-miterlimit:1.4142;}
	.st1{fill:none;}
	.st2{fill:#404040;}
	.st3{fill:#F7A808;}
</style>
<path class="st0" d="M14.4,11"/>
<path class="st0" d="M1.3,13.6"/>
<polygon class="st1" points="0.1,0 16.1,0 16.1,16 0.1,16 "/>
<path class="st2" d="M15,3.8V2.6H8L7.2,2.2H1v2.7l0,0v8.9h13.9L15,3.8L15,3.8z M2,12.8V4.9h12v7.9H2z"/>
<path class="st3" d="M4.7,7c-1.9,0-3.4,1.5-3.4,3.4s1.6,3.4,3.4,3.4c1.9,0,3.4-1.5,3.4-3.4S6.6,7,4.7,7z M6.3,12.6l-1.6-0.8
	l-1.5,0.8l0.3-1.7L2.2,9.7l1.7-0.3l0.7-1.6l0.8,1.5l1.7,0.2L6,10.9L6.3,12.6z"/>
</svg>
