<?xml version="1.0" encoding="utf-8"?>
<!-- Generator: Adobe Illustrator 19.2.1, SVG Export Plug-In . SVG Version: 6.00 Build 0)  -->
<svg version="1.1" id="Layer_1" xmlns="http://www.w3.org/2000/svg" xmlns:xlink="http://www.w3.org/1999/xlink" x="0px" y="0px"
	 viewBox="0 0 16 16" style="enable-background:new 0 0 16 16;" xml:space="preserve">
<style type="text/css">
	.st0{fill:#756493;}
</style>
<g>
	<path class="st0" d="M14,2v12H2V2H14 M14.9,1.1H14H2H1.1V2v12v0.9H2h12h0.9V14V2V1.1L14.9,1.1z"/>
</g>
<path class="st0" d="M12.3,9.1c-0.2,0.3-0.4,0.4-0.8,0.4c-0.6,0-1-0.4-1-1s0.4-1,1-1c0.3,0,0.6,0.2,0.8,0.4H13l0-2.7H9.6V5.1
	c0.3-0.3,0.5-0.6,0.5-0.9c0-0.6-0.4-1-1-1s-1,0.4-1,1C8,4.5,8.2,4.8,8.4,5v0.4H6.1V8H5.3C5.1,7.8,4.9,7.7,4.6,7.7c-0.6,0-1,0.4-1,1
	s0.4,1,1,1c0.4,0,0.8-0.3,0.9-0.5h0.6V13h3.2v-1c-0.3-0.2-0.6-0.4-0.6-0.8c0-0.6,0.4-1,1-1s1,0.4,1,1c0,0.3-0.2,0.6-0.4,0.8v1H13
	V9.1H12.3z"/>
</svg>
