<?xml version="1.0" encoding="utf-8"?>
<!-- Generator: Adobe Illustrator 20.1.0, SVG Export Plug-In . SVG Version: 6.00 Build 0)  -->
<svg version="1.1" xmlns="http://www.w3.org/2000/svg" xmlns:xlink="http://www.w3.org/1999/xlink" x="0px" y="0px"
	 viewBox="0 0 16 16" style="enable-background:new 0 0 16 16;" xml:space="preserve">
<style type="text/css">
	.st0{display:none;}
	.st1{fill:#404040;}
	.st2{fill:#FFFFFF;}
	.st3{fill:#4FBC78;}
</style>
<g id="Layer_1">
	<g>
		<path class="st1" d="M12.6,2.5L15,5v9.5l-8,0.1v-12H12.6 M13,1.5H6v14l10-0.1V4.6L13,1.5L13,1.5z"/>
	</g>
	<polygon class="st1" points="12,1.5 12,5.5 16,5.5 	"/>
	<g>
		<rect x="1.5" y="1" class="st2" width="8" height="4"/>
		<path class="st1" d="M9,1.5v3H2v-3H9 M10,0.5H1v5h9V0.5L10,0.5z"/>
	</g>
	<g>
		<polygon class="st1" points="4,2.5 3,2.5 3,3.5 4,3.5 4,2.5 		"/>
	</g>
	<g>
		<polygon class="st1" points="6,2.5 5,2.5 5,3.5 6,3.5 6,2.5 		"/>
	</g>
	<g>
		<polygon class="st1" points="8,2.5 7,2.5 7,3.5 8,3.5 8,2.5 		"/>
	</g>
	<g>
		<polygon class="st1" points="14,6.5 9,6.5 9,7.5 14,7.5 14,6.5 		"/>
	</g>
	<rect x="9" y="8.5" class="st1" width="5" height="1"/>
	<rect x="8" y="10.5" class="st1" width="6" height="1"/>
	<rect x="7" y="12.5" class="st1" width="7" height="1"/>
	<path class="st3" d="M11,10.2L7,6.3l0,2.2c0,0-4.3,1.2-5.2-3.5c0-0.2-0.6,3.3,0.7,5.1c1.7,2.2,4.5,2,4.5,2l0,2.2L11,10.2z"/>
</g>
</svg>
