<?xml version="1.0"?>
<svg width="1000" height="1000" xmlns="http://www.w3.org/2000/svg" xmlns:svg="http://www.w3.org/2000/svg">
 <g>
  <title>Layer 1</title>
  <g stroke="null" id="svg_3">
   <path stroke="null" id="svg_4" d="m758.943069,294.658534c-11.414634,11.361788 -22.987804,22.512194 -34.455283,33.873982c-75.252029,-76.41463 -149.235765,-154.097553 -224.487793,-230.459338c-74.88211,76.573167 -149.394301,153.463407 -223.906493,230.406492c-12.260162,-10.51626 -22.723576,-22.829267 -35.036584,-33.239836c85.609752,-89.784548 172.699178,-178.142267 258.943076,-267.239824c86.45528,88.727638 172.752024,177.666658 258.943076,266.658523z"/>
  </g>
  <g stroke="null" transform="matrix(-0.5284552574157715,0,0,-0.5372628366397976,1681.9186868667605,2154.3894945936327) " id="svg_5">
   <path stroke="null" id="svg_6" d="m2726.553974,2705.365323c-21.6,21.5 -43.5,42.6 -65.2,64.1c-142.4,-144.6 -282.4,-291.6 -424.8,-436.1c-141.7,144.9 -282.7,290.4 -423.7,436c-23.2,-19.9 -43,-43.2 -66.3,-62.9c162,-169.9 326.8,-337.1 490,-505.7c163.6,167.9 326.9,336.2 490,504.6z"/>
  </g>
 </g>
</svg>