<?xml version="1.0" encoding="utf-8"?>
<svg version="1.1" id="Layer_1" xmlns="http://www.w3.org/2000/svg" xmlns:xlink="http://www.w3.org/1999/xlink" x="0px" y="0px"
	 viewBox="0 0 16 16" style="enable-background:new 0 0 16 16;" xml:space="preserve">
<style type="text/css">
	.st0{fill:#FFFFFF;stroke:#414141;stroke-width:1.5;stroke-miterlimit:10;}
	.st1{fill:#414141;stroke:#404040;stroke-width:0.25;stroke-miterlimit:10;}
	.st2{fill:none;stroke:#EB008B;stroke-miterlimit:10;}
	.st3{fill:none;stroke:#414141;stroke-width:0.5;stroke-miterlimit:10;}
</style>
<polygon class="st0" points="10.9,14.1 1.9,14.1 1.9,2.6 10.9,2.6 14.5,8.2 "/>
<g>
	<path class="st1" d="M5.6,5.7h0.8L6,7.1h1.5l0.4-1.3h0.8L8.3,7.1h1.1v0.7H8.1L7.7,9.1h1v0.7H7.5l-0.4,1.3H6.3l0.4-1.3H5.2l-0.4,1.3
		H4l0.4-1.3H3.3V9.1h1.3L5,7.7H4V7.1h1.1L5.6,5.7z M5.8,7.7L5.4,9.1h1.5l0.4-1.3H5.8z"/>
</g>
<path class="st2" d="M14.8,6.2"/>
<path class="st2" d="M14.8,4.2"/>
<ellipse transform="matrix(0.8968 -0.4425 0.4425 0.8968 -2.4754 5.8256)" class="st3" cx="11.2" cy="8.2" rx="0.8" ry="0.8"/>
</svg>
