<?xml version="1.0" standalone="no"?><!DOCTYPE svg PUBLIC "-//W3C//DTD SVG 1.1//EN" "http://www.w3.org/Graphics/SVG/1.1/DTD/svg11.dtd"><svg width="100%" height="100%" viewBox="0 0 16 16" version="1.1" xmlns="http://www.w3.org/2000/svg" xmlns:xlink="http://www.w3.org/1999/xlink" xml:space="preserve" style="fill-rule:evenodd;clip-rule:evenodd;stroke-linejoin:round;stroke-miterlimit:1.41421;"><g id="Layer 2"><path d="M8.116,1.472l0.087,0.002l0.085,0.003l0.086,0.004l0.085,0.004l0.085,0.006l0.085,0.007l0.085,0.008l0.084,0.009l0.084,0.01l0.083,0.012l0.084,0.012l0.083,0.013l0.082,0.014l0.083,0.015l0.082,0.017l0.081,0.017l0.082,0.018l0.08,0.02l0.081,0.02l0.08,0.021l0.08,0.022l0.079,0.023l0.079,0.024l0.079,0.025l0.078,0.026l0.077,0.026l0.078,0.028l0.077,0.029l0.076,0.029l0.076,0.031l0.075,0.031l0.075,0.033l0.074,0.033l0.075,0.034l0.146,0.07l0.073,0.037l0.071,0.037l0.072,0.038l0.071,0.04l0.07,0.04l0.07,0.041l0.069,0.041l0.069,0.042l0.068,0.043l0.068,0.044l0.067,0.045l0.067,0.046l0.065,0.046l0.066,0.047l0.065,0.048l0.064,0.048l0.189,0.15l0.122,0.104l0.061,0.053l0.118,0.108l0.059,0.055l0.114,0.112l0.057,0.057l0.056,0.058l0.055,0.059l0.054,0.059l0.054,0.06l0.053,0.06l0.052,0.061l0.102,0.124l0.1,0.126l0.048,0.064l0.048,0.065l0.047,0.065l0.046,0.066l0.046,0.067l0.088,0.134l0.044,0.069l0.042,0.068l0.042,0.07l0.04,0.069l0.04,0.071l0.039,0.071l0.038,0.071l0.038,0.072l0.072,0.146l0.035,0.073l0.034,0.074l0.033,0.075l0.064,0.15l0.06,0.152l0.056,0.154l0.027,0.078l0.026,0.078l0.025,0.079l0.024,0.079l0.023,0.079l0.022,0.08l0.021,0.08l0.02,0.08l0.02,0.081l0.018,0.081l0.017,0.082l0.016,0.082l0.015,0.082l0.015,0.083l0.013,0.083l0.012,0.083l0.011,0.084l0.01,0.084l0.009,0.084l0.009,0.085l0.006,0.084l0.006,0.085l0.005,0.086l0.004,0.086l0.003,0.085l0.002,0.173l-0.001,0.086l-0.001,0.086l-0.003,0.086l-0.004,0.085l-0.005,0.086l-0.006,0.085l-0.006,0.085l-0.009,0.084l-0.009,0.085l-0.01,0.084l-0.011,0.083l-0.012,0.083l-0.013,0.083l-0.015,0.083l-0.015,0.082l-0.016,0.082l-0.017,0.082l-0.018,0.081l-0.019,0.081l-0.021,0.081l-0.021,0.08l-0.022,0.08l-0.023,0.079l-0.024,0.079l-0.025,0.078l-0.026,0.079l-0.027,0.077l-0.028,0.078l-0.028,0.076l-0.03,0.077l-0.03,0.075l-0.032,0.076l-0.032,0.075l-0.033,0.074l-0.034,0.074l-0.035,0.074l-0.036,0.073l-0.036,0.072l-0.038,0.072l-0.038,0.072l-0.039,0.07l-0.04,0.071l-0.04,0.07l-0.042,0.069l-0.042,0.069l-0.044,0.068l-0.044,0.068l-0.044,0.067l-0.045,0.067l-0.047,0.065l-0.047,0.066l-0.048,0.064l-0.048,0.065l-0.05,0.063l-0.05,0.063l-0.051,0.062l-0.051,0.062l-0.052,0.061l-0.053,0.061l-0.054,0.059l-0.054,0.059l-0.055,0.059l-0.056,0.057l-0.057,0.057l-0.057,0.057l-0.057,0.056l-0.059,0.055l-0.059,0.054l-0.059,0.054l-0.061,0.052l-0.061,0.053l-0.061,0.051l-0.063,0.051l-0.063,0.05l-0.063,0.05l-0.064,0.048l-0.065,0.048l-0.066,0.047l-0.065,0.046l-0.067,0.046l-0.067,0.044l-0.068,0.044l-0.068,0.044l-0.069,0.042l-0.069,0.042l-0.07,0.04l-0.07,0.04l-0.071,0.039l-0.072,0.038l-0.071,0.038l-0.073,0.036l-0.073,0.036l-0.073,0.035l-0.074,0.034l-0.075,0.033l-0.075,0.032l-0.075,0.032l-0.076,0.03l-0.076,0.03l-0.077,0.028l-0.078,0.028l-0.077,0.027l-0.078,0.026l-0.079,0.025l-0.079,0.024l-0.079,0.023l-0.08,0.022l-0.08,0.021l-0.081,0.021l-0.08,0.019l-0.082,0.018l-0.081,0.017l-0.082,0.016l-0.083,0.016l-0.082,0.014l-0.083,0.013l-0.084,0.012l-0.083,0.011l-0.084,0.011l-0.084,0.009l-0.085,0.008l-0.085,0.007l-0.085,0.006l-0.085,0.005l-0.086,0.003l-0.085,0.003l-0.087,0.001l-0.086,0.001l-0.087,-0.001l-0.085,-0.001l-0.086,-0.003l-0.086,-0.003l-0.085,-0.005l-0.085,-0.006l-0.085,-0.007l-0.084,-0.008l-0.085,-0.009l-0.084,-0.011l-0.083,-0.011l-0.084,-0.012l-0.083,-0.013l-0.083,-0.014l-0.082,-0.016l-0.082,-0.016l-0.081,-0.017l-0.082,-0.018l-0.081,-0.019l-0.08,-0.021l-0.08,-0.021l-0.08,-0.022l-0.079,-0.023l-0.079,-0.024l-0.079,-0.025l-0.078,-0.026l-0.078,-0.027l-0.077,-0.028l-0.076,-0.028l-0.077,-0.03l-0.076,-0.03l-0.075,-0.032l-0.075,-0.032l-0.075,-0.033l-0.074,-0.034l-0.073,-0.035l-0.073,-0.036l-0.073,-0.036l-0.072,-0.038l-0.071,-0.038l-0.071,-0.039l-0.071,-0.04l-0.069,-0.04l-0.07,-0.042l-0.068,-0.042l-0.069,-0.044l-0.067,-0.044l-0.068,-0.044l-0.066,-0.046l-0.066,-0.046l-0.065,-0.047l-0.065,-0.048l-0.064,-0.048l-0.063,-0.05l-0.063,-0.05l-0.063,-0.051l-0.061,-0.051l-0.061,-0.052l-0.061,-0.053l-0.059,-0.054l-0.06,-0.054l-0.058,-0.055l-0.058,-0.056l-0.057,-0.057l-0.056,-0.057l-0.056,-0.057l-0.055,-0.059l-0.054,-0.059l-0.054,-0.059l-0.053,-0.061l-0.052,-0.061l-0.052,-0.062l-0.05,-0.062l-0.051,-0.063l-0.049,-0.063l-0.048,-0.065l-0.048,-0.064l-0.048,-0.066l-0.045,-0.065l-0.046,-0.067l-0.045,-0.067l-0.044,-0.068l-0.043,-0.068l-0.043,-0.069l-0.041,-0.069l-0.041,-0.07l-0.04,-0.071l-0.039,-0.07l-0.038,-0.072l-0.037,-0.072l-0.037,-0.072l-0.035,-0.073l-0.036,-0.073l-0.033,-0.075l-0.033,-0.074l-0.033,-0.075l-0.031,-0.076l-0.031,-0.075l-0.029,-0.077l-0.029,-0.076l-0.028,-0.078l-0.026,-0.077l-0.026,-0.078l-0.025,-0.079l-0.024,-0.079l-0.023,-0.079l-0.022,-0.08l-0.021,-0.08l-0.021,-0.081l-0.019,-0.081l-0.018,-0.081l-0.018,-0.082l-0.016,-0.082l-0.015,-0.082l-0.014,-0.083l-0.014,-0.083l-0.012,-0.083l-0.011,-0.083l-0.01,-0.084l-0.009,-0.085l-0.008,-0.084l-0.007,-0.085l-0.006,-0.085l-0.005,-0.086l-0.004,-0.085l-0.002,-0.086l-0.002,-0.086l-0.001,-0.086l0.001,-0.087l0.002,-0.086l0.002,-0.085l0.004,-0.086l0.005,-0.086l0.006,-0.085l0.007,-0.084l0.008,-0.085l0.009,-0.084l0.01,-0.084l0.011,-0.084l0.012,-0.083l0.014,-0.083l0.014,-0.083l0.015,-0.082l0.016,-0.082l0.018,-0.082l0.018,-0.081l0.019,-0.081l0.021,-0.08l0.021,-0.08l0.022,-0.08l0.023,-0.079l0.024,-0.079l0.025,-0.079l0.026,-0.078l0.026,-0.078l0.028,-0.077l0.029,-0.077l0.029,-0.076l0.031,-0.076l0.031,-0.075l0.033,-0.075l0.033,-0.075l0.033,-0.074l0.036,-0.073l0.035,-0.073l0.037,-0.073l0.037,-0.072l0.038,-0.071l0.039,-0.071l0.04,-0.071l0.041,-0.069l0.041,-0.07l0.043,-0.068l0.043,-0.069l0.044,-0.067l0.045,-0.067l0.046,-0.067l0.045,-0.066l0.048,-0.065l0.048,-0.065l0.048,-0.064l0.049,-0.063l0.051,-0.063l0.05,-0.062l0.052,-0.062l0.052,-0.061l0.053,-0.061l0.054,-0.059l0.054,-0.059l0.055,-0.059l0.056,-0.058l0.056,-0.057l0.057,-0.056l0.058,-0.056l0.058,-0.055l0.06,-0.054l0.059,-0.054l0.061,-0.053l0.061,-0.052l0.062,-0.052l0.062,-0.05l0.063,-0.051l0.063,-0.049l0.064,-0.048l0.065,-0.048l0.065,-0.047l0.066,-0.046l0.066,-0.046l0.068,-0.045l0.067,-0.044l0.069,-0.043l0.068,-0.042l0.07,-0.041l0.069,-0.041l0.071,-0.04l0.071,-0.04l0.071,-0.038l0.072,-0.037l0.073,-0.037l0.073,-0.035l0.073,-0.035l0.074,-0.034l0.075,-0.033l0.075,-0.033l0.075,-0.031l0.076,-0.031l0.077,-0.029l0.076,-0.029l0.077,-0.028l0.078,-0.026l0.078,-0.026l0.079,-0.025l0.079,-0.024l0.079,-0.023l0.08,-0.022l0.08,-0.021l0.08,-0.02l0.081,-0.02l0.082,-0.018l0.081,-0.017l0.082,-0.017l0.082,-0.015l0.083,-0.014l0.083,-0.013l0.084,-0.012l0.083,-0.012l0.084,-0.01l0.085,-0.009l0.084,-0.008l0.085,-0.007l0.085,-0.006l0.085,-0.004l0.086,-0.004l0.086,-0.003l0.085,-0.002l0.173,0ZM7.968,3.424l-0.061,0.001l-0.061,0.002l-0.061,0.003l-0.061,0.004l-0.06,0.004l-0.06,0.005l-0.06,0.005l-0.06,0.007l-0.06,0.007l-0.059,0.008l-0.059,0.009l-0.059,0.009l-0.058,0.01l-0.058,0.011l-0.058,0.011l-0.058,0.012l-0.057,0.014l-0.058,0.013l-0.057,0.014l-0.056,0.015l-0.057,0.016l-0.056,0.016l-0.056,0.017l-0.055,0.018l-0.055,0.018l-0.055,0.019l-0.055,0.019l-0.054,0.021l-0.054,0.021l-0.053,0.021l-0.054,0.022l-0.053,0.023l-0.052,0.024l-0.053,0.024l-0.052,0.025l-0.052,0.024l-0.051,0.026l-0.051,0.027l-0.05,0.027l-0.051,0.028l-0.049,0.028l-0.05,0.029l-0.049,0.029l-0.049,0.03l-0.048,0.031l-0.048,0.031l-0.047,0.032l-0.048,0.032l-0.046,0.033l-0.047,0.033l-0.046,0.034l-0.045,0.035l-0.045,0.035l-0.045,0.035l-0.044,0.036l-0.044,0.037l-0.043,0.037l-0.043,0.037l-0.043,0.038l-0.042,0.039l-0.041,0.039l-0.041,0.039l-0.041,0.04l-0.04,0.041l-0.039,0.041l-0.039,0.042l-0.039,0.042l-0.038,0.042l-0.037,0.043l-0.037,0.043l-0.037,0.044l-0.036,0.044l-0.036,0.045l-0.034,0.045l-0.035,0.045l-0.034,0.046l-0.033,0.047l-0.033,0.046l-0.032,0.048l-0.032,0.047l-0.031,0.048l-0.031,0.048l-0.03,0.049l-0.029,0.049l-0.029,0.05l-0.028,0.049l-0.028,0.051l-0.027,0.05l-0.027,0.051l-0.026,0.051l-0.025,0.052l-0.024,0.052l-0.025,0.053l-0.023,0.052l-0.023,0.053l-0.022,0.054l-0.022,0.053l-0.021,0.054l-0.02,0.054l-0.019,0.055l-0.019,0.055l-0.019,0.055l-0.017,0.055l-0.017,0.056l-0.016,0.056l-0.016,0.057l-0.015,0.056l-0.014,0.057l-0.014,0.057l-0.013,0.058l-0.012,0.057l-0.011,0.058l-0.011,0.059l-0.01,0.058l-0.009,0.059l-0.009,0.059l-0.008,0.059l-0.007,0.06l-0.007,0.059l-0.006,0.06l-0.004,0.061l-0.005,0.06l-0.003,0.061l-0.003,0.061l-0.002,0.061l-0.001,0.061l0,0.123l0.001,0.062l0.002,0.061l0.003,0.061l0.003,0.06l0.005,0.061l0.004,0.06l0.006,0.06l0.014,0.12l0.008,0.059l0.009,0.059l0.009,0.058l0.01,0.059l0.022,0.116l0.012,0.058l0.013,0.057l0.028,0.114l0.015,0.057l0.016,0.057l0.016,0.055l0.017,0.056l0.017,0.055l0.019,0.056l0.019,0.055l0.019,0.054l0.02,0.055l0.021,0.053l0.044,0.108l0.023,0.052l0.023,0.053l0.049,0.105l0.025,0.051l0.026,0.052l0.027,0.05l0.027,0.051l0.056,0.1l0.058,0.099l0.03,0.048l0.031,0.049l0.031,0.048l0.064,0.094l0.066,0.094l0.034,0.045l0.035,0.046l0.034,0.045l0.036,0.045l0.036,0.044l0.037,0.043l0.037,0.044l0.037,0.043l0.038,0.042l0.078,0.084l0.039,0.041l0.04,0.04l0.082,0.08l0.041,0.039l0.042,0.038l0.086,0.076l0.043,0.037l0.044,0.037l0.044,0.036l0.135,0.105l0.046,0.033l0.047,0.034l0.046,0.033l0.048,0.032l0.047,0.032l0.096,0.062l0.049,0.03l0.049,0.029l0.05,0.029l0.049,0.028l0.051,0.028l0.05,0.027l0.102,0.052l0.052,0.026l0.052,0.024l0.053,0.024l0.052,0.023l0.053,0.023l0.054,0.023l0.053,0.021l0.054,0.021l0.054,0.02l0.055,0.02l0.055,0.019l0.11,0.036l0.056,0.017l0.056,0.016l0.057,0.016l0.056,0.014l0.057,0.015l0.115,0.026l0.058,0.013l0.116,0.022l0.058,0.01l0.118,0.018l0.059,0.008l0.06,0.007l0.12,0.012l0.06,0.005l0.06,0.004l0.061,0.004l0.183,0.006l0.123,0l0.062,-0.002l0.061,-0.002l0.061,-0.002l0.061,-0.004l0.06,-0.004l0.06,-0.005l0.06,-0.006l0.06,-0.006l0.059,-0.007l0.06,-0.008l0.059,-0.009l0.059,-0.009l0.058,-0.01l0.058,-0.011l0.058,-0.011l0.058,-0.013l0.058,-0.013l0.057,-0.013l0.057,-0.015l0.056,-0.014l0.057,-0.016l0.056,-0.016l0.055,-0.017l0.056,-0.018l0.055,-0.018l0.055,-0.019l0.054,-0.02l0.055,-0.02l0.054,-0.021l0.053,-0.021l0.054,-0.023l0.053,-0.023l0.052,-0.023l0.053,-0.024l0.051,-0.024l0.052,-0.026l0.051,-0.026l0.051,-0.026l0.051,-0.027l0.05,-0.028l0.05,-0.028l0.05,-0.029l0.049,-0.029l0.048,-0.03l0.049,-0.031l0.048,-0.031l0.047,-0.032l0.047,-0.032l0.047,-0.033l0.046,-0.034l0.046,-0.033l0.046,-0.035l0.045,-0.035l0.045,-0.035l0.044,-0.036l0.043,-0.037l0.044,-0.037l0.043,-0.038l0.042,-0.038l0.042,-0.038l0.042,-0.039l0.041,-0.04l0.04,-0.04l0.04,-0.04l0.04,-0.041l0.039,-0.042l0.038,-0.042l0.038,-0.042l0.038,-0.043l0.037,-0.044l0.037,-0.043l0.036,-0.044l0.035,-0.045l0.035,-0.045l0.035,-0.046l0.033,-0.045l0.034,-0.047l0.033,-0.047l0.032,-0.047l0.032,-0.047l0.031,-0.048l0.03,-0.049l0.03,-0.048l0.03,-0.05l0.029,-0.049l0.028,-0.05l0.028,-0.05l0.027,-0.051l0.026,-0.05l0.026,-0.052l0.026,-0.051l0.024,-0.053l0.024,-0.052l0.023,-0.053l0.023,-0.052l0.022,-0.054l0.022,-0.053l0.021,-0.054l0.02,-0.055l0.02,-0.054l0.019,-0.055l0.018,-0.056l0.017,-0.055l0.017,-0.056l0.017,-0.055l0.016,-0.057l0.014,-0.057l0.015,-0.057l0.013,-0.057l0.013,-0.057l0.013,-0.058l0.011,-0.058l0.011,-0.058l0.01,-0.059l0.009,-0.058l0.009,-0.059l0.008,-0.059l0.007,-0.06l0.006,-0.06l0.006,-0.06l0.005,-0.06l0.004,-0.061l0.003,-0.06l0.003,-0.061l0.002,-0.061l0.001,-0.062l0.001,-0.061l-0.001,-0.062l-0.001,-0.061l-0.002,-0.061l-0.003,-0.061l-0.003,-0.061l-0.004,-0.06l-0.005,-0.061l-0.006,-0.06l-0.006,-0.059l-0.007,-0.06l-0.008,-0.059l-0.009,-0.059l-0.009,-0.059l-0.01,-0.059l-0.011,-0.058l-0.011,-0.058l-0.013,-0.057l-0.013,-0.058l-0.013,-0.057l-0.015,-0.057l-0.014,-0.056l-0.016,-0.057l-0.017,-0.056l-0.017,-0.056l-0.017,-0.055l-0.018,-0.055l-0.019,-0.055l-0.02,-0.055l-0.02,-0.054l-0.021,-0.054l-0.022,-0.054l-0.022,-0.053l-0.023,-0.053l-0.023,-0.052l-0.024,-0.053l-0.024,-0.052l-0.026,-0.052l-0.026,-0.051l-0.026,-0.051l-0.027,-0.05l-0.028,-0.051l-0.028,-0.049l-0.029,-0.05l-0.03,-0.049l-0.029,-0.049l-0.031,-0.048l-0.031,-0.048l-0.032,-0.047l-0.032,-0.048l-0.033,-0.046l-0.034,-0.047l-0.033,-0.046l-0.035,-0.045l-0.035,-0.045l-0.035,-0.045l-0.036,-0.044l-0.037,-0.044l-0.037,-0.043l-0.038,-0.043l-0.038,-0.043l-0.038,-0.041l-0.039,-0.042l-0.04,-0.041l-0.04,-0.041l-0.04,-0.04l-0.041,-0.039l-0.042,-0.039l-0.042,-0.039l-0.042,-0.038l-0.043,-0.037l-0.044,-0.037l-0.043,-0.037l-0.044,-0.036l-0.045,-0.035l-0.045,-0.035l-0.046,-0.035l-0.046,-0.034l-0.046,-0.033l-0.047,-0.033l-0.047,-0.032l-0.047,-0.032l-0.048,-0.031l-0.049,-0.031l-0.048,-0.03l-0.049,-0.029l-0.05,-0.029l-0.05,-0.028l-0.05,-0.028l-0.051,-0.027l-0.051,-0.027l-0.051,-0.026l-0.052,-0.024l-0.051,-0.025l-0.052,-0.024l-0.053,-0.024l-0.053,-0.023l-0.054,-0.022l-0.053,-0.021l-0.054,-0.021l-0.055,-0.021l-0.054,-0.019l-0.055,-0.019l-0.055,-0.018l-0.056,-0.018l-0.055,-0.017l-0.056,-0.016l-0.057,-0.016l-0.056,-0.015l-0.057,-0.014l-0.057,-0.013l-0.058,-0.014l-0.058,-0.012l-0.058,-0.011l-0.058,-0.011l-0.058,-0.01l-0.059,-0.009l-0.059,-0.009l-0.06,-0.008l-0.059,-0.007l-0.06,-0.007l-0.06,-0.005l-0.06,-0.005l-0.06,-0.004l-0.061,-0.004l-0.061,-0.003l-0.061,-0.002l-0.062,-0.001l-0.061,0l-0.062,0l0,0Z" style="fill:#404040;"/><path d="M8.235,8.548l0,-3.327l-0.99,0l0,4.158l3.961,0l0,-0.831l-2.971,0l0,0Z" style="fill:#404040;fill-rule:nonzero;"/></g></svg>