<?xml version="1.0" encoding="utf-8"?>
<svg version="1.1" id="Layer_2" xmlns="http://www.w3.org/2000/svg" xmlns:xlink="http://www.w3.org/1999/xlink" x="0px" y="0px"
	 viewBox="0 0 16 16" style="enable-background:new 0 0 16 16;" xml:space="preserve">
<style type="text/css">
	.st0{fill:#404040;}
</style>
<path class="st0" d="M8.1,5.6C6.2,5.6,4.7,7,4.7,8.9s1.5,3.3,3.3,3.3s3.3-1.5,3.3-3.3S9.9,5.6,8.1,5.6z M9.4,9.1H8.3H7.9V6.5h0.5
	v2.2h1.1V9.1z"/>
<path class="st0" d="M6,3H4V1h2C6,1.6,6,3,6,3z"/>
<path class="st0" d="M12,3h-2V1h2C12.1,1,12,3,12,3z"/>
<path class="st0" d="M14,13H2V5h12C14,4.9,14,13,14,13z M1,3v12h14V3H1z"/>
</svg>
