<?xml version="1.0" encoding="utf-8"?>
<!-- Generator: Adobe Illustrator 19.2.1, SVG Export Plug-In . SVG Version: 6.00 Build 0)  -->
<svg version="1.1" id="Layer_1" xmlns="http://www.w3.org/2000/svg" xmlns:xlink="http://www.w3.org/1999/xlink" x="0px" y="0px"
	 viewBox="0 0 16 16" style="enable-background:new 0 0 16 16;" xml:space="preserve">
<style type="text/css">
	.st0{fill:#404040;}
</style>
<path class="st0" d="M12,2l2,2.9l0,9.2H2L2,2H12L12,2z M12.9,1C5.8,1,1.6,1,1,1l0.1,13.9l13.9,0l0-10.7L12.9,1z"/>
<path class="st0" d="M14.9,5L12,5L12,1h0.9L14.9,5z"/>
<polygon class="st0" points="8,7 10,7 9.9,8 8,8 "/>
<path class="st0" d="M8,9l0,1l-2,0l0,4c0,0,4,0.1,4,0V9H8z M9,13H7l0-1h2L9,13z"/>
<rect x="6" y="4" class="st0" width="2" height="1"/>
<rect x="8" y="3" class="st0" width="2" height="1"/>
<rect x="8" y="5" class="st0" width="1" height="1"/>
<rect x="8" y="5" class="st0" width="1.9" height="1"/>
<rect x="6" y="6" class="st0" width="1.9" height="1"/>
<polygon class="st0" points="6,8 8,8 8,9 6,9 "/>
</svg>
