<?xml version="1.0" encoding="utf-8"?>
<!-- Generator: Adobe Illustrator 20.1.0, SVG Export Plug-In . SVG Version: 6.00 Build 0)  -->
<svg version="1.1" id="Layer_1" xmlns="http://www.w3.org/2000/svg" xmlns:xlink="http://www.w3.org/1999/xlink" x="0px" y="0px"
	 viewBox="0 0 16 16" style="enable-background:new 0 0 16 16;" xml:space="preserve">
<style type="text/css">
	.st0{fill:#F7A808;}
	.st1{fill:#F9F9F9;}
	.st2{fill:#808080;}
	.st3{fill:#FFFFFF;stroke:#F7A808;stroke-miterlimit:10;}
</style>
<g id="Layer_1_1_">
</g>
<g>
	<polygon class="st0" points="1.5,13.4 1.5,3.5 5.7,3.5 6.7,5.5 12.5,5.5 12.6,5.9 4.3,5.9 1.6,11.6 1.8,13.4 	"/>
	<path class="st0" d="M5.4,4l0.7,1.4H4.6H4L3.7,6L2,9.6V4H5.4 M6,3H1v10.9h1.4l-0.3-2.2l2.5-5.3h8.5L13,5H7L6,3L6,3z"/>
</g>
<polygon class="st1" points="12.2,12.1 3.8,12.1 3.8,1.9 10.5,1.9 12.2,4.5 "/>
<path class="st2" d="M10.6,1.8L10.6,1.8h-7l0,10.5h8.7l0-7.9L10.6,1.8z M11.4,4.4v7h-7V2.7h5.2v1.7H11.4z"/>
<path class="st3" d="M1.7,13.4c0.2-1,2.6-7,2.6-7h10.4l-2.4,7H1.7z"/>
</svg>
