<?xml version="1.0" encoding="utf-8"?>
<!-- Generator: Adobe Illustrator 19.2.1, SVG Export Plug-In . SVG Version: 6.00 Build 0)  -->
<svg version="1.1" id="Layer_1" xmlns="http://www.w3.org/2000/svg" xmlns:xlink="http://www.w3.org/1999/xlink" x="0px" y="0px"
	 viewBox="0 0 16 16" style="enable-background:new 0 0 16 16;" xml:space="preserve">
<style type="text/css">
	.st0{fill:#404040;}
	.st1{fill:#414141;}
</style>
<path class="st0" d="M15,3.8V2.6H8L7.2,2.2H1v2.7h0l0,8.9l13.9,0L15,3.8L15,3.8z M2,12.8l0-7.9H14l0,7.9L2,12.8z"/>
<path class="st1" d="M8.8,5.6C7.5,5.6,6.4,6.6,6.4,8c0,0.4,0.1,0.8,0.3,1.2l-1.7,1.7l0.9,0.9L7.6,10c0.4,0.2,0.8,0.3,1.2,0.3
	c1.3,0,2.4-1.1,2.4-2.4C11.2,6.6,10.1,5.6,8.8,5.6z M8.8,9.4C8,9.4,7.4,8.7,7.4,8S8,6.6,8.8,6.6c0.8,0,1.4,0.6,1.4,1.4
	S9.6,9.4,8.8,9.4z M4.6,11.2l0.9,0.9l-0.6,0.6L4,11.8L4.6,11.2z"/>
</svg>
