<?xml version="1.0" encoding="utf-8"?>
<!-- Generator: Adobe Illustrator 19.2.1, SVG Export Plug-In . SVG Version: 6.00 Build 0)  -->
<svg version="1.1" id="Layer_1" xmlns="http://www.w3.org/2000/svg" xmlns:xlink="http://www.w3.org/1999/xlink" x="0px" y="0px"
	 viewBox="0 0 16 16" style="enable-background:new 0 0 16 16;" xml:space="preserve">
<style type="text/css">
	.st0{fill:none;stroke:#404040;stroke-linecap:square;stroke-miterlimit:1.4142;}
	.st1{fill:none;}
	.st2{fill:#404040;}
	.st3{fill:#FF6F6F;}
</style>
<path class="st0" d="M14.4,11"/>
<path class="st0" d="M1.3,13.6"/>
<polygon class="st1" points="0.1,0 16.1,0 16.1,16 0.1,16 "/>
<path class="st2" d="M15,3H8L6.9,2L1,2l0,2.9l0,0L1.1,14L15,13.9V3z M1.9,13L2,4.9h12l0.1,8.2L1.9,13z"/>
<path class="st3" d="M4.6,6.6c-1.9,0-3.4,1.5-3.4,3.4c0,1.9,1.5,3.4,3.4,3.4C6.5,13.4,8,11.9,8,10C7.9,8.1,6.4,6.6,4.6,6.6z M2,11V9
	l5,0L7,11L2,11z"/>
</svg>
