<?xml version="1.0" encoding="utf-8"?>
<!-- Generator: Adobe Illustrator 19.2.1, SVG Export Plug-In . SVG Version: 6.00 Build 0)  -->
<svg version="1.1" id="Layer_1" xmlns="http://www.w3.org/2000/svg" xmlns:xlink="http://www.w3.org/1999/xlink" x="0px" y="0px"
	 viewBox="0 0 16 16" style="enable-background:new 0 0 16 16;" xml:space="preserve">
<style type="text/css">
	.st0{fill:none;stroke:#404040;stroke-linecap:square;stroke-miterlimit:1.4142;}
	.st1{fill:none;}
	.st2{fill:#404040;}
	.st3{fill:#FF6F6F;}
</style>
<path class="st0" d="M14.4,11"/>
<path class="st0" d="M1.3,13.6"/>
<polygon class="st1" points="0.1,0 16.1,0 16.1,16 0.1,16 "/>
<path class="st2" d="M15,3.8V2.6H8L7.2,2.2H1v2.7l0,0v8.9h13.9L15,3.8L15,3.8z M2,12.8V4.9h12v7.9H2z"/>
<path class="st3" d="M11.5,7c-1.9,0-3.4,1.5-3.4,3.4s1.5,3.4,3.4,3.4s3.4-1.5,3.4-3.4C14.8,8.5,13.3,7,11.5,7z M13.8,11H9.2V9.7h4.6
	C13.8,9.7,13.8,11,13.8,11z"/>
</svg>
