<?xml version="1.0" encoding="utf-8"?>
<!-- Generator: Adobe Illustrator 19.2.1, SVG Export Plug-In . SVG Version: 6.00 Build 0)  -->
<svg version="1.1" id="Layer_1" xmlns="http://www.w3.org/2000/svg" xmlns:xlink="http://www.w3.org/1999/xlink" x="0px" y="0px"
	 viewBox="0 0 16 16" style="enable-background:new 0 0 16 16;" xml:space="preserve">
<style type="text/css">
	.st0{fill:#404040;}
	.st1{fill:#414141;}
</style>
<path class="st0" d="M15,3.8V2.6H8L7.2,2.2H1v2.7l0,0v8.9h13.9L15,3.8L15,3.8z M2,12.8V4.9h12v7.9H2z"/>
<path class="st1" d="M4.1,7.7c0,1.3,1,2.4,2.4,2.4c0.4,0,0.8-0.1,1.2-0.3l1.7,1.7l0.9-0.9L8.4,8.9c0.2-0.4,0.3-0.8,0.3-1.2
	c0-1.3-1.1-2.4-2.4-2.4C5.1,5.3,4.1,6.3,4.1,7.7z M7.8,7.7c0,0.8-0.7,1.4-1.4,1.4S5.1,8.5,5.1,7.7s0.6-1.4,1.4-1.4S7.8,6.8,7.8,7.7z
	 M9.6,11.9l0.9-0.9l0.6,0.6l-0.9,0.9L9.6,11.9z"/>
</svg>
