<?xml version="1.0" encoding="utf-8"?>
<!-- Generator: Adobe Illustrator 19.2.1, SVG Export Plug-In . SVG Version: 6.00 Build 0)  -->
<svg version="1.1" id="Layer_1" xmlns="http://www.w3.org/2000/svg" xmlns:xlink="http://www.w3.org/1999/xlink" x="0px" y="0px"
	 viewBox="0 0 16 16" style="enable-background:new 0 0 16 16;" xml:space="preserve">
<style type="text/css">
	.st0{fill:none;stroke:#404040;stroke-linecap:square;stroke-miterlimit:1.4142;}
	.st1{fill:none;}
	.st2{fill:#404040;}
	.st3{fill:#4FBC78;}
</style>
<path class="st0" d="M14.3,11"/>
<path class="st0" d="M1.2,13.6"/>
<polygon class="st1" points="0,0 16,0 16,16 0,16 "/>
<path class="st2" d="M14.9,3.8V2.6h-7L7.1,2.2H0.9v2.7l0,0v8.9h13.9L14.9,3.8L14.9,3.8z M1.9,12.8V4.9h12v7.9H1.9z"/>
<path class="st3" d="M11.4,7C9.5,7,8,8.5,8,10.4s1.5,3.4,3.4,3.4s3.4-1.5,3.4-3.4S13.4,7,11.4,7z M13.8,11h-1.7v1.6h-1.3V11H9.2V9.8
	h1.6V8.2h1.4v1.6h1.6V11z"/>
</svg>
