<?xml version="1.0" encoding="utf-8"?>
<!-- Generator: Adobe Illustrator 19.2.1, SVG Export Plug-In . SVG Version: 6.00 Build 0)  -->
<svg version="1.0" id="Layer_1" xmlns="http://www.w3.org/2000/svg" xmlns:xlink="http://www.w3.org/1999/xlink" x="0px" y="0px"
	 viewBox="0 0 16 16" style="enable-background:new 0 0 16 16;" xml:space="preserve">
<style type="text/css">
	.st0{fill:#404040;}
	.st1{fill:none;stroke:#404040;stroke-miterlimit:10;}
	.st2{fill:#FF6F6F;}
</style>
<path class="st0" d="M14.7,4.2V2.5H8.1L7,1.7H0.8v2.5H14.7z"/>
<rect x="1.3" y="3.2" class="st1" width="12.9" height="9.7"/>
<path class="st2" d="M9.5,7.6c0.2-1.1,1.7-1.4,2.4-0.6c0.5,0.5,0.5,1.4,0,1.9c-0.8,0.8-1.5,1.6-2.3,2.4c0,0,0,0-0.1,0.1
	c0,0-0.1-0.1-0.1-0.1c-0.8-0.8-1.5-1.6-2.3-2.4C6.7,8.5,6.6,7.8,6.9,7.3c0.3-0.5,0.8-0.8,1.4-0.7C9,6.7,9.3,6.9,9.5,7.6z"/>
</svg>
