<?xml version="1.0" encoding="utf-8"?>
<!-- Generator: Adobe Illustrator 19.2.1, SVG Export Plug-In . SVG Version: 6.00 Build 0)  -->
<svg version="1.0" id="Layer_1" xmlns="http://www.w3.org/2000/svg" xmlns:xlink="http://www.w3.org/1999/xlink" x="0px" y="0px"
	 viewBox="0 0 16 16" style="enable-background:new 0 0 16 16;" xml:space="preserve">
<style type="text/css">
	.st0{fill:#404040;}
</style>
<path class="st0" d="M15,3.8V2.6H8L7.2,2.2H1v2.7l0,0v8.9h13.9L15,3.8L15,3.8z M2,12.8V4.9h12v7.9H2z"/>
<path class="st0" d="M12.2,9.7c-0.3-0.6-1.7-2.8-1.8-2.8c-0.1-0.1-0.2,0-0.2-0.1L9.5,5.7C9.3,5.6,9,5.5,8.6,5.8
	C8.3,6,8.2,6.4,8.3,6.7C8.4,7,8.5,7.3,8.5,7.4l0,0.5l0,0.1h-1l0-0.1l0-0.5c0-0.1,0.2-0.4,0.3-0.7c0.1-0.3,0-0.7-0.3-0.9
	C7,5.5,6.7,5.6,6.5,5.7L5.8,6.8c0,0.1-0.1,0-0.2,0.1c-0.1,0-1.5,2.2-1.8,2.8c-0.3,0.5-0.2,1.3,0.3,1.8s1.2,0.7,1.8,0.5
	c0.5-0.2,0.9-0.6,1-1.2c0-0.1,0.1-0.2,0.2-0.2L7.2,10c0.5-0.2,1-0.3,1.6-0.1l0.1,0.7c0.1,0,0.2,0.1,0.2,0.2c0.1,0.6,0.5,1,1,1.2
	c0.6,0.2,1.3,0,1.8-0.5S12.5,10.2,12.2,9.7z M6.2,10.5c0,0.6-0.5,1-1,1s-1-0.5-1-1c0,0,0,0,0,0s0,0,0,0c0-0.6,0.5-1,1-1
	S6.2,10,6.2,10.5C6.2,10.5,6.2,10.5,6.2,10.5C6.2,10.5,6.2,10.5,6.2,10.5z M11.8,10.5c0,0.6-0.5,1-1,1s-1-0.5-1-1c0,0,0,0,0,0
	s0,0,0,0c0-0.6,0.5-1,1-1S11.8,10,11.8,10.5C11.8,10.5,11.8,10.5,11.8,10.5C11.8,10.5,11.8,10.5,11.8,10.5z"/>
</svg>
