<?xml version="1.0" encoding="utf-8"?>
<!-- Generator: Adobe Illustrator 19.2.1, SVG Export Plug-In . SVG Version: 6.00 Build 0)  -->
<svg version="1.1" id="Layer_1" xmlns="http://www.w3.org/2000/svg" xmlns:xlink="http://www.w3.org/1999/xlink" x="0px" y="0px"
	 viewBox="0 0 16 16" style="enable-background:new 0 0 16 16;" xml:space="preserve">
<style type="text/css">
	.st0{fill:#909090;}
	.st1{fill:#3E3E3E;}
	.st2{fill:none;}
	.st3{fill:#404040;}
</style>
<g>
	<path class="st0" d="M12.9,6.1v1.2H7.5V6.1H12.9 M13.4,5.6H7v2.2h6.4V5.6L13.4,5.6z"/>
</g>
<rect x="3" y="5.6" class="st0" width="2.8" height="2.2"/>
<path class="st1" d="M1,1v14h14V1H1z M4.5,2v0.5H4V2H4.5z M3.5,2v0.5H3V2H3.5z M2,2h0.5v0.5H2V2z M2,14V3.5h12V14H2z"/>
<rect class="st2" width="16" height="16"/>
<g>
	<path class="st0" d="M12.9,9.8V11H7.5V9.8H12.9 M13.4,9.3H7v2.2h6.4V9.3L13.4,9.3z"/>
</g>
<rect x="3" y="9.3" class="st0" width="2.8" height="2.2"/>
<rect x="5.7" y="8.3" transform="matrix(0.7071 -0.7071 0.7071 0.7071 -5.3335 7.7649)" class="st3" width="2" height="4"/>
<polygon class="st3" points="9.4,13.2 7.6,12.7 9,11.3 "/>
<rect x="3.6" y="7.6" transform="matrix(0.7071 -0.7071 0.7071 0.7071 -4.4434 5.648)" class="st3" width="2" height="1.1"/>
</svg>
