<?xml version="1.0" encoding="utf-8"?>
<!-- Generator: Adobe Illustrator 19.2.1, SVG Export Plug-In . SVG Version: 6.00 Build 0)  -->
<svg version="1.0" id="Layer_1" xmlns="http://www.w3.org/2000/svg" xmlns:xlink="http://www.w3.org/1999/xlink" x="0px" y="0px"
	 viewBox="0 0 16 16" style="enable-background:new 0 0 16 16;" xml:space="preserve">
<style type="text/css">
	.st0{display:none;}
	.st1{fill:#404040;}
	.st2{fill:none;}
</style>
<g id="Layer_1_1_" class="st0">
	
		<image style="display:inline;overflow:visible;enable-background:new    ;" width="16" height="16" xlink:href="4FDA5E1C2F1D7FFE.png" >
	</image>
</g>
<polygon class="st1" points="5.7,5.4 5.2,2.5 4.6,3.3 3,1.9 3.8,1.2 0.6,0.6 1.2,3.7 2.2,2.9 3.6,4.2 2.7,5.1 "/>
<polygon class="st1" points="12.9,5.1 12,4.2 13.4,2.9 14.4,3.7 14.9,0.6 11.8,1.2 12.6,1.9 11,3.3 10.4,2.5 9.9,5.4 "/>
<polygon class="st1" points="2.7,10.5 3.6,11.4 2.2,12.7 1.2,11.9 0.6,15 3.8,14.4 3,13.8 4.6,12.4 5.2,13.1 5.7,10.2 "/>
<polygon class="st1" points="9.9,10.2 10.4,13.1 11,12.4 12.6,13.8 11.8,14.4 14.9,15 14.4,11.9 13.4,12.7 12,11.4 12.9,10.5 "/>
<rect class="st2" width="16" height="16"/>
</svg>
