<?xml version="1.0" encoding="utf-8"?>
<!-- Generator: Adobe Illustrator 21.0.0, SVG Export Plug-In . SVG Version: 6.00 Build 0)  -->
<svg version="1.1" id="Layer_1" 
	 xmlns="http://www.w3.org/2000/svg" xmlns:xlink="http://www.w3.org/1999/xlink" x="0px" y="0px" viewBox="0 0 24 24"
	 style="enable-background:new 0 0 24 24;" xml:space="preserve">
<style type="text/css">
	.st0{fill:none;stroke:#404040;stroke-width:2;stroke-miterlimit:10;}
	.st1{fill:#404040;}
	.st2{fill:none;}
</style>
<path class="st0" d="M2,16"/>
<path class="st0" d="M7,22"/>
<g>
	<polygon class="st1" points="5,10 5,5 10,5 10,7 7,7 7,10 	"/>
	<polygon class="st1" points="19,10 17,10 17,7 14,7 14,5 19,5 	"/>
	<polygon class="st1" points="7,14 7,17 10,17 10,19 5,19 5,14 	"/>
	<polygon class="st1" points="19,19 14,19 14,17 17,17 17,14 19,14 	"/>
</g>
<polyline class="st2" points="24,24 0,24 0,0 24,0 "/>
</svg>
