<?xml version="1.0" encoding="utf-8"?>
<!-- Generator: Adobe Illustrator 19.2.1, SVG Export Plug-In . SVG Version: 6.00 Build 0)  -->
<svg version="1.1" id="Layer_1" xmlns="http://www.w3.org/2000/svg" xmlns:xlink="http://www.w3.org/1999/xlink" x="0px" y="0px"
	 viewBox="0 0 16 16" style="enable-background:new 0 0 16 16;" xml:space="preserve">
<style type="text/css">
	.st0{fill:#404040;}
	.st1{fill:#4FBC78;stroke:#49A561;stroke-width:0.5;stroke-miterlimit:10;}
</style>
<path class="st0" d="M4.4,6.6c-0.1,0,3.1-2.6,3.1-2.6C7.2,5.4,7.7,5.9,7.9,6c0,0-0.7-0.1-1.6,1.1C5,8.6,5.5,10.2,5.5,10.2
	C1.4,9.6,1.2,6.6,1.2,6.6c0.3-1,0.8-1.8,1.9-2.4L4.4,6.6z"/>
<path class="st0" d="M9.1,5.7c0.5,1.2,0.7,2,1.2,3.2C10.7,7.7,11.8,6,11.8,6c1.6,0.7,2.8,2,2.9,4.2c-2.9,0-5.8,0-8.7,0
	c0-0.1,0.2-1.6,0.2-1.6C6.9,6.7,7.8,6.3,9.1,5.7z"/>
<path class="st1" d="M10.8,12.5L7.8,9.7l0,1.7c0,0-3.8,1.1-6.6-2.1c0,0,0.9,4.5,6.4,4.5l0.1,1.4L10.8,12.5z"/>
<ellipse transform="matrix(0.9792 -0.203 0.203 0.9792 -0.6116 2.2352)" class="st0" cx="10.6" cy="4.1" rx="2" ry="2"/>
<ellipse transform="matrix(0.9792 -0.203 0.203 0.9792 -0.437 1.1191)" class="st0" cx="5.2" cy="2.7" rx="2" ry="2"/>
</svg>
