<?xml version="1.0" encoding="utf-8"?>
<!-- Generator: Adobe Illustrator 19.2.1, SVG Export Plug-In . SVG Version: 6.00 Build 0)  -->
<svg version="1.1" id="Layer_1" xmlns="http://www.w3.org/2000/svg" xmlns:xlink="http://www.w3.org/1999/xlink" x="0px" y="0px"
	 viewBox="0 0 16 16" style="enable-background:new 0 0 16 16;" xml:space="preserve">
<style type="text/css">
	.st0{fill:#404040;}
	.st1{fill:#4EBC78;}
	.st2{fill:none;stroke:#4FBC78;stroke-width:2.0464;stroke-miterlimit:10;}
</style>
<g>
	<path class="st0" d="M5.1,2.1c0.9,0,1.6,0.8,1.6,1.6S6,5.5,5.1,5.5S3.3,4.7,3.3,3.8S4.1,2.1,5.1,2.1 M5.1,0.8
		c-1.6,0-2.9,1.3-2.9,2.9s1.3,3,2.9,3S8,5.5,8,3.8S6.7,0.8,5.1,0.8L5.1,0.8z"/>
</g>
<path class="st0" d="M8.5,10.2c0-1.9-1.6-3.5-3.5-3.5S1.5,8.2,1.5,10c0,0.1,0,0.3,0,0.4v3.4l7-0.1C8.5,13.8,8.5,10.2,8.5,10.2z"/>
<g>
	<path class="st0" d="M11.8,2.8c0.9,0,1.6,0.8,1.6,1.6s-0.8,1.8-1.6,1.8S10,5.4,10,4.5S10.8,2.8,11.8,2.8 M11.8,1.5
		c-1.6,0-2.9,1.3-2.9,2.9s1.3,3,2.9,3s2.9-1.3,2.9-2.9S13.4,1.5,11.8,1.5L11.8,1.5z"/>
</g>
<path class="st0" d="M15.2,10.9c0-1.9-1.6-3.5-3.5-3.5s-3.5,1.5-3.5,3.4c0,0.1,0,0.3,0,0.4v3.4l7-0.1C15.2,14.5,15.2,10.9,15.2,10.9
	z"/>
<polygon class="st1" points="8.1,7.9 8.1,14.6 12,11.3 "/>
<path class="st2" d="M2.6,6.7c0.9,3.3,3.2,5,6.8,4.7"/>
</svg>
