<?xml version="1.0" encoding="utf-8"?>
<!-- Generator: Adobe Illustrator 19.2.1, SVG Export Plug-In . SVG Version: 6.00 Build 0)  -->
<svg version="1.0" id="Layer_1" xmlns="http://www.w3.org/2000/svg" xmlns:xlink="http://www.w3.org/1999/xlink" x="0px" y="0px"
	 viewBox="0 0 16 16" style="enable-background:new 0 0 16 16;" xml:space="preserve">
<style type="text/css">
	.st0{fill-rule:evenodd;clip-rule:evenodd;fill:#9B9B9B;}
	.st1{fill-rule:evenodd;clip-rule:evenodd;fill:#404040;}
	.st2{fill-rule:evenodd;clip-rule:evenodd;fill:#909090;}
	.st3{fill-rule:evenodd;clip-rule:evenodd;fill:none;stroke:#F7A808;stroke-width:2.0464;stroke-miterlimit:10;}
	.st4{fill-rule:evenodd;clip-rule:evenodd;fill:#F7A808;}
</style>
<path class="st0" d="M5.7,2.1C6.6,2,7.3,2.4,7.6,2.8c0.3,0.3,0.5,1,0.4,1.7c-0.1,1-1.1,1.9-2.4,1.7C4.8,6.1,4.1,5.3,4,4.3
	C4,3.6,4.3,3,4.6,2.7C4.8,2.4,5.2,2.2,5.7,2.1z"/>
<path class="st1" d="M10.3,4.1c1.1-0.1,1.9,0.4,2.3,1c0.2,0.4,0.4,0.9,0.4,1.3c0,1.4-1.1,2.4-2.3,2.4c-0.7,0-1.3-0.3-1.7-0.7
	C8.5,7.8,8.2,7.2,8.2,6.5c0-0.9,0.4-1.4,0.8-1.8C9.3,4.4,9.7,4.2,10.3,4.1z"/>
<path class="st2" d="M5.6,9.2c0.5-1,1.7-2.6,2.1-3.2C7.5,7.6,8,8.4,8.4,8.7C7.4,9,6.5,10.1,6,11c-1.3,0-3.3,0-4.6,0
	C1.2,8.4,2.2,7.3,3.1,6.6c0.3-0.2,0.6-0.4,1-0.6C4.3,6,4.3,6,4.3,6.2C4.8,7.2,5.2,8.3,5.6,9.2z"/>
<path class="st1" d="M9,8.8c0.5,1.3,0.9,2.2,1.5,3.4c0.5-1.2,1.4-3.1,1.4-3.2c1.8,0.8,3,2.1,3.1,4.5c-3.1,0-6.2,0-9.3,0
	C5.8,11.2,7.2,9.6,9,8.8z"/>
<g>
	<path class="st3" d="M1.4,8.9C2,11.1,3.5,12.2,5.9,12"/>
	<polygon class="st4" points="5,9.7 5,14.1 7.6,11.9 	"/>
</g>
</svg>
