<?xml version="1.0" standalone="no"?><!DOCTYPE svg PUBLIC "-//W3C//DTD SVG 1.1//EN" "http://www.w3.org/Graphics/SVG/1.1/DTD/svg11.dtd"><svg width="100%" height="100%" viewBox="0 0 16 16" version="1.1" xmlns="http://www.w3.org/2000/svg" xmlns:xlink="http://www.w3.org/1999/xlink" xml:space="preserve" style="fill-rule:evenodd;clip-rule:evenodd;stroke-miterlimit:10;"><g id="Layer 1"><path d="M13.912,8.076c0,3.194 -2.647,5.783 -5.912,5.783c-3.265,0 -5.912,-2.589 -5.912,-5.783c0,-3.194 2.647,-5.784 5.912,-5.784c3.265,0 5.912,2.59 5.912,5.784Z" style="fill:none;stroke-width:1.5px;stroke:#404040;"/><path d="M7.424,10.261l1.214,0l0,1.385l-1.214,0l0,-1.385ZM6.749,4.869c0.32,-0.243 0.712,-0.364 1.178,-0.364c0.612,0 1.12,0.173 1.525,0.518c0.405,0.345 0.606,0.857 0.606,1.535c0,0.415 -0.088,0.765 -0.262,1.05c-0.103,0.173 -0.301,0.394 -0.592,0.662l-0.287,0.264c-0.157,0.144 -0.261,0.311 -0.312,0.503c-0.033,0.122 -0.05,0.31 -0.052,0.566l-1.101,0c0.017,-0.54 0.059,-0.914 0.129,-1.119c0.071,-0.207 0.252,-0.444 0.543,-0.713l0.295,-0.273c0.098,-0.086 0.176,-0.181 0.235,-0.283c0.108,-0.176 0.162,-0.37 0.162,-0.58c0,-0.243 -0.06,-0.465 -0.18,-0.665c-0.12,-0.2 -0.34,-0.3 -0.658,-0.3c-0.314,0 -0.536,0.123 -0.667,0.37c-0.131,0.246 -0.196,0.502 -0.196,0.767l-1.173,0c0.032,-0.911 0.301,-1.557 0.807,-1.938" style="fill:#404040;fill-rule:nonzero;"/></g></svg>