<?xml version="1.0" encoding="utf-8"?>
<!-- Generator: Adobe Illustrator 19.2.1, SVG Export Plug-In . SVG Version: 6.00 Build 0)  -->
<svg version="1.1" id="Layer_1" xmlns="http://www.w3.org/2000/svg" xmlns:xlink="http://www.w3.org/1999/xlink" x="0px" y="0px"
	 viewBox="0 0 16 16" style="enable-background:new 0 0 16 16;" xml:space="preserve">
<style type="text/css">
	.st0{fill:#3E3E3E;}
	.st1{fill:#404040;}
</style>
<path class="st0" d="M1.2,8.5v4.9h13.5V8.5H1.2z M3.1,11.9c-0.5,0-0.9-0.4-0.9-0.9s0.4-0.9,0.9-0.9C3.6,10.1,4,10.5,4,11
	S3.6,11.9,3.1,11.9z M13.9,11.6H5.5v-1.3h8.4V11.6z"/>
<path class="st1" d="M1.2,2V7h13.5V2H1.2z M3.3,5.4C2.8,5.4,2.4,5,2.4,4.5c0-0.5,0.4-0.9,0.9-0.9c0.5,0,0.9,0.4,0.9,0.9
	C4.2,5,3.8,5.4,3.3,5.4z M13.9,5.1H5.5V3.9h8.4V5.1z"/>
<rect x="6.9" y="6.3" class="st1" width="2.3" height="2.6"/>
</svg>
