<?xml version="1.0" encoding="utf-8"?>
<!-- Generator: Adobe Illustrator 19.2.1, SVG Export Plug-In . SVG Version: 6.00 Build 0)  -->
<svg version="1.1" id="Layer_1" xmlns="http://www.w3.org/2000/svg" xmlns:xlink="http://www.w3.org/1999/xlink" x="0px" y="0px"
	 viewBox="0 0 16 16" style="enable-background:new 0 0 16 16;" xml:space="preserve">
<style type="text/css">
	.st0{fill:none;}
	.st1{fill:#F7A808;}
</style>
<g id="Layer_1_1_">
	<rect class="st0" width="16" height="16"/>
</g>
<g id="Layer_2">
	<path class="st1" d="M0.9,4.2v7.6h14.2V4.2H0.9z M4.3,9.7H3.6V8.2H2.3v1.6H1.5V6.3h0.7v1.3h1.4V6.3h0.7C4.3,6.3,4.3,9.7,4.3,9.7z
		 M7.6,6.9h-1v2.9H5.8V6.9h-1V6.3h2.8C7.6,6.3,7.6,6.9,7.6,6.9z M11.3,9.7h-0.7V7.4c0-0.1,0-0.2,0-0.3c0-0.1,0-0.2,0-0.3L10,9.7H9.3
		L8.6,6.8c0,0.1,0,0.2,0,0.3c0,0.1,0,0.2,0,0.3v2.4H8V6.3h1L9.7,9l0.6-2.7h1V9.7z M14.5,9.7H12V6.3h0.7v2.9h1.7v0.5H14.5z"/>
</g>
</svg>
