<?xml version="1.0" encoding="utf-8"?>
<!-- Generator: Adobe Illustrator 19.2.1, SVG Export Plug-In . SVG Version: 6.00 Build 0)  -->
<svg version="1.1" id="Layer_1" xmlns="http://www.w3.org/2000/svg" xmlns:xlink="http://www.w3.org/1999/xlink" x="0px" y="0px"
	 viewBox="0 0 19.8 16" style="enable-background:new 0 0 19.8 16;" xml:space="preserve">
<style type="text/css">
	.st0{fill:#F7A808;}
</style>
<g id="Layer_1_1_">
</g>
<g id="Layer_2">
	<path class="st0" d="M0,3v11h19.8V3.1L0,3z M5.5,12.9H4.4V9H3.3v3.8H2.2V4.3h1.1v3.5h1.1V4.3h1.1V12.9z M9.5,5.6H8.4v7.3H7.2V5.6
		H6.1V4.3h3.5v1.3C9.6,5.6,9.5,5.6,9.5,5.6z M14.7,12.9h-1.1L13.7,6c0,0.1-1.1,6.9-1.1,6.9H12c0,0-1.1-6.8-1.1-6.9
		c0,0.3,0.1,6.9,0.1,6.9h-1V4.3h1.5c0,0,0.9,5.3,0.9,5.5c0-0.2,0.8-5.4,0.8-5.4h1.5V12.9z M18.8,12.9h-2.9V4.3H17v7.3h1.8V12.9z"/>
</g>
</svg>
