<?xml version="1.0" encoding="utf-8"?>
<!-- Generator: Adobe Illustrator 19.2.1, SVG Export Plug-In . SVG Version: 6.00 Build 0)  -->
<svg version="1.0" id="Layer_1" xmlns="http://www.w3.org/2000/svg" xmlns:xlink="http://www.w3.org/1999/xlink" x="0px" y="0px"
	 viewBox="0 0 16 16" style="enable-background:new 0 0 16 16;" xml:space="preserve">
<style type="text/css">
	.st0{fill:#FFFFFF;stroke:#414141;stroke-miterlimit:10;}
	.st1{fill:#414141;}
	.st2{fill:none;}
</style>
<rect x="5.7" y="1" transform="matrix(0.7071 -0.7071 0.7071 0.7071 -3.5928 7.5202)" class="st0" width="3.2" height="14.1"/>
<rect x="7.7" y="6" transform="matrix(0.7071 -0.7071 0.7071 0.7071 -4.4866 9.678)" class="st1" width="3.5" height="8.4"/>
<polygon class="st1" points="10.3,3.7 9.4,3.5 8.7,4.1 8.6,3.2 7.8,2.7 8.6,2.3 8.8,1.4 9.4,2.1 10.4,2 9.9,2.8 "/>
<polygon class="st1" points="2.9,8.9 2.1,8.7 1.6,9.2 1.5,8.4 0.9,8 1.6,7.8 1.7,7 2.2,7.6 3,7.5 2.6,8.2 "/>
<polygon class="st1" points="14.7,7.7 13.3,7.4 12.2,8.4 12.1,6.9 10.8,6.2 12.1,5.6 12.4,4.2 13.4,5.3 14.9,5.1 14.1,6.4 "/>
<rect class="st2" width="16" height="16"/>
</svg>
