<?xml version="1.0" encoding="utf-8"?>
<!-- Generator: Adobe Illustrator 19.2.1, SVG Export Plug-In . SVG Version: 6.00 Build 0)  -->
<svg version="1.1" id="Layer_1" xmlns="http://www.w3.org/2000/svg" xmlns:xlink="http://www.w3.org/1999/xlink" x="0px" y="0px"
	 viewBox="0 0 16 16" style="enable-background:new 0 0 16 16;" xml:space="preserve">
<style type="text/css">
	.st0{fill:#414141;}
	.st1{fill:#3FA9F5;}
	.st2{fill:none;}
</style>
<path class="st0" d="M5,10.9l-0.3-0.8l0,0c-0.3,0.3-0.5,0.6-0.8,0.7C3.6,10.9,3.2,11,2.8,11c-0.5,0-1-0.2-1.3-0.5S1,9.8,1,9.2
	s0.2-1.1,0.6-1.4C2,7.5,2.7,7.3,3.5,7.3h1V7c0-0.6-0.3-0.9-0.9-0.9c-0.5,0-1,0.1-1.6,0.4l-0.5-1C2.2,5.2,2.9,5,3.7,5S5,5.2,5.5,5.5
	C5.9,5.8,6.1,6.4,6.1,7v3.8L5,10.9L5,10.9z M4.5,8.2H3.9c-0.5,0-0.8,0.1-1,0.2S2.6,8.9,2.6,9.2c0,0.4,0.3,0.7,0.8,0.7
	c0.4,0,0.6-0.1,0.9-0.3C4.4,9.3,4.5,9,4.5,8.7V8.2z"/>
<path class="st0" d="M13,10.8c-0.9,0-1.6-0.2-2.1-0.7s-0.8-1.2-0.8-2c0-0.9,0.2-1.6,0.7-2.1s1.1-0.7,2-0.7c0.8,0,1.4,0.2,1.9,0.6
	s0.7,1,0.7,1.8v0.7h-3.6c0,0.4,0.1,0.7,0.4,1s0.6,0.4,1,0.4c0.3,0,0.7,0,1-0.1s0.6-0.2,0.9-0.3v1.1c-0.3,0.1-0.6,0.2-0.9,0.3
	C13.8,10.8,13.4,10.8,13,10.8z M12.8,6.3c-0.3,0-0.6,0.1-0.8,0.3c-0.2,0.2-0.3,0.5-0.3,0.8h2.2c0-0.4-0.1-0.6-0.3-0.8
	S13.1,6.3,12.8,6.3z"/>
<polygon class="st1" points="10.3,2.9 10.3,1.5 8.7,1.5 7.3,1.5 5.7,1.5 5.7,2.9 7.3,2.9 7.3,13.7 5.7,13.7 5.7,15.2 7.3,15.2 
	8.7,15.2 10.3,15.2 10.3,13.7 8.7,13.7 8.7,2.9 "/>
<rect class="st2" width="16" height="16"/>
<rect class="st2" width="16" height="16"/>
</svg>
