<?xml version="1.0" encoding="utf-8"?>
<!-- Generator: Adobe Illustrator 19.2.1, SVG Export Plug-In . SVG Version: 6.00 Build 0)  -->
<svg version="1.1" id="Layer_1" xmlns="http://www.w3.org/2000/svg" xmlns:xlink="http://www.w3.org/1999/xlink" x="0px" y="0px"
	 viewBox="0 0 121.9 123.4" style="enable-background:new 0 0 121.9 123.4;" xml:space="preserve">
<style type="text/css">
	.st0{fill:#404040;}
</style>
<g>
	<path class="st0" d="M74.5,117.2c-0.6-0.2-1.2-0.4-1.8-0.6c-6.1-1.7-9.9-7.7-9-14.2c0.8-6,6.4-10.6,12.6-10.5
		c6,0.1,11.4,4.8,12.1,10.6c0.8,6.8-3,12.6-9.2,14.2c-0.6,0.1-1.1,0.4-1.6,0.5C76.6,117.2,75.5,117.2,74.5,117.2z"/>
	<path class="st0" d="M6.7,50.3c1.3-3.2,3-6,6.6-7c4.6-1.3,9.3,1.1,10.9,5.6c1.6,4.5-0.7,9.6-5.2,11.3c-4.4,1.7-9.4-0.3-11.4-4.7
		C7.3,54.8,7,54,6.7,53.3C6.7,52.3,6.7,51.3,6.7,50.3z"/>
	<path class="st0" d="M46.1,58.7c3.2,0,6.2,0,9.5,0c0,1,0.1,1.9,0.1,2.8c0.1,3.5,1.4,5.1,4.3,5.1c2.7,0,4-1.5,4.1-5
		c0-8.4,0-16.8,0-25.1c0-0.8,0-1.6,0-2.6c0.9-0.1,1.6-0.1,2.4-0.1c9.4,0,18.8-0.1,28.2,0c2.6,0,5.2,0.4,7.7,1.1
		c3.7,1,5.9,3.6,6.4,7.5c0.5,3.7-0.8,6.7-3.8,8.9c-0.4,0.3-0.8,0.6-1.2,1c6,3.6,7.6,6.8,6.4,13.1c-0.7,3.9-3,6.6-6.7,8
		c-2,0.7-4.1,1.3-6.1,1.4c-7.1,0.2-14.3,0.1-21.4,0.1c-0.3,0-0.6-0.1-1.1-0.2c0-2.9,0-5.8,0-8.7c-0.2-0.1-0.3-0.2-0.5-0.3
		c-1.2,4.7-3.7,8.1-8.4,9.3c-4.3,1.1-8.7,1.1-12.9-0.5C48.3,72.5,45.4,67.3,46.1,58.7z M85.4,56.7c0,3,0,5.8,0.1,8.5
		c0,0.4,0.7,1.1,1.1,1.1c3.2,0,6.4,0.1,9.6-0.3c2.9-0.3,4-2,3.9-4.8c-0.1-2.7-1.6-4.4-4.3-4.5C92.4,56.6,89.1,56.7,85.4,56.7z
		 M85.5,49.8c3.2,0,6.3,0.1,9.3,0c2.2-0.1,3.7-1.8,3.7-3.9c0-1.9-0.8-3.7-2.7-3.9c-3.3-0.3-6.7-0.1-10.2-0.1
		C85.5,44.5,85.5,47,85.5,49.8z"/>
	<path class="st0" d="M54.8,100.4c0,6.3-4.7,11.1-11,11.1c-6.2,0-11.2-4.8-11.2-11c0-6.1,5-11.2,11.1-11.2
		C49.8,89.3,54.8,94.2,54.8,100.4z"/>
	<path class="st0" d="M19.3,90.1c-5.6,0-9.9-4.4-9.9-10c0-5.5,4.5-10,10-10c5.6,0,10,4.6,10,10.2C29.4,85.8,24.9,90.1,19.3,90.1z"/>
	<path class="st0" d="M37.4,26.4c0,4.2-3.4,7.6-7.5,7.5c-4.1,0-7.4-3.5-7.4-7.6c0-4,3.4-7.4,7.4-7.4C34,18.8,37.4,22.2,37.4,26.4z"
		/>
	<path class="st0" d="M59.2,15.4c-0.1,3.7-3,6.5-6.8,6.5c-3.8,0-6.7-3.1-6.6-6.9c0.1-3.6,3.2-6.6,6.8-6.5
		C56.3,8.4,59.2,11.5,59.2,15.4z"/>
	<path class="st0" d="M82.1,11.6c-0.1,3.2-2.6,5.6-5.8,5.5c-3-0.1-5.5-2.6-5.5-5.6c0-3,2.7-5.7,5.7-5.7C79.6,5.8,82.1,8.5,82.1,11.6
		z"/>
</g>
</svg>
