<?xml version="1.0" encoding="utf-8"?>
<!-- Generator: Adobe Illustrator 19.2.1, SVG Export Plug-In . SVG Version: 6.00 Build 0)  -->
<svg version="1.1" id="Layer_1" xmlns="http://www.w3.org/2000/svg" xmlns:xlink="http://www.w3.org/1999/xlink" x="0px" y="0px"
	 viewBox="0 0 16 16" style="enable-background:new 0 0 16 16;" xml:space="preserve">
<style type="text/css">
	.st0{fill:#FF6F6F;}
	.st1{fill:none;}
</style>
<g>
	<path class="st0" d="M15,13c-0.6,0-5.6,0-6.2,0.4c-0.2,0.2-0.2,0.5-0.2,0.6H7.4c0,0,0.2-0.5-0.4-0.7C6.2,13,1.1,13,1,13V3.5
		c0.3,0,0.5,0,0.8,0V3C5.4,2.9,7.9,4.3,8,4.4c0,0,1.2-1.5,6.1-1.4c0,0,0,0.5,0,0.6c0,0,0.9,0,0.9-0.1C15,3.6,15,13,15,13z M7.7,12.4
		v-0.1c0-2.4,0-4.9,0-7.3c0-0.1,0-0.2-0.1-0.3C7.3,4.4,4.1,3.3,2,3.5L2,12C2,12.1,3.6,11.8,7.7,12.4z M8.3,12.4
		C8.4,12.4,8.4,12.4,8.3,12.4C12,11.7,14,12.1,14,12c0,0,0-6.5,0-8.5c-3.9-0.1-5.7,1.3-5.7,1.4C8.3,7.3,8.3,12.3,8.3,12.4z"/>
</g>
<rect class="st1" width="16" height="16"/>
</svg>
