<?xml version="1.0" encoding="utf-8"?>
<!-- Generator: Adobe Illustrator 19.2.1, SVG Export Plug-In . SVG Version: 6.00 Build 0)  -->
<svg version="1.1" id="Layer_1" xmlns="http://www.w3.org/2000/svg" xmlns:xlink="http://www.w3.org/1999/xlink" x="0px" y="0px"
	 viewBox="0 0 16 16" style="enable-background:new 0 0 16 16;" xml:space="preserve">
<style type="text/css">
	.st0{fill:#F7A808;}
</style>
<g id="Layer_1_1_">
	<path class="st0" d="M13.3,7.7c0.7,0,1.4,0,2.1,0c0,0.1-0.1,0.1-0.1,0.2c-1,1.1-2,2.3-3,3.5c-1.2-1.2-2.3-2.5-3.4-3.7h2.4
		c-0.1-1-0.5-1.8-1.1-2.4c-0.6-0.6-1.4-1-2.4-1.2C5.5,3.7,3.9,5,3.2,6.5c-0.4,0.9-0.5,2-0.2,3c0.3,0.9,0.8,1.6,1.4,2.1
		c0.7,0.5,1.5,0.9,2.6,0.9c1.1,0,1.9-0.4,2.6-0.9c0.3,0.2,0.5,0.5,0.7,0.8c0.2,0.3,0.5,0.5,0.7,0.8c-0.7,0.6-1.5,1.1-2.5,1.3
		c-1,0.3-2.3,0.2-3.4-0.1c-1.8-0.6-3.3-1.9-4-3.6c-0.4-1-0.6-2.2-0.4-3.3c0.1-1.1,0.5-2,1.1-2.7C2.9,3.2,4.4,2.1,6.7,2
		c2-0.1,3.5,0.7,4.5,1.6C12.4,4.6,13.1,5.9,13.3,7.7"/>
</g>
</svg>
