<?xml version="1.0" encoding="utf-8"?>
<!-- Generator: Adobe Illustrator 19.2.1, SVG Export Plug-In . SVG Version: 6.00 Build 0)  -->
<svg version="1.0" id="Layer_1" xmlns="http://www.w3.org/2000/svg" xmlns:xlink="http://www.w3.org/1999/xlink" x="0px" y="0px"
	 viewBox="0 0 16 16" style="enable-background:new 0 0 16 16;" xml:space="preserve">
<style type="text/css">
	.st0{fill:#404040;}
</style>
<path class="st0" d="M8.6,6.7c0.6-0.6,0.8-0.8,1.5-1.5C9.9,5,9.6,4.9,9.6,4.6c0-0.2,0.1-0.3,0.1-0.4c0-0.4-0.3-0.7-0.5-1
	C8.6,2.5,7.9,1.9,6.9,1.5c-0.2,0-0.4,0-0.5-0.2c0.7-0.3,1.7-0.2,2.3,0c1.4,0.4,4.3,3.1,4.4,3.8c0,0.2-0.1,0.2-0.1,0.4
	c0,0.2,0.8,0.8,0.8,0.8L14,6.1c0,0,0.8,0.7,0.9,0.9l-1.5,1.6c0,0-0.9-0.8-1-1c0.1-0.1,0.3-0.2,0.3-0.2c0,0-0.5-0.6-0.7-0.6
	s-0.3,0.2-0.4,0.1C11.3,6.6,11,6.3,11,6.3c-0.9,0.9-0.9,0.9-1.5,1.5"/>
<path class="st0" d="M1.4,12.6c-0.5,0.5-0.5,1.4,0.1,2l0,0c0.6,0.6,1.5,0.6,2,0.1l5.9-6c0.5-0.5,0.5-1.4-0.1-2l0,0
	C8.8,6.1,7.9,6,7.4,6.6L1.4,12.6z"/>
</svg>
