<?xml version="1.0" standalone="no"?><!DOCTYPE svg PUBLIC "-//W3C//DTD SVG 1.1//EN" "http://www.w3.org/Graphics/SVG/1.1/DTD/svg11.dtd"><svg width="100%" height="100%" viewBox="0 0 16 16" version="1.1" xmlns="http://www.w3.org/2000/svg" xmlns:xlink="http://www.w3.org/1999/xlink" xml:space="preserve" style="fill-rule:evenodd;clip-rule:evenodd;stroke-linejoin:round;stroke-miterlimit:1.41421;"><g id="Layer 1"><path d="M6.761,3.891l0,8.393l-3.713,-0.89l0,-1.405l2.475,0.439l0.039,-6.537l1.199,0Z" style="fill:#404040;fill-rule:nonzero;"/><path d="M7.883,4.129l3.906,0l0,1.393l-2.707,0l-0.039,2.359l2.612,-0.239l-0.312,3.932l-3.46,0.948l0,-1.47l2.319,-0.58l0.079,-1.16l-2.398,0.232l0,-5.415l0,0Z" style="fill:#404040;fill-rule:nonzero;"/><path d="M13.322,9.93l-0.799,-0.126l1.583,-1.956l0.901,2.35l-0.842,-0.134c-0.948,2.875 -3.666,4.856 -6.718,4.856l0,-0.84c2.644,0 5.002,-1.687 5.875,-4.15Z" style="fill:#404040;"/><path d="M1.841,6.109c0.948,-2.875 3.666,-4.856 6.719,-4.856l0,0.842c-2.645,0 -5.002,1.686 -5.876,4.148l0.8,0.127l-1.584,1.955l-0.902,-2.349l0.843,0.133Z" style="fill:#404040;"/></g></svg>