<?xml version="1.0" encoding="utf-8"?>
<!-- Generator: Adobe Illustrator 20.0.0, SVG Export Plug-In . SVG Version: 6.00 Build 0)  -->
<svg version="1.1" id="Layer_1" xmlns="http://www.w3.org/2000/svg" xmlns:xlink="http://www.w3.org/1999/xlink" x="0px" y="0px"
	 viewBox="0 0 16 16" style="enable-background:new 0 0 16 16;" xml:space="preserve">
<style type="text/css">
	.st0{fill:#404040;}
</style>
<path class="st0" d="M7.8,0.7l-6.7,0l1.3,13.8l5.4,1.4l5.6-1.7l1.4-13.5L7.8,0.7z M4.2,11.9L4,9.4l1,0.2l0.1,0.9L6,10.7L5.8,3.9
	c0,0,1,0,1.3,0l0.1,8.8L4.2,11.9z M12.5,13.4l-4.7,1.4V1.7l5.9,0L12.5,13.4z"/>
<path class="st0" d="M8.3,3.8l3.7,0l-0.2,1.6h-2L9.6,7l2,0l-0.3,4.9l-3,0.8V11l1.8-0.3l0.1-2.2l-2,0.1C8.2,8.6,8.2,4.6,8.3,3.8z"/>
</svg>
