<?xml version="1.0" encoding="utf-8"?>
<!-- Generator: Adobe Illustrator 19.2.1, SVG Export Plug-In . SVG Version: 6.00 Build 0)  -->
<svg version="1.1" id="Layer_1" xmlns="http://www.w3.org/2000/svg" xmlns:xlink="http://www.w3.org/1999/xlink" x="0px" y="0px"
	 viewBox="0 0 16 16" style="enable-background:new 0 0 16 16;" xml:space="preserve">
<style type="text/css">
	.st0{fill:none;}
	.st1{fill:#3FA9F5;}
</style>
<g id="Layer_1_1_">
	<rect class="st0" width="16" height="16"/>
</g>
<rect x="1.5" y="5.8" class="st0" width="12.8" height="4.4"/>
<g>
	<path class="st1" d="M0.9,4.2v7.6h14.2V4.2H0.9z M4.1,8.9c0,0.5-0.1,0.8-0.3,1c-0.2,0.2-0.5,0.3-1,0.3c-0.2,0-0.4,0-0.6-0.1
		C2.1,10,1.9,9.9,1.9,9.8S1.7,9.5,1.7,9.4c0-0.2,0-0.3,0-0.5V8.7h0.8v0.1c0,0.2,0,0.4,0.1,0.5c0,0.1,0.2,0.2,0.3,0.2
		c0.2,0,0.3-0.1,0.3-0.2c0-0.1,0.1-0.3,0.1-0.5V5.8h0.9V8.9z M6.9,9.8c-0.3,0.2-0.6,0.3-1.1,0.3c-0.5,0-0.8-0.1-1-0.3
		C4.6,9.6,4.5,9.3,4.5,8.9V8.7h0.9v0.1c0,0.1,0,0.2,0,0.3c0,0.1,0,0.2,0.1,0.2c0,0.1,0.1,0.1,0.2,0.1c0.1,0,0.2,0,0.3,0
		c0.1,0,0.3,0,0.4-0.1S6.4,9.2,6.4,9c0-0.1,0-0.2,0-0.2S6.3,8.6,6.2,8.5C6.2,8.5,6.1,8.4,6,8.4c-0.1,0-0.2-0.1-0.4-0.1
		C5.4,8.2,5.3,8.1,5.1,8C5,8,4.9,7.9,4.8,7.8C4.7,7.7,4.6,7.6,4.6,7.4c0-0.1-0.1-0.3-0.1-0.5c0-0.4,0.1-0.7,0.4-0.9s0.6-0.3,1-0.3
		c0.2,0,0.4,0,0.5,0.1c0.2,0,0.3,0.1,0.4,0.2C6.9,6.1,7,6.2,7.1,6.3c0.1,0.1,0.1,0.3,0.1,0.5V7H6.3c0-0.2,0-0.4-0.1-0.5
		C6.2,6.4,6,6.3,5.9,6.3c-0.1,0-0.2,0-0.2,0c-0.1,0-0.1,0.1-0.2,0.1S5.4,6.6,5.4,6.6c0,0.1,0,0.1,0,0.2c0,0.1,0,0.2,0.1,0.3
		c0.1,0.1,0.2,0.2,0.4,0.2l0.7,0.3c0.2,0.1,0.3,0.1,0.4,0.2C7,8,7.1,8.1,7.1,8.2s0.1,0.2,0.1,0.3c0,0.1,0,0.2,0,0.4
		C7.3,9.3,7.2,9.6,6.9,9.8z M10.5,8.8c0,0.3-0.1,0.5-0.2,0.7c-0.1,0.2-0.2,0.3-0.4,0.5c-0.2,0.1-0.5,0.2-0.8,0.2
		c-0.3,0-0.6-0.1-0.8-0.2C8.1,9.9,8,9.7,7.9,9.5S7.7,9.1,7.7,8.8c0-0.3,0-0.6,0-0.9c0-0.3,0-0.6,0-0.9c0-0.3,0.1-0.5,0.2-0.7
		C8,6.1,8.1,6,8.3,5.9c0.2-0.1,0.5-0.2,0.8-0.2c0.3,0,0.6,0.1,0.8,0.2c0.2,0.1,0.3,0.3,0.4,0.5c0.1,0.2,0.2,0.4,0.2,0.7
		c0,0.3,0,0.6,0,0.9C10.6,8.2,10.6,8.5,10.5,8.8z M13.9,10.1h-1l-1.1-3h0v3h-0.8V5.8h1l1,2.9h0V5.8h0.8V10.1z"/>
	<path class="st1" d="M9.6,6.7c0-0.1-0.1-0.2-0.2-0.3C9.3,6.4,9.2,6.3,9.1,6.3s-0.2,0-0.3,0.1C8.7,6.5,8.7,6.6,8.6,6.7
		S8.5,7,8.5,7.2c0,0.2,0,0.4,0,0.7c0,0.3,0,0.5,0,0.7c0,0.2,0,0.4,0.1,0.5s0.1,0.2,0.2,0.3C8.9,9.5,9,9.5,9.1,9.5s0.2,0,0.3-0.1
		c0.1-0.1,0.1-0.2,0.2-0.3c0-0.1,0.1-0.3,0.1-0.5s0-0.4,0-0.7c0-0.3,0-0.5,0-0.7S9.6,6.8,9.6,6.7z"/>
</g>
</svg>
