<?xml version="1.0" encoding="utf-8"?>
<!-- Generator: Adobe Illustrator 20.0.0, SVG Export Plug-In . SVG Version: 6.00 Build 0)  -->
<svg version="1.1" id="Layer_1" xmlns="http://www.w3.org/2000/svg" xmlns:xlink="http://www.w3.org/1999/xlink" x="0px" y="0px"
	 viewBox="0 0 19.8 16" style="enable-background:new 0 0 19.8 16;" xml:space="preserve">
<style type="text/css">
	.st0{fill:#3FA9F5;}
</style>
<g id="Layer_1_1_">
</g>
<g>
	<path class="st0" d="M11.2,4.9c-0.2,0-0.6,0-0.6,0.9v4.7c0,0.3,0.1,0.5,0.2,0.7c0.1,0.2,0.3,0.2,0.5,0.2c0.2,0,0.4-0.1,0.5-0.2
		s0.2-0.4,0.2-0.7V5.8c0-0.5-0.1-0.5-0.2-0.7S11.4,4.9,11.2,4.9z"/>
	<path class="st0" d="M0,2v12l19.8,0V2.1L0,2z M3.3,10.1c0,0.8-0.1,1.3-0.4,1.7s-0.6,0.6-1.1,0.6l-0.8,0l0-1.3c0,0,0.4,0,0.5,0
		c0.2,0,0.4-0.1,0.5-0.2C2,10.8,2,10.6,2,10.4v-0.1V3.9h1.3V10.1z M7.8,12c-0.4,0.4-0.9,0.5-1.5,0.5S5.1,12.4,4.8,12
		s-0.6-1.1-0.6-1.8L5.4,10c0,0.4,0.1,0.7,0.2,1c0.1,0.3,0.3,0.3,0.6,0.3c0.2,0,0.4-0.1,0.6-0.2S7,10.8,7,10.5c0-0.4-0.4-1-1.1-1.7
		C5.8,8.6,4.8,7.4,4.6,7C4.4,6.6,4.3,6.3,4.3,5.9c0-0.6,0.2-1.1,0.6-1.5C5.3,4,5.8,3.8,6.3,3.8c0.6,0,1,0.2,1.4,0.6
		c0.4,0.4,0.5,1,0.5,1.6L7,6c0-0.4-0.1-0.7-0.2-0.8S6.5,5,6.3,5C6.1,5,5.9,5.1,5.8,5.2C5.7,5.3,5.6,5.5,5.6,5.7
		c0,0.5,0.4,1.1,1.2,1.9L7.2,8c0.6,0.6,0.7,0.8,0.9,1.1s0.3,0.8,0.3,1.2C8.4,11.1,8.2,11.6,7.8,12z M13.2,10.1
		c0,0.7-0.3,1.4-0.6,1.8s-0.8,0.6-1.5,0.6s-1.1-0.2-1.5-0.6s-0.5-1-0.5-1.8V5.8c0-0.7,0.2-1.2,0.5-1.6s0.9-0.6,1.5-0.6
		s1.1,0.2,1.4,0.6s0.6,0.9,0.6,1.6L13.2,10.1z M18.6,12.4h-1.2c0,0-1.8-5.4-1.8-5.6c0,0.3,0.1,5.5,0.1,5.5h-1.2V3.9h1.2
		c0,0,1.9,5.8,1.9,6c0-0.2-0.1-6-0.1-6h1.2v8.5H18.6z"/>
</g>
</svg>
