<?xml version="1.0" encoding="utf-8"?>
<!-- Generator: Adobe Illustrator 20.0.0, SVG Export Plug-In . SVG Version: 6.00 Build 0)  -->
<svg version="1.1" id="Layer_1" xmlns="http://www.w3.org/2000/svg" xmlns:xlink="http://www.w3.org/1999/xlink" x="0px" y="0px"
	 viewBox="0 0 16 16" style="enable-background:new 0 0 16 16;" xml:space="preserve">
<style type="text/css">
	.st0{fill:#756493;}
	.st1{fill:#FFFFFF;}
</style>
<g id="Layer_1_1_">
</g>
<rect y="3.5" class="st0" width="16" height="9"/>
<g>
	<path class="st1" d="M1.5,10.9V10c0,0,0,0,0.1,0c0.1,0,0.1,0,0.1,0c0.2,0,0.3,0,0.3-0.1c0.1-0.1,0.1-0.2,0.1-0.4V9.4V5.1H3v4.3
		c0,0.5-0.1,0.9-0.3,1.2S2.3,10.9,2,10.9H1.5z"/>
	<path class="st1" d="M4,9.4l0.9-0.1C4.9,9.6,5,9.8,5,10s0.2,0.2,0.4,0.2c0.2,0,0.3-0.1,0.4-0.2C6,9.9,6,9.8,6,9.6
		c0-0.3-0.2-0.7-0.7-1.2c0,0-0.1-0.1-0.1-0.1C4.7,7.9,4.4,7.5,4.3,7.3C4.2,7,4.1,6.7,4.1,6.4c0-0.4,0.1-0.8,0.4-1
		C4.8,5.1,5.1,5,5.5,5c0.4,0,0.7,0.1,0.9,0.4C6.7,5.6,6.8,6,6.8,6.4L6,6.6C6,6.3,5.9,6.1,5.8,6C5.8,5.9,5.6,5.8,5.5,5.8
		c-0.1,0-0.3,0-0.3,0.1C5,6.1,5,6.2,5,6.4c0,0.3,0.3,0.8,0.8,1.3c0,0,0,0,0.1,0.1c0.4,0.4,0.7,0.7,0.8,1s0.2,0.5,0.2,0.9
		c0,0.4-0.1,0.8-0.4,1S5.9,11,5.5,11c-0.4,0-0.8-0.1-1.1-0.4C4.2,10.3,4,9.9,4,9.4z"/>
	<path class="st1" d="M7.9,6.4C7.9,6,8,5.6,8.3,5.3C8.5,5.1,8.9,5,9.3,5c0.4,0,0.7,0.1,1,0.4c0.2,0.3,0.4,0.6,0.4,1.1v3
		c0,0.5-0.1,0.9-0.4,1.2c-0.2,0.3-0.6,0.4-1,0.4c-0.4,0-0.8-0.1-1-0.4C8,10.3,7.9,9.9,7.9,9.4V6.4z M9.7,9.6V6.4
		c0-0.2,0-0.4-0.1-0.5C9.6,5.8,9.4,5.8,9.3,5.8C9.1,5.8,9,5.8,8.9,5.9S8.8,6.2,8.8,6.4v3.3c0,0.2,0,0.4,0.1,0.5s0.2,0.2,0.3,0.2
		c0.2,0,0.3-0.1,0.3-0.2C9.7,10,9.7,9.8,9.7,9.6z"/>
	<path class="st1" d="M11.7,10.9V5.1h0.8l1.1,3.5c0,0.1,0,0.2,0.1,0.3s0.1,0.2,0.1,0.4c0-0.2-0.1-0.3-0.1-0.5c0-0.1,0-0.2,0-0.3V5.1
		h0.8v5.8h-0.8l-1.1-3.2c0,0,0,0,0-0.1c-0.1-0.2-0.1-0.4-0.2-0.6c0,0.2,0.1,0.4,0.1,0.5c0,0.1,0,0.2,0,0.3v3H11.7z"/>
</g>
</svg>
