<?xml version="1.0" encoding="utf-8"?>
<!-- Generator: Adobe Illustrator 20.0.0, SVG Export Plug-In . SVG Version: 6.00 Build 0)  -->
<svg version="1.1" id="Layer_1" xmlns="http://www.w3.org/2000/svg" xmlns:xlink="http://www.w3.org/1999/xlink" x="0px" y="0px"
	 viewBox="0 0 16 16" style="enable-background:new 0 0 16 16;" xml:space="preserve">
<style type="text/css">
	.st0{fill:#4FBC78;}
	.st1{fill:#404040;}
	.st2{fill:#FF6F6F;}
</style>
<path class="st0" d="M4,7c-2.3,0-4,1.9-4,4s1.7,4,4,4s4-1.9,4-4S6.3,7,4,7z M7,12H5v2H4H3v-2H1v-2h2V8h2v2h2v1V12z"/>
<path class="st1" d="M11.1,7.3c0-0.1,0.4-1.2,0.1-2.5C10.9,2.5,9,0.7,6.6,0.7C3.9,0.9,1.8,3,1.8,5.6c0,1.2,0.5,2.3,1.2,3.1V8h2v2h2
	v0.3c0.5-0.1,0.9-0.2,1.4-0.4l1.1,1.2l1.1-0.4l0.1,1.5l1.4-0.1l0.1,1.3h3.1v-2.6C15,10.5,11.1,7.3,11.1,7.3z M5.5,6.5
	C4.8,6.5,4,5.9,4,5.1s0.7-1.4,1.4-1.4s1.5,0.6,1.5,1.4C6.9,6,6.2,6.5,5.5,6.5z"/>
<path class="st2" d="M4,7c-2.3,0-4,1.9-4,4s1.7,4,4,4s4-1.9,4-4S6.3,7,4,7z M7,12H1v-2h6v1V12z"/>
</svg>
