<?xml version="1.0" encoding="utf-8"?>
<!-- Generator: Adobe Illustrator 20.0.0, SVG Export Plug-In . SVG Version: 6.00 Build 0)  -->
<svg version="1.1" id="Layer_1" xmlns="http://www.w3.org/2000/svg" xmlns:xlink="http://www.w3.org/1999/xlink" x="0px" y="0px"
	 viewBox="0 0 16 16" style="enable-background:new 0 0 16 16;" xml:space="preserve">
<style type="text/css">
	.st0{fill:none;}
	.st1{fill:none;stroke:#404040;stroke-miterlimit:10;}
	.st2{fill:#404040;}
	.st3{fill:#4FBC78;}
</style>
<rect class="st0" width="16" height="16"/>
<path class="st1" d="M10.9,5.4V4.5c0,0-0.1-1.1,1-1.4c0.9-0.2,2,0.2,2.7-0.2c0.5-0.3,0.6-1.3,0.6-2.3"/>
<path class="st2" d="M0.4,5.7c0,1.9,0,3.8,0,5.7c0.8,0-0.1-1.3,0.6-1.4v0h0c0.1,0,1.8,0,1.9,0l0,0h0V8h0.4c0,0,0-0.1,0-0.1
	c0.4,0,0.7,0,1.1,0c0,0,0,0.1,0,0.1H5v1.7c2.3,0,4.5,0,6.9,0c0,0.3,0,1,0,1.1c-1.8,0-3.3,0-4.9,0V11v0.4l0,0c3.7,0,4.6,0,8.3,0
	c0-1.9,0-3.8,0-5.7C10.4,5.7,5.5,5.7,0.4,5.7z M1.1,6.2c0.4,0,0.8,0,1.1,0c0,0.4,0,0.7,0,1.1c-0.4,0-0.7,0-1.1,0
	C1.1,6.9,1.1,6.6,1.1,6.2z M1.1,9.7c0.4,0,0.6,0,0.9,0L1.1,9.7z M2.8,9C2.2,9,1.7,9,1.1,9c0-0.4,0-0.7,0-1.1c0.6,0,1.1,0,1.7,0
	C2.8,8.3,2.8,8.7,2.8,9z M4,7.3c-0.4,0-0.7,0-1.1,0c0-0.3,0-0.7,0-1.1c0.3,0,0.7,0,1.1,0C4,6.6,4,7,4,7.3z M4.6,7.3
	c0-0.4,0-0.8,0-1.1c0.4,0,0.7,0,1.1,0c0,0.4,0,0.7,0,1.1C5.4,7.3,5,7.3,4.6,7.3z M6.2,9C5.8,9,5.5,9,5.1,9c0-0.3,0-0.7,0-1.1
	c0.4,0,0.8,0,1.1,0C6.2,8.3,6.2,8.6,6.2,9z M6.3,6.2c0.4,0,0.7,0,1.1,0c0,0.4,0,0.7,0,1.1c-0.4,0-0.8,0-1.1,0
	C6.3,6.9,6.3,6.6,6.3,6.2z M7.9,9C7.5,9,7.2,9,6.8,9c0-0.4,0-0.7,0-1.1c0.4,0,0.7,0,1.1,0C7.9,8.3,7.9,8.7,7.9,9z M8,6.2
	c0.3,0,1.1,0,1.1,0c0,0.4,0,0.7,0,1.1c-0.4,0-0.7,0-1.1,0C8,6.9,8,6.6,8,6.2z M9.6,9C9.3,9,8.9,9,8.5,9c0-0.4,0-0.7,0-1.1
	c0.4,0,0.7,0,1.1,0C9.6,8.3,9.6,8.6,9.6,9z M9.7,6.2c0.4,0,0.7,0,1.1,0c0,0.4,0,0.7,0,1.1c-0.4,0-0.7,0-1.1,0
	C9.7,6.9,9.7,6.5,9.7,6.2z M11.4,9c-0.4,0-0.8,0-1.1,0c0-0.4,0-0.7,0-1.1c0.4,0,0.7,0,1.1,0C11.4,8.3,11.4,8.6,11.4,9z M11.4,7.3
	c0-0.4,0-0.7,0-1.1c0.4,0,0.7,0,1.1,0c0,0.4,0,0.7,0,1.1C12.1,7.3,11.7,7.3,11.4,7.3z M12,7.9c0.4,0,0.7,0,1.1,0c0,0.4,0,0.7,0,1.1
	c-0.4,0-0.8,0-1.1,0C12,8.6,12,8.3,12,7.9z M14.8,10.8c-0.8,0-1.5,0-2.3,0c0-0.4,0-0.7,0-1.1c0.8,0,1.5,0,2.3,0
	C14.8,10,14.8,10.4,14.8,10.8z M14.8,9c-0.3,0-0.7,0-1.1,0c0-0.6,0-1.1,0-1.7c-0.2,0-0.4,0-0.6,0c0-0.4,0-0.7,0-1.1
	c0.5,0,1.1,0,1.7,0C14.8,7.1,14.8,8.1,14.8,9z"/>
<path class="st3" d="M4,7c-2.3,0-4,1.9-4,4s1.7,4,4,4s4-1.9,4-4S6.3,7,4,7z M7,12H5v2H4H3v-2H1v-2h2V8h2v2h2v1V12z"/>
</svg>
