<?xml version="1.0" encoding="utf-8"?>
<!-- Generator: Adobe Illustrator 19.2.1, SVG Export Plug-In . SVG Version: 6.00 Build 0)  -->
<svg version="1.1" xmlns="http://www.w3.org/2000/svg" xmlns:xlink="http://www.w3.org/1999/xlink" x="0px" y="0px"
	 viewBox="0 0 16 16" style="enable-background:new 0 0 16 16;" xml:space="preserve">
<style type="text/css">
	.st0{fill:none;}
	.st1{fill:none;stroke:#404040;stroke-miterlimit:10;}
	.st2{fill:#404040;}
</style>
<g id="Layer_1">
	<rect class="st0" width="16" height="16"/>
	<path class="st1" d="M10.9,5.4V4.5c0,0-0.1-1.1,1-1.4c0.9-0.2,2,0.2,2.7-0.2c0.5-0.3,0.6-1.3,0.6-2.3"/>
</g>
<g id="Layer_2">
	<g>
		<path class="st2" d="M15.2,5.7c0,1.9,0,3.8,0,5.7c-4.9,0-9.9,0-14.8,0c0-1.9,0-3.8,0-5.7C5.4,5.7,10.3,5.7,15.2,5.7z M11.8,9.7
			c-2.7,0-5.3,0-8,0c0,0.4,0,0.7,0,1.1c2.7,0,5.3,0,8,0C11.8,10.5,11.8,10.1,11.8,9.7z M13,6.3c0,0.4,0,0.8,0,1.1c0.2,0,0.4,0,0.6,0
			c0,0.6,0,1.1,0,1.7c0.4,0,0.8,0,1.1,0c0-1,0-1.9,0-2.8C14.1,6.3,13.5,6.3,13,6.3z M3.3,10.8c0-0.4,0-0.7,0-1.1c-0.8,0-1.5,0-2.3,0
			c0,0.4,0,0.8,0,1.1C1.7,10.8,2.5,10.8,3.3,10.8z M14.7,9.7c-0.8,0-1.5,0-2.3,0c0,0.4,0,0.7,0,1.1c0.8,0,1.5,0,2.3,0
			C14.7,10.5,14.7,10.1,14.7,9.7z M2.7,8C2.1,8,1.5,8,1,8c0,0.4,0,0.7,0,1.1c0.6,0,1.1,0,1.7,0C2.7,8.7,2.7,8.4,2.7,8z M4.4,7.4
			c0.4,0,0.8,0,1.1,0c0-0.4,0-0.7,0-1.1c-0.4,0-0.7,0-1.1,0C4.4,6.7,4.4,7,4.4,7.4z M7.2,7.4c0-0.4,0-0.7,0-1.1c-0.4,0-0.7,0-1.1,0
			c0,0.4,0,0.7,0,1.1C6.5,7.4,6.9,7.4,7.2,7.4z M7.8,6.3c0,0.4,0,0.8,0,1.1c0.4,0,0.7,0,1.1,0C9,7,9,6.7,9,6.3
			C8.6,6.3,8.2,6.3,7.8,6.3z M9.5,7.4c0.4,0,0.8,0,1.1,0c0-0.4,0-0.7,0-1.1c-0.4,0-0.7,0-1.1,0C9.5,6.7,9.5,7,9.5,7.4z M12.4,7.4
			c0-0.4,0-0.8,0-1.1c-0.4,0-0.7,0-1.1,0c0,0.4,0,0.7,0,1.1C11.6,7.4,12,7.4,12.4,7.4z M2.7,6.3c0,0.4,0,0.8,0,1.1
			c0.4,0,0.7,0,1.1,0c0-0.4,0-0.8,0-1.1C3.4,6.3,3.1,6.3,2.7,6.3z M4.4,9.1c0-0.4,0-0.7,0-1.1C4,8,3.6,8,3.3,8c0,0.4,0,0.7,0,1.1
			C3.6,9.1,4,9.1,4.4,9.1z M5,8c0,0.4,0,0.8,0,1.1c0.4,0,0.7,0,1.1,0c0-0.4,0-0.8,0-1.1C5.7,8,5.4,8,5,8z M7.8,8C7.4,8,7.1,8,6.7,8
			c0,0.4,0,0.7,0,1.1c0.4,0,0.7,0,1.1,0C7.8,8.7,7.8,8.4,7.8,8z M9.5,9.1c0-0.4,0-0.8,0-1.1C9.1,8,8.8,8,8.4,8c0,0.4,0,0.7,0,1.1
			C8.8,9.1,9.1,9.1,9.5,9.1z M11.2,9.1c0-0.4,0-0.8,0-1.1c-0.4,0-0.7,0-1.1,0c0,0.4,0,0.7,0,1.1C10.5,9.1,10.9,9.1,11.2,9.1z
			 M13,9.1c0-0.4,0-0.7,0-1.1c-0.4,0-0.7,0-1.1,0c0,0.4,0,0.7,0,1.1C12.2,9.1,12.6,9.1,13,9.1z M1,6.3C1,6.7,1,7,1,7.4
			c0.4,0,0.7,0,1.1,0c0-0.4,0-0.7,0-1.1C1.7,6.3,1.4,6.3,1,6.3z"/>
	</g>
</g>
</svg>
