<?xml version="1.0" encoding="utf-8"?>
<!-- Generator: Adobe Illustrator 19.2.1, SVG Export Plug-In . SVG Version: 6.00 Build 0)  -->
<svg version="1.1" id="Layer_1" xmlns="http://www.w3.org/2000/svg" xmlns:xlink="http://www.w3.org/1999/xlink" x="0px" y="0px"
	 viewBox="0 0 16 16" style="enable-background:new 0 0 16 16;" xml:space="preserve">
<style type="text/css">
	.st0{fill:#404040;}
	.st1{fill:none;}
	.st2{fill:none;stroke:#404040;stroke-miterlimit:10;}
	.st3{fill:#4FBC78;}
</style>
<g>
	<path class="st0" d="M15.3,5.7c0,1.9,0,3.8,0,5.7c-3.7,0-7.1,0-10.8,0c0,0,0.1-1.3-0.1-1.3s-1.3,0-1.5,0c-0.1,0-0.1,1.3-0.2,1.3
		c-0.8,0-1.5,0-2.3,0c0-1.9,0-3.8,0-5.7C5.5,5.7,10.4,5.7,15.3,5.7z M11.9,9.7c-2.7,0-5.3,0-7.9,0c0,0.4,0.5,0.1,0.5,0.4
		c0.1,0,0,0.7,0.1,0.7c2.6,0,4.7,0,7.3,0C11.9,10.7,11.9,10,11.9,9.7z M13.1,6.2c0,0.4,0,0.7,0,1.1c0.2,0,0.4,0,0.6,0
		c0,0.6,0,1.1,0,1.7c0.4,0,0.8,0,1.1,0c0-0.9,0-1.9,0-2.8C14.2,6.2,13.6,6.2,13.1,6.2z M3.1,10.1c0-0.4,0.3-0.1,0.3-0.4
		c-0.8,0-1.5,0-2.3,0c0,0.4,0,0.7,0,1.1C1.9,10.8,2.4,10.1,3.1,10.1z M14.8,9.7c-0.8,0-1.5,0-2.3,0c0,0.4,0,0.7,0,1.1
		c0.8,0,1.5,0,2.3,0C14.8,10.4,14.8,10,14.8,9.7z M2.8,7.9c-0.6,0-1.1,0-1.7,0c0,0.4,0,0.7,0,1.1c0.6,0,1.1,0,1.7,0
		C2.8,8.7,2.8,8.3,2.8,7.9z M4.6,7.3c0.4,0,0.8,0,1.1,0c0-0.4,0-0.7,0-1.1c-0.4,0-0.7,0-1.1,0C4.6,6.5,4.6,6.9,4.6,7.3z M7.4,7.3
		c0-0.4,0-0.7,0-1.1c-0.4,0-0.7,0-1.1,0c0,0.4,0,0.7,0,1.1C6.6,7.3,7,7.3,7.4,7.3z M8,6.2c0,0.4,0,0.7,0,1.1c0.4,0,0.7,0,1.1,0
		c0-0.4,0-0.7,0-1.1C9.1,6.2,8.3,6.2,8,6.2z M9.7,7.3c0.4,0,0.7,0,1.1,0c0-0.4,0-0.7,0-1.1c-0.4,0-0.7,0-1.1,0
		C9.7,6.5,9.7,6.9,9.7,7.3z M12.5,7.3c0-0.4,0-0.7,0-1.1c-0.4,0-0.7,0-1.1,0c0,0.4,0,0.7,0,1.1C11.7,7.3,12.1,7.3,12.5,7.3z
		 M2.9,6.2c0,0.4,0,0.8,0,1.1c0.4,0,0.7,0,1.1,0C4,7,4,6.6,4,6.2C3.6,6.2,3.2,6.2,2.9,6.2z M4.5,9c0-0.4,0-0.7,0-1.1
		c-0.4,0-0.7,0-1.1,0c0,0.4,0,0.7,0,1.1C3.8,9,4.2,9,4.5,9z M5.1,7.9c0,0.4,0,0.8,0,1.1c0.4,0,0.7,0,1.1,0c0-0.4,0-0.7,0-1.1
		C5.9,7.9,5.5,7.9,5.1,7.9z M7.9,7.9c-0.4,0-0.7,0-1.1,0c0,0.4,0,0.7,0,1.1c0.4,0,0.7,0,1.1,0C7.9,8.7,7.9,8.3,7.9,7.9z M9.6,9
		c0-0.4,0-0.7,0-1.1c-0.4,0-0.7,0-1.1,0c0,0.4,0,0.7,0,1.1C8.9,9,9.3,9,9.6,9z M11.4,9c0-0.4,0-0.7,0-1.1c-0.4,0-0.7,0-1.1,0
		c0,0.4,0,0.7,0,1.1C10.6,9,11,9,11.4,9z M13.1,9c0-0.4,0-0.7,0-1.1c-0.4,0-0.7,0-1.1,0c0,0.4,0,0.7,0,1.1C12.3,9,12.7,9,13.1,9z
		 M1.1,6.2c0,0.4,0,0.7,0,1.1c0.4,0,0.7,0,1.1,0c0-0.4,0-0.7,0-1.1C1.9,6.2,1.5,6.2,1.1,6.2z"/>
</g>
<rect class="st1" width="16" height="16"/>
<path class="st2" d="M10.9,5.4V4.5c0,0-0.1-1.1,1-1.4c0.9-0.2,2,0.2,2.7-0.2c0.5-0.3,0.6-1.3,0.6-2.3"/>
<path class="st3" d="M3.8,9.1c-1.8,0-3.1,1.4-3.1,3.1s1.4,3.1,3.1,3.1s3.1-1.4,3.1-3.1S5.5,9.1,3.8,9.1z M6,12.8H4.5v1.5H3v-1.5H1.5
	v-1.2H3v-1.5h1.5v1.5H6V12.8L6,12.8z"/>
</svg>
