<?xml version="1.0" encoding="utf-8"?>
<!-- Generator: Adobe Illustrator 19.2.1, SVG Export Plug-In . SVG Version: 6.00 Build 0)  -->
<svg version="1.1" id="Layer_1" xmlns="http://www.w3.org/2000/svg" xmlns:xlink="http://www.w3.org/1999/xlink" x="0px" y="0px"
	 viewBox="0 0 32 32" style="enable-background:new 0 0 32 32;" xml:space="preserve">
<style type="text/css">
	.st0{fill:#404040;}
</style>
<path class="st0" d="M20.3,17.3c1.7-2.2,3.5-4.4,5.3-6.6c1.7,2.2,3.5,4.4,5.2,6.6c0,0,0,0,0,0c-0.1,0-0.1,0-0.2,0
	c-0.9,0-1.8,0-2.6,0c-0.1,0-0.2,0-0.2,0.2c-0.1,1.2-0.3,2.3-0.7,3.4c-0.7,1.8-1.8,3.4-3.2,4.7c-1.2,1.1-2.7,1.9-4.2,2.4
	c-1.6,0.5-3.2,0.7-4.9,0.5c-2.2-0.2-4.2-1-5.9-2.3c0,0-0.1-0.1-0.1-0.1c0,0,0,0,0,0c0,0,0.1-0.1,0.1-0.1c0.8-1,1.6-2,2.4-3.1
	c0.1-0.1,0.1-0.1,0.3,0c0.9,0.7,1.9,1.1,3,1.4c0.9,0.2,1.9,0.2,2.8,0c2.7-0.5,4.6-2,5.7-4.5c0.3-0.7,0.5-1.5,0.6-2.3
	c0-0.2-0.1-0.2-0.2-0.2c-0.9,0-1.8,0-2.7,0C20.5,17.3,20.4,17.3,20.3,17.3C20.3,17.3,20.3,17.3,20.3,17.3z"/>
<path class="st0" d="M11.2,14.5c-1.7,2.2-3.5,4.4-5.2,6.6c-1.7-2.2-5-6.6-5-6.6c0.9,0,1.7,0,2.6,0c0.1,0,0.2,0,0.2-0.2
	c0.1-1.6,0.5-3.1,1.2-4.5c1.3-2.5,3.2-4.3,5.7-5.5c0.9-0.4,1.7-0.7,2.7-0.9c1.1-0.2,2.2-0.3,3.3-0.2c2.2,0.2,4.2,1,6,2.3
	c0.3,0.2,0.3,0.2,0.1,0.4c-0.8,1-1.6,1.9-2.3,2.9c-0.1,0.1-0.2,0.1-0.3,0c-0.8-0.6-1.6-1-2.5-1.2c-0.9-0.2-1.8-0.3-2.7-0.2
	c-1.8,0.2-3.4,0.9-4.7,2.2c-1,1-1.7,2.1-2,3.4c-0.1,0.4-0.2,0.8-0.2,1.2c0,0.1,0,0.2,0.2,0.2c0.9,0,1.8,0,2.8,0
	C11.1,14.5,11.2,14.5,11.2,14.5C11.2,14.5,11.2,14.5,11.2,14.5z"/>
<circle class="st0" cx="15.6" cy="16" r="4"/>
</svg>
