<?xml version="1.0" encoding="utf-8"?>
<!-- Generator: Adobe Illustrator 19.2.1, SVG Export Plug-In . SVG Version: 6.00 Build 0)  -->
<svg version="1.1" id="Layer_1" xmlns="http://www.w3.org/2000/svg" xmlns:xlink="http://www.w3.org/1999/xlink" x="0px" y="0px"
	 viewBox="0 0 32 32" style="enable-background:new 0 0 32 32;" xml:space="preserve">
<style type="text/css">
	.st0{fill:#404040;}
	.st1{fill:#3E3E3E;}
</style>
<path class="st0" d="M20,17.7c1.7-2.2,3.5-4.4,5.3-6.6c1.7,2.2,3.5,4.4,5.2,6.6c0,0,0,0,0,0c-0.1,0-0.1,0-0.2,0c-0.9,0-1.8,0-2.6,0
	c-0.1,0-0.2,0-0.2,0.2c-0.1,1.2-0.3,2.3-0.7,3.4C26,23.2,25,24.7,23.5,26c-1.2,1.1-2.7,1.9-4.2,2.4C17.7,29,16,29.2,14.3,29
	c-2.2-0.2-4.2-1-5.9-2.3c0,0-0.1-0.1-0.1-0.1c0,0,0,0,0,0c0,0,0.1-0.1,0.1-0.1c0.8-1,1.6-2,2.4-3.1c0.1-0.1,0.1-0.1,0.3,0
	c0.9,0.7,1.9,1.1,3,1.4c0.9,0.2,1.9,0.2,2.8,0c2.7-0.5,4.6-2,5.7-4.5c0.3-0.7,0.5-1.5,0.6-2.3c0-0.2-0.1-0.2-0.2-0.2
	c-0.9,0-1.8,0-2.7,0C20.2,17.8,20.1,17.8,20,17.7C20,17.7,20,17.7,20,17.7z"/>
<path class="st0" d="M11.3,14.8c-1.7,2.2-3.5,4.4-5.2,6.6c-1.7-2.2-5-6.6-5-6.6c0.9,0,1.7,0,2.6,0c0.1,0,0.2,0,0.2-0.2
	C4,13,4.4,11.5,5.1,10.1c1.3-2.5,3.2-4.3,5.7-5.5c0.9-0.4,1.7-0.7,2.7-0.9c1.1-0.2,2.2-0.3,3.3-0.2c2.2,0.2,4.2,1,6,2.3
	C23.2,6,23.1,6,22.9,6.2c-0.8,1-1.6,1.9-2.3,2.9c-0.1,0.1-0.2,0.1-0.3,0c-0.8-0.6-1.6-1-2.5-1.2c-0.9-0.2-1.8-0.3-2.7-0.2
	c-1.8,0.2-3.4,0.9-4.7,2.2c-1,1-1.7,2.1-2,3.4c-0.1,0.4-0.2,0.8-0.2,1.2c0,0.1,0,0.2,0.2,0.2c0.9,0,1.8,0,2.8,0
	C11.2,14.7,11.2,14.7,11.3,14.8C11.3,14.7,11.3,14.8,11.3,14.8z"/>
<path class="st1" d="M14.8,11c1.1-0.1,2,0.4,2.4,1.1c0.2,0.4,0.4,0.9,0.4,1.4c0,1.5-1.1,2.5-2.5,2.5c-0.8,0-1.3-0.3-1.7-0.7
	c-0.4-0.4-0.7-1-0.7-1.7c0-0.9,0.4-1.5,0.8-1.9C13.7,11.3,14.2,11.1,14.8,11"/>
<path class="st1" d="M13.4,16.3c0.6,1.3,1.1,2.6,1.7,3.9c0.6-1.3,1.1-2.6,1.6-3.9c1.9,0.8,3.1,2.2,3.3,4.7h-9.8
	C10.3,18.5,11.6,17.1,13.4,16.3"/>
</svg>
