<?xml version="1.0" encoding="utf-8"?>
<!-- Generator: Adobe Illustrator 20.0.0, SVG Export Plug-In . SVG Version: 6.00 Build 0)  -->
<svg version="1.1" id="Layer_1" xmlns="http://www.w3.org/2000/svg" xmlns:xlink="http://www.w3.org/1999/xlink" x="0px" y="0px"
	 viewBox="0 0 16 16" style="enable-background:new 0 0 16 16;" xml:space="preserve">
<style type="text/css">
	.st0{fill:#404040;}
	.st1{fill:none;stroke:#404040;stroke-width:0.9838;stroke-miterlimit:10;}
</style>
<g>
	<path class="st0" d="M8.4,8.1l0.8-1.5h0.5L8.9,8.2v2.9H8.4V8.1z"/>
	<path class="st0" d="M7.5,8.1L6.8,6.5H6.2l0.9,1.6V11h0.5C7.5,11.1,7.5,8.1,7.5,8.1z"/>
</g>
<rect x="6" y="13" class="st0" width="4" height="1"/>
<path class="st1" d="M12,5.4c0-2.1-1.8-3.9-4-3.9S4,3.2,4,5.4c0,1.4,0.7,2.5,1.8,3.2v3h4.4v-3C11.3,7.9,12,6.7,12,5.4z"/>
<rect x="7" y="14" class="st0" width="2" height="1"/>
</svg>
