<?xml version="1.0" standalone="no"?><!DOCTYPE svg PUBLIC "-//W3C//DTD SVG 1.1//EN" "http://www.w3.org/Graphics/SVG/1.1/DTD/svg11.dtd"><svg width="100%" height="100%" viewBox="0 0 16 16" version="1.1" xmlns="http://www.w3.org/2000/svg" xmlns:xlink="http://www.w3.org/1999/xlink" xml:space="preserve" style="fill-rule:evenodd;clip-rule:evenodd;stroke-linejoin:round;stroke-miterlimit:1.41421;"><g id="Layer 2"><g><g><g><path d="M5.614,11.756l0,-0.004l-0.005,-0.032l-0.004,-0.022l-0.006,-0.031l-0.008,-0.039l-0.011,-0.046l-0.013,-0.054l-0.016,-0.061l-0.019,-0.069l-0.023,-0.077l-0.026,-0.085l-0.03,-0.094l-0.035,-0.102l-0.039,-0.111l-0.043,-0.12l-0.049,-0.129l-0.054,-0.138l-0.059,-0.147l-0.065,-0.157l-0.071,-0.166l-0.078,-0.176l-0.084,-0.187l-0.09,-0.196l-0.098,-0.207l-0.104,-0.218l-0.113,-0.228l-0.12,-0.239l-0.13,-0.253l-0.061,-0.12l-0.06,-0.122l-0.058,-0.121l-0.055,-0.12l-0.054,-0.119l-0.051,-0.118l-0.048,-0.118l-0.047,-0.116l-0.044,-0.116l-0.043,-0.115l-0.04,-0.113l-0.037,-0.113l-0.036,-0.112l-0.033,-0.112l-0.032,-0.11l-0.029,-0.11l-0.027,-0.108l-0.025,-0.108l-0.023,-0.107l-0.021,-0.106l-0.019,-0.106l-0.017,-0.104l-0.015,-0.104l-0.013,-0.102l-0.01,-0.102l-0.009,-0.102l-0.007,-0.1l-0.005,-0.099l-0.003,-0.099l-0.001,-0.097l0.001,-0.097l0.002,-0.096l0.005,-0.095l0.007,-0.094l0.008,-0.093l0.01,-0.092l0.012,-0.091l0.014,-0.091l0.015,-0.089l0.018,-0.088l0.019,-0.087l0.02,-0.087l0.023,-0.085l0.024,-0.084l0.025,-0.083l0.028,-0.082l0.028,-0.08l0.031,-0.08l0.031,-0.079l0.034,-0.077l0.034,-0.076l0.036,-0.076l0.038,-0.073l0.038,-0.073l0.04,-0.072l0.041,-0.07l0.043,-0.069l0.043,-0.068l0.045,-0.067l0.045,-0.066l0.047,-0.064l0.048,-0.063l0.049,-0.062l0.049,-0.061l0.051,-0.059l0.051,-0.059l0.053,-0.057l0.053,-0.056l0.053,-0.055l0.055,-0.053l0.055,-0.053l0.056,-0.051l0.056,-0.05l0.057,-0.049l0.058,-0.048l0.058,-0.047l0.059,-0.046l0.059,-0.045l0.059,-0.043l0.06,-0.043l0.061,-0.041l0.06,-0.04l0.061,-0.04l0.062,-0.038l0.061,-0.037l0.062,-0.036l0.062,-0.036l0.063,-0.034l0.062,-0.033l0.063,-0.032l0.062,-0.032l0.063,-0.03l0.063,-0.029l0.065,-0.03l0.124,-0.053l0.127,-0.051l0.126,-0.047l0.125,-0.043l0.126,-0.04l0.124,-0.037l0.124,-0.033l0.123,-0.031l0.122,-0.026l0.12,-0.024l0.12,-0.02l0.118,-0.018l0.116,-0.014l0.115,-0.011l0.113,-0.008l0.112,-0.005l0.085,-0.001l0.022,-0.001l0.123,0.002l0.111,0.005l0.114,0.008l0.114,0.011l0.117,0.014l0.118,0.017l0.119,0.021l0.121,0.023l0.122,0.027l0.122,0.03l0.124,0.034l0.125,0.036l0.125,0.04l0.126,0.044l0.126,0.047l0.126,0.051l0.124,0.053l0.065,0.029l0.063,0.03l0.063,0.03l0.063,0.031l0.062,0.033l0.063,0.033l0.062,0.034l0.062,0.035l0.062,0.037l0.062,0.037l0.061,0.038l0.061,0.039l0.061,0.041l0.06,0.041l0.06,0.043l0.059,0.043l0.06,0.045l0.058,0.046l0.058,0.046l0.058,0.048l0.057,0.049l0.056,0.051l0.056,0.051l0.055,0.052l0.055,0.054l0.054,0.055l0.053,0.056l0.052,0.057l0.051,0.058l0.051,0.06l0.05,0.061l0.048,0.062l0.048,0.063l0.047,0.064l0.045,0.066l0.045,0.066l0.044,0.068l0.042,0.069l0.041,0.071l0.04,0.071l0.039,0.073l0.037,0.074l0.036,0.075l0.035,0.076l0.033,0.078l0.032,0.078l0.03,0.08l0.029,0.081l0.027,0.082l0.026,0.083l0.024,0.084l0.022,0.085l0.021,0.086l0.019,0.087l0.017,0.089l0.015,0.089l0.014,0.09l0.012,0.091l0.01,0.093l0.009,0.093l0.006,0.094l0.005,0.095l0.003,0.095l0.001,0.097l-0.001,0.098l-0.003,0.098l-0.005,0.1l-0.007,0.1l-0.009,0.101l-0.011,0.102l-0.013,0.103l-0.015,0.103l-0.016,0.105l-0.019,0.105l-0.021,0.106l-0.023,0.107l-0.025,0.108l-0.028,0.109l-0.029,0.109l-0.031,0.111l-0.034,0.111l-0.035,0.112l-0.038,0.113l-0.04,0.114l-0.042,0.115l-0.045,0.115l-0.046,0.117l-0.049,0.117l-0.051,0.118l-0.053,0.119l-0.056,0.121l-0.058,0.121l-0.06,0.122l-0.061,0.119l-0.13,0.254l-0.12,0.239l-0.112,0.228l-0.105,0.217l-0.097,0.207l-0.091,0.197l-0.084,0.186l-0.077,0.177l-0.071,0.166l-0.065,0.157l-0.06,0.147l-0.053,0.138l-0.049,0.129l-0.044,0.119l-0.039,0.111l-0.034,0.103l-0.03,0.093l-0.027,0.086l-0.022,0.077l-0.02,0.069l-0.016,0.061l-0.013,0.054l-0.01,0.046l-0.009,0.039l-0.006,0.031l-0.003,0.021l-0.005,0.033l-0.001,0.004l-0.048,0.695l-4.799,0l-0.048,-0.695ZM9.178,10.888l0.032,-0.104l0.036,-0.113l0.041,-0.12l0.045,-0.128l0.05,-0.136l0.054,-0.145l0.06,-0.153l0.065,-0.162l0.071,-0.171l0.077,-0.18l0.083,-0.19l0.09,-0.199l0.096,-0.208l0.103,-0.219l0.11,-0.229l0.118,-0.239l0.126,-0.25l0.131,-0.257l0.056,-0.11l0.052,-0.105l0.05,-0.104l0.047,-0.103l0.046,-0.101l0.043,-0.1l0.041,-0.099l0.039,-0.097l0.037,-0.096l0.034,-0.094l0.033,-0.093l0.031,-0.092l0.028,-0.09l0.027,-0.089l0.025,-0.088l0.023,-0.086l0.021,-0.085l0.02,-0.084l0.017,-0.082l0.016,-0.081l0.015,-0.08l0.012,-0.078l0.011,-0.077l0.01,-0.076l0.008,-0.075l0.006,-0.073l0.005,-0.072l0.004,-0.07l0.002,-0.07l0,-0.068l0,-0.067l-0.002,-0.066l-0.003,-0.065l-0.005,-0.064l-0.005,-0.062l-0.007,-0.061l-0.008,-0.061l-0.009,-0.059l-0.01,-0.058l-0.011,-0.058l-0.013,-0.056l-0.013,-0.055l-0.014,-0.054l-0.015,-0.054l-0.017,-0.052l-0.017,-0.052l-0.018,-0.051l-0.019,-0.05l-0.02,-0.049l-0.021,-0.049l-0.021,-0.047l-0.023,-0.047l-0.023,-0.047l-0.024,-0.045l-0.025,-0.045l-0.026,-0.044l-0.027,-0.044l-0.027,-0.042l-0.028,-0.043l-0.029,-0.041l-0.03,-0.041l-0.031,-0.04l-0.031,-0.04l-0.032,-0.039l-0.032,-0.038l-0.034,-0.038l-0.034,-0.038l-0.034,-0.036l-0.036,-0.036l-0.036,-0.036l-0.036,-0.034l-0.038,-0.035l-0.037,-0.033l-0.039,-0.033l-0.039,-0.033l-0.04,-0.032l-0.04,-0.031l-0.04,-0.031l-0.041,-0.03l-0.042,-0.029l-0.042,-0.029l-0.042,-0.028l-0.043,-0.028l-0.044,-0.027l-0.043,-0.026l-0.044,-0.026l-0.044,-0.025l-0.045,-0.025l-0.045,-0.024l-0.045,-0.023l-0.045,-0.022l-0.046,-0.022l-0.046,-0.022l-0.043,-0.02l-0.094,-0.04l-0.093,-0.037l-0.092,-0.035l-0.092,-0.031l-0.092,-0.03l-0.091,-0.027l-0.09,-0.024l-0.089,-0.022l-0.088,-0.019l-0.086,-0.017l-0.084,-0.014l-0.082,-0.012l-0.08,-0.01l-0.076,-0.008l-0.074,-0.005l-0.07,-0.003l-0.053,-0.001l0.001,0l-0.09,0.002l-0.071,0.003l-0.073,0.005l-0.077,0.007l-0.08,0.01l-0.082,0.012l-0.084,0.014l-0.086,0.017l-0.088,0.02l-0.089,0.021l-0.09,0.025l-0.091,0.027l-0.092,0.029l-0.092,0.032l-0.092,0.034l-0.092,0.037l-0.095,0.041l-0.043,0.019l-0.046,0.022l-0.045,0.022l-0.046,0.022l-0.045,0.024l-0.045,0.024l-0.044,0.024l-0.045,0.025l-0.044,0.026l-0.043,0.026l-0.043,0.027l-0.043,0.028l-0.043,0.028l-0.042,0.029l-0.041,0.029l-0.042,0.031l-0.04,0.03l-0.04,0.031l-0.04,0.032l-0.039,0.033l-0.038,0.033l-0.038,0.034l-0.037,0.034l-0.037,0.035l-0.036,0.035l-0.035,0.036l-0.035,0.037l-0.034,0.037l-0.033,0.038l-0.033,0.038l-0.032,0.039l-0.031,0.04l-0.031,0.04l-0.029,0.041l-0.029,0.042l-0.029,0.042l-0.027,0.043l-0.027,0.043l-0.025,0.044l-0.025,0.045l-0.025,0.046l-0.023,0.046l-0.022,0.047l-0.022,0.048l-0.021,0.048l-0.02,0.049l-0.019,0.05l-0.018,0.051l-0.017,0.052l-0.016,0.052l-0.016,0.054l-0.014,0.054l-0.013,0.056l-0.012,0.056l-0.012,0.057l-0.01,0.058l-0.009,0.06l-0.008,0.06l-0.006,0.061l-0.006,0.063l-0.004,0.063l-0.004,0.065l-0.002,0.066l0,0.067l0.001,0.068l0.002,0.07l0.003,0.071l0.005,0.072l0.007,0.073l0.007,0.074l0.01,0.076l0.011,0.077l0.013,0.078l0.014,0.08l0.016,0.081l0.018,0.082l0.019,0.084l0.021,0.085l0.023,0.086l0.025,0.088l0.027,0.089l0.029,0.09l0.03,0.092l0.033,0.093l0.035,0.095l0.037,0.096l0.039,0.097l0.04,0.098l0.044,0.1l0.045,0.102l0.047,0.102l0.05,0.104l0.052,0.106l0.056,0.11l0.132,0.257l0.125,0.249l0.118,0.24l0.11,0.228l0.103,0.219l0.097,0.209l0.089,0.199l0.083,0.189l0.077,0.18l0.071,0.171l0.065,0.162l0.06,0.154l0.055,0.144l0.049,0.136l0.045,0.128l0.041,0.121l0.036,0.112l0.033,0.105l0.018,0.062l2.196,0l0.018,-0.063Z" style="fill:#404040;"/><g><path d="M8.513,8.066l0.875,-1.69l0.563,0l-0.908,1.807l0,3.206l-0.53,0l0,-3.323Z" style="fill:#404040;fill-rule:nonzero;"/><path d="M7.61,8.066l-0.874,-1.69l-0.564,0l0.908,1.807l0,3.206l0.53,0l0,-3.323Z" style="fill:#404040;fill-rule:nonzero;"/></g></g><g><rect x="5.998" y="12.861" width="4.127" height="0.696" style="fill:#404040;fill-rule:nonzero;"/><rect x="6.65" y="13.789" width="2.929" height="0.57" style="fill:#404040;fill-rule:nonzero;"/><rect x="7.114" y="14.591" width="1.841" height="0.619" style="fill:#404040;fill-rule:nonzero;"/></g></g></g></g></svg>