<?xml version="1.0" encoding="utf-8"?>
<!-- Generator: Adobe Illustrator 19.2.1, SVG Export Plug-In . SVG Version: 6.00 Build 0)  -->
<svg version="1.1" id="Layer_1" xmlns="http://www.w3.org/2000/svg" xmlns:xlink="http://www.w3.org/1999/xlink" x="0px" y="0px"
	 viewBox="0 0 16 16" style="enable-background:new 0 0 16 16;" xml:space="preserve">
<style type="text/css">
	.st0{fill:#404040;}
	.st1{fill:none;stroke:#404040;stroke-miterlimit:10;}
</style>
<g>
	<path class="st0" d="M8.5,8.3l0.8-1.6h0.5L9,8.4v3H8.5V8.3z"/>
	<path class="st0" d="M7.6,8.3L6.8,6.7H6.3l0.9,1.7v3h0.5C7.6,11.4,7.6,8.3,7.6,8.3z"/>
</g>
<g>
	<rect x="6.1" y="12.9" class="st0" width="3.9" height="0.7"/>
	<rect x="6.7" y="13.8" class="st0" width="2.7" height="0.5"/>
	<rect x="7.1" y="14.5" class="st0" width="1.7" height="0.6"/>
</g>
<path class="st1" d="M12.1,5.5c0-2.2-1.8-4-4-4s-4,1.8-4,4c0,1.4,0.7,2.6,1.8,3.3v3.1h4.4V8.8C11.4,8.1,12.1,6.9,12.1,5.5z"/>
</svg>
