<?xml version="1.0" encoding="utf-8"?>
<!-- Generator: Adobe Illustrator 19.2.1, SVG Export Plug-In . SVG Version: 6.00 Build 0)  -->
<svg version="1.1" xmlns="http://www.w3.org/2000/svg" xmlns:xlink="http://www.w3.org/1999/xlink" x="0px" y="0px"
	 viewBox="0 0 16 16" style="enable-background:new 0 0 16 16;" xml:space="preserve">
<style type="text/css">
	.st0{fill:none;stroke:#414141;stroke-width:0.9658;stroke-miterlimit:10;}
	.st1{fill:none;stroke:#414141;stroke-width:0.9658;stroke-linecap:round;stroke-miterlimit:10;}
	.st2{fill:none;}
	.st3{fill:#404040;}
</style>
<g id="Layer_2">
</g>
<g id="Layer_1">
	<path class="st0" d="M13.1,8.9L13.1,8.9c0,0.7-0.6,1.4-1.4,1.4l-1.2,0c-0.7,0-1.4-0.6-1.3-1.3l0,0c0-0.7,0.6-1.4,1.4-1.4l1.2,0
		C12.5,7.6,13.1,8.2,13.1,8.9z"/>
	<path class="st0" d="M6.9,9L6.9,9c0,0.7-0.6,1.4-1.4,1.4l-1.2,0c-0.8,0-1.4-0.6-1.4-1.4l0,0c0-0.7,0.6-1.4,1.4-1.4l1.2,0
		C6.3,7.7,6.9,8.3,6.9,9z"/>
	<line class="st1" x1="6" y1="9" x2="10.2" y2="9"/>
	<polyline class="st2" points="16,0 16,16 0,16 	"/>
	<path class="st3" d="M12,2l2,2v10H2V2H12 M13,1C5.9,1,1.6,1,1,1v14l13.9,0L15,4L13,1L13,1z"/>
	<path class="st3" d="M15,4h-4V1l2,0L15,4z"/>
</g>
</svg>
