<?xml version="1.0" encoding="utf-8"?>
<!-- Generator: Adobe Illustrator 19.2.1, SVG Export Plug-In . SVG Version: 6.00 Build 0)  -->
<svg version="1.1" id="Layer_1" xmlns="http://www.w3.org/2000/svg" xmlns:xlink="http://www.w3.org/1999/xlink" x="0px" y="0px"
	 viewBox="0 0 16 16" style="enable-background:new 0 0 16 16;" xml:space="preserve">
<style type="text/css">
	.st0{fill:#404040;}
</style>
<path class="st0" d="M6.3,2.4c0-1.1,0.9-2,2-2c1.1,0,2,0.9,2,2c0,1.1-0.9,2-2,2C7.2,4.4,6.3,3.5,6.3,2.4z"/>
<path class="st0" d="M4.1,5.9c-1,0-1.8-0.8-1.8-1.8c0-1,0.8-1.8,1.8-1.8c1,0,1.8,0.8,1.8,1.8C5.9,5.1,5.1,5.9,4.1,5.9z"/>
<ellipse transform="matrix(1 -1.181254e-03 1.181254e-03 1 -9.830923e-03 2.817174e-03)" class="st0" cx="2.4" cy="8.3" rx="1.6" ry="1.6"/>
<ellipse transform="matrix(3.313650e-03 -1 1 3.313650e-03 -8.4213 16.6057)" class="st0" cx="4.1" cy="12.5" rx="1.5" ry="1.5"/>
<path class="st0" d="M8.3,15.6C7.6,15.6,7,15,7,14.3c0-0.8,0.6-1.3,1.4-1.3c0.7,0,1.3,0.6,1.3,1.3C9.7,15,9.1,15.6,8.3,15.6z"/>
<path class="st0" d="M12.5,11.3c0.7,0,1.2,0.6,1.2,1.3c0,0.6-0.6,1.2-1.2,1.2c-0.7,0-1.2-0.6-1.2-1.3C11.3,11.8,11.9,11.3,12.5,11.3
	z"/>
<ellipse transform="matrix(6.298396e-03 -1 1 6.298396e-03 5.8507 22.5352)" class="st0" cx="14.3" cy="8.3" rx="1.1" ry="1.1"/>
<ellipse transform="matrix(1 -3.559637e-03 3.559637e-03 1 -1.459572e-02 4.460277e-02)" class="st0" cx="12.5" cy="4.1" rx="1" ry="1"/>
</svg>
