<?xml version="1.0" encoding="utf-8"?>
<!-- Generator: Adobe Illustrator 19.2.1, SVG Export Plug-In . SVG Version: 6.00 Build 0)  -->
<svg version="1.1" id="Layer_1" xmlns="http://www.w3.org/2000/svg" xmlns:xlink="http://www.w3.org/1999/xlink" x="0px" y="0px"
	 viewBox="0 0 16 16" style="enable-background:new 0 0 16 16;" xml:space="preserve">
<style type="text/css">
	.st0{fill:#80FE86;}
	.st1{fill:#404040;}
	.st2{fill:#5DE289;}
</style>
<title>local</title>
<ellipse class="st0" cx="8" cy="10.1" rx="5.2" ry="1.7"/>
<path class="st1" d="M7.9,15c-2.9,0-5.2-0.8-5.2-1.8v-1.1l10.6-0.2v1.3C13.4,13.2,12.6,15,7.9,15z"/>
<path class="st1" d="M8,4.9C5,4.9,2.6,4.1,2.7,3S5.1,1.1,8,1.1c3,0,5.3,0.8,5.3,1.9S11,4.9,8,4.9z M8,1.5c-2.8,0-4.8,0.8-4.8,1.5
	s2,1.8,4.8,1.8s4.8-1.1,4.8-1.7S10.9,1.5,8,1.5z"/>
<path class="st1" d="M12.8,3c0,0.9-2.1,1.7-4.8,1.7S3.2,3.9,3.2,3H2.7v9.3h10.6l0-9.3H12.8z"/>
<path class="st2" d="M7.9,10.8c-2,0-5.2-0.5-5.2-2.1V7.5c0,0.5,1.5,1.8,5.2,1.8s5.4-1.2,5.4-1.7v1.4C13.1,10.3,9.8,10.8,7.9,10.8z"
	/>
</svg>
