<?xml version="1.0" encoding="utf-8"?>
<!-- Generator: Adobe Illustrator 19.2.1, SVG Export Plug-In . SVG Version: 6.00 Build 0)  -->
<svg version="1.1" id="Layer_1" xmlns="http://www.w3.org/2000/svg" xmlns:xlink="http://www.w3.org/1999/xlink" x="0px" y="0px"
	 viewBox="0 0 16 16" style="enable-background:new 0 0 16 16;" xml:space="preserve">
<style type="text/css">
	.st0{fill:none;}
	.st1{fill:#404040;stroke:#404040;stroke-width:1.5;stroke-miterlimit:10;}
	.st2{fill:#4FBC78;}
	.st3{fill:#FFFFFF;stroke:#404040;stroke-width:1.5;stroke-miterlimit:10;}
</style>
<title>local</title>
<rect class="st0" width="16" height="16"/>
<path class="st1" d="M13.1,4.1v7.8v-0.1c0,1.4-2.3,2.5-5.1,2.5s-5.1-1.1-5.1-2.5v0.1V4.2"/>
<path class="st2" d="M8,9.9c-2.7,0-3.8-0.7-4.9-1.5l0-1.8c0,0,0.8,2,5.1,1.9c3.2-0.1,5.1-1.3,5.1-2l0,1.4C13.3,9.1,11,9.9,8,9.9z"/>
<ellipse class="st3" cx="8" cy="4.1" rx="5.1" ry="2.5"/>
<path class="st2" d="M8,13.2c-2.7,0-3.8-0.6-4.9-1.5l0-1.8c0,0,0.8,2,5.1,1.9c3.2-0.1,5.1-1.3,5.1-2l0,1.4C13.3,12.4,11,13.2,8,13.2
	z"/>
</svg>
