<?xml version="1.0" encoding="utf-8"?>
<!-- Generator: Adobe Illustrator 20.0.0, SVG Export Plug-In . SVG Version: 6.00 Build 0)  -->
<svg version="1.1" id="Layer_1" xmlns="http://www.w3.org/2000/svg" xmlns:xlink="http://www.w3.org/1999/xlink" x="0px" y="0px"
	 viewBox="0 0 16 16" style="enable-background:new 0 0 16 16;" xml:space="preserve">
<style type="text/css">
	.st0{fill:none;}
	.st1{fill:#404040;stroke:#404040;stroke-width:1.5;stroke-miterlimit:10;}
	.st2{fill:#4FBC78;}
	.st3{fill:#FFFFFF;stroke:#404040;stroke-width:1.5;stroke-miterlimit:10;}
</style>
<title>local</title>
<rect class="st0" width="16" height="16"/>
<path class="st1" d="M13.1,3.7l0,8.2c0,0-0.3,2.2-5,2.3c-2.8,0.1-5.1-1.1-5.1-2.5v0.1V4.1"/>
<path class="st2" d="M8,9.9C5,10,3.9,9.1,3,8.5L3,7c0,0,0.7,1.6,5,1.5c3.2,0,4.8-0.9,5.1-1.5l0,1.4C13,9.1,11.3,9.8,8,9.9z"/>
<path class="st3" d="M8,1.6c2.8,0,5.1,1.1,5.1,2.5S10.8,6.6,8,6.6S2.9,5.4,2.9,4.1S5.2,1.6,8,1.6z"/>
<path class="st2" d="M8,13.4c-2.7,0-4.4-1.1-5-2L3,10c0,0,1.1,2.3,5.1,2.3c3,0,4.9-1.6,4.9-2.3l0,1.8C12.6,12.2,11.4,13.4,8,13.4z"
	/>
</svg>
