<?xml version="1.0" encoding="utf-8"?>
<!-- Generator: Adobe Illustrator 20.0.0, SVG Export Plug-In . SVG Version: 6.00 Build 0)  -->
<svg version="1.1" id="Layer_1" xmlns="http://www.w3.org/2000/svg" xmlns:xlink="http://www.w3.org/1999/xlink" x="0px" y="0px"
	 viewBox="0 0 16 16" style="enable-background:new 0 0 16 16;" xml:space="preserve">
<style type="text/css">
	.st0{fill:#756493;}
	.st1{fill:#404040;}
</style>
<rect x="4" y="6" class="st0" width="1" height="1"/>
<rect x="6" y="6" class="st0" width="5" height="1"/>
<rect x="4" y="8" class="st0" width="1" height="1"/>
<rect x="6" y="8" class="st0" width="5" height="1"/>
<rect x="4" y="10" class="st0" width="1" height="1"/>
<rect x="6" y="10" class="st0" width="5" height="1"/>
<path class="st1" d="M15,6h-3V2l2,0L15,6z"/>
<g>
	<path class="st1" d="M13,3l1,3v8H2V3H13 M14,2H1v13h14V6L14,2L14,2z"/>
</g>
<rect x="4" y="12" class="st0" width="1" height="1"/>
<rect x="6" y="12" class="st0" width="5" height="1"/>
</svg>
