<?xml version="1.0" encoding="utf-8"?>
<!-- Generator: Adobe Illustrator 19.2.1, SVG Export Plug-In . SVG Version: 6.00 Build 0)  -->
<svg version="1.1" id="Layer_1" xmlns="http://www.w3.org/2000/svg" xmlns:xlink="http://www.w3.org/1999/xlink" x="0px" y="0px"
	 viewBox="0 0 16 16" style="enable-background:new 0 0 16 16;" xml:space="preserve">
<style type="text/css">
	.st0{fill:#404040;}
	.st1{fill:none;}
</style>
<circle class="st0" cx="6.3" cy="7.7" r="1.3"/>
<polyline class="st0" points="9.3,5.7 9.3,7.7 8.9,7.7 8.9,5.7 "/>
<rect x="10.4" y="6.5" class="st0" width="0.4" height="2"/>
<polyline class="st0" points="6.8,12.8 6.6,12.4 8.4,11.5 8.6,11.9 6.8,12.8 "/>
<rect x="4.9" y="10.3" transform="matrix(0.8977 -0.4407 0.4407 0.8977 -4.026 3.6763)" class="st0" width="2" height="0.4"/>
<rect x="5" y="6.4" transform="matrix(0.1395 -0.9902 0.9902 0.1395 -2.8695 11.52)" class="st0" width="0.3" height="2"/>
<polyline class="st0" points="5.9,5.5 6.5,7.5 6.2,7.6 5.6,5.6 "/>
<path class="st0" d="M7.8,9l3.1,1.5c0.3-0.4,0.4-0.8,0.4-1.2c0-1.6-1.3-2.8-2.8-2.8s-3,1.3-3,2.9s1.3,2.8,2.8,2.8
	c0.9,0,1.6-0.4,2.1-1C10.5,11.2,7.8,8.9,7.8,9z"/>
<path class="st0" d="M14.6,5.7h-3.1l0-4h0.9L14.6,5.7z"/>
<g>
	<path class="st0" d="M11.6,3.2l1.6,2.5l-0.1,7.7l-10,0l0-10.3L11.6,3.2 M12.4,1.7l-10.8,0l0,13.2l13,0l0.1-9.7L12.4,1.7L12.4,1.7z"
		/>
</g>
<rect class="st1" width="16" height="16"/>
</svg>
