<?xml version="1.0" encoding="utf-8"?>
<!-- Generator: Adobe Illustrator 20.1.0, SVG Export Plug-In . SVG Version: 6.00 Build 0)  -->
<svg version="1.1" id="Layer_1" xmlns="http://www.w3.org/2000/svg" xmlns:xlink="http://www.w3.org/1999/xlink" x="0px" y="0px"
	 viewBox="0 0 16 16" style="enable-background:new 0 0 16 16;" xml:space="preserve">
<style type="text/css">
	.st0{fill:#FF6F6F;}
	.st1{fill:#FFFFFF;stroke:#FFFFFF;stroke-width:0.25;stroke-miterlimit:10;}
	.st2{fill:none;}
</style>
<rect class="st0" width="16" height="16"/>
<g>
	<path class="st1" d="M6.6,5.5c-1.3,0.5-2,1.7-2,3.1c0,1.8,1.5,3.3,3.4,3.3s3.5-1.5,3.5-3.4c0-1.4-0.9-2.7-2-3.1v-1
		c1.8,0.6,3,2.3,3,4.2c0,2.4-2,4.4-4.4,4.4s-4.5-2-4.5-4.5c0-1.9,1.2-3.5,3-4.1V5.5z"/>
</g>
<rect x="7.5" y="2.9" class="st1" width="1" height="6"/>
<polygon class="st2" points="0,0 16,0 16,15.7 0,16 "/>
</svg>
