<?xml version="1.0" encoding="utf-8"?>
<!-- Generator: Adobe Illustrator 19.2.1, SVG Export Plug-In . SVG Version: 6.00 Build 0)  -->
<svg version="1.1" id="Layer_1" xmlns="http://www.w3.org/2000/svg" xmlns:xlink="http://www.w3.org/1999/xlink" x="0px" y="0px"
	 viewBox="0 0 16 16" style="enable-background:new 0 0 16 16;" xml:space="preserve">
<style type="text/css">
	.st0{fill:#414141;}
	.st1{fill:#404040;}
	.st2{fill:none;}
</style>
<g>
	<path class="st0" d="M9.2,13.2l0-1.5c2.3-0.4,3.6-2.3,3.6-4.5c0-2.6-2.1-4.7-4.8-4.7c-2.6,0-4.8,2.1-4.8,4.7c0,2.2,1.6,4.3,3.4,4.5
		l0,1.5C3.8,12.5,1.8,10,1.8,7.2c0-3.4,2.8-6.1,6.2-6.1c3.4,0,6.2,2.7,6.2,6.1C14.2,10.1,12.2,12.6,9.2,13.2z"/>
</g>
<rect x="7.2" y="7.4" class="st1" width="1.5" height="7.8"/>
<rect class="st2" width="16" height="16"/>
</svg>
