<?xml version="1.0" encoding="utf-8"?>
<!-- Generator: Adobe Illustrator 20.0.0, SVG Export Plug-In . SVG Version: 6.00 Build 0)  -->
<svg version="1.1" id="Layer_1" xmlns="http://www.w3.org/2000/svg" xmlns:xlink="http://www.w3.org/1999/xlink" x="0px" y="0px"
	 viewBox="0 0 16 16" style="enable-background:new 0 0 16 16;" xml:space="preserve">
<style type="text/css">
	.st0{fill:#4FBC78;}
	.st1{fill:#FFFFFF;}
</style>
<rect y="3.5" class="st0" width="16" height="9"/>
<g>
	<path class="st1" d="M2,9.3V6.7c0-0.5,0.2-1,0.5-1.3s0.7-0.5,1.2-0.5s0.9,0.2,1.2,0.5s0.4,0.7,0.4,1.3v0.5H4.1V6.6
		c0-0.2,0-0.4-0.1-0.5C3.9,6,3.8,5.9,3.6,5.9C3.4,5.9,3.3,6,3.2,6.1S3.1,6.4,3.1,6.6v2.6c0,0.3,0,0.5,0.1,0.6
		c0.1,0.2,0.2,0.3,0.4,0.3S3.9,10,4,9.9c0.1-0.1,0.1-0.3,0.1-0.7V8.8h1.1v0.5c0,0.6-0.1,1.1-0.4,1.4c-0.3,0.3-0.7,0.5-1.2,0.5
		S2.7,11,2.4,10.7C2.1,10.3,2,9.9,2,9.3z"/>
	<path class="st1" d="M6.3,9.4l1.1-0.2c0,0.3,0.1,0.6,0.2,0.7c0.1,0.1,0.3,0.2,0.5,0.2s0.3,0,0.4-0.1c0.1-0.1,0.1-0.2,0.1-0.4
		c0-0.3-0.4-0.7-1.1-1.3l0,0C7,7.9,6.8,7.7,6.6,7.4C6.5,7.1,6.4,6.8,6.4,6.5c0-0.5,0.2-0.9,0.5-1.2C7.1,5,7.5,4.9,8,4.9
		c0.5,0,0.8,0.1,1.1,0.4S9.5,6,9.6,6.4l-1,0.3c0-0.3-0.1-0.4-0.2-0.6S8.1,5.9,8,5.9c-0.1,0-0.3,0-0.4,0.1C7.5,6.2,7.5,6.3,7.5,6.4
		c0,0.3,0.3,0.6,0.8,1c0.1,0.1,0.3,0.2,0.3,0.3C9,8,9.3,8.3,9.4,8.6c0.2,0.3,0.2,0.6,0.2,0.9c0,0.5-0.2,0.9-0.5,1.2
		C8.9,11,8.5,11.1,8,11.1s-0.9-0.2-1.2-0.5C6.5,10.3,6.3,9.9,6.3,9.4z"/>
	<path class="st1" d="M10.6,5h1l0.7,3.7h0.1L12.9,5H14l-1.1,6h-1L10.6,5z"/>
</g>
</svg>
