<?xml version="1.0" encoding="utf-8"?>
<!-- Generator: Adobe Illustrator 19.2.1, SVG Export Plug-In . SVG Version: 6.00 Build 0)  -->
<svg version="1.1" xmlns="http://www.w3.org/2000/svg" xmlns:xlink="http://www.w3.org/1999/xlink" x="0px" y="0px"
	 viewBox="0 0 16 16" style="enable-background:new 0 0 16 16;" xml:space="preserve">
<style type="text/css">
	.st0{fill:#4CA56A;}
	.st1{fill:none;}
</style>
<g id="Layer_1">
</g>
<g id="Layer_2">
	<rect x="3" y="9.5" transform="matrix(0.578 0.816 -0.816 0.578 11.7638 0.6878)" class="st0" width="4.5" height="4.5"/>
	<path class="st0" d="M2.7,12c0,0-1-1.1-1.4-3C1,7.1,1.6,4.4,3.2,2.7c2-2,5.4-2.8,8.6-0.1c1.3,1.1,1.8,2.9,2,4.3l-1,0.2
		c-0.2-1.2-0.6-2.8-1.7-3.7C8.3,1,5.4,1.9,3.9,3.4C2.5,4.8,2,7.2,2.3,8.8c0.3,1.6,1.1,2.5,1.1,2.5L2.7,12z"/>
	<g>
		<polygon class="st0" points="15.2,6.5 11.3,6.9 13.5,9.1 		"/>
	</g>
	<rect class="st1" width="16" height="16"/>
</g>
</svg>
