<?xml version="1.0" encoding="utf-8"?>
<!-- Generator: Adobe Illustrator 19.2.1, SVG Export Plug-In . SVG Version: 6.00 Build 0)  -->
<svg version="1.1" id="Layer_2" xmlns="http://www.w3.org/2000/svg" xmlns:xlink="http://www.w3.org/1999/xlink" x="0px" y="0px"
	 viewBox="0 0 16 16" style="enable-background:new 0 0 16 16;" xml:space="preserve">
<style type="text/css">
	.st0{fill:#404040;}
</style>
<circle class="st0" cx="2.2" cy="2.7" r="1.6"/>
<ellipse transform="matrix(0.9856 -0.1694 0.1694 0.9856 -0.2734 1.7672)" class="st0" cx="10.2" cy="2.5" rx="1.6" ry="1.6"/>
<circle class="st0" cx="14.2" cy="9.2" r="1.6"/>
<circle class="st0" cx="11.2" cy="13.8" r="1.6"/>
<circle class="st0" cx="2.4" cy="12.7" r="1.6"/>
<circle class="st0" cx="8.2" cy="8" r="2.9"/>
<rect x="4.5" y="2.6" transform="matrix(0.6291 -0.7773 0.7773 0.6291 -2.0006 5.5676)" class="st0" width="0.7" height="4.5"/>
<rect x="9.2" y="3.1" transform="matrix(0.9764 0.2162 -0.2162 0.9764 1.3805 -1.9472)" class="st0" width="0.7" height="4.5"/>
<rect x="10.8" y="6.6" transform="matrix(-0.1048 0.9945 -0.9945 -0.1048 21.1468 -1.3738)" class="st0" width="0.7" height="4.5"/>
<rect x="9.8" y="9.6" transform="matrix(-0.866 0.5 -0.5 -0.866 24.9331 16.9799)" class="st0" width="0.7" height="4.5"/>
<rect x="4.5" y="8.6" transform="matrix(-0.646 -0.7633 0.7633 -0.646 -0.287 21.4669)" class="st0" width="0.7" height="4.5"/>
</svg>
