<?xml version="1.0" standalone="no"?><!DOCTYPE svg PUBLIC "-//W3C//DTD SVG 1.1//EN" "http://www.w3.org/Graphics/SVG/1.1/DTD/svg11.dtd"><svg width="100%" height="100%" viewBox="0 0 16 16" version="1.1" xmlns="http://www.w3.org/2000/svg" xmlns:xlink="http://www.w3.org/1999/xlink" xml:space="preserve" style="fill-rule:evenodd;clip-rule:evenodd;stroke-miterlimit:10;"><g id="Layer 1"><rect x="7.189" y="2.439" width="7.093" height="8.423" style="fill:#fff;fill-rule:nonzero;stroke-width:1px;stroke:#404040;"/><rect x="4.973" y="4.212" width="7.093" height="8.423" style="fill:#fff;fill-rule:nonzero;stroke-width:1px;stroke:#404040;"/><g><g></g></g><path d="M12.287,4.212l-3.103,0" style="fill:none;stroke-width:1px;stroke-dasharray:7,7;stroke:#404040;"/><g><g></g></g><path d="M12.287,9.088l0.887,-0.009l-0.887,0.009Z" style="fill:url(#_Linear1);fill-rule:nonzero;"/><rect x="4.751" y="8.866" width="3.103" height="3.103" style="fill:#404040;fill-rule:nonzero;"/><rect x="9.627" y="5.763" width="1.774" height="0.443" style="fill:#3fa9f5;fill-rule:nonzero;"/><rect x="1.87" y="5.985" width="7.093" height="8.423" style="fill:#fff;fill-rule:nonzero;stroke-width:1px;stroke:#404040;"/><rect x="3.399" y="7.093" width="4.334" height="0.887" style="fill:#3fa9f5;fill-rule:nonzero;"/><rect x="3.178" y="8.866" width="1.13" height="3.103" style="fill:#3fa9f5;fill-rule:nonzero;"/><rect x="2.945" y="12.587" width="4.773" height="0.887" style="fill:#3fa9f5;fill-rule:nonzero;"/><rect x="5.194" y="8.866" width="2.556" height="3.103" style="fill:#3fa9f5;fill-rule:nonzero;"/><rect x="9.627" y="7.093" width="1.203" height="0.887" style="fill:#3fa9f5;fill-rule:nonzero;"/><rect x="9.556" y="8.866" width="1.308" height="2.216" style="fill:#3fa9f5;fill-rule:nonzero;"/><rect x="12.655" y="5.99" width="0.857" height="1.773" style="fill:#3fa9f5;fill-rule:nonzero;"/><rect x="12.655" y="4.225" width="0.857" height="0.879" style="fill:#3fa9f5;fill-rule:nonzero;"/></g><defs><linearGradient id="_Linear1" x1="0" y1="0" x2="1" y2="0" gradientUnits="userSpaceOnUse" gradientTransform="matrix(0.886585,0,0,0.886585,12.2869,9.08343)"><stop offset="0%" style="stop-color:#fff;stop-opacity:1"/><stop offset="100%" style="stop-color:#3fa9f5;stop-opacity:1"/></linearGradient></defs></svg>