<?xml version="1.0" encoding="utf-8"?>
<!-- Generator: Adobe Illustrator 19.2.1, SVG Export Plug-In . SVG Version: 6.00 Build 0)  -->
<svg version="1.1" id="Layer_2" xmlns="http://www.w3.org/2000/svg" xmlns:xlink="http://www.w3.org/1999/xlink" x="0px" y="0px"
	 viewBox="0 0 16 16" style="enable-background:new 0 0 16 16;" xml:space="preserve">
<style type="text/css">
	.st0{fill:#F7A808;}
	.st1{fill:#404040;}
	.st2{fill:none;stroke:#404040;stroke-linecap:square;}
	.st3{fill:none;stroke:#F7A808;stroke-width:0.83;stroke-linejoin:bevel;}
	.st4{fill:none;stroke:#F7A808;stroke-width:0.85;stroke-linejoin:bevel;}
	.st5{fill:none;stroke:#F90B6C;stroke-width:0.94;stroke-miterlimit:10;}
	.st6{fill:none;stroke:#F90B6C;stroke-miterlimit:10;}
	.st7{fill:none;}
</style>
<title>nature</title>
<polygon class="st0" points="8.1,6.9 14.7,3.2 14.6,9.5 8,15 "/>
<g>
	<path class="st1" d="M13.7,4.9l0,5l-5.7,4L2.4,10V5l5.2,2.8L8.1,8l0.5-0.3L13.7,4.9 M14.7,3.2L8.1,6.9L1.4,3.3v7.2L8,15.1l6.7-4.7
		L14.7,3.2L14.7,3.2z"/>
</g>
<polyline class="st2" points="1.9,3.3 8,1.4 14.1,3.5 "/>
<path class="st0" d="M5.6,11.5l1,0.7l-1.2-5L4.5,6.9l-1.2,3.2l0.6,0.3L4,9.7l1.3,0.7L5.6,11.5z M4.4,8.9l0.4-0.9l0.2,0.1l0.3,1.1
	L4.4,8.9z"/>
<path class="st3" d="M9,12.7"/>
<path class="st4" d="M2.8,10.5"/>
<path class="st5" d="M6.4,6.9"/>
<path class="st6" d="M3.9,6.1"/>
<rect class="st7" width="16" height="16"/>
</svg>
