<?xml version="1.0" standalone="no"?><!DOCTYPE svg PUBLIC "-//W3C//DTD SVG 1.1//EN" "http://www.w3.org/Graphics/SVG/1.1/DTD/svg11.dtd"><svg width="100%" height="100%" viewBox="0 0 16 16" version="1.1" xmlns="http://www.w3.org/2000/svg" xmlns:xlink="http://www.w3.org/1999/xlink" xml:space="preserve" style="fill-rule:evenodd;clip-rule:evenodd;stroke-linejoin:round;stroke-miterlimit:1.41421;"><g id="Layer 2"><path d="M14.523,14.219l-13.066,0l0,-12.563l13.066,0l0,12.563ZM2.957,3.156l0,9.563l10.066,0l0,-9.563l-10.066,0Z" style="fill:#404040;"/><path d="M1.495,1.688l13.037,0l0,3.234l-13.037,0l0,-3.234l0,0ZM13.075,3.035l-5.344,0l0,0.944l5.344,0l0,-0.944ZM3.844,3.035l-0.971,0l0,0.944l0.971,0l0,-0.944ZM5.788,3.035l-1.458,0l0,0.944l1.458,0l0,-0.944Z" style="fill:#404040;"/><path d="M8.09,5.664l2.68,3.325l-1.507,0l0,2.894l-2.429,0l0.02,-2.894l-1.57,0l2.806,-3.325l0,0Z" style="fill:#f7a808;fill-rule:nonzero;"/></g></svg>