<?xml version="1.0" encoding="utf-8"?>
<!-- Generator: Adobe Illustrator 20.0.0, SVG Export Plug-In . SVG Version: 6.00 Build 0)  -->
<svg version="1.1" id="Layer_1" xmlns="http://www.w3.org/2000/svg" xmlns:xlink="http://www.w3.org/1999/xlink" x="0px" y="0px"
	 viewBox="0 0 16 16" style="enable-background:new 0 0 16 16;" xml:space="preserve">
<style type="text/css">
	.st0{fill:none;stroke:#404040;stroke-miterlimit:10;}
	.st1{fill:#404040;}
	.st2{fill:#4FBC78;}
</style>
<line class="st0" x1="2.2" y1="7.5" x2="15" y2="7.5"/>
<line class="st0" x1="8.5" y1="1.1" x2="8.5" y2="13.8"/>
<g>
	<path class="st1" d="M3,2h11v11l-8,0L5.9,14l9.1,0V1l0,0H2"/>
</g>
<rect x="2" y="1.1" class="st1" width="1" height="7.8"/>
<path class="st2" d="M4.7,7.6c-2.3,0-4,1.9-4,4s1.7,4,4,4s4-1.9,4-4S7,7.6,4.7,7.6z M7.7,12.6h-2v2h-2v-2h-2v-2h2v-2h2v2h2v1V12.6z"
	/>
</svg>
