<?xml version="1.0" encoding="utf-8"?>
<!-- Generator: Adobe Illustrator 19.2.1, SVG Export Plug-In . SVG Version: 6.00 Build 0)  -->
<svg version="1.1" id="Layer_1" xmlns="http://www.w3.org/2000/svg" xmlns:xlink="http://www.w3.org/1999/xlink" x="0px" y="0px"
	 viewBox="0 0 16 16" style="enable-background:new 0 0 16 16;" xml:space="preserve">
<style type="text/css">
	.st0{fill:none;}
	.st1{fill:#4FBC78;}
	.st2{fill:#404040;}
</style>
<title>page_edit</title>
<rect class="st0" width="16" height="16"/>
<g id="Layer_1_1_">
	<path class="st1" d="M11.2,8.4c0.4,0,0.8,0,1.3,0c0,0-0.1,0.1-0.1,0.2c-0.6,0.7-1.2,1.3-1.8,2c-0.7-0.7-1.3-1.4-2-2.2H10
		c0-0.6-0.3-1.1-0.6-1.5C9,6.6,8.5,6.4,8,6.3C6.6,6,5.7,6.8,5.3,7.7C5,8.2,5,8.9,5.2,9.4s0.4,0.9,0.8,1.3s0.9,0.5,1.6,0.5
		s1.1-0.3,1.5-0.6c0.2,0.2,0.3,0.3,0.4,0.4c0.2,0.2,0.3,0.3,0.4,0.4C9.5,11.7,9,12,8.5,12.1c-0.6,0.2-1.3,0.2-1.9,0
		c-1.2-0.3-2-1.1-2.4-2.1C3.9,9.6,3.8,8.9,3.9,8.2c0-0.6,0.3-1.2,0.5-1.6C5,5.8,6,5.1,7.3,5C8.5,4.9,9.4,5.4,10,6S11,7.4,11.2,8.4"
		/>
</g>
<path class="st2" d="M14.6,5.7h-3.1v-4h0.9L14.6,5.7z"/>
<g>
	<path class="st2" d="M11.6,3.2l1.6,2.5l-0.1,7.7h-10V3.1L11.6,3.2 M12.4,1.7H1.6v13.2h13l0.1-9.7L12.4,1.7L12.4,1.7z"/>
</g>
</svg>
