<?xml version="1.0" encoding="utf-8"?>
<!-- Generator: Adobe Illustrator 19.2.1, SVG Export Plug-In . SVG Version: 6.00 Build 0)  -->
<svg version="1.1" id="Layer_1" xmlns="http://www.w3.org/2000/svg" xmlns:xlink="http://www.w3.org/1999/xlink" x="0px" y="0px"
	 viewBox="0 0 16 16" style="enable-background:new 0 0 16 16;" xml:space="preserve">
<style type="text/css">
	.st0{fill:none;}
	.st1{fill:#404040;}
	.st2{fill:#414141;}
</style>
<title>page_edit</title>
<rect class="st0" width="16" height="16"/>
<rect x="6.7" y="6.3" transform="matrix(0.7274 -0.6863 0.6863 0.7274 -3.5627 7.57)" class="st1" width="2" height="4"/>
<polygon class="st2" points="8.6,10.7 10.1,9.4 10.5,11.3 "/>
<rect x="4.7" y="5.5" transform="matrix(0.7274 -0.6863 0.6863 0.7274 -2.6033 5.5424)" class="st1" width="2" height="1.1"/>
<path class="st1" d="M14.6,5.7h-3.1v-4h0.9L14.6,5.7z"/>
<g>
	<path class="st1" d="M11.6,3.2l1.6,2.5l-0.1,7.7h-10V3.1L11.6,3.2 M12.4,1.7H1.6v13.2h13l0.1-9.7L12.4,1.7L12.4,1.7z"/>
</g>
<rect class="st0" width="16" height="16"/>
</svg>
