<?xml version="1.0" encoding="utf-8"?>
<!-- Generator: Adobe Illustrator 19.2.1, SVG Export Plug-In . SVG Version: 6.00 Build 0)  -->
<svg version="1.1" id="Layer_1" xmlns="http://www.w3.org/2000/svg" xmlns:xlink="http://www.w3.org/1999/xlink" x="0px" y="0px"
	 viewBox="0 0 16 16" style="enable-background:new 0 0 16 16;" xml:space="preserve">
<style type="text/css">
	.st0{fill:none;stroke:#404040;stroke-width:1.5;stroke-miterlimit:10;}
	.st1{fill:#404040;}
	.st2{fill:none;}
	.st3{fill:#3E3E3E;}
</style>
<title>page-edit</title>
<g>
	<polygon class="st0" points="14.6,3.5 14.7,14.4 1.4,14.5 1.4,1.4 12.7,1.4 	"/>
	<polygon class="st1" points="15.3,3.2 13,0.7 11.6,0.7 11.6,3.9 15.3,3.9 	"/>
</g>
<rect class="st2" width="16" height="16"/>
<g id="Layer_1_1_">
	<path class="st3" d="M11.7,7.6c0.5,0,1,0,1.5,0c0,0-0.1,0.1-0.1,0.2c-0.7,0.8-1.4,1.6-2.1,2.4c-0.8-0.8-1.6-1.7-2.4-2.6h1.7
		c-0.1-0.7-0.4-1.3-0.8-1.7c-0.4-0.4-1-0.7-1.6-0.8C6.2,4.8,5.1,5.7,4.6,6.8C4.3,7.4,4.3,8.2,4.5,8.8c0.2,0.6,0.5,1.1,1,1.5
		c0.5,0.4,1.1,0.6,1.9,0.6c0.8,0,1.3-0.3,1.8-0.7c0.2,0.2,0.3,0.3,0.5,0.5c0.2,0.2,0.4,0.4,0.5,0.5c-0.5,0.4-1.1,0.7-1.8,0.9
		c-0.7,0.2-1.6,0.2-2.3,0c-1.3-0.4-2.3-1.3-2.8-2.5C2.9,9.1,2.8,8.2,2.9,7.4C3,6.7,3.3,6,3.6,5.5c0.7-1,1.8-1.8,3.4-1.9
		c1.4-0.1,2.5,0.5,3.2,1.2C11,5.5,11.5,6.4,11.7,7.6"/>
</g>
</svg>
