<?xml version="1.0" encoding="utf-8"?>
<!-- Generator: Adobe Illustrator 19.2.1, SVG Export Plug-In . SVG Version: 6.00 Build 0)  -->
<svg version="1.1" id="Layer_1" xmlns="http://www.w3.org/2000/svg" xmlns:xlink="http://www.w3.org/1999/xlink" x="0px" y="0px"
	 viewBox="0 0 16 16" style="enable-background:new 0 0 16 16;" xml:space="preserve">
<style type="text/css">
	.st0{fill:#404040;}
	.st1{fill:#4FBC78;}
</style>
<path class="st0" d="M11.9,1.9l2,1.3L14,14H2V2h10.2 M1,1v14h13.9L14.8,3.8L13,1C13,1,1.6,1,1,1z"/>
<path class="st0" d="M14.9,3.8l-2.9,0L12,1l1,0L14.9,3.8z"/>
<path class="st1" d="M5.6,6.9C7.5,6.9,9,8.4,9,10.3s-1.5,3.4-3.4,3.4s-3.4-1.5-3.4-3.4C2.3,8.4,3.8,6.9,5.6,6.9z M6,10V8H5v2H3v1h2
	v2h1v-2h2v-1H6z"/>
</svg>
