<?xml version="1.0" encoding="utf-8"?>
<!-- Generator: Adobe Illustrator 19.2.1, SVG Export Plug-In . SVG Version: 6.00 Build 0)  -->
<svg version="1.1" id="Layer_1" xmlns="http://www.w3.org/2000/svg" xmlns:xlink="http://www.w3.org/1999/xlink" x="0px" y="0px"
	 viewBox="0 0 16 16" style="enable-background:new 0 0 16 16;" xml:space="preserve">
<style type="text/css">
	.st0{fill:#404040;}
	.st1{fill:none;}
</style>
<g>
	<path class="st0" d="M14.5,11.6c-0.3,1.4-1.1,2.4-2.4,2.9c-1.3,0.4-2.6,0.2-3.7-0.7c-0.4-0.2-0.7-0.6-1-0.9l1.2-1.2
		C8.8,12,9,12.2,9.3,12.3c0.4,0.5,1,0.8,1.7,0.7c0.8-0.1,1.4-0.5,1.7-1.3s0.1-1.6-0.5-2.2c-2-2-3.9-3.9-5.9-5.9
		C5.8,3.1,5.2,2.9,4.7,3.1C3.8,3.2,3.3,3.7,3,4.5S2.9,6,3.5,6.6c0.3,0.3,0.7,0.7,1,1c0.6,0.7,1.2,1.3,1.9,2c0.2,0.2,0.6,0.2,0.8,0
		c0.3-0.3,0.3-0.7,0-1C6.4,7.9,5.7,7.1,5,6.4l1.2-1.2c0.7,0.7,1.5,1.5,2.2,2.2c0.5,0.5,0.7,1.1,0.9,1.8c-0.1,1-0.6,1.7-1.5,2
		c-1,0.3-1.8,0.1-2.5-0.6c-1-1-2-2-3-3C1.4,6.7,1,5.5,1.3,4.2c0.3-1.8,1.9-3.1,3.8-3c1,0.1,1.8,0.4,2.5,1.1C8,2.7,8.3,3,8.7,3.4
		c1.1,1.1,2.3,2.3,3.4,3.4c0.4,0.4,0.9,0.9,1.3,1.3c0.8,0.8,1.2,1.7,1.2,2.9C14.5,11.2,14.5,11.4,14.5,11.6z"/>
</g>
<rect class="st1" width="16" height="16"/>
</svg>
