<?xml version="1.0" encoding="utf-8"?>
<!-- Generator: Adobe Illustrator 19.2.1, SVG Export Plug-In . SVG Version: 6.00 Build 0)  -->
<svg version="1.1" id="Layer_1" xmlns="http://www.w3.org/2000/svg" xmlns:xlink="http://www.w3.org/1999/xlink" x="0px" y="0px"
	 viewBox="0 0 16 16" style="enable-background:new 0 0 16 16;" xml:space="preserve">
<style type="text/css">
	.st0{fill:#404040;}
</style>
<path class="st0" d="M1.8,5.6c0,2.6,2.1,4.7,4.7,4.7c0.7,0,1.3-0.2,1.9-0.4l1.1,1.2l1.1-0.4l0.1,1.5l1.4-0.1l0.1,1.3h3.1v-2.6
	c-0.3-0.3-4.2-3.5-4.2-3.5c0-0.1,0.4-1.2,0.1-2.5C10.9,2.5,9,0.7,6.6,0.7C3.9,0.9,1.8,3,1.8,5.6z M6.9,5.1c0,0.9-0.7,1.4-1.4,1.4
	S4,5.9,4,5.1s0.7-1.4,1.4-1.4S6.9,4.3,6.9,5.1z"/>
</svg>
