<?xml version="1.0" encoding="utf-8"?>
<!-- Generator: Adobe Illustrator 19.2.1, SVG Export Plug-In . SVG Version: 6.00 Build 0)  -->
<svg version="1.1" id="Layer_1" xmlns="http://www.w3.org/2000/svg" xmlns:xlink="http://www.w3.org/1999/xlink" x="0px" y="0px"
	 viewBox="0 0 16 16" style="enable-background:new 0 0 16 16;" xml:space="preserve">
<style type="text/css">
	.st0{fill:#404040;}
	.st1{fill:none;}
</style>
<g>
	<path class="st0" d="M8,15.4c-4.2,0-7.5-3.5-7.3-7.6C0.8,3.9,4,0.5,8.3,0.6C12,0.8,15.4,3.9,15.4,8C15.4,12.1,12.1,15.4,8,15.4z
		 M8.2,2.1C8.1,2.1,8.1,2.1,8.2,2.1C8.1,2.2,8.1,2.3,8.1,2.3c0,0.2,0.1,0.4,0.1,0.7C8.3,4.5,8,6,7.6,7.4c-0.5,1.7-0.3,3.3,0.3,5
		c0.1,0.2,0.2,0.4,0.5,0.4c0.3,0.1,0.6,0.3,0.9,0.4c0.1,0.1,0.3,0.1,0.4,0.1c1.1-0.3,2-0.9,2.7-1.8c1-1.3,1.1-3.3-0.2-4.6
		c-0.5-0.5-1.1-0.9-1.6-1.3c-0.5-0.4-1-0.7-1.5-1C8.6,4.1,8.4,3.6,8.5,3c0-0.2,0.1-0.3,0.1-0.6C8.5,2.5,8.4,2.5,8.3,2.6
		C8.3,2.4,8.2,2.2,8.2,2.1z M7.5,2.8c0-0.3,0-0.6-0.1-0.9c0-0.1-0.1-0.1-0.1-0.1c0,0.1-0.1,0.1-0.1,0.2c0,0.3,0,0.6,0,0.9
		c0,0.6-0.2,1.1-0.6,1.5C6.4,4.7,6,4.9,5.7,5.1c-0.6,0.5-1.3,1-1.9,1.6c-1.1,1.2-1.3,2.5-0.7,4c0.6,1.4,1.9,2.2,3.3,2.6
		c0.1,0,0.2,0,0.3-0.1c-0.1-0.1-0.1-0.2-0.2-0.2c-0.5-0.3-1-0.6-1.4-1c-0.9-0.7-1.3-1.7-1.3-2.9c0-0.8,0.3-1.4,0.8-2
		c0.6-0.7,1.2-1.4,1.9-2C7.1,4.4,7.7,3.8,7.5,2.8z M7.7,2.6C7.7,2.6,7.7,2.6,7.7,2.6c0,0.2,0,0.5,0,0.7c0,1-0.3,1.9-1,2.6
		C6.4,6.3,6.2,6.7,5.9,7C5.2,7.8,5,8.7,5.1,9.7c0.2,1.3,1,2.3,2,3c0.1,0,0.2,0,0.3,0c0-0.1,0-0.2,0-0.3c-0.2-0.3-0.3-0.5-0.5-0.8
		c-0.8-1.2-1.1-2.5-0.6-3.8c0.2-0.6,0.6-1.2,0.9-1.7C7.7,5.4,8,4.5,8,3.6c0-0.8-0.1-1.5-0.1-2.3c0-0.1-0.1-0.1-0.1-0.2
		c0,0.1-0.1,0.2-0.1,0.2C7.7,1.7,7.7,2.2,7.7,2.6z M8.2,13.8C8.2,13.8,8.2,13.8,8.2,13.8c0-0.1,0-0.3,0-0.4c0-0.1-0.1-0.1-0.1-0.2
		c-0.1,0.1-0.2,0.1-0.2,0.2c0,0.3,0,0.6,0,0.8c0,0.1,0.1,0.1,0.2,0.2c0-0.1,0.1-0.1,0.1-0.2C8.2,14.1,8.2,14,8.2,13.8z M7.6,13.6
		c0,0-0.1-0.1-0.1-0.2c-0.1,0.1-0.1,0.1-0.2,0.2c-0.1,0.1-0.2,0.2-0.3,0.4C7,14,7,14.1,6.9,14.2c0.1,0,0.2,0.1,0.2,0
		C7.4,14.1,7.5,13.9,7.6,13.6z M8.4,13.6c0,0.3,0.2,0.6,0.4,0.6c0.1,0,0.2,0,0.2,0c0-0.1,0-0.2-0.1-0.2c-0.1-0.1-0.2-0.3-0.3-0.4
		c-0.1-0.1-0.1-0.1-0.2-0.1C8.5,13.4,8.5,13.5,8.4,13.6z"/>
	<path class="st0" d="M10.1,12.6c0.2-0.2,0.3-0.4,0.5-0.5c1.2-1.5,1.4-3.7-0.1-5.3c-0.4-0.4-0.9-0.8-1.3-1.2C9,5.3,8.8,5.1,8.7,4.8
		c0-0.1-0.1-0.2-0.1-0.3c0.5,0.8,1.3,1.1,2,1.7c0.7,0.6,1.3,1.2,1.6,2c0.4,1.2,0.1,2.3-0.7,3.2c-0.3,0.4-0.7,0.7-1,1
		C10.4,12.6,10.2,12.6,10.1,12.6C10.1,12.6,10.1,12.6,10.1,12.6z"/>
</g>
<rect class="st1" width="16" height="16"/>
</svg>
