<?xml version="1.0" encoding="utf-8"?>
<!-- Generator: Adobe Illustrator 19.2.1, SVG Export Plug-In . SVG Version: 6.00 Build 0)  -->
<svg version="1.0" id="Layer_1" xmlns="http://www.w3.org/2000/svg" xmlns:xlink="http://www.w3.org/1999/xlink" x="0px" y="0px"
	 viewBox="0 0 16 16" style="enable-background:new 0 0 16 16;" xml:space="preserve">
<style type="text/css">
	.st0{fill:#404040;}
	.st1{fill:#F7A808;}
	.st2{fill:#808080;}
</style>
<path class="st0" d="M11.1,14c-2.7,1.4-6.7,0.9-9-2.4c-1-1.4-1.4-3.2-1.1-4.9c0.8-3.9,4-5.8,6.6-5.9c0,2.3,0,6.9,0,7
	C7.6,7.9,10,12,11.1,14z"/>
<path class="st1" d="M9.1,8.5c1.9,0,4.1,0,6,0c-0.3,2.3-1.5,4-3.2,5.4C11,12.1,10.1,10.4,9.1,8.5z"/>
<path class="st2" d="M15.3,7.4c0,0-4.5,0-6.6,0c0-2.2,0-4.4,0-6.5V0.8C15.3,1.4,15.3,7.4,15.3,7.4z"/>
</svg>
