<?xml version="1.0" encoding="utf-8"?>
<!-- Generator: Adobe Illustrator 19.2.1, SVG Export Plug-In . SVG Version: 6.00 Build 0)  -->
<svg version="1.1" id="_x38_9aa3ecb-881e-4ef4-9ab8-044589192bcb"
	 xmlns="http://www.w3.org/2000/svg" xmlns:xlink="http://www.w3.org/1999/xlink" x="0px" y="0px" viewBox="0 0 16 16"
	 style="enable-background:new 0 0 16 16;" xml:space="preserve">
<style type="text/css">
	.st0{fill:#404040;}
</style>
<title>Screen Shot 2016-04-27 at 16.12.40</title>
<path class="st0" d="M1.1,1.1v13.8H15V1.1H1.1z M11.3,9.7c0.4,0,0.7-0.1,0.9-0.4L13,9.4v4.3H9.9v-1.1c0.3-0.2,0.5-0.6,0.5-0.9
	c0-0.7-0.5-1.2-1.2-1.2c-0.7,0-1.2,0.5-1.2,1.2c0,0.4,0.4,0.7,0.7,0.9v1.2H5.1V9.4H4.3c-0.1,0.3-0.6,0.6-1,0.6
	c-0.7,0-1.2-0.5-1.2-1.2c0-0.7,0.5-1.2,1.2-1.2c0.4,0,0.7,0.1,0.9,0.3h0.9V5h2.7V4.5C7.5,4.3,7.3,4,7.3,3.6c0-0.7,0.5-1.2,1.2-1.2
	c0.7,0,1.2,0.5,1.2,1.2c0,0.4-0.2,0.7-0.6,1v0.2l3.9,0l0,3h-0.7c-0.2-0.3-0.6-0.5-0.9-0.5c-0.7,0-1.2,0.5-1.2,1.2
	C10.2,9.2,10.7,9.7,11.3,9.7z"/>
</svg>
