<?xml version="1.0" encoding="utf-8"?>
<!-- Generator: Adobe Illustrator 19.2.1, SVG Export Plug-In . SVG Version: 6.00 Build 0)  -->
<svg version="1.0" xmlns="http://www.w3.org/2000/svg" xmlns:xlink="http://www.w3.org/1999/xlink" x="0px" y="0px"
	 viewBox="0 0 16 16" enable-background="new 0 0 16 16" xml:space="preserve">
<g id="Layer_1" display="none">
	<g display="inline">
		<path fill="#404040" d="M3.5,11.5c0-1.4,0-7.7,0-9.2c0-0.3,0-0.3,0.3-0.3c2.8,0,5.6,0,8.4,0c0.3,0,0.3,0,0.3,0.3
			c0,2.4,0,4.8,0,7.2c0,0.7-0.2,1-0.9,1.1c-0.6,0.2-1.2,0.2-1.8,0.2c-0.4,0-0.5,0.2-0.5,0.5c0,0.4,0,0.8,0,1.2
			c0,0.4-0.1,0.7-0.2,1.1c-0.1,0.3-0.4,0.5-0.7,0.5c-1.5,0-3.1,0-4.6,0c-0.2,0-0.2-0.1-0.2-0.2c0-0.7,0-1.4,0-2.1
			C3.5,11.7,3.5,11.7,3.5,11.5C3.2,11.7,3,11.8,2.8,12c-0.1,0.1-0.2,0.1-0.2,0.3c0,0.7,0,1.5,0,2.2c0,0.4,0.1,0.6,0.5,0.6
			c1.8,0,3.6,0,5.3,0c0.5,0,1-0.2,1.3-0.5c0.9-1,1.9-1.9,2.8-2.9c0.3-0.3,0.5-0.8,0.6-1.2c0-0.3,0.1-0.6,0.1-0.9c0-2.5,0-5.1,0-7.6
			c0-0.4-0.2-0.5-0.5-0.5c-3.2,0-6.4,0-9.7,0c-0.4,0-0.5,0.1-0.5,0.5c0,1.8,0,3.6,0,5.5c0,4.9,0,6.5,0,0.2l0,4.7"/>
	</g>
	
		<line display="inline" fill="none" stroke="#404040" stroke-width="0.458" stroke-linecap="round" stroke-linejoin="round" stroke-miterlimit="10" x1="11.2" y1="4.8" x2="4.7" y2="4.8"/>
	
		<line display="inline" fill="none" stroke="#404040" stroke-width="0.458" stroke-linecap="round" stroke-linejoin="round" stroke-miterlimit="10" x1="11.2" y1="6.3" x2="4.7" y2="6.3"/>
	
		<line display="inline" fill="none" stroke="#404040" stroke-width="0.458" stroke-linecap="round" stroke-linejoin="round" stroke-miterlimit="10" x1="11.2" y1="8.1" x2="4.7" y2="8.1"/>
	
		<line display="inline" fill="none" stroke="#404040" stroke-width="0.458" stroke-linecap="round" stroke-linejoin="round" stroke-miterlimit="10" x1="11.2" y1="9.6" x2="4.7" y2="9.6"/>
</g>
<g id="Layer_2">
	<g>
		<g>
			<path fill="#404040" d="M13,2.1v9.3L11.1,14H2V2.1H13 M14,1H1v14h10.6l2.4-3.3V1L14,1z"/>
		</g>
	</g>
	<line fill="none" stroke="#3FA9F5" stroke-miterlimit="10" x1="3.1" y1="6.1" x2="12.1" y2="6.1"/>
	<line fill="none" stroke="#3FA9F5" stroke-miterlimit="10" x1="3.1" y1="8.1" x2="12.1" y2="8.1"/>
	<line fill="none" stroke="#3FA9F5" stroke-miterlimit="10" x1="12.1" y1="10.1" x2="3.1" y2="10.1"/>
	<polygon fill="#404040" points="11.1,11.2 11.1,15 11.6,15 14,11.5 13,11.2 	"/>
	<path fill="#404040" d="M13.5,13.1"/>
	<line fill="none" stroke="#3FA9F5" stroke-miterlimit="10" x1="3.1" y1="4.1" x2="12.1" y2="4.1"/>
</g>
</svg>
