<?xml version="1.0" encoding="utf-8"?>
<!-- Generator: Adobe Illustrator 19.2.1, SVG Export Plug-In . SVG Version: 6.00 Build 0)  -->
<svg version="1.1" id="Layer_1" xmlns="http://www.w3.org/2000/svg" xmlns:xlink="http://www.w3.org/1999/xlink" x="0px" y="0px"
	 viewBox="0 0 16 16" style="enable-background:new 0 0 16 16;" xml:space="preserve">
<style type="text/css">
	.st0{display:none;}
	.st1{display:inline;}
	.st2{fill:#404040;}
	
		.st3{display:inline;fill:none;stroke:#404040;stroke-width:0.458;stroke-linecap:round;stroke-linejoin:round;stroke-miterlimit:10;}
	.st4{fill:none;stroke:#3FA9F5;stroke-miterlimit:10;}
	.st5{fill:none;}
</style>
<g id="Layer_1_1_" class="st0">
	<g class="st1">
		<path class="st2" d="M3.5,11.5c0-1.4,0-7.7,0-9.2C3.5,2,3.5,2,3.8,2c2.8,0,5.6,0,8.4,0c0.3,0,0.3,0,0.3,0.3c0,2.4,0,4.8,0,7.2
			c0,0.7-0.2,1-0.9,1.1c-0.6,0.2-1.2,0.2-1.8,0.2c-0.4,0-0.5,0.2-0.5,0.5c0,0.4,0,0.8,0,1.2s-0.1,0.7-0.2,1.1
			c-0.1,0.3-0.4,0.5-0.7,0.5c-1.5,0-3.1,0-4.6,0c-0.2,0-0.2-0.1-0.2-0.2c0-0.7,0-1.4,0-2.1C3.5,11.7,3.5,11.7,3.5,11.5
			C3.2,11.7,3,11.8,2.8,12c-0.1,0.1-0.2,0.1-0.2,0.3c0,0.7,0,1.5,0,2.2c0,0.4,0.1,0.6,0.5,0.6c1.8,0,3.6,0,5.3,0
			c0.5,0,1-0.2,1.3-0.5c0.9-1,1.9-1.9,2.8-2.9c0.3-0.3,0.5-0.8,0.6-1.2c0-0.3,0.1-0.6,0.1-0.9c0-2.5,0-5.1,0-7.6
			c0-0.4-0.2-0.5-0.5-0.5c-3.2,0-6.4,0-9.7,0C2.6,1.5,2.5,1.6,2.5,2c0,1.8,0,3.6,0,5.5c0,4.9,0,6.5,0,0.2v4.7"/>
	</g>
	<line class="st3" x1="11.2" y1="4.8" x2="4.7" y2="4.8"/>
	<line class="st3" x1="11.2" y1="6.3" x2="4.7" y2="6.3"/>
	<line class="st3" x1="11.2" y1="8.1" x2="4.7" y2="8.1"/>
	<line class="st3" x1="11.2" y1="9.6" x2="4.7" y2="9.6"/>
</g>
<line class="st4" x1="4.2" y1="4.5" x2="11.5" y2="4.5"/>
<line class="st4" x1="4.2" y1="6.5" x2="11.5" y2="6.5"/>
<path class="st2" d="M13.5,13.1"/>
<g>
	<path class="st2" d="M13.1,2.7l0,7.5l-1.5,1.4l0-0.5l0-1l-1,0l-7.7,0.1V2.7H13.1 M13.6,1.7H2.4C2.1,1.7,1.9,2,1.9,2.2v8.5
		c0,0.3,0.2,0.5,0.5,0.5c0,0,0,0,0,0l8.2-0.1l0,2.8l3.2-3.1c0.2-0.2,0.3-0.4,0.3-0.7l0-8C14.1,2,13.9,1.7,13.6,1.7L13.6,1.7z"/>
</g>
<path class="st2" d="M13.4,12.8"/>
<polyline class="st5" points="0,0 16,0 16,16 0,16 "/>
<line class="st4" x1="4.2" y1="8.4" x2="11.5" y2="8.4"/>
</svg>
