<?xml version="1.0" standalone="no"?><!DOCTYPE svg PUBLIC "-//W3C//DTD SVG 1.1//EN" "http://www.w3.org/Graphics/SVG/1.1/DTD/svg11.dtd"><svg width="100%" height="100%" viewBox="0 0 16 16" version="1.1" xmlns="http://www.w3.org/2000/svg" xmlns:xlink="http://www.w3.org/1999/xlink" xml:space="preserve" style="fill-rule:evenodd;clip-rule:evenodd;stroke-miterlimit:10;"><g id="Layer 2"><path d="M13.572,8.423c0,0.567 -0.46,1.027 -1.027,1.027c-0.567,0 -1.027,-0.46 -1.027,-1.027c0,-0.568 0.46,-1.028 1.027,-1.028c0.567,0 1.027,0.46 1.027,1.028" style="fill:#fff;"/><path d="M13.572,8.423c0,0.567 -0.46,1.027 -1.027,1.027c-0.567,0 -1.027,-0.46 -1.027,-1.027c0,-0.568 0.46,-1.028 1.027,-1.028c0.567,0 1.027,0.46 1.027,1.028Z" style="fill:none;stroke-width:1px;stroke:#606060;"/><path d="M14.44,12.347c-0.009,0.149 0.042,0.061 -0.275,0.115l-1.62,-0.005l0,-1.387l1.895,0c0,0 0.023,0.876 0,1.277M11.974,5.068l-7.349,0l0,-3.356l7.349,0l0,3.356ZM4.533,13.995l-0.015,-2.925l7.325,0.017l0.034,2.893l-7.344,0.015ZM3.627,12.451l-1.346,0c-0.249,-0.042 -0.333,-0.202 -0.341,-0.318c-0.018,-0.317 0,-1.063 0,-1.063l1.687,0l0,1.381ZM14.531,5.226c-0.274,0 -0.502,-0.73 -0.502,-0.73l-1.507,0l-0.046,-3.287l-3.343,0.018l-5.056,0.028l0,3.241l-1.734,0l-0.32,0.411l0,0.365l-0.822,0.456l0,6.849c0,0 0.229,0.683 0.731,0.729c0.502,0.046 1.917,0 1.917,0l0,1.461l8.542,0l0,-0.461l-0.005,0l0.035,-1.028l2.064,-0.017c0,0 0.548,-0.229 0.548,-0.548l0,-6.939c0,0 -0.228,-0.548 -0.502,-0.548" style="fill:#3e3e3e;"/><path d="M12.897,6.651c0,0.479 -0.387,0.866 -0.866,0.866c-0.478,0 -0.865,-0.387 -0.865,-0.866c0,-0.478 0.387,-0.865 0.865,-0.865c0.479,0 0.866,0.387 0.866,0.865" style="fill:#fff;"/><path d="M5.519,12.599l5.568,0" style="fill:none;stroke-width:0.6px;stroke:#404040;"/></g></svg>