<?xml version="1.0" encoding="utf-8"?>
<!-- Generator: Adobe Illustrator 19.2.1, SVG Export Plug-In . SVG Version: 6.00 Build 0)  -->
<svg version="1.1" id="Layer_1" xmlns="http://www.w3.org/2000/svg" xmlns:xlink="http://www.w3.org/1999/xlink" x="0px" y="0px"
	 viewBox="0 0 16 16" style="enable-background:new 0 0 16 16;" xml:space="preserve">
<style type="text/css">
	.st0{fill:none;stroke:#414141;stroke-width:1.5;stroke-miterlimit:10;}
	.st1{fill:none;stroke:#414141;stroke-miterlimit:10;}
	.st2{fill:none;stroke:#414141;stroke-width:0.5;stroke-miterlimit:10;}
	.st3{fill:#4FBC78;}
</style>
<polyline class="st0" points="2.9,11.1 2.9,4.8 8.4,1.6 14,4.8 14,11.1 8.4,14.3 6.3,13.3 "/>
<polyline class="st1" points="3.4,5 8.6,7.7 13.5,4.9 "/>
<line class="st1" x1="8.5" y1="14.5" x2="8.6" y2="7.7"/>
<line class="st2" x1="5.6" y1="6.2" x2="5.6" y2="11"/>
<line class="st2" x1="5.6" y1="6.3" x2="11.1" y2="3.1"/>
<line class="st2" x1="5.6" y1="2.7" x2="11.2" y2="6.2"/>
<line class="st2" x1="11.2" y1="6.2" x2="11.3" y2="12.7"/>
<path class="st3" d="M4.4,9.9c-1.6,0-2.8,1.2-2.8,2.8s1.2,2.8,2.8,2.8s2.8-1.2,2.8-2.8S5.9,9.9,4.4,9.9z M4.4,14.9l-1.8-2.3h1v-1.5
	h1.6v1.5h1L4.4,14.9z"/>
</svg>
