<?xml version="1.0" encoding="utf-8"?>
<!-- Generator: Adobe Illustrator 19.2.1, SVG Export Plug-In . SVG Version: 6.00 Build 0)  -->
<svg version="1.1" id="Layer_1" xmlns="http://www.w3.org/2000/svg" xmlns:xlink="http://www.w3.org/1999/xlink" x="0px" y="0px"
	 viewBox="0 0 16 16" style="enable-background:new 0 0 16 16;" xml:space="preserve">
<style type="text/css">
	.st0{fill:#3E3E3E;}
</style>
<g id="Layer_1_1_">
	<path class="st0" d="M13.8,7.7c0.7,0,1.1,0,1.8,0c0,0.1-1.8,2.5-2.8,3.6c-1.2-1.2-3.1-3.7-3.1-3.7h2.1c-0.1-1-0.5-1.8-1.1-2.4
		c-0.6-0.6-1.4-1-2.4-1.2C6,3.7,4.4,5,3.7,6.5C3.5,6.8,3.4,7.3,3.4,7.8l-2.1,0c0.1-1.1,0.6-2.3,1.1-3C3.4,3.2,4.9,2.1,7.2,2
		c2-0.1,3.5,0.7,4.5,1.6C12.9,4.6,13.6,5.9,13.8,7.7"/>
</g>
</svg>
