<?xml version="1.0" encoding="utf-8"?>
<!-- Generator: Adobe Illustrator 19.2.1, SVG Export Plug-In . SVG Version: 6.00 Build 0)  -->
<svg version="1.1" id="Layer_1" xmlns="http://www.w3.org/2000/svg" xmlns:xlink="http://www.w3.org/1999/xlink" x="0px" y="0px"
	 viewBox="0 0 16 16" style="enable-background:new 0 0 16 16;" xml:space="preserve">
<style type="text/css">
	.st0{fill:#414141;}
	.st1{fill:#FFFFFF;stroke:#231F20;stroke-miterlimit:10;}
	.st2{fill:none;}
</style>
<path class="st0" d="M8.9,12.5L5.8,9.7l-0.1,1.1c-0.5-0.2-2.1-0.9-2.7-2.4C1.4,4.9,4.6,2.4,4.8,2.1c0.3-0.4-0.2-0.2-0.2-0.2
	C4.2,2.1,2.6,3.3,1.8,4.7C1.4,5.4,1,6.3,0.9,7.3c-0.2,3.1,1.4,4.5,1.9,5.1c0.3,0.3,1.3,1.1,1.5,1.2C4.6,13.8,5,14,5.4,14.2l-0.1,1.1
	L8.9,12.5z"/>
<path class="st0" d="M7.4,3.4l3.1,2.8l0.1-1.1c0.5,0.2,2.1,0.9,2.7,2.4c1.5,3.4-1.6,5.9-1.8,6.2c-0.3,0.4,0.2,0.2,0.2,0.2
	c0.3-0.2,1.9-1.4,2.7-2.7c0.5-0.8,0.8-1.7,0.9-2.7c0.2-3.1-1.4-4.5-1.9-5.1c-0.3-0.3-1.3-1.1-1.5-1.2c-0.2-0.2-0.7-0.4-1.1-0.5
	L11,0.7L7.4,3.4z"/>
<path class="st1" d="M7.2,14.5"/>
<rect class="st2" width="16" height="16"/>
</svg>
