<?xml version="1.0" standalone="no"?><!DOCTYPE svg PUBLIC "-//W3C//DTD SVG 1.1//EN" "http://www.w3.org/Graphics/SVG/1.1/DTD/svg11.dtd"><svg width="100%" height="100%" viewBox="0 0 16 16" version="1.1" xmlns="http://www.w3.org/2000/svg" xmlns:xlink="http://www.w3.org/1999/xlink" xml:space="preserve" style="fill-rule:evenodd;clip-rule:evenodd;stroke-linejoin:round;stroke-miterlimit:1.41421;"><g id="Layer 1"><path d="M13.31,7.718c0.663,0.039 1.398,0.007 2.089,0.017c0.018,0.059 -0.084,0.139 -0.148,0.215c-0.96,1.135 -1.995,2.315 -2.961,3.456c-1.167,-1.189 -2.325,-2.47 -3.422,-3.671l2.401,0c-0.127,-1.045 -0.547,-1.818 -1.135,-2.418c-0.578,-0.591 -1.379,-1.033 -2.353,-1.201c-2.284,-0.394 -3.911,0.912 -4.591,2.369c-0.405,0.869 -0.5,2.045 -0.214,2.979c0.273,0.887 0.777,1.593 1.432,2.106c0.658,0.515 1.53,0.917 2.649,0.905c1.097,-0.012 1.91,-0.385 2.6,-0.939c0.264,0.224 0.5,0.496 0.741,0.757c0.239,0.261 0.501,0.508 0.69,0.774c-0.726,0.579 -1.507,1.051 -2.517,1.316c-1.046,0.274 -2.333,0.245 -3.357,-0.065c-1.842,-0.558 -3.302,-1.873 -4.031,-3.604c-0.401,-0.951 -0.587,-2.154 -0.444,-3.291c0.136,-1.087 0.55,-2.013 1.069,-2.748c1.055,-1.492 2.61,-2.594 4.92,-2.715c1.99,-0.104 3.533,0.715 4.541,1.646c1.106,1.02 1.834,2.312 2.041,4.112" style="fill:#3e3e3e;"/></g></svg>