<?xml version="1.0" encoding="utf-8"?>
<!-- Generator: Adobe Illustrator 19.2.1, SVG Export Plug-In . SVG Version: 6.00 Build 0)  -->
<svg version="1.1" id="Layer_2" xmlns="http://www.w3.org/2000/svg" xmlns:xlink="http://www.w3.org/1999/xlink" x="0px" y="0px"
	 viewBox="0 0 16 16" style="enable-background:new 0 0 16 16;" xml:space="preserve">
<style type="text/css">
	.st0{fill:#404040;}
</style>
<g>
	<path class="st0" d="M7,3v3H6V3H7 M7.3,2H5.7C5.3,2,5,2.3,5,2.7v3.5C5,6.7,5.3,7,5.7,7h1.5C7.7,7,8,6.7,8,6.3V2.7
		C8,2.3,7.7,2,7.3,2L7.3,2z"/>
</g>
<polygon class="st0" points="2,2 2,2 1,2 1,3 2,3 2,7 3,7 3,3 3,2 3,2 "/>
<polygon class="st0" points="10,2 10,2 9,2 9,3 10,3 10,7 11,7 11,3 11,2 11,2 "/>
<g>
	<path class="st0" d="M15,3v3h-1V3H15 M15.3,2h-1.5C13.3,2,13,2.3,13,2.8v3.5C13,6.7,13.3,7,13.7,7h1.5C15.7,7,16,6.7,16,6.3V2.8
		C16,2.3,15.7,2,15.3,2L15.3,2z"/>
</g>
<g>
	<path class="st0" d="M3,9v3H2V9H3 M3.3,8H1.7C1.3,8,1,8.3,1,8.7v3.5C1,12.7,1.3,13,1.7,13h1.5C3.7,13,4,12.7,4,12.3V8.7
		C4,8.3,3.7,8,3.3,8L3.3,8z"/>
</g>
<polygon class="st0" points="6,8 6,8 5,8 5,9 6,9 6,13 7,13 7,9 7,8 7,8 "/>
<g>
	<path class="st0" d="M11,9v3h-1V9H11 M11.3,8H9.7C9.3,8,9,8.3,9,8.7v3.5C9,12.7,9.3,13,9.7,13h1.5c0.4,0,0.7-0.3,0.7-0.7V8.7
		C12,8.3,11.7,8,11.3,8L11.3,8z"/>
</g>
<polygon class="st0" points="14,8 14,8 13,8 13,9 14,9 14,13 15,13 15,9 15,8 15,8 "/>
</svg>
