<?xml version="1.0" encoding="utf-8"?>
<!-- Generator: Adobe Illustrator 20.0.0, SVG Export Plug-In . SVG Version: 6.00 Build 0)  -->
<svg version="1.1" id="Layer_1" xmlns="http://www.w3.org/2000/svg" xmlns:xlink="http://www.w3.org/1999/xlink" x="0px" y="0px"
	 viewBox="0 0 16 16" style="enable-background:new 0 0 16 16;" xml:space="preserve">
<style type="text/css">
	.st0{fill:#FFFFFF;stroke:#231F20;stroke-miterlimit:10;}
	.st1{fill:none;}
	.st2{fill:#3FA9F5;}
</style>
<path class="st0" d="M7.2,14.5"/>
<rect class="st1" width="16" height="16"/>
<g>
	<path class="st2" d="M3.6,4.2C3.2,5.2,3.4,6.6,4,8c0.7,1.5,2.2,2.2,2.7,2.4l0.1-1.1l3.1,2.8l-3.6,2.7l0.1-1.1
		c-0.4-0.2-0.9-0.4-1.1-0.5C5.2,13.2,1.5,11,2,7c0.2-1.5,1-2.7,1.1-2.9c0,0,0.3-0.4,0.4-0.4C3.6,3.7,3.7,3.7,3.6,4.2z"/>
	<path class="st2" d="M12.4,12c0.3-1,0.1-2.3-0.5-3.7c-0.7-1.5-2.2-2.2-2.7-2.4l-0.1,1L6,4.1l3.6-2.7L9.5,2.5
		c0.4,0.2,0.9,0.4,1.1,0.5c0.2,0.1,1.2,0.9,1.5,1.2c0.5,0.6,2.1,2,1.9,5.1c-0.1,1-0.5,2-1,2.8c0,0-0.3,0.5-0.4,0.5
		C12.4,12.6,12.3,12.4,12.4,12z"/>
</g>
</svg>
