<?xml version="1.0" encoding="utf-8"?>
<!-- Generator: Adobe Illustrator 19.2.1, SVG Export Plug-In . SVG Version: 6.00 Build 0)  -->
<svg version="1.1" id="Layer_1" xmlns="http://www.w3.org/2000/svg" xmlns:xlink="http://www.w3.org/1999/xlink" x="0px" y="0px"
	 viewBox="0 0 16 16" style="enable-background:new 0 0 16 16;" xml:space="preserve">
<style type="text/css">
	.st0{fill:none;stroke:#404040;stroke-linecap:square;stroke-miterlimit:1.4142;}
	.st1{fill:#404040;}
</style>
<path class="st0" d="M1.3,13.6"/>
<path class="st1" d="M15,3.8V2.6H8L7.2,2.2H1v2.7l0,0v8.9h13.9L15,3.8L15,3.8z M2,12.8V4.9h12v7.9H2z"/>
<g>
	<path class="st1" d="M9.9,12.2c0,0-1.5-1.3-2-1.8c-0.1-0.1-0.1-0.1-0.1,0c-1.4,0.9-3.3,0.4-4.1-1.1C3,7.9,3.5,6.2,4.9,5.5
		c1.4-0.7,3.2-0.1,3.8,1.3c0.3,0.7,0.3,1.4,0.1,2.1c0,0.1,0,0.1,0.1,0.1c0.7,0.7,2.1,1.8,2.1,1.8L9.9,12.2z M6.6,9.9
		C7.7,9.6,8.3,8.5,8,7.5c-0.3-1-1.4-1.6-2.4-1.3C4.6,6.4,4,7.5,4.3,8.6C4.5,9.6,5.6,10.2,6.6,9.9z"/>
</g>
<rect x="10.7" y="11.2" transform="matrix(0.7563 0.6542 -0.6542 0.7563 10.5868 -4.2875)" class="st1" width="0.8" height="1.8"/>
</svg>
