<?xml version="1.0" encoding="utf-8"?>
<!-- Generator: Adobe Illustrator 19.2.1, SVG Export Plug-In . SVG Version: 6.00 Build 0)  -->
<svg version="1.1" id="Layer_1" xmlns="http://www.w3.org/2000/svg" xmlns:xlink="http://www.w3.org/1999/xlink" x="0px" y="0px"
	 viewBox="0 0 16 16" style="enable-background:new 0 0 16 16;" xml:space="preserve">
<style type="text/css">
	.st0{fill:#FFFFFF;stroke:#414141;stroke-width:1.5;stroke-miterlimit:10;}
	.st1{fill:#414141;}
</style>
<rect x="2.6" y="1.8" class="st0" width="11.7" height="12.5"/>
<rect x="1.1" y="2.2" class="st1" width="2.9" height="1.1"/>
<rect x="1.1" y="4.4" class="st1" width="2.9" height="1.1"/>
<rect x="1.1" y="6.6" class="st1" width="2.9" height="1.1"/>
<rect x="1.1" y="8.7" class="st1" width="2.9" height="1.1"/>
<rect x="1.1" y="10.5" class="st1" width="2.9" height="1.1"/>
<rect x="1.1" y="12.6" class="st1" width="2.9" height="1.1"/>
<g>
	<path class="st1" d="M11,11.1c0,0-1.5-1.3-2-1.8c-0.1-0.1-0.1-0.1-0.1,0c-1.4,0.9-3.3,0.4-4.1-1.1C4.1,6.8,4.6,5.1,6,4.4
		s3.2-0.1,3.8,1.3c0.3,0.7,0.3,1.4,0.1,2.1c0,0.1,0,0.1,0.1,0.1c0.7,0.7,2.1,1.8,2.1,1.8L11,11.1z M7.7,8.8c1.1-0.3,1.7-1.4,1.4-2.4
		S7.7,4.8,6.7,5.1c-1,0.2-1.6,1.3-1.3,2.4C5.6,8.5,6.7,9.1,7.7,8.8z"/>
</g>
<polygon class="st1" points="12.6,10.1 13.3,10.7 12.1,12.1 11.5,11.5 "/>
</svg>
