<?xml version="1.0" encoding="utf-8"?>
<!-- Generator: Adobe Illustrator 19.2.1, SVG Export Plug-In . SVG Version: 6.00 Build 0)  -->
<svg version="1.1" xmlns="http://www.w3.org/2000/svg" xmlns:xlink="http://www.w3.org/1999/xlink" x="0px" y="0px"
	 viewBox="0 0 16 16" style="enable-background:new 0 0 16 16;" xml:space="preserve">
<style type="text/css">
	.st0{display:none;}
	.st1{fill:none;stroke:#414141;stroke-width:1.5;stroke-miterlimit:5;}
	.st2{fill:none;stroke:#414141;stroke-miterlimit:10;}
	.st3{fill:none;stroke:#414141;stroke-width:0.75;stroke-miterlimit:10;stroke-dasharray:1,0.5;}
	.st4{fill:#FF6F6F;}
	.st5{fill:none;}
</style>
<g id="Layer_1">
	<polygon class="st1" points="1.5,4.2 4.5,2.1 7.8,4.2 11.2,2.1 14.5,4.2 14.5,12.9 11.2,10.4 7.8,13.4 4.6,10.7 1.5,12.9 	"/>
	<line class="st2" x1="7.8" y1="4.2" x2="7.9" y2="12.8"/>
	<line class="st2" x1="4.5" y1="2.1" x2="4.4" y2="10.9"/>
	<line class="st2" x1="11.2" y1="2.1" x2="11.2" y2="10.4"/>
	<path class="st3" d="M1.5,9.1c0,0,2.7-2.7,2.9-2.7l3.4,2.4l3.4-2.4"/>
	<polygon class="st4" points="13.1,7.8 13.4,7.6 13.1,7.1 13.5,6.7 13.1,6.3 12.7,6.7 12.3,6.2 12,6.5 12.3,6.9 11.9,7.3 12.3,7.7 
		12.7,7.4 	"/>
	<rect class="st5" width="16" height="16"/>
</g>
</svg>
