<?xml version="1.0" encoding="utf-8"?>
<!-- Generator: Adobe Illustrator 20.1.0, SVG Export Plug-In . SVG Version: 6.00 Build 0)  -->
<svg version="1.1" id="Layer_2" xmlns="http://www.w3.org/2000/svg" xmlns:xlink="http://www.w3.org/1999/xlink" x="0px" y="0px"
	 viewBox="0 0 75 14" style="enable-background:new 0 0 75 14;" xml:space="preserve">
<style type="text/css">
	.st0{fill:#404040;}
	.st1{fill:#FF6F6F;}
</style>
<g>
	<path class="st0" d="M36.5,2v10.1l-10-0.1V2H36.5 M37.5,1h-12v12h12V1L37.5,1z"/>
</g>
<polygon class="st0" points="27,5.6 29,5.6 30.2,7.6 38.5,1 38.5,3 30,10.6 "/>
<g>
	<path class="st0" d="M62.5,2v10.1l-10-0.1V2H62.5 M63.5,1h-12v12h12V1L63.5,1z"/>
</g>
<g>
	<path class="st1" d="M54.9,5.2L56,4.1l1.7,1.7l1.7-1.7l1.1,1.1l-1.7,1.7l1.7,1.7l-1.1,1.1L57.7,8L56,9.7l-1.1-1.1l1.7-1.7L54.9,5.2
		z"/>
</g>
<g>
	<path class="st0" d="M11.5,2v10.1L1.5,12V2H11.5 M12.5,1h-12v12h12V1L12.5,1z"/>
</g>
</svg>
