<?xml version="1.0" encoding="utf-8"?>
<!-- Generator: Adobe Illustrator 19.2.1, SVG Export Plug-In . SVG Version: 6.00 Build 0)  -->
<svg version="1.1" id="Layer_1" xmlns="http://www.w3.org/2000/svg" xmlns:xlink="http://www.w3.org/1999/xlink" x="0px" y="0px"
	 viewBox="0 0 16 16" style="enable-background:new 0 0 16 16;" xml:space="preserve">
<style type="text/css">
	.st0{fill:#3E3E3E;}
	.st1{fill:none;}
	.st2{fill:#404040;}
</style>
<path class="st0" d="M1,1v14h14V1H1z M4.5,2v0.5H4V2H4.5z M3.5,2v0.5H3V2H3.5z M2,2h0.5v0.5H2V2z M2,14V3.5h12V14H2z"/>
<rect class="st1" width="16" height="16"/>
<path class="st2" d="M4,6.5V5.7l2.7-1.5v1.1L5.2,6.1l1.6,0.8V8L4,6.5z"/>
<path class="st2" d="M8.4,8H7.5l1.3-3.8h0.8L8.4,8z"/>
<path class="st2" d="M10.6,8V6.9l1.5-0.8l-1.5-0.8V4.2l2.7,1.5v0.7L10.6,8z"/>
<rect x="4.6" y="8.6" transform="matrix(0.7274 -0.6863 0.6863 0.7274 -5.7113 6.7483)" class="st2" width="2" height="4"/>
<polygon class="st2" points="6.5,13 8,11.6 8.4,13.5 "/>
<rect x="2.6" y="7.9" transform="matrix(0.7274 -0.6863 0.6863 0.7274 -4.8426 4.7485)" class="st2" width="2" height="1.1"/>
</svg>
