<?xml version="1.0" encoding="utf-8"?>
<!-- Generator: Adobe Illustrator 19.2.1, SVG Export Plug-In . SVG Version: 6.00 Build 0)  -->
<svg version="1.1" id="Layer_1" xmlns="http://www.w3.org/2000/svg" xmlns:xlink="http://www.w3.org/1999/xlink" x="0px" y="0px"
	 viewBox="0 0 16 16" style="enable-background:new 0 0 16 16;" xml:space="preserve">
<style type="text/css">
	.st0{fill:#3E3E3E;}
	.st1{fill:none;}
	.st2{fill:#404040;}
</style>
<title>script</title>
<path class="st0" d="M1,1v14h14V1H1z M4.5,2v0.5H4V2H4.5z M3.5,2v0.5H3V2H3.5z M2,2h0.5v0.5H2V2z M2,14V3.5h12V14H2z"/>
<rect class="st1" width="16" height="16"/>
<path class="st2" d="M3.2,8.9V8.1l2.7-1.5v1.1L4.3,8.5l1.6,0.8v1.1L3.2,8.9z"/>
<path class="st2" d="M7.5,10.4H6.6l1.3-3.8h0.8L7.5,10.4z"/>
<path class="st2" d="M9.8,10.4V9.3l1.5-0.8L9.8,7.7V6.6l2.7,1.5v0.7L9.8,10.4z"/>
</svg>
