<?xml version="1.0" standalone="no"?><!DOCTYPE svg PUBLIC "-//W3C//DTD SVG 1.1//EN" "http://www.w3.org/Graphics/SVG/1.1/DTD/svg11.dtd"><svg width="100%" height="100%" viewBox="0 0 16 16" version="1.1" xmlns="http://www.w3.org/2000/svg" xmlns:xlink="http://www.w3.org/1999/xlink" xml:space="preserve" style="fill-rule:evenodd;clip-rule:evenodd;stroke-linejoin:round;stroke-miterlimit:1.41421;"><g id="Layer 2"><path d="M9.151,13.005c0,0.665 -0.541,1.205 -1.206,1.205c-0.665,0 -1.205,-0.54 -1.205,-1.205c0,-0.666 0.54,-1.205 1.205,-1.205c0.665,0 1.206,0.539 1.206,1.205" style="fill:#404040;fill-rule:nonzero;"/><path d="M10.561,1.827l0.169,0.207l0,0.933l1.415,0c0,0 0.339,0 0.226,0.226c-0.114,0.226 -1.644,2.156 -1.644,2.156l0,1.612l1.509,0c0,0 0.238,0.191 0.158,0.361c-0.08,0.17 -1.68,2.149 -1.68,2.149l0,1.668l1.487,0c0,0 0.36,0.227 0.209,0.397c-0.153,0.169 -1.708,2.121 -1.708,2.121l0.012,1.386c0,0 -0.04,0.198 -0.266,0.198l-1.216,0l-0.114,0.396l-2.319,0l-0.113,-0.396l-1.215,0c-0.227,0 -0.267,-0.198 -0.267,-0.198l0.012,-1.386c0,0 -1.555,-1.952 -1.708,-2.121c-0.151,-0.17 0.208,-0.396 0.209,-0.397l1.487,0l0,-1.668c0,0 -1.6,-1.979 -1.679,-2.149c-0.08,-0.169 0.156,-0.36 0.157,-0.361l1.51,0l0,-1.612c0,0 -1.531,-1.93 -1.644,-2.156c-0.113,-0.226 0.224,-0.226 0.226,-0.226l1.414,0l0,-0.933l0.169,-0.207l5.204,0ZM9.54,12.988c0,0.872 -0.708,1.579 -1.579,1.579c-0.872,0 -1.579,-0.707 -1.579,-1.579c0,-0.872 0.707,-1.578 1.579,-1.578c0.871,0 1.579,0.706 1.579,1.578ZM7.961,10.052c-0.871,0 -1.579,-0.707 -1.579,-1.578c0,-0.872 0.708,-1.579 1.579,-1.579c0.872,0 1.58,0.707 1.58,1.579c0,0.871 -0.708,1.578 -1.58,1.578ZM7.959,2.572c0.872,0 1.579,0.707 1.579,1.579c0,0.872 -0.707,1.579 -1.579,1.579c-0.872,0 -1.579,-0.707 -1.579,-1.579c0,-0.872 0.707,-1.579 1.579,-1.579Z" style="fill:#404040;"/></g></svg>