<?xml version="1.0" encoding="utf-8"?>
<!-- Generator: Adobe Illustrator 19.2.1, SVG Export Plug-In . SVG Version: 6.00 Build 0)  -->
<svg version="1.1" id="Layer_1" xmlns="http://www.w3.org/2000/svg" xmlns:xlink="http://www.w3.org/1999/xlink" x="0px" y="0px"
	 viewBox="0 0 16 16" style="enable-background:new 0 0 16 16;" xml:space="preserve">
<style type="text/css">
	.st0{fill:#404040;}
</style>
<path class="st0" d="M12.2,10.4h-1.5V8.7l1.5-2.5h-1.5V4.6l1.5-2.2h-1.5V0.8H5.2v1.6c0,0-1.4,0-1.5,0s1.5,2.2,1.5,2.2v1.6H3.7
	l1.5,2.5v1.7H3.8l1.5,2.5v1.6h1.5L7,15.1h2.2l0.2-0.6h1.5v-1.6L12.2,10.4z M8,1.8c0.9,0,1.6,0.7,1.6,1.6S8.9,5,8,5S6.4,4.3,6.4,3.4
	S7.1,1.8,8,1.8z M8,13.8c-0.9,0-1.6-0.7-1.6-1.6c0-0.9,0.7-1.6,1.6-1.6s1.6,0.7,1.6,1.6S8.9,13.8,8,13.8z M8,9.3
	c-0.9,0-1.6-0.7-1.6-1.6S7.1,6.1,8,6.1s1.6,0.7,1.6,1.6S8.9,9.3,8,9.3z"/>
</svg>
