<?xml version="1.0" standalone="no"?><!DOCTYPE svg PUBLIC "-//W3C//DTD SVG 1.1//EN" "http://www.w3.org/Graphics/SVG/1.1/DTD/svg11.dtd"><svg width="100%" height="100%" viewBox="0 0 16 16" version="1.1" xmlns="http://www.w3.org/2000/svg" xmlns:xlink="http://www.w3.org/1999/xlink" xml:space="preserve" style="fill-rule:evenodd;clip-rule:evenodd;stroke-linejoin:round;stroke-miterlimit:1.41421;"><g id="Layer 1"><rect x="6.355" y="0.688" width="3.154" height="14.313" style="fill:#404040;"/><path d="M9.508,15.001l-3.153,0l0,-14.313l3.153,0l0,14.313ZM7.799,2.133l0,11.423l0.265,0l0,-11.423l-0.265,0Z" style="fill:#404040;"/><rect x="0.951" y="9.135" width="3.119" height="5.866" style="fill:#404040;"/><path d="M4.07,15.001l-3.119,0l0,-5.866l3.119,0l0,5.866ZM2.315,10.499l0,3.137l0.391,0l0,-3.137l-0.391,0Z" style="fill:#404040;"/><rect x="11.793" y="4.304" width="3.127" height="10.696" style="fill:#404040;"/><path d="M14.92,15.001l-3.127,0l0,-10.697l3.127,0l0,10.697ZM13.281,13.513l0.151,0l0,-7.721l-0.151,0l0,7.721Z" style="fill:#404040;"/></g></svg>