<?xml version="1.0" standalone="no"?><!DOCTYPE svg PUBLIC "-//W3C//DTD SVG 1.1//EN" "http://www.w3.org/Graphics/SVG/1.1/DTD/svg11.dtd"><svg width="100%" height="100%" viewBox="0 0 16 16" version="1.1" xmlns="http://www.w3.org/2000/svg" xmlns:xlink="http://www.w3.org/1999/xlink" xml:space="preserve" style="fill-rule:evenodd;clip-rule:evenodd;stroke-linejoin:round;stroke-miterlimit:1.41421;"><clipPath id="_clip1"><path id="Layer 1" d="M3.914,0.928c-0.142,0.008 -0.754,0.079 -0.776,0.214c-0.014,0.095 0.256,0.3 0.366,0.41c0.149,0.149 0.265,0.281 0.38,0.396c0.235,0.235 0.602,0.51 0.746,0.822c0.271,0.587 -0.119,0.986 -0.441,1.309c-0.179,0.178 -0.379,0.4 -0.563,0.486c-0.75,0.354 -1.219,-0.35 -1.583,-0.715c-0.126,-0.126 -0.258,-0.258 -0.381,-0.38c-0.119,-0.119 -0.257,-0.313 -0.426,-0.32c-0.198,0.539 -0.159,1.105 -0.031,1.583c0.308,1.143 1.204,1.954 2.421,2.147c0.156,0.024 0.313,0.023 0.483,0.022c0.12,0 0.246,-0.001 0.384,0.007c0.715,0.043 1.125,0.48 1.506,0.868c0.144,0.145 0.282,0.297 0.427,0.441c1.75,1.741 3.479,3.516 5.25,5.236c0.308,0.298 0.588,0.641 0.899,0.852c0.139,0.096 0.286,0.179 0.456,0.213c1.2,0.234 1.966,-1.079 1.369,-1.994c-0.197,-0.304 -0.59,-0.637 -0.912,-0.959c-1.922,-1.922 -3.743,-3.742 -5.662,-5.661c-0.32,-0.32 -0.648,-0.66 -0.731,-1.157c-0.059,-0.361 0.032,-0.727 0,-1.126c-0.066,-0.829 -0.489,-1.501 -0.989,-1.948c-0.481,-0.432 -1.157,-0.751 -2.007,-0.751c-0.061,0 -0.122,0.002 -0.185,0.005l0,0ZM12.712,13.286c-0.026,-0.328 0.186,-0.611 0.547,-0.639c0.356,-0.026 0.71,0.251 0.625,0.715c-0.055,0.295 -0.317,0.443 -0.579,0.443c-0.283,0 -0.567,-0.171 -0.593,-0.519l0,0Z"/></clipPath><g clip-path="url(#_clip1)"><path d="M17.936,8.35l-3.926,6.8l-14.776,-8.532l3.926,-6.8l14.776,8.532Z" style="fill:#404040;fill-rule:nonzero;"/></g></svg>