<?xml version="1.0" encoding="utf-8"?>
<svg version="1.0" id="Layer_1" xmlns="http://www.w3.org/2000/svg" xmlns:xlink="http://www.w3.org/1999/xlink" x="0px" y="0px"
	 viewBox="0 0 16 16" style="enable-background:new 0 0 16 16;" xml:space="preserve">
<style type="text/css">
	.st0{fill:#F7A808;}
	.st1{fill:none;}
</style>
<g>
	<path class="st0" d="M8,1.2C4.2,1.2,1.2,4.2,1.2,8c0,3.8,3,6.8,6.8,6.8s6.8-3.1,6.8-6.8C14.8,4.2,11.8,1.2,8,1.2z M11.9,9.2
		l-0.3,0.6l0.8,1.1L11,12.4c0,0-0.8-0.6-1.1-0.8c-0.2,0.1-0.5,0.2-0.7,0.3c0,0.5-0.3,1.4-0.3,1.4H7.1l-0.3-1.4l-0.6-0.4l-1.3,0.9
		L3.7,11l0.8-1.1L4.1,9.2c0,0-1-0.1-1.4-0.3c0,0,0-0.1,0-0.1l0-1.8c0,0,0.9-0.1,1.4-0.2l0.3-0.6L3.6,5L5,3.6l1.1,0.8l0.7-0.3
		l0.3-1.4c0,0,1.4-0.1,1.9,0C9,3.2,9.1,3.6,9.2,4.1c0.2,0.1,0.7,0.3,0.7,0.3L11,3.6L12.4,5l-0.8,1.1l0.3,0.7l1.5,0.5l0,1.7L11.9,9.2
		z"/>
	<path class="st0" d="M7.6,5.9c-1,0.2-1.8,1-1.8,2.1c0,1.2,0.9,2.2,2.2,2.2c1.3,0,2.7-1.6,2-3.2C9.7,6.3,8.7,5.7,7.6,5.9z"/>
</g>
<rect y="0" class="st1" width="16" height="16"/>
</svg>
