<?xml version="1.0" encoding="utf-8"?>
<svg version="1.1" id="Layer_1" xmlns="http://www.w3.org/2000/svg" xmlns:xlink="http://www.w3.org/1999/xlink" x="0px" y="0px"
	 viewBox="0 0 16 16" style="enable-background:new 0 0 16 16;" xml:space="preserve">
<style type="text/css">
	.st0{fill:#404040;}
</style>
<path class="st0" d="M1.9,6.1l0.2,0.2c0,0,0.8-0.6,0.8-0.8S2.8,5.3,2.8,5.1c0.1-0.7,3-3.4,4.4-3.8c0.6-0.2,1.6-0.3,2.3,0
	C9.4,1.5,9.2,1.5,9,1.5c-1,0.4-1.7,1-2.3,1.7c-0.2,0.3-0.5,0.6-0.5,1c0,0.1,0.1,0.2,0.1,0.4C6.3,4.9,6,5,5.8,5.2
	C6.4,5.8,6.6,6,7,6.4c0.5-0.3,1.1-0.3,1.5,0.2l6,6c0.5,0.5,0.5,1.4-0.1,2c-0.6,0.6-1.5,0.6-2,0.1l-5.9-6C6.2,8.4,6.1,8,6.2,7.6
	C5.8,7.2,5.7,7.1,4.9,6.3c0,0-0.3,0.3-0.6,0.6C4.2,7,4.1,6.8,3.9,6.8S3.2,7.4,3.2,7.4s0.2,0.1,0.3,0.2c-0.1,0.2-1,1-1,1L1,7
	C1.1,6.8,1.9,6.1,1.9,6.1z"/>
</svg>
