<?xml version="1.0" standalone="no"?><!DOCTYPE svg PUBLIC "-//W3C//DTD SVG 1.1//EN" "http://www.w3.org/Graphics/SVG/1.1/DTD/svg11.dtd"><svg width="100%" height="100%" viewBox="0 0 16 16" version="1.1" xmlns="http://www.w3.org/2000/svg" xmlns:xlink="http://www.w3.org/1999/xlink" xml:space="preserve" style="fill-rule:evenodd;clip-rule:evenodd;stroke-linejoin:round;stroke-miterlimit:1.41421;"><path d="M12.8,1.1c0,0.5 0,0.9 0,1.4l-1.7,0c0,0.4 2.2,5.3 -4.6,5.2c-0.2,0.3 -0.7,1 -0.7,1.4c3.4,-0.1 6.5,-0.1 6.9,1.7c0.5,2.3 -1.101,3.5 -3.2,3.9c-2.5,0.5 -6.5,0.1 -6.3,-2.9c0.1,-0.8 0.8,-1.1 0.8,-1.1c-1.4,-1 -0.1,-2.7 0.8,-3.3c-3.1,-3.1 -0.5,-6.3 2.5,-6.3c0.7,0 2,0.1 2,0.1l3.5,-0.1ZM5.8,3.9c-0.3,2.5 3.5,2.1 3.7,0.8c0.2,-1.6 -0.7,-2.2 -2.1,-2.1c-0.7,0.1 -1.5,0.7 -1.6,1.3ZM5.2,12.2c0.5,1.399 5,1 5.399,-0.4c0,-0.2 0.101,-0.399 -0.199,-0.6c-1,-0.5 -3.601,-0.5 -4.7,0c-0.3,0.2 -0.6,0.7 -0.5,1Z" style="fill:#404040;fill-rule:nonzero;"/></svg>