<?xml version="1.0" encoding="utf-8"?>
<svg version="1.1" id="Layer_1" xmlns="http://www.w3.org/2000/svg" xmlns:xlink="http://www.w3.org/1999/xlink" x="0px" y="0px"
	 viewBox="0 0 16 16" style="enable-background:new 0 0 16 16;" xml:space="preserve">
<style type="text/css">
	.st0{fill:#3FA9F5;stroke:#3FA9F5;stroke-width:0.48;stroke-miterlimit:10;}
</style>
<title>service-web-rest</title>
<path class="st0" d="M8,1.3c1.8,0,3.5,0.7,4.8,1.9c0.6,0.6,1,1.3,1.4,2C14.5,6.1,14.7,7,14.8,8c0,1.8-0.7,3.5-2,4.7
	c-1.2,1.3-2.9,2-4.7,2c-1.8,0-3.5-0.7-4.8-1.9c-0.6-0.6-1-1.3-1.4-2C1.5,9.9,1.3,9,1.3,8.1c0-1.8,0.7-3.5,1.9-4.7
	c0.6-0.6,1.3-1.1,2-1.4C6.1,1.5,7,1.3,8,1.3z M5.8,4.5c0.6,0.1,1.3,0.2,1.9,0.2c0-0.9,0-2,0-2.9C6.7,2.4,6,3.4,5.8,4.5z M8.2,1.9
	c0,0.9,0,1.9,0,2.8c0.7,0,1.3-0.1,1.9-0.3C9.8,3.4,9.4,2.3,8.2,1.9C8.3,1.9,8.3,1.9,8.2,1.9z M9.5,2c0.6,0.7,1,1.5,1.2,2.3
	c0.6-0.2,1.1-0.4,1.7-0.7C11.6,2.9,10.6,2.3,9.5,2C9.4,2,9.4,2,9.5,2z M6.5,2L6.5,2C5.4,2.3,4.4,2.9,3.6,3.7C4.1,4,4.7,4.2,5.3,4.4
	C5.5,3.5,6,2.7,6.5,2L6.5,2L6.5,2z M10.8,4.9c0.2,0.9,0.3,1.9,0.4,2.8c1,0,2,0,3,0c0-1.3-0.5-2.6-1.4-3.6
	C12.1,4.4,11.5,4.7,10.8,4.9L10.8,4.9z M1.8,7.8h2.9c0-1,0.1-1.9,0.4-2.8C4.5,4.7,3.8,4.4,3.2,4.1C2.4,5.1,1.9,6.4,1.8,7.8L1.8,7.8z
	 M5.3,7.8h2.5V5.3C7,5.3,6.3,5.2,5.7,5.1C5.4,5.9,5.3,6.8,5.3,7.8L5.3,7.8z M8.3,5.3c0,0.8,0,1.6,0,2.4h2.4c0-0.9-0.1-1.8-0.4-2.7
	C9.6,5.2,9,5.3,8.3,5.3L8.3,5.3z M1.9,8.3C1.9,9,2,9.8,2.3,10.4c0.2,0.4,0.4,0.8,0.7,1.2C3,11.8,3.1,11.9,3.3,12
	c0.2-0.1,0.3-0.1,0.4-0.2c0.5-0.2,0.9-0.4,1.4-0.6c-0.2-0.9-0.3-1.9-0.4-2.8C3.8,8.2,2.8,8.2,1.9,8.3L1.9,8.3z M5.3,8.3
	c0,0.9,0.1,1.8,0.3,2.7c0.7-0.1,1.4-0.2,2.1-0.3V8.3C6.9,8.2,6.1,8.2,5.3,8.3L5.3,8.3z M8.3,8.3c0,0.8,0,1.6,0,2.4
	c0.7,0,1.4,0.1,2.1,0.3c0.2-0.9,0.3-1.8,0.4-2.7C9.9,8.2,9,8.2,8.3,8.3L8.3,8.3z M11.3,8.3c0,1-0.2,1.9-0.4,2.8
	c0.7,0.2,1.3,0.5,1.9,0.8c0.9-1,1.4-2.3,1.4-3.6C13.2,8.2,12.2,8.2,11.3,8.3L11.3,8.3z M5.9,11.5c0.4,1.1,0.8,2.2,1.9,2.7v-3
	C7.1,11.2,6.5,11.3,5.9,11.5L5.9,11.5z M8.3,11.3c0,1,0,1.9,0,2.9c0.5-0.2,0.9-0.6,1.1-1.1c0.3-0.5,0.5-1,0.7-1.6
	c-0.6-0.2-1.3-0.2-1.9-0.3C8.3,11.2,8.3,11.2,8.3,11.3L8.3,11.3z M5.3,11.7c-0.6,0.2-1.1,0.4-1.7,0.7c0.4,0.4,0.8,0.7,1.3,1
	C5.5,13.7,6,13.9,6.6,14C6,13.3,5.5,12.5,5.3,11.7L5.3,11.7z M10.8,11.7c-0.3,0.9-0.7,1.7-1.3,2.4c0.6-0.1,1.1-0.3,1.6-0.6
	c0.5-0.3,0.9-0.6,1.3-1C11.9,12.1,11.3,11.8,10.8,11.7L10.8,11.7z"/>
</svg>
