<?xml version="1.0" encoding="utf-8"?>
<svg version="1.1" id="Layer_1" xmlns="http://www.w3.org/2000/svg" xmlns:xlink="http://www.w3.org/1999/xlink" x="0px" y="0px"
	 viewBox="0 0 16 16" style="enable-background:new 0 0 16 16;" xml:space="preserve">
<style type="text/css">
	.st0{fill:#404040;}
	.st1{fill:none;}
	.st2{fill:none;stroke:#404040;stroke-width:1.0275;stroke-miterlimit:10;}
	.st3{fill:none;stroke:#404040;stroke-width:0.9826;stroke-miterlimit:10;}
</style>
<g>
	<path class="st0" d="M14,2v12H2V2H14 M15,1H1v14h14V1L15,1z"/>
</g>
<g>
	<path class="st0" d="M12.8,14.5c0,0-3.1-2.3-3.3-2.5c-0.1-0.1-0.1-0.1-0.2,0c-2.1,1.4-5,0.6-6.2-1.7c-1-2.1-0.2-4.7,2-5.7
		c2.1-1.1,4.8-0.2,5.8,2c0.5,1.1,0.5,2.1,0.2,3.2c0,0.1,0,0.2,0.1,0.2c1.1,1,2.1,1.4,3.2,2.3C14.3,12.5,12.8,14.5,12.8,14.5z
		 M7.6,11.2c1.6-0.4,2.5-2.1,2.1-3.6s-2.1-2.5-3.6-2C4.5,6,3.6,7.6,4,9.2S6,11.7,7.6,11.2z"/>
</g>
<rect class="st1" width="16" height="16"/>
<line class="st2" x1="9.6" y1="6.6" x2="3.7" y2="6.6"/>
<line class="st3" x1="10.6" y1="8.6" x2="3.8" y2="8.6"/>
<line class="st3" x1="10.5" y1="10.6" x2="3.8" y2="10.6"/>
</svg>
