<?xml version="1.0" encoding="utf-8"?>
<svg version="1.1" id="Layer_1" xmlns="http://www.w3.org/2000/svg" xmlns:xlink="http://www.w3.org/1999/xlink" x="0px" y="0px"
	 viewBox="0 0 16 16" style="enable-background:new 0 0 16 16;" xml:space="preserve">
<style type="text/css">
	.st0{fill:#404040;}
</style>
<rect x="4" y="7" class="st0" width="2" height="2"/>
<rect x="7" y="7" class="st0" width="2" height="2"/>
<rect x="10" y="7" class="st0" width="2" height="2"/>
<rect x="4" y="10" class="st0" width="2" height="2"/>
<rect x="7" y="10" class="st0" width="2" height="2"/>
<rect x="10" y="10" class="st0" width="2" height="2"/>
<path class="st0" d="M12,3c0,0,0.1-2,0-2h-2v2H6c0,0,0-1.4,0-2H4v2H1v12h14V3H12z M14,13H2V5h12C14,4.9,14,13,14,13z"/>
</svg>
