<?xml version="1.0" encoding="utf-8"?>
<!-- Generator: Adobe Illustrator 20.1.0, SVG Export Plug-In . SVG Version: 6.00 Build 0)  -->
<svg version="1.1" id="Layer_2" xmlns="http://www.w3.org/2000/svg" xmlns:xlink="http://www.w3.org/1999/xlink" x="0px" y="0px"
	 viewBox="0 0 64 64" style="enable-background:new 0 0 64 64;" xml:space="preserve">
<style type="text/css">
	.st0{fill:#FF6F6F;}
</style>
<path class="st0" d="M7.1,60.6c0.3-0.5,0.6-1.1,1-1.6c3.2-4.8,6.4-9.5,9.8-14.7c-0.3-0.2-0.7-0.3-1-0.6c-3.7-3.7-6.4-7.9-7.2-13.1
	c-0.7-4.9,0.1-9.6,2.8-13.8c2-3,4.8-4.2,8.3-3.7c3.9,0.6,7.3,2.3,10.2,4.2c0,0-3.2,3.6-3.1,3.6c0.2,0.2-2.1-1.1-3.3-1.5
	c-1.7-0.6-3.2-1.4-5-1.7c-1.8-0.2-2.6,0.7-2.5,2.5c0.1,2.2,0.8,4.2,1.8,6.2c4,7.5,9.9,13.1,17.9,16.2c1.2,0.5,2.5,0.7,3.8,0.8
	c1.4,0.1,1.9-0.5,1.9-1.9c0-2.7-1.1-5.1-2.3-7.5c-0.3-0.5-0.6-1-0.4-1.1c1.1-1.2,2.2-2.3,3.3-3.6c1.3,1.8,2.4,4,3.3,6.4
	c0.7,2.2,1.2,4.4,1,6.7c-0.3,2.2-1.3,3.7-3.1,5c-3.7,2.4-7.6,3.7-12,3.5c-2.1-0.1-4.1-0.6-6.2-0.9c0,3.5,0,7,0,10.6
	c-1.6,0-3.3,0-4.9,0c0-4.3,0.1-8.6,0.1-12.8c0-0.2-0.2-0.4-0.4-0.9c-0.4,0.5-0.6,0.9-0.8,1.2c-2.1,3.1-4.2,6.3-6.3,9.4
	c-0.7,1-1.3,2.1-2,3.1C10.2,60.6,8.6,60.6,7.1,60.6z"/>
<path class="st0" d="M54.2,3.4c0.9,0.9,1.7,1.9,2.7,2.9c-1.8,1.8-3.6,3.5-5.5,5.3c1.9,1.9,3.7,3.6,5.4,5.4c-1.1,1.1-2,2-3,3
	c-1.7-1.7-3.4-3.5-5.3-5.4c-1.8,1.9-3.6,3.6-5.4,5.5c-1-1-1.9-1.9-2.8-2.8c1.8-1.7,3.6-3.5,5.5-5.4c-2-1.9-3.9-3.6-5.7-5.4
	c1.1-1.2,2-2.1,2.8-3.1c0.1,0,0.1,0,0.2,0C45,5.2,46.8,7,48.7,9C50.5,7,52.3,5.2,54,3.4C54.1,3.4,54.2,3.4,54.2,3.4z"/>
<path class="st0" d="M39.8,24.5c0-2.8-2.3-5.1-5.1-5.1c-2.6,0-4.7,1.9-5,4.4l-7.5,1.2l0.4,2.5l7.4-1.2c0.6,1.4,1.7,2.5,3.2,2.9
	L32,36.2l2.5,0.4l1.2-7.2C38,29,39.8,27,39.8,24.5z"/>
</svg>
