<?xml version="1.0" encoding="utf-8"?>
<!-- Generator: Adobe Illustrator 19.2.1, SVG Export Plug-In . SVG Version: 6.00 Build 0)  -->
<svg version="1.1" id="Layer_1" xmlns="http://www.w3.org/2000/svg" xmlns:xlink="http://www.w3.org/1999/xlink" x="0px" y="0px"
	 viewBox="0 0 16 16" style="enable-background:new 0 0 16 16;" xml:space="preserve">
<style type="text/css">
	.st0{fill:none;stroke:#404040;stroke-width:1.5;stroke-miterlimit:1.4142;}
	.st1{fill:#404040;}
	.st2{fill:none;stroke:#404040;stroke-width:1.5;stroke-linejoin:round;stroke-miterlimit:1.4142;}
</style>
<g>
	<path class="st0" d="M5.3,6.1l6.3-2.9"/>
	<path class="st1" d="M13,4.9c-1,0.7-2.3,0.4-3-0.5c-0.7-1-0.4-2.3,0.5-3c1-0.7,2.3-0.4,3,0.5C14.3,2.9,14,4.2,13,4.9"/>
	<path class="st0" d="M4.8,9.7l6.5,3"/>
	<path class="st1" d="M13,11.1c-1-0.7-2.3-0.4-3,0.5c-0.7,1-0.4,2.3,0.5,3c1,0.7,2.3,0.4,3-0.5C14.3,13.1,14,11.8,13,11.1"/>
	<path class="st2" d="M6.3,7.8c0,1.2-1,2.1-2.1,2.1S2,9,2,7.8c0-1.2,1-2.1,2.1-2.1S6.3,6.6,6.3,7.8"/>
</g>
</svg>
