<?xml version="1.0" standalone="no"?><!DOCTYPE svg PUBLIC "-//W3C//DTD SVG 1.1//EN" "http://www.w3.org/Graphics/SVG/1.1/DTD/svg11.dtd"><svg width="100%" height="100%" viewBox="0 0 16 16" version="1.1" xmlns="http://www.w3.org/2000/svg" xmlns:xlink="http://www.w3.org/1999/xlink" xml:space="preserve" style="fill-rule:evenodd;clip-rule:evenodd;stroke-miterlimit:1.41421;"><g id="Layer 1"><path d="M5.081,6.333l7.972,-3.085" style="fill:none;stroke-width:1.5px;stroke:#3e3e3e;"/><path d="M14.136,4.879c-1.005,0.699 -2.388,0.449 -3.086,-0.557c-0.698,-1.006 -0.447,-2.388 0.559,-3.086c1.006,-0.699 2.389,-0.448 3.086,0.557c0.698,1.007 0.447,2.389 -0.559,3.086" style="fill:#3e3e3e;fill-rule:nonzero;"/><path d="M4.926,9.35l8.04,3.683" style="fill:#606060;fill-rule:nonzero;stroke-width:1.5px;stroke:#3e3e3e;"/><path d="M14.066,11.004c-1.005,-0.699 -2.388,-0.448 -3.085,0.559c-0.699,1.004 -0.449,2.388 0.557,3.085c1.007,0.699 2.389,0.448 3.086,-0.558c0.699,-1.006 0.449,-2.388 -0.558,-3.086" style="fill:#3e3e3e;fill-rule:nonzero;"/><path d="M5.81,7.673c0,1.224 -0.993,2.217 -2.218,2.217c-1.225,0 -2.217,-0.993 -2.217,-2.217c0,-1.225 0.992,-2.217 2.217,-2.217c1.225,0 2.218,0.992 2.218,2.217" style="fill:none;stroke-width:1px;stroke-linejoin:round;stroke:#404040;"/></g></svg>