<?xml version="1.0" encoding="utf-8"?>
<!-- Generator: Adobe Illustrator 19.2.1, SVG Export Plug-In . SVG Version: 6.00 Build 0)  -->
<svg version="1.1" id="Layer_1" xmlns="http://www.w3.org/2000/svg" xmlns:xlink="http://www.w3.org/1999/xlink" x="0px" y="0px"
	 viewBox="0 0 16 16" style="enable-background:new 0 0 16 16;" xml:space="preserve">
<style type="text/css">
	.st0{fill:none;stroke:#414141;stroke-width:1.5;stroke-miterlimit:10;}
	.st1{fill:none;stroke:#414141;stroke-width:1.5;stroke-linecap:round;stroke-miterlimit:10;}
</style>
<path class="st0" d="M14,13.8L14,13.8c-0.8,0.8-2.1,0.9-3,0.1l-1.4-1.3c-0.8-0.8-0.9-2.1-0.1-2.9l0,0c0.8-0.8,2.1-0.9,3-0.1l1.4,1.3
	C14.7,11.6,14.8,12.9,14,13.8z"/>
<path class="st0" d="M6.6,6.4L6.6,6.4c-0.8,0.8-2.1,0.9-3,0.1L2.2,5.2C1.3,4.4,1.3,3,2.1,2.2l0,0c0.8-0.8,2.1-0.9,3-0.1l1.4,1.3
	C7.3,4.2,7.4,5.5,6.6,6.4z"/>
<line class="st1" x1="5.7" y1="6" x2="10.5" y2="10.4"/>
</svg>
