<?xml version="1.0" encoding="utf-8"?>
<!-- Generator: Adobe Illustrator 19.2.1, SVG Export Plug-In . SVG Version: 6.00 Build 0)  -->
<svg version="1.1" id="Layer_1" xmlns="http://www.w3.org/2000/svg" xmlns:xlink="http://www.w3.org/1999/xlink" x="0px" y="0px"
	 viewBox="0 0 16 16" style="enable-background:new 0 0 16 16;" xml:space="preserve">
<style type="text/css">
	.st0{fill:none;stroke:#414141;stroke-width:1.5;stroke-miterlimit:10;}
	.st1{fill:none;stroke:#414141;stroke-width:1.5;stroke-linecap:round;stroke-miterlimit:10;}
	.st2{fill:#50BA78;}
</style>
<path class="st0" d="M14.1,13.3L14.1,13.3c-0.8,0.8-2.1,0.9-3,0.1l-1.4-1.3C8.9,11.3,8.8,10,9.6,9.2l0,0c0.8-0.8,2.1-0.9,3-0.1
	l1.4,1.3C14.8,11.1,14.9,12.4,14.1,13.3z"/>
<path class="st0" d="M7,6.9L7,6.9C6.2,7.7,4.9,7.8,4,7L2.6,5.7c-0.9-0.8-0.9-2.2-0.1-3l0,0c0.8-0.8,2.1-0.9,3-0.1l1.4,1.3
	C7.7,4.7,7.8,6,7,6.9z"/>
<line class="st1" x1="6" y1="5.8" x2="10.8" y2="10.2"/>
<path class="st2" d="M4.3,9c-1.8,0-3.1,1.4-3.1,3.1s1.4,3.1,3.1,3.1s3.1-1.4,3.1-3.1S6.1,9,4.3,9z M6.5,12.7H5v1.5H3.6v-1.5H2.1
	v-1.2h1.5V10h1.5v1.5h1.5v1.2H6.5z"/>
</svg>
