<?xml version="1.0" encoding="utf-8"?>
<!-- Generator: Adobe Illustrator 20.1.0, SVG Export Plug-In . SVG Version: 6.00 Build 0)  -->
<svg version="1.1" id="Layer_1" xmlns="http://www.w3.org/2000/svg" xmlns:xlink="http://www.w3.org/1999/xlink" x="0px" y="0px"
	 viewBox="0 0 16 16" style="enable-background:new 0 0 16 16;" xml:space="preserve">
<style type="text/css">
	.st0{fill:#F7A808;}
</style>
<g>
	<path class="st0" d="M6,3v4H2V2h3v1L6,3z M6,1H1v7h6V2L6,1z"/>
</g>
<g>
	<polygon class="st0" points="12,3 8,3 8,4 12,4 	"/>
</g>
<g>
	<polygon class="st0" points="12,7 8,7 8,8 12,8 	"/>
</g>
<g>
	<polygon class="st0" points="5,9 4,9 4,12 4,13 5,13 12,13 12,12 5,12 	"/>
</g>
<g>
	<rect x="13.5" y="2.5" width="1" height="2"/>
	<path class="st0" d="M14,3v1V3 M15,2h-2v3h2V2L15,2z"/>
</g>
<g>
	<rect x="13.5" y="6.5" width="1" height="2"/>
	<g>
		<path class="st0" d="M14,7v1V7 M15,6h-2v3h2V6L15,6z"/>
	</g>
</g>
<g>
	<rect x="13.5" y="10.5" width="1" height="2"/>
	<g>
		<path class="st0" d="M14,11v1V11 M15,10h-2v3h2V10L15,10z"/>
	</g>
</g>
</svg>
