<?xml version="1.0" encoding="utf-8"?>
<!-- Generator: Adobe Illustrator 19.2.1, SVG Export Plug-In . SVG Version: 6.00 Build 0)  -->
<svg version="1.1" id="Layer_1" xmlns="http://www.w3.org/2000/svg" xmlns:xlink="http://www.w3.org/1999/xlink" x="0px" y="0px"
	 viewBox="0 0 128 128" style="enable-background:new 0 0 128 128;" xml:space="preserve">
<style type="text/css">
	.st0{fill:#4FBC78;}
</style>
<g id="Layer_2">
	<path class="st0" d="M64.9,11.8l0.7,0l0.7,0l0.7,0l0.7,0l0.7,0L69,12l0.7,0.1l0.7,0.1l0.7,0.1l0.7,0.1l0.7,0.1l0.7,0.1l0.7,0.1
		l0.7,0.1l0.7,0.1l0.6,0.1l0.7,0.1l0.6,0.2l0.6,0.2l0.6,0.2l0.6,0.2l0.6,0.2l0.6,0.2l0.6,0.2l0.6,0.2l0.6,0.2l0.6,0.2l0.6,0.2
		l0.6,0.2l0.6,0.2l0.6,0.2l0.6,0.3l0.6,0.3l0.6,0.3l1.2,0.6l0.6,0.3l0.6,0.3l0.6,0.3l0.6,0.3l0.6,0.3l0.6,0.3l0.6,0.3l0.6,0.3
		l0.5,0.3l0.5,0.4l0.5,0.4l0.5,0.4l0.5,0.4l0.5,0.4l0.5,0.4l0.5,0.4l1.5,1.2l1,0.8l0.5,0.4l0.9,0.9l0.5,0.4l0.9,0.9l0.5,0.5l0.4,0.5
		l0.4,0.5l0.4,0.5l0.4,0.5l0.4,0.5l0.4,0.5l0.8,1l0.8,1l0.4,0.5l0.4,0.5l0.4,0.5l0.4,0.5l0.4,0.5l0.7,1.1l0.4,0.6l0.3,0.5l0.3,0.6
		l0.3,0.6l0.3,0.6l0.3,0.6l0.3,0.6L112,41l0.6,1.2l0.3,0.6l0.3,0.6l0.3,0.6l0.5,1.2l0.5,1.2l0.4,1.2l0.2,0.6l0.2,0.6l0.2,0.6
		l0.2,0.6l0.2,0.6l0.2,0.6l0.2,0.6l0.2,0.6l0.2,0.6l0.1,0.6l0.1,0.7l0.1,0.7l0.1,0.7l0.1,0.7l0.1,0.7l0.1,0.7l0.1,0.7l0.1,0.7
		l0.1,0.7l0.1,0.7l0,0.7l0,0.7l0,0.7l0,0.7l0,0.7l0,1.4l0,0.7l0,0.7l0,0.7l0,0.7l0,0.7l0,0.7l0,0.7l-0.1,0.7l-0.1,0.7l-0.1,0.7
		l-0.1,0.7l-0.1,0.7l-0.1,0.7l-0.1,0.7l-0.1,0.7l-0.1,0.7l-0.1,0.7l-0.1,0.6l-0.2,0.6l-0.2,0.6l-0.2,0.6l-0.2,0.6l-0.2,0.6l-0.2,0.6
		l-0.2,0.6l-0.2,0.6l-0.2,0.6l-0.2,0.6l-0.2,0.6l-0.2,0.6l-0.2,0.6l-0.3,0.6l-0.3,0.6l-0.3,0.6l-0.3,0.6l-0.3,0.6l-0.3,0.6l-0.3,0.6
		l-0.3,0.6l-0.3,0.6l-0.3,0.6l-0.3,0.6l-0.3,0.6l-0.3,0.6l-0.3,0.6l-0.4,0.5l-0.4,0.5l-0.4,0.5l-0.4,0.5l-0.4,0.5l-0.4,0.5l-0.4,0.5
		l-0.4,0.5l-0.4,0.5l-0.4,0.5l-0.4,0.5l-0.4,0.5l-0.4,0.5l-0.4,0.5l-0.4,0.5l-0.4,0.5l-0.4,0.5l-0.4,0.5l-0.5,0.5l-0.5,0.5l-0.5,0.4
		l-0.5,0.4l-0.5,0.4l-0.5,0.4l-0.5,0.4l-0.5,0.4l-0.5,0.4l-0.5,0.4l-0.5,0.4l-0.5,0.4l-0.5,0.4l-0.5,0.4l-0.5,0.4l-0.5,0.4l-0.5,0.4
		l-0.5,0.4l-0.5,0.4l-0.5,0.4l-0.6,0.3l-0.6,0.3l-0.6,0.3l-0.6,0.3l-0.6,0.3l-0.6,0.3l-0.6,0.3l-0.6,0.3l-0.6,0.3l-0.6,0.3l-0.6,0.3
		l-0.6,0.3l-0.6,0.3l-0.6,0.3l-0.6,0.2l-0.6,0.2l-0.6,0.2l-0.6,0.2l-0.6,0.2l-0.6,0.2l-0.6,0.2l-0.6,0.2l-0.6,0.2l-0.6,0.2l-0.6,0.2
		l-0.6,0.2l-0.6,0.2l-0.7,0.1l-0.6,0.1l-0.7,0.1l-0.7,0.1l-0.7,0.1l-0.7,0.1l-0.7,0.1l-0.7,0.1l-0.7,0.1l-0.7,0.1l-0.7,0.1l-0.7,0.1
		l-0.7,0l-0.7,0l-0.7,0l-0.7,0l-0.7,0l-0.7,0l-0.7,0l-0.7,0l-0.7,0l-0.7,0l-0.7,0l-0.7,0l-0.7-0.1l-0.7-0.1l-0.7-0.1l-0.7-0.1
		l-0.7-0.1l-0.7-0.1l-0.7-0.1l-0.7-0.1l-0.7-0.1l-0.7-0.1l-0.6-0.1l-0.7-0.1l-0.6-0.2l-0.6-0.2l-0.6-0.2l-0.6-0.2l-0.6-0.2l-0.6-0.2
		l-0.6-0.2l-0.6-0.2l-0.6-0.2l-0.6-0.2l-0.6-0.2l-0.6-0.2L44,115l-0.6-0.3l-0.6-0.3l-0.6-0.3l-0.6-0.3l-0.6-0.3l-0.6-0.3l-0.6-0.3
		l-0.6-0.3l-0.6-0.3l-0.6-0.3l-0.6-0.3l-0.6-0.3l-0.6-0.3l-0.5-0.3l-0.6-0.4l-0.5-0.4l-0.5-0.4l-0.5-0.4l-0.5-0.4l-0.5-0.4l-0.5-0.4
		l-0.5-0.4l-0.5-0.4l-0.5-0.4l-0.5-0.4l-0.5-0.4l-0.5-0.4l-0.5-0.4l-0.5-0.4l-0.5-0.4l-0.5-0.4l-0.5-0.4l-0.5-0.5l-0.4-0.5l-0.4-0.5
		l-0.4-0.5l-0.4-0.5l-0.4-0.5l-0.4-0.5l-0.4-0.5l-0.4-0.5l-0.4-0.5l-0.4-0.5l-0.4-0.5l-0.4-0.5l-0.4-0.5l-0.4-0.5l-0.4-0.5l-0.4-0.5
		l-0.4-0.5l-0.4-0.5l-0.3-0.5l-0.3-0.6l-0.3-0.6L17.8,92l-0.3-0.6l-0.3-0.6l-0.3-0.6l-0.3-0.6l-0.3-0.6L16,88.6L15.7,88l-0.3-0.6
		l-0.3-0.6l-0.3-0.6l-0.2-0.6L14.4,85l-0.2-0.6l-0.2-0.6l-0.2-0.6l-0.2-0.6l-0.2-0.6l-0.2-0.6l-0.2-0.6L12.7,80l-0.2-0.6l-0.2-0.6
		l-0.2-0.6L12,77.4l-0.1-0.6l-0.1-0.7l-0.1-0.7l-0.1-0.7l-0.1-0.7l-0.1-0.7l-0.1-0.7l-0.1-0.7L11,71.5l-0.1-0.7l-0.1-0.7l-0.1-0.7
		l0-0.7l0-0.7l0-0.7l0-0.7l0-0.7l0-0.7l0-0.7l0-0.7l0-0.7l0-0.7l0-0.7l0-0.7l0.1-0.7l0.1-0.7l0.1-0.7l0.1-0.7l0.1-0.7l0.1-0.7
		l0.1-0.7l0.1-0.7l0.1-0.7l0.1-0.7l0.1-0.7l0.1-0.6l0.2-0.6l0.2-0.6l0.2-0.6l0.2-0.6l0.2-0.6l0.2-0.6l0.2-0.6l0.2-0.6l0.2-0.6
		l0.2-0.6l0.2-0.6l0.2-0.6l0.2-0.6l0.2-0.6l0.3-0.6l0.3-0.6l0.3-0.6l0.3-0.6l0.3-0.6l0.3-0.6l0.3-0.6l0.3-0.6l0.3-0.6l0.3-0.6
		l0.3-0.6l0.3-0.6l0.3-0.5l0.3-0.6l0.4-0.5l0.4-0.5l0.4-0.5l0.4-0.5l0.4-0.5l0.4-0.5l0.4-0.5l0.4-0.5l0.4-0.5l0.4-0.5l0.4-0.5
		l0.4-0.5l0.4-0.5l0.4-0.5l0.4-0.5l0.4-0.5l0.4-0.5l0.4-0.5l0.5-0.4l0.5-0.4l0.5-0.4l0.5-0.4l0.5-0.4l0.5-0.4l0.5-0.4l0.5-0.4
		l0.5-0.4l0.5-0.4l0.5-0.4l0.5-0.4l0.5-0.4l0.5-0.4l0.5-0.4l0.5-0.4l0.5-0.4l0.5-0.4l0.6-0.3l0.5-0.3l0.6-0.3l0.6-0.3l0.6-0.3
		l0.6-0.3l0.6-0.3l0.6-0.3l0.6-0.3l0.6-0.3l0.6-0.3l0.6-0.3l0.6-0.3l0.6-0.3l0.6-0.2l0.6-0.2l0.6-0.2l0.6-0.2l0.6-0.2l0.6-0.2
		l0.6-0.2l0.6-0.2l0.6-0.2l0.6-0.2l0.6-0.2l0.6-0.2l0.6-0.2l0.6-0.2l0.7-0.1l0.6-0.1l0.7-0.1l0.7-0.1l0.7-0.1l0.7-0.1l0.7-0.1
		l0.7-0.1l0.7-0.1l0.7-0.1l0.7-0.1l0.7-0.1l0.7,0l0.7,0l0.7,0l0.7,0l0.7,0L64.9,11.8L64.9,11.8z M63.7,27.4l-0.5,0l-0.5,0l-0.5,0
		l-0.5,0l-0.5,0l-0.5,0l-0.5,0l-0.5,0.1l-0.5,0.1l-0.5,0.1l-0.5,0.1L58,27.9L57.5,28L57,28.1l-0.5,0.1l-0.5,0.1l-0.5,0.1l-0.5,0.1
		l-0.5,0.1l-0.4,0.1l-0.5,0.1L53.4,29l-0.4,0.1l-0.4,0.1l-0.4,0.1l-0.4,0.2l-0.4,0.2l-0.4,0.2L50.3,30l-0.4,0.2l-0.4,0.2L49,30.6
		l-0.4,0.2l-0.4,0.2l-0.4,0.2l-0.4,0.2L47,31.5l-0.4,0.2L46.2,32l-0.4,0.2l-0.4,0.2L45,32.6l-0.4,0.2l-0.4,0.2l-0.4,0.2l-0.4,0.2
		L43,33.9l-0.4,0.3l-0.4,0.3l-0.4,0.3l-0.4,0.3l-0.4,0.3l-0.4,0.3l-0.4,0.3l-0.4,0.3l-0.4,0.3l-0.3,0.3l-0.3,0.3l-0.3,0.3l-0.3,0.3
		L38,37.9l-0.3,0.3l-0.3,0.3l-0.3,0.3l-0.3,0.3l-0.3,0.3l-0.3,0.3l-0.3,0.3l-0.3,0.3l-0.3,0.3l-0.3,0.4l-0.3,0.4l-0.3,0.4l-0.3,0.4
		l-0.3,0.4L33.5,43l-0.3,0.4L33,43.8l-0.3,0.4l-0.3,0.4l-0.2,0.4L32,45.3l-0.2,0.4l-0.2,0.4l-0.2,0.4l-0.2,0.4l-0.2,0.4l-0.2,0.4
		l-0.2,0.4l-0.2,0.4L30,48.9l-0.2,0.4l-0.2,0.4l-0.2,0.4l-0.2,0.4L29.1,51l-0.2,0.4l-0.2,0.4l-0.2,0.4l-0.2,0.4l-0.2,0.4l-0.2,0.4
		L28,54.1l-0.1,0.4L27.7,55l-0.1,0.5l-0.1,0.4l-0.1,0.5l-0.1,0.5l-0.1,0.5L27,57.7L27,58.2l-0.1,0.5l-0.1,0.5l-0.1,0.5L26.6,60
		l-0.1,0.5L26.5,61l-0.1,0.5l0,0.5l0,0.5l0,0.5l0,0.5l0,0.5l0,0.5l0,0.5v1l0,0.5l0,0.5l0,0.5l0,0.5l0,0.5l0,0.5l0,0.5l0.1,1l0.1,0.5
		l0.1,0.5l0.1,0.5l0.1,0.5L27,73l0.1,0.5l0.1,0.5l0.2,0.9l0.1,0.5l0.1,0.5l0.1,0.4l0.1,0.4l0.1,0.4l0.2,0.4l0.2,0.4l0.2,0.4l0.2,0.4
		l0.2,0.4l0.4,0.9l0.2,0.4l0.2,0.4l0.4,0.8l0.2,0.4l0.2,0.4l0.2,0.4l0.2,0.4l0.4,0.8l0.5,0.8l0.2,0.4l0.2,0.4l0.2,0.4l0.5,0.8
		l0.5,0.8l0.3,0.4l0.3,0.4l0.3,0.4l0.3,0.4l0.3,0.4l0.3,0.3l0.3,0.4l0.3,0.3l0.3,0.3l0.6,0.7l0.3,0.3l0.3,0.3l0.7,0.6l0.3,0.3
		l0.3,0.3l0.7,0.6l0.3,0.3l0.4,0.3l0.4,0.3l1.1,0.8l0.4,0.3l0.4,0.3l0.4,0.3l0.4,0.3l0.4,0.3l0.8,0.5l0.4,0.2l0.4,0.2l0.4,0.2
		l0.4,0.2l0.4,0.2l0.4,0.2l0.8,0.4l0.4,0.2l0.4,0.2l0.4,0.2l0.4,0.2l0.4,0.2l0.4,0.2l0.4,0.2l0.4,0.2l0.4,0.2l0.4,0.2l0.4,0.2
		l0.9,0.3l0.4,0.1l0.4,0.1l0.5,0.1l0.4,0.1l0.5,0.1l0.9,0.2l0.5,0.1l0.9,0.2l0.5,0.1l0.9,0.1l0.5,0.1l0.5,0.1l1,0.1l0.5,0l0.5,0
		l0.5,0l1.5,0h1l0.5,0l0.5,0l0.5,0l0.5,0l0.5,0l0.5,0l0.5,0l0.5,0l0.5-0.1l0.5-0.1l0.5-0.1l0.5-0.1l0.5-0.1l0.5-0.1l0.5-0.1l0.5-0.1
		l0.5-0.1l0.5-0.1l0.5-0.1l0.4-0.1l0.5-0.1l0.4-0.1l0.4-0.1l0.4-0.1l0.4-0.1l0.4-0.2l0.4-0.2l0.4-0.2l0.4-0.2l0.4-0.2l0.4-0.2
		l0.4-0.2l0.4-0.2l0.4-0.2l0.4-0.2l0.4-0.2l0.4-0.2l0.4-0.2l0.4-0.2l0.4-0.2l0.4-0.2l0.4-0.2l0.4-0.2l0.4-0.2l0.4-0.2l0.4-0.2
		l0.4-0.3l0.4-0.3l0.4-0.3l0.4-0.3l0.4-0.3l0.4-0.3l0.4-0.3l0.4-0.3l0.4-0.3l0.3-0.3l0.4-0.3l0.3-0.3l0.3-0.3l0.3-0.3l0.3-0.3
		l0.3-0.3l0.3-0.3l0.3-0.3l0.3-0.3l0.3-0.3l0.3-0.3l0.3-0.3l0.3-0.3l0.3-0.4l0.3-0.3l0.3-0.4l0.3-0.4l0.3-0.4l0.3-0.4l0.3-0.4
		l0.3-0.4l0.3-0.4l0.3-0.4l0.3-0.4l0.2-0.4l0.2-0.4l0.2-0.4l0.2-0.4l0.2-0.4l0.2-0.4l0.2-0.4l0.2-0.4l0.2-0.4l0.2-0.4l0.2-0.4
		l0.2-0.4l0.2-0.4l0.2-0.4l0.2-0.4l0.2-0.4l0.2-0.4l0.2-0.4l0.2-0.4l0.2-0.4l0.2-0.4l0.1-0.4l0.1-0.4l0.1-0.4l0.1-0.4l0.1-0.5
		l0.1-0.5l0.1-0.5l0.1-0.5l0.1-0.5l0.1-0.5l0.1-0.5l0.1-0.5l0.1-0.5l0.1-0.5l0.1-0.5l0.1-0.5l0.1-0.5l0-0.5l0-0.5l0-0.5l0-0.5l0-0.5
		l0-0.5l0-0.5l0-0.5l0-0.5l0-0.5l0-0.5l0-0.5l0-0.5l0-0.5l0-0.5l0-0.5l0-0.5l0-0.5l-0.1-0.5l-0.1-0.5l-0.1-0.5l-0.1-0.5l-0.1-0.5
		l-0.1-0.5l-0.1-0.5l-0.1-0.5l-0.1-0.5l-0.1-0.5l-0.1-0.5l-0.1-0.4l-0.1-0.5l-0.1-0.4l-0.1-0.4l-0.1-0.4l-0.1-0.4l-0.2-0.4l-0.2-0.4
		l-0.2-0.4l-0.2-0.4L99.4,51l-0.2-0.4L99,50.2l-0.2-0.4l-0.2-0.4l-0.2-0.4l-0.2-0.4L98,48.1l-0.2-0.4l-0.2-0.4l-0.2-0.4l-0.2-0.4
		l-0.2-0.4l-0.2-0.4l-0.2-0.4l-0.2-0.4L96,44.5l-0.3-0.4l-0.3-0.4l-0.3-0.4L94.9,43l-0.3-0.4l-0.3-0.4l-0.3-0.4l-0.3-0.4l-0.3-0.4
		l-0.3-0.4l-0.3-0.3l-0.3-0.3l-0.3-0.3L92,39.5l-0.3-0.3l-0.3-0.3l-0.3-0.3l-0.3-0.3l-0.3-0.3l-0.3-0.3l-0.3-0.3l-0.3-0.3l-0.3-0.3
		l-0.4-0.3l-0.3-0.3L88,35.8l-0.4-0.3l-0.4-0.3l-0.4-0.3l-0.4-0.3l-0.4-0.3l-0.4-0.3l-0.4-0.3l-0.4-0.3l-0.4-0.2l-0.4-0.2l-0.4-0.2
		l-0.4-0.2l-0.4-0.2l-0.4-0.2L82.3,32l-0.4-0.2l-0.4-0.2l-0.4-0.2l-0.4-0.2l-0.4-0.2l-0.4-0.2l-0.4-0.2L79,30.4l-0.4-0.2L78.2,30
		l-0.4-0.2l-0.4-0.2l-0.4-0.2l-0.4-0.2L76,29.2l-0.4-0.1L75.1,29l-0.4-0.1l-0.5-0.1l-0.4-0.1l-0.5-0.1l-0.5-0.1l-0.5-0.1l-0.5-0.1
		l-0.5-0.1L71,28l-0.5-0.1L70,27.8l-0.5-0.1l-0.5-0.1l-0.5-0.1l-0.5-0.1l-0.5,0l-0.5,0l-0.5,0l-0.5,0l-0.5,0l-0.5,0l-0.5,0h-0.5
		L63.7,27.4L63.7,27.4L63.7,27.4z"/>
	<path class="st0" d="M65.9,68.4V41.8H58V75h31.7v-6.6H65.9L65.9,68.4z"/>
</g>
</svg>
