<?xml version="1.0" encoding="utf-8"?>
<!-- Generator: Adobe Illustrator 19.2.1, SVG Export Plug-In . SVG Version: 6.00 Build 0)  -->
<svg version="1.1" id="Layer_2" xmlns="http://www.w3.org/2000/svg" xmlns:xlink="http://www.w3.org/1999/xlink" x="0px" y="0px"
	 viewBox="0 0 16 16" style="enable-background:new 0 0 16 16;" xml:space="preserve">
<style type="text/css">
	.st0{fill:#404040;}
</style>
<polygon class="st0" points="2,0.1 4,2.1 5.8,0.5 5.8,5.8 1.1,5.8 2.2,4.2 0,2 1.4,1.6 "/>
<polygon class="st0" points="2,15.8 4,13.7 5.8,15.3 5.8,10.1 1.1,10.1 2.2,11.6 0,13.8 1.4,14.2 "/>
<polygon class="st0" points="13.9,0.1 11.9,2.1 10.2,0.5 10.2,5.8 14.9,5.8 13.7,4.2 15.9,2 14.6,1.6 "/>
<polygon class="st0" points="13.9,15.8 11.9,13.7 10.2,15.3 10.2,10.1 14.9,10.1 13.7,11.6 15.9,13.8 14.6,14.2 "/>
</svg>
