<svg id="afe57709-62bf-45cc-acfb-234be2106873" data-name="Layer 1" xmlns="http://www.w3.org/2000/svg" viewBox="0 0 16 16"><defs><style>.\34 7f3a460-c942-445e-b123-5d8ad7f19b26{fill:#3fa9f5;}.\33 14a79ed-211f-42e2-8cf3-ae711738660f{fill:none;}</style></defs><title>statement-perl-do</title><path class="47f3a460-c942-445e-b123-5d8ad7f19b26" d="M8,1.2A6.74,6.74,0,0,0,1.2,8,6.8,6.8,0,1,0,14.8,8,6.74,6.74,0,0,0,8,1.2Zm3.9,8-0.3.6,0.8,1.1L11,12.4s-0.8-.6-1.1-0.8c-0.2.1-.5,0.2-0.7,0.3a6.12,6.12,0,0,1-.3,1.4H7.1L6.8,11.9l-0.6-.4-1.3.9L3.7,11,4.5,9.9,4.1,9.2a5.82,5.82,0,0,1-1.4-.3V7s0.9-.1,1.4-0.2l0.3-.6L3.6,5,5,3.6,6.1,4.4l0.7-.3L7.1,2.7A11.58,11.58,0,0,1,9,2.7a6.75,6.75,0,0,0,.2,1.4c0.2,0.1.7,0.3,0.7,0.3L11,3.6,12.4,5,11.6,6.1l0.3,0.7,1.5,0.5V9Z"/><path class="47f3a460-c942-445e-b123-5d8ad7f19b26" d="M7.6,5.9A2.17,2.17,0,0,0,8,10.2,2.34,2.34,0,0,0,10,7,2.22,2.22,0,0,0,7.6,5.9Z"/><rect class="314a79ed-211f-42e2-8cf3-ae711738660f" width="16" height="16"/></svg>