<?xml version="1.0" encoding="utf-8"?>
<svg version="1.0" id="Layer_1" xmlns="http://www.w3.org/2000/svg" xmlns:xlink="http://www.w3.org/1999/xlink" x="0px" y="0px"
	 viewBox="0 0 16 16" style="enable-background:new 0 0 16 16;" xml:space="preserve">
<style type="text/css">
	.st0{fill:#3FA9F5;}
	.st1{fill:#FFFFFF;}
</style>
<path class="st0" d="M8,1.2c-3.7,0-6.8,3-6.8,6.8s3,6.8,6.8,6.8s6.8-3.1,6.8-6.8C14.8,4.2,11.8,1.2,8,1.2z"/>
<path class="st1" d="M10,7V5.8L9,5.6L8.9,5.1l0.6-0.7l-1-1L7.7,3.9c0,0-0.3-0.1-0.5-0.2c0-0.3-0.1-0.6-0.1-0.9c-0.4-0.1-1.3,0-1.3,0
	l-0.2,1L5.1,3.9L4.3,3.4l-1,1L4,5.1L3.7,5.6c-0.3,0-0.9,0.1-0.9,0.1V7c0,0,0,0,0,0.1c0.3,0.1,1,0.2,1,0.2L4,7.7L3.4,8.5l0.9,1
	l0.9-0.6l0.4,0.2l0.2,1H7c0,0,0.2-0.6,0.2-1C7.4,9,7.5,8.9,7.7,8.8C8,9,8.5,9.4,8.5,9.4l0.9-1L8.9,7.6l0.2-0.4L10,7z M6.4,7.9
	c-0.9,0-1.5-0.7-1.5-1.5s0.5-1.3,1.2-1.5c0.8-0.1,1.4,0.3,1.7,0.8C8.3,6.8,7.3,7.9,6.4,7.9z M12.7,8.8l-0.3-0.3c0,0,0.1-0.5,0.1-0.7
	c-0.2-0.1-0.5-0.2-0.7-0.2c-0.1,0.2-0.2,0.5-0.3,0.7l-0.3,0.1c0,0-0.5-0.3-0.7-0.4C10.3,8.2,10,8.5,10,8.5L10.5,9l-0.1,0.4L9.7,9.8
	l0.2,0.7c0.2,0,0.7-0.1,0.7-0.1l0.3,0.3l-0.1,0.7l0.7,0.2l0.3-0.7l0.3-0.1l0.6,0.4l0.5-0.5l-0.4-0.6L13,9.7l0.6-0.3l-0.2-0.7
	L12.7,8.8z M11.1,9.9c-0.2-0.4,0-0.7,0.3-0.9c0.4-0.2,0.7-0.1,0.9,0.2C12.8,10.1,11.4,10.7,11.1,9.9z"/>
</svg>
