<?xml version="1.0" encoding="utf-8"?>
<!-- Generator: Adobe Illustrator 20.0.0, SVG Export Plug-In . SVG Version: 6.00 Build 0)  -->
<svg version="1.1" id="Layer_1" xmlns="http://www.w3.org/2000/svg" xmlns:xlink="http://www.w3.org/1999/xlink" x="0px" y="0px"
	 viewBox="0 0 16 16" style="enable-background:new 0 0 16 16;" xml:space="preserve">
<style type="text/css">
	.st0{fill:#909090;}
	.st1{fill:none;}
</style>
<path class="st0" d="M5.7,8c0,1.3,1,2.4,2.4,2.4c1.4,0,2.9-1.7,2.1-3.4C9.8,6.2,8.8,5.6,7.6,5.7C6.5,5.9,5.7,6.8,5.7,8 M9,2.4
	c0.1,0.4,0.2,0.9,0.3,1.4C9.5,4,10,4.2,10,4.2l1.2-0.8l1.4,1.4l-0.8,1.1L12,6.7l1.5,0.5l0.1,1.9l-1.4,0.3L11.8,10l0.8,1.2l-1.4,1.5
	c0,0-0.8-0.6-1.2-0.9c-0.3,0.1-0.5,0.3-0.8,0.3c0,0.6-0.3,1.5-0.3,1.5h-2l-0.3-1.4l-0.6-0.4l-1.4,0.9l-1.4-1.4l0.8-1.2L3.8,9.2
	c0,0-1.1-0.1-1.4-0.3V8.9l0.1-2c0,0,0.9-0.1,1.4-0.3L4.3,6L3.3,4.9l1.4-1.4L6,4.3L6.6,4l0.3-1.5C7,2.3,8.4,2.3,9,2.4"/>
<rect x="0.2" class="st1" width="16" height="16"/>
<circle class="st1" cx="1.8" cy="-2.5" r="0"/>
</svg>
