<?xml version="1.0" encoding="utf-8"?>
<!-- Generator: Adobe Illustrator 19.2.1, SVG Export Plug-In . SVG Version: 6.00 Build 0)  -->
<svg version="1.1" id="Layer_1" xmlns="http://www.w3.org/2000/svg" xmlns:xlink="http://www.w3.org/1999/xlink" x="0px" y="0px"
	 viewBox="0 0 16 16" style="enable-background:new 0 0 16 16;" xml:space="preserve">
<style type="text/css">
	.st0{fill:none;}
	.st1{fill:#404040;}
	.st2{fill:#3FA9F5;}
</style>
<circle class="st0" cx="1.8" cy="-2.5" r="0"/>
<rect class="st0" width="16" height="16"/>
<path class="st1" d="M2.9,9.9l-0.8,1.3l0.8,0.5l-0.3-0.1l1.2-2.7h1.4l1.2,2.5l-0.3,0.2l-0.9,1.1c0.2-0.2,0.4-0.3,0.6-0.5
	c0.3,0.1,0.6,0.3,0.9,0.4c0,0.7,0.3,1.8,0.3,1.8h2.3l0.4-1.7l0.7-0.5l1.6,1.1l1.6-1.7l-0.9-1.4l0.4-1c0,0,1.3-0.1,1.7-0.3V8.8
	l-0.1-2.3c0,0-1.1-0.1-1.7-0.3l-0.4-0.8l1.1-1.3L12,2.4l-1.4,1L9.8,3L9.5,1.2C9.4,1.1,7.7,1.1,7,1.2C6.9,1.7,6.8,2.3,6.7,2.9
	C6.4,3.1,5.9,3.3,5.9,3.3l-1.4-1L2.8,4l1,1.3L3.5,6.2L1.7,6.8L1.6,9l0.9,0.1L2.9,9.9z M5.6,6.6c0.5-0.9,1.7-1.7,3.1-1.5
	c1.3,0.2,2.2,1.3,2.2,2.7c0,1.5-1.2,2.8-2.8,2.8C6.4,10.6,4.7,8.6,5.6,6.6z"/>
<path class="st2" d="M7.6,11.3c0-1.7-1.4-3.1-3.1-3.1s-3.1,1.3-3.1,3.1s1.4,3.1,3.1,3.1S7.6,13,7.6,11.3z M6.1,10.9H5.2v2.8H3.8
	v-2.8H3l1.5-2L6.1,10.9z"/>
</svg>
