<?xml version="1.0" encoding="utf-8"?>
<!-- Generator: Adobe Illustrator 19.2.1, SVG Export Plug-In . SVG Version: 6.00 Build 0)  -->
<svg version="1.1" id="Layer_1" xmlns="http://www.w3.org/2000/svg" xmlns:xlink="http://www.w3.org/1999/xlink" x="0px" y="0px"
	 viewBox="0 0 16 16" style="enable-background:new 0 0 16 16;" xml:space="preserve">
<style type="text/css">
	.st0{fill:none;stroke:#EB008B;stroke-miterlimit:10;}
	.st1{fill:none;stroke:#414141;stroke-width:1.5;stroke-miterlimit:10;}
	.st2{fill:none;stroke:#414141;stroke-width:0.75;stroke-miterlimit:10;}
	.st3{fill:#4FBC78;}
</style>
<path class="st0" d="M14.8,6.2"/>
<path class="st0" d="M14.8,4.2"/>
<polygon class="st1" points="10.8,14.1 1.9,14.1 1.9,2.6 10.9,2.6 14.5,8.2 14.4,8.4 "/>
<ellipse transform="matrix(0.8968 -0.4425 0.4425 0.8968 -2.4724 5.8025)" class="st2" cx="11.2" cy="8.2" rx="0.8" ry="0.8"/>
<path class="st3" d="M5.3,7.4c1.9,0,3.4,1.5,3.4,3.4s-1.5,3.4-3.4,3.4s-3.4-1.5-3.4-3.4C2,8.8,3.5,7.4,5.3,7.4z M6,10.1V8.4H4.7V10
	H3v1.3h1.7v1.6H6v-1.6h1.6V10C7.6,10,6,10,6,10.1z"/>
</svg>
