<?xml version="1.0" encoding="utf-8"?>
<!-- Generator: Adobe Illustrator 19.2.1, SVG Export Plug-In . SVG Version: 6.00 Build 0)  -->
<svg version="1.1" id="Layer_1" xmlns="http://www.w3.org/2000/svg" xmlns:xlink="http://www.w3.org/1999/xlink" x="0px" y="0px"
	 viewBox="0 0 16 16" style="enable-background:new 0 0 16 16;" xml:space="preserve">
<style type="text/css">
	.st0{fill:none;stroke:#414141;stroke-width:1.5;stroke-miterlimit:10;}
	.st1{fill:none;stroke:#EB008B;stroke-miterlimit:10;}
	.st2{fill:none;stroke:#414141;stroke-width:0.75;stroke-miterlimit:10;}
	.st3{fill:#4FBC78;}
</style>
<polygon class="st0" points="10.8,14.1 1.9,14.1 1.9,2.6 10.9,2.6 14.5,8.2 14.4,8.4 "/>
<path class="st1" d="M14.8,6.2"/>
<path class="st1" d="M14.8,4.2"/>
<ellipse transform="matrix(0.8968 -0.4425 0.4425 0.8968 -2.4723 5.8025)" class="st2" cx="11.2" cy="8.2" rx="0.8" ry="0.8"/>
<path class="st3" d="M4.7,7.3c-1.8,0-3.3,1.5-3.4,3.4c0,1.9,1.5,3.4,3.4,3.4s3.4-1.5,3.4-3.4S6.6,7.3,4.7,7.3z M5.1,13.1v-0.9H3.2
	V8.3h1.1V11H5v-0.7l2.1,1.4L5.1,13.1z"/>
</svg>
