<?xml version="1.0" encoding="utf-8"?>
<!-- Generator: Adobe Illustrator 19.2.1, SVG Export Plug-In . SVG Version: 6.00 Build 0)  -->
<svg version="1.1" id="Layer_1" xmlns="http://www.w3.org/2000/svg" xmlns:xlink="http://www.w3.org/1999/xlink" x="0px" y="0px"
	 viewBox="0 0 16 16" style="enable-background:new 0 0 16 16;" xml:space="preserve">
<style type="text/css">
	.st0{fill:#404040;}
	.st1{fill:#3E3E3E;}
</style>
<path class="st0" d="M10.5,1.1H8H5.5L4.7,2.5H2.1v12.3h11.8V2.5h-2.6L10.5,1.1z M12.9,13.8H3.1V3.6h9.8V13.8z"/>
<path class="st1" d="M7.8,4.6c0.9-0.1,1.6,0.3,2,0.9C9.9,5.8,10,6.2,10,6.6c0,1.2-0.9,2-2,2c-0.7,0-1.1-0.2-1.4-0.6
	C6.3,7.8,6,7.3,6,6.7C6,6,6.4,5.5,6.7,5.2C6.9,4.9,7.3,4.7,7.8,4.6"/>
<path class="st1" d="M6.6,8.9C7.1,10,7.5,11.1,8,12.1c0.5-1.1,0.9-2.1,1.3-3.2c1.6,0.7,2.5,1.8,2.7,3.8H4C4.1,10.7,5.1,9.6,6.6,8.9"
	/>
</svg>
