<?xml version="1.0" encoding="utf-8"?>
<!-- Generator: Adobe Illustrator 19.2.1, SVG Export Plug-In . SVG Version: 6.00 Build 0)  -->
<svg version="1.1" id="Layer_1" xmlns="http://www.w3.org/2000/svg" xmlns:xlink="http://www.w3.org/1999/xlink" x="0px" y="0px"
	 viewBox="0 0 16 16" style="enable-background:new 0 0 16 16;" xml:space="preserve">
<style type="text/css">
	.st0{display:none;}
	.st1{display:inline;}
	.st2{fill:#404040;}
</style>
<g id="Layer_1_1_" class="st0">
	<g class="st1">
		<path d="M11.7,10.6c-2.5,0-4.9,0-7.4,0c0-0.1,0-0.1,0-0.2c0-0.5,0-1.1,0-1.6s0.2-0.8,0.6-1c0.3-0.2,0.6-0.4,0.9-0.5
			C6.3,7,6.7,6.6,6.9,6C7,5.5,7,5.1,6.9,4.7C6.8,4.1,6.6,3.5,6.5,2.8c-0.1-0.3-0.1-0.7-0.1-1c0.2-0.8,1-1.4,1.8-1.3
			c0.9,0.1,1.5,0.9,1.4,1.8C9.5,2.9,9.3,3.4,9.2,3.9S9.1,4.9,9,5.4c0,0.8,0.4,1.3,1,1.7c0.4,0.2,0.7,0.4,1.1,0.6
			c0.3,0.2,0.5,0.5,0.6,0.9C11.7,9.3,11.7,9.9,11.7,10.6C11.7,10.5,11.7,10.6,11.7,10.6z M10.6,8.5c-1.8,0-3.5,0-5.3,0
			c0,0.4,0,0.7,0,1c1.8,0,3.5,0,5.3,0C10.6,9.2,10.6,8.8,10.6,8.5z M7.5,2.1c0,0.3,0.2,0.5,0.5,0.5s0.5-0.2,0.5-0.5S8.3,1.6,8,1.6
			S7.5,1.8,7.5,2.1z"/>
		<path d="M6.4,11.6c0,1.3,0,2.5,0,3.8c-0.2,0-0.4,0-0.6-0.1c-0.9-0.2-1.6-1.1-1.6-2c0-0.7,0-1.4,0-2.1c2.5,0,4.9,0,7.4,0
			c0,1.4,0,2.8,0,4.2l0,0c-0.9,0-1.8,0.1-2.6-0.3C7.6,14.4,6.7,13.3,6.4,11.6C6.4,11.7,6.4,11.7,6.4,11.6z"/>
	</g>
</g>
<polygon class="st2" points="14,11 2,11 2,15 4,15 4,12 6,15 14,15 "/>
<path class="st2" d="M10,6V3c0-0.8-0.5-1.6-1.3-1.9C7.3,0.6,6,1.7,6,3v3L2,7v3h12V7L10,6z M8,3.4c-0.4,0-0.8-0.3-0.8-0.7
	C7.3,2.3,7.6,2,8,2s0.7,0.3,0.7,0.7C8.7,3.1,8.4,3.4,8,3.4z"/>
</svg>
