<?xml version="1.0" encoding="utf-8"?>
<!-- Generator: Adobe Illustrator 19.2.1, SVG Export Plug-In . SVG Version: 6.00 Build 0)  -->
<svg version="1.1" id="Layer_1" xmlns="http://www.w3.org/2000/svg" xmlns:xlink="http://www.w3.org/1999/xlink" x="0px" y="0px"
	 viewBox="0 0 16 16" style="enable-background:new 0 0 16 16;" xml:space="preserve">
<style type="text/css">
	.st0{fill:#404040;stroke:#404040;stroke-width:0.25;stroke-miterlimit:10;}
	.st1{fill:#4FBC78;}
</style>
<path class="st0" d="M15.1,7.3c-0.4-1.7-0.9-3.5-1.3-5.2c-0.2-0.7-1-1.3-1.7-1.2c-0.2,0-0.3,0.1-0.3,0.3s0.2,0.3,0.4,0.3
	c0.6,0,1,0.3,1.1,0.9c0.2,0.9,0.4,1.8,0.6,2.7c0.2,0.7,0.3,1.4,0.5,2.1c-0.5,0.1-0.5,0.1-0.6-0.3c-0.3-1.1-1.1-1.7-2.1-1.9
	s-2,0.1-2.7,1C8.7,6.2,8.5,6.8,8.3,7.2c0,0,0,0-0.1,0c-0.5,0-0.5,0-0.6-0.4C7.1,5.6,6.1,4.8,4.9,4.8C3.7,4.8,3,5.2,2.3,6.8
	C2.1,7.2,1.9,7.4,1.4,7.3c0,0,0.8-3.8,1.2-5.1c0.1-0.5,0.4-0.7,1-0.7c0.2,0,0.4-0.1,0.4-0.3C4,0.9,3.8,0.8,3.6,0.8
	C2.9,0.8,2.2,1.2,2,2C1.6,3.7,1.1,5.5,0.7,7.3c0,0.3,0.1,0.4,0.4,0.4H2c0.4,1.7,1.4,2.6,2.8,2.7c0.6,0,1.2-0.1,1.7-0.5
	c0.7-0.5,1.1-1.3,1.2-2.1c0.1,0,0.3,0,0.5,0c0.5,1.8,1.4,2.7,2.9,2.7c0.6,0,1.2-0.1,1.7-0.5c0.6-0.4,1-1.2,1.1-2c0.2,0,0.5,0,0.7,0
	C15.1,7.8,15.2,7.7,15.1,7.3z M4.9,9.8c-1.2,0-2.1-1-2.1-2.1s1-2.1,2.1-2.1c1.2,0,2.1,1,2.1,2.1S6,9.8,4.9,9.8z M11.2,9.8
	C10,9.8,9,8.8,9,7.7c0-1.3,1-2.2,2.2-2.1c1.2,0,2.1,1,2.1,2.2C13.3,8.9,12.3,9.8,11.2,9.8z"/>
<path class="st1" d="M12.1,9C10.4,9,9,10.4,9,12.1s1.4,3.1,3.1,3.1s3.1-1.4,3.1-3.1S13.8,9,12.1,9z M10.7,13.7v-3.2l2.8,1.6
	L10.7,13.7z"/>
</svg>
