<?xml version="1.0" encoding="utf-8"?>
<!-- Generator: Adobe Illustrator 19.2.1, SVG Export Plug-In . SVG Version: 6.00 Build 0)  -->
<svg version="1.1" id="Layer_1" xmlns="http://www.w3.org/2000/svg" xmlns:xlink="http://www.w3.org/1999/xlink" x="0px" y="0px"
	 viewBox="0 0 16 16" style="enable-background:new 0 0 16 16;" xml:space="preserve">
<style type="text/css">
	.st0{fill:#404040;}
	.st1{fill:#CDCDCD;}
	.st2{fill:#4FBC78;}
</style>
<path class="st0" d="M12,2.2l1.8,2.5v9.1H2.3V2.2H12 M12.5,1.2c-7.1,0-10.4,0-11,0v13.6h13.3V4.3L12.5,1.2L12.5,1.2z"/>
<rect x="3.8" y="3.9" class="st1" width="8.8" height="1.5"/>
<rect x="3.8" y="6.3" class="st1" width="8.8" height="1.5"/>
<rect x="5.8" y="8.8" class="st1" width="6.8" height="1.5"/>
<rect x="7.4" y="11.2" class="st1" width="5.2" height="1.5"/>
<path class="st2" d="M4.9,7.8c-1.8,0-3.3,1.5-3.4,3.4c0,1.9,1.5,3.4,3.4,3.4s3.4-1.5,3.4-3.4S6.8,7.8,4.9,7.8z M5.9,11.6v1.8H3.7
	l0-1.9H2.9l2-2.3l2,2.5H5.9z"/>
<path class="st0" d="M14.7,4.5h-3.1V1.2h0.7L14,3.5L14.7,4.5z"/>
</svg>
