<?xml version="1.0" encoding="utf-8"?>
<!-- Generator: Adobe Illustrator 19.2.1, SVG Export Plug-In . SVG Version: 6.00 Build 0)  -->
<svg version="1.0" xmlns="http://www.w3.org/2000/svg" xmlns:xlink="http://www.w3.org/1999/xlink" x="0px" y="0px"
	 viewBox="0 0 16 16" style="enable-background:new 0 0 16 16;" xml:space="preserve">
<style type="text/css">
	.st0{display:none;}
	.st1{display:inline;fill:url(#SVGID_1_);}
	.st2{fill-rule:evenodd;clip-rule:evenodd;fill:#404040;}
</style>
<g id="Layer_1" class="st0">
	<linearGradient id="SVGID_1_" gradientUnits="userSpaceOnUse" x1="-5.7842" y1="8" x2="21.7842" y2="8">
		<stop  offset="0" style="stop-color:#3FA9F5"/>
		<stop  offset="1" style="stop-color:#168ED8"/>
	</linearGradient>
	<path class="st1" d="M8,21.4h13.8c0,0-0.4-3.8-4.1-6.9C15,12.3,12.2,13,11,11.6c-0.5-0.6-0.3-3,0.2-3.6c2.7-3.3,3.1-9.1,1.3-11.3
		c-1.2-1.4-2.8-2-4.5-2.1c-1.6,0-3.3,0.7-4.5,2.1C1.7-1.1,2.1,4.7,4.8,8C5.3,8.6,5.5,11,5,11.6c-1.2,1.4-4,0.7-6.7,2.9
		c-3.6,3.1-4.1,6.9-4.1,6.9H8z"/>
</g>
<g id="Layer_2">
	<path class="st2" d="M9.8,3.1c0,1-0.8,1.8-1.8,1.8H7.8c-1,0-1.8-0.8-1.8-1.8V3c0-1,0.8-1.8,1.8-1.8H8C9,1.2,9.8,2,9.8,3V3.1z"/>
	<path class="st2" d="M7.8,7.7"/>
	<path class="st2" d="M11.2,5.8H4.8C4.6,5.8,4.4,6,4.4,6.2v4.5c0,0.3,0.2,0.5,0.5,0.5c0,0,1.2,0,1.2,0l0,3.2c0,0.3,0.2,0.5,0.5,0.5
		h3c0.3,0,0.5-0.2,0.5-0.5l0-3.3c0,0,0.2,0,0.5,0h0.7c0.3,0,0.5-0.2,0.5-0.5V6.2C11.6,6,11.4,5.8,11.2,5.8z"/>
</g>
</svg>
