<?xml version="1.0" encoding="utf-8"?>
<!-- Generator: Adobe Illustrator 19.2.1, SVG Export Plug-In . SVG Version: 6.00 Build 0)  -->
<svg version="1.1" id="Layer_1" xmlns="http://www.w3.org/2000/svg" xmlns:xlink="http://www.w3.org/1999/xlink" x="0px" y="0px"
	 viewBox="0 0 16 16" style="enable-background:new 0 0 16 16;" xml:space="preserve">
<style type="text/css">
	.st0{fill:none;stroke:#404040;stroke-miterlimit:10;}
	.st1{fill:#404040;}
</style>
<circle class="st0" cx="7.9" cy="5.2" r="3.3"/>
<path class="st1" d="M10,8.4c0-0.1-2.1,1.8-2.1,1.8s-2-1.9-2-1.9c-2.5,1.1-4.4,3.3-4.5,6.4h12.7C14,11.4,12.5,9.7,10,8.4z"/>
<path class="st1" d="M12.3,5.2H3.6c0-2.6,1.9-4.7,4.3-4.7S12.3,2.7,12.3,5.2z"/>
<path class="st1" d="M10.4,1.6H5.6l-2.7,7H13L10.4,1.6z M7.9,8.5C6.1,8.5,4.6,7,4.6,5.2c0-1.8,1.5-3.3,3.3-3.3
	c1.8,0,3.3,1.5,3.3,3.3C11.2,7,9.8,8.5,7.9,8.5z"/>
</svg>
