<?xml version="1.0" encoding="utf-8"?>
<!-- Generator: Adobe Illustrator 19.2.1, SVG Export Plug-In . SVG Version: 6.00 Build 0)  -->
<svg version="1.1" id="Layer_1" xmlns="http://www.w3.org/2000/svg" xmlns:xlink="http://www.w3.org/1999/xlink" x="0px" y="0px"
	 viewBox="0 0 16 16" style="enable-background:new 0 0 16 16;" xml:space="preserve">
<style type="text/css">
	.st0{fill:#404040;}
	.st1{fill:#4FBC78;}
</style>
<circle class="st0" cx="7.6" cy="4.2" r="3.3"/>
<path class="st0" d="M1.4,13.8c4.2,0,8.5,0,12.7,0c-0.1-3.1-2-5.3-4.5-6.4c-0.6,1.7-1.2,3-2,4.6c-0.7-1.7-1.9-4.3-1.9-4.4
	C3.3,8.7,1.6,10.5,1.4,13.8z M2.4,12.2v-1.3H4V9.3h1.3v1.6H7v1.3H5.3v1.6H4v-1.6C4,12.2,2.4,12.2,2.4,12.2z"/>
<path class="st1" d="M8.1,11.6c0,1.9-1.5,3.4-3.4,3.4s-3.4-1.5-3.4-3.4s1.5-3.4,3.4-3.4C6.5,8.2,8,9.7,8.1,11.6z M2.4,10.9v1.3H4
	v1.6h1.3v-1.6H7v-1.3H5.3V9.3H4v1.6C4,10.9,2.4,10.9,2.4,10.9z"/>
</svg>
