<?xml version="1.0" encoding="utf-8"?>
<!-- Generator: Adobe Illustrator 19.2.1, SVG Export Plug-In . SVG Version: 6.00 Build 0)  -->
<svg version="1.1" id="Layer_1" xmlns="http://www.w3.org/2000/svg" xmlns:xlink="http://www.w3.org/1999/xlink" x="0px" y="0px"
	 viewBox="0 0 16 16" style="enable-background:new 0 0 16 16;" xml:space="preserve">
<style type="text/css">
	.st0{fill:#404040;}
	.st1{fill:#FF6F6F;}
</style>
<circle class="st0" cx="7.6" cy="4.2" r="3.3"/>
<path class="st0" d="M1.4,13.8c4.2,0,8.5,0,12.7,0c-0.1-3.1-2-5.3-4.5-6.4c-0.6,1.7-1.2,3-2,4.6c-0.7-1.7-1.9-4.3-1.9-4.4
	C3.3,8.7,1.6,10.5,1.4,13.8z M2.4,12.2v-1.3H7v1.3H2.4z"/>
<path class="st1" d="M1.3,11.6c0,1.9,1.5,3.4,3.4,3.4s3.4-1.5,3.4-3.4S6.6,8.2,4.7,8.2C2.9,8.2,1.4,9.7,1.3,11.6z M2.4,10.9H7v1.3
	H2.4V10.9z"/>
</svg>
