<?xml version="1.0" encoding="utf-8"?>
<!-- Generator: Adobe Illustrator 19.2.1, SVG Export Plug-In . SVG Version: 6.00 Build 0)  -->
<svg version="1.1" id="Layer_1" xmlns="http://www.w3.org/2000/svg" xmlns:xlink="http://www.w3.org/1999/xlink" x="0px" y="0px"
	 viewBox="0 0 16 16" style="enable-background:new 0 0 16 16;" xml:space="preserve">
<style type="text/css">
	.st0{fill:none;stroke:#404040;stroke-miterlimit:10;}
	.st1{fill:#404040;}
	.st2{fill:none;stroke:#404040;stroke-width:0.5;stroke-miterlimit:10;}
	.st3{fill:#FF6F6F;}
</style>
<circle class="st0" cx="5.3" cy="6.2" r="2.2"/>
<path class="st1" d="M6.8,8.4c0-0.1-1.4,1.2-1.4,1.2L4,8.3c-1.7,0.7-3,2.2-3,4.3h8.6C9.5,10.4,8.4,9.2,6.8,8.4z"/>
<path class="st1" d="M8.3,6.2H2.4C2.4,4.4,3.7,3,5.3,3S8.3,4.5,8.3,6.2z"/>
<path class="st1" d="M7,3.8H3.8L2,8.5h6.8L7,3.8z M5.3,8.4c-1.2,0-2.2-1-2.2-2.2S4.1,4,5.3,4s2.2,1,2.2,2.2S6.6,8.4,5.3,8.4z"/>
<ellipse transform="matrix(0.4126 -0.9109 0.9109 0.4126 -1.1721 15.1678)" class="st2" cx="11.2" cy="8.5" rx="2.1" ry="2.1"/>
<polygon class="st3" points="11.8,11.5 11.3,12 10.9,11.5 11.4,11.1 "/>
<polygon class="st3" points="11.3,11.8 10.7,12.6 11.3,13.8 11.9,12.6 "/>
<path class="st1" d="M12.6,10.8c0-0.1-1.3,2.7-1.3,2.7S10,10.8,10,10.8c-1.5,0.7-2.7,2-2.8,4h7.9C15.1,12.7,14.2,11.7,12.6,10.8z"/>
</svg>
