<?xml version="1.0" encoding="utf-8"?>
<!-- Generator: Adobe Illustrator 20.1.0, SVG Export Plug-In . SVG Version: 6.00 Build 0)  -->
<svg version="1.1" id="Layer_2" xmlns="http://www.w3.org/2000/svg" xmlns:xlink="http://www.w3.org/1999/xlink" x="0px" y="0px"
	 viewBox="0 0 16 16" style="enable-background:new 0 0 16 16;" xml:space="preserve">
<style type="text/css">
	.st0{fill:#404040;}
	.st1{fill:#4FBC78;}
</style>
<polygon class="st0" points="3,1 5,1 5,0 8,0 8,1 11,1 11,6 3,6 "/>
<g>
	<path class="st0" d="M14,8l1,1.4V14h-4V8H14 M14.5,7H10v8h6V9.1L14.5,7L14.5,7z"/>
</g>
<g>
	<polygon class="st0" points="7,6 6,6 6,11 7,11 	"/>
</g>
<g>
	<polygon class="st0" points="10.1,10 6,10 6,11 10.1,11 	"/>
</g>
<g>
	<polygon class="st1" points="0,2 2,2 2,0 5.6,3.4 2,7 2,5 0,5 	"/>
</g>
<polygon class="st0" points="13,7 13,10 16,10 "/>
</svg>
