<?xml version="1.0" encoding="utf-8"?>
<!-- Generator: Adobe Illustrator 19.2.1, SVG Export Plug-In . SVG Version: 6.00 Build 0)  -->
<svg version="1.1" id="Layer_1" xmlns="http://www.w3.org/2000/svg" xmlns:xlink="http://www.w3.org/1999/xlink" x="0px" y="0px"
	 viewBox="0 0 16 16" style="enable-background:new 0 0 16 16;" xml:space="preserve">
<style type="text/css">
	.st0{fill:none;stroke:#3FA9F5;stroke-width:1.5;stroke-miterlimit:10;}
	.st1{fill:#3FA9F5;}
</style>
<path class="st0" d="M13.9,8.1c0,3.2-2.6,5.8-5.9,5.8s-5.9-2.6-5.9-5.8S4.7,2.3,8,2.3S13.9,4.9,13.9,8.1z"/>
<path class="st1" d="M7.4,10.3h1.2v1.4H7.4V10.3z M6.7,4.9c0.3-0.2,0.7-0.4,1.2-0.4C8.5,4.5,9,4.7,9.5,5c0.4,0.3,0.6,0.9,0.6,1.5
	c0,0.4-0.1,0.8-0.3,1C9.7,7.8,9.5,8,9.2,8.3L8.9,8.5C8.8,8.7,8.7,8.8,8.6,9c0,0.1-0.1,0.3-0.1,0.6H7.5c0-0.5,0.1-0.9,0.1-1.1
	C7.7,8.3,7.8,8,8.1,7.8l0.3-0.3c0.1-0.1,0.2-0.2,0.2-0.3C8.8,7,8.8,6.8,8.8,6.6c0-0.2-0.1-0.5-0.2-0.7S8.3,5.7,8,5.7
	C7.7,5.7,7.4,5.8,7.3,6C7.2,6.3,7.1,6.5,7.1,6.8H5.9C6,5.9,6.2,5.2,6.7,4.9"/>
</svg>
