<?xml version="1.0" encoding="utf-8"?>
<!-- Generator: Adobe Illustrator 20.1.0, SVG Export Plug-In . SVG Version: 6.00 Build 0)  -->
<svg version="1.1" id="Layer_1" xmlns="http://www.w3.org/2000/svg" xmlns:xlink="http://www.w3.org/1999/xlink" x="0px" y="0px"
	 viewBox="0 0 16 16" style="enable-background:new 0 0 16 16;" xml:space="preserve">
<style type="text/css">
	.st0{fill:#FFFFFF;}
	.st1{fill:#404040;}
</style>
<g>
	<path class="st0" d="M6,1C6,1,6,1,6,1C4.4,1,3.1,1,1.6,0.9c-0.4,0-0.4,0.3-0.4,0.5c0,4.3,0,8.5,0,12.8c0,0.4,0.1,0.6,0.5,0.6
		c4.3,0,8.6,0,12.8,0c0.4,0,0.5-0.2,0.5-0.6c0-1.3,0-2.5,0-3.8c0-0.2,0-0.5,0-0.5c-0.6,0-1.1,0-2.1,0c0,1,0,2,0,3c-3,0-7,0-10,0
		c0-3,0-7,0-10c1,0,2,0,3,0C6,2,6,1.5,6,1z"/>
	<path class="st1" d="M6,1c0,0.5,0,1.4,0,2C4.9,3,4.2,3,3,3c0,3.5,0,6.5,0,10c3.5,0,6.5,0,10,0c0-1.1,0-1.8,0-3c0.6,0,1.4,0,2,0
		c0,0.2,0-0.2,0,0c0,1.3,0,5,0,5H1V1C1,1,5.9,1,6,1z"/>
	<path class="st1" d="M9.1,8.8C8.4,8.2,7.9,7.6,7.4,7.1c1.2-1.2,2.4-2.4,3.7-3.7C10.3,2.6,9.8,1.7,9,1c0,0,6,0,6,0s0,5.7,0,6
		c-0.8-0.9-1.4-1.3-2.2-2.1C11.5,6.3,10.3,7.5,9.1,8.8z"/>
</g>
</svg>
