<?xml version="1.0" encoding="utf-8"?>
<!-- Generator: Adobe Illustrator 19.2.1, SVG Export Plug-In . SVG Version: 6.00 Build 0)  -->
<svg version="1.1" xmlns="http://www.w3.org/2000/svg" xmlns:xlink="http://www.w3.org/1999/xlink" x="0px" y="0px"
	 viewBox="0 0 16 16" style="enable-background:new 0 0 16 16;" xml:space="preserve">
<style type="text/css">
	.st0{fill:none;stroke:#414141;stroke-miterlimit:10;}
	.st1{fill:none;stroke:#414141;stroke-linecap:round;stroke-miterlimit:10;}
	.st2{fill:#FFFFFF;stroke:#414141;stroke-width:1.5;stroke-miterlimit:10;}
	.st3{fill:none;stroke:#414141;stroke-width:0.5;stroke-miterlimit:10;}
</style>
<g id="Layer_1">
	<g>
		<path class="st0" d="M12.3,13.8L12.3,13.8c0,0.6-0.4,1.1-1,1.1l-1,0c-0.6,0-1.1-0.5-1.2-1l0,0c0-0.6,0.4-1.1,1-1.1l1,0
			C11.7,12.7,12.3,13.2,12.3,13.8z"/>
		<path class="st0" d="M6.9,13.8L6.9,13.8c0,0.6-0.4,1.1-1,1.1l-1,0c-0.6,0-1.2-0.5-1.2-1.1l0,0c0-0.6,0.4-1.1,1-1.1l1,0
			C6.3,12.8,6.8,13.2,6.9,13.8z"/>
		<line class="st1" x1="6.4" y1="13.9" x2="9.8" y2="13.8"/>
	</g>
	<g>
		<rect x="4.3" y="1.4" class="st2" width="7.4" height="9.7"/>
		<line class="st3" x1="6.1" y1="4.4" x2="9.9" y2="4.4"/>
		<line class="st3" x1="6.1" y1="5.6" x2="9.9" y2="5.6"/>
		<line class="st3" x1="6.1" y1="6.7" x2="9.9" y2="6.7"/>
	</g>
</g>
<g id="Layer_2">
</g>
</svg>
