<?xml version="1.0" encoding="utf-8"?>
<!-- Generator: Adobe Illustrator 19.2.1, SVG Export Plug-In . SVG Version: 6.00 Build 0)  -->
<svg version="1.1" id="de0ddb53-60c2-4d8b-891b-37aef254f79a"
	 xmlns="http://www.w3.org/2000/svg" xmlns:xlink="http://www.w3.org/1999/xlink" x="0px" y="0px" viewBox="0 0 16 16"
	 style="enable-background:new 0 0 16 16;" xml:space="preserve">
<style type="text/css">
	.st0{fill:#404040;}
	.st1{fill:none;}
	.st2{fill:none;stroke:#404040;stroke-miterlimit:10;}
</style>
<title>world</title>
<path class="st0" d="M8,15.2c-3.9,0-7-3.2-7-7s3.2-7,7-7c3.9,0,7,3.2,7,7c0,0,0,0,0,0C15,12,11.9,15.2,8,15.2z M8.9,1.7
	C8.7,1.8,8.6,1.9,8.5,2C8.3,2.4,7.9,2.6,7.4,2.6c-0.3,0-0.7,0.1-1,0.3C6.4,3,6.2,3.1,6.1,3.2C6,3.2,5.9,3.2,5.8,3.2
	C5.7,3.1,5.6,2.9,5.7,2.8c0-0.1,0-0.1,0-0.2l0.1-0.4c-0.4,0-0.7,0-1,0.2L5,2.6c0.1,0,0.2,0.1,0.2,0.2C5.1,2.9,5,3,4.9,3l0,0
	C4.8,3.1,4.7,3.2,4.8,3.4c0,0,0,0,0,0C4.8,3.6,4.9,3.8,4.9,4c0,0.2-0.1,0.3-0.3,0.4c-0.1,0.1-0.3,0-0.4-0.1l0,0
	c-0.1-0.1-0.2-0.1-0.2,0s0,0.2-0.1,0.3c0,0.1-0.1,0.2-0.2,0.2C3.4,4.9,3,5.2,2.8,5.6C2.7,5.9,2.5,6.1,2.2,6.3C2.1,6.4,2,6.4,1.9,6.5
	C1.8,6.6,1.8,6.7,1.7,6.8c0,0.4,0.1,0.7,0.3,1C2.1,7.9,2.2,8,2.3,7.9c0,0,0,0,0,0c0.3-0.1,0.6,0,0.7,0.2c0.3,0.3,0.6,0.5,1,0.7
	C4.1,8.9,4.2,9,4.3,9.2c0,0.1,0.1,0.2,0.2,0.2l0.3,0.1C5,9.6,5.3,9.7,5.5,9.8c0.2,0.1,0.3,0.3,0.2,0.6c0,0.1,0,0.1-0.1,0.2
	c-0.1,0.2-0.2,0.5-0.2,0.7c0.1,0.2,0,0.5-0.2,0.6c0,0,0,0-0.1,0C5,12,4.9,12.1,4.8,12.3c0,0.3-0.1,0.5-0.2,0.7
	c-0.1,0.3,0,0.6,0.3,0.8c1.3,0.7,2.8,0.9,4.2,0.6c3.3-0.6,5.6-3.7,5.3-7.1c0-0.1,0-0.3-0.1-0.4c0,0-0.1,0.1-0.1,0.1
	c0,0.3-0.2,0.5-0.5,0.6c0,0-0.1,0.1-0.1,0.1c0,0.1,0,0.1,0.1,0.2C14,8.3,14,8.6,13.8,8.8c-0.2,0.2-0.3,0.4-0.5,0.7
	c-0.1,0.2-0.2,0.4-0.1,0.6c0,0.2,0,0.4-0.1,0.6c-0.2,0.3-0.4,0.7-0.6,1c-0.2,0.4-0.5,0.7-0.8,1c-0.1,0.1-0.2,0.2-0.4,0.2
	c-0.2,0.1-0.4,0-0.4-0.1c0,0,0-0.1,0-0.1c-0.1-0.4-0.2-0.7-0.4-1.1c-0.1-0.2-0.1-0.5,0-0.8c0.1-0.2,0.1-0.3,0-0.5
	c-0.1-0.5-0.3-0.9-0.6-1.4l0,0c0-0.1-0.1-0.2-0.3-0.1c0,0,0,0-0.1,0C9.4,8.9,9.2,8.9,9,9C8.9,9,8.7,9,8.5,9c-0.4-0.2-0.8-0.5-1-1
	C7.5,7.8,7.4,7.7,7.5,7.5c0-0.2,0-0.4,0.1-0.6c0-0.3,0.2-0.6,0.4-0.9l0.7-0.8C8.5,5.2,8.3,5,8.3,4.9C8.1,4.4,8.4,4,8.8,3.8
	c0.1,0,0.2,0,0.3,0c0.2,0,0.5-0.1,0.6-0.2c0.1,0,0.1-0.1,0.1-0.2C9.6,3.1,9.7,2.9,9.9,2.7c0,0,0.1,0,0.1-0.1
	c0.1-0.1,0.3-0.1,0.4-0.2c0.1-0.1,0.3-0.2,0.4-0.3C10.2,1.9,9.6,1.7,8.9,1.7z M3,12.2c0-0.3-0.1-0.5-0.1-0.8c0-0.2-0.1-0.5-0.3-0.6
	c-0.5-0.5-0.8-1.3-0.7-2c0-0.3-0.2-0.6-0.4-0.8C1.5,9.6,2,11.1,3,12.2z M11.3,5.2c-0.1,0.2-0.3,0.2-0.4,0.2L11,5.5
	c0.1,0.2,0.3,0.4,0.5,0.3c0.2,0,0.4,0,0.7,0.1c0.1,0,0.2,0,0.2,0c0.1,0,0.2-0.1,0.2-0.2c0-0.1-0.1-0.2-0.2-0.2c-0.1,0-0.1,0-0.2-0.1
	l-0.6-0.1C11.5,5.3,11.4,5.3,11.3,5.2z M10.9,5.3L10.9,5.3c0-0.1,0-0.1-0.1-0.2c-0.2-0.1-0.4-0.3-0.7-0.4c-0.1,0-0.2,0-0.2,0
	C9.7,4.9,9.6,5,9.4,5.2C9.9,4.9,10.4,5,10.9,5.3z"/>
<rect class="st1" width="16" height="16"/>
<circle class="st2" cx="8" cy="8.1" r="7.1"/>
</svg>
