<?xml version="1.0" encoding="utf-8"?>
<!-- Generator: Adobe Illustrator 19.2.1, SVG Export Plug-In . SVG Version: 6.00 Build 0)  -->
<svg version="1.1" id="Layer_1" xmlns="http://www.w3.org/2000/svg" xmlns:xlink="http://www.w3.org/1999/xlink" x="0px" y="0px"
	 viewBox="0 0 16 16" style="enable-background:new 0 0 16 16;" xml:space="preserve">
<style type="text/css">
	.st0{fill:none;}
	.st1{fill:#756493;}
</style>
<g id="Layer_1_1_">
	<rect class="st0" width="16" height="16"/>
</g>
<g>
	<polygon class="st1" points="6,6.5 5.6,8.4 6.4,8.4 6,6.5 	"/>
	<path class="st1" d="M0.9,4.2v7.6h14.2V4.2H0.9z M3.6,9.9H2.8V8.3L1.7,5.8h0.9l0.5,1.6h0l0.6-1.6h0.9L3.6,8.3V9.9z M6.8,9.9
		L6.6,9.1H5.5L5.3,9.9H4.4l1.1-4.1h1l1.1,4.1H6.8z M10.2,9.9H7.9V5.8h0.8v3.4h1.5V9.9z M14.3,9.9h-0.8V6.7h0l-0.7,3.3h-0.6l-0.7-3.3
		h0v3.3h-0.8V5.8h1.2l0.6,2.9h0L13,5.8h1.2V9.9z"/>
</g>
</svg>
