<?xml version="1.0" encoding="utf-8"?>
<!-- Generator: Adobe Illustrator 19.2.1, SVG Export Plug-In . SVG Version: 6.00 Build 0)  -->
<svg version="1.1" id="Layer_1" xmlns="http://www.w3.org/2000/svg" xmlns:xlink="http://www.w3.org/1999/xlink" x="0px" y="0px"
	 viewBox="0 0 16 16" style="enable-background:new 0 0 16 16;" xml:space="preserve">
<style type="text/css">
	.st0{fill:#756493;}
</style>
<g>
	<polygon class="st0" points="5.7,6.6 5.4,9.5 6.1,9.5 5.8,6.6 	"/>
	<path class="st0" d="M0,4v9h16V4H0z M2.9,11.9h-1V9.2L0.8,5.1h1l0.6,2.7h0.1l0.6-2.7h1L2.9,9.1V11.9z M6.5,11.9l-0.2-1.5h-1L5,11.9
		h-1l1.1-6.8h1.3l1.1,6.8H6.5z M10.6,11.9H8V5.1h1v5.8h1.5V11.9z M15.2,11.9h-0.9V7.6c0-0.1,0-0.3,0-0.5c0-0.2,0-0.4,0.1-0.7
		c0,0.1,0,0.2-0.1,0.4c0,0.3-0.1,0.5-0.1,0.6l-0.8,4.5h-0.5l-0.8-4.5c0-0.2-0.1-0.4-0.1-0.6S12,6.5,12,6.4c0,0.2,0,0.4,0,0.6
		s0,0.4,0,0.5v4.3h-0.9V5.1h1.3l0.6,3.7c0,0.1,0,0.3,0.1,0.5c0,0.2,0,0.3,0,0.5c0-0.2,0-0.3,0-0.5c0-0.2,0-0.3,0.1-0.5l0.6-3.7h1.3
		V11.9z"/>
</g>
</svg>
