<?xml version="1.0" encoding="utf-8"?>
<!-- Generator: Adobe Illustrator 20.0.0, SVG Export Plug-In . SVG Version: 6.00 Build 0)  -->
<svg version="1.1" id="Layer_1" xmlns="http://www.w3.org/2000/svg" xmlns:xlink="http://www.w3.org/1999/xlink" x="0px" y="0px"
	 viewBox="0 0 16 16" style="enable-background:new 0 0 16 16;" xml:space="preserve">
<style type="text/css">
	.st0{fill:#756493;}
</style>
<g>
	<polygon class="st0" points="5.7,6.6 5.4,9.5 6.1,9.5 5.8,6.6 	"/>
	<path class="st0" d="M0,4v9h16V4H0z M2.9,11.9h-1V9.2L0.8,5.1h1l0.6,2.7h0.1l0.6-2.7h1l-1.2,4V11.9z M6.5,11.9l-0.2-1.5h-1L5,11.9
		H4l1.1-6.8h1.3l1.1,6.8H6.5z M11.3,11.9V7.6c0-0.1,0-0.3,0-0.5c0-0.1,0-0.2,0-0.4c0,0,0,0,0,0.1c0,0.3-0.1,0.5-0.1,0.6l-0.8,4.5
		H9.9L9.1,7.4C9.1,7.2,9,7,9,6.8C9,6.9,9,6.9,9,7c0,0.2,0,0.4,0,0.5v4.3H8.1V5.1h1.3L10,8.8c0,0.1,0,0.3,0.1,0.5
		c0-0.2,0-0.3,0.1-0.5l0.6-3.7h1.3v6.8H11.3z M13,11.9V5.1h1v5.8h1.5v1H13z"/>
</g>
</svg>
