<?xml version="1.0" encoding="utf-8"?>
<!-- Generator: Adobe Illustrator 19.2.1, SVG Export Plug-In . SVG Version: 6.00 Build 0)  -->
<svg version="1.1" id="Layer_1" xmlns="http://www.w3.org/2000/svg" xmlns:xlink="http://www.w3.org/1999/xlink" x="0px" y="0px"
	 viewBox="0 0 16 16" style="enable-background:new 0 0 16 16;" xml:space="preserve">
<style type="text/css">
	.st0{fill:#404040;}
	.st1{fill:#414141;}
</style>
<path class="st0" d="M13.9,4.7V3.1h-0.4v0.8c-0.4-0.4-0.8-0.6-1.2-0.8V2.3h-0.4v0.9c-0.2,0-0.3-0.1-0.4-0.1c-0.4,0-0.8,0.1-1.2,0.3
	C9.9,3,9.5,2.7,9,2.7l-0.1,0L8.6,1.8L8.2,1.9l0.3,0.9C8.1,2.9,7.8,3.2,7.6,3.6l-1-0.1l0,0.4L7.5,4c0.1,0.1,0.1,0.1,0.1,0.2
	c0,0.6,0.2,1,0.7,1.2C8.2,5.6,8.2,5.9,8.2,6.1c0,0.4,0.1,0.8,0.2,1.1L7.5,7.7l0.2,0.4l0.9-0.5C9,8.2,9.5,8.7,10.2,9l-1,0.5l0.2,0.4
	l1.5-0.8c0.1,0,0.2,0,0.4,0c1.7,0,3.1-1.4,3.1-3.1C14.3,5.6,14.2,5.1,13.9,4.7z"/>
<rect x="4.9" y="7.4" transform="matrix(0.645 -0.7642 0.7642 0.645 -5.7754 8.6563)" class="st0" width="3.1" height="6.2"/>
<polygon class="st1" points="11.2,14.7 8.3,14.1 10.3,11.8 "/>
<rect x="1.5" y="6.7" transform="matrix(0.6528 -0.7575 0.7575 0.6528 -4.6732 4.9469)" class="st0" width="3.1" height="1.7"/>
</svg>
