<?xml version="1.0" encoding="utf-8"?>
<!-- Generator: Adobe Illustrator 20.0.0, SVG Export Plug-In . SVG Version: 6.00 Build 0)  -->
<svg version="1.1" id="Layer_1" xmlns="http://www.w3.org/2000/svg" xmlns:xlink="http://www.w3.org/1999/xlink" x="0px" y="0px"
	 viewBox="0 0 16 16" style="enable-background:new 0 0 16 16;" xml:space="preserve">
<style type="text/css">
	.st0{fill:#756493;}
	.st1{fill:#FFFFFF;}
</style>
<rect y="3.5" class="st0" width="16" height="9"/>
<g>
	<path class="st1" d="M1.2,5.6H2l0.5,2h0l0.5-2h0.8l-0.9,3v2.1H2.1v-2L1.2,5.6z"/>
	<path class="st1" d="M4.8,10.7l0.8-5.1h1l0.8,5.1H6.7L6.6,9.6H5.8l-0.2,1.1H4.8z M5.9,8.9h0.6L6.2,6.8h0L5.9,8.9z"/>
	<path class="st1" d="M8.5,10.7V5.6h1.1l0.5,2.8c0,0.1,0,0.2,0,0.4s0,0.3,0,0.4c0-0.1,0-0.2,0-0.4c0-0.1,0-0.3,0.1-0.4l0.5-2.8h1.1
		v5.1h-0.7V7.5c0-0.1,0-0.2,0-0.4s0-0.3,0-0.5c0,0.1,0,0.2,0,0.3C11,7.1,11,7.3,11,7.3l-0.6,3.4H10L9.4,7.3c0-0.1,0-0.3-0.1-0.4
		s0-0.3,0-0.3c0,0.2,0,0.3,0,0.5c0,0.2,0,0.3,0,0.4v3.2H8.5z"/>
	<path class="st1" d="M12.8,10.7V5.6h0.8V10h1.2v0.7H12.8z"/>
</g>
</svg>
