<?xml version="1.0" encoding="utf-8"?>
<!-- Generator: Adobe Illustrator 19.2.1, SVG Export Plug-In . SVG Version: 6.00 Build 0)  -->
<svg version="1.1" id="fa58ed27-f5e4-480f-8c57-7dfb2efc1c30"
	 xmlns="http://www.w3.org/2000/svg" xmlns:xlink="http://www.w3.org/1999/xlink" x="0px" y="0px" viewBox="0 0 16 16"
	 style="enable-background:new 0 0 16 16;" xml:space="preserve">
<style type="text/css">
	.st0{fill:none;}
	.st1{fill:#404040;}
</style>
<title>catalog-target</title>
<rect class="st0" width="16" height="16"/>
<g>
	<path class="st1" d="M8.1,3.8c2.2,0.4,3.5,1.6,3.8,3.8c0.8,0,1.7,0,2.5,0c0,0.3,0,0.5,0,0.8c-0.8,0-1.7,0-2.5,0
		c-0.4,2.2-1.6,3.5-3.8,3.8c0,0.8,0,1.6,0,2.4c-0.3,0-0.5,0-0.8,0c0-0.8,0-1.6,0-2.4c-2.2-0.4-3.5-1.6-3.8-3.8c-0.8,0-1.7,0-2.5,0
		c0-0.3,0-0.5,0-0.8c0.8,0,1.7,0,2.5,0C3.8,5.5,5.5,4,7.4,3.8c0-0.8,0-1.6,0-2.4c0.3,0,0.5,0,0.8,0C8.1,2.2,8.1,3,8.1,3.8z
		 M11.2,7.6c-0.1-1.6-1.5-2.9-3-3c0,0.8,0,1.6,0,2.3c-0.1,0-0.3,0-0.4,0c-0.1,0-0.2,0-0.4,0c0-0.8,0-1.6,0-2.3c-1.6,0.1-2.9,1.6-3,3
		c0.8,0,1.6,0,2.3,0c0,0.3,0,0.5,0,0.8c-0.8,0-1.5,0-2.3,0c0.1,1.6,1.5,2.9,3,3c0-0.8,0-1.6,0-2.3c0.1,0,0.3,0,0.4,0
		c0.1,0,0.2,0,0.4,0c0,0.8,0,1.6,0,2.3c1.5-0.1,2.9-1.5,3-3c-0.8,0-1.6,0-2.3,0c0-0.1,0-0.3,0-0.4c0-0.1,0-0.2,0-0.4
		C9.6,7.6,10.4,7.6,11.2,7.6z"/>
</g>
<line class="st1" x1="0.8" y1="8.7" x2="6.4" y2="8.7"/>
</svg>
