<?xml version="1.0" encoding="utf-8"?>
<!-- Generator: Adobe Illustrator 20.0.0, SVG Export Plug-In . SVG Version: 6.00 Build 0)  -->
<svg version="1.1" id="Layer_1" xmlns="http://www.w3.org/2000/svg" xmlns:xlink="http://www.w3.org/1999/xlink" x="0px" y="0px"
	 viewBox="0 0 16 16" style="enable-background:new 0 0 16 16;" xml:space="preserve">
<style type="text/css">
	.st0{fill:#404040;}
	.st1{fill:#F7A808;}
</style>
<title>server</title>
<path d="M13.1-1.9"/>
<g>
	<path class="st0" d="M14,2v12H2V2H14 M15,1H1v14h14V1L15,1z"/>
</g>
<polygon class="st0" points="12,9 10,9 9,8 12,8 "/>
<rect x="7.1" y="6" class="st0" width="4.9" height="1"/>
<rect x="4" y="4" class="st0" width="8" height="1"/>
<path class="st1" d="M6.5,5C4,5,2,7,2,9.5C2,12,4,14,6.5,14C9,14,11,12,11,9.5C11,7,9,5,6.5,5z M8.8,12.8L4,9.8c0,0,1.1,0,1.5,0
	L3.3,7.1c0,0.1,4.1,0,4.1,0l1.9,2.7H7.1C7.1,9.7,8.8,12.8,8.8,12.8z"/>
</svg>
