<?xml version="1.0" encoding="utf-8"?>
<!-- Generator: Adobe Illustrator 20.0.0, SVG Export Plug-In . SVG Version: 6.00 Build 0)  -->
<svg version="1.1" id="Layer_2" xmlns="http://www.w3.org/2000/svg" xmlns:xlink="http://www.w3.org/1999/xlink" x="0px" y="0px"
	 viewBox="0 0 16 16" style="enable-background:new 0 0 16 16;" xml:space="preserve">
<style type="text/css">
	.st0{fill:#404040;}
	.st1{fill:none;stroke:#404040;stroke-width:1.0408;stroke-miterlimit:10;}
	.st2{fill:none;stroke:#404040;stroke-width:1.0402;stroke-miterlimit:10;}
	.st3{fill:#999999;}
	.st4{fill:#F7A808;}
	.st5{fill:none;stroke:#404040;stroke-width:0.9574;stroke-miterlimit:10;}
</style>
<g>
	<polygon class="st0" points="1.4,10.1 1.4,5.7 5.3,3.5 9.1,5.7 9.1,10.1 5.3,12.4 	"/>
	<path class="st0" d="M5.3,4.1L8.6,6v3.8l-3.3,1.9L1.9,9.9V6L5.3,4.1 M5.3,2.9L0.9,5.4v0.5v4.5l4.3,2.5l4.3-2.5v-5L5.3,2.9L5.3,2.9z
		"/>
</g>
<polyline class="st1" points="1.6,5.6 5.2,7.8 5.1,12 "/>
<polyline class="st2" points="9.4,5.2 4.9,7.5 4.9,11.7 "/>
<g>
	<polygon class="st3" points="5,12.3 4.9,7.9 9.3,5.7 13.2,7.9 13.2,12.4 9.2,14.7 	"/>
	<path class="st0" d="M9.3,6.3l3.4,1.9v3.9l-3.4,2L5.5,12L5.5,8.2L9.3,6.3 M9.3,5.2L4.4,7.6l0.1,4.9l4.7,2.7l4.4-2.6v-5L9.3,5.2
		L9.3,5.2z"/>
</g>
<polyline class="st1" points="5.6,8.1 9.2,10.2 9.2,14.6 "/>
<polyline class="st2" points="13.4,7.8 9.1,10.3 9.3,14.2 "/>
<g>
	<polygon class="st4" points="4.4,7.1 4.4,2.7 8.3,0.5 12.1,2.7 12.1,7.1 8.3,9.4 	"/>
	<path class="st0" d="M8.3,1.1L11.6,3v3.8L8.3,8.8L4.9,6.9V3L8.3,1.1 M8.3-0.1L3.9,2.4v0.5v4.5l4.3,2.5l4.3-2.5v-5L8.3-0.1L8.3-0.1z
		"/>
</g>
<polyline class="st1" points="5,2.5 8.2,4.5 8.2,9.5 "/>
<polyline class="st5" points="11.8,2.7 8.6,4.5 8.6,8.7 "/>
</svg>
