<?xml version="1.0" encoding="utf-8"?>
<!-- Generator: Adobe Illustrator 20.0.0, SVG Export Plug-In . SVG Version: 6.00 Build 0)  -->
<svg version="1.1" id="Layer_1" xmlns="http://www.w3.org/2000/svg" xmlns:xlink="http://www.w3.org/1999/xlink" x="0px" y="0px"
	 viewBox="0 0 16 16" style="enable-background:new 0 0 16 16;" xml:space="preserve">
<style type="text/css">
	.st0{fill:#404040;}
	.st1{fill:#FFFFFF;}
	.st2{fill:none;}
	.st3{fill:#4FBC78;}
</style>
<title>local</title>
<path class="st0" d="M14,3.3v9.2c0,0-2,2.5-5.8,2.5C4.8,15.1,2,13.5,2,12l0-8.9"/>
<g>
	<path class="st1" d="M8.1,5.6c-3.2,0-5.6-1.4-5.6-2.4C2.5,2.3,4.9,1,8.1,1c3.1,0,5.3,1.2,5.3,2.3S11.2,5.6,8.1,5.6z"/>
	<path class="st0" d="M8.1,1.6c2.9,0,4.8,1.1,4.8,1.7S11,5,8.1,5c-3,0-5-1.3-5-1.8C3.1,2.8,5.1,1.6,8.1,1.6 M8.1,0.4
		c-3.2,0-6.2,1.4-6.2,2.9s2.9,2.9,6.2,2.9S14,4.9,14,3.3S11.3,0.4,8.1,0.4L8.1,0.4z"/>
</g>
<line class="st2" x1="3.4" y1="7.4" x2="3.4" y2="9"/>
<path class="st3" d="M6.3,5.4c-2.5,0-4.5,2-4.5,4.5s2,4.5,4.5,4.5s4.5-2,4.5-4.5S8.8,5.4,6.3,5.4z"/>
<path class="st1" d="M3.9,13c0.3-0.3,0.4-0.3,0.8-0.6c0.1-0.1,2.4,1.3,4.4-1.1c0,0-0.3-0.3-1-1c0.4-0.4,1.5-1.5,1.5-1.5L9.1,8.4
	L7.6,9.8C7.2,9.5,6.8,9.1,6.4,8.7L8,7.4c0,0.1-0.6-0.6-0.6-0.6L5.8,8.1C5.3,7.7,5,7.3,5,7.3c-1,0.7-1.7,2.8-1.2,4.2
	c0,0-0.3,0.3-0.6,0.6L3.9,13z"/>
</svg>
