<?xml version="1.0" encoding="utf-8"?>
<!-- Generator: Adobe Illustrator 20.0.0, SVG Export Plug-In . SVG Version: 6.00 Build 0)  -->
<svg version="1.1" id="_x38_9aa3ecb-881e-4ef4-9ab8-044589192bcb"
	 xmlns="http://www.w3.org/2000/svg" xmlns:xlink="http://www.w3.org/1999/xlink" x="0px" y="0px" viewBox="0 0 16 16"
	 style="enable-background:new 0 0 16 16;" xml:space="preserve">
<style type="text/css">
	.st0{fill:#3FA9F5;}
	.st1{fill:#FFFFFF;}
</style>
<title>Screen Shot 2016-04-27 at 16.12.40</title>
<circle class="st0" cx="7.8" cy="7.8" r="7.8"/>
<path class="st1" d="M12.8,8.5C12.5,8.8,12.2,9,11.8,9c-0.7,0-1.3-0.6-1.3-1.3s0.6-1.3,1.3-1.3c0.4,0,0.8,0.2,1,0.6H14l-0.1-3L9.1,4
	l0.1-0.7c0.4-0.3,0.6-0.6,0.6-1c0-0.7-0.4-1.2-1.1-1.2C8,1,7.5,1.5,7.5,2.3c0,0.4,0.2,0.7,0.5,1L8,4L5,4l0,3H4.1
	C3.8,6.8,3.5,6.7,3.1,6.7c-0.7,0-1.3,0.6-1.3,1.3s0.6,1.3,1.3,1.3c0.5,0,0.9-0.3,1.1-0.6H5V13h4v-0.9c-0.3-0.2-0.6-0.2-0.6-1
	c0-0.8,0.5-1.2,1.2-1.2s1.3,0.6,1.3,1.3c0,0.4-0.2,0.8-0.6,1V13H14V8.5H12.8z"/>
</svg>
