<?xml version="1.0" encoding="utf-8"?>
<!-- Generator: Adobe Illustrator 20.0.0, SVG Export Plug-In . SVG Version: 6.00 Build 0)  -->
<svg version="1.1" id="Layer_1" xmlns="http://www.w3.org/2000/svg" xmlns:xlink="http://www.w3.org/1999/xlink" x="0px" y="0px"
	 viewBox="0 0 16 16" style="enable-background:new 0 0 16 16;" xml:space="preserve">
<style type="text/css">
	.st0{fill:#F4B70B;}
	.st1{fill:#F7A808;}
	.st2{fill:none;stroke:#FFFFFF;stroke-width:0.5;stroke-linecap:round;stroke-linejoin:round;stroke-miterlimit:10;}
</style>
<path class="st0" d="M8,11.5C6,11.5,4.5,10,4.5,8S6,4.5,8,4.5c0.5,0,0.8,0.1,1.2,0.2c0.5,0.2,1,0.4,1.4,1c0.6,0.6,0.9,1.4,0.9,2.3
	C11.5,10,10,11.5,8,11.5z"/>
<path class="st1" d="M8,5c0.4,0,0.7,0.1,1,0.2C9.5,5.4,9.9,5.6,10.2,6C10.7,6.5,11,7.2,11,8c0,1.7-1.3,3-3,3S5,9.7,5,8S6.3,5,8,5
	 M8,4C5.8,4,4,5.8,4,8s1.8,4,4,4s4-1.8,4-4c0-1-0.4-2-1-2.7c-0.5-0.6-1.1-0.9-1.6-1.1l0,0l0,0C9,4.1,8.6,4,8,4L8,4z"/>
<path class="st2" d="M9,6c0.8,0.3,1,1,1,1"/>
</svg>
