<?xml version="1.0" encoding="utf-8"?>
<!-- Generator: Adobe Illustrator 20.0.0, SVG Export Plug-In . SVG Version: 6.00 Build 0)  -->
<svg version="1.1" id="Layer_1" xmlns="http://www.w3.org/2000/svg" xmlns:xlink="http://www.w3.org/1999/xlink" x="0px" y="0px"
	 viewBox="0 0 16 16" style="enable-background:new 0 0 16 16;" xml:space="preserve">
<style type="text/css">
	.st0{fill:#404040;}
	.st1{fill:none;stroke:#3FA9F5;stroke-width:0.9992;stroke-miterlimit:10;}
	.st2{fill:none;stroke:#F7A808;stroke-width:0.9992;stroke-miterlimit:10;}
	.st3{fill:none;stroke:#4FBC78;stroke-width:0.9992;stroke-miterlimit:10;}
</style>
<g>
	<path class="st0" d="M15,1v13H1V1H15 M16,0H0v15H16V0L16,0z"/>
</g>
<path class="st1" d="M2.3,5c0,0,0.5-1.8,2.9-1.8C8.7,3,7.8,5.8,10.7,5.8c2.1,0,2.4-1.8,3.3-1.9"/>
<path class="st2" d="M2.3,8c0,0,0.5-1.8,2.9-1.8c2-0.1,2.6,0.9,3.5,1.6c1.8,1.2,3.2,1.4,4,0.3C13.4,7.2,13.5,7,14,6.9"/>
<path class="st3" d="M2.3,11c0,0,0.5-1.9,2.9-1.8c2.8,0,2.6,0.9,3.5,1.6c2,1.4,3.3,1,4,0.3c0.8-0.6,1-1.1,1.2-1.1"/>
</svg>
