<?xml version="1.0" encoding="utf-8"?>
<!-- Generator: Adobe Illustrator 19.2.1, SVG Export Plug-In . SVG Version: 6.00 Build 0)  -->
<svg version="1.1" id="Layer_1" xmlns="http://www.w3.org/2000/svg" xmlns:xlink="http://www.w3.org/1999/xlink" x="0px" y="0px"
	 viewBox="0 0 16 16" style="enable-background:new 0 0 16 16;" xml:space="preserve">
<style type="text/css">
	.st0{fill:none;}
	.st1{fill:#404040;}
	.st2{fill:#FFFFFF;}
	.st3{clip-path:url(#SVGID_3_);fill:#FFFFFF;}
</style>
<rect class="st0" width="16" height="16"/>
<g>
	<path class="st1" d="M3,1.7c2.5,0,7.7,0.1,7.8,0.1c1.7,1,1.9,6.9,1.9,7.6c0,0,0,0,0,0.1c0.3,0,0.6,0,0.9,0c0.2,0,0.4,0.1,0.6,0.1
		c1.4,0.3,1.2,2.8,1.1,3c-0.1,0.6-0.5,1.1-1.1,1.3c-0.2,0-0.4,0.1-0.6,0.1c-1.3,0-2.7,0-4,0c-0.4,0-0.9,0-1.3,0v-0.1
		C9,12.6,10.2,10.1,7,9.5c0,0,0,0-0.1,0c1.6,0,3.2,0,4.8,0c0-0.1,0-0.1,0-0.1c-0.1-1,0-3.1-0.6-5.3c-0.1-0.4-0.7-1.6-1-1.6
		c-1.6,0-3.2,0-4.8,0H5.2C6,5.3,6.3,8,6.2,8.7c0,0.1-0.8,0.5-0.8,0.4c0-0.6-0.2-2.8-0.3-3C5,6,5,6,4.9,6c-1,0-3,0.1-3.1,0
		C1.7,5.8,1,2.1,3,1.7z M9.1,12.9c0.5,0,4.5,0,4.5,0c0.1,0,0.2,0,0.2,0c0.3,0,0.4-0.2,0.5-0.4c0.1-0.4,0.3-2.1-0.7-2.2
		c-0.6,0-1.2,0-1.7,0c-0.9,0-1.8,0-2.6,0c0,0-0.1,0-0.2,0C9.3,11.2,9.3,12,9.1,12.9z M4.2,2.6c0-0.1-0.1-0.1-0.2-0.1
		c-0.2,0-0.7,0-0.9,0C2.3,2.6,2,4.7,2.4,5.4H5C5,5.4,4.5,3.5,4.2,2.6z"/>
</g>
<circle class="st1" cx="6.6" cy="11.7" r="3"/>
<g>
	<g>
		<path id="SVGID_1_" class="st2" d="M8.1,12.3l0.6-0.1l-0.1-0.7L8,11.3V11l0.3-0.4L7.7,10l-0.4,0.3c0,0-0.1-0.1-0.2-0.1
			C7,10,7,9.8,7,9.6c-0.2-0.1-0.8-0.1-0.8,0l-0.1,0.6l-0.2,0.1L5.4,10l-0.6,0.6l0.4,0.3l-0.1,0.2c-0.2,0.1-0.6,0.1-0.6,0.1l0,0.8
			l0,0c0.1,0.1,0.6,0.1,0.6,0.1l0.1,0.3l-0.3,0.4l0.5,0.6L5.9,13l0.2,0.2l0.1,0.6h0.7c0,0,0.1-0.3,0.1-0.6c0.1,0,0.2-0.1,0.3-0.1
			c0.1,0.1,0.4,0.4,0.4,0.4l0.6-0.6L8,12.5L8.1,12.3z M6.6,12.6c-0.5,0-0.9-0.4-0.9-0.9s0.2-0.8,0.7-0.9c0.4-0.1,0.8,0.2,1,0.5
			C7.7,12,7.2,12.6,6.6,12.6z"/>
	</g>
	<g>
		<defs>
			<path id="SVGID_2_" d="M8.1,12.3l0.6-0.1l-0.1-0.7L8,11.3V11l0.3-0.4L7.7,10l-0.4,0.3c0,0-0.1-0.1-0.2-0.1C7,10,7,9.8,7,9.6
				c-0.2-0.1-0.8-0.1-0.8,0l-0.1,0.6l-0.2,0.1L5.4,10l-0.6,0.6l0.4,0.3l-0.1,0.2c-0.2,0.1-0.6,0.1-0.6,0.1l0,0.8l0,0
				c0.1,0.1,0.6,0.1,0.6,0.1l0.1,0.3l-0.3,0.4l0.5,0.6L5.9,13l0.2,0.2l0.1,0.6h0.7c0,0,0.1-0.3,0.1-0.6c0.1,0,0.2-0.1,0.3-0.1
				c0.1,0.1,0.4,0.4,0.4,0.4l0.6-0.6L8,12.5L8.1,12.3z M6.6,12.6c-0.5,0-0.9-0.4-0.9-0.9s0.2-0.8,0.7-0.9c0.4-0.1,0.8,0.2,1,0.5
				C7.7,12,7.2,12.6,6.6,12.6z"/>
		</defs>
		<clipPath id="SVGID_3_">
			<use xlink:href="#SVGID_2_"  style="overflow:visible;"/>
		</clipPath>
		<circle class="st3" cx="6.6" cy="11.7" r="2.9"/>
	</g>
</g>
</svg>
