<?xml version="1.0" encoding="utf-8"?>
<!-- Generator: Adobe Illustrator 20.0.0, SVG Export Plug-In . SVG Version: 6.00 Build 0)  -->
<svg version="1.1" id="Layer_1" xmlns="http://www.w3.org/2000/svg" xmlns:xlink="http://www.w3.org/1999/xlink" x="0px" y="0px"
	 viewBox="0 0 16 16" style="enable-background:new 0 0 16 16;" xml:space="preserve">
<style type="text/css">
	.st0{fill:#FFFFFF;}
	.st1{fill:#404040;}
	.st2{fill:#3FA9F5;}
	.st3{fill:none;stroke:#3FA9F5;stroke-width:0.5;stroke-miterlimit:10;}
	.st4{fill:none;stroke:#3FA9F5;stroke-width:0.4957;stroke-miterlimit:10;}
	.st5{fill:#808080;}
</style>
<g>
	<rect x="1.5" y="1.5" class="st0" width="13" height="13"/>
	<path class="st1" d="M14,2v12H2V2H14 M15,1H1v14h14V1L15,1z"/>
</g>
<rect x="3" y="3" class="st2" width="10" height="1.9"/>
<line class="st3" x1="5.4" y1="5.9" x2="5.4" y2="12.7"/>
<line class="st3" x1="8.1" y1="6" x2="8.1" y2="12.8"/>
<line class="st4" x1="10.2" y1="5.9" x2="10.2" y2="12.7"/>
<line class="st4" x1="3.1" y1="8.6" x2="13" y2="8.6"/>
<g>
	<path class="st2" d="M12,6.9v5H4v-5L12,6.9 M13,5.9H3v7h10V5.9L13,5.9z"/>
</g>
<line class="st4" x1="3" y1="10.5" x2="13" y2="10.5"/>
<path class="st5" d="M9,7.5l-0.1,5.9c0,0-0.6,1.6-3.9,1.6c-2.1,0.1-3.9-0.7-3.9-1.6L1,7.5"/>
<path class="st0" d="M5.3,9.1c-2.2,0-3.9-0.9-3.9-1.5c0-0.6,1.7-1.4,3.9-1.4C7.5,6.2,9,6.9,9,7.6S7.5,9.1,5.3,9.1z"/>
<path class="st5" d="M5.1,6.5c1.9,0,3.2,0.7,3.2,1.1S7,8.7,5.1,8.7c-2,0-3.3-0.8-3.3-1.1C1.8,7.3,3.1,6.5,5.1,6.5 M5.1,5.8
	C3,5.8,1,6.7,1,7.6s1.9,1.8,4.1,1.8S9,8.6,9,7.6S7.2,5.8,5.1,5.8L5.1,5.8z"/>
</svg>
