<?xml version="1.0" encoding="utf-8"?>
<!-- Generator: Adobe Illustrator 20.0.0, SVG Export Plug-In . SVG Version: 6.00 Build 0)  -->
<svg version="1.1" id="Layer_1" xmlns="http://www.w3.org/2000/svg" xmlns:xlink="http://www.w3.org/1999/xlink" x="0px" y="0px"
	 viewBox="0 0 29 29" style="enable-background:new 0 0 29 29;" xml:space="preserve">
<style type="text/css">
	.st0{fill:#FFFFFF;}
	.st1{fill:#98C7E5;}
	.st2{fill:#909090;}
</style>
<g>
	<path class="st0" d="M27.9,1.1H7.2C3.7,1.1,0.8,4,0.8,7.5v13.7c0,3.5,2.9,6.4,6.4,6.4h20.7L27.9,1.1L27.9,1.1z"/>
</g>
<polygon class="st1" points="22.5,13 13.4,13 16.3,9.6 14.7,8.3 9.1,15 14.8,20.7 16.2,19.3 12.9,16 22.5,16 "/>
<g>
	<path class="st2" d="M25.9,3.1v22.6H7.2c-2.4,0-4.4-2-4.4-4.4V7.5c0-2.4,2-4.4,4.4-4.4H25.9 M27.9,1.1H7.2C3.7,1.1,0.8,4,0.8,7.5
		v13.7c0,3.5,2.9,6.4,6.4,6.4h20.7L27.9,1.1L27.9,1.1z"/>
</g>
</svg>
