<?xml version="1.0" encoding="utf-8"?>
<!-- Generator: Adobe Illustrator 20.0.0, SVG Export Plug-In . SVG Version: 6.00 Build 0)  -->
<svg version="1.1" id="Layer_1" xmlns="http://www.w3.org/2000/svg" xmlns:xlink="http://www.w3.org/1999/xlink" x="0px" y="0px"
	 viewBox="0 0 64 24" style="enable-background:new 0 0 64 24;" xml:space="preserve">
<style type="text/css">
	.st0{fill:#404040;}
	.st1{fill:#BFBFBF;}
	.st2{fill:none;stroke:#404040;stroke-width:2;stroke-miterlimit:10;}
	.st3{fill:#D1D1D1;}
</style>
<g id="Layer_1_1_">
</g>
<g id="Layer_4">
</g>
<g>
	<path class="st0" d="M31,1v21.8H1.2V1H31 M32,0H0.2v23.8H32V0L32,0z"/>
</g>
<g>
	<rect x="31.7" y="0.5" class="st1" width="31.6" height="22.8"/>
	<path class="st0" d="M62.8,1v21.8H32.2V1H62.8 M63.9,0H31.2v23.8h32.7V0L63.9,0z"/>
</g>
<g>
	<path class="st0" d="M48,6.5c2.8,0,5,2.2,5,5s-2.2,5-5,5s-5-2.2-5-5S45.2,6.5,48,6.5 M48,4.5c-3.9,0-7,3.1-7,7s3.1,7,7,7s7-3.1,7-7
		S51.9,4.5,48,4.5L48,4.5z"/>
</g>
<g>
	<line class="st2" x1="43.4" y1="6.6" x2="52.5" y2="15.9"/>
</g>
<g>
	<rect x="2" y="10.6" class="st3" width="28.3" height="11.4"/>
</g>
<g>
	<path class="st0" d="M16,6.5c2.8,0,5,2.2,5,5s-2.2,5-5,5s-5-2.2-5-5S13.2,6.5,16,6.5 M16,4.5c-3.9,0-7,3.1-7,7s3.1,7,7,7s7-3.1,7-7
		S19.9,4.5,16,4.5L16,4.5z"/>
</g>
<g>
	<line class="st2" x1="11.6" y1="7.1" x2="20.6" y2="16"/>
</g>
<g id="Layer_3">
</g>
</svg>
