<?xml version="1.0" encoding="utf-8"?>
<!-- Generator: Adobe Illustrator 20.0.0, SVG Export Plug-In . SVG Version: 6.00 Build 0)  -->
<svg version="1.1" xmlns="http://www.w3.org/2000/svg" xmlns:xlink="http://www.w3.org/1999/xlink" x="0px" y="0px"
	 viewBox="0 0 64 48" style="enable-background:new 0 0 64 48;" xml:space="preserve">
<style type="text/css">
	.st0{fill:#FFFFFF;}
	.st1{fill:#D8D8D8;}
	.st2{fill:#404040;}
	.st3{fill:#808080;}
	.st4{fill:#909090;}
	.st5{fill:none;stroke:#404040;stroke-width:2;stroke-miterlimit:10;}
	.st6{fill:#0C61EA;}
	.st7{fill:none;stroke:#0C61EA;stroke-width:2;stroke-miterlimit:10;}
</style>
<g id="Layer_2">
	<rect x="0.2" y="0.1" class="st0" width="62.8" height="46.9"/>
</g>
<g id="Layer_1">
	<g>
		<rect x="2" y="35" class="st1" width="28" height="11.1"/>
	</g>
	<g>
		<path class="st2" d="M46.7,12.6L41,17.2v-2l4.6-3.6L41,8V6l5.7,4.5V12.6z"/>
	</g>
	<rect x="46.6" y="6.5" class="st2" width="8" height="2"/>
	<rect x="48.7" y="10.5" class="st2" width="6" height="2"/>
	<rect x="46.7" y="14.5" class="st2" width="8" height="2"/>
	<g>
		<path class="st3" d="M30.9,1.1v21.6c0,0.1-0.1,0.2-0.2,0.2H1.2c-0.1,0-0.2-0.1-0.2-0.2V1.3c0-0.1,0.1-0.2,0.2-0.2L30.9,1.1
			 M31.9,0.1H0.2C0.1,0.1,0,0.2,0,0.3v23.5C0,23.9,0.1,24,0.2,24h31.5c0.1,0,0.2-0.1,0.2-0.2L31.9,0.1L31.9,0.1z"/>
	</g>
	<g>
		<path class="st3" d="M31,24.1V46H1V24.1H31 M32,23.1H0V47h32V23.1L32,23.1z"/>
	</g>
	<g>
		<rect x="31.5" y="23.6" class="st4" width="31" height="22.9"/>
		<g>
			<path class="st3" d="M62,24.1V46H32V24.1H62 M63,23.1H31V47h32V23.1L63,23.1z"/>
		</g>
	</g>
	<g>
		<rect x="31.5" y="0.5" class="st4" width="31" height="23"/>
		<path class="st3" d="M62,1v22H32V1H62 M63,0H31v24h32V0L63,0z"/>
	</g>
	<g>
		<rect x="2" y="11.1" class="st1" width="27.8" height="10.9"/>
	</g>
	<g id="Layer_3">
		<rect x="15.1" y="7" class="st2" width="7.9" height="2"/>
		<rect x="17" y="11" class="st2" width="6" height="2"/>
		<rect x="15" y="15" class="st2" width="8" height="2"/>
		<polyline class="st5" points="9.3,7.1 14,12 9.8,16.2 		"/>
		<rect x="46.8" y="7" class="st2" width="7.9" height="2"/>
		<rect x="48.7" y="11" class="st2" width="6" height="2"/>
		<rect x="46.7" y="15" class="st2" width="8" height="2"/>
		<polyline class="st5" points="41,7.1 45.7,12 41.5,16.2 		"/>
		<rect x="46.8" y="31" class="st6" width="7.9" height="2"/>
		<rect x="48.7" y="35" class="st6" width="6" height="2"/>
		<rect x="46.7" y="39" class="st6" width="8" height="2"/>
		<polyline class="st7" points="41,31.1 45.7,36 41.5,40.2 		"/>
		<rect x="15.1" y="31" class="st6" width="7.9" height="2"/>
		<rect x="17" y="35" class="st6" width="6" height="2"/>
		<rect x="15" y="39" class="st6" width="8" height="2"/>
		<polyline class="st7" points="9.3,31.1 14,36 9.8,40.2 		"/>
	</g>
</g>
</svg>
