<?xml version="1.0" encoding="utf-8"?>
<!-- Generator: Adobe Illustrator 20.0.0, SVG Export Plug-In . SVG Version: 6.00 Build 0)  -->
<svg version="1.1" xmlns="http://www.w3.org/2000/svg" xmlns:xlink="http://www.w3.org/1999/xlink" x="0px" y="0px"
	 viewBox="0 0 15 15" style="enable-background:new 0 0 15 15;" xml:space="preserve">
<style type="text/css">
	.st0{fill:#FFFFFF;}
	.st1{fill:#B3B3B3;}
</style>
<g id="Layer_1">
</g>
<g id="Layer_2">
	<g>
		<polygon class="st0" points="4.4,9.2 1.3,6.3 5.6,5.6 7.5,1.7 9.4,5.6 13.7,6.2 10.6,9.2 11.4,13.4 7.5,11.4 3.7,13.5 		"/>
		<path class="st1" d="M7.5,2.9l1.4,2.7L9.1,6l0.5,0.1l3,0.4l-2.2,2.1L10.1,9l0.1,0.5l0.5,3L8,11.1l-0.5-0.2l-0.5,0.2l-2.7,1.4
			l0.5-3L5,9.1L4.6,8.7L2.4,6.6l3-0.5l0.5-0.1l0.2-0.5L7.5,2.9 M7.5,0.6L5.3,5.1l-5,0.8l3.6,3.5l-0.8,5L7.5,12l4.5,2.3l-0.9-5
			l3.6-3.6l-5-0.7L7.5,0.6L7.5,0.6z"/>
	</g>
</g>
</svg>
