<?xml version="1.0" encoding="utf-8"?>
<!-- Generator: Adobe Illustrator 20.0.0, SVG Export Plug-In . SVG Version: 6.00 Build 0)  -->
<svg version="1.1" id="Layer_1" xmlns="http://www.w3.org/2000/svg" xmlns:xlink="http://www.w3.org/1999/xlink" x="0px" y="0px"
	 viewBox="0 0 15 15" style="enable-background:new 0 0 15 15;" xml:space="preserve">
<style type="text/css">
	.st0{fill:#FFFFFF;}
	.st1{fill:#404040;}
</style>
<path class="st0" d="M7.5,0.7L5.3,5.2L0.3,6l3.6,3.5l-0.8,5l4.4-2.4l4.5,2.3l-0.9-5l3.6-3.6l-5-0.7L7.5,0.7L7.5,0.7z"/>
<g id="Layer_1_1_">
</g>
<path class="st1" d="M7.5,2.9L9.1,6l3.5,0.5L10.1,9l0.6,3.5l-3.2-1.6l-3.2,1.6L5,9.1L2.4,6.6L5.9,6L7.5,2.9 M5.3,5.1l-5,0.8l3.6,3.5
	l-0.8,5L7.5,12l4.5,2.3l-0.9-5l3.6-3.6L9.7,5L7.5,0.6L5.3,5.1z"/>
</svg>
