<?xml version="1.0" encoding="utf-8"?>
<!-- Generator: Adobe Illustrator 20.0.0, SVG Export Plug-In . SVG Version: 6.00 Build 0)  -->
<svg version="1.1" id="Layer_1" xmlns="http://www.w3.org/2000/svg" xmlns:xlink="http://www.w3.org/1999/xlink" x="0px" y="0px"
	 viewBox="0 0 16 16" style="enable-background:new 0 0 16 16;" xml:space="preserve">
<style type="text/css">
	.st0{fill:#404040;}
	.st1{fill:#FFFFFF;}
</style>
<path class="st0" d="M7.8,0.8C4,0.8,1,3.8,1,7.6s3.1,6.8,6.8,6.8c3.6,0,6.5-2.7,6.8-6.2c-0.3,0.1-0.5,0.1-0.8,0.1
	c-1.8,0-3.3-1.5-3.3-3.3c0-1.2,0.6-2.2,1.5-2.8C10.8,1.3,9.3,0.8,7.8,0.8L7.8,0.8z"/>
<path class="st1" d="M7.8,1.8c0.9,0,1.8,0.2,2.5,0.6C9.8,3.1,9.4,4,9.4,5c0,2.2,1.7,4.1,3.9,4.3c-0.7,2.4-3,4.2-5.6,4.2
	C4.6,13.4,2,10.8,2,7.6S4.6,1.8,7.8,1.8"/>
<g>
	<path class="st0" d="M7,3.6c-0.6,0-1.2,0.5-1.2,1.2S6.3,6.1,7,6.1s1.2-0.5,1.2-1.2S7.7,3.6,7,3.6L7,3.6z"/>
</g>
<g>
	<path class="st0" d="M4.2,6.7c-0.5,0-1,0.5-1,1s0.5,1,1,1s1-0.5,1-1S4.7,6.7,4.2,6.7L4.2,6.7z"/>
</g>
<g>
	<path class="st0" d="M7.5,7.5c-0.6,0-1,0.5-1,1c0,0.6,0.5,1,1,1s1-0.5,1-1S8.1,7.5,7.5,7.5L7.5,7.5z"/>
</g>
<g>
	<path class="st0" d="M10.5,9.3c-0.4,0-0.8,0.3-0.8,0.8s0.3,0.8,0.8,0.8s0.8-0.3,0.8-0.8S10.9,9.3,10.5,9.3L10.5,9.3z"/>
</g>
<g>
	<path class="st0" d="M5.8,10.2C5.3,10.2,5,10.6,5,11c0,0.5,0.4,0.8,0.8,0.8s0.8-0.4,0.8-0.8C6.6,10.6,6.2,10.2,5.8,10.2L5.8,10.2z"
		/>
</g>
</svg>
