<?xml version="1.0" encoding="utf-8"?>
<!-- Generator: Adobe Illustrator 20.0.0, SVG Export Plug-In . SVG Version: 6.00 Build 0)  -->
<svg version="1.1" id="Layer_1" xmlns="http://www.w3.org/2000/svg" xmlns:xlink="http://www.w3.org/1999/xlink" x="0px" y="0px"
	 viewBox="0 0 16 16" style="enable-background:new 0 0 16 16;" xml:space="preserve">
<style type="text/css">
	.st0{fill:#909090;}
	.st1{fill:none;stroke:#404040;stroke-miterlimit:10;}
	.st2{fill:#909090;stroke:#404040;stroke-miterlimit:10;}
	.st3{fill:#FFFFFF;}
	.st4{fill:#404040;}
	.st5{fill:none;}
	.st6{fill:#FF6F6F;}
	.st7{fill:#3FA9F5;}
	.st8{fill:#4FBC78;}
	.st9{fill:none;stroke:#CECECE;stroke-miterlimit:10;}
</style>
<path class="st0" d="M13.1,4.1V12c0,0-0.3,2.1-5,2.2C5.2,14.3,3,13.1,3,11.8v0.1V4.5"/>
<path class="st1" d="M13.1,4.1V12c0,0-0.3,2.1-5,2.2C5.2,14.3,3,13.1,3,11.8v0.1V4.5"/>
<path class="st2" d="M8,1.6c2.8,0,5.1,1.1,5.1,2.5S10.8,6.6,8,6.6S2.9,5.4,2.9,4.1S5.2,1.6,8,1.6z"/>
<g>
	<rect x="6.5" y="4.5" class="st3" width="7" height="4"/>
	<path class="st4" d="M13,5v3H7V5H13 M14,4H6v5h8V4L14,4z"/>
</g>
<title>local</title>
<rect class="st5" width="16" height="16"/>
<line class="st5" x1="3.4" y1="7.4" x2="3.4" y2="9"/>
<g>
	<rect x="4.5" y="6.5" class="st6" width="7" height="4"/>
	<path class="st4" d="M11,7v3H5V7H11 M12,6H4v5h8V6L12,6z"/>
</g>
<g>
	<rect x="3.5" y="8.5" class="st3" width="7" height="4"/>
	<path class="st4" d="M10,9v3H4V9H10 M11,8H3v5h8V8L11,8z"/>
</g>
<g>
	<rect x="7" y="7" class="st3" width="4" height="1"/>
</g>
<g>
	<rect x="4.5" y="9.5" class="st6" width="1" height="2"/>
	<path class="st7" d="M5,10v1V10 M6,9H4v3h2V9L6,9z"/>
</g>
<g>
	<rect x="7" y="5" class="st6" width="2" height="1"/>
	<polygon class="st8" points="9,5 7,5 7,6 9,6 	"/>
</g>
<g>
	<line class="st9" x1="6.9" y1="10.5" x2="9" y2="10.5"/>
</g>
</svg>
