<?xml version="1.0" encoding="utf-8"?>
<!-- Generator: Adobe Illustrator 20.0.0, SVG Export Plug-In . SVG Version: 6.00 Build 0)  -->
<svg version="1.1" id="Layer_1" xmlns="http://www.w3.org/2000/svg" xmlns:xlink="http://www.w3.org/1999/xlink" x="0px" y="0px"
	 viewBox="0 0 16 16" style="enable-background:new 0 0 16 16;" xml:space="preserve">
<style type="text/css">
	.st0{fill:#909090;}
	.st1{fill:none;}
	.st2{fill:none;stroke:#404040;stroke-miterlimit:10;}
	.st3{fill:#909090;stroke:#404040;stroke-miterlimit:10;}
	.st4{fill:#404040;}
</style>
<path class="st0" d="M12.9,4.8l0.1,7.5c0,0-0.3,2.1-5,2.2C5.2,14.6,3,13.4,3,12.1v0.1V4.8c0,0,1.3,2,5.3,1.9
	C11,6.7,12.7,5.1,12.9,4.8z"/>
<title>local</title>
<rect class="st1" width="16" height="16"/>
<path class="st2" d="M13.1,4.1V12c0,0-0.3,2.1-5,2.2C5.2,14.3,3,13.1,3,11.8v0.1V4.5"/>
<path class="st3" d="M8,1.6c2.8,0,5.1,1.1,5.1,2.5S10.8,6.6,8,6.6S2.9,5.4,2.9,4.1S5.2,1.6,8,1.6z"/>
<path class="st4" d="M3.1,6.8c0,0.9,2.2,1.8,4.7,1.8c2.7,0,4.8-0.9,4.8-1.7v1c0.1,0.9-1.6,1.7-4.8,1.7C5.9,9.6,4,9.1,3,8.4"/>
<path class="st4" d="M3.3,9c0,0.9,2.2,1.9,4.7,1.9c2.7,0,4.8-0.9,4.8-1.8v1c0.1,0.9-1.6,1.8-4.8,1.8c-1.9,0-3.8-0.5-4.8-1.3"/>
<line class="st1" x1="3.4" y1="7.4" x2="3.4" y2="9"/>
</svg>
