<?xml version="1.0" encoding="utf-8"?>
<!-- Generator: Adobe Illustrator 20.0.0, SVG Export Plug-In . SVG Version: 6.00 Build 0)  -->
<svg version="1.1" id="Layer_1" xmlns="http://www.w3.org/2000/svg" xmlns:xlink="http://www.w3.org/1999/xlink" x="0px" y="0px"
	 viewBox="0 0 64 48" style="enable-background:new 0 0 64 48;" xml:space="preserve">
<style type="text/css">
	.st0{fill:#FFFFFF;}
	.st1{fill:#D8D8D8;}
	.st2{fill:#808080;}
	.st3{fill:#909090;}
	.st4{fill:#404040;}
	.st5{fill:#0C61EA;}
</style>
<rect x="1" y="1.3" class="st0" width="61.9" height="45.2"/>
<g>
	<rect x="2" y="35" class="st1" width="28" height="11.1"/>
</g>
<g>
	<path class="st2" d="M30.9,1.1v21.6c0,0.1-0.1,0.2-0.2,0.2H1.2c-0.1,0-0.2-0.1-0.2-0.2V1.3c0-0.1,0.1-0.2,0.2-0.2L30.9,1.1
		 M31.9,0.1H0.2C0.1,0.1,0,0.2,0,0.3v23.5C0,23.9,0.1,24,0.2,24h31.5c0.1,0,0.2-0.1,0.2-0.2L31.9,0.1L31.9,0.1z"/>
</g>
<g>
	<path class="st2" d="M31,24.1V46H1V24.1H31 M32,23.1H0V47h32V23.1L32,23.1z"/>
</g>
<g>
	<rect x="31.5" y="23.6" class="st3" width="31" height="22.9"/>
	<g>
		<path class="st2" d="M62,24.1V46H32V24.1H62 M63,23.1H31V47h32V23.1L63,23.1z"/>
	</g>
</g>
<g>
	<rect x="31.5" y="0.5" class="st3" width="31" height="23"/>
	<path class="st2" d="M62,1v22H32V1H62 M63,0H31v24h32V0L63,0z"/>
</g>
<g>
	<rect x="2" y="11.1" class="st1" width="27.8" height="10.9"/>
</g>
<path class="st4" d="M20.4,12.6c0-1-0.3-1.9-0.8-2.7V7.4h-0.8v1.4c-0.6-0.6-1.3-1-2.1-1.3V5.9h-0.8v1.5c-0.3-0.1-0.5-0.1-0.8-0.1
	c-0.8,0-1.6,0.2-2.3,0.6c-0.5-0.4-1.1-0.7-1.7-0.7c-0.1,0-0.1,0-0.2,0l-0.5-1.6L9.8,5.8l0.5,1.6C9.6,7.6,9.1,8.1,8.9,8.7L7.2,8.5
	L7.1,9.1l1.7,0.3c0,0.1,0,0.2,0,0.3c0,0.9,0.5,1.7,1.2,2.1c-0.1,0.3-0.1,0.7-0.1,1c0,0.6,0.1,1.2,0.3,1.8l-1.6,0.8L9,16.1l1.6-0.8
	c0.5,1,1.5,1.9,2.7,2.3l-1.7,0.8l0.4,0.8l2.7-1.3c0.1,0,0.3,0,0.4,0c1.6,0,3-0.7,4-1.8c0,0-5-4.3-5-4.2l5.8,2.9
	C20.2,14.1,20.4,13.4,20.4,12.6z"/>
<path class="st5" d="M22.4,35.6c0-1-0.3-1.9-0.8-2.7v-2.5h-0.8v1.4c-0.6-0.6-1.3-1-2.1-1.3v-1.6h-0.8v1.5c-0.3-0.1-0.5-0.1-0.8-0.1
	c-0.8,0-1.6,0.2-2.3,0.6c-0.5-0.4-1.1-0.7-1.7-0.7c-0.1,0-0.1,0-0.2,0l-0.5-1.6l-0.6,0.2l0.5,1.6c-0.7,0.2-1.2,0.7-1.4,1.3l-1.7-0.2
	l-0.1,0.6l1.7,0.3c0,0.1,0,0.2,0,0.3c0,0.9,0.5,1.7,1.2,2.1c-0.1,0.3-0.1,0.7-0.1,1c0,0.6,0.1,1.2,0.3,1.8l-1.6,0.8l0.4,0.7l1.6-0.8
	c0.5,1,1.5,1.9,2.7,2.3l-1.7,0.8l0.4,0.8l2.7-1.3c0.1,0,0.3,0,0.4,0c1.6,0,3-0.7,4-1.8c0,0-5-4.3-5-4.2l5.8,2.9
	C22.2,37.1,22.4,36.4,22.4,35.6z"/>
<path class="st5" d="M53.4,35.6c0-1-0.3-1.9-0.8-2.7v-2.5h-0.8v1.4c-0.6-0.6-1.3-1-2.1-1.3v-1.6h-0.8v1.5c-0.3-0.1-0.5-0.1-0.8-0.1
	c-0.8,0-1.6,0.2-2.3,0.6c-0.5-0.4-1.1-0.7-1.7-0.7c-0.1,0-0.1,0-0.2,0l-0.5-1.6l-0.6,0.2l0.5,1.6c-0.7,0.2-1.2,0.7-1.4,1.3l-1.7-0.2
	l-0.1,0.6l1.7,0.3c0,0.1,0,0.2,0,0.3c0,0.9,0.5,1.7,1.2,2.1c-0.1,0.3-0.1,0.7-0.1,1c0,0.6,0.1,1.2,0.3,1.8l-1.6,0.8l0.4,0.7l1.6-0.8
	c0.5,1,1.5,1.9,2.7,2.3l-1.7,0.8l0.4,0.8l2.7-1.3c0.1,0,0.3,0,0.4,0c1.6,0,3-0.7,4-1.8c0,0-5-4.3-5-4.2l5.8,2.9
	C53.2,37.1,53.4,36.4,53.4,35.6z"/>
<path class="st4" d="M53.4,12.6c0-1-0.3-1.9-0.8-2.7V7.4h-0.8v1.4c-0.6-0.6-1.3-1-2.1-1.3V5.9h-0.8v1.5c-0.3-0.1-0.5-0.1-0.8-0.1
	c-0.8,0-1.6,0.2-2.3,0.6c-0.5-0.4-1.1-0.7-1.7-0.7c-0.1,0-0.1,0-0.2,0l-0.5-1.6l-0.6,0.2l0.5,1.6c-0.7,0.2-1.2,0.7-1.4,1.3l-1.7-0.2
	l-0.1,0.6l1.7,0.3c0,0.1,0,0.2,0,0.3c0,0.9,0.5,1.7,1.2,2.1c-0.1,0.3-0.1,0.7-0.1,1c0,0.6,0.1,1.2,0.3,1.8l-1.6,0.8l0.4,0.7l1.6-0.8
	c0.5,1,1.5,1.9,2.7,2.3l-1.7,0.8l0.4,0.8l2.7-1.3c0.1,0,0.3,0,0.4,0c1.6,0,3-0.7,4-1.8c0,0-5-4.3-5-4.2l5.8,2.9
	C53.2,14.1,53.4,13.4,53.4,12.6z"/>
</svg>
