<?xml version="1.0" encoding="utf-8"?>
<!-- Generator: Adobe Illustrator 20.0.0, SVG Export Plug-In . SVG Version: 6.00 Build 0)  -->
<svg version="1.1" id="Layer_1" xmlns="http://www.w3.org/2000/svg" xmlns:xlink="http://www.w3.org/1999/xlink" x="0px" y="0px"
	 viewBox="0 0 64 48" style="enable-background:new 0 0 64 48;" xml:space="preserve">
<style type="text/css">
	.st0{fill:#FFFFFF;}
	.st1{fill:#D8D8D8;}
	.st2{fill:#808080;}
	.st3{fill:#909090;}
	.st4{fill:#404040;}
</style>
<rect x="1" y="1.3" class="st0" width="61.9" height="45.2"/>
<g>
	<rect x="2" y="36.5" class="st1" width="28" height="9"/>
</g>
<g>
	<path class="st2" d="M30.9,1.1v21.6c0,0.1-0.1,0.2-0.2,0.2H1.2c-0.1,0-0.2-0.1-0.2-0.2V1.3c0-0.1,0.1-0.2,0.2-0.2L30.9,1.1
		 M31.9,0.1H0.2C0.1,0.1,0,0.2,0,0.3v23.5C0,23.9,0.1,24,0.2,24h31.5c0.1,0,0.2-0.1,0.2-0.2L31.9,0.1L31.9,0.1z"/>
</g>
<g>
	<path class="st2" d="M31,24.1V46H1V24.1H31 M32,23.1H0V47h32V23.1L32,23.1z"/>
</g>
<g>
	<rect x="31.5" y="23.6" class="st3" width="31" height="22.9"/>
	<g>
		<path class="st2" d="M62,24.1V46H32V24.1H62 M63,23.1H31V47h32V23.1L63,23.1z"/>
	</g>
</g>
<g>
	<rect x="31.5" y="0.5" class="st3" width="31" height="23"/>
	<path class="st2" d="M62,1v22H32V1H62 M63,0H31v24h32V0L63,0z"/>
</g>
<g>
	<polygon class="st1" points="2,11.5 29,11.5 29,21.5 2,22 	"/>
</g>
<g>
	<path class="st4" d="M22,7.5v5h-8v-5H22 M24,5.5H12v9h12V5.5L24,5.5z"/>
</g>
<g>
	<path class="st4" d="M54,7.5v5h-8v-5H54 M56,5.5H44v9h12V5.5L56,5.5z"/>
</g>
<g>
	<polygon class="st4" points="11,8.5 9,8.5 9,15.5 9,17.5 11,17.5 21,17.5 21,15.5 11,15.5 	"/>
</g>
<g>
	<polygon class="st4" points="43,8.5 41,8.5 41,15.5 41,17.5 43,17.5 53,17.5 53,15.5 43,15.5 	"/>
</g>
<g>
	<path class="st4" d="M9,29.5v7v2v3h15v-3v-2v-7H9z M11,36.5v-5h11v5H11z"/>
</g>
<g>
	<path class="st4" d="M41,29.5v7v2v3h15v-3v-2v-7H41z M43,36.5v-5h11v5H43z"/>
</g>
</svg>
