<?xml version="1.0" encoding="utf-8"?>
<!-- Generator: Adobe Illustrator 20.0.0, SVG Export Plug-In . SVG Version: 6.00 Build 0)  -->
<svg version="1.1" id="Layer_2_1_" xmlns="http://www.w3.org/2000/svg" xmlns:xlink="http://www.w3.org/1999/xlink" x="0px" y="0px"
	 viewBox="0 0 52 52" style="enable-background:new 0 0 52 52;" xml:space="preserve">
<style type="text/css">
	.st0{fill:#CDCDCD;}
</style>
<g>
	<path class="st0" d="M23.9,14.3V2.4c-4.7,0.4-9.1,2.2-12.6,5l8.4,8.4C21,15,22.5,14.6,23.9,14.3z"/>
	<path class="st0" d="M40.5,7.4c-3.4-2.6-7.3-4.3-11.7-4.8v11.9c1.2,0.3,2.2,0.7,3.2,1.3L40.5,7.4z"/>
	<path class="st0" d="M37.3,22h12c-0.7-4.3-2.6-8.2-5.3-11.4L35.7,19C36.4,20,36.8,21,37.3,22z"/>
	<path class="st0" d="M14.7,22c0.3-1,0.9-2.1,1.5-2.9l-8.4-8.2c-2.6,3.2-4.4,7-5.1,11.3h12C14.7,22.2,14.7,22,14.7,22z"/>
	<path class="st0" d="M37.9,27c-0.1,1.9-0.7,3.7-1.8,5.3l8.4,8.4c3.1-3.8,4.8-8.5,5.1-13.6H37.9z"/>
	<path class="st0" d="M14.1,27H2.4c0.1,5.1,2.1,9.8,5,13.6l8.4-8.4C14.9,30.5,14.3,28.8,14.1,27z"/>
	<path class="st0" d="M28.9,37.6v11.9c4.7-0.6,8.8-2.5,12.3-5.3l-8.4-8.4C31.6,36.6,30.3,37.3,28.9,37.6z"/>
	<path class="st0" d="M10.8,44c3.7,3.1,8.2,5.1,13.2,5.6V37.7c-1.8-0.3-3.5-1-5-2.1L10.8,44z"/>
</g>
</svg>
