<?xml version="1.0" encoding="utf-8"?>
<!-- Generator: Adobe Illustrator 20.0.0, SVG Export Plug-In . SVG Version: 6.00 Build 0)  -->
<svg version="1.1" xmlns="http://www.w3.org/2000/svg" xmlns:xlink="http://www.w3.org/1999/xlink" x="0px" y="0px"
	 viewBox="0 0 32 32" style="enable-background:new 0 0 32 32;" xml:space="preserve">
<style type="text/css">
	.st0{fill:#4FBC78;}
	.st1{fill:#FFFFFF;stroke:#FFFFFF;stroke-miterlimit:10;}
	.st2{fill:#F7A808;}
	.st3{fill:#FFFFFF;}
	.st4{fill:none;stroke:#FFFFFF;stroke-width:1.0138;stroke-miterlimit:10;}
</style>
<g id="Layer_3">
	<g>
		<polygon class="st0" points="29.1,25.6 3,25.5 3,2.5 29,2.5 		"/>
	</g>
</g>
<g id="Layer_2">
	<g>
		<path class="st1" d="M7.3,13l6.6-2.8v1.2l-5.3,2.2l5.3,2.2V17l-6.6-2.8V13z"/>
	</g>
	<g>
		<path class="st1" d="M22.9,14.2L16.3,17v-1.2l5.3-2.2l-5.3-2.2v-1.2l6.6,2.8V14.2z"/>
	</g>
	<g>
		<rect x="16" y="16.5" class="st2" width="14" height="13"/>
	</g>
	<g>
		<g>
			<path class="st3" d="M17.9,22.5l5.1-2.2v0.9L18.9,23l4.1,1.7v0.9l-5.1-2.2V22.5z"/>
		</g>
		<g>
			<path class="st3" d="M29,23.5l-5.1,2.2v-0.9L28,23l-4.1-1.7v-0.9l5.1,2.2V23.5z"/>
		</g>
	</g>
	<circle class="st3" cx="20" cy="4.2" r="1.8"/>
	<polyline class="st4" points="26.5,15 26.5,4 20.4,4 	"/>
	<circle class="st3" cx="26.8" cy="15.7" r="1.8"/>
</g>
</svg>
