<?xml version="1.0" encoding="utf-8"?>
<!-- Generator: Adobe Illustrator 20.0.0, SVG Export Plug-In . SVG Version: 6.00 Build 0)  -->
<svg version="1.1" id="Layer_1" xmlns="http://www.w3.org/2000/svg" xmlns:xlink="http://www.w3.org/1999/xlink" x="0px" y="0px"
	 viewBox="0 0 16 16" style="enable-background:new 0 0 16 16;" xml:space="preserve">
<style type="text/css">
	.st0{fill:none;stroke:#3FA9F5;stroke-miterlimit:10;}
	.st1{fill:#3FA9F5;}
</style>
<path class="st0" d="M13.9,8.3c0,3.4-2.8,6.2-6.3,6.2s-6.3-2.8-6.3-6.2s2.8-6.2,6.3-6.2S13.9,4.9,13.9,8.3z"/>
<path class="st1" d="M6.7,11.1h1.4v1.6H6.7V11.1z M5.9,4.8c0.4-0.3,0.8-0.4,1.4-0.4C8,4.4,8.6,4.6,9.1,5s0.7,1,0.7,1.8
	c0,0.5-0.1,0.9-0.3,1.2C9.3,8.2,9.1,8.5,8.8,8.8L8.4,9.1C8.3,9.3,8.1,9.5,8.1,9.7C8,9.8,8,10,8,10.3H6.7c0-0.6,0.1-1.1,0.1-1.3
	C7,8.8,7.2,8.5,7.5,8.2l0.3-0.3C8,7.8,8.1,7.7,8.1,7.6c0.1-0.2,0.2-0.4,0.2-0.7c0-0.3-0.1-0.5-0.2-0.8C8,5.9,7.7,5.8,7.4,5.8
	C7,5.8,6.7,5.9,6.6,6.2C6.4,6.5,6.4,6.8,6.4,7.1H5C5,6,5.3,5.3,5.9,4.8"/>
</svg>
