<?xml version="1.0" encoding="utf-8"?>
<!-- Generator: Adobe Illustrator 20.0.0, SVG Export Plug-In . SVG Version: 6.00 Build 0)  -->
<svg version="1.1" id="Layer_2" xmlns="http://www.w3.org/2000/svg" xmlns:xlink="http://www.w3.org/1999/xlink" x="0px" y="0px"
	 viewBox="0 0 16 16" style="enable-background:new 0 0 16 16;" xml:space="preserve">
<style type="text/css">
	.st0{fill:#3FA9F5;}
</style>
<g>
	<path class="st0" d="M8,3c2.8,0,5,2.3,5,5s-2.3,5-5,5s-5-2.3-5-5S5.2,3,8,3 M8,1C4.2,1,1,4.2,1,8s3.2,7,7,7s7-3.2,7-7S11.8,1,8,1
		L8,1z"/>
</g>
<polygon class="st0" points="8,8 8,5.1 7,5.1 7,8 7,9 8,9 10,9 10,8 "/>
</svg>
