<?xml version="1.0" encoding="utf-8"?>
<!-- Generator: Adobe Illustrator 20.0.0, SVG Export Plug-In . SVG Version: 6.00 Build 0)  -->
<svg version="1.1" id="Layer_2" xmlns="http://www.w3.org/2000/svg" xmlns:xlink="http://www.w3.org/1999/xlink" x="0px" y="0px"
	 viewBox="0 0 32 32" style="enable-background:new 0 0 32 32;" xml:space="preserve">
<style type="text/css">
	.st0{fill:#3FA9F5;}
</style>
<g>
	<path class="st0" d="M28,5v23H4V5H28z M30,3H2v27h28V3z"/>
</g>
<path class="st0" d="M7.5,15.1c0,3.4,2.8,6.2,6.2,6.2c0.9,0,1.7-0.3,2.5-0.5l1.4,1.6l1.4-0.5l0.1,2l1.8-0.1L21,26h4v-4
	c-0.4-0.4-5.2-4.6-5.2-4.6c0-0.1,0.5-1.6,0.1-3.3c-0.4-3-2.9-5.4-6-5.4C10.3,9,7.5,11.7,7.5,15.1z M14.3,14.5c0,1.2-0.9,1.8-1.8,1.8
	s-2-0.8-2-1.8s0.9-1.8,1.8-1.8C13.2,12.6,14.3,13.4,14.3,14.5z"/>
</svg>
