<?xml version="1.0" encoding="utf-8"?>
<!-- Generator: Adobe Illustrator 20.0.0, SVG Export Plug-In . SVG Version: 6.00 Build 0)  -->
<svg version="1.1" id="Layer_1" xmlns="http://www.w3.org/2000/svg" xmlns:xlink="http://www.w3.org/1999/xlink" x="0px" y="0px"
	 viewBox="0 0 32 32" style="enable-background:new 0 0 32 32;" xml:space="preserve">
<style type="text/css">
	.st0{fill:#3FA9F5;}
</style>
<path class="st0" d="M21.3,17.9c-0.3,0.4-0.8,0.7-1.3,0.7c-1,0-1.7-0.8-1.7-1.7c0-1,0.8-1.7,1.7-1.7c0.5,0,1.1,0.3,1.4,0.8l1.5,0
	l0-4.8l-6,0l-0.1-1c0.5-0.4,0.8-0.9,0.8-1.5c0-0.8-0.6-1.6-1.5-1.6c-1-0.1-1.8,0.4-1.8,1.4c0,0.5,0.1,1.3,0.6,1.7l0.1,1h-5l0,5
	l-0.7,0C9,15.8,8.6,15.4,8,15.4c-1,0-1.7,0.8-1.7,1.7S7,18.9,8,18.9c0.7,0,1.3-0.4,1.5-0.9l0.4,0l0,5.9l5.9,0l0.1-1.2
	c-0.4-0.3-0.8-0.3-0.8-1.4c0-1.1,0.7-1.6,1.6-1.6c1,0,1.7,0.8,1.7,1.7c0,0.5-0.3,1.1-0.8,1.4l-0.1,1l5.2,0l0-6L21.3,17.9z"/>
<g>
	<path class="st0" d="M28,5v23L4,28L3.9,5L28,5z M29.8,3.2L2.1,3.1V30L30,30L29.8,3.2z"/>
</g>
</svg>
