<?xml version="1.0" encoding="utf-8"?>
<!-- Generator: Adobe Illustrator 20.0.0, SVG Export Plug-In . SVG Version: 6.00 Build 0)  -->
<svg version="1.1" id="Layer_1" xmlns="http://www.w3.org/2000/svg" xmlns:xlink="http://www.w3.org/1999/xlink" x="0px" y="0px"
	 viewBox="0 0 64 48" style="enable-background:new 0 0 64 48;" xml:space="preserve">
<style type="text/css">
	.st0{fill:#D8D8D8;}
	.st1{fill:#808080;}
	.st2{fill:#909090;}
	.st3{fill:#3FA9F5;}
	.st4{fill:#0562D1;}
	.st5{fill:#404040;}
</style>
<g id="Layer_1_1_">
	<g>
		<rect x="2" y="36" class="st0" width="28" height="9"/>
	</g>
	<g>
		<path class="st1" d="M31,1c0,0,0.1,22,0,22L1.2,22.9c-0.1,0-0.2-0.1-0.2-0.2V1C1,0.9,31,1,31,1 M31.9,0.1H0.2C0.1,0.1,0,0.2,0,0.3
			v23.5C0,23.9,0.1,24,0.2,24h31.5c0.1,0,0.2-0.1,0.2-0.2L31.9,0.1L31.9,0.1z"/>
	</g>
	<g>
		<path class="st1" d="M31,24v22H1V24.1h30 M32,23.1H1c-0.5,0-1,0.4-1,1V47h32V23.1L32,23.1z"/>
	</g>
	<g>
		<rect x="31.5" y="23.6" class="st2" width="31" height="22.9"/>
		<g>
			<path class="st1" d="M62,24.1V46H32V24.1H62 M63,23.1H31V47h32V23.1L63,23.1z"/>
		</g>
	</g>
	<g>
		<rect x="31.5" y="0.5" class="st2" width="31" height="23"/>
		<path class="st1" d="M62,1v22H32V1H62 M63,0H31v24h32V0L63,0z"/>
	</g>
	<g>
		<polygon class="st0" points="2,12 29,12 29,21 2,21 		"/>
	</g>
</g>
<g id="Layer_3">
	<rect x="9" y="7" class="st1" width="4" height="4"/>
	<rect x="15" y="7" class="st1" width="7" height="2"/>
	<rect x="15" y="10" class="st1" width="7" height="1"/>
	<rect x="15" y="13" class="st1" width="7" height="2"/>
	<rect x="15" y="16" class="st1" width="7" height="1"/>
	<rect x="9" y="13" class="st1" width="4" height="4"/>
	<rect x="9" y="31" class="st3" width="4" height="4"/>
	<rect x="15" y="31" class="st3" width="7" height="2"/>
	<rect x="15" y="34" class="st3" width="7" height="1"/>
	<rect x="15" y="37" class="st3" width="7" height="2"/>
	<rect x="15" y="40" class="st3" width="7" height="1"/>
	<rect x="9" y="37" class="st3" width="4" height="4"/>
	<rect x="41" y="31" class="st4" width="4" height="4"/>
	<rect x="47" y="31" class="st4" width="7" height="2"/>
	<rect x="47" y="34" class="st4" width="7" height="1"/>
	<rect x="47" y="37" class="st4" width="7" height="2"/>
	<rect x="47" y="40" class="st4" width="7" height="1"/>
	<rect x="41" y="37" class="st4" width="4" height="4"/>
	<rect x="41" y="7" class="st5" width="4" height="4"/>
	<rect x="46" y="7" class="st5" width="9" height="2"/>
	<rect x="46" y="10" class="st5" width="9" height="1"/>
	<rect x="46" y="13" class="st5" width="9" height="2"/>
	<rect x="46" y="16" class="st5" width="9" height="1"/>
	<rect x="41" y="13" class="st5" width="4" height="4"/>
</g>
</svg>
