<?xml version="1.0" encoding="utf-8"?>
<!-- Generator: Adobe Illustrator 20.0.0, SVG Export Plug-In . SVG Version: 6.00 Build 0)  -->
<svg version="1.1" id="Layer_1" xmlns="http://www.w3.org/2000/svg" xmlns:xlink="http://www.w3.org/1999/xlink" x="0px" y="0px"
	 viewBox="0 0 24 21" style="enable-background:new 0 0 24 21;" xml:space="preserve">
<style type="text/css">
	.st0{fill:#F7A808;}
</style>
<path class="st0" d="M17.5,9.4c0,0-0.1-7.1-5.4-7.1S6.9,9.4,6.9,9.4H17.5z M9.2,7c0-2.2,2-3,3-3s2.8,0.8,3,3H9.2z"/>
<path class="st0" d="M4,7v11.9h16V7H4z M13.3,14.9h-2.5l0.8-2.3c-0.5-0.2-0.9-0.6-0.9-1.2c0-0.7,0.6-1.3,1.3-1.3s1.3,0.6,1.3,1.3
	c0,0.6-0.4,1-0.9,1.2L13.3,14.9z"/>
</svg>
