<?xml version="1.0" encoding="utf-8"?>
<!-- Generator: Adobe Illustrator 20.0.0, SVG Export Plug-In . SVG Version: 6.00 Build 0)  -->
<svg version="1.1" id="Layer_1" xmlns="http://www.w3.org/2000/svg" xmlns:xlink="http://www.w3.org/1999/xlink" x="0px" y="0px"
	 viewBox="0 0 29 19" style="enable-background:new 0 0 29 19;" xml:space="preserve">
<style type="text/css">
	.st0{fill:#3FA9F5;}
</style>
<path class="st0" d="M20.2,7.6c0.2,0,7,0,7,0l-3.3,3.9L20.2,7.6z"/>
<g>
	<path id="SVGID_1_" class="st0" d="M15.2,5.8c-0.1,0-2.1,3.7-4.3,1.3c-2.1-2.2,1.5-3.9,1.6-4.2c-0.8-0.3-1.6-0.3-2.3-0.2
		c-4,1.1-2.9,4.9-2.9,5.1c0,0-6.1,5.3-6.4,5.7c-0.1,0.2-0.3,0.4-0.3,0.6C0.2,15.8,2,17,3.4,16.2c0.5-0.3,6.3-5.8,6.3-5.9
		c1.8,1.3,5.7,0.3,5.8-3.5C15.4,6.9,15.4,5.8,15.2,5.8z"/>
</g>
</svg>
