<?xml version="1.0" encoding="utf-8"?>
<!-- Generator: Adobe Illustrator 20.0.0, SVG Export Plug-In . SVG Version: 6.00 Build 0)  -->
<svg version="1.1" id="Layer_2" xmlns="http://www.w3.org/2000/svg" xmlns:xlink="http://www.w3.org/1999/xlink" x="0px" y="0px"
	 viewBox="0 0 28 19" style="enable-background:new 0 0 28 19;" xml:space="preserve">
<style type="text/css">
	.st0{fill:#3FA9F5;}
</style>
<path class="st0" d="M0.9,7.6c0.2,0,7,0,7,0l-3.3,3.9L0.9,7.6z"/>
<g>
	<path id="SVGID_1_" class="st0" d="M26.5,5.2c-0.1,0-2.1,3.7-4.3,1.3c-2.1-2.2,1.5-3.9,1.6-4.2C23,2,22.2,2,21.5,2.1
		c-4,1.1-2.9,4.9-2.9,5.1c0,0-6.1,5.3-6.4,5.7c-0.1,0.2-0.3,0.4-0.3,0.6c-0.4,1.7,1.4,2.9,2.8,2.1c0.5-0.3,6.3-5.8,6.3-5.9
		c1.8,1.3,5.7,0.3,5.8-3.5C26.7,6.3,26.7,5.2,26.5,5.2z"/>
</g>
</svg>
