<?xml version="1.0" encoding="utf-8"?>
<!-- Generator: Adobe Illustrator 20.0.0, SVG Export Plug-In . SVG Version: 6.00 Build 0)  -->
<svg version="1.1" id="Layer_1" xmlns="http://www.w3.org/2000/svg" xmlns:xlink="http://www.w3.org/1999/xlink" x="0px" y="0px"
	 viewBox="0 0 26 18" style="enable-background:new 0 0 26 18;" xml:space="preserve">
<style type="text/css">
	.st0{fill:#909090;}
	.st1{fill:#606060;}
</style>
<g>
	<path class="st0" d="M24.9,1V16H3.6C2.2,16,1,14.8,1,13.4V1H24.9 M25.9,0H0v13.4C0,15.4,1.6,17,3.6,17h22.3V0L25.9,0z"/>
</g>
<g>
	<path class="st1" d="M17.7,9.1c0.1,0,0.3,0.1,0.3,0.3v2.4c0,0.1-0.1,0.3-0.3,0.3H8.3c-0.1,0-0.3-0.1-0.3-0.3V9.3
		c0-0.1,0.1-0.3,0.3-0.3H17.7 M17.7,8H8.3C7.6,8,7,8.6,7,9.3v2.4C7,12.4,7.6,13,8.3,13h9.4c0.7,0,1.3-0.6,1.3-1.3V9.3
		C19,8.6,18.4,8,17.7,8L17.7,8z"/>
</g>
</svg>
