<?xml version="1.0" encoding="utf-8"?>
<!-- Generator: Adobe Illustrator 20.0.0, SVG Export Plug-In . SVG Version: 6.00 Build 0)  -->
<svg version="1.1" xmlns="http://www.w3.org/2000/svg" xmlns:xlink="http://www.w3.org/1999/xlink" x="0px" y="0px"
	 viewBox="0 0 16 16" style="enable-background:new 0 0 16 16;" xml:space="preserve">
<style type="text/css">
	.st0{fill:#3FA9F5;}
</style>
<g id="Layer_1">
</g>
<g id="Layer_2">
	<g>
		<path class="st0" d="M14.9,1l0,14H1L1,1H14.9 M15.9,0H0.1L0,16h16L15.9,0L15.9,0z"/>
	</g>
	<g>
		<path class="st0" d="M2,2v12h12V2H2z M9,13H7v-2h2V13z M10.5,7.2c-0.2,0.2-0.5,0.6-0.9,1L9.2,8.5C9,8.8,8.8,9,8.8,9.3
			C8.7,9.4,8.7,9.6,8.7,10H7.1c0-0.7,0.1-1.3,0.1-1.6c0.2-0.2,0.5-0.6,0.9-1l0.4-0.4c0.2-0.1,0.4-0.2,0.4-0.4C8.9,6.4,9,6.2,9,5.8
			c0-0.4-0.1-0.6-0.2-1C8.7,4.6,8.3,4.5,7.9,4.5C7.4,4.5,7.1,4.6,7,5C6.7,5.3,6.7,5.7,6.7,6.1H5c0-1.3,0.4-2.2,1.1-2.8
			c0.5-0.4,1-0.5,1.7-0.5C8.7,2.8,9.4,3,10,3.5c0.6,0.5,0.9,1.2,0.9,2.2C10.9,6.3,10.8,6.8,10.5,7.2z"/>
	</g>
</g>
<g id="Layer_3">
</g>
</svg>
