<?xml version="1.0" encoding="utf-8"?>
<!-- Generator: Adobe Illustrator 20.0.0, SVG Export Plug-In . SVG Version: 6.00 Build 0)  -->
<svg version="1.1" id="Layer_2" xmlns="http://www.w3.org/2000/svg" xmlns:xlink="http://www.w3.org/1999/xlink" x="0px" y="0px"
	 viewBox="0 0 31 29" style="enable-background:new 0 0 31 29;" xml:space="preserve">
<style type="text/css">
	.st0{fill:#909090;}
	.st1{fill:none;stroke:#FFFFFF;stroke-width:3;stroke-miterlimit:10;}
	.st2{fill:none;stroke:#909090;stroke-width:0.7368;stroke-miterlimit:10;}
	.st3{fill:#86C7EF;}
</style>
<g>
	<path class="st0" d="M29.5,2v25h-28V2H29.5 M30.5,1h-30v27h30V1L30.5,1z"/>
</g>
<circle class="st1" cx="-21.5" cy="-7" r="0"/>
<path class="st2" d="M22.5,16"/>
<path class="st3" d="M15.6,21.3c-3.7,0-6.8-3-6.8-6.8s3-6.8,6.8-6.8c1.7,0,3.2,0.6,4.5,1.7l-2,2l6.1,0.9l-0.7-6.2l-1.7,1.7
	c-1.7-1.5-3.8-2.4-6.1-2.4c-5,0-9,4-9,9s4,9,9,9c4.2,0,7.9-3,8.8-7.1L22.2,16C21.5,19,18.8,21.3,15.6,21.3z"/>
</svg>
