<?xml version="1.0" encoding="utf-8"?>
<!-- Generator: Adobe Illustrator 20.0.0, SVG Export Plug-In . SVG Version: 6.00 Build 0)  -->
<svg version="1.1" id="Layer_1" xmlns="http://www.w3.org/2000/svg" xmlns:xlink="http://www.w3.org/1999/xlink" x="0px" y="0px"
	 viewBox="0 0 16 16" style="enable-background:new 0 0 16 16;" xml:space="preserve">
<style type="text/css">
	.st0{fill:#404040;}
</style>
<g>
	<path class="st0" d="M13,1.5v13H3v-13H13 M14,0.5H2v15h12V0.5L14,0.5z"/>
</g>
<g>
	<polygon class="st0" points="6,3.5 4,3.5 4,4.5 6,4.5 6,3.5 	"/>
</g>
<g>
	<polygon class="st0" points="12,3.5 7,3.5 7,4.5 12,4.5 12,3.5 	"/>
</g>
<g>
	<polygon class="st0" points="8,5.5 4,5.5 4,6.5 8,6.5 8,5.5 	"/>
</g>
<g>
	<polygon class="st0" points="12,5.5 9,5.5 9,6.5 12,6.5 12,5.5 	"/>
</g>
<g>
	<polygon class="st0" points="6,7.5 4,7.5 4,8.5 6,8.5 6,7.5 	"/>
</g>
<g>
	<polygon class="st0" points="12,7.5 7,7.5 7,8.5 12,8.5 12,7.5 	"/>
</g>
<g>
	<polygon class="st0" points="9,9.5 4,9.5 4,10.5 9,10.5 9,9.5 	"/>
</g>
<g>
	<polygon class="st0" points="12,9.5 10,9.5 10,10.5 12,10.5 12,9.5 	"/>
</g>
<g>
	<polygon class="st0" points="7,11.5 4,11.5 4,12.5 7,12.5 7,11.5 	"/>
</g>
<g>
	<polygon class="st0" points="9,11.5 8,11.5 8,12.5 9,12.5 9,11.5 	"/>
</g>
</svg>
