<?xml version="1.0" encoding="utf-8"?>
<!-- Generator: Adobe Illustrator 20.0.0, SVG Export Plug-In . SVG Version: 6.00 Build 0)  -->
<svg version="1.1" id="Layer_1" xmlns="http://www.w3.org/2000/svg" xmlns:xlink="http://www.w3.org/1999/xlink" x="0px" y="0px"
	 viewBox="0 0 32 32" style="enable-background:new 0 0 32 32;" xml:space="preserve">
<style type="text/css">
	.st0{fill:#404040;}
</style>
<g>
	<path class="st0" d="M16,5.3c6,0,10.9,4.8,10.9,10.7S22,26.7,16,26.7S5.1,21.9,5.1,16S10,5.3,16,5.3 M16,3.3C8.9,3.3,3.1,9,3.1,16
		S8.9,28.7,16,28.7S28.9,23,28.9,16S23.1,3.3,16,3.3L16,3.3z"/>
</g>
<g>
	<polygon class="st0" points="13,13.5 12,13.5 13,13.5 	"/>
</g>
<g>
	<polygon class="st0" points="20.7,14.6 19.9,13.4 14.9,17 11.9,14.8 11.3,15.7 15.1,18.6 	"/>
</g>
<rect x="15" y="6.5" class="st0" width="2" height="2"/>
<rect x="15" y="23.5" class="st0" width="2" height="2"/>
<rect x="23" y="15.5" class="st0" width="2" height="2"/>
<rect x="6" y="15.5" class="st0" width="2" height="2"/>
</svg>
