<?xml version="1.0" encoding="utf-8"?>
<!-- Generator: Adobe Illustrator 20.0.0, SVG Export Plug-In . SVG Version: 6.00 Build 0)  -->
<svg version="1.1" id="Layer_1" xmlns="http://www.w3.org/2000/svg" xmlns:xlink="http://www.w3.org/1999/xlink" x="0px" y="0px"
	 viewBox="0 0 32 32" style="enable-background:new 0 0 32 32;" xml:space="preserve">
<style type="text/css">
	.st0{fill:#FFFFFF;}
	.st1{fill:#404040;}
</style>
<g>
	<rect x="20.5" y="13" class="st0" width="5" height="2"/>
	<path class="st1" d="M25,13.5v1.1H21v-1.1H25 M26,12.5h-6v3h6V12.5L26,12.5z"/>
</g>
<g>
	<polygon class="st0" points="20.5,29 20.5,15 24.5,15 24.5,16.9 27.5,17.9 27.5,29 	"/>
	<path class="st1" d="M24,15.5l0,1l0,0.7l0.7,0.2l2.3,0.7v10.3h-6v-13H24 M25,14.5h-5v15h8v-12l-3-1L25,14.5L25,14.5z"/>
</g>
<rect x="8" y="1.5" class="st1" width="12" height="3"/>
<rect x="10" y="4.5" class="st1" width="8" height="1"/>
<polygon class="st1" points="18,5.5 18,7.6 21,9.7 21,29.5 7,29.5 7,15.9 7,9.7 10,7.6 10,5.5 "/>
<g>
	<rect x="5" y="18.5" class="st0" width="3" height="1"/>
	<polygon class="st1" points="8,18.5 5,18.5 5,19.5 8,19.5 8,18.5 	"/>
</g>
<g>
	<polygon class="st0" points="4.5,29 4.5,20.7 5.5,19.7 5.5,18 9.5,18 9.5,19.7 10.5,20.7 10.5,29 	"/>
	<path class="st1" d="M9,18.5v1v0.4l0.3,0.3l0.7,0.7v7.6H5v-7.6l0.7-0.7L6,19.9v-0.4v-1H9 M10,17.5H5v2l-1,1v9h7v-9l-1-1V17.5
		L10,17.5z"/>
</g>
<g>
	<rect x="4.5" y="16" class="st0" width="6.3" height="2.4"/>
	<path class="st1" d="M10.3,16.5v1.4H5v-1.4H10.3 M11.3,15.5H4V19h7.3V15.5L11.3,15.5z"/>
</g>
</svg>
