<?xml version="1.0" encoding="utf-8"?>
<!-- Generator: Adobe Illustrator 20.0.0, SVG Export Plug-In . SVG Version: 6.00 Build 0)  -->
<svg version="1.1" id="Layer_1" xmlns="http://www.w3.org/2000/svg" xmlns:xlink="http://www.w3.org/1999/xlink" x="0px" y="0px"
	 viewBox="0 0 32 32" style="enable-background:new 0 0 32 32;" xml:space="preserve">
<style type="text/css">
	.st0{fill:#404040;}
	.st1{fill:#3FA9F5;}
	.st2{fill:#FFFFFF;}
</style>
<rect x="18" y="12.5" class="st0" width="3" height="1"/>
<g>
	<polygon class="st0" points="11,4.5 7,4.5 7,5.5 11,5.5 11,4.5 	"/>
</g>
<g>
	<polygon class="st0" points="19,4.5 12,4.5 12,5.5 19,5.5 19,4.5 	"/>
</g>
<g>
	<polygon class="st0" points="23,4.5 20,4.5 20,5.5 23,5.5 23,4.5 	"/>
</g>
<g>
	<polygon class="st0" points="15,6.5 7,6.5 7,7.5 15,7.5 15,6.5 	"/>
</g>
<g>
	<polygon class="st0" points="20,6.5 16,6.5 16,7.5 20,7.5 20,6.5 	"/>
</g>
<g>
	<polygon class="st0" points="9,8.5 7,8.5 7,9.5 9,9.5 9,8.5 	"/>
</g>
<g>
	<polygon class="st0" points="13,8.5 10,8.5 10,9.5 13,9.5 13,8.5 	"/>
</g>
<g>
	<polygon class="st0" points="17,8.5 14,8.5 14,9.5 17,9.5 17,8.5 	"/>
</g>
<g>
	<polygon class="st1" points="16,10.5 7,10.5 16,10.5 	"/>
</g>
<g>
	<rect x="17.5" y="9" class="st2" width="12" height="15"/>
	<path class="st0" d="M29,9.5v14H18v-14H29 M30,8.5H17v16h13V8.5L30,8.5z"/>
</g>
<rect x="21.4" y="12.5" class="st0" width="6.6" height="1"/>
<rect x="18" y="14.5" class="st0" width="10" height="1"/>
<rect x="18" y="16.5" class="st0" width="10" height="1"/>
<rect x="18" y="18.5" class="st0" width="7" height="1"/>
<g>
	<rect x="7" y="10.5" class="st2" width="9" height="1"/>
	<polygon class="st0" points="16,10.5 7,10.5 7,11.5 16,11.5 16,10.5 	"/>
</g>
<g>
	<path class="st0" d="M29,2.5v26H4v-26H29 M30,1.5H3v28h27V1.5L30,1.5z"/>
</g>
<g>
	<rect x="2.3" y="14.6" transform="matrix(0.9645 -0.264 0.264 0.9645 -4.4889 3.9169)" class="st2" width="20" height="8.1"/>
	<path class="st0" d="M20.6,12.7l1.9,6.8l-18.3,5l-1.9-6.8L20.6,12.7 M21.3,11.5L1,17l2.4,8.8l20.3-5.5L21.3,11.5L21.3,11.5z"/>
</g>
<g>
	<polygon class="st1" points="20.4,18.4 5.1,22.8 4.1,18.7 19.5,14.6 	"/>
</g>
</svg>
