<?xml version="1.0" encoding="utf-8"?>
<!-- Generator: Adobe Illustrator 20.0.0, SVG Export Plug-In . SVG Version: 6.00 Build 0)  -->
<svg version="1.1" id="Layer_1" xmlns="http://www.w3.org/2000/svg" xmlns:xlink="http://www.w3.org/1999/xlink" x="0px" y="0px"
	 viewBox="0 0 32 32" style="enable-background:new 0 0 32 32;" xml:space="preserve">
<style type="text/css">
	.st0{fill:#3FA9F5;}
	.st1{fill:#404040;}
	.st2{display:none;}
	.st3{display:inline;fill:none;stroke:#FFFFFF;stroke-miterlimit:10;}
	.st4{display:inline;fill:#404040;}
	.st5{display:inline;}
	.st6{fill:#4FBC78;}
</style>
<path class="st0" d="M15,11.5c-1,0-8,3-8,3v3l8,3v-2l-5-2v-1l5-2V11.5z"/>
<path class="st0" d="M17,11.5c1,0,8,3,8,3v3l-8,3v-2l5-2v-1l-5-2V11.5z"/>
<rect x="7" y="4.5" class="st1" width="4" height="1"/>
<rect x="12" y="4.5" class="st1" width="7" height="1"/>
<rect x="20" y="4.5" class="st1" width="6" height="1"/>
<rect x="10" y="8.5" class="st1" width="3" height="1"/>
<rect x="7" y="6.5" class="st1" width="8" height="1"/>
<rect x="16" y="6.5" class="st1" width="7" height="1"/>
<rect x="7" y="8.5" class="st1" width="2" height="1"/>
<rect x="14" y="8.5" class="st1" width="9" height="1"/>
<rect x="7" y="22.5" class="st1" width="4" height="1"/>
<rect x="12" y="22.5" class="st1" width="7" height="1"/>
<rect x="20" y="22.5" class="st1" width="5" height="1"/>
<rect x="7" y="24.5" class="st1" width="8" height="1"/>
<rect x="16" y="24.5" class="st1" width="9" height="1"/>
<g>
	<path class="st1" d="M27,2.5v25H5v-25H27 M28,1.5H4v27h24V1.5L28,1.5z"/>
</g>
<g id="Layer_2" class="st2">
	<rect x="4" y="1.5" class="st3" width="24" height="27"/>
	<rect x="19" y="7.5" class="st4" width="7" height="1"/>
	<rect x="13" y="5.5" class="st4" width="9" height="1"/>
	<rect x="7" y="5.5" class="st4" width="5" height="1"/>
	<rect x="9" y="7.5" class="st4" width="6.9" height="1"/>
	<rect x="13" y="10.5" class="st4" width="7.9" height="1"/>
	<rect x="8.2" y="10.5" class="st4" width="1.8" height="0.8"/>
	<rect x="7.1" y="23.5" class="st4" width="3.9" height="1"/>
	<rect x="13.1" y="23.5" class="st4" width="7.9" height="1"/>
	<rect x="8.2" y="26.5" class="st4" width="7.8" height="1"/>
	<rect x="17" y="26.5" class="st4" width="9" height="1"/>
	<g class="st5">
		<path class="st6" d="M7.9,15c0.5-0.5,1.2-0.8,2-0.8c1.1,0,1.8,0.4,2.3,1.1c0.3,0.4,0.4,0.8,0.4,1.2h-1.3c-0.1-0.3-0.2-0.5-0.3-0.7
			c-0.2-0.3-0.6-0.4-1.1-0.4S9.1,15.6,8.8,16s-0.4,0.9-0.4,1.7s0.1,1.2,0.4,1.6s0.7,0.5,1.1,0.5c0.5,0,0.8-0.2,1-0.5
			c0.1-0.2,0.2-0.4,0.3-0.7h1.3c-0.1,0.7-0.4,1.3-0.9,1.7c-0.5,0.4-1.1,0.7-1.8,0.7c-0.9,0-1.6-0.3-2.1-0.9C7.3,19.4,7,18.6,7,17.6
			C7,16.4,7.3,15.6,7.9,15z"/>
		<path class="st6" d="M14.6,18.7c0,0.3,0.1,0.5,0.2,0.7c0.2,0.3,0.6,0.4,1.1,0.4c0.3,0,0.6,0,0.8-0.1c0.4-0.1,0.6-0.4,0.6-0.7
			c0-0.2-0.1-0.4-0.3-0.5c-0.2-0.1-0.5-0.2-0.9-0.3L15.5,18c-0.7-0.1-1.1-0.3-1.4-0.5c-0.4-0.3-0.6-0.8-0.6-1.4s0.2-1,0.6-1.4
			c0.4-0.4,1-0.6,1.8-0.6c0.7,0,1.3,0.2,1.7,0.5c0.5,0.4,0.7,0.9,0.8,1.5h-1.3c0-0.4-0.2-0.7-0.5-0.8c-0.2-0.1-0.5-0.2-0.8-0.2
			c-0.4,0-0.6,0.1-0.8,0.2c-0.2,0.1-0.3,0.3-0.3,0.6c0,0.2,0.1,0.4,0.3,0.5c0.1,0.1,0.4,0.2,0.8,0.3l1.1,0.3
			c0.5,0.1,0.9,0.3,1.1,0.5c0.4,0.3,0.6,0.7,0.6,1.3c0,0.6-0.2,1.1-0.7,1.4c-0.4,0.4-1.1,0.6-1.9,0.6c-0.8,0-1.5-0.2-2-0.6
			s-0.7-0.9-0.7-1.6h1.3V18.7z"/>
		<path class="st6" d="M20.5,18.7c0,0.3,0.1,0.5,0.2,0.7c0.2,0.3,0.6,0.4,1.1,0.4c0.3,0,0.6,0,0.8-0.1c0.4-0.1,0.6-0.4,0.6-0.7
			c0-0.2-0.1-0.4-0.3-0.5c-0.2-0.1-0.5-0.2-0.9-0.3L21.4,18c-0.7-0.1-1.1-0.3-1.4-0.5c-0.4-0.3-0.6-0.8-0.6-1.4s0.2-1,0.6-1.4
			s1-0.6,1.8-0.6c0.7,0,1.3,0.2,1.7,0.5s0.7,0.9,0.8,1.5H23c0-0.4-0.2-0.7-0.5-0.8c-0.2-0.1-0.5-0.2-0.8-0.2c-0.4,0-0.6,0.1-0.8,0.2
			c-0.2,0.1-0.3,0.3-0.3,0.6c0,0.2,0.1,0.4,0.3,0.5c0.1,0.1,0.4,0.2,0.8,0.3l1.1,0.3c0.5,0.1,0.9,0.3,1.1,0.5
			c0.4,0.3,0.6,0.7,0.6,1.3c0,0.6-0.2,1.1-0.7,1.4c-0.4,0.4-1.1,0.6-1.9,0.6s-1.5-0.2-2-0.6s-0.7-0.9-0.7-1.6h1.3V18.7z"/>
	</g>
	<g class="st5">
		<path class="st1" d="M27,2.5v27H5v-27H27 M28,1.5H4v29h24V1.5L28,1.5z"/>
	</g>
</g>
</svg>
