<?xml version="1.0" encoding="utf-8"?>
<!-- Generator: Adobe Illustrator 20.0.0, SVG Export Plug-In . SVG Version: 6.00 Build 0)  -->
<svg version="1.1" id="Layer_01" xmlns="http://www.w3.org/2000/svg" xmlns:xlink="http://www.w3.org/1999/xlink" x="0px" y="0px"
	 viewBox="0 0 24 27" style="enable-background:new 0 0 24 27;" xml:space="preserve">
<style type="text/css">
	.st0{fill:#4FBC78;}
	.st1{fill:#404040;}
</style>
<path class="st0" d="M6,11.8c-0.1-0.3-0.4-0.4-0.8-0.4c-0.2,0-0.4,0.1-0.5,0.2c-0.1,0.1-0.2,0.3-0.3,0.6c-0.1,0.3-0.1,0.6-0.2,1
	c0,0.4,0,0.9,0,1.5c0,0.6,0,1.2,0.1,1.6s0.1,0.7,0.2,0.9c0.1,0.2,0.2,0.4,0.3,0.4c0.1,0.1,0.3,0.1,0.5,0.1c0.2,0,0.3,0,0.4-0.1
	c0.1-0.1,0.2-0.2,0.3-0.3s0.2-0.4,0.2-0.7c0.1-0.3,0.1-0.7,0.1-1.1H8c0,0.5,0,0.9-0.1,1.3c-0.1,0.4-0.2,0.8-0.4,1.1
	c-0.2,0.3-0.5,0.6-0.8,0.7C6.3,18.9,5.8,19,5.3,19c-0.6,0-1.2-0.1-1.5-0.3c-0.4-0.2-0.7-0.5-0.9-0.9c-0.2-0.4-0.3-0.9-0.4-1.4
	c-0.1-0.5-0.1-1.1-0.1-1.8c0-0.6,0-1.2,0.1-1.8c0.1-0.5,0.2-1,0.4-1.4C3,11,3.3,10.7,3.7,10.5c0.4-0.2,0.9-0.3,1.5-0.3
	c0.6,0,1.1,0.1,1.5,0.3c0.4,0.2,0.6,0.5,0.8,0.8c0.2,0.3,0.3,0.6,0.3,1c0,0.4,0.1,0.7,0.1,1H6.2C6.2,12.6,6.1,12.1,6,11.8z"/>
<path class="st0" d="M10.9,16.5c0,0.2,0,0.4,0,0.5c0,0.2,0.1,0.3,0.2,0.4c0.1,0.1,0.2,0.2,0.4,0.3c0.1,0.1,0.3,0.1,0.6,0.1
	c0.3,0,0.5-0.1,0.7-0.3c0.2-0.2,0.3-0.4,0.3-0.8c0-0.2,0-0.4-0.1-0.5c-0.1-0.1-0.1-0.3-0.3-0.4s-0.3-0.2-0.5-0.3
	c-0.2-0.1-0.4-0.2-0.7-0.3c-0.4-0.1-0.7-0.3-1-0.4c-0.3-0.2-0.5-0.3-0.7-0.5c-0.2-0.2-0.3-0.4-0.4-0.7c-0.1-0.3-0.1-0.6-0.1-0.9
	c0-0.8,0.2-1.5,0.7-1.9c0.5-0.4,1.1-0.6,1.9-0.6c0.4,0,0.7,0,1.1,0.1s0.6,0.2,0.8,0.4c0.2,0.2,0.4,0.4,0.6,0.7s0.2,0.6,0.2,1v0.2
	h-1.7c0-0.4-0.1-0.7-0.2-0.9c-0.1-0.2-0.4-0.3-0.7-0.3c-0.2,0-0.4,0-0.5,0.1c-0.1,0.1-0.2,0.1-0.3,0.2c-0.1,0.1-0.1,0.2-0.2,0.3
	c0,0.1,0,0.2,0,0.4c0,0.3,0.1,0.5,0.2,0.7c0.1,0.2,0.4,0.3,0.7,0.5l1.3,0.6c0.3,0.1,0.6,0.3,0.8,0.5c0.2,0.2,0.4,0.3,0.5,0.5
	c0.1,0.2,0.2,0.4,0.3,0.6c0,0.2,0.1,0.5,0.1,0.7c0,0.9-0.3,1.6-0.8,2c-0.5,0.4-1.3,0.6-2.2,0.6c-1,0-1.7-0.2-2.1-0.6s-0.6-1-0.6-1.8
	v-0.3h1.7V16.5z"/>
<path class="st0" d="M17.7,16.4c0,0.2,0,0.4,0,0.5s0.1,0.3,0.2,0.4s0.2,0.2,0.4,0.3c0.1,0.1,0.3,0.1,0.6,0.1c0.3,0,0.5-0.1,0.7-0.3
	c0.2-0.2,0.3-0.4,0.3-0.8c0-0.2,0-0.4-0.1-0.5c-0.1-0.1-0.1-0.3-0.3-0.4s-0.3-0.2-0.5-0.3c-0.2-0.1-0.4-0.2-0.7-0.3
	c-0.4-0.1-0.7-0.3-1-0.4s-0.5-0.3-0.7-0.5c-0.2-0.2-0.3-0.4-0.4-0.7c-0.1-0.3-0.1-0.6-0.1-0.9c0-0.8,0.2-1.5,0.7-1.9
	s1.1-0.6,1.9-0.6c0.4,0,0.7,0,1.1,0.1c0.3,0.1,0.6,0.2,0.8,0.4c0.2,0.2,0.4,0.4,0.6,0.7s0.2,0.6,0.2,1v0.2h-1.7
	c0-0.4-0.1-0.7-0.2-0.9c-0.1-0.2-0.4-0.3-0.7-0.3c-0.2,0-0.4,0-0.5,0.1s-0.2,0.1-0.3,0.2c-0.1,0.1-0.1,0.2-0.2,0.3
	c0,0.1,0,0.2,0,0.4c0,0.3,0.1,0.5,0.2,0.7c0.1,0.2,0.4,0.3,0.7,0.5l1.3,0.6c0.3,0.1,0.6,0.3,0.8,0.5c0.2,0.2,0.4,0.3,0.5,0.5
	c0.1,0.2,0.2,0.4,0.3,0.6c0,0.2,0.1,0.5,0.1,0.7c0,0.9-0.3,1.6-0.8,2c-0.5,0.4-1.3,0.6-2.2,0.6c-1,0-1.7-0.2-2.1-0.6
	c-0.4-0.4-0.6-1-0.6-1.8v-0.3h1.7V16.4z"/>
<rect x="3" y="3" class="st1" width="4" height="1"/>
<rect x="8" y="3" class="st1" width="7" height="1"/>
<rect x="16" y="3" class="st1" width="6" height="1"/>
<rect x="6" y="7" class="st1" width="3" height="1"/>
<rect x="3" y="5" class="st1" width="8" height="1"/>
<rect x="12" y="5" class="st1" width="7" height="1"/>
<rect x="3" y="7" class="st1" width="2" height="1"/>
<rect x="10" y="7" class="st1" width="9" height="1"/>
<rect x="3" y="21" class="st1" width="4" height="1"/>
<rect x="8" y="21" class="st1" width="7" height="1"/>
<rect x="16" y="21" class="st1" width="5" height="1"/>
<rect x="3" y="23" class="st1" width="8" height="1"/>
<rect x="12" y="23" class="st1" width="9" height="1"/>
<g>
	<path class="st1" d="M23,1v25H1V1H23 M24,0H0v27h24V0L24,0z"/>
</g>
</svg>
