<?xml version="1.0" encoding="utf-8"?>
<!-- Generator: Adobe Illustrator 20.0.0, SVG Export Plug-In . SVG Version: 6.00 Build 0)  -->
<svg version="1.1" id="Layer_01" xmlns="http://www.w3.org/2000/svg" xmlns:xlink="http://www.w3.org/1999/xlink" x="0px" y="0px"
	 viewBox="0 0 24 27" style="enable-background:new 0 0 24 27;" xml:space="preserve">
<style type="text/css">
	.st0{fill:#404040;}
	.st1{fill:#F7A808;}
</style>
<rect x="3" y="3" class="st0" width="4" height="1"/>
<rect x="8" y="3" class="st0" width="7" height="1"/>
<rect x="16" y="3" class="st0" width="6" height="1"/>
<rect x="6" y="7" class="st0" width="3" height="1"/>
<rect x="3" y="5" class="st0" width="8" height="1"/>
<rect x="12" y="5" class="st0" width="7" height="1"/>
<rect x="3" y="7" class="st0" width="2" height="1"/>
<rect x="10" y="7" class="st0" width="9" height="1"/>
<rect x="3" y="21" class="st0" width="4" height="1"/>
<rect x="8" y="21" class="st0" width="7" height="1"/>
<rect x="16" y="21" class="st0" width="5" height="1"/>
<rect x="3" y="23" class="st0" width="8" height="1"/>
<rect x="12" y="23" class="st0" width="9" height="1"/>
<g>
	<path class="st0" d="M23,1v25H1V1H23 M24,0H0v27h24V0L24,0z"/>
</g>
<g>
	<path class="st1" d="M9.9,16.8c-0.1,0.3-0.2,0.6-0.4,0.9C9.3,18,9,18.2,8.6,18.4c-0.4,0.2-0.9,0.3-1.5,0.3c-0.4,0-0.7,0-1-0.1
		s-0.6-0.3-0.9-0.5s-0.5-0.5-0.6-0.8c-0.2-0.3-0.2-0.7-0.2-1.2v-0.7H6v0.4c0,0.2,0,0.4,0,0.6c0,0.2,0.1,0.3,0.2,0.4
		C6.3,16.9,6.4,17,6.5,17c0.1,0.1,0.3,0.1,0.5,0.1c0.2,0,0.4,0,0.6-0.1c0.1-0.1,0.2-0.2,0.3-0.3C8,16.5,8,16.4,8,16.2
		c0-0.2,0-0.3,0-0.5V10H10v5.9C10,16.1,9.9,16.4,9.9,16.8z"/>
	<path class="st1" d="M13,16.4c0.1,0.2,0.2,0.4,0.4,0.5c0.2,0.1,0.4,0.2,0.6,0.3c0.2,0.1,0.5,0.1,0.7,0.1c0.2,0,0.3,0,0.5,0
		c0.2,0,0.4-0.1,0.5-0.2c0.2-0.1,0.3-0.2,0.4-0.3c0.1-0.1,0.2-0.3,0.2-0.5c0-0.2-0.1-0.4-0.2-0.6c-0.1-0.1-0.3-0.3-0.6-0.4
		c-0.2-0.1-0.5-0.2-0.8-0.3c-0.3-0.1-0.6-0.2-0.9-0.2c-0.3-0.1-0.6-0.2-0.9-0.3c-0.3-0.1-0.6-0.3-0.8-0.4c-0.2-0.2-0.4-0.4-0.6-0.7
		c-0.1-0.3-0.2-0.6-0.2-1c0-0.4,0.1-0.8,0.3-1.1c0.2-0.3,0.4-0.6,0.7-0.8c0.3-0.2,0.6-0.4,1-0.5c0.4-0.1,0.8-0.2,1.2-0.2
		c0.4,0,0.9,0,1.3,0.1c0.4,0.1,0.8,0.3,1.1,0.5c0.3,0.2,0.6,0.5,0.8,0.9c0.2,0.3,0.3,0.8,0.3,1.3h-1.8c0-0.3-0.1-0.5-0.2-0.6
		c-0.1-0.2-0.2-0.3-0.4-0.4c-0.2-0.1-0.3-0.2-0.5-0.2c-0.2,0-0.4-0.1-0.6-0.1c-0.2,0-0.3,0-0.5,0c-0.2,0-0.3,0.1-0.4,0.2
		c-0.1,0.1-0.2,0.2-0.3,0.3s-0.1,0.3-0.1,0.5c0,0.2,0,0.3,0.1,0.4c0.1,0.1,0.2,0.2,0.4,0.3c0.2,0.1,0.4,0.2,0.8,0.3s0.8,0.2,1.3,0.3
		c0.2,0,0.4,0.1,0.7,0.2c0.3,0.1,0.6,0.2,0.8,0.4c0.3,0.2,0.5,0.4,0.7,0.7c0.2,0.3,0.3,0.7,0.3,1.2c0,0.4-0.1,0.8-0.2,1.1
		s-0.4,0.6-0.7,0.9c-0.3,0.2-0.7,0.4-1.1,0.6c-0.4,0.1-1,0.2-1.5,0.2c-0.5,0-0.9-0.1-1.4-0.2s-0.8-0.3-1.2-0.5
		c-0.3-0.2-0.6-0.6-0.8-0.9c-0.2-0.4-0.3-0.8-0.3-1.4h1.8C12.9,16,12.9,16.2,13,16.4z"/>
</g>
</svg>
