<?xml version="1.0" encoding="utf-8"?>
<!-- Generator: Adobe Illustrator 20.0.0, SVG Export Plug-In . SVG Version: 6.00 Build 0)  -->
<svg version="1.1" id="Layer_1" xmlns="http://www.w3.org/2000/svg" xmlns:xlink="http://www.w3.org/1999/xlink" x="0px" y="0px"
	 viewBox="0 0 25 18" style="enable-background:new 0 0 25 18;" xml:space="preserve">
<style type="text/css">
	.st0{fill:#404040;}
	.st1{fill:#FCFCFC;}
	.st2{fill:#AAAAAA;}
</style>
<g>
	<path class="st0" d="M17.5,2.5v8h-2h-6v-6v-2H17.5 M18.5,1.5h-10v3v7h7h3V1.5L18.5,1.5z"/>
</g>
<g>
	<path class="st0" d="M11.5,8.5v2h-2v-2H11.5 M12.5,7.5h-4v4h4V7.5L12.5,7.5z"/>
</g>
<g>
	<rect x="6" y="5" class="st1" width="9" height="9"/>
	<path class="st0" d="M14.5,5.5v8h-8v-8H14.5 M15.5,4.5h-10v10h10V4.5L15.5,4.5z"/>
</g>
<g>
	<path class="st0" d="M11.5,8.5v2h-2v-2H11.5 M12.5,7.5h-4v4h4V7.5L12.5,7.5z"/>
</g>
<g>
	<path class="st2" d="M23.5,1.5v14.1H1.5V1.5H23.5 M24.5,0.5h-24v16h24V0.5L24.5,0.5z"/>
</g>
</svg>
