<?xml version="1.0" encoding="utf-8"?>
<!-- Generator: Adobe Illustrator 20.0.0, SVG Export Plug-In . SVG Version: 6.00 Build 0)  -->
<svg version="1.1" id="Layer_1" xmlns="http://www.w3.org/2000/svg" xmlns:xlink="http://www.w3.org/1999/xlink" x="0px" y="0px"
	 viewBox="0 0 32 32" style="enable-background:new 0 0 32 32;" xml:space="preserve">
<style type="text/css">
	.st0{fill:none;stroke:#FF6F6F;stroke-width:0.9918;stroke-miterlimit:10;}
	.st1{fill:#404040;}
	.st2{fill:#FF6F6F;}
</style>
<path class="st0" d="M-19-13.5"/>
<path class="st1" d="M24,1C23.5,1,4,1,3,1v29h25V5.5L24,1z M4,29V2h18v5h5v22H4z"/>
<path class="st2" d="M20.7,27.2c1,0,1.9-0.4,2.7-0.9l2.5-0.1v-0.8h-1.4c0.6-0.6,1-1.3,1.2-2.1l1.6-0.1v-0.8l-1.5,0.1
	c0.1-0.3,0.1-0.5,0.1-0.8c0-0.8-0.3-1.6-0.7-2.3c0.4-0.5,0.7-1.1,0.6-1.7c0-0.1,0-0.1,0-0.2l1.6-0.6l-0.2-0.6l-1.6,0.6
	c-0.2-0.7-0.7-1.2-1.3-1.4l0.1-1.7l-0.6-0.1l-0.3,1.8c-0.1,0-0.2,0-0.3,0c-0.9,0-1.7,0.6-2.1,1.3c-0.3-0.1-0.7-0.1-1-0.1
	c-0.6,0-1.2,0.1-1.8,0.4l-0.8-1.6l-0.7,0.4l0.9,1.6c-1,0.5-1.8,1.6-2.2,2.8l-0.9-1.7L13.8,19l1.4,2.7c0,0.1,0,0.3,0,0.4
	c0.1,1.6,0.8,3,1.9,3.9c0,0,4.1-5.1,4-5.1l-2.7,5.9C19.2,27.1,19.9,27.3,20.7,27.2z"/>
<g>
	<path class="st1" d="M15.8,11c-0.9,0-1,0.5-1,0.9c0,0.3,0,0.6,0.1,1s0.1,0.7,0.1,1c0,1.2-0.8,1.6-1.7,1.6H13v-0.7h0.2
		c0.7,0,1-0.4,1-1c0-0.3,0-0.6-0.1-0.9c0-0.3-0.1-0.6-0.1-0.9c0-0.8,0.3-1.2,0.9-1.3l0,0c-0.5-0.1-0.9-0.5-0.9-1.3
		c0-0.3,0-0.6,0.1-0.9c0-0.3,0.1-0.6,0.1-0.9c0-0.6-0.3-1-0.9-1H13V5.9h0.2c1,0,1.8,0.5,1.8,1.6c0,0.3,0,0.7-0.1,1s-0.1,0.7-0.1,1
		c0,0.4,0.1,0.9,1,0.9C15.8,10.4,15.8,11,15.8,11z"/>
</g>
<g>
	<path class="st1" d="M7,10.4c0.9,0,1-0.5,1-0.9c0-0.3,0-0.7-0.1-1s-0.1-0.7-0.1-1c0-1.1,0.7-1.6,1.8-1.6h0.2v0.7H9.6
		c-0.7,0-0.9,0.4-0.9,1c0,0.3,0,0.6,0.1,0.9c0,0.3,0.1,0.6,0.1,0.9c0,0.8-0.3,1.2-0.9,1.3l0,0c0.5,0.1,0.9,0.5,0.9,1.3
		c0,0.3,0,0.6-0.1,0.9c0,0.3-0.1,0.6-0.1,0.9c0,0.7,0.3,1,1,1h0.2v0.7H9.5c-1,0-1.7-0.4-1.7-1.6c0-0.3,0-0.7,0.1-1s0.1-0.6,0.1-1
		C8,11.5,7.9,11,7,11V10.4z"/>
</g>
<rect x="6" y="18.5" class="st1" width="7" height="1"/>
<rect x="6" y="21.5" class="st1" width="3" height="1"/>
<rect x="10" y="21.5" class="st1" width="4" height="1"/>
<rect x="6" y="24.5" class="st1" width="9" height="1"/>
<rect x="18" y="11.5" class="st1" width="5" height="1"/>
</svg>
