<?xml version="1.0" encoding="utf-8"?>
<!-- Generator: Adobe Illustrator 20.0.0, SVG Export Plug-In . SVG Version: 6.00 Build 0)  -->
<svg version="1.1" id="Layer_1" xmlns="http://www.w3.org/2000/svg" xmlns:xlink="http://www.w3.org/1999/xlink" x="0px" y="0px"
	 viewBox="0 0 64 24" style="enable-background:new 0 0 64 24;" xml:space="preserve">
<style type="text/css">
	.st0{fill:#DDD7D7;}
	.st1{fill:#CACACA;}
	.st2{fill:#FFFFFF;}
	.st3{fill:#A1A1A1;}
	.st4{fill:#7A7A7A;}
</style>
<g>
	<rect x="0.9" y="1.2" class="st0" width="30.7" height="21.8"/>
</g>
<g>
	<path class="st1" d="M31,1.2V23H1.1V1.2H31 M32,0.2H0.1V24H32V0.2L32,0.2z"/>
</g>
<g>
	<path class="st2" d="M62.9,1v21.9H33V1H62.9 M63.9,0H32v23.9h31.9V0L63.9,0z"/>
</g>
<g>
	<rect x="2.1" y="12.5" class="st1" width="27.8" height="10"/>
</g>
<rect x="31.9" y="1" class="st3" width="31.1" height="22.5"/>
<rect x="33" y="12.5" class="st4" width="30" height="9"/>
<g>
	<path class="st3" d="M63,1v22H1V1H63 M64,0H0v24h64V0L64,0z"/>
</g>
</svg>
