<?xml version="1.0" encoding="utf-8"?>
<!-- Generator: Adobe Illustrator 20.0.0, SVG Export Plug-In . SVG Version: 6.00 Build 0)  -->
<svg version="1.1" id="Layer_2" xmlns="http://www.w3.org/2000/svg" xmlns:xlink="http://www.w3.org/1999/xlink" x="0px" y="0px"
	 viewBox="0 0 53 13" style="enable-background:new 0 0 53 13;" xml:space="preserve">
<style type="text/css">
	.st0{fill:#4FBC78;}
	.st1{fill:#3F995D;}
	.st2{fill:#FFFFFF;}
</style>
<path class="st0" d="M6.5,12.4c-3.2,0-5.9-2.6-5.9-5.9s2.6-5.9,5.9-5.9h40.1c3.2,0,5.9,2.6,5.9,5.9s-2.6,5.9-5.9,5.9H6.5z"/>
<path class="st1" d="M46.6,1.1c3,0,5.4,2.4,5.4,5.4s-2.4,5.4-5.4,5.4H6.5c-3,0-5.4-2.4-5.4-5.4s2.4-5.4,5.4-5.4L46.6,1.1 M46.6,0.1
	H6.5C3,0.1,0.1,3,0.1,6.5l0,0c0,3.5,2.9,6.4,6.4,6.4h40.1c3.5,0,6.4-2.9,6.4-6.4l0,0C52.9,3,50.1,0.1,46.6,0.1L46.6,0.1z"/>
<path class="st2" d="M50.5,7c-0.2,0-0.3-0.2-0.3-0.3c0-2.2-1.8-4-4-4c-0.2,0-0.3-0.2-0.3-0.3S46,2,46.1,2c2.6,0,4.7,2.1,4.7,4.7
	C50.8,6.8,50.6,7,50.5,7z"/>
</svg>
