<?xml version="1.0" encoding="utf-8"?>
<!-- Generator: Adobe Illustrator 20.0.0, SVG Export Plug-In . SVG Version: 6.00 Build 0)  -->
<svg version="1.1" id="Layer_1" xmlns="http://www.w3.org/2000/svg" xmlns:xlink="http://www.w3.org/1999/xlink" x="0px" y="0px"
	 viewBox="0 0 209 109" style="enable-background:new 0 0 209 109;" xml:space="preserve">
<style type="text/css">
	.st0{fill:#FFFFFF;}
	.st1{fill:#BCBCBC;}
</style>
<g>
	<path class="st0" d="M38.6,101c-6,0-10.9-4.9-10.9-10.9v-8.8l-20,6.6L28,57l-0.3-42.2c0-6,4.9-10.8,10.9-10.8h152.8
		c6,0,10.9,4.9,10.9,10.9v75.4c0,6-4.9,10.9-10.9,10.9H38.6z"/>
	<path class="st1" d="M191.4,5.9c4.9,0,8.9,4,8.9,8.9v75.4c0,4.9-4,8.9-8.9,8.9H38.6c-4.9,0-8.9-4-8.9-8.9v-6v-5.5l-5.3,1.7
		l-11.9,3.9l16.8-25.7l0.7-1l0-1.2l-0.2-41.6c0-4.9,4-8.9,8.9-8.9H191.4 M191.4,1.9H38.6c-7.1,0-12.9,5.8-12.9,12.9L26,56.4L3,91.6
		l22.8-7.5v6c0,7.1,5.8,12.9,12.9,12.9h152.8c7.1,0,12.9-5.8,12.9-12.9V14.7C204.3,7.6,198.5,1.9,191.4,1.9L191.4,1.9z"/>
</g>
</svg>
