<?xml version="1.0" encoding="utf-8"?>
<!-- Generator: Adobe Illustrator 20.0.0, SVG Export Plug-In . SVG Version: 6.00 Build 0)  -->
<svg version="1.1" id="Layer_1" xmlns="http://www.w3.org/2000/svg" xmlns:xlink="http://www.w3.org/1999/xlink" x="0px" y="0px"
	 viewBox="0 0 16 16" style="enable-background:new 0 0 16 16;" xml:space="preserve">
<style type="text/css">
	.st0{fill:#707070;}
	.st1{fill:#909090;}
	.st2{fill:#F7F8F9;}
</style>
<path class="st0" d="M8,0.6c-4.4,0-7.9,2.6-7.9,5.8s3.5,5.8,7.9,5.8c0.1,0,0.1,0,0.2,0c0.6,0,1.1-0.1,1.7-0.2l3,3v-4
	C14.8,9.9,16,8.3,16,6.4C15.9,3.2,12.4,0.6,8,0.6L8,0.6z"/>
<path class="st1" d="M8,1.6c3.8,0,6.9,2.2,6.9,4.8c0,1.4-0.9,2.8-2.6,3.7l-0.5,0.3V11v1.6l-1.2-1.2L10.2,11l-0.5,0.1
	c-0.5,0.1-1,0.1-1.5,0.1H8c-3.8,0-6.9-2.2-6.9-4.8S4.2,1.6,8,1.6"/>
<path class="st2" d="M10,11.5H9.7c-0.5,0.1-1.1,0.1-1.6,0.2H7.9c-4.1,0-7.4-2.4-7.4-5.3S3.9,1.1,8,1.1s7.4,2.4,7.4,5.3
	c0,1.6-1,3.1-2.8,4.2l-0.3,0.1v3.1L10,11.5z"/>
<g>
	<polygon class="st0" points="9,3 6,3 7,8 8,8 	"/>
</g>
<g>
	<polygon class="st0" points="8,9 7,9 7,10 8,10 	"/>
</g>
</svg>
