<?xml version="1.0" encoding="utf-8"?>
<!-- Generator: Adobe Illustrator 20.0.0, SVG Export Plug-In . SVG Version: 6.00 Build 0)  -->
<svg version="1.1" xmlns="http://www.w3.org/2000/svg" xmlns:xlink="http://www.w3.org/1999/xlink" x="0px" y="0px"
	 viewBox="0 0 32 32" style="enable-background:new 0 0 32 32;" xml:space="preserve">
<style type="text/css">
	.st0{fill:#FF6F6F;}
	.st1{fill:#F7A808;}
	.st2{fill:#FFFFFF;}
</style>
<g id="Layer_2">
	<path class="st0" d="M26.6,4.2h-11l-5.4,9l5.4,9h11l5.4-9L26.6,4.2z M25.2,18.8l-3.8-3.6l-3.6,3.6l-2-1.8l3.6-3.6l-3.6-3.6L17.6,8
		l3.6,3.6L24.8,8l1.8,1.8l-3.2,3.6L27,17L25.2,18.8z"/>
</g>
<g id="Layer_3">
	<polygon class="st1" points="13.5,6.4 1.2,28 25,28 	"/>
	<rect x="11.4" y="22.9" class="st2" width="3.4" height="3.4"/>
	<polygon class="st2" points="14.1,21.2 12,21.2 11.4,17.9 11.4,14.4 14.8,14.4 14.9,17.9 	"/>
</g>
</svg>
