<?xml version="1.0" encoding="utf-8"?>
<!-- Generator: Adobe Illustrator 20.1.0, SVG Export Plug-In . SVG Version: 6.00 Build 0)  -->
<svg version="1.1" xmlns="http://www.w3.org/2000/svg" xmlns:xlink="http://www.w3.org/1999/xlink" x="0px" y="0px"
	 viewBox="0 0 246.8 86.5" style="enable-background:new 0 0 246.8 86.5;" xml:space="preserve">
<style type="text/css">
	.st0{display:none;}
	.st1{fill:#404040;}
	.st2{fill:#F9F9F9;}
	.st3{fill:#DCDCDC;}
	.st4{fill:#D8D8D8;}
	.st5{fill:#ABABAB;}
	.st6{fill:#F2F2F2;}
	.st7{fill:#E3E3E3;}
	.st8{fill:none;stroke:#71226D;stroke-width:1.0433;stroke-linejoin:round;stroke-miterlimit:10;}
	.st9{fill:none;stroke:#71226D;stroke-width:0.99;stroke-miterlimit:10;}
</style>
    
<g id="Layer_1">
	<rect x="0.7" y="0.3" class="st1" width="246" height="85.7"/>
	<rect x="0.1" y="0" class="st1" width="247.4" height="85.7"/>
	<rect x="0" y="22.1" class="st2" width="245.8" height="20.2"/>
	<rect x="2.3" y="44.8" class="st2" width="243.9" height="20.1"/>
	<rect x="0.7" y="54.5" class="st3" width="244.7" height="9.2"/>
	<g>
		<rect x="0.3" y="0.2" class="st2" width="245.2" height="20"/>
	</g>
	<g>
		<g>
			<path class="st1" d="M245.5,23.1v18.7H1V23.1H245.5 M246.5,22.1H0v20.8h246.5V22.1L246.5,22.1z"/>
		</g>
	</g>
	<rect x="0.1" y="74.8" class="st4" width="245.8" height="11.1"/>
	<rect x="0.5" y="66.6" class="st5" width="245.2" height="8.5"/>
	<rect x="1.2" y="32.9" class="st6" width="244.3" height="8.6"/>
	<rect x="0.9" y="10" class="st7" width="244.8" height="9.3"/>
	<g>
		<path class="st1" d="M245.6,67.1v18.7H1.1V67.1H245.6 M246.6,66.1H0.1v20.8h246.5V66.1L246.6,66.1z"/>
	</g>
	<g>
		<path class="st1" d="M245.6,0.8v19H1.1v-19H245.6 M246.6-0.2H0.1v21h246.5V-0.2L246.6-0.2z"/>
	</g>
	<path class="st8" d="M245.2,45.1"/>
	<g>
		<path class="st9" d="M2,45.3L245,45l-0.1,18.8L2,63.8L2,45.3z M246,45L1.2,45v19.7l244.7,0L246,45L246,45z"/>
	</g>
	<g>
		<path class="st1" d="M0.8,45.5l244.5-0.3l-0.1,19l-244.3,0L0.8,45.5z M246.3,44.5l-246.2,0v20.7l246.2,0L246.3,44.5L246.3,44.5z"
			/>
	</g>
</g>
</svg>
