<?xml version="1.0" encoding="utf-8"?>
<!-- Generator: Adobe Illustrator 20.1.0, SVG Export Plug-In . SVG Version: 6.00 Build 0)  -->
<svg version="1.1" id="Layer_1" xmlns="http://www.w3.org/2000/svg" xmlns:xlink="http://www.w3.org/1999/xlink" x="0px" y="0px"
	 viewBox="0 0 12 31" style="enable-background:new 0 0 12 31;" xml:space="preserve">
<style type="text/css">
	.st0{fill:#404040;}
	.st1{fill:#CDCDCD;}
</style>
<polygon class="st0" points="5,3.5 5,2.5 3,2.5 3,4.5 4,4.5 4,6.5 3,6.5 3,8.5 5,8.5 5,7.5 7,7.5 7,8.5 9,8.5 9,6.5 8,6.5 8,4.5 
	9,4.5 9,2.5 7,2.5 7,3.5 "/>
<polygon class="st1" points="5,19.5 5,18.5 3,18.5 3,20.5 4,20.5 4,22.5 3,22.5 3,24.5 5,24.5 5,23.5 7,23.5 7,24.5 9,24.5 9,22.5 
	8,22.5 8,20.5 9,20.5 9,18.5 7,18.5 7,19.5 "/>
</svg>
