<?xml version="1.0" encoding="utf-8"?>
<!-- Generator: Adobe Illustrator 20.1.0, SVG Export Plug-In . SVG Version: 6.00 Build 0)  -->
<svg version="1.1" id="Layer_1" xmlns="http://www.w3.org/2000/svg" xmlns:xlink="http://www.w3.org/1999/xlink" x="0px" y="0px"
	 viewBox="0 0 180 120" style="enable-background:new 0 0 180 120;" xml:space="preserve">
<style type="text/css">
	.st0{fill:#8C2AB0;}
	.st1{fill:#404040;}
	.st2{fill:#F7A808;}
	.st3{fill:#FFFFFF;}
	.st4{fill:#808080;}
	.st5{fill:#606060;}
	.st6{fill:none;stroke:#8C2AB0;stroke-width:2;stroke-miterlimit:10;}
	.st7{fill:none;stroke:#8C2AB0;stroke-miterlimit:10;}
</style>
<g>
	<polygon class="st0" points="84.7,70.4 79.2,76.1 84.6,76.1 88.4,73.1 	"/>
</g>
<polygon class="st1" points="23.6,0.3 20.3,7 27,7 "/>
<polygon class="st1" points="7,0.3 0.3,0.3 3.6,7 "/>
<polygon class="st1" points="39.9,0 39.9,7 46.9,3.6 "/>
<polygon class="st0" points="126.7,0.2 119.7,0.2 123.1,7.2 "/>
<polygon class="st1" points="139.6,7 146.6,7 143.2,0 "/>
<polygon class="st0" points="160,0.1 160,7.1 167,3.7 "/>
<polygon class="st2" points="24.7,24.5 27.1,19.9 29.2,24.6 34.3,25.5 30.5,29 31.3,34.1 26.8,31.6 22.1,33.9 23.1,28.8 19.5,25.1 
	"/>
<polygon class="st3" points="5.2,24 7.6,19.4 9.7,24.1 14.8,25 11,28.5 11.8,33.6 7.3,31.1 2.6,33.4 3.6,28.3 0,24.6 "/>
<polygon class="st1" points="40.8,29.8 40.8,21 45.6,25.4 "/>
<polygon class="st4" points="67.8,23.9 65.9,23.9 65.9,22 64,22 64,23.9 61.8,23.9 61.8,26 64,26 64,28 65.9,28 65.9,26 67.8,26 "/>
<path class="st0" d="M129.9,23.9l-4.3-0.1V20l-5.6,5.2l5.6,5.7V27v-0.1l4.2,0.1c1.1,0,2,0.9,2,2c0,1.1-0.9,2-2,2v3c2.8,0,5-2.2,5-5
	C134.9,26.1,132.6,23.9,129.9,23.9z"/>
<path class="st1" d="M149.9,23.9l-4.3-0.1V20l-5.6,5.2l5.6,5.7V27v-0.1l4.2,0.1c1.1,0,2,0.9,2,2c0,1.1-0.9,2-2,2v3c2.8,0,5-2.2,5-5
	C154.9,26.1,152.6,23.9,149.9,23.9z"/>
<path class="st5" d="M169.9,23.9l-4.3-0.1V20l-5.6,5.2l5.6,5.7V27v-0.1l4.2,0.1c1.1,0,2,0.9,2,2c0,1.1-0.9,2-2,2v3c2.8,0,5-2.2,5-5
	C174.9,26.1,172.6,23.9,169.9,23.9z"/>
<g>
	<polygon class="st0" points="49,40.9 49.1,51.6 43.1,45.9 	"/>
	<polygon class="st0" points="41.8,45.9 46,51 44,51 39.9,45.9 39.9,45.9 43.9,41 45.9,41 41.8,45.8 	"/>
	<path class="st0" d="M45.9,50"/>
	<path class="st6" d="M48.4,46.2h3.8c0,0,2.8-0.1,2.9,2.9c0,0,0.2,2.6-2.9,2.6"/>
</g>
<g>
	<polygon class="st0" points="71.9,45.9 65.9,51.6 66,40.9 	"/>
	<polygon class="st0" points="73.2,45.8 69.1,41 71.1,41 75.1,45.9 75.1,45.9 71,51 69,51 73.2,45.9 	"/>
	<path class="st0" d="M69.1,50"/>
	<path class="st6" d="M62.8,51.7c-3.1,0-2.9-2.6-2.9-2.6c0.1-3,2.9-2.9,2.9-2.9h3.8"/>
</g>
<rect x="79.9" y="45.5" class="st0" width="9.6" height="3"/>
<polygon class="st0" points="88.1,52.9 88.1,41.9 93.9,47.5 "/>
<polygon class="st0" points="106,52.4 106,41.4 100.2,47 "/>
<path class="st0" d="M114.3,47.6c0-1.7-1.3-2.8-2.5-3l0,0h-7.2v3h6.6l0.1,0.1c0,1.3,0.1,5,0.1,5l3-0.1
	C114.4,52.5,114.3,48.9,114.3,47.6z"/>
<g>
	<path class="st0" d="M147.6,42.4c3.6,0,6.5,2.9,6.5,6.5s-2.9,6.5-6.5,6.5s-6.5-2.9-6.5-6.5S144,42.4,147.6,42.4 M147.6,41.4
		c-4.1,0-7.5,3.4-7.5,7.5s3.4,7.5,7.5,7.5c4.1,0,7.5-3.4,7.5-7.5S151.7,41.4,147.6,41.4L147.6,41.4z"/>
</g>
<g>
	<path class="st0" d="M150,42.3c-0.1,0-0.2,0.1-0.3,0.1c0,0.1-0.1,0.1-0.1,0.1c-0.2,0.2-0.3,0.4-0.1,0.7c0,0.1,0,0.2-0.1,0.2
		c-0.1,0.1-0.4,0.2-0.6,0.2c-0.1,0-0.2,0-0.3,0c-0.4,0.2-0.8,0.6-0.5,1.2c0,0.1,0.2,0.3,0.4,0.3l-0.8,0.8c-0.2,0.2-0.4,0.6-0.4,1
		c-0.1,0.2-0.1,0.4-0.1,0.6c-0.1,0.2,0,0.3,0,0.5c0.2,0.5,0.6,0.8,1.1,1.1c0.2,0,0.4,0,0.5,0c0.2-0.1,0.4-0.1,0.5-0.2
		c0.1,0,0.1,0,0.1,0c0.2-0.1,0.3,0,0.3,0.1c0.3,0.5,0.5,1,0.6,1.5c0.1,0.2,0.1,0.3,0,0.5c-0.1,0.3-0.1,0.6,0,0.8
		c0.2,0.4,0.3,0.7,0.4,1.3v0.1c0,0.1,0.2,0.2,0.4,0.1c0.2,0,0.3-0.1,0.4-0.2c0.3-0.3,0.6-0.6,1-1.1c0.2-0.3,0.4-0.7,0.6-1.1
		c0.1-0.2,0.1-0.4,0.1-0.6c-0.1-0.2,0-0.4,0.1-0.6c0.2-0.3,0.3-0.5,0.5-0.7c0.2-0.2,0.2-0.5-0.1-1c-0.1-0.1-0.1-0.1-0.1-0.2l0.2-0.2
		c0.2-0.1,0.3-0.2,0.4-0.3C154,45.1,152.3,43.1,150,42.3z M149,45.2c0.3-0.2,0.3-0.3,0.5-0.5c0,0,0.1,0,0.2,0
		c0.3,0.1,0.5,0.3,0.8,0.4c0.1,0.1,0.1,0.1,0.1,0.2C150.3,45,149.6,44.9,149,45.2z M152.7,45.7c0,0.1-0.1,0.2-0.2,0.2
		c0,0-0.1,0-0.2,0c-0.3-0.1-0.5-0.1-0.8-0.1c-0.2,0.1-0.4-0.1-0.5-0.3l-0.1-0.1c0.1,0,0.3,0,0.4-0.2c0.1,0.1,0.2,0.1,0.3,0.1
		l0.6,0.1c0.1,0.1,0.1,0.1,0.2,0.1C152.5,45.6,152.7,45.6,152.7,45.7z"/>
	<path class="st0" d="M143.6,53.9c0-0.1,0-0.1,0-0.2c0.1-0.2,0.2-0.4,0.2-0.7c0.1-0.2,0.2-0.3,0.3-0.4c0.1,0,0.1,0,0.1,0
		c0.2-0.1,0.3-0.4,0.2-0.6c0-0.2,0.1-0.5,0.2-0.7c0.1-0.1,0.1-0.1,0.1-0.2c0.1-0.3,0-0.5-0.2-0.6c-0.1-0.2-0.4-0.2-0.6-0.3l-0.3-0.2
		c-0.1,0-0.2-0.1-0.2-0.2c-0.1-0.2-0.3-0.3-0.3-0.4c-0.4-0.2-0.8-0.4-1.1-0.7c-0.1-0.2-0.4-0.2-0.8-0.2c-0.1,0.1-0.2,0-0.3-0.1
		c0,0.2,0,0.2,0,0.4c0,1,0.3,1.9,0.6,2.9l0,0c0.2,0.1,0.3,0.3,0.3,0.6C142.2,52.6,142.9,53.4,143.6,53.9z"/>
	<path class="st0" d="M144.9,42.4L144.9,42.4c0,0.1,0,0.1,0,0.2c-0.1,0.1,0,0.3,0.1,0.4c0.1,0,0.2,0,0.3,0c0.1-0.1,0.3-0.2,0.3-0.3
		c0.3-0.2,0.8-0.3,1.1-0.3c0.4,0,1-0.2,1.1-0.5c-0.1,0-0.3,0-0.3,0C146.7,41.9,145.7,42,144.9,42.4z"/>
	<path class="st0" d="M141.2,46.2c0.3-0.2,0.3-0.3,0.4-0.6c0.2-0.4,0.6-0.7,1.1-0.8c0.2,0,0.3-0.1,0.3-0.2c0.1-0.1,0.1-0.2,0.1-0.3
		s0.1-0.1,0.2,0s0.3,0.2,0.4,0.1c0.2-0.1,0.3-0.2,0.3-0.4s-0.1-0.3-0.1-0.5c-0.1-0.2,0-0.2,0.1-0.4
		C142.6,43.6,141.7,44.9,141.2,46.2z"/>
	<path class="st0" d="M144.1,42.7L144.1,42.7L144.1,42.7z"/>
</g>
<g>
	<path class="st1" d="M151.8,60.4c1.6,0.3,2.7,1.2,3.3,2.7c0.5,1.5,0.2,2.9-0.8,4.2c-0.2,0.4-0.7,0.8-1,1.1l-1.4-1.3
		c0.3-0.2,1.6-1.9,1.5-2.7c-0.1-0.9-0.6-1.6-1.5-1.9s-1.8-0.1-2.5,0.6c-2.3,2.2-4.4,4.4-6.7,6.6c-0.6,0.6-0.8,1.2-0.6,1.8
		c0.1,1,0.7,1.6,1.6,1.9c0.9,0.3,1.7,0.1,2.4-0.6c0.3-0.3,0.8-0.8,1.1-1.1c0.8-0.7,1.5-1.3,2.3-2.1c0.2-0.2,0.2-0.7,0-0.9
		c-0.3-0.3-0.8-0.3-1.1,0c-0.8,0.9-1.7,1.7-2.5,2.5l-1.4-1.3c0.8-0.8,1.7-1.7,2.5-2.5c0.6-0.6,1.2-0.8,2-1c1.1,0.1,1.9,0.7,2.3,1.7
		c0.3,1.1,0.1,2-0.7,2.8c-1.1,1.1-2.3,2.2-3.4,3.4c-1,1-2.4,1.5-3.9,1.1c-2-0.3-3.5-2.1-3.4-4.3c0.1-1.1,0.5-2,1.2-2.8
		c0.5-0.4,0.8-0.8,1.2-1.2c1.2-1.2,2.6-2.6,3.9-3.8c0.5-0.4,1-1,1.5-1.5C149.6,60.2,151.6,60.4,151.8,60.4z"/>
</g>
<path class="st0" d="M166.1,60.9v9h9v-9H166.1z M174.1,68.9h-7v-7h7V68.9z"/>
<path class="st0" d="M166.1,65.9c-1,0-5,0-5,0v9h9v-5h-1v4h-7v-7h4V65.9z"/>
<polygon class="st0" points="173.1,62.9 169.1,62.9 173.1,66.9 "/>
<rect x="168.2" y="64.9" transform="matrix(0.7071 -0.7071 0.7071 0.7071 3.229 139.5654)" class="st0" width="3.7" height="1.9"/>
<rect x="3.1" y="83.9" class="st4" width="10" height="2"/>
<rect x="23.1" y="91.9" class="st0" width="10" height="2"/>
<path class="st0" d="M5.1,59.9v11h11v-11C16.1,59.9,5.1,59.9,5.1,59.9z M14.1,68.9h-7v-7h7V68.9z"/>
<path class="st0" d="M5.1,64.9c-1,0-5.1,0-5.1,0l0.1,12h11l-0.1-8H9l0.1,6h-7l-0.1-8h3.1V64.9z"/>
<polygon class="st0" points="13,63.2 9,63.2 13,67.2 "/>
<rect x="8.5" y="65.3" transform="matrix(0.7071 -0.7071 0.7071 0.7071 -43.7848 26.3257)" class="st0" width="2.8" height="1.4"/>
<g>
	<path class="st0" d="M32.1,68.9v7h-8v-7H32.1 M33.1,67.9h-10v9h10V67.9L33.1,67.9z"/>
</g>
<rect x="25.1" y="69.9" class="st0" width="2" height="1"/>
<rect x="25.1" y="71.9" class="st0" width="2" height="1"/>
<rect x="25.1" y="73.9" class="st0" width="3" height="1"/>
<rect x="28.1" y="69.9" class="st0" width="1" height="1"/>
<rect x="30.1" y="69.9" class="st0" width="1" height="1"/>
<rect x="28.1" y="72" class="st0" width="3" height="0.9"/>
<rect x="28.1" y="73.9" class="st0" width="3" height="1"/>
<polyline class="st7" points="23.3,71.3 22,71.3 21.1,69.9 21.1,64.9 22.1,63.9 34.1,63.9 35.1,64.9 35.1,69.9 34.3,71.4 33.1,71.4 
	"/>
<g>
	<path class="st0" d="M33.1,61.9v1h-9v-1H33.1z M34.1,60.9h-11v3h11V60.9z"/>
</g>
<polyline class="st7" points="97.1,67.6 92.6,72.6 88.8,73.8 84.5,69.8 86.3,65.9 93.7,59.6 "/>
<rect x="3.9" y="102.9" class="st1" width="10" height="2"/>
<rect x="22.9" y="111.2" class="st1" width="10" height="2"/>
<polygon class="st0" points="102.3,84.8 100.8,86.4 104.8,89.4 111.2,83 109.7,81.5 104.8,86.4 "/>
<polygon class="st1" points="102.3,105.2 100.8,106.7 104.8,109.7 111.2,103.3 109.7,101.9 104.8,106.7 "/>
<polygon class="st0" points="47.4,66.9 49.4,66.9 49.4,68.9 51.4,68.9 48.4,71.9 45.4,68.9 47.4,68.9 "/>
<rect x="23" y="91.6" class="st4" width="10" height="2.4"/>
<rect x="72.1" y="33.9" class="st4" width="6" height="2"/>
<polygon class="st0" points="143.2,0 140.1,6.9 147.1,6.9 "/>
<polygon class="st0" points="73.2,82.1 66.5,82.1 68.9,84.6 62.2,91.3 64,93.2 70.8,86.4 73.2,88.9 "/>
<polygon class="st0" points="81.4,93.7 88.1,93.7 85.7,91.2 92.5,84.5 90.6,82.6 83.8,89.4 81.4,87 "/>
<polygon class="st0" points="154.2,89.2 149.5,84.4 149.5,87.9 139.9,87.9 139.9,90.5 149.5,90.5 149.5,94 "/>
<polygon class="st1" points="154.9,109.3 150.1,104.6 150.1,108 140.6,108 140.6,110.6 150.1,110.6 150.1,114.1 "/>
<polygon class="st0" points="161.2,89.4 166,84.6 166,88.1 175.6,88.1 175.6,90.7 166,90.7 166,94.1 "/>
<polygon class="st4" points="132.7,83.1 126,83.1 128.4,85.5 121.7,92.3 123.5,94.1 130.3,87.3 132.7,89.8 "/>
<polygon class="st1" points="133.4,102 126.7,102 129.1,104.4 122.3,111.2 124.2,113 130.9,106.3 133.4,108.7 "/>
<polygon class="st1" points="161.8,109.6 166.5,104.9 166.5,108.3 176.1,108.3 176.1,110.9 166.5,110.9 166.5,114.4 "/>
<line class="st7" x1="86.6" y1="65.9" x2="92.8" y2="72"/>
<path class="st0" d="M8.9,42.9l-4.3-0.1V39L-1,44.2l5.6,5.7V46v-0.1L8.8,46c1.1,0,2,0.9,2,2s-0.9,2-2,2v3c2.8,0,5-2.2,5-5
	C13.9,45.1,11.6,42.9,8.9,42.9z"/>
<path class="st0" d="M22.3,42.9h5.1v-0.1V39l5.6,5.2l-5.6,5.7V46v-0.1l0,0h-5.1c-0.9,0-1.7,1.2-1.7,2.5v5.8h-3v-5.8
	C17.6,45.4,19.7,42.9,22.3,42.9z"/>
<path class="st0" d="M89.1,23.6l-4.3-0.1v-3.8l-5.6,5.2l5.6,5.7v-3.9v-0.1l4.2,0.1c1.1,0,2,0.9,2,2s-0.9,2-2,2v3c2.8,0,5-2.2,5-5
	C94.1,25.8,91.8,23.6,89.1,23.6z"/>
<path class="st1" d="M109.1,23.6l-4.3-0.1v-3.8l-5.6,5.2l5.6,5.7v-3.9v-0.1l4.2,0.1c1.1,0,2,0.9,2,2s-0.9,2-2,2v3c2.8,0,5-2.2,5-5
	C114.1,25.8,111.8,23.6,109.1,23.6z"/>
<g>
	<path class="st1" d="M45.9,83.8l2.2,2.2l2.3-2.3l1.9,1.9l-2.2,2.3l2.3,2.3l-1.9,1.9l-2.3-2.3L46,92l-2-1.9l2.2-2.2L44,85.7
		L45.9,83.8z"/>
</g>
<g>
	<path class="st1" d="M45.3,104.8l2.2,2.2l2.3-2.3l1.9,1.9l-2.3,2.3l2.3,2.3l-1.9,1.9l-2.3-2.3l-2.2,2.2l-1.9-1.9l2.2-2.2l-2.2-2.2
		L45.3,104.8z"/>
</g>
<polygon class="st1" points="67.4,0.7 60.4,0.7 63.8,7 "/>
<polygon class="st1" points="79.9,6.5 86.9,6.5 83.5,0.2 "/>
<polygon class="st1" points="100.4,-0.2 100.4,6.8 106.7,3.4 "/>
<polygon class="st0" points="105.2,67.5 105.2,69.5 107.2,69.5 107.2,71.5 110.2,68.5 107.2,65.5 107.2,67.5 "/>
<line class="st7" x1="41" y1="64.9" x2="55.1" y2="65"/>
<g>
	<path class="st0" d="M101,63.6l14,0.1l0,9.4l-14-0.1L101,63.6 M100,62.6l0,11.3L116,74l0-11.3L100,62.6L100,62.6z"/>
</g>
<g>
	<path class="st0" d="M134.6,63.7l-0.1,9.4L121.2,73l-0.1-9.3H134.6 M135.6,62.7h-15.5l0.1,11.3l15.3,0.1L135.6,62.7L135.6,62.7z"/>
</g>
<polygon class="st0" points="128.1,67.5 128.1,65.5 125.1,68.5 128.1,71.5 128.1,69.5 130.1,69.5 130.1,67.5 "/>
<g>
	<path class="st1" d="M132.8,40.7c1.6,0.3,2.7,1.2,3.3,2.7c0.5,1.5,0.2,2.9-0.8,4.2c-0.2,0.4-0.7,0.8-1,1.1l-1.4-1.3
		c0.3-0.2,0.6-0.4,0.7-0.8c0.6-0.4,0.9-1.1,0.8-1.9c-0.1-0.9-0.6-1.6-1.5-1.9s-1.8-0.1-2.5,0.6c-2.3,2.2-4.4,4.4-6.7,6.6
		c-0.6,0.6-0.8,1.2-0.6,1.8c0.1,1,0.7,1.6,1.6,1.9c0.9,0.3,1.7,0.1,2.4-0.6c0.3-0.3,0.8-0.8,1.1-1.1c0.8-0.7,1.5-1.3,2.3-2.1
		c0.2-0.2,0.2-0.7,0-0.9c-0.3-0.3-0.8-0.3-1.1,0c-0.8,0.9-1.7,1.7-2.5,2.5l-1.4-1.3c0.8-0.8,1.7-1.7,2.5-2.5c0.6-0.6,1.2-0.8,2-1
		c1.1,0.1,1.9,0.7,2.3,1.7c0.3,1.1,0.1,2-0.7,2.8c-1.1,1.1-2.3,2.2-3.4,3.4c-1,1-2.4,1.5-3.9,1.1c-2-0.3-3.5-2.1-3.4-4.3
		c0.1-1.1,0.5-2,1.2-2.8c0.5-0.4,0.8-0.8,1.2-1.2c1.2-1.2,2.6-2.6,3.9-3.8c0.5-0.4,1-1,1.5-1.5c0.9-0.9,1.9-1.3,3.3-1.3
		C132.4,40.7,132.6,40.7,132.8,40.7z"/>
</g>
<g>
	<path class="st0" d="M73.7,62l0.1,13.1l-12-0.1l-0.1-12.8L73.7,62 M74.7,61l-13.9,0.1l0.1,14.8l14,0.2L74.7,61L74.7,61z"/>
</g>
<g>
	<path class="st0" d="M53.7,62l0.1,13.1l-12-0.1l-0.1-12.8L53.7,62 M54.7,61l-13.9,0.1l0.1,14.8l14,0.2L54.7,61L54.7,61z"/>
</g>
<polygon class="st0" points="68.5,71.9 66.5,71.9 66.5,69.9 64.5,69.9 67.5,66.9 70.5,69.9 68.5,69.9 "/>
<line class="st7" x1="60.2" y1="64.9" x2="74.4" y2="65"/>
</svg>
