<?xml version="1.0" encoding="utf-8"?>
<!-- Generator: Adobe Illustrator 20.1.0, SVG Export Plug-In . SVG Version: 6.00 Build 0)  -->
<svg version="1.1" id="Layer_2" xmlns="http://www.w3.org/2000/svg" xmlns:xlink="http://www.w3.org/1999/xlink" x="0px" y="0px"
	 viewBox="0 0 80 96" style="enable-background:new 0 0 80 96;" xml:space="preserve">
<style type="text/css">
	.st0{fill:#3FA9F5;}
	.st1{fill:#FCFCFC;}
	.st2{fill:#404040;}
	.st3{fill:#CDCDCD;}
	.st4{fill:#F7A808;}
	.st5{fill:#4FBC78;}
	.st6{fill:#808080;}
	.st7{fill:#FFFFFF;}
	.st8{fill:#800080;}
	.st9{fill:none;stroke:#404040;stroke-linecap:square;stroke-miterlimit:1.4142;}
	.st10{fill:#F9F7F9;}
	.st11{fill:none;stroke:#404040;stroke-miterlimit:10;}
	
		.st12{fill:none;stroke:#404040;stroke-linecap:square;stroke-linejoin:bevel;stroke-miterlimit:10;stroke-dasharray:6.1394,6.1394;}
</style>
<rect x="35" y="3" class="st0" width="11" height="11"/>
<g>
	<polygon class="st1" points="33.5,26.7 33.5,18.5 38.8,18.5 40.5,20.2 40.5,26.7 	"/>
	<path class="st2" d="M38.6,19l0.7,0.7l0.7,0.7v5.8h-6V19H38.6 M39,18h-6v9.2h8V20l-1-1L39,18L39,18z"/>
</g>
<polygon class="st2" points="39,19 39,21 41,21 41,20 40,18 39,18 "/>
<g>
	<polygon class="st1" points="35.5,28.5 35.5,20.3 40.8,20.3 42.5,22 42.5,28.5 	"/>
	<path class="st2" d="M40.6,20.8l0.7,0.7l0.7,0.7V28h-6v-7.2H40.6 M41,19.8h-6V29h8v-7.2l-1-1L41,19.8L41,19.8z"/>
</g>
<polygon class="st2" points="41,20.8 41,22.8 43,22.8 43,21.8 42,19.8 41,19.8 "/>
<rect x="64" y="48" class="st3" width="16" height="16"/>
<path class="st4" d="M44.6,33.2l-5.2,0.6L33,41.4l5.6,4.8l6.5-7.6L44.6,33.2z M43,35.7c-0.4,0-0.7-0.3-0.7-0.7s0.3-0.7,0.7-0.7
	s0.7,0.3,0.7,0.7C43.8,35.4,43.4,35.7,43,35.7z"/>
<polygon class="st4" points="9.2,4.7 14.1,5.5 10.5,8.9 11.3,13.7 6.9,11.4 2.5,13.6 3.4,8.8 -0.1,5.3 4.8,4.6 7.1,0.2 "/>
<rect x="16.2" y="9.1" class="st5" width="2.8" height="3.9"/>
<rect x="20" y="5" class="st5" width="3" height="8"/>
<rect x="24.2" y="8.1" class="st5" width="2.7" height="4.8"/>
<rect x="28.2" y="2.1" class="st5" width="2.6" height="10.8"/>
<rect x="16.2" y="13" class="st3" width="14.8" height="1"/>
<g>
	<path class="st6" d="M11,17v10H1V17H11 M12.1,16.1h-12v12H12v-12H12.1z"/>
</g>
<g>
	<path class="st6" d="M11,29v10H1V29H11 M12.3,28.1H0.1V40h12.1L12.3,28.1L12.3,28.1z"/>
</g>
<g>
	<path class="st6" d="M11.3,47.1V57H1.1v-9.9H11.3 M12.3,46.1H0.1V58h12.1L12.3,46.1L12.3,46.1z"/>
</g>
<g>
	<polygon class="st6" points="12,28.1 24,28 24,40 12,40 	"/>
</g>
<g>
	<polygon class="st6" points="12,16.1 23.8,16.1 24,28 12,28.1 	"/>
</g>
<rect x="3" y="21" class="st6" width="6" height="2"/>
<rect x="5" y="31" class="st6" width="2" height="6"/>
<rect x="3" y="33" class="st6" width="6" height="2"/>
<polygon class="st7" points="21,33 19,33 19,31 17,31 17,33 15,33 15,35 17,35 17,37 19,37 19,35 21,35 "/>
<g>
	<rect x="12" y="46" class="st6" width="12" height="12"/>
</g>
<polygon class="st6" points="2.8,50.2 9,50.2 6,53.1 "/>
<polygon class="st7" points="20.9,50.1 15,50 17.8,52.8 "/>
<g>
	<path class="st8" d="M8,65v7H1v-7H8 M9,64H0v9h9V64L9,64z"/>
</g>
<g>
	<polygon class="st8" points="30,68 25,68 25,69 30,69 	"/>
</g>
<g>
	<polygon class="st8" points="28,66 27,66 27,71 28,71 	"/>
</g>
<path class="st9" d="M61.3,14.6"/>
<polygon class="st4" points="61.5,3.6 54.7,3.6 54.1,2.3 48.5,2.3 48.5,5.9 48.5,5.9 48.5,14.3 61.5,14.3 "/>
<rect x="49.4" y="5" class="st4" width="11.1" height="8.4"/>
<g>
	<path class="st4" d="M54.2,19l0.7,1.4h-1.5h-0.6L52.5,21l-1.7,3.6V19H54.2 M54.8,18h-5v10.9h1.4l-0.3-2.2l2.5-5.3h8.5L61.8,20h-6
		L54.8,18L54.8,18z"/>
</g>
<path class="st4" d="M50.5,28.4c0.2-1,2.6-7,2.6-7h10.4l-2.4,7H50.5z"/>
<g>
	<path class="st4" d="M52.7,51l0.7,1.4h-1.5h-0.6L51,53l-2,4.2V51H52.7 M53.3,50H48v11h2l-0.6-2.3l2.5-5.3h8.5L60.3,52h-6L53.3,50
		L53.3,50z"/>
</g>
<path class="st4" d="M48,61c0.2-1,3.6-7.6,3.6-7.6H62L60,61H48z"/>
<path class="st4" d="M62,34h-7l-0.4-1H49v3.6l0,0v8.5h13V34z M50,44l-0.1-8.2H61V44H50z"/>
<polygon class="st8" points="75,44 71,44 65,38 64,37 68,33 70,35 75,40 "/>
<g>
	<path class="st2" d="M62.1,66.9L62,74.6l-3.6,2.5v-0.7L58,75h-8l-0.1-8.1H62.1 M62.1,66H49.9c-0.6,0-0.9,0.3-0.9,0.9v8.7
		c0,0.5,0.4,0.4,1,0.4h7v3l6-4v-8.1C63,66.3,62.6,66,62.1,66L62.1,66z"/>
</g>
<rect x="52" y="69" class="st2" width="8" height="1"/>
<rect x="52" y="71" class="st2" width="5" height="1"/>
<rect x="58" y="71" class="st2" width="2" height="1"/>
<rect x="52" y="73" class="st2" width="8" height="1"/>
<g>
	<circle class="st7" cx="58.5" cy="58.3" r="3.6"/>
	<path class="st2" d="M58.5,55.1c1.8,0,3.2,1.4,3.2,3.2s-1.4,3.2-3.2,3.2s-3.2-1.4-3.2-3.2S56.8,55.1,58.5,55.1 M58.5,54.2
		c-2.3,0-4.1,1.8-4.1,4.1s1.8,4.1,4.1,4.1s4.1-1.8,4.1-4.1S60.8,54.2,58.5,54.2L58.5,54.2z"/>
</g>
<g>
	<polygon class="st2" points="59,56 58,56 58,59 59,59 	"/>
</g>
<g>
	<polygon class="st2" points="60,58 58.4,58 58.4,59 60,59 	"/>
</g>
<g>
	<circle class="st7" cx="58.5" cy="42.3" r="3.6"/>
	<path class="st2" d="M58.5,39.1c1.8,0,3.2,1.4,3.2,3.2s-1.4,3.2-3.2,3.2s-3.2-1.4-3.2-3.2S56.8,39.1,58.5,39.1 M58.5,38.2
		c-2.3,0-4.1,1.8-4.1,4.1s1.8,4.1,4.1,4.1s4.1-1.8,4.1-4.1S60.8,38.2,58.5,38.2L58.5,38.2z"/>
</g>
<g>
	<polygon class="st2" points="59,40 58,40 58,43 59,43 	"/>
</g>
<g>
	<polygon class="st2" points="60,42 58.4,42 58.4,43 60,43 	"/>
</g>
<g>
	<path class="st8" d="M31,65v7h-7v-7H31 M32,64h-9v9h9V64L32,64z"/>
</g>
<g>
	<rect x="14" y="77" class="st8" width="15" height="12"/>
</g>
<rect x="64" y="81" class="st8" width="16" height="12"/>
<rect x="71" y="84" class="st10" width="2" height="6"/>
<rect x="69" y="86" class="st10" width="6" height="2"/>
<path class="st2" d="M73.8,57.6c0-0.1-2,4.3-2,4.3l-2-4.3c-2.5,1.1-4.4,3.3-4.5,6.4H78C77.8,60.6,76.3,58.9,73.8,57.6z"/>
<circle class="st11" cx="71.7" cy="54.2" r="3.3"/>
<path class="st12" d="M37.9,21.6"/>
<g>
	<polygon class="st1" points="37.5,29.7 37.5,21.5 42.8,21.5 44.5,23.2 44.5,29.7 	"/>
	<path class="st2" d="M42.6,22l0.7,0.7l0.7,0.7v5.8h-6V22H42.6 M43,21h-6v9.2h8V23l-1-1L43,21L43,21z"/>
</g>
<polygon class="st2" points="43,22 43,24 45,24 45,23 44,21 43,21 "/>
<path class="st4" d="M65,15c0-0.4,0-0.7,0.1-1.1c0.2-2.1,0.8-4.1,2-6c0.7-1.1,1.6-2.1,2.6-3c2.4-2,5.2-3,8.3-3l0,0
	c0,0.6,0,1.2,0,1.8c-3,0.1-5.7,1.1-7.9,3.3c-2.2,2.2-3.2,4.8-3.3,8C66.2,15,65.6,15,65,15L65,15z"/>
<path class="st4" d="M78,7.5c-2,0-3.8,0.7-5.3,2.2S70.5,13,70.5,15c-0.6,0-1.2,0-1.8,0c-0.1-4.8,4-9.4,9.3-9.3C78,6.3,78,6.9,78,7.5
	z"/>
<path class="st4" d="M74.2,15c-0.6,0-1.2,0-1.7,0h-0.1c0-3.2,2.6-5.7,5.7-5.7c0,0.6,0,1.2,0,1.8c-1,0-2,0.4-2.7,1.1
	C74.5,13,74.2,13.9,74.2,15z"/>
<path class="st4" d="M78.9,13.1c0,0-0.7,0.1-1.3,0.8c-0.5,0.6-0.5,1.2-0.5,1.2h1.8V13.1z"/>
<g>
	<path class="st3" d="M65,31c0-0.4,0-0.7,0.1-1.1c0.2-2.1,0.8-4.1,2-6c0.7-1.1,1.6-2.1,2.6-3c2.4-2,5.2-3,8.3-3l0,0
		c0,0.6,0,1.2,0,1.8c-3,0.1-5.7,1.1-7.9,3.3c-2.2,2.2-3.2,4.8-3.3,8C66.2,31,65.6,31,65,31L65,31z"/>
	<path class="st3" d="M78,23.5c-2,0-3.8,0.7-5.3,2.2S70.5,29,70.5,31c-0.6,0-1.2,0-1.8,0c-0.1-4.8,4-9.4,9.3-9.3
		C78,22.3,78,22.9,78,23.5z"/>
	<path class="st3" d="M74.2,31c-0.6,0-1.2,0-1.7,0h-0.1c0-3.2,2.6-5.7,5.7-5.7c0,0.6,0,1.2,0,1.8c-1,0-2,0.4-2.7,1.1
		C74.5,29,74.2,29.9,74.2,31z"/>
</g>
<path class="st3" d="M78.9,29.1c0,0-0.7,0.1-1.3,0.8c-0.5,0.6-0.5,1.2-0.5,1.2h1.8V29.1z"/>
<path class="st7" d="M37.7,6.6c1.5,0,2.8,0.5,3.8,1.6c1.1,1.1,1.6,2.3,1.6,3.8c0.4,0,0.9,0,1.3,0c0.1-3.5-2.9-6.8-6.7-6.7
	C37.7,5.7,37.7,6.2,37.7,6.6z"/>
<path class="st7" d="M40.4,12c0.4,0,0.8,0,1.2,0c0,0,0,0,0.1,0c0-2.3-1.9-4.1-4.1-4.1c0,0.4,0,0.9,0,1.3c0.8,0,1.4,0.3,2,0.8
	C40.2,10.6,40.4,11.2,40.4,12z"/>
<path class="st7" d="M37,10.6c0,0,0.5,0.1,0.9,0.6s0.4,0.8,0.4,0.8L37,12V10.6z"/>
<rect x="15" y="21" class="st7" width="6" height="2"/>
<rect x="2" y="68" class="st8" width="5" height="1"/>
</svg>
